<svg id="Layer_1" data-name="Layer 1" xmlns="http://www.w3.org/2000/svg" width="520" height="520" viewBox="0 0 520 520"><defs><style>.cls-1,.cls-2{fill:#221f1f;}.cls-2{opacity:0.2;}</style></defs><title>Notioly v2</title><g id="_3.Newspaper" data-name="3.Newspaper"><path class="cls-1" d="M203.31,163.82l-6,.74-1.49.19-1.49.24-3,.49c-2,.34-4,.64-5.94,1l-5.89,1.24a153,153,0,0,0-23,6.75,83.26,83.26,0,0,0-15.37,7.92l-1.52,1.1c-.5.37-1,.77-1.44,1.15l-.32.28c-.09.05-.07.14-.06.23v.13l.06.41.14.92c.42,2.49,1,5,1.53,7.55,1.13,5.06,2.34,10.12,3.57,15.17l7.5,30.3c2.25,9,4.52,18,6.75,26.86,1.42,5.72,2.86,11.45,4.14,17.22.65,2.89,1.25,5.78,1.77,8.71a70,70,0,0,1,1.13,8.9,6.43,6.43,0,0,1-.22,2.18c-.16.48-.32.65-.47.58-.32-.16-.53-1.12-1.05-2.58a143.21,143.21,0,0,1-4.14-15c-2.54-11.69-5.43-23.35-8.28-35s-5.75-23.41-8.53-35.21c-1.69-7.06-3.41-14.26-5.14-21.51q-.63-2.73-1.2-5.49c-.18-.94-.38-1.85-.52-2.83l-.11-.72c0-.31-.05-.75-.08-1.12l0-.58c0-.1,0-.21,0-.29l.2-.21c.28-.28.53-.55.84-.82l.36-.34.28-.25.57-.46a13.76,13.76,0,0,1,1.15-.9c.78-.57,1.55-1.16,2.36-1.66,1.59-1.07,3.25-2,4.9-2.91a121.13,121.13,0,0,1,23.05-9c4-1,7.94-2.12,12-2.89,2-.41,4-.9,6-1.23l6.07-1c2.48-.46,5-.76,7.48-1.07s5-.65,7.5-.91l7.53-.66,3.75-.33c1.26-.12,2.52-.15,3.77-.23l11.4-.6a50.5,50.5,0,0,0,11-2A137.28,137.28,0,0,0,265.75,148c10.56-5.06,20.68-10.58,31.54-15,2.39-1,4.74-1.88,7.22-2.69a60.37,60.37,0,0,1,9.95-2.52,12,12,0,0,1,4.63.05,9.12,9.12,0,0,1,1.43.37c.49.27-.21.67-1.86,1.17l-7.54,2.12c-9.8,2.84-19.4,7.25-29.06,12s-19.39,9.85-29.87,13.79a74.12,74.12,0,0,1-12.1,3.49,46.37,46.37,0,0,1-6.37.77l-6.11.33c-4.05.23-8.12.37-12.16.79s-8.1.64-12.11,1.23Z"/><path class="cls-1" d="M194.5,158.92c-2,.28-3.92.68-5.88,1s-3.93.66-5.87,1.08l-5.82,1.33c-1,.22-2,.42-2.91.67l-2.87.81A126.64,126.64,0,0,0,148.81,172c-1.33.57-2.56,1.32-3.84,2s-2.5,1.43-3.73,2.17a53.56,53.56,0,0,0-6.92,5,8.22,8.22,0,0,0-.69.62l-.37.34c-.09.05,0,.15,0,.28l.11.82c.21,1.19.5,2.48.74,3.71.57,2.5,1.13,5,1.75,7.5,1.2,5,2.46,10,3.73,15q3.79,15,7.75,29.92c2.32,8.84,4.74,17.71,7.13,26.47,3.06,11.24,6.27,22.51,8.93,33.86,1.64,7.08-2.85-1.28-6.32-14.25-6.14-23-12.31-46-18.11-69.27-1.75-7-3.54-14.08-5.33-21.23-.89-3.58-1.76-7.17-2.5-10.84-.09-.48-.14-1-.22-1.5l-.13-1.09,0-.15.09-.1.2-.21.39-.42.63-.61c.17-.17.35-.32.53-.48l1.08-.93,2.23-1.74,2.32-1.58a103.87,103.87,0,0,1,22.05-10.49,179.57,179.57,0,0,1,23.5-6.33c4.92-.87,9.81-1.85,14.77-2.41,2.47-.3,4.94-.7,7.42-.94l7.44-.66c3.75-.41,7.52-.54,11.3-.73l5.65-.27c1,0,1.87-.1,2.78-.16s1.82-.2,2.72-.4a57.48,57.48,0,0,0,10.62-3.3c3.45-1.4,6.83-3,10.19-4.6,10.43-5.07,20.52-10.45,31.31-14.6,2.37-.93,4.72-1.77,7.16-2.57a73.41,73.41,0,0,1,9.8-2.51,15.12,15.12,0,0,1,4.53-.24,13.9,13.9,0,0,1,1.39.2c1,.39-2.78,1.22-9.37,3.06a181.32,181.32,0,0,0-29,11.52L258,146.89a139.68,139.68,0,0,1-15.11,6.5,50.11,50.11,0,0,1-6,1.67c-.52.1-1,.21-1.56.29l-1.58.22c-1.07.09-2.17.15-3.15.2l-12.06.6c-4,.3-8,.71-12,1s-8,1-12,1.55Z"/><path class="cls-1" d="M136.25,212.42l6.52,22.38,2.46,8.14,8.26,28.81c1.22,4.26,2.49,8.53,3.74,12.75,1.61,5.42,3.32,10.85,4.49,16.39.71,3.46-2.61-.31-4.35-6.55-3.11-11.08-6.3-22.16-9.31-33.39-1.81-6.72-4-13.62-6-20.45q-3.3-11.25-6.62-22.52-2-6.94-4-13.88l-3-10.54c-1-3.53-2-7-2.8-10.59a18,18,0,0,1-.39-2.42,5.55,5.55,0,0,1,.78-1.13l.69-.82a35.89,35.89,0,0,1,3-3,44.41,44.41,0,0,1,6.77-5.12c1.05-.68,2.12-1.28,3.24-1.86,4.2-2.08,5.73-2.28,6.86-2a3.84,3.84,0,0,1,.75.2c.28.16,0,.5-.69.94s-1.88,1-3.35,1.72a50.34,50.34,0,0,0-12.28,8.19c-.9.85-1.79,1.73-2.6,2.66l-.58.7-.14.18h0l.23,1.15c.56,2.47,1.26,5,2,7.53,2.1,7.51,4.3,15,6.52,22.57Z"/><path class="cls-1" d="M173,307.85a32.16,32.16,0,0,0,5.19-7.77,21.17,21.17,0,0,0,.79-2.14c.25-.72.33-1.48.51-2.22a19,19,0,0,0,.23-2.27,7.89,7.89,0,0,0-.07-2.18,5.75,5.75,0,0,0-1-2.68,2,2,0,0,0-1.88-.85,4,4,0,0,0-1.12.3.35.35,0,0,0-.19.1l-.13.07-.4.42a23.89,23.89,0,0,0-1.66,2.46c-1.09,1.78-2.2,3.61-3.36,5.4a94.45,94.45,0,0,1-7.65,10.25l-1.85,2.15-1.91,2.1c-.63.71-1.3,1.37-2,2.06l-1,1c-.3.34-.6.63-.87,1-2.82,3.52-4.4,8.31-8,11.93-1.16,1.09-1.45.39-1.1-1a23.49,23.49,0,0,1,2.41-5.78,59,59,0,0,1,4-6.39,18.91,18.91,0,0,1,1.34-1.54l1.28-1.3c.85-.85,1.69-1.7,2.5-2.59a109.65,109.65,0,0,0,9.18-11.15c1.7-2.35,3.21-4.88,4.76-7.51.38-.65.79-1.31,1.24-2a11.53,11.53,0,0,1,.8-1c.16-.17.31-.34.5-.51a8.73,8.73,0,0,1,.74-.5,6.43,6.43,0,0,1,2.74-.66,4.43,4.43,0,0,1,2.84,1.1,6.3,6.3,0,0,1,1.7,2.52,10.9,10.9,0,0,1,.64,2.71,12.57,12.57,0,0,1,.07,1.37c0,.44-.06.87-.09,1.31l-.09,1.31c0,.43-.16.85-.23,1.28a24,24,0,0,1-4.22,9.39c-2.39,3.44-5.4,6.28-7.68,9.5a17.68,17.68,0,0,0-2.15,3.83,7.17,7.17,0,0,0-.3,1,5.26,5.26,0,0,0-.25,1,21.13,21.13,0,0,0-.15,2.18c0,3.09-.11,6.2-.4,9.29-.51,4.76-1.26,9.58-3.67,14a19.92,19.92,0,0,1-1.78,2.76,20.6,20.6,0,0,1-1.84,1.87,16.29,16.29,0,0,1-1.47,1,3.13,3.13,0,0,1-2,.4,2.52,2.52,0,0,1-.7-.15c-.29-.15-.14-.53.33-1.05a12.53,12.53,0,0,1,.94-.86c.35-.38.77-.79,1.25-1.22a19,19,0,0,0,3.34-4.81,30.52,30.52,0,0,0,2-5.78,51.21,51.21,0,0,0,1-6.27c.2-2.13.31-4.3.35-6.49l0-2.45a23.29,23.29,0,0,1,.16-2.74,14.73,14.73,0,0,1,2-5.25c1.85-3.15,4.22-5.57,6.28-8.08Z"/><path class="cls-1" d="M132.69,354.54a190.46,190.46,0,0,0,4.3-19.6c.39-2.4.58-4.82.8-7.23.77-8.68,1.88-17.31,3.4-25.89.69-3.8,1.39-7.63,2.3-11.38a58.86,58.86,0,0,1,2.11-7.19,16.38,16.38,0,0,1,4.08-6.6c1.53-1.06,1.5-.17,1,1s-1,3.36-2,5.84a87,87,0,0,0-3.94,14.1c-1,4.86-1.85,9.78-2.65,14.74-.47,3-.83,6-1.12,9.09-.13,1.54-.26,3.08-.4,4.62s-.23,3.1-.39,4.66a153.46,153.46,0,0,1-3.81,20.16c-1,4.07-2.11,8.11-3.22,12.15-.85,3-1.64,6.12-2.64,9.17s-2.11,6-3.33,8.94c-1.9,4.53-3.92,8.92-6.24,13.21-.52.94-1,1.87-1.55,2.8-2,3.45-2.94,4.4-4,4.72a3.36,3.36,0,0,1-.71.2c-.68,0-.14-1.57,1.26-4.1a156.3,156.3,0,0,0,11.19-24c1.12-3.15,2-6.32,2.89-9.63s1.8-6.56,2.64-9.84Z"/><path class="cls-1" d="M146.09,397.41c.49-2.69.92-5.41,1.29-8.14.13-1,.17-2,.3-3,.47-3.52.94-7,1.35-10.6.18-1.57.27-3.16.36-4.74.13-2,0-4.07.88-6.18.31-.69,1-.25,1.68.44a3.53,3.53,0,0,1,1.15,2.75c-.42,3.95-.8,8.09-1.58,12.19-.45,2.45-.52,5.05-.83,7.58-.33,2.78-.72,5.57-1.17,8.34q-.42,2.56-.9,5.12c-.48,2.58-1.08,5.15-1.71,7.7a56.8,56.8,0,0,1-1.57,5.95c-.17.43-.31.87-.5,1.3-.77,1.59-1.37,1.95-2.25,1.73a3.77,3.77,0,0,1-.6-.16c-.61-.3-.65-1.11-.27-2.12a86,86,0,0,0,2.76-10.09c.58-2.65,1.11-5.35,1.53-8.07Z"/><path class="cls-1" d="M139.08,380.7a32.87,32.87,0,0,1-4-1.69,15.82,15.82,0,0,1-1.45-.67,22.6,22.6,0,0,1-4.49-3.44c-.31-.27-.59-.6-.91-.88s-.61-.59-.9-.91l-.57-.59c-.18-.22-.35-.45-.52-.68a3.45,3.45,0,0,1-.63-1.57c0-.37.75-.6,1.6-.68s1.68-.09,1.93.27a32.12,32.12,0,0,0,3.37,4,10.51,10.51,0,0,0,3,1.86,32.7,32.7,0,0,0,3.62,1.62,24,24,0,0,0,2.36.75,20,20,0,0,0,3.69.71,16.32,16.32,0,0,0,2.88-.17c.21,0,.42-.09.63-.1.78,0,1,.18,1.2,1a4.12,4.12,0,0,1,.12.59,1.21,1.21,0,0,1-.86,1.39,13.24,13.24,0,0,1-5.75.22,29.9,29.9,0,0,1-4.28-1Z"/><path class="cls-1" d="M136.21,395c.84-2.7,1.7-5.39,2.49-8.06l.46-1.59a.82.82,0,0,0,0-.35c0-.12-.07-.26-.19-.29s-.37.2-.47.41l-.14.36-.22.65-.31,1c-.82,2.66-1.59,5.38-2.38,8.09-.58,2-1.15,4-1.78,6a49,49,0,0,1-2.23,6,11.72,11.72,0,0,1-1.66,2.71,5,5,0,0,1-.81.72,2.82,2.82,0,0,1-1.55.49,2.62,2.62,0,0,1-.94-.18l-.55-.3a3.29,3.29,0,0,1-.94-.92,4,4,0,0,1-.64-2.14,8.9,8.9,0,0,1,.17-1.7,27.59,27.59,0,0,1,.78-2.75l.35-1.29.4-1.34q.41-1.33.87-2.64c.62-1.74,1.28-3.43,1.9-5.12s1.22-3.36,1.7-5.05.81-3.41,1.16-5.2c.17-.88.33-1.75.43-2.6a10.76,10.76,0,0,0,.11-1.24,3.14,3.14,0,0,0-.06-.92s-.08,0,.12-.07a.82.82,0,0,0,.2-.12l.13-.07.1-.1.05,0a.17.17,0,0,0,0-.05,0,0,0,0,0,0,0,1,1,0,0,0,0,.18,3.47,3.47,0,0,0,.07.35,1,1,0,0,0,.07.17h0l0,0a4.11,4.11,0,0,0-.77.67,6.72,6.72,0,0,0-1.08,2c-1.16,2.89-2.08,6-3.06,9.07S126,395.92,124.9,399l-.56,1.41c-.21.49-.35.86-.74,1.64a9.44,9.44,0,0,1-.53,1l-.28.49-.31.42c-.1.14-.2.29-.31.42l-.33.33a6.06,6.06,0,0,1-.69.58,2.54,2.54,0,0,1-2.66.17,3.45,3.45,0,0,1-1.26-2.36,12,12,0,0,1,.09-3.51l.11-.68.11-.6c.08-.4.16-.8.25-1.19a40.74,40.74,0,0,1,1.38-4.61,26.58,26.58,0,0,1,2-4.43,3.61,3.61,0,0,1,1.11-1.26,1.25,1.25,0,0,1,.53-.2c.15,0,.21,0,.23.12s-.11.45-.14.79-.11.79-.19,1.34c-.26,2.17-1,6.06-1.79,10.4l-.08.45,0,.21h0v0l.18-.41c.17-.37.33-.77.49-1.15.63-1.57,1.21-3.21,1.78-4.86l3.33-10.07a46,46,0,0,1,2-5.2,7.26,7.26,0,0,1,.41-.75,4.82,4.82,0,0,1,.64-.83,7.33,7.33,0,0,1,1.36-1.18,3,3,0,0,1,1.65-.55h.36a3.2,3.2,0,0,1,.42.1,2.19,2.19,0,0,1,.74.39,2.59,2.59,0,0,1,.76,1,4,4,0,0,1,.33,1.25c0,.34,0,.62,0,.89a32.6,32.6,0,0,1-.85,5.61c-.18.85-.37,1.77-.6,2.67s-.48,1.79-.76,2.67c-.8,2.48-1.75,4.89-2.64,7.28-.44,1.19-.87,2.39-1.26,3.59q-.28.9-.54,1.8l-.51,1.89c-.19.67-.38,1.25-.53,1.82a7,7,0,0,0-.24,1.56,1.84,1.84,0,0,0,.06.49c0,.08,0,.13.08.13s0,0,.07.05h0c-.09.21.19-.47-.2.47v0a.14.14,0,0,0,0,.07c0,.06,0,0,0,0a1.3,1.3,0,0,0-.21-.59s0,0,.09-.08a4.92,4.92,0,0,0,.83-1.2,17.37,17.37,0,0,0,.78-1.62c.48-1.14.91-2.33,1.32-3.53,1.8-5.3,3.19-10.81,4.91-16.28l.41-1.25c.17-.52.37-1.07.56-1.59a9.36,9.36,0,0,1,1.35-2.58,3.58,3.58,0,0,1,1.72-1.27,2.79,2.79,0,0,1,1.22-.12,2,2,0,0,1,1.12.53,4.07,4.07,0,0,1,1.11,2.05,6.36,6.36,0,0,1,.15,1.23,6.87,6.87,0,0,1-.07,1.4c-.07.51-.2,1-.32,1.58l-.39,1.5-.6,2.07-3.07,10c-.49,1.67-1,3.34-1.4,5-.21.83-.41,1.67-.59,2.51l-.16.78-.11.68a7.06,7.06,0,0,0-.09,1,1.88,1.88,0,0,0,.19,1,.66.66,0,0,0,.94.05,2.41,2.41,0,0,0,.66-.79,10.16,10.16,0,0,0,.79-2c.36-1.23.64-2.54,1-3.81,1.05-5.1,1.84-10.39,3-15.55.22-1,.46-2,.74-3,.14-.5.29-1,.47-1.52a7.15,7.15,0,0,1,.77-1.63,2.69,2.69,0,0,1,.48-.5,1.69,1.69,0,0,1,.54-.25,1.36,1.36,0,0,1,.41-.05,2,2,0,0,1,1.43.6,3.68,3.68,0,0,1,.84,1.93,15.86,15.86,0,0,1,.16,3.26,112.3,112.3,0,0,1-1.46,12.15c-.28,1.75-.55,3.47-.83,5.24-1.08,6.55-1.43,8.48-2,9.72a.75.75,0,0,0-.06.44c0,.14.22.25.35.3s.33.26-.12.5a.9.9,0,0,1-.55,0,1.29,1.29,0,0,1-.6-.38,2.81,2.81,0,0,1-.54-1.06,16.75,16.75,0,0,1-.11-5.87c.41-3.64,1-7.26,1.54-10.9A95.9,95.9,0,0,0,145.19,386a10,10,0,0,0-.15-2.26c0-.13-.09-.19,0-.23a2.18,2.18,0,0,0,1-.71l0,0a.13.13,0,0,0,0,.08s0,.11,0,.19a.5.5,0,0,0,0,.12v0h0c-.28-1.88-.08-.51-.14-.92a.17.17,0,0,0,0,.07.26.26,0,0,0,.06.13c0,.05.05,0,.11.15a1.79,1.79,0,0,0,.39.43c.13.06.39.33.62.49.05,0,0,0,0,0a7.12,7.12,0,0,0-.37.89c-.13.38-.26.8-.38,1.22-.24.85-.46,1.75-.66,2.65-.81,3.63-1.45,7.37-2.12,11.14-.26,1.4-.5,2.79-.8,4.25l-.13.57-.13.55-.25,1c-.17.7-.34,1.42-.55,2.15l-.11.39-.16.5-.33,1a19.57,19.57,0,0,1-.77,1.84,8.13,8.13,0,0,1-1.86,2.55,5.26,5.26,0,0,1-1,.64,4.75,4.75,0,0,1-1.14.3,1.83,1.83,0,0,1-.66,0,2.44,2.44,0,0,1-.69-.12,3.22,3.22,0,0,1-1.09-.62,3.75,3.75,0,0,1-1.1-2,10.74,10.74,0,0,1-.07-3.45c.08-.67.18-1.35.31-2l.19-1,.12-.54c.15-.72.32-1.43.5-2.14.71-2.83,1.53-5.58,2.35-8.32Z"/><path class="cls-1" d="M344.92,219.07q-1.6-11-3.48-22c-.47-2.67-1-5.32-1.5-8-1.68-9.38-3.47-18.76-5.63-28-.49-2.05-1-4.1-1.55-6.15s-1.17-4.06-1.76-6.07c-1.63-5.12-3.42-10.21-5.26-15.19-.53-1.57.3-1.73,1.58-.73a11.46,11.46,0,0,1,2.16,2.34,15.58,15.58,0,0,1,1.95,3.85l.72,2,.63,2,1.24,4c.73,2.69,1.51,5.37,2.16,8.07q2,8.11,3.48,16.35c1.22,6.57,2.71,13.34,4,20.05q2,11.08,3.69,22.2,1,6.84,2,13.69c.51,3.46,1,6.93,1.42,10.39l.69,5.19c.24,1.7.53,3.39.9,5.06,1.14,5.2,3,10.1,4.7,15.19.37,1.12.75,2.22,1.08,3.37,1.17,4.32,1.09,5.86.38,6.9a4,4,0,0,1-.5.69c-.63.47-1.29-1.2-2.14-4.19-1.29-4.45-3.05-9-4.55-13.77-.75-2.4-1.44-4.86-2-7.37-.3-1.26-.53-2.53-.75-3.81l-.29-1.93-.26-1.86c-1-7.4-2-14.83-3.18-22.22Z"/><path class="cls-1" d="M353.6,286.1a30.23,30.23,0,0,0-4.2-2.66,32.94,32.94,0,0,1-4.47-3.19,33.4,33.4,0,0,1-7.08-8.31,26.14,26.14,0,0,1-1.81-3.63,11,11,0,0,1-.88-4.25,5.17,5.17,0,0,1,.15-1.13,3.22,3.22,0,0,1,.22-.61l.15-.31.15-.23a4.71,4.71,0,0,1,1.71-1.63,4.85,4.85,0,0,1,2.31-.46,8,8,0,0,1,2,.44,22.64,22.64,0,0,1,6,3.79c1.77,1.47,3.43,3,5.06,4.58l2.42,2.34a20.16,20.16,0,0,0,2.41,2.08c1.59,1,3.42,1.9,5.17,2.84s3.53,1.88,5.26,2.88a60.19,60.19,0,0,1,6.52,4.2l1.53,1.26c.49.44,1,.92,1.44,1.38s.87,1,1.29,1.56l.55.89a4.3,4.3,0,0,1,.48.93c.66,1.72-.17,1.54-1.28.68s-3-2.1-5.13-3.83a88.4,88.4,0,0,0-12.86-8c-1.14-.63-2.27-1.23-3.45-1.92-.28-.16-.6-.37-.9-.55a9,9,0,0,1-.93-.69c-.56-.47-1-.93-1.53-1.39-1.9-1.84-3.69-3.69-5.57-5.45a39.77,39.77,0,0,0-3.52-3,15.19,15.19,0,0,0-3.83-2.17,3.7,3.7,0,0,0-1.76-.24,1.65,1.65,0,0,0-1.13.76c-.57.61-.34,2.19.09,3.54a25.16,25.16,0,0,0,5.17,8.54,31.41,31.41,0,0,0,7.89,6.39c.46.24.91.49,1.42.8a15.37,15.37,0,0,1,1.45.91,21.93,21.93,0,0,1,2.61,2.19,30.39,30.39,0,0,1,4.13,5.25c1.8,2.81,3.29,5.76,4.92,8.56a30.7,30.7,0,0,0,5.71,7.64,31.25,31.25,0,0,0,12.62,7c1,.31,2,.44,3.07.65,3.88.52,5.11.32,6,1a4.43,4.43,0,0,1,.64.44c.23.26-.05.53-.81.8a11.54,11.54,0,0,1-1.46.38c-.6.06-1.31.11-2.11.13a26.5,26.5,0,0,1-7.07-1.1,31.54,31.54,0,0,1-6.64-3,35.89,35.89,0,0,1-5.94-4.37,23.88,23.88,0,0,1-2.62-2.77c-.78-1-1.49-2-2.16-3-2-3.07-3.58-6.23-5.33-9.19a46.77,46.77,0,0,0-2.8-4.22,23.47,23.47,0,0,0-3.37-3.52Z"/><path class="cls-1" d="M390.59,285a92.46,92.46,0,0,0,6.42,8.27c2.35,2.58,4.85,5.12,7.35,7.63,1.82,1.83,3.72,3.6,5.55,5.42q9.72,9.64,19.57,19.19c2.92,2.82,5.91,5.59,8.87,8.31,3.8,3.51,7.72,6.9,11.28,10.69,1.12,1.19.46,1.52-1,1.06a17.16,17.16,0,0,1-5.89-3.73c-7.72-7.2-15.34-14.5-22.81-22.1-4.47-4.54-9.35-9-14-13.61q-3.82-3.78-7.6-7.63c-1.24-1.31-2.5-2.57-3.7-4s-2.32-2.79-3.43-4.22c-2.69-3.54-5.18-7.2-7.63-10.87-3.71-5.57-7.25-11.26-11.07-16.65a91.12,91.12,0,0,0-9.63-11.66c-.78-.78-1.57-1.49-2.39-2.22-1.51-1.35-2.58-2.1-3.27-2.73a4.49,4.49,0,0,1-1.3-1.55,3.26,3.26,0,0,1-.31-.71c-.07-.34.32-.42,1.13-.24a10.9,10.9,0,0,1,3.31,1.61,50.63,50.63,0,0,1,10.18,10.08c3,3.77,5.74,7.76,8.43,11.77,4,6,7.82,12,12,17.81Z"/><path class="cls-1" d="M417.43,352.29c-1.31-2.22-2.7-4.37-4.18-6.49-.54-.77-1.16-1.48-1.71-2.25-1.94-2.69-4-5.37-6-8-.93-1.16-1.92-2.28-2.92-3.36a31.12,31.12,0,0,1-3.7-4.33c-.64-1,2.29-1.56,3.74.07a95.62,95.62,0,0,1,7.26,9.15c1.33,1.94,3,3.77,4.38,5.72,1.57,2.13,3.06,4.33,4.47,6.58l2.53,4.16c1.28,2.08,2.53,4.18,4,6.09a30.39,30.39,0,0,0,3.74,4l.9.78c1.09,1,1.35,1.39,1.14,2.16,0,.17-.08.36-.14.52-.23.52-1,.47-2-.19A29.21,29.21,0,0,1,421.6,359c-1.5-2.22-2.84-4.51-4.22-6.71Z"/><path class="cls-1" d="M425.19,332.8a29.64,29.64,0,0,1-4,3.16c-.51.35-1,.72-1.55,1a19.84,19.84,0,0,1-6.24,2.15,17.49,17.49,0,0,1-3,.26,5.44,5.44,0,0,1-3.76-1.12c-.34-.27.11-.81.7-1.26a5,5,0,0,1,.91-.56,1.17,1.17,0,0,1,.81-.14,12.77,12.77,0,0,0,6-.13,12.38,12.38,0,0,0,3.73-1.77,25.68,25.68,0,0,0,3.76-2.75,19.45,19.45,0,0,0,2-2,12.34,12.34,0,0,0,2.29-3.6,3.59,3.59,0,0,0,0-2.76,1.32,1.32,0,0,0-.12-.2c-.05-.06-.11-.11-.15-.17-.33-.41-.42-.6-.2-1.33.05-.16.09-.33.14-.49a.69.69,0,0,1,.56-.5,1.33,1.33,0,0,1,1.08.31,3.9,3.9,0,0,1,1.36,1.88,6.4,6.4,0,0,1,.24,1.12,7.76,7.76,0,0,1,0,1.08,9.6,9.6,0,0,1-1.24,3.68,19.9,19.9,0,0,1-3.27,4.18Z"/><path class="cls-1" d="M436.19,353.24a32.7,32.7,0,0,1-3.42-5.1c-1-1.69-1.88-3.38-2.81-5.05s-1.84-3.31-2.84-4.83a15.68,15.68,0,0,0-1.55-2.05,3.4,3.4,0,0,0-.38-.38,1.77,1.77,0,0,0-.32-.25c-.06-.06-.07,0-.08-.05l0,0a1.28,1.28,0,0,1,.06-.24.52.52,0,0,0,0-.18.66.66,0,0,0,0-.14s0,0,0,0l.49.11a0,0,0,0,0,0,0s-.07-.05,0,0a.34.34,0,0,0,.11.05l.08,0s0,0,0,.08a.46.46,0,0,0,0,.18,4.23,4.23,0,0,0,.25,1.18,19.36,19.36,0,0,0,2,3.93c.83,1.31,1.74,2.59,2.66,3.86,1.64,2.27,3.37,4.41,5.17,6.69a16.55,16.55,0,0,1,2.41,4,4.92,4.92,0,0,1,.32,1.46,3.37,3.37,0,0,1-.08,1,2.76,2.76,0,0,1-.54,1,2.49,2.49,0,0,1-.87.67l-.45.19a3.1,3.1,0,0,1-.39.09,3.49,3.49,0,0,1-1.73,0A6.36,6.36,0,0,1,432,358a20.67,20.67,0,0,1-1.61-1.64c-1-1.12-1.85-2.28-2.69-3.45-1.67-2.35-3.2-4.75-4.72-7.15l-2-3.17-.51-.77-.26-.37-.23-.31a3.54,3.54,0,0,0-.65-.68.65.65,0,0,0-.83-.06,1.37,1.37,0,0,0-.36.81,2.25,2.25,0,0,0,0,.44c0,.2,0,.48,0,.74a10.28,10.28,0,0,0,.25,1.65,29.47,29.47,0,0,0,3.79,8.35,44.41,44.41,0,0,0,5.73,7.27c1.35,1.33.69,1.85-1.15,1.31a14.31,14.31,0,0,1-6.9-5.69,33.72,33.72,0,0,1-4.49-9.43,14.28,14.28,0,0,1-.54-2.81c0-.25,0-.48-.05-.75v-.84l.14-1.19c.07-.38.2-.74.29-1.12s.31-.66.47-1a4.41,4.41,0,0,1,.65-.77,3,3,0,0,1,1.79-.83,3.64,3.64,0,0,1,1,0,8.92,8.92,0,0,1,1,.31c.3.18.6.41.9.61a5.68,5.68,0,0,1,.83.8,8.55,8.55,0,0,1,1.18,1.45l.71,1.07,1.32,2.1,2.59,4.16a64.86,64.86,0,0,0,5.54,7.78,8.13,8.13,0,0,0,1.81,1.59,1.34,1.34,0,0,0,.25.11.44.44,0,0,0,.2,0s.14,0,.15,0h0l.05.07c.12.25.33.32.11.22,0,0,0,0-.13,0l-.15,0h0l0-.07a2.16,2.16,0,0,0-.07-.39,6.84,6.84,0,0,0-.5-1.09,17.16,17.16,0,0,0-1.58-2.3,120.46,120.46,0,0,1-7.46-9.75,33.41,33.41,0,0,1-2.42-4.28,11,11,0,0,1-.84-2.56,4.72,4.72,0,0,1,0-1.65,3.1,3.1,0,0,1,1-1.85l.19-.16.12,0a2.74,2.74,0,0,1,1.14-.21,3.31,3.31,0,0,1,.55.07,3.26,3.26,0,0,1,.44.15,3,3,0,0,1,.72.39,3.18,3.18,0,0,1,.56.43,11.69,11.69,0,0,1,1.63,1.81,41.76,41.76,0,0,1,2.42,3.75c1.47,2.51,2.8,5.06,4.22,7.52a42.87,42.87,0,0,0,2.36,3.72,9.43,9.43,0,0,0,1.32,1.49l.31.22c.07,0,.17.09.19.08s0,0,0,.06,0,0,0,0h0c0-.05,0,0,0,0s0,0,0,0l.12.24c-.09-.13-.27-.1-.23-.14a.42.42,0,0,0,0-.16,2.26,2.26,0,0,0-.1-.62,8.65,8.65,0,0,0-.56-1.53,32.21,32.21,0,0,0-1.65-3.11c-2.09-3.49-4.48-6.87-6.74-10.38-.56-.89-1.11-1.78-1.63-2.74a7.89,7.89,0,0,1-.69-1.62,3.35,3.35,0,0,1-.1-.62,1.91,1.91,0,0,1,.1-.53,1.69,1.69,0,0,1,.13-.29,2,2,0,0,1,1-1,2,2,0,0,1,1.45,0,4,4,0,0,1,.9.52,9,9,0,0,1,1.25,1.2,25.5,25.5,0,0,1,1.93,2.55c.45.66.88,1.33,1.29,2l.62,1c.21.32.44.71.63,1,.77,1.4,1.44,2.78,2.15,4.13a35.59,35.59,0,0,0,2.26,3.84,5.67,5.67,0,0,0,1.23,1.37.54.54,0,0,0,.17.09c0-.05-.06.26-.06.27s0,.16,0,.08a.74.74,0,0,0-.08-.18.45.45,0,0,0-.1-.13s0,0,0,0,.06-.1.12-.17l.25-.32.1.22,0,0s0,0-.07,0a1.52,1.52,0,0,0-.2-.06s0,0,0,0a.73.73,0,0,0,0-.21,3.26,3.26,0,0,0-.25-.69,14.89,14.89,0,0,0-.91-1.6c-1.35-2-2.42-3.41-3-4.48a4.33,4.33,0,0,1-.75-2.56,2,2,0,0,1,.19-.93c.29-.24.56-.13,1.23.46a29.61,29.61,0,0,1,2.94,3.13,34.49,34.49,0,0,1,2.42,3.26,11.1,11.1,0,0,1,1.07,2.1,4.92,4.92,0,0,1,.29,1.55,3.2,3.2,0,0,1,0,.53c0,.19-.08.39-.14.58a3.25,3.25,0,0,1-.74,1.14l.3-.36a7,7,0,0,1-.44.6,3.31,3.31,0,0,1-.73.61,2.82,2.82,0,0,1-1.11.41,2.86,2.86,0,0,1-1.15-.08,3,3,0,0,1-.86-.35,3.91,3.91,0,0,1-.58-.4,6.05,6.05,0,0,1-.85-.81,18.7,18.7,0,0,1-2.13-3.1c-1.17-2-2.14-4.15-3.15-6.06-.13-.24-.25-.47-.38-.68l-.41-.67-.9-1.44c-.59-.93-1.2-1.84-1.83-2.66a12.57,12.57,0,0,0-1-1.13,4,4,0,0,0-.44-.41c-.07-.07-.12-.09-.17-.14l-.05,0,0,0h0l.05-.11a2.12,2.12,0,0,0,.3-1.23.93.93,0,0,0,.24.29,1.29,1.29,0,0,0,.34.25,2.75,2.75,0,0,0,.52.31h0l-1.68-.75h0a.57.57,0,0,0,.25.08.49.49,0,0,0,.24,0h.46a3.81,3.81,0,0,0,.47-.07l.22-.07.15-.05,0,.06s0,.12.08.21.08.18.14.29a48.27,48.27,0,0,0,2.89,4.69l3.24,4.86c1.08,1.66,2.15,3.32,3.15,5.11a28.4,28.4,0,0,1,1.4,2.87,9.19,9.19,0,0,1,.53,1.8,4.76,4.76,0,0,1,.09,1.25,5.46,5.46,0,0,1-.17.88,4.11,4.11,0,0,1-.55,1l-.06.08-.08.07a6.12,6.12,0,0,1-.88.63,4.5,4.5,0,0,1-1.21.32,5.11,5.11,0,0,1-1.11-.13c-.27-.1-.54-.21-.8-.33a7.44,7.44,0,0,1-1.81-1.52Z"/><path class="cls-1" d="M355.1,259.44l-1.89-6.82c-.23-.83-.52-1.64-.73-2.48-.78-2.93-1.51-5.89-2.18-8.86-.27-1.33-.63-2.64-.89-4-.16-.85-.4-1.69-.48-2.58-.05-.45-.09-.89-.12-1.33s.07-.93.13-1.39.56-.39,1,.09a3.86,3.86,0,0,1,1,2.12c.4,3.28,1.22,6.69,1.88,10.13.41,2.07,1.11,4.15,1.69,6.23l1.93,6.85,1.2,4.22c.59,2.14,1.19,4.29,1.78,6.41.47,1.65,1,3.25,1.42,4.92.08.37.18.73.26,1.11a4.1,4.1,0,0,1,.09,1.54,1,1,0,0,1-.45.7,1.26,1.26,0,0,1-.32.21c-.37.12-.74-.42-.93-1.35-.7-2.8-1.62-5.84-2.47-8.89l-2-6.83Z"/><path class="cls-1" d="M107.41,281.9l5.57-2.1c.68-.25,1.33-.57,2-.82l7.19-2.58c1.06-.39,2.1-.84,3.12-1.31a21.55,21.55,0,0,1,4-1.61c.42-.1.65.48.54,1.18a2.41,2.41,0,0,1-1.31,1.85,69.81,69.81,0,0,1-8.32,3c-1.71.49-3.37,1.3-5.06,2l-5.58,2.14L106.13,285c-1.72.7-3.45,1.38-5.12,2.16-1.29.62-2.49,1.36-3.69,2.07-.27.15-.51.33-.77.48-1,.57-1.22.56-1.84.2-.14-.09-.29-.16-.42-.25a.53.53,0,0,1-.2-.65,1.56,1.56,0,0,1,.26-.46,2.61,2.61,0,0,1,.47-.47,34.51,34.51,0,0,1,7-3.88c1.83-.81,3.7-1.55,5.55-2.31Z"/><path class="cls-1" d="M111,306.05q3.11,2.93,6.24,5.83c.77.7,1.58,1.35,2.34,2.06,2.69,2.48,5.36,5,8.08,7.44,1.21,1.09,2.47,2.13,3.72,3.15a43.3,43.3,0,0,1,4.73,4c.88.95-1.86,1.68-3.71.15-3.26-2.71-6.42-5.53-9.44-8.57-1.81-1.81-3.88-3.47-5.82-5.22l-6.35-5.84-3.88-3.62L101,300c-1.52-1.41-3.1-2.7-4.61-4.12-.34-.31-.67-.61-1-.94-1.18-1.26-1.43-1.9-1.08-2.58a1.58,1.58,0,0,1,.26-.42c.4-.31,1-.07,1.82.72,2.62,2.35,5.49,4.92,8.29,7.53L111,306Z"/><path class="cls-1" d="M108.52,308c2.06,1.89,4.13,3.78,6.22,5.64l2.33,2c2.69,2.41,5.36,4.83,8.07,7.2,1.21,1,2.46,2.06,3.7,3a49.07,49.07,0,0,1,4.71,3.91c.9.92-1.66,1.5-3.49,0-3.24-2.62-6.39-5.35-9.43-8.27-1.81-1.75-3.87-3.36-5.8-5.06l-6.33-5.65-3.87-3.51L98.8,302c-1.52-1.36-3.07-2.63-4.56-4-.33-.3-.66-.6-1-.92-1.17-1.23-1.42-1.85-1.13-2.49a1.52,1.52,0,0,1,.22-.38c.35-.3.87,0,1.72.76l8.2,7.38,6.28,5.66Z"/><path class="cls-1" d="M107.53,308.71c2.06,1.84,4.13,3.68,6.22,5.49l2.33,1.93c2.68,2.34,5.35,4.69,8.06,7,1.21,1,2.46,2,3.7,2.95a46.21,46.21,0,0,1,4.71,3.79c.89.89-1.64,1.52-3.47.09-3.24-2.54-6.39-5.19-9.42-8-1.81-1.7-3.87-3.26-5.8-4.91l-6.33-5.49-3.86-3.42-5.83-5.2c-1.51-1.33-3-2.56-4.54-3.92-.33-.29-.66-.59-1-.9-1.16-1.21-1.42-1.83-1.12-2.46a1.27,1.27,0,0,1,.22-.38c.35-.29.86,0,1.7.74l8.17,7.18,6.27,5.51Z"/><path class="cls-1" d="M176.84,193.55a58.38,58.38,0,0,0-7.73,2.16,65.48,65.48,0,0,0-7.39,3.25c-1.75.9-3.43,1.94-5.08,3l-.75.48-.15.1,0,.16,0,.09,0,.17.19.64.37,1.27,1.51,5.08,3,10.17c.9,3,1.88,6,2.86,9,1.25,3.79,2.63,7.57,3.59,11.46.6,2.42-2.56.11-4-4.28-2.5-7.77-4.87-15.59-7-23.54-.65-2.37-1.38-4.77-2.14-7.19l-.57-1.8-.44-1.4-.11-.38-.06-.19s-.08-.14,0-.16l.63-.48.64-.46.54-.37.8-.53c.55-.35,1.09-.69,1.64-1a64.2,64.2,0,0,1,15.47-6.65A51.75,51.75,0,0,1,183,190.35c5.17-.42,10.37-.51,15.49-.77a103.39,103.39,0,0,0,11.67-1.18c.82-.17,1.64-.32,2.45-.53s1.37-.34,1.86-.5c.25-.08.48-.14.69-.19s.37-.13.54-.17a4.76,4.76,0,0,1,.85-.16,2.22,2.22,0,0,1,.68,0,5.7,5.7,0,0,1,.64.07c.29.1.25.41-.19,1-.11.13-.24.28-.4.44l-.56.39c-.21.14-.44.28-.7.43s-.53.24-.83.36a25.29,25.29,0,0,1-5.4,1.41c-1.83.32-3.67.5-5.52.67-3.7.31-7.42.44-11.13.61-2.76.12-5.51.25-8.26.43a58.68,58.68,0,0,0-8,1Z"/><path class="cls-1" d="M202.66,230.05a106.77,106.77,0,0,0,13.9-2.73,24.62,24.62,0,0,0,4.54-1.94c.29-.18.6-.35.88-.54l.8-.62.66-.7c.08-.1.2-.31.23-.34l.1-.12,0-.17-.1-.49-.24-1.13-.49-2.25-2-9c-.6-2.66-1.28-5.32-2-7.94-.9-3.35-1.89-6.74-2.61-10.06a.78.78,0,0,1,0-.48.61.61,0,0,1,.09-.16l0,0,.09-.07c.11-.07.14-.1.11-.07s-.05,0,0,0l.09,0,.23,0a1.63,1.63,0,0,1,.61.37,8.46,8.46,0,0,1,2.4,4.17c1.81,6.9,3.37,13.83,4.71,20.89.2,1.05.43,2.11.66,3.18l.36,1.6.18.8.14.6a2.63,2.63,0,0,1,.12.66l-.7,1.13a4,4,0,0,1-.6.75,8.66,8.66,0,0,1-1.38,1.27c-.48.37-1,.66-1.5,1s-1,.55-1.57.77a40.5,40.5,0,0,1-7.1,2.17c-2.39.54-4.78,1-7.17,1.34l-8.8,1.38a113.73,113.73,0,0,0-13.12,2.67,36,36,0,0,0-9.22,4c-.62.38-1.16.83-1.75,1.24-2.07,1.65-2.54,2.28-3.45,2.35a4.51,4.51,0,0,1-.6.06c-.29,0-.34-.34-.15-.88a6.39,6.39,0,0,1,.47-1,14.29,14.29,0,0,1,.93-1.15,23.86,23.86,0,0,1,8.34-5.26,61.78,61.78,0,0,1,9.49-2.79c4.78-1.05,9.6-1.74,14.36-2.51Z"/><path class="cls-1" d="M293.52,269.72a39.29,39.29,0,0,0-5.11,1.81c-.83.36-1.66.75-2.5,1.15a6.75,6.75,0,0,1-2.24.83,1.86,1.86,0,0,1-.48-.05.62.62,0,0,1-.41-.27l-.61-.79-1.67-5-1.41-4.36c-.74-2.37-1.54-4.73-2.2-7.13-.55-2-1.09-4-1.54-6.06-.24-1-.44-2-.65-3.06l-.28-1.55-.08-.4-.08-.56-.17-1.12a5.06,5.06,0,0,1,.2-1.11,2.13,2.13,0,0,1,1.07-.49c.44-.08.94-.12,1.37-.17l.86-.07c1.15-.1,2.28-.2,3.41-.32a42.62,42.62,0,0,0,6.64-1.13,12.5,12.5,0,0,0,2.53-1l2.51-1.45c1.69-1,3.41-1.91,5.15-2.76a50.2,50.2,0,0,1,7-2.88,24.49,24.49,0,0,1,7.52-1.25c1.61,0,1.34.65.09,1.3a36,36,0,0,1-6,2.23,63.7,63.7,0,0,0-13.41,6l-1.68.94a12.67,12.67,0,0,1-2,.83,28.25,28.25,0,0,1-3.9.93c-2.58.43-5.15.63-7.69.8l-.81.05h-.23a.72.72,0,0,0-.25,0,.92.92,0,0,0,0,.23l.06.46,0,.12,0,.22.08.45c.12.61.22,1.22.36,1.83.26,1.23.56,2.45.86,3.67.63,2.45,1.34,4.89,2.07,7.31.64,2.18,1.33,4.34,2,6.51l2,6,.1.34c.1.06.22,0,.33-.07l.32-.14.66-.32c1-.5,2.09-1,3.16-1.41a41,41,0,0,1,6.15-1.94c1-.24,2.11-.43,3.17-.58s2.15-.22,3.17-.34a46.4,46.4,0,0,0,9.22-1.79c2.93-.94,5.89-2.25,7.92-4.4a4.62,4.62,0,0,0,.48-.59c.1-.13.22-.28.13-.46l-.36-1.63c-.27-1.19-.54-2.38-.8-3.56-.55-2.37-1.09-4.73-1.63-7.1-.24-1-.48-2.06-.72-3.11-.84-3.92-.94-5.2-.48-6.16a3.18,3.18,0,0,1,.32-.64c.41-.47,1.13,1,1.86,3.89,1.08,4.21,2.09,8.55,3.06,13,.24,1.11.49,2.21.73,3.33l.42,2,.05.41c0,.13.07.28,0,.39a5.88,5.88,0,0,1-.41.73,5.72,5.72,0,0,1-.44.62c-.11.13-.22.28-.34.4a17.75,17.75,0,0,1-6.27,4.17,40.64,40.64,0,0,1-10.31,2.69c-1.73.23-3.55.38-5.12.57a34.72,34.72,0,0,0-4.8,1Z"/><path class="cls-1" d="M290.88,334.75c-4.49,1.58-9,3.17-13.51,4.67s-9.19,2.8-13.84,3.94c-3.39.83-6.78,1.67-10.21,2.32a160.14,160.14,0,0,1-36.76,3.07,88.74,88.74,0,0,1-16.32-2,51.26,51.26,0,0,1-10.09-3.28,32.33,32.33,0,0,1-8.91-5.89c-1.62-1.56-.77-1.91,1.11-1.35a72.54,72.54,0,0,1,8.21,3.53A60,60,0,0,0,210.14,345a102,102,0,0,0,10.37.69c3.48.06,7,0,10.5-.16a161.12,161.12,0,0,0,25.55-3.77c4.64-1,9.26-2.14,13.82-3.46s9.05-2.9,13.57-4.47l16.63-5.95c8.39-3,16.85-6,25.23-8.9,6.52-2.23,12.88-4.54,19.51-6.38,1.46-.4,2.89-.79,4.41-1.11a21.06,21.06,0,0,1,6.17-.6,3.68,3.68,0,0,1,2.79,1.34,1.4,1.4,0,0,1,.3,1c-.06.19-.24.22-.42.24s-.42,0-.78,0a25.81,25.81,0,0,0-4.11.45,84.32,84.32,0,0,0-8.74,2.16c-2.95.87-5.92,1.82-8.91,2.8-6,2-12,4.07-18.08,6.22l-27,9.73Z"/><path class="cls-1" d="M177.5,254.61a2.8,2.8,0,0,1,.29,2.24,2.18,2.18,0,0,0-.07.63.14.14,0,0,0,.1.12,1.36,1.36,0,0,0,.85-.36c.75-.6,1.46-1.56,2.38-2.46a6.43,6.43,0,0,1,1.46-1.11,3.14,3.14,0,0,1,1.07-.35,3.37,3.37,0,0,1,1,0c.63.08,1.15.24,1.62.34l.69.13a2.73,2.73,0,0,0,.59,0,4.75,4.75,0,0,0,2-.74c.73-.42,1.48-.9,2.31-1.36a9.38,9.38,0,0,1,1.39-.61,6.13,6.13,0,0,1,.82-.21,3.28,3.28,0,0,1,.46,0l.23,0h.16a18.92,18.92,0,0,0,2.51-.13,11.55,11.55,0,0,0,5.32-1.86c.14-.08.26-.21.42-.23.43-.06.85.46.82,1,0,.13,0,.33-.06.37-.66.4-.87,1.43-1.7,1.74a22.13,22.13,0,0,1-4.68,1.39,11.34,11.34,0,0,1-1.93.09l-.61-.05-.47,0a2.14,2.14,0,0,0-.83.11,8,8,0,0,0-1.21.55c-.58.3-1.31.76-2.24,1.25a7.75,7.75,0,0,1-1.65.67,3.35,3.35,0,0,1-1.09.14,5.43,5.43,0,0,1-1-.11c-1.24-.23-2.43-.69-3-.37a10.9,10.9,0,0,0-2.39,2,9.48,9.48,0,0,1-1.33,1.1,3.25,3.25,0,0,1-1.76.62,1.63,1.63,0,0,1-1.64-1,1.9,1.9,0,0,1-.06-.87,4,4,0,0,1,.11-.53,7.57,7.57,0,0,1,.35-.94C177,255.43,177.21,255.13,177.5,254.61Z"/><path class="cls-1" d="M180.32,265.91a2.1,2.1,0,0,0,.44.56c.08,0,.13.1.2.1l.09,0h0c.07,0,.05-.05.12-.12s0,0,.06-.06a.62.62,0,0,1,.2,0,6.23,6.23,0,0,0,1.94-.35l.47-.17.06,0,0,0h0c.08.21-.16-.45.17.46v0a3.12,3.12,0,0,0-.15-.39c0-.1,0,0,0,0l.13-.11c.23-.2.5-.47.77-.74a14.26,14.26,0,0,1,1.59-1.4l.28-.18a2.23,2.23,0,0,1,.41-.21A2,2,0,0,1,188,263a6.75,6.75,0,0,1,1.19.21c1.18.26,2.29.7,2.94.44a12.54,12.54,0,0,0,2.92-1.1c.58-.29,1.17-.6,1.78-.94a9.3,9.3,0,0,1,1.85-.89,1.15,1.15,0,0,1,.17-.06.58.58,0,0,1,.21.07.77.77,0,0,1,.5.88c0,.09,0,.23-.05.26-.45.24-.48,1.12-.93,1.35-.86.4-1.61,1-2.52,1.59a5.6,5.6,0,0,1-1.17.51,13.15,13.15,0,0,1-1.66.32c-.19,0-.55.09-1,.14l-.19,0h-.3a4.41,4.41,0,0,1-.55-.06,7.77,7.77,0,0,1-1-.23c-.64-.18-1.34-.41-2-.53a2.14,2.14,0,0,0-.35,0,.14.14,0,0,0-.11,0,6.21,6.21,0,0,0-.79.62c-.57.5-1.09,1-1.76,1.54-.08.07-.19.14-.29.21a2.58,2.58,0,0,1-.41.18c-.19.06-.37.12-.55.16a8.08,8.08,0,0,1-1,.19,6.36,6.36,0,0,1-1.63,0,2.14,2.14,0,0,1-.9-.32,1.17,1.17,0,0,1-.46-.84,1.15,1.15,0,0,1,.1-.5A2.22,2.22,0,0,1,180.32,265.91Z"/><path class="cls-1" d="M197.66,312.15A.94.94,0,0,1,198,311a1.33,1.33,0,0,1,1.46-.1,6.81,6.81,0,0,1,1.54,1.2l.14.14h0l0,0,.06,0s0,0,.11-.07a10.51,10.51,0,0,0,2.32-2.08,6,6,0,0,1,1.08-1.06l.38-.31c.16-.12.37-.29.56-.41a2.71,2.71,0,0,1,1.2-.44,1.53,1.53,0,0,1,1.12.32,1.83,1.83,0,0,1,.63,1,4.87,4.87,0,0,1,.13.72V310h0s0,0,0,0l-.09-.07-.38-.25-.38-.25-.19-.12c0-.29-.18,2.18-.11,1.13h0a.26.26,0,0,0,0-.15,1.23,1.23,0,0,1-.1-.22,1.39,1.39,0,0,0-.12-.28,1.71,1.71,0,0,0-.14-.27c-.1-.18-.06-.12-.06-.13l.1,0,.61-.38a18.59,18.59,0,0,1,4.94-2.26,7.67,7.67,0,0,1,1.46-.24,6.71,6.71,0,0,1,.78,0l.61,0a8.89,8.89,0,0,0,2.22-.18,6,6,0,0,0,2.25-1.09l2.18-1.73c.12-.1.24-.25.4-.28.45-.1.92.38,1,1,0,.14.07.34,0,.38-.57.48-.46,1.56-1.12,2s-1.23.9-1.94,1.34a7.81,7.81,0,0,1-2.36,1,6.71,6.71,0,0,1-2,.16,9.53,9.53,0,0,1-1.21-.14,4,4,0,0,0-.9-.09,8.76,8.76,0,0,0-3.28,1c-.4.19-.81.42-1.24.67l-1.41.85-.19.1-.08,0a1.1,1.1,0,0,1-.36.07c0,.2-.56-.51-.82-.77h0v-.12c0-.05,0-.12-.08-.13a.24.24,0,0,0-.16,0l-.21.17c-.76.72-1.73,1.42-2.6,2.12a9.51,9.51,0,0,1-1.43.89,3.8,3.8,0,0,1-.4.19l-.59.19-.28,0-.14,0s-.06.05-.06-.05h-.07a.93.93,0,0,1-.5-.21,2.86,2.86,0,0,1-.4-.38l-.24-.25-.35-.38a3.74,3.74,0,0,0-.57-.5,1.09,1.09,0,0,0-.32-.18.43.43,0,0,0-.08-.11C198.25,311.9,198.05,311.82,197.66,312.15Z"/><path class="cls-1" d="M283.07,165.07c.51,1,.54,1.65.64,1.66s.08.11.51.12a3.06,3.06,0,0,0,.59-.07l.18-.07.21-.12a16.9,16.9,0,0,0,2.08-1.87,16.18,16.18,0,0,1,2.13-1.81,6,6,0,0,1,1.45-.72,5.79,5.79,0,0,1,.74-.19l.66-.14c1.51-.34,3-.65,4.48-.92s2.92-.57,4.32-1a18.82,18.82,0,0,0,2.4-.82,12.7,12.7,0,0,0,2.07-1.17c.11-.08.19-.2.33-.21.36,0,.81.45.85,1,0,.12,0,.31,0,.35-.54.38-.64,1.37-1.33,1.67-1.26.54-2.48,1.18-3.77,1.61a10.53,10.53,0,0,1-1.57.37c-.67.1-1.36.13-2,.21l-3.4.51c-.83.14-1.75.27-2.69.49a4.07,4.07,0,0,0-.57.15,4,4,0,0,0-.54.28,8.78,8.78,0,0,0-1.11.82c-.74.63-1.45,1.35-2.21,2a8.59,8.59,0,0,1-1.23.89,3.85,3.85,0,0,1-.74.33l-.44.1-.34,0a3.66,3.66,0,0,1-1.35-.14,1.86,1.86,0,0,1-1.1-.88,1.73,1.73,0,0,1-.17-1,2.46,2.46,0,0,1,.09-.41A2.87,2.87,0,0,1,283.07,165.07Z"/><path class="cls-1" d="M285,176.5a11,11,0,0,0,.62,1.19,3.58,3.58,0,0,1,.17.49,3.16,3.16,0,0,0,.08.36.42.42,0,0,0,.06.18c.16,0,.15,0,.31-.12a5.67,5.67,0,0,0,.89-.81,21.7,21.7,0,0,1,2.2-2.21,5.63,5.63,0,0,1,.81-.51,4.25,4.25,0,0,1,1-.33,5.24,5.24,0,0,1,1.9,0c1.15.24,2,.63,2.77.68,1.09.14,2.45-.73,3.81-1.67a12.31,12.31,0,0,1,2.45-1.37,16.35,16.35,0,0,1,2.65-.79c1-.23,2-.35,3-.54s1.8-.4,2.65-.61c.15,0,.28-.1.44-.05a1,1,0,0,1,.58,1.25c0,.13-.05.34-.12.36-.7.26-1.1,1.32-1.91,1.47a30.69,30.69,0,0,0-4.19,1l-1.53.38a10.17,10.17,0,0,0-1.88.56c-.34.11-1.34.87-3,1.67a9,9,0,0,1-1.39.53,4.9,4.9,0,0,1-1.79.13,26.62,26.62,0,0,1-3-.74,3.31,3.31,0,0,0-1.12-.05,2.1,2.1,0,0,0-.44.13,3.41,3.41,0,0,0-.47.28,21,21,0,0,0-1.87,1.69,10,10,0,0,1-.93.81,4.39,4.39,0,0,1-.5.34l-.27.15c-.08,0-.24.08-.35.12a2.09,2.09,0,0,1-1.95-.24,1.58,1.58,0,0,1-.41-.59,3.21,3.21,0,0,1-.05-.67,2.49,2.49,0,0,1,0-.5l0-.21,0-.32A3.85,3.85,0,0,1,285,176.5Z"/><path class="cls-1" d="M289.25,285.61a3.79,3.79,0,0,1,1.17-.63,2.35,2.35,0,0,1,.9-.16c1.93-.13,3.71-1.37,5.78-2.4a9.71,9.71,0,0,1,6.21-1.08l.34.05.2,0a1.33,1.33,0,0,0,.4,0,2.43,2.43,0,0,0,.81-.25,8.8,8.8,0,0,0,1.78-1.28,18.76,18.76,0,0,1,2.15-1.66,6.26,6.26,0,0,1,1.42-.58q.61-.19,1.23-.36c1-.22,1.94-.37,2.84-.61a15,15,0,0,0,2.46-.79.85.85,0,0,1,.4-.15c.4,0,.78.59.72,1.17,0,.13,0,.33-.08.36-.65.31-.92,1.37-1.71,1.6-1.44.42-2.84.87-4.16,1.23-.27.06-.53.11-.8.15l-.73.11A3.74,3.74,0,0,0,309,281q-.3.19-1.08.81a8.89,8.89,0,0,1-2.31,1.38,4.17,4.17,0,0,1-1.86.24l-.85-.14c-.22,0-.44-.1-.67-.11a6.74,6.74,0,0,0-2.89.44c-1.94.7-3.83,1.92-5.57,2.43a6.48,6.48,0,0,1-3.22.21A4.93,4.93,0,0,1,289.25,285.61Z"/><path class="cls-1" d="M292.86,296.28a9,9,0,0,0,1.54-.53c.54-.2,1-.92,1.56-1.5.28-.32.55-.65.87-1a7.39,7.39,0,0,1,.56-.54,2.32,2.32,0,0,1,.39-.29,2.4,2.4,0,0,1,.38-.2,4.69,4.69,0,0,1,1.31-.47,3.2,3.2,0,0,1,1.69.13,4.93,4.93,0,0,1,1.21.72,3.54,3.54,0,0,0,.77.45,4.49,4.49,0,0,0,3-.31,26.18,26.18,0,0,0,3.34-1.62l2-1.11a9.57,9.57,0,0,1,2.12-1,1,1,0,0,1,.41-.1c.4.06.6.54.5,1,0,.1,0,.27-.08.29-.53.2-.6,1.13-1.1,1.39a26.67,26.67,0,0,0-2.8,1.74,8.17,8.17,0,0,1-1.22.61c-.55.22-1.13.38-1.71.56-.19.07-.57.2-1.1.36a8.59,8.59,0,0,1-2.09.35,5,5,0,0,1-2.81-.72c-.43-.27-.78-.55-1-.67a1,1,0,0,0-.71-.11,3.65,3.65,0,0,0-1,.33,1,1,0,0,0-.35.2c-.12.09-.26.23-.39.35-.54.54-1.07,1.12-1.62,1.59a4.82,4.82,0,0,1-1.73.84,2,2,0,0,1-1,0A1.88,1.88,0,0,1,292.86,296.28Z"/><path class="cls-1" d="M243.43,167.05a70.24,70.24,0,0,1,3,9.25c2.89,10.91,5.32,22,7.31,33.1,1.71,9.57,2.94,19.23,4.13,28.88,1,8.31,1.73,16.61,3.26,24.77q1.14,6.13,2.71,12.15c1.11,4,2.29,8,3.74,11.86a131.66,131.66,0,0,0,5.82,13.48,134.67,134.67,0,0,0,7,12.15c.45.66.93,1.33,1.29,2,1,1.76.84,2.42-.27,1.38a4.48,4.48,0,0,1-.79-.78c-.52-.75-1-1.45-1.56-2.12l-1.53-2c-.51-.67-1-1.35-1.54-2.07s-1-1.51-1.45-2.36c-1.77-3.13-3.4-6.34-5-9.58s-3-6.57-4.19-10c-.49-1.36-1-2.71-1.41-4.09s-.89-2.75-1.25-4.14l-.72-2.67-.63-2.68c-.44-1.79-.79-3.59-1.17-5.39-.5-2.46-1.9-9.5-2.91-18.8s-2.37-20.67-4.09-31.79c-.88-5.55-1.77-11-2.71-16.16s-1.91-9.85-2.75-13.93c-1.65-8.17-3-13.69-3.06-14.23C244.38,171.57,244,169.82,243.43,167.05Z"/><path class="cls-1" d="M281.76,340c-4.09,1.48-8.22,3-12.43,4.2s-8.43,2.37-12.69,3.36c-3.11.73-6.22,1.44-9.36,2-5.54,1-11.12,1.78-16.73,2.24a121.92,121.92,0,0,1-16.88.3,83.64,83.64,0,0,1-14.88-2,51.47,51.47,0,0,1-9.13-3.11,31.19,31.19,0,0,1-8.13-5.27c-1.51-1.36-.9-1.56.71-.91a13.31,13.31,0,0,1,1.38.64c.54.23,1.13.49,1.75.81s1.3.65,2,1,1.45.77,2.25,1.13c1.38.72,2.84,1.28,4.29,1.87s3,1,4.5,1.41a66,66,0,0,0,9.31,1.81,94.53,94.53,0,0,0,9.55.7c3.2.1,6.42.06,9.65-.1a152.26,152.26,0,0,0,23.49-3.24A195.41,195.41,0,0,0,275.69,340c5.08-1.77,10.13-3.67,15.18-5.57l22.91-8.65c5.9-2.23,11.65-4.51,17.52-6.65l3.86-1.41c4.87-1.66,6.49-2,7.71-1.77a4.63,4.63,0,0,1,.81.16c.59.28-1.3,1.22-4.82,2.5-10.43,3.82-21.39,8-32.41,12.19-8.18,3.12-16.4,6.26-24.66,9.31Z"/><path class="cls-1" d="M113.64,293.29a1.56,1.56,0,0,1-1.2-.31.94.94,0,0,1-.17-.85,2.47,2.47,0,0,1,.79-1.21,4.36,4.36,0,0,1,1-.65,9,9,0,0,1,2-.61c1.13-.22,2.25-.23,3.24-.44a9.67,9.67,0,0,0,2.4-.92l2.5-1.29c.51-.26,1-.49,1.6-.74l.8-.34.42-.16.45-.08c.1,0,.2-.06.31,0,.29.12.4.61.3,1,0,.09,0,.24-.07.26-.41.09-.5.94-.88,1a8.15,8.15,0,0,0-2,1.07,5.12,5.12,0,0,1-.85.41c-.39.15-.8.25-1.2.4s-1,.46-2.06.84a18.66,18.66,0,0,1-3.73.73,9.33,9.33,0,0,0-3,.79c-.11.1-.26.16-.29.24l-.09.09s0,.06,0,.08,0,.17,0,.18A1.5,1.5,0,0,0,113.64,293.29Z"/><path class="cls-1" d="M120.23,299.31c-.72-.81-.7-1.16-.57-1.31a4.61,4.61,0,0,1,1.55-1.16,9.28,9.28,0,0,1,1.48-.45c.84-.24,1.66-.45,2.48-.62.24-.06.49-.09.72-.15a6.42,6.42,0,0,0,.66-.24s.07-.07.12,0a2,2,0,0,1,.25,1c0,.09,0,.24,0,.24-.17.06-.19.76-.38.77a3.81,3.81,0,0,0-1,.4,1,1,0,0,1-.41.08c-.18,0-.37-.05-.54,0a10.8,10.8,0,0,0-2.32.61,6.58,6.58,0,0,0-1.21.57c-.29.19-.44.32-.46.33S120.41,299.32,120.23,299.31Z"/><path class="cls-1" d="M66,310.28l-9.65.22c-1.17,0-2.34.13-3.51.15l-12.4.14c-1.84,0-3.68.13-5.5.24a51.27,51.27,0,0,1-7,.22c-1.46-.1.3-2.49,3-2.61,4.76-.22,9.53-.3,14.35-.17,2.88.08,5.87-.15,8.81-.23l9.7-.26,6-.19c3-.12,6-.23,9-.45,2.31-.18,4.57-.51,6.84-.82l1.48-.23c1.88-.22,2.36-.2,2.92.37a4.19,4.19,0,0,1,.36.38c.32.44-.39,1-1.83,1.36a85,85,0,0,1-12.81,1.5c-3.24.2-6.49.31-9.73.44Z"/><path class="cls-1" d="M466,307.91l-10.45.14c-1.27,0-2.54.11-3.81.13l-13.44.12c-2,0-4,.12-5.95.24a62.36,62.36,0,0,1-7.61.24c-1.58-.1.33-2.49,3.25-2.62,5.18-.23,10.36-.32,15.58-.18,3.13.08,6.38-.14,9.57-.21l10.54-.19,6.48-.12c3.27-.08,6.56-.13,9.81-.28,2.52-.12,5-.38,7.49-.58.54,0,1.08-.11,1.64-.14,2.05-.11,2.7,0,3.15.65a2.73,2.73,0,0,1,.3.42c.2.49-.63.93-2.13,1.13-4.46.6-9.16.83-13.87,1L466,308Z"/><path class="cls-1" d="M111.11,159.78c-5,.22-8.43,7.55-7.48,12,.29,1.32,3.19.57,2.9-.78a8.82,8.82,0,0,1,.91-5.28c.57-1.29,1.75-3.74,3.4-3.81s2.24-2.18.27-2.1Z"/><path class="cls-1" d="M104.62,155.83c-4.16,2.69-7.49,6.93-8.14,11.94-.14,1,2.77.51,2.89-.4a15.52,15.52,0,0,1,7-10.8c1.64-1-.9-1.3-1.76-.74Z"/><path class="cls-1" d="M347.87,109.59c3.37-.31,6,3.6,6.29,6.58.1,1.18,3,.51,2.89-.78-.38-4.34-4.46-8.14-8.87-7.73-1.55.14-2.3,2.11-.31,1.93Z"/><path class="cls-1" d="M356.3,103.28c4.68-.77,5.57,8.59,6.28,11.63.28,1.22,3.18.47,2.89-.78-1.07-4.65-2.07-13.92-8.87-12.8-1.51.25-2.28,2.28-.3,2Z"/><path class="cls-1" d="M292.41,361.32a10.7,10.7,0,0,0-6.49.87,13.19,13.19,0,0,0-5,4.6,23.86,23.86,0,0,0-2.31,4.7c-.26.74-.51,1.48-.74,2.23s-.42,1.51-.55,2.29-.31,1.55-.38,2.34l-.13,1.12,0,.45,0,.23c0,.07,0,.2.06.19a2.32,2.32,0,0,0,.45-.06l.23,0,.38-.08,1.21-.29c1.61-.38,3.25-.72,4.91-1a42.29,42.29,0,0,1,8.93-.52,25,25,0,0,1,5.72,1,16,16,0,0,1,5.2,2.66c1,.78.37,1.21-.79,1.21a14.73,14.73,0,0,1-4.72-.89,26.7,26.7,0,0,0-10.47-1.19,46.46,46.46,0,0,0-5.44.68c-.91.16-1.82.34-2.74.54l-1.38.3a12.43,12.43,0,0,1-2.4.43,2.16,2.16,0,0,1-1.06-.27c-.07-.05-.18-.11-.21-.2l0-.32-.06-.65-.12-1.27-.07-.63a2.44,2.44,0,0,1,0-.61c.07-.6.13-1.2.2-1.8s.19-1.2.29-1.8a29.89,29.89,0,0,1,2.14-7,19.75,19.75,0,0,1,4.76-6.6,13.18,13.18,0,0,1,7.52-3.33,11,11,0,0,1,1.28-.08l1.27.08.63,0,.62.11,1.24.24a16.45,16.45,0,0,1,4.61,2,15.64,15.64,0,0,1,5.07,5.57,22.25,22.25,0,0,1,2.4,7c.08.6.19,1.19.25,1.78s.1.91.11,1.22l0,.46c0,.06,0,.19.06.18a.94.94,0,0,0,.23-.1c.3-.15.58-.28.86-.39a13.63,13.63,0,0,1,4-.69,13.46,13.46,0,0,1,2.61.16,9.11,9.11,0,0,1,3.23,1.14,2.12,2.12,0,0,1,1,1.26,2.78,2.78,0,0,1,.16.63c0,.64-1.27.36-3.22-.13a13.16,13.16,0,0,0-5.18-.26,11.39,11.39,0,0,0-1.26.28l-.64.19a13.63,13.63,0,0,0-1.37.52,2.14,2.14,0,0,1-2.15.17,1.4,1.4,0,0,1-.13-.2c-.16.23-.05.07-.08.12h0v-.05l0-.05-.05-.11-.22-.44-.44-.88c0-.69,0-1.43-.07-2.11,0-.43,0-.68-.09-1-.1-.65-.17-1.3-.32-1.94a20.64,20.64,0,0,0-1.14-3.73,14.53,14.53,0,0,0-4-5.5,12.52,12.52,0,0,0-6.12-2.68Z"/><path class="cls-1" d="M321.41,375.86a16,16,0,0,1,.35-1.64c.14-.54.23-1.09.42-1.63a23.06,23.06,0,0,1,1.25-3.16,15.37,15.37,0,0,1,4.19-5.48,6.09,6.09,0,0,1,1-.77l1.09-.71L331,362l.61-.25a4.44,4.44,0,0,1,.63-.15,13.71,13.71,0,0,1,8.74,1,23.94,23.94,0,0,1,3.75,2.06,12.94,12.94,0,0,1,3.11,3.11,20.79,20.79,0,0,1,3.07,6.9,26,26,0,0,1,.78,9.4c-.12,1-.81.8-1.45,0A7.54,7.54,0,0,1,348.8,380c-.45-5.89-2.06-11.85-7.41-14.53a11.8,11.8,0,0,0-1.18-.59,8,8,0,0,0-1.21-.52,11,11,0,0,0-2.56-.56,10.12,10.12,0,0,0-2.58,0l-1.25.29c-.41.1-.79.32-1.19.46a11.23,11.23,0,0,0-4.32,3.66,19.06,19.06,0,0,0-2.52,5.42,27.54,27.54,0,0,0-.67,3.25c-.06.55-.18,1.09-.21,1.65l-.08,1.31c0,.16-.06.34,0,.49s.47.15.72.15l.46,0,.73-.07c1-.1,2-.19,3-.25a48.14,48.14,0,0,1,15.17,1.67c.65.2,1.3.35,1.94.6,2.4.88,3,1.44,3.23,2.3a2.64,2.64,0,0,1,.11.59c0,.61-1.12.55-2.81,0a47.71,47.71,0,0,0-15.81-2.6c-1.37,0-2.73.13-4.14.28l-1.08.11-.34,0-.53,0a6,6,0,0,1-1,0,2.65,2.65,0,0,1-1.68-.68,2.23,2.23,0,0,1-.48-.71,6.11,6.11,0,0,1-.18-.91l.14-2.87.29-2.17Z"/><path class="cls-1" d="M277.36,384.07a4.15,4.15,0,0,1-.4.18l-.31.14-.62.27-1.24.54-2.48,1.05-5,2.09c-1.21.51-2.39,1.08-3.61,1.57-4.31,1.7-8.64,3.33-13.08,4.77-1,.31-2,.63-3,.93-.51.15-1,.28-1.54.41a11.49,11.49,0,0,1-1.69.3,2.26,2.26,0,0,1-2.08-.68c-.13-.16-.24-.33-.36-.5a5.67,5.67,0,0,1-.28-.51,5.28,5.28,0,0,1-.34-.91,6.55,6.55,0,0,1-.25-1.85,8.46,8.46,0,0,1,.77-3.39c.37-.8,1-.4,1.38.44a8.91,8.91,0,0,1,.79,3.17,3.65,3.65,0,0,0,.15,1,3.91,3.91,0,0,0,.15.41l0,0v0h0a10,10,0,0,0,1.35-.23c1-.21,2-.5,3-.8,2-.6,4.11-1.27,6.2-1.93,3-1,6.07-2.37,9.1-3.63,3.32-1.38,6.65-2.78,9.95-4.23l3.07-1.36a23.5,23.5,0,0,1,3.3-1.07,30.44,30.44,0,0,1,10.32-.62,38,38,0,0,1,7.79,1.48c.55.18,1.11.34,1.66.54,2,.83,2.55,1.34,2.65,2.16a3.69,3.69,0,0,1,0,.56c-.07.57-1,.61-2.47.11a39.74,39.74,0,0,0-13.28-2.39,25.61,25.61,0,0,0-5,.52,19.76,19.76,0,0,0-4.68,1.52Z"/><path class="cls-1" d="M346.51,389.69l-1.26.54-.72.31-1.43.64c-1,.44-1.9.89-2.85,1.35q-2.85,1.39-5.65,2.87c-1.37.72-2.7,1.52-4.07,2.24-4.82,2.56-9.63,5.16-14.5,7.69-2.18,1.11-4.31,2.29-6.61,3.29-.38.16-.74.31-1.18.45a4.2,4.2,0,0,1-1.74.24,2,2,0,0,1-1.33-1,6.09,6.09,0,0,1-.42-.8,4.86,4.86,0,0,1-.24-.7,7.93,7.93,0,0,1,.5-5.15c.42-.95,1-.52,1.38.43a18.71,18.71,0,0,1,.87,3.61,2.34,2.34,0,0,0,.09.38.84.84,0,0,0,0,.17l0,.11s0,0,0,0h0l.06,0,.48-.16c1.32-.49,2.74-1.16,4.13-1.84l8.46-4.21c3.42-1.68,6.81-3.75,10.24-5.6,3.78-2,7.6-4,11.52-5.85l1.95-.87,1-.38.91-.33.23-.07a.39.39,0,0,0,.11-.06.12.12,0,0,0,0-.1,1.69,1.69,0,0,0-.39-.22,14.69,14.69,0,0,0-1.46-.49l-.39-.11-.68-.17-1.45-.33c-1.93-.41-3.88-.75-5.82-1a46.58,46.58,0,0,0-9-.15c-.65.05-1.27.15-1.91.23-2.37.32-3.05.42-3.77-.11a3.25,3.25,0,0,1-.49-.35c-.44-.4.43-1.3,2.34-1.8a31.07,31.07,0,0,1,8.66-.76,63,63,0,0,1,8.74,1c1,.17,1.92.37,2.87.59l1.76.42c.92.24,1.82.5,2.64.79a5.61,5.61,0,0,1,1.94,1,2,2,0,0,1,.63,1.1,1.51,1.51,0,0,1,0,.39,1,1,0,0,1,0,.21,1.08,1.08,0,0,1-.13.43l-.12.25-.29.31a1.56,1.56,0,0,1-.32.3l-.57.29c-1,.34-1.85.69-2.72,1.06Z"/><path class="cls-2" d="M159.27,205.19s10,27.24,10,32,2.93-6.9,30.45-8.79c0,0,11.73-.74,13.78-3.8s-5.28-28.83-5.28-28.83C200.72,197.57,172.34,193,159.27,205.19Z"/><path class="cls-2" d="M279.55,245.68s5.13,22.87,6.57,22.46,4.64-2.48,15-3.34,12.58-5.4,12.58-5.4L309,238.2c-.84-2.5-15.53,4.48-17.46,5.24A32.59,32.59,0,0,1,279.55,245.68Z"/><path class="cls-2" d="M277,379.34s2.43-15.68,10.36-16.69,13,3.35,14.53,17.6c0,0-6.18-3.11-12.45-2.82A71,71,0,0,0,277,379.34Z"/><path class="cls-2" d="M323.69,380.62s1.29-15.35,11.66-15.35c6.61,0,10.89,5,12.18,17.2,0,0-6.06-3.34-12.33-3.29A57.06,57.06,0,0,0,323.69,380.62Z"/><path class="cls-1" d="M183.85,214.18a49.22,49.22,0,0,0,3.46-6.35c.1-.27.18-.53.25-.78a2.45,2.45,0,0,0,.08-.37l0-.21c0-.09,0-.29-.13-.3a.28.28,0,0,0-.18,0,1.41,1.41,0,0,0-.33.25,11.79,11.79,0,0,0-1.17,1.25c-1.11,1.34-2.09,2.86-3.17,4.32a43.25,43.25,0,0,1-3.06,3.81,11.79,11.79,0,0,1-1.91,1.72,5.69,5.69,0,0,1-1.25.66,3,3,0,0,1-1.81.07,2.13,2.13,0,0,1-.41-.18.87.87,0,0,1-.37-.25,1.52,1.52,0,0,1-.39-.79,3.18,3.18,0,0,1,0-.92l.12-.45a3.17,3.17,0,0,1,.11-.33,15.67,15.67,0,0,1,1.1-2.25c.79-1.42,1.63-2.77,2.41-4.14a21.34,21.34,0,0,0,1.78-3.71,3.41,3.41,0,0,0,.23-1.7.66.66,0,0,0-.33-.37.86.86,0,0,0-.59,0,5.39,5.39,0,0,0-2.05,1.18,16.62,16.62,0,0,0-1.85,1.81,18.78,18.78,0,0,0-2.95,4.22c-.21.47-.34.65-.5.61s-.29-.35-.31-.89a7.9,7.9,0,0,1,1.87-4.7,18.5,18.5,0,0,1,2-2.13,9.41,9.41,0,0,1,2.66-1.73,3.24,3.24,0,0,1,2.13-.18,2.32,2.32,0,0,1,1.13.72l.2.24.17.28a1.53,1.53,0,0,1,.23.67,4.49,4.49,0,0,1-.11,1.87,10.27,10.27,0,0,1-.5,1.48,41.76,41.76,0,0,1-2.7,5c-.48.79-1,1.57-1.4,2.36-.23.39-.44.78-.64,1.16-.09.2-.19.39-.27.58s-.08.19-.11.28l-.08.19c0,.14-.11.34.06.41a.56.56,0,0,0,.23,0,.5.5,0,0,0,.14,0,1.07,1.07,0,0,0,.27-.09,7.45,7.45,0,0,0,2.33-1.9,66.08,66.08,0,0,0,4.07-5.36c.74-1,1.48-2,2.33-3a10,10,0,0,1,1.46-1.45,3.65,3.65,0,0,1,1.29-.65,2,2,0,0,1,1.3.2,3,3,0,0,1,.64,2.56,9,9,0,0,1-.57,2,30.61,30.61,0,0,1-1.71,3.44c-.76,1.35-1.55,2.67-2.28,4a21.7,21.7,0,0,0-1,2,8.69,8.69,0,0,0-.33,1,1.3,1.3,0,0,0,0,.59c.31.55,1.08.4,2-.27a13.76,13.76,0,0,0,2.31-2.38c1.44-1.78,2.72-3.72,4.13-5.58.56-.72,1.12-1.44,1.76-2.13a7.27,7.27,0,0,1,2.34-1.79,3,3,0,0,1,1.76-.19l.42.14.3.08a1.81,1.81,0,0,1,.94.69,2.74,2.74,0,0,1,.31,1.89,8.25,8.25,0,0,1-.31,1.42l-.66,2.25c-.41,1.36-.57,2.19-.7,2.75a4,4,0,0,1-.44,1.23c-.1.17-.14.38-.23.52s-.47.15-.81-.44a4.52,4.52,0,0,1-.31-2.8c.27-1.72.9-3.29,1.22-4.72a3.58,3.58,0,0,0,.11-.87.19.19,0,0,0,0-.1s0,0,0,0l.22-.08c.25-.11.15-.12.07.05s-.12.32-.18.25l-.08,0-.29-.1a.19.19,0,0,1-.09,0h-.09a1.17,1.17,0,0,0-.51.16,6,6,0,0,0-1.51,1.25,20.92,20.92,0,0,0-1.51,1.79c-1,1.28-1.92,2.66-2.93,4a33.77,33.77,0,0,1-2.46,3,10.25,10.25,0,0,1-1.61,1.43,4.81,4.81,0,0,1-.5.33,3.36,3.36,0,0,1-.57.28,3,3,0,0,1-.66.23,4,4,0,0,1-.48.09H184l-.45,0c-.14,0-.28-.09-.42-.13l-.41-.13-.38-.21c-.12-.07-.25-.14-.36-.22l-.2-.37a2.48,2.48,0,0,1-.29-.8,3.29,3.29,0,0,1,0-.89,4.63,4.63,0,0,1,.15-.83,9.75,9.75,0,0,1,.36-1,29.9,29.9,0,0,1,1.82-3.48Z"/><path class="cls-1" d="M295.65,257.18l-1.27-3.5c-.22-.56-.44-1.12-.68-1.65a5.91,5.91,0,0,0-.37-.77c-.05-.1-.17-.19-.27-.11a1,1,0,0,0-.17.27l-.06.14c0,.14-.08.27-.13.46s-.06.31-.09.43,0,.32,0,.47c0,.7.13,1.49.21,2.29a10.75,10.75,0,0,1,.06,2.62,3.78,3.78,0,0,1-.25.79l-.23.4c-.1.11-.22.21-.33.32a.88.88,0,0,1-.4.22c-.14,0-.27.15-.43.13l-.45,0h-.22l-.17,0-.62-.13a6.18,6.18,0,0,1-.64-.28,3.91,3.91,0,0,1-1-.89,7.65,7.65,0,0,1-1-2.07,53.13,53.13,0,0,1-1.25-5.27c-.14-.46.12-.59.62-.26a4.38,4.38,0,0,1,1.39,2.17c.27.88.52,1.75.83,2.54a5.59,5.59,0,0,0,1,2c.09.13.19.16.28.24s.12.09.3.11l.37.08h.1s.07,0,.09,0a.14.14,0,0,0,0-.09.71.71,0,0,0,0-.17,5.31,5.31,0,0,0,0-1.15c-.05-1-.32-2.14-.4-3.41a5.67,5.67,0,0,1,0-1.07,8.88,8.88,0,0,1,.21-1,4.19,4.19,0,0,1,1.21-2.25,1.41,1.41,0,0,1,1.21-.28,2.21,2.21,0,0,1,1.08.68,6.07,6.07,0,0,1,.84,1.21c.13.23.19.37.26.52l.21.45c.53,1.18,1,2.37,1.4,3.54.27.72.54,1.43.82,2.13.14.35.29.69.45,1a2.07,2.07,0,0,0,.3.52.3.3,0,0,0,.19.12c.08,0,.13-.06.19-.09s.31-.08.41-.19l.23-.17a3,3,0,0,0,.22-.26,2.7,2.7,0,0,0,.38-.62,10.3,10.3,0,0,0,.76-3.17c.21-1.76.12-3.54.38-5.38a10.64,10.64,0,0,1,.22-1.21,4.3,4.3,0,0,1,.64-1.55,1.22,1.22,0,0,1,.81-.45,1.89,1.89,0,0,1,.4,0c.39.07.43.72.3,1.68-.2,1.45-.19,3-.34,4.64a27,27,0,0,1-.74,5.22,7,7,0,0,1-1.05,2.17c-.15.18-.28.36-.45.53l-.29.23-.38.28a5,5,0,0,1-.84.4,6.93,6.93,0,0,1-.81.33,1.81,1.81,0,0,1-.73-.08,2.15,2.15,0,0,1-.7-.41,4.89,4.89,0,0,1-1-1.46c-.33-.66-.56-1.24-.8-1.84Z"/><path class="cls-1" d="M285.45,372.82c-.21-.48-.16-.65-.06-.76l1.06-1.13c.31-.31.66-.6,1-.91l.86-.8a7.35,7.35,0,0,1,.92-.75c.19-.14.4-.25.6-.38s.38-.24.58-.35c0,0,.07-.05.11-.05s.21.15.22.31,0,.09,0,.1-.13.37-.27.47a4,4,0,0,0-.68.68,1.32,1.32,0,0,1-.29.24c-.14.09-.29.16-.43.26a23,23,0,0,0-1.72,1.57c-.74.73-1.51,1.4-1.56,1.42A1.48,1.48,0,0,1,285.45,372.82Z"/><path class="cls-1" d="M289.2,372.81c-.16-.43-.11-.57,0-.65.29-.27.59-.53.9-.77s.56-.37.84-.57l1.4-1,.43-.29.39-.3s0-.05.07,0,.22.15.27.31,0,.09,0,.1,0,.36-.14.44a5.24,5.24,0,0,0-.54.52,1,1,0,0,1-.24.17l-.36.17c-.3.17-2.69,1.88-2.76,1.91A1.31,1.31,0,0,1,289.2,372.81Z"/><path class="cls-1" d="M330.47,373c-.12-.42,0-.6.11-.72.45-.41.9-.81,1.37-1.2s.84-.62,1.26-.93a22.45,22.45,0,0,1,2.26-1.54l.71-.38.72-.3c.05,0,.08,0,.13,0a.37.37,0,0,1,.2.42c-.18.1-.19.41-.36.53s-.61.45-.9.69c-.12.09-.25.16-.38.24s-.37.14-.54.23a24.31,24.31,0,0,0-2.26,1.49c-1,.7-1.92,1.38-2,1.41A2.08,2.08,0,0,1,330.47,373Z"/><path class="cls-1" d="M332.49,374.14a1.2,1.2,0,0,1,.36-.55c.54-.53,1.09-1,1.66-1.52s1-.8,1.54-1.18a18,18,0,0,1,2.85-1.76c.3-.15.61-.28.91-.41a5.14,5.14,0,0,1,.91-.31l.16,0a.16.16,0,0,1,.14.25.16.16,0,0,1,0,.08c-.23.07-.35.32-.58.41a7.59,7.59,0,0,0-1.26.59l-.49.25c-.22.1-.44.18-.66.29a23,23,0,0,0-2.82,1.79c-1.2.87-2.27,1.81-2.33,1.85A3.8,3.8,0,0,1,332.49,374.14Z"/></g></svg>