<svg id="Layer_1" data-name="Layer 1" xmlns="http://www.w3.org/2000/svg" width="520" height="520" viewBox="0 0 520 520"><defs><style>.cls-1{fill:#221f1f;}.cls-2,.cls-3{fill:none;}.cls-2{stroke:#221f1f;stroke-linecap:round;stroke-linejoin:round;stroke-width:2px;}.cls-3{stroke:#000;stroke-miterlimit:10;stroke-width:1.52px;}</style></defs><title>Notioly v2</title><g id="_46.Landscape" data-name="46.Landscape"><path class="cls-1" d="M68,367q.18-67.92.35-135.83l49.82.11,65.89,0,232.28.7,34.41.05c0,24,.05,48,.08,71.78.1,43.8.43,87.78-.06,131.55-.3,27.29-4.69-7.32-4.73-57.79V305.64q.06-34.5.13-69l-59.46-.24L324.08,236c-53.92-.38-110.06-.18-165.23-.28l-86.09-.17q-.09,46-.19,92.09-.12,56-.22,112v7.48l159,.14c43.63-.05,86.39-.36,129.52-.56l28.36-.16c35.5-.07,46.79.23,54.42,1.44,1.73.28,4,.55,5,.83,3.41.94-11.06,1.71-37.05,2-77.1.82-158.41.94-240,.95L67.8,451.66q0-42.26.1-84.62Z"/><path class="cls-1" d="M118.08,423.65l73.12.4,26.67,0,94,.62c13.9.08,27.89,0,41.68,0,17.73-.09,35.53-.38,53.24,0,11.05.27-3,4.14-23.39,4.18-36.2.06-72.38-.11-108.88-.66-21.82-.33-44.54-.16-66.87-.24L134,427.66l-42-.17v-6c.07-22.88.19-45.87.13-68.58,0-17.66-.32-35-.5-52.42,0-3.84-.09-7.6-.13-11.48-.07-14.37.2-18.94,1.27-22a14.32,14.32,0,0,1,.73-2c.82-1.38,1.51,4.48,1.75,15,.72,31.21.82,64.12.83,97.15q0,23.15-.09,46.39l22.07.07Z"/><path class="cls-1" d="M408.92,258.6l-73.77-.41-26.91,0-94.85-.62c-14-.07-28.13,0-42,0-17.88.08-35.84.37-53.71-.06-11.15-.26,3-4.13,23.6-4.17,36.52-.07,73,.1,109.84.65,22,.33,44.94.16,67.47.24l74.32.33,35.19.15q0,6.65,0,13.28c-.07,23.08-.19,46.28-.13,69.19,0,17.82.32,35.28.5,52.89,0,3.88.09,7.67.13,11.58.07,14.5-.2,19.11-1.27,22.22a14.41,14.41,0,0,1-.73,2.06c-.82,1.39-1.51-4.52-1.75-15.13-.72-31.49-.82-64.68-.83-98q.06-27,.11-54.06l-15.09,0Z"/><path class="cls-1" d="M396.33,309a20.61,20.61,0,0,1-.46,3.19c-1.77,16.48-15.51,26.36-26.37,26.36-13.91,0-25.19-12.83-25.19-28.66s11.28-28.66,25.19-28.66C382.91,281.2,395.56,293.87,396.33,309Z"/><path class="cls-1" d="M351.49,294a28.86,28.86,0,0,0-.8,31.26,24.86,24.86,0,0,0,4.91,6,21.45,21.45,0,0,0,14.07,5.65,20.23,20.23,0,0,0,7.61-1.5,26.71,26.71,0,0,0,6.11-3.5,29.64,29.64,0,0,0,5-5,29.1,29.1,0,0,0,4.21-7.91,40.82,40.82,0,0,0,1.26-4.31l.41-2.22.12-.58a6.8,6.8,0,0,1,.14-.68c.1-.43.21-.81.31-1.15.22-.8.44-1,.85-1.07s1,.44,1.29,1.44c.17.48.28,1.06.43,1.57,0,.14.08.23.12.39l.09.51c.05.35.09.73.13,1.12a13.72,13.72,0,0,1-.6,5.31A31.81,31.81,0,0,1,384.7,336a28.41,28.41,0,0,1-9.68,4.25,23,23,0,0,1-5.38.57c-.9-.05-1.79-.15-2.67-.23s-1.76-.35-2.63-.52a28.72,28.72,0,0,1-18.81-16.1,33.75,33.75,0,0,1-.18-26.89,31.12,31.12,0,0,1,1.91-3.78,30,30,0,0,1,2.45-3.46,31.48,31.48,0,0,1,2.89-3.11l1.63-1.37A19.45,19.45,0,0,1,356,284.1a25.67,25.67,0,0,1,2.79-1.62c1-.48,2-.85,3-1.24a24.45,24.45,0,0,1,18.74,1.47,32.28,32.28,0,0,1,14,13.28c.33.65.73,1.25,1,1.91s.59,1.32.87,2a32.68,32.68,0,0,1,1,3.28,19.43,19.43,0,0,1,.27,2.33,3.9,3.9,0,0,1-.76,2.62,4,4,0,0,1-.66.77c-.38.27-.8-.11-1.19-1a12,12,0,0,1-.57-1.63,19.94,19.94,0,0,1-.71-2.24,35.06,35.06,0,0,0-3.29-7.12,32.71,32.71,0,0,0-5-6.11,24.44,24.44,0,0,0-13.91-6.76,18.19,18.19,0,0,0-2.86-.06c-.48,0-1,0-1.44.08l-1.42.24-.71.13-.7.2-1.39.39-1.34.55-.68.27-.64.35-1.29.69c-.41.26-.81.55-1.21.82a22.36,22.36,0,0,0-2.32,1.82,25.27,25.27,0,0,0-3.86,4.51Z"/><path class="cls-1" d="M366.94,265.34c-.2-.09.08-.23.64-.52a3,3,0,0,1,.82-.26,2,2,0,0,1,.49.15,10.3,10.3,0,0,1,.71,1,1.79,1.79,0,0,1,.28.71l.35,1.5a.7.7,0,0,1,0,.35,2.07,2.07,0,0,0,.08,1.16c0,.07,0,.13.12.18s.37,1.1.32,1.25a10.16,10.16,0,0,0-.22,1.07s0,.1-.07.16-.16.24-.16.35a1.47,1.47,0,0,1-.06.45c0,.08-.15.17-.25.26a1,1,0,0,1-.5.11c-.13-.05-.29,0-.44.07l-.16,0a3.63,3.63,0,0,1-.89-.77s-.12-.3-.23-.61a6.92,6.92,0,0,0-.29-.68c0-.07,0-.15,0-.23s-.39-.94-.4-1c0-.2-.15-.37,0-.61a.13.13,0,0,0,0-.12,3.93,3.93,0,0,1-.12-1,4.19,4.19,0,0,0-.11-.51s0-.07,0-.1a.32.32,0,0,0,0-.13,6,6,0,0,0-.29-1.2c0-.09.12-.58.06-.68S367,265.37,366.94,265.34Z"/><path class="cls-1" d="M330.8,283.21c-.19.11-.19-.23-.08-.83a3.19,3.19,0,0,1,.31-.81,3.4,3.4,0,0,1,.37-.33c.07,0,.88,0,1.16-.06a1.73,1.73,0,0,1,.75.14c.48.18,1,.32,1.45.49a.8.8,0,0,1,.29.2,2.09,2.09,0,0,0,1,.54c.07,0,.12.05.21,0s1.14.26,1.24.38c.26.28.54.5.81.74,0,0,.1,0,.1.14,0,.27.13.27.22.32a1.39,1.39,0,0,1,.36.29,1.14,1.14,0,0,1,.1.35,1.12,1.12,0,0,1-.17.48c-.11.09-.12.27-.16.42l-.06.15a4,4,0,0,1-1.13.37s-1.24-.24-1.38-.24-.13-.08-.19-.13-1-.16-1.05-.17c-.18-.1-.41-.07-.52-.35a.1.1,0,0,0-.1-.06,3.76,3.76,0,0,1-.95-.45,4.36,4.36,0,0,0-.51-.17s0-.06-.07-.08-.06-.08-.1-.09a7,7,0,0,0-1.19-.41c-.1,0-.44-.42-.56-.42S330.87,283.16,330.8,283.21Z"/><path class="cls-1" d="M325.93,317.42c-.09.2-.28-.08-.5-.66a3.16,3.16,0,0,1-.18-.85,3.37,3.37,0,0,1,.12-.46,9.59,9.59,0,0,1,.86-.68,1.69,1.69,0,0,1,.65-.31c.46-.12.92-.28,1.38-.42a.78.78,0,0,1,.34,0,1.79,1.79,0,0,0,1.1-.16c.06,0,.13,0,.16-.13s1-.45,1.16-.42a9.88,9.88,0,0,0,1.06.13c.05,0,.08,0,.15.05s.25.14.36.13a1.31,1.31,0,0,1,.44,0c.08,0,.18.14.28.23a1,1,0,0,1,.16.48c0,.13.07.28.12.43l.05.15a3.67,3.67,0,0,1-.65,1l-.56.29c-.29.14-.58.3-.64.34s-.15,0-.22,0-.88.48-.92.48c-.2,0-.36.18-.61,0-.05,0-.08,0-.12,0a3.35,3.35,0,0,1-1,.19,3.17,3.17,0,0,0-.5.15s-.07,0-.1,0a.2.2,0,0,0-.13,0,6.29,6.29,0,0,0-1.18.33c-.09.06-.6-.1-.7,0S326,317.34,325.93,317.42Z"/><path class="cls-1" d="M339.77,345.33c.16.11-.16.12-.78.18a3.7,3.7,0,0,1-.87-.06,2.13,2.13,0,0,1-.39-.31,5.75,5.75,0,0,1-.17-1.28,1.61,1.61,0,0,1,.15-.77c.19-.49.37-.94.58-1.39a.65.65,0,0,1,.22-.25,2,2,0,0,0,.65-.89c0-.06.06-.11,0-.2s.42-1,.55-1.08c.31-.17.57-.38.85-.57,0,0,0-.09.15-.06s.27,0,.34-.12a1.14,1.14,0,0,1,.34-.26,1.34,1.34,0,0,1,.35,0,1.11,1.11,0,0,1,.43.28c.07.12.24.17.37.25l.13.09a3.7,3.7,0,0,1,.18,1.08l-.2.53a6.22,6.22,0,0,0-.2.62c0,.07-.09.09-.15.13a8.94,8.94,0,0,0-.27.88c-.11.13-.1.33-.38.38-.05,0-.06,0-.07.08a2.84,2.84,0,0,1-.47.73,2,2,0,0,0-.18.4s-.05,0-.08.06-.07,0-.08.07c-.11.32-.35.6-.34.92,0,.08-.35.32-.32.4S339.7,345.28,339.77,345.33Z"/><path class="cls-1" d="M368.59,352.51c.18.06-.12.17-.7.37a4.2,4.2,0,0,1-.86.16,2.21,2.21,0,0,1-.45-.13A7.93,7.93,0,0,1,366,352a1.33,1.33,0,0,1-.16-.62c0-.42,0-.83,0-1.23a.41.41,0,0,1,.08-.27,1.37,1.37,0,0,0,.17-.91c0-.05,0-.11-.08-.16s-.11-.91,0-1,.31-.51.46-.76c0,0,0-.08.1-.11s.21-.15.24-.23a.77.77,0,0,1,.17-.32c0-.06.19-.1.3-.15a1.36,1.36,0,0,1,.51,0,1.22,1.22,0,0,0,.44,0h.16a2.83,2.83,0,0,1,.69.74l.09.49c.05.25.1.5.12.55s0,.11-.07.16.18.76.17.79.07.3-.15.44c-.05,0,0,.06,0,.09a2.24,2.24,0,0,1-.1.77,2.54,2.54,0,0,0,0,.39s0,0,0,.07,0,.06,0,.09c0,.3-.07.61.06.89,0,.07-.22.4-.17.46S368.51,352.49,368.59,352.51Z"/><path class="cls-1" d="M398.63,341c.2,0-.05.25-.6.53a6.37,6.37,0,0,1-.82.29h-.45a8.11,8.11,0,0,1-.69-.43.82.82,0,0,1-.34-.38c-.16-.3-.36-.59-.54-.89a.4.4,0,0,1-.05-.25,1,1,0,0,0-.29-.77.13.13,0,0,0-.15-.07c-.16,0-.55-.61-.55-.73a5.77,5.77,0,0,0,0-.84s-.05-.05,0-.14.09-.23.07-.31a.71.71,0,0,1-.06-.34,1.26,1.26,0,0,1,.16-.29,1.63,1.63,0,0,1,.41-.3c.13,0,.25-.15.37-.25l.13-.09a3,3,0,0,1,1,.16l.36.34a5.48,5.48,0,0,0,.43.38c.05,0,0,.11,0,.17s.58.53.59.56.23.22.12.47a.07.07,0,0,0,0,.09,2,2,0,0,1,.33.73,1.8,1.8,0,0,0,.21.35s0,.06,0,.09a.33.33,0,0,0,0,.1c.19.27.23.61.48.87.06.05,0,.51,0,.57S398.55,341,398.63,341Z"/><path class="cls-1" d="M403.73,280.78a.14.14,0,0,1,.12-.07.33.33,0,0,1,.21.11.91.91,0,0,1,.22.66c0,.19-.15.77-.15.86a.58.58,0,0,0,.1.43s0,.14-.08.25l-.25.39a1.18,1.18,0,0,1-.42.38c-.34.2-.68.45-1,.69a.62.62,0,0,1-.28.09,1.41,1.41,0,0,0-.88.44s-.1.06-.09.16-.7.69-.83.71a8.89,8.89,0,0,0-.95.18c-.05,0-.06.07-.15,0s-.27-.06-.35,0a1,1,0,0,1-.39.11,1,1,0,0,1-.33-.11,1.37,1.37,0,0,1-.32-.4c0-.13-.17-.23-.27-.35l-.1-.13a3.08,3.08,0,0,1,.2-1.08s.18-.22.38-.44a5.16,5.16,0,0,0,.43-.51c0-.06.12-.05.2-.06s.6-.7.64-.72.25-.27.52-.2c.06,0,.08,0,.11,0a3.34,3.34,0,0,1,.83-.46,2.55,2.55,0,0,0,.4-.27s.07,0,.1,0a.22.22,0,0,0,.12,0,9,9,0,0,0,1-.63c.06-.07.65,0,.74-.12S403.69,280.86,403.73,280.78Z"/><path class="cls-1" d="M410.77,309.37c.13-.16.2.16.23.77a5.05,5.05,0,0,1-.07.86c-.07.16-.14.31-.2.42a7.33,7.33,0,0,1-.79.42,1,1,0,0,1-.56.12c-.38,0-.76,0-1.15,0a.45.45,0,0,1-.26-.07,1.17,1.17,0,0,0-.88-.15s-.1,0-.15.09-.88.15-1,.09a5.4,5.4,0,0,0-.79-.41s-.07,0-.11-.09-.16-.21-.24-.22a1,1,0,0,1-.34-.14c-.06,0-.11-.18-.17-.29a1.29,1.29,0,0,1,0-.51,1.15,1.15,0,0,0,0-.45v-.16a3.14,3.14,0,0,1,.7-.75l.5-.12.57-.16c.05,0,.11,0,.17.06s.78-.22.81-.21.31-.08.47.14c0,0,.06,0,.09,0a2.52,2.52,0,0,1,.82.09,2.77,2.77,0,0,0,.41,0s.06,0,.08.05.06,0,.09,0a4.18,4.18,0,0,0,1,0c.08,0,.44.26.53.23S410.72,309.43,410.77,309.37Z"/><path class="cls-1" d="M292.72,81.18a26.52,26.52,0,0,0-9.27-6.3A27.85,27.85,0,0,0,278,73.42a29.2,29.2,0,0,0-5.69-.31A36.24,36.24,0,0,0,261,75.47a35.1,35.1,0,0,0-10,5.68,19.64,19.64,0,0,0-2.26,2.2,12.54,12.54,0,0,0-.9,1.23l-.2.33a4.06,4.06,0,0,0-.24.46l-.63,1.36-1.19,0-1,.07-1.3.14c-.86.11-1.73.23-2.59.38-1.72.3-3.43.68-5.11,1.15A37.76,37.76,0,0,0,222.24,95a27.19,27.19,0,0,0-5.12,5.27,25.37,25.37,0,0,0-3.4,6.53,34.47,34.47,0,0,0-1.5,14.8c.07,1.26.31,2.51.5,3.76l.14.94,0,.24,0,.38a2.52,2.52,0,0,1,0,.73,5.44,5.44,0,0,1-1,2.22,22.9,22.9,0,0,1-2.78,3l-2.84,2.64c-3.3,3.09-6.37,6.5-7.86,10.61a15.75,15.75,0,0,0-.93,6.33,25.64,25.64,0,0,0,1.46,6.4c1.88,5.42,4.59,10.64,6.9,16.08a58.74,58.74,0,0,1,3,8.45c.72,2.91,1.21,6.13.2,9.28a5.33,5.33,0,0,1-1.06,2c-.33.35-.53.44-.64.33s.07-1.19.16-2.68a17.59,17.59,0,0,0-.82-5.91c-.67-2.39-1.78-5.17-3-8.23-2.19-5.44-4.91-10.78-7.06-16.55a31.18,31.18,0,0,1-2.18-9.31,19.11,19.11,0,0,1,2.27-9.62,31.52,31.52,0,0,1,5.8-7.55c2.16-2.19,4.58-4.14,6.44-6.14a6.59,6.59,0,0,0,1-1.4,2.42,2.42,0,0,0,.14-.4.08.08,0,0,1,0,0v0l0-.13-.09-.58c-.21-1.53-.5-3-.58-4.61a40.74,40.74,0,0,1,.18-9.36,31.08,31.08,0,0,1,3.51-10.83,28.7,28.7,0,0,1,7.48-8.78,38,38,0,0,1,10-5.63,50.45,50.45,0,0,1,11-2.84c.69-.1,1.38-.19,2.07-.25l1-.09.34,0c0-.06.07-.14.11-.2a.62.62,0,0,1,.06-.14l.2-.32.4-.63.47-.61a17.76,17.76,0,0,1,2-2.2,31.69,31.69,0,0,1,4.63-3.51,41.85,41.85,0,0,1,10.49-4.64,37.09,37.09,0,0,1,11.39-1.45,30.87,30.87,0,0,1,5.74.72c.93.26,1.88.45,2.79.8l1.37.48,1.33.59a28.34,28.34,0,0,1,8,5.49,18.49,18.49,0,0,1,1.68,1.75,19.74,19.74,0,0,1,1.54,1.86,23.94,23.94,0,0,1,1.41,1.94l1,1.49.82,0a11.7,11.7,0,0,1,1.45,0c.49,0,1,0,1.45,0l1.45.12a25.87,25.87,0,0,1,5.69,1.27A22.82,22.82,0,0,1,320,93.4a30.21,30.21,0,0,1,5.64,10.17,33.13,33.13,0,0,1,1.37,5.66,23.47,23.47,0,0,1,.27,2.92,12.8,12.8,0,0,1,0,1.51c0,.51-.14,1-.2,1.47-.59,3.9-2.31,7.42-3.71,10.83a19.23,19.23,0,0,0-1.85,8,15,15,0,0,0,2.75,7.56,29.76,29.76,0,0,1,5.13,16.91,30.89,30.89,0,0,1-1.23,7.81,33.85,33.85,0,0,1-4.54,9.33,12.12,12.12,0,0,1-3.2,3.31,10.19,10.19,0,0,1-1.23.76c-.51.18-.29-.58.54-2.08s2.19-3.77,3.62-6.81a29.73,29.73,0,0,0,3.08-14.36,26.39,26.39,0,0,0-1.59-7.24l-.69-1.74-.84-1.69a16,16,0,0,0-.94-1.66l-1-1.7a16.49,16.49,0,0,1-2.74-8.56,21.85,21.85,0,0,1,1.94-8.64c1.06-2.59,2.18-5,2.92-7.43a20.54,20.54,0,0,0,.82-3.66,8.51,8.51,0,0,0,.13-1.73c0-.61-.06-1.22-.14-1.85a28.37,28.37,0,0,0-7.9-16.74,19.29,19.29,0,0,0-7.88-4.61,20.51,20.51,0,0,0-4.57-.86,22.86,22.86,0,0,0-2.35-.09,11.83,11.83,0,0,0-1.19,0l-2.37.14-1.71-2.64a16.16,16.16,0,0,0-1.13-1.58,33.49,33.49,0,0,0-2.48-3Z"/><path class="cls-1" d="M238.84,158a52.13,52.13,0,0,1-.89-12.36c.08-2,.24-4.08.46-6.1l.38-3L239,135l0-.27-.34-.18c-.49-.24-1-.51-1.45-.79a18,18,0,0,1-2.74-2,11.7,11.7,0,0,1-3.75-5.92,10.09,10.09,0,0,1,1-7.59,7.27,7.27,0,0,1,3-2.8c.31-.14.63-.28.95-.4l1-.27a5.33,5.33,0,0,1,2.29.05A19.68,19.68,0,0,1,241.9,116a3.53,3.53,0,0,0,1,.27,5,5,0,0,0,1.08,0,10.87,10.87,0,0,0,4.48-2.37c2.93-2.33,5.81-5.18,9.32-7.27a23.46,23.46,0,0,1,5.63-2.48,22.16,22.16,0,0,1,6.1-.83,11.69,11.69,0,0,1,3.21.41,6.11,6.11,0,0,1,3,1.87,6.43,6.43,0,0,1,1.48,3.15,9.37,9.37,0,0,1-.1,3.27c-.31,1.79-.92,3.47-.8,4.83a2.12,2.12,0,0,0,.78,1.56,5.63,5.63,0,0,0,1.93,1,10.77,10.77,0,0,0,1.15.3,7.1,7.1,0,0,0,1.09.1c.79,0,1.65-.06,2.51-.11a26.5,26.5,0,0,1,2.69,0,7.35,7.35,0,0,1,2.95.67,3.71,3.71,0,0,1,1.61,1.62,3.85,3.85,0,0,1,.39,1.13,3.76,3.76,0,0,1-.05,1.15c-.2,1.13-.4,2.18-.56,3.25s-.29,2.13-.34,3.16a7.38,7.38,0,0,0,.27,2.74c.66,1.49,2.41,2.6,4.34,3.2a26,26,0,0,0,6.18,1.09c1.33.09,1.91.27,1.88.57s-.69.7-1.88,1a15,15,0,0,1-5.07.43,13.26,13.26,0,0,1-3.51-.73,8.9,8.9,0,0,1-3.73-2.48l-.37-.43c-.11-.16-.21-.32-.31-.49a4.82,4.82,0,0,1-.56-1.09,7.86,7.86,0,0,1-.45-2.24,20.49,20.49,0,0,1,.19-3.74c.15-1.19.36-2.33.57-3.45.11-.55.22-1.14.29-1.57,0,0,0,0,0,0a.46.46,0,0,0-.09-.22c0-.17-.57-.44-1.47-.53a19.48,19.48,0,0,0-3.06,0,19.39,19.39,0,0,1-3.78,0,6.73,6.73,0,0,1-1-.22c-.3-.07-.62-.17-.94-.28a9.54,9.54,0,0,1-1.93-.87,5.82,5.82,0,0,1-1.82-1.73,5.27,5.27,0,0,1-.83-2.47,12.74,12.74,0,0,1,.5-3.93,15.24,15.24,0,0,0,.53-3,3.9,3.9,0,0,0-.5-2.24,3.2,3.2,0,0,0-1.67-1.4,8.12,8.12,0,0,0-2.75-.41,19.42,19.42,0,0,0-6.16.93,23,23,0,0,0-6.76,3.7c-2.14,1.6-4.11,3.5-6.36,5.31a17.22,17.22,0,0,1-3.85,2.41,7.89,7.89,0,0,1-3.72.65,5.6,5.6,0,0,1-1.31-.3c-1.56-.56-2.65-1.22-3.53-1.2a2.28,2.28,0,0,0-.68.11,3.76,3.76,0,0,0-.78.26,4.44,4.44,0,0,0-1.33.87c-1.93,1.84-2.14,5.43-.79,8a10.33,10.33,0,0,0,3,3.42,15.84,15.84,0,0,0,2,1.3l.53.29.27.14.14.07.24.11,1.89.85-.44,2.89c-.1.65-.2,1.31-.27,2-.17,1.32-.33,2.63-.43,3.94a67.18,67.18,0,0,0-.26,7.89,38.72,38.72,0,0,0,1.67,10.8,20.48,20.48,0,0,0,5.54,9.07,20.91,20.91,0,0,0,7,4.08,13.49,13.49,0,0,0,7.88.31,19.79,19.79,0,0,0,7.18-3.75A42.83,42.83,0,0,0,276,164.4,108,108,0,0,0,283.66,154l1.8-2.7.9-1.35,1.17-1.73.73-1a10.47,10.47,0,0,1,1.15.45c.39.16.79.35,1.17.49l.72.25a13.09,13.09,0,0,0,2.91.64,7.23,7.23,0,0,0,4.64-1,7.41,7.41,0,0,0,2.5-2.78,12,12,0,0,0,1-2.51c.41-1.43.58-2.26.82-3a3,3,0,0,0,.07-1.09c0-.25.1-.35.45-.13a2.72,2.72,0,0,1,.88,1.48,9.65,9.65,0,0,1-.8,6.52,9.4,9.4,0,0,1-4.86,4.73,10,10,0,0,1-3.44.73,14.36,14.36,0,0,1-3.36-.34c-.54-.12-1.06-.27-1.59-.43l-.77-.26-.19-.07-.09,0-.05,0h0c-.05,0-.11-.07-.13,0l0,.08s.05-.05-.15.24l-3.37,5a116.16,116.16,0,0,1-7.4,9.93,39.2,39.2,0,0,1-9.65,8.55,17.85,17.85,0,0,1-9.77,2.69,17.3,17.3,0,0,1-5.07-.95,25.26,25.26,0,0,1-4.51-2.17,21.09,21.09,0,0,1-7.06-7.06,30.41,30.41,0,0,1-3.5-9.12Z"/><path class="cls-1" d="M228.72,169.42c-3.68-2.89-5.37-7.77-5.82-12.27-.15-1.43-2.4-1.44-2.25,0,.5,5,2.33,10.61,6.48,13.86,1.12.88,2.72-.7,1.59-1.59Z"/><path class="cls-1" d="M231.29,167.37a23.42,23.42,0,0,1-5.79-13.25c-.13-1.43-2.38-1.45-2.25,0A26.07,26.07,0,0,0,229.7,169c1,1.07,2.56-.53,1.59-1.6Z"/><path class="cls-1" d="M235.54,166c-3.68-3.45-5.46-8.2-6.25-13.09-.23-1.42-2.4-.82-2.17.6.85,5.25,2.89,10.39,6.83,14.08,1.05,1,2.65-.6,1.59-1.59Z"/><path class="cls-1" d="M217.79,162.47c1.54,9,7.54,14.19,16.12,16.48a1.13,1.13,0,0,0,.6-2.17c-7.87-2.1-13.14-6.63-14.55-14.9-.24-1.43-2.41-.82-2.17.59Z"/><path class="cls-1" d="M292.09,172.12a22.83,22.83,0,0,0,7-14.13c.15-1.43-2.1-1.42-2.25,0a20.47,20.47,0,0,1-6.33,12.54c-1,1,.55,2.6,1.59,1.59Z"/><path class="cls-1" d="M288.63,170.33c4-4.08,7.17-9.36,7.25-15.19a1.13,1.13,0,0,0-2.25,0c-.07,5.22-3,10-6.59,13.6-1,1,.58,2.63,1.59,1.59Z"/><path class="cls-1" d="M285.76,169A25.85,25.85,0,0,0,292,155.58c.22-1.41-1.94-2-2.17-.59a23.87,23.87,0,0,1-5.65,12.39c-1,1.07.62,2.67,1.59,1.59Z"/><path class="cls-1" d="M286.35,179.82c7.1-2.74,13.65-7.58,15.15-15.46.27-1.42-1.89-2-2.17-.6-1.35,7.08-7.18,11.42-13.58,13.89-1.33.51-.75,2.69.6,2.17Z"/><path class="cls-2" d="M263.7,178.25a11.24,11.24,0,0,0-1.44,2.39"/><path class="cls-1" d="M239.49,167.91A30.9,30.9,0,0,1,250,175.24c1.7,1.72,4.21,4,4.92,6.41a1.13,1.13,0,0,0,2.17-.6c-.82-2.78-3.53-5.4-5.5-7.4a33.55,33.55,0,0,0-11.54-7.91c-1.35-.52-1.94,1.65-.6,2.17Z"/><path class="cls-3" d="M273.27,196.25a.39.39,0,0,1-.06.11"/><path class="cls-1" d="M272.09,183.26c3.34-4.08,10.64-3.32,14.85-4.53,1.68-.48,12.13,12.47,18,20.48,5,6.88,10.59,14.7,8.42,23.67a22.86,22.86,0,0,1-6,10.71H206.55c-3.39-3.37-6.08-7.17-6.08-11.28,0-8.15,15.62-37.57,31-45.06,3.85,1,7.77,1.32,10.92,1.85a3.75,3.75,0,0,1,2.77,2c1.1,2.23-.2,11.27-2.39,17.9,2.73,1.84,5.86,4.65,10.6,3.63,0,0,3.79-18.83,2.2-22,2.22.21,4.14-.2,6.7-.34-1.45,2.82-.45,20.11-.45,20.11,3.17.29,9.14.4,11.4-4C271.43,192.5,271.25,184.29,272.09,183.26Z"/><path class="cls-1" d="M215.19,195.12A101.14,101.14,0,0,0,207.77,207l-1.59,3.1c-.51,1-1,2.11-1.46,3.16s-.87,2.13-1.29,3.2-.79,2.16-1,3.23a11.35,11.35,0,0,0-.43,3.07,9.22,9.22,0,0,0,.65,3,19.08,19.08,0,0,0,3.59,5.47l.86.93c.06.1.13,0,.19.06h4.33l7.09,0,20.71,0,36.49.21,18.25.11,9.12,0,2.28,0h1.33c.08,0,.12-.1.19-.15l.61-.7c.25-.27.48-.56.71-.84.45-.58.88-1.17,1.27-1.78a20.27,20.27,0,0,0,2.89-7.13,16.47,16.47,0,0,0-.27-7.61,27.79,27.79,0,0,0-3.1-7.16,76.88,76.88,0,0,0-4.45-6.59c-2.82-3.85-5.78-7.61-8.82-11.29-1.52-1.84-3.06-3.66-4.65-5.42-.8-.88-1.61-1.74-2.44-2.55a16,16,0,0,0-1.25-1.12l-.29-.21a.54.54,0,0,0-.16-.1.37.37,0,0,0-.34,0c-4.06.92-8.5.64-11.91,2.33-1.5.77-2.05,1.41-2.35,1.36-.13,0-.16-.17-.06-.47a3.46,3.46,0,0,1,.23-.55,5.72,5.72,0,0,1,.51-.69,10.49,10.49,0,0,1,5-2.89,34.54,34.54,0,0,1,3.88-.93l2.1-.41c.34-.08.71-.14,1.05-.23l.51-.12.72-.2a1.62,1.62,0,0,1,.62-.06,1.51,1.51,0,0,1,.63.06,4.16,4.16,0,0,1,1.17.55,11.83,11.83,0,0,1,1.3,1c.77.67,1.48,1.38,2.17,2.11,2.47,2.63,4.72,5.35,7,8.1s4.38,5.56,6.48,8.41a91.33,91.33,0,0,1,6,8.91,36.17,36.17,0,0,1,2.37,5,23.14,23.14,0,0,1,1.31,5.55,17.82,17.82,0,0,1-.28,5.78,22.66,22.66,0,0,1-1.81,5.39,24,24,0,0,1-3.05,4.78c-.29.36-.59.72-.9,1.06l-.62.68-.43.46c-.15.13-.24.39-.48.32l-3.28,0L283.41,235c-16.94-.22-34.58-.11-51.92-.16l-14.29,0-7.15,0h-3.73c-.12,0-.26,0-.33-.08l-.94-1-.62-.68c-.42-.46-.82-.93-1.21-1.41a17.46,17.46,0,0,1-3.53-6.7,9.87,9.87,0,0,1-.17-3.94,10.94,10.94,0,0,1,.37-1.86,14.25,14.25,0,0,1,.5-1.79,75.62,75.62,0,0,1,6-13.21,104.67,104.67,0,0,1,9.9-14.72c3.75-4.58,7.93-8.95,13.19-12l1-.56c.44-.2.89-.68,1.42-.38l1.21.29,1,.22c1.4.28,2.81.49,4.24.69s2.85.38,4.35.66a4.4,4.4,0,0,1,3.54,3.55,18.32,18.32,0,0,1,0,4.56c-.13,1.47-.34,2.92-.61,4.36s-.56,2.87-.91,4.29c-.18.7-.36,1.41-.57,2.11l-.27.94-.19.59.73.5,1.18.81a15.29,15.29,0,0,0,2.43,1.34,8.65,8.65,0,0,0,2.56.67,7.28,7.28,0,0,0,1.32,0,4.41,4.41,0,0,0,.79-.11c.18-1,.35-1.92.53-2.86.19-1.13.38-2.26.58-3.39.4-2.53.76-5.06,1-7.58.13-1.26.23-2.51.26-3.74,0-.31,0-.62,0-.92v-.68a1.59,1.59,0,0,0,0-.29l-.27-1.45c-.1-.48-.25-.91-.36-1.36.85.06,1.78.13,2.64.13l.62,0,.42,0,.83-.07,2.19-.22,1.27-.1.64,0,.32,0c.13,0,.13,0,.2.06l-.28.85-.25.93a8.71,8.71,0,0,0-.22.92c-.05.27-.08.65-.1.79-.08.73-.11,1.49-.14,2.24-.07,1.52-.05,3,0,4.58s.06,3.06.13,4.59l.21,4.52,0,.56.35,0h.42c.59,0,1.17,0,1.74,0a12.72,12.72,0,0,0,3.3-.66,6.09,6.09,0,0,0,2.66-1.74c.38-.46.39-.47.47-.66l-.09-.25-.24-.75a23.25,23.25,0,0,1-.8-5,12.82,12.82,0,0,1,.61-5.4,3.45,3.45,0,0,1,.8-1.44c.22-.13.26.06.28.31s0,1,.07,2,.16,2.24.36,3.74a30.61,30.61,0,0,0,1.06,5l.14.39c.05.14.07.22.19.5l.29.71.15.35a2.68,2.68,0,0,1-.18.33c-.26.42-.51.93-.78,1.29a8.2,8.2,0,0,1-.7.84,9,9,0,0,1-3.55,2.24,15,15,0,0,1-3.92.79c-.65,0-1.3.06-1.95,0l-.73,0-.82-.06-1.66-.12c-.22-3.58-.27-4.48-.35-6.3-.08-1.66-.14-3.33-.17-5s0-3.38,0-5.11c0-.86.07-1.73.15-2.62l.05-.43v0s0,0,0-.08-.07,0-.1,0h0l-.76.08-1.51.12s0,0,0,.06v.07l0,.75c0,.51,0,1,0,1.47s0,1-.07,1.44c-.13,1.9-.35,3.77-.6,5.63s-.54,3.72-.85,5.57l-.49,2.78-.77,4-1.4.24a10.49,10.49,0,0,1-1.44.18,9.21,9.21,0,0,1-1.74,0,11.2,11.2,0,0,1-3.32-.86,18.82,18.82,0,0,1-2.85-1.55l-1.25-.86-2.31-1.59.14-.44.53-1.7.19-.62.12-.42c.17-.55.31-1.11.46-1.67.28-1.12.54-2.25.76-3.39a46.13,46.13,0,0,0,.9-6.8c0-.56,0-1.1,0-1.61a4.68,4.68,0,0,0-.19-1.18c0-.07-.09-.18-.19-.31a1.72,1.72,0,0,0-.33-.33,2,2,0,0,0-.85-.39c-2.17-.37-4.64-.64-7-1.05-.61-.1-1.21-.22-1.82-.34l-.91-.19-.64-.15s0,0-.06,0l-.52.3-1.45.82c-.94.63-1.84,1.33-2.76,2s-1.73,1.51-2.6,2.26a74.65,74.65,0,0,0-9.11,10.59Z"/><path class="cls-1" d="M277.76,164.66c-1.12,4.14-2.57,8.49-8.4,10.07-2.06.56-5.71,3.39-5.71,3.39h0a9.12,9.12,0,0,1,.5-2.39S275.51,168.49,277.76,164.66Z"/><path class="cls-1" d="M276.32,164.87c-1.2,4.38-2.78,7.67-7.31,9.3A24.59,24.59,0,0,0,262.5,178l2.59-.05a12.39,12.39,0,0,0,.17-2c-.19.34.29-.19.62-.4,1.39-.91,2.75-1.84,4.1-2.8,3.17-2.26,7-4.74,9.12-8.08.65-1-2.22-.67-2.67,0-2.24,3.51-6.36,6-9.7,8.39-2.44,1.7-4.17,2.15-4.52,5.26-.13,1.09,2.21.24,2.58,0a26.32,26.32,0,0,1,3.54-2.37c1.79-1,3.77-1.32,5.48-2.48,3.12-2.14,4.43-5.48,5.39-9C279.45,163.57,276.57,164,276.32,164.87Z"/><path class="cls-1" d="M251.52,131.85c1.15,4.34,6.21,5.15,9.94,4.33,1.76-.39,1.36-1.85-.39-1.46-2.72.6-5.9-.78-6.66-3.65-.26-1-3.16-.24-2.89.78Z"/><path class="cls-1" d="M270.73,139.34c1.43,4.53,6.64,4.43,10.28,3a1.13,1.13,0,0,0,.66-1.58c-.41-.66-1.4-.5-2-.27-2.36.95-5.25.68-6.06-1.9-.45-1.41-3.34-.62-2.9.78Z"/><path class="cls-1" d="M268.73,133.09a15.88,15.88,0,0,1,2.39-1.72c.42-.25.83-.52,1.26-.74l1.33-.6a11.38,11.38,0,0,1,2-.79,21,21,0,0,1,7.25-.79c1.07.11,2.15.12,3.21.31.35.06.7.07,1,.15s.68.16,1,.26a5,5,0,0,1,1.9,1c.36.29-.1.9-.75,1.41a2.47,2.47,0,0,1-2,.73,26.28,26.28,0,0,0-7-1.07,10.76,10.76,0,0,0-1.13,0l-1.1.24a19.58,19.58,0,0,0-2.17.69,7.82,7.82,0,0,0-1.16.47l-1.14.51-1.07.65a6.11,6.11,0,0,0-1,.7l-1.21,1c-.36.37-.71.76-1.06,1.14a13.38,13.38,0,0,0-2.49,4,6.42,6.42,0,0,0-.46,1.77,18.14,18.14,0,0,0-.26,1.8c0,.27,0,.53,0,.8-.1,1-.35,1.26-1.16,1.4-.19,0-.37.08-.56.1-.61,0-1.05-.44-1.1-1.27,0-.61,0-1.24,0-1.88a13.89,13.89,0,0,1,.34-1.89,16.07,16.07,0,0,1,1.38-3.72c.52-.86,1.06-1.71,1.66-2.51l1-1.12a7.59,7.59,0,0,1,1.06-1.06Z"/><path class="cls-1" d="M266.81,127.11a.39.39,0,0,1,.18.41.71.71,0,0,1-.09.28c0,.1-.12.29-.24.34s-.6-.11-.7,0,0,.12-.07.13l-.12,0-.21-.05a13.13,13.13,0,0,0-1.47-1.15c-.38-.24-.73-.5-1.08-.77a11.77,11.77,0,0,0-2.34-1.33c-.18-.08-.35-.2-.53-.3a6.34,6.34,0,0,0-.94-.47,8.42,8.42,0,0,0-1-.24.68.68,0,0,0-.35,0,4,4,0,0,1-1.13-.06c-.52-.06-1.06-.06-1.18-.1a9.82,9.82,0,0,0-1.87-.28c-.09,0-.19,0-.28-.06s-.4-.11-.6-.09a5.73,5.73,0,0,1-.83,0,1.47,1.47,0,0,1-.45-.17c-.14-.06-.13-.36-.1-.4s0-.23-.06-.35a.6.6,0,0,1,0-.12,10,10,0,0,1,1.79-.88l1.34-.17c.67-.12,1.4-.08,1.55-.12a1.42,1.42,0,0,1,.45.08,18.87,18.87,0,0,1,2.24.15,3.34,3.34,0,0,1,1.23.43.56.56,0,0,0,.24.1c.36.11.71.24,1.05.38l1,.52,1,.53a.93.93,0,0,1,.15.13l.2.17a22.36,22.36,0,0,1,2.14,1.63,13.54,13.54,0,0,1,.88,1.16C266.68,126.49,266.7,127,266.81,127.11Z"/><path class="cls-1" d="M254.93,156.63c2.07,4.05,6.09,5.21,10.11,3.11,1.48-.78.16-2.26-1.13-1.58-3,1.59-5.3.16-6.74-2.65-.54-1-2.86-.09-2.24,1.12Z"/><path class="cls-1" d="M205.67,346.37a51.94,51.94,0,0,0-6.74-4.49,35.5,35.5,0,0,0-7.32-3,22.85,22.85,0,0,0-7.62-.57,26.52,26.52,0,0,0-7.49,2.24,68.21,68.21,0,0,0-10.34,6.1,155.7,155.7,0,0,0-16.77,13.57c-5.33,4.88-10.43,10-15.33,15.38-4.36,4.74-8.49,9.73-12.4,14.78-5,6.5-9.63,13.31-14.37,20-1.47,2.07-2.18,1.26-1.86-1.12a25.12,25.12,0,0,1,4.5-10.26,249.49,249.49,0,0,1,15.77-20,233.59,233.59,0,0,1,17.79-18.38c3.77-3.47,7.63-7,11.67-10.37a108.82,108.82,0,0,1,12.78-9.43,56.4,56.4,0,0,1,7.82-4.11,27.42,27.42,0,0,1,8.78-2.3,25.59,25.59,0,0,1,9,1,36,36,0,0,1,8.18,3.56c.77.47,1.58.89,2.32,1.41l2.24,1.52c1.44,1.08,2.88,2.15,4.23,3.33a91.57,91.57,0,0,1,7.72,7.4,177.94,177.94,0,0,1,19.38,25.58c4.46,6.95,8.67,13.87,12.52,21.08.83,1.6,1.7,3.14,2.48,4.78,2.94,6.06,3.46,8.19,3,9.92a5.86,5.86,0,0,1-.31,1.16c-.54.9-2.15-1.37-4.35-5.68a322.18,322.18,0,0,0-22.9-38.35,162.77,162.77,0,0,0-10.45-13.2,86.33,86.33,0,0,0-12-11.47Z"/><path class="cls-1" d="M298.4,372.59c-4-3.81-8.52-7-13.64-8.39a18.13,18.13,0,0,0-5.65-.52A38.15,38.15,0,0,0,268.83,366a104.74,104.74,0,0,0-10.14,4.21c-2.95,1.41-5.82,3-8.6,4.7-3.57,2.17-7,4.62-10.6,6.63-1.13.62-1.61-.31-1.27-1.77a8.36,8.36,0,0,1,3.6-4.79,111.35,111.35,0,0,1,23.47-11.7c2.5-.87,5.07-1.74,7.73-2.48l2-.51c.69-.15,1.4-.25,2.1-.37a15.34,15.34,0,0,1,2.17-.21c.37,0,.74-.05,1.1,0l1.07.07a25.59,25.59,0,0,1,9,2.43,37,37,0,0,1,7.67,4.92,65.65,65.65,0,0,1,7.8,7.75c3.62,4.18,6.71,8.75,9.85,13.12,2.45,3.4,5,6.58,7.71,9.65l1.8,2c2.22,2.48,2.79,3.36,2.53,4.64a3.74,3.74,0,0,1-.18.86c-.33.82-1.85.34-3.75-1.41-5.66-5.18-10.11-11.85-14.64-18.08a89.42,89.42,0,0,0-10.94-12.93Z"/><path class="cls-1" d="M162.86,379.17a55.86,55.86,0,0,0-4.68,5.12c-.54.67-1,1.4-1.51,2.09L151,393.67c-.86,1.08-1.65,2.23-2.44,3.36-.51.72-1,1.48-1.52,2.19a10.3,10.3,0,0,1-1.88,1.91c-.89.67-2.7-2.79-1.5-4.26,2.14-2.71,4.27-5.43,6.71-8.1,1.45-1.59,2.58-3.55,3.92-5.32a65.62,65.62,0,0,1,4.8-5.64c.51-.57,1.06-1.1,1.62-1.62s1.08-1.08,1.68-1.56c.88-.75,1.74-1.53,2.69-2.19l1.37-1.05,1.4-1c1.42-1.08,2.82-2.13,4.26-3.17.33-.21.64-.44,1-.64,1.27-.71,1.8-.69,2.5.07a5.93,5.93,0,0,1,.47.53c.44.63.2,1.47-.59,2.12-2.39,1.88-4.9,3.6-7.34,5.44-.9.7-1.81,1.39-2.65,2.16s-1.69,1.53-2.51,2.34Z"/><path class="cls-1" d="M288.87,391.24c-.57-.9-1.18-1.78-1.83-2.62-.24-.31-.57-.52-.81-.82a26.86,26.86,0,0,0-2.76-3.08,6.51,6.51,0,0,0-1.52-1c-.35-.17-.73-.29-1.07-.47a2,2,0,0,1-.92-.72c-.32-.45,1.83-3.4,2.8-2.92a11.11,11.11,0,0,1,4.09,3.55,27.62,27.62,0,0,0,2.26,2.33,32,32,0,0,1,2.17,2.78l1.21,1.78c.62.89,1.14,1.84,1.78,2.7.49.67,1.14,1.22,1.7,1.86a2.93,2.93,0,0,1,.38.41c.39.56.28.88-.53,1.48-.18.13-.36.28-.55.4a1.64,1.64,0,0,1-1.76.2,11.84,11.84,0,0,1-2.9-3.19c-.62-.86-1.18-1.77-1.82-2.62Z"/><path class="cls-1" d="M226.58,394.71c-.69-1.08-1.41-2.16-2.18-3.2-.28-.38-.64-.67-.92-1.05a32.75,32.75,0,0,0-3.14-3.76,6.12,6.12,0,0,0-1.71-1.15c-.79-.36-1.54-.37-1.95-.71a3.08,3.08,0,0,1-.13-2,2.4,2.4,0,0,1,.8-1.25,1.45,1.45,0,0,1,1.26-.33,9.06,9.06,0,0,1,3.27,1.84,11.48,11.48,0,0,1,2.16,2.47c.71,1.07,1.71,1.87,2.5,2.85s1.66,2.19,2.44,3.31l1.4,2.08c.72,1,1.37,2.13,2.12,3.14.59.78,1.33,1.43,2,2.19.14.17.31.31.44.5.47.68.38,1.08-.43,1.68-.18.13-.36.28-.56.4a1.63,1.63,0,0,1-1.8.08,16.81,16.81,0,0,1-3.4-3.81c-.76-1-1.46-2.14-2.23-3.19Z"/><path class="cls-1" d="M224.34,219.76l7.17,5.84a1.15,1.15,0,0,0,1.88-.5c3.38-8.5,6.56-17.1,9.45-25.79.46-1.37-1.71-2-2.17-.59-2.89,8.68-6.07,17.28-9.45,25.78l1.88-.49-7.17-5.84c-1.12-.91-2.72.68-1.59,1.59Z"/><path class="cls-1" d="M272.13,196.66c3.36,9.94,7.35,19.68,11.56,29.29a1.14,1.14,0,0,0,1.77.22l7.29-7.6c1-1-.59-2.64-1.59-1.59l-7.29,7.6,1.77.23c-4.14-9.42-8-19-11.34-28.74-.47-1.37-2.64-.78-2.17.59Z"/><path class="cls-1" d="M261.94,224.8V200.41a1.13,1.13,0,0,0-2.25,0V224.8a1.13,1.13,0,0,0,2.25,0Z"/><path class="cls-1" d="M253.24,202.64l-1.46,23c-.09,1.45,2.16,1.44,2.25,0l1.46-23c.09-1.45-2.16-1.44-2.25,0Z"/></g></svg>