<svg id="Layer_1" data-name="Layer 1" xmlns="http://www.w3.org/2000/svg" width="520" height="520" viewBox="0 0 520 520"><defs><style>.cls-1{fill:#221f1f;}.cls-2{fill:#232020;}</style></defs><title>Notioly v2</title><g id="_20.Searching" data-name="20.Searching"><path class="cls-1" d="M201.88,393s10.74,11.06,9,12.92c-.52.54-16.85,6.06-31.09,14.51a10.17,10.17,0,0,1-1.79-.62c1.33-1.4,8.34-7.18,17.58-12.34C202.06,403.87,201.88,393,201.88,393Z"/><path class="cls-1" d="M338,382.05c-3.06,2.74-9.05,20.1-11.46,21.48-2.87,1.65-11.82-1.47-20.75-2.32a115.16,115.16,0,0,0-18.34-.16c-8-1.73-.08-17.6-.08-17.6s3.69,8.66,8.1,12.48c9-.71,23.63,3,25.9,3.17,5,.42,5.89-4.6,7.79-8C330.87,388,334.18,382.86,338,382.05Z"/><path class="cls-1" d="M198.77,186.76a6.34,6.34,0,0,1,.41-7c.44-.62,1.85-.49,2.08.14l.33.92c.12.31.27.6.4.89.23.59.55,1.15.81,1.7a17.89,17.89,0,0,0,3.62,5.83,15.64,15.64,0,0,0,4.06,3,11.68,11.68,0,0,0,3.5,1.17,4.4,4.4,0,0,0,3.26-.46,2,2,0,0,0,.49-.82c0-.12.07-.24.11-.36l.06-.45,0-.23v-.27l0-.54a17,17,0,0,0-1.24-5.33,14.7,14.7,0,0,0-2.7-4.54,6.57,6.57,0,0,0-7.87-1.68,11.83,11.83,0,0,0-3.57,2.39,11.19,11.19,0,0,0-3.4,7.12,13.68,13.68,0,0,0,.22,4.22,8,8,0,0,0,.25,1,6.64,6.64,0,0,0,.3,1c.13.27.21.55.35.83s.31.52.45.79.48.68.75,1a4.54,4.54,0,0,0,1,.78,19.31,19.31,0,0,0,2.52,1.51c.33.18.72.27,1.09.44s.81.21,1.22.34a9.19,9.19,0,0,0,2.62.12,8,8,0,0,0,4.46-1.86,14.71,14.71,0,0,0,2.18-2.39,16.47,16.47,0,0,0,3-6.82,19.09,19.09,0,0,0-.08-7.75l-.33-1.07a3.59,3.59,0,0,1-.23-1.07,7.51,7.51,0,0,0-2.18-4.31,19.23,19.23,0,0,0-5.46-4.29c-.52-.28-1-.61-1.55-.9a17,17,0,0,0-1.61-.91c-1-.52-.25-1.23.18-1.21,1.22,0,.4-.61.37-1,0-.13,0-.3.07-.38a11.5,11.5,0,0,1,2.6.41,21.69,21.69,0,0,1,5.55,2.21,20,20,0,0,1,5,4.17,15.58,15.58,0,0,1,2.19,3.19,21.45,21.45,0,0,1,1.58,4,25.66,25.66,0,0,1-1.8,18.4,21.29,21.29,0,0,1-3.45,4.88,12.34,12.34,0,0,1-.91.85c-.34.26-.68.5-1,.74a13.19,13.19,0,0,1-2.24,1.24,10.12,10.12,0,0,1-1.14.53l-1.16.46c-.44.17-1,.27-1.52.42a16.76,16.76,0,0,1-8.11-.21,18,18,0,0,1-7.09-3.81,9.82,9.82,0,0,1-1.13-1.08c-.33-.35-.63-.65-.85-.94-.44-.58-.72-1-.78-1.05a13,13,0,0,1-.93-1.57,10.17,10.17,0,0,1-.76-1.68l-.33-.87c-.1-.29-.16-.53-.23-.8-.14-.53-.29-1-.4-1.58a16.8,16.8,0,0,1-.09-6.59c.1-.42.15-.86.21-1.3s.15-.88.23-1.32a19.87,19.87,0,0,1,1.93-5.41,19.28,19.28,0,0,1,3.53-4.62,16.35,16.35,0,0,1,10.81-4.69,14.35,14.35,0,0,1,6.26,1.23,15.22,15.22,0,0,1,5,3.64A12.84,12.84,0,0,1,221,177l.69,1.13c.19.38.38.76.6,1.13a25,25,0,0,1,2.36,6,18.34,18.34,0,0,1,.62,6.85,10,10,0,0,1-.4,1.94c-.1.33-.2.65-.33,1s-.31.66-.48,1a8.7,8.7,0,0,1-3.09,3.26,9.83,9.83,0,0,1-4,1.37,13.66,13.66,0,0,1-3.79-.06c-.28-.05-.68-.13-1.17-.25s-1-.33-1.64-.57a20.25,20.25,0,0,1-3.76-2.08,27.81,27.81,0,0,1-5.14-4.88,8.47,8.47,0,0,1-.77-1.2c-.26-.55-.56-1.17-.8-1.8C199.38,188.52,199.07,187.24,198.77,186.76Z"/><path class="cls-2" d="M170.84,240.11s.2.69.48,1.68.6,2.34.9,3.71c.62,2.74,1,5.7.63,6.28a.48.48,0,0,1-.6.08c-.35-.41-1.31-3.08-2.36-5.64l-2.06-5.06C167.67,240.7,170.68,239.64,170.84,240.11Z"/><path class="cls-1" d="M229.77,159.26a.52.52,0,0,1-.23.27.73.73,0,0,1-.36.13,4.91,4.91,0,0,1-1.26-.17c-.34-.07-1.1-.62-1.07-.86a6.47,6.47,0,0,1,.32-1.42,3.62,3.62,0,0,1,.57-.67c.17-.17.37-.38.6-.59l.79-.57.44-.3.46-.23.92-.44,1.51-.48a11.33,11.33,0,0,1,4.13-.14,38.34,38.34,0,0,1,7.33,1.91,9.27,9.27,0,0,1,1.43.66,16.32,16.32,0,0,0,4.78,1.81,1.6,1.6,0,0,0,.84.08,19.4,19.4,0,0,1,2.71.38c1.24.2,2.52.39,2.81.47a39.6,39.6,0,0,0,4.43,1c.21,0,.45,0,.64.17a2,2,0,0,0,1.4.39,16.58,16.58,0,0,1,2,.25,4,4,0,0,1,1,.47c.29.17.13.75,0,.81-.3.19-.06.47,0,.71a1.15,1.15,0,0,1,0,.26,24.21,24.21,0,0,1-4.34,1.11l-1,0h-2.09c-1.54,0-3.18-.08-3.51-.1a3.36,3.36,0,0,1-1-.24c-.08,0-1.3-.12-2.52-.29s-2.44-.39-2.53-.42a8,8,0,0,1-2.76-1.06,1.45,1.45,0,0,0-.54-.23c-1.61-.48-3-1.17-4.44-1.74a20.73,20.73,0,0,0-2.21-.68,3.37,3.37,0,0,1-.38-.19,2.14,2.14,0,0,0-.47-.2,12,12,0,0,0-4.93-.46c-.18,0-.64,0-1.14,0l-.68.12a1,1,0,0,0-.42.18c-.08.07-.35,0-.62,0S229.82,159.15,229.77,159.26Z"/><path class="cls-1" d="M226.89,193.87a20.7,20.7,0,0,1,1.8-4.91.54.54,0,0,1,1,.21,13.09,13.09,0,0,1,.12,1.88l0,.95-.11.95c0,.1-.06.38-.16.79s-.28.94-.46,1.58a24.27,24.27,0,0,1-2.12,4.44,27.07,27.07,0,0,1-3.42,4.37,26,26,0,0,1-3.31,2.86,21.38,21.38,0,0,1-11.51,4.24,18.58,18.58,0,0,1-12.16-3.64,24,24,0,0,1-2.43-2.06,27.22,27.22,0,0,1-2.08-2.36,32.19,32.19,0,0,1-3.29-5.22c-.39-.84-.74-1.7-1.1-2.56s-.52-1.8-.77-2.69a22.54,22.54,0,0,1,.05-9.57,23.29,23.29,0,0,1,3.95-8.62c.65-.82,1.3-1.68,2-2.46.13-.17.42-.52.85-1s1-1,1.76-1.61a30,30,0,0,1,5.57-3.58,24.65,24.65,0,0,1,6.45-2.09,20.28,20.28,0,0,1,4-.31,18.84,18.84,0,0,1,8.18,2.19,17.67,17.67,0,0,1,3.45,2.48,19.7,19.7,0,0,1,2.71,3.21,9.19,9.19,0,0,1,1.12,2c.53,1.59,1.2,3.09,1.63,4.68a29.14,29.14,0,0,1,1.06,6.7c0,.56,0,1.11,0,1.66s-.12,1.09-.17,1.63c-.1,1-.56.45-.61.11-.16-1-.36-.18-.54-.09s-.14.07-.19,0-.1-.82-.25-2a40.68,40.68,0,0,0-.8-4.31,27.14,27.14,0,0,0-2.55-6.6,19.68,19.68,0,0,0-1.53-2.37,13.84,13.84,0,0,0-4.47-3.82,14.34,14.34,0,0,0-3-1.17,16.43,16.43,0,0,0-2.94-.45,17.65,17.65,0,0,0-3.67.21c-1,.18-2,.31-2.95.56a19.83,19.83,0,0,0-2.25.84,26.39,26.39,0,0,0-4.22,2.42,24.74,24.74,0,0,0-5.19,5.1,23.08,23.08,0,0,0-3.7,7.32,16.37,16.37,0,0,0-.31,1.61,21,21,0,0,0,3.62,13.64,20,20,0,0,0,5,5.39,11.42,11.42,0,0,0,1,.78,8.69,8.69,0,0,0,1.41.83,15.14,15.14,0,0,0,8.33,1.3,18.53,18.53,0,0,0,8.09-3.12,29.59,29.59,0,0,0,3.67-2.82,17.86,17.86,0,0,0,3.09-3.66,6.81,6.81,0,0,1,.56-.8l.75-1.12A8.56,8.56,0,0,0,226.89,193.87Z"/><path class="cls-1" d="M296.15,190.26a21,21,0,0,1,1.81-4.92.54.54,0,0,1,1,.21,13.09,13.09,0,0,1,.12,1.88c0,.31,0,.64,0,1l-.11,1c0,.1-.05.38-.15.79s-.27,1-.47,1.59a24.09,24.09,0,0,1-2.13,4.45,25.5,25.5,0,0,1-6.83,7.19,21.33,21.33,0,0,1-11.65,4,19.25,19.25,0,0,1-12.1-3.86,23.57,23.57,0,0,1-4.5-4.42c-.69-.8-1.21-1.69-1.81-2.53s-1.06-1.75-1.52-2.69a26.37,26.37,0,0,1-1.11-2.56,22.48,22.48,0,0,1-.83-12.27,23.25,23.25,0,0,1,3.94-8.67c.32-.42.62-.86,1-1.26s.68-.81,1-1.22a24.45,24.45,0,0,1,8.38-6,25.7,25.7,0,0,1,6.55-1.81,22.83,22.83,0,0,1,4-.2,20,20,0,0,1,8.18,2.15,18.19,18.19,0,0,1,3.47,2.47,19.75,19.75,0,0,1,2.73,3.21,9.73,9.73,0,0,1,1.13,2.06c.54,1.59,1.21,3.09,1.65,4.69a29.22,29.22,0,0,1,1.06,6.72c0,.56,0,1.11,0,1.66s-.11,1.09-.17,1.64c-.1,1-.56.44-.61.11-.16-1-.35-.18-.54-.09s-.14.07-.19,0-.09-.82-.25-2a38.41,38.41,0,0,0-.8-4.32,26.66,26.66,0,0,0-2.57-6.61,15.79,15.79,0,0,0-1.54-2.38,13.68,13.68,0,0,0-4.49-3.81,13.9,13.9,0,0,0-3-1.14,18.77,18.77,0,0,0-3-.43,19,19,0,0,0-3.74.13c-1,.13-2,.26-3,.44-.11,0-1,.26-2.29.74a20.12,20.12,0,0,0-4.26,2.28,20.8,20.8,0,0,0-5.24,5,23.08,23.08,0,0,0-3.66,7.34,6.63,6.63,0,0,0-.29,1.61,19.33,19.33,0,0,0,.62,7l.56,1.71c.22.57.49,1.11.74,1.67a12.7,12.7,0,0,0,.84,1.64A15.89,15.89,0,0,0,263,195a20.37,20.37,0,0,0,5,5.42c.36.25.68.56,1,.8a15.67,15.67,0,0,0,1.42.85,17.12,17.12,0,0,0,4.06,1.34,18.09,18.09,0,0,0,4.29.16,19.53,19.53,0,0,0,4.25-1,21.89,21.89,0,0,0,3.92-2,29.08,29.08,0,0,0,3.71-2.77,18,18,0,0,0,3.12-3.65,7.85,7.85,0,0,1,.56-.79c.24-.33.48-.73.75-1.12A8,8,0,0,0,296.15,190.26Z"/><path class="cls-1" d="M275.45,206a1.58,1.58,0,0,1,1.75.08c.22.11.47.64.33.8a7.86,7.86,0,0,1-.87.86,7.4,7.4,0,0,1-.68.33,10.34,10.34,0,0,1-1.42.55,20.2,20.2,0,0,1-2.95.75,15.8,15.8,0,0,1-3.69.23,42.05,42.05,0,0,1-7.29-1,12,12,0,0,1-1.55-.46c-1.74-.63-3.48-1.18-5.22-1.73a3.41,3.41,0,0,0-.89-.22,19.86,19.86,0,0,1-2.83-.94c-1.28-.5-2.56-1.07-2.84-1.23-1.38-.8-2.77-1.57-4.13-2.39a1.85,1.85,0,0,1-.56-.38,3.3,3.3,0,0,0-1.19-.86c-.59-.34-1.17-.69-1.73-1.09a5.05,5.05,0,0,1-.72-.74c-.21-.24.12-.48.22-.46.32.05.2-.23.25-.37a.52.52,0,0,1,.07-.15,20,20,0,0,1,1.94.6c1,.33,2,.66,2.16.75l.86.39,1.84.8c1.36.57,2.8,1.12,3.1,1.21a5.71,5.71,0,0,1,.89.45c.13.1,4.33,1.47,4.5,1.49a16.77,16.77,0,0,1,2.55,1,1.89,1.89,0,0,0,.52.18c1.51.4,3,.87,4.51,1.22.77.17,1.55.29,2.33.39a3.25,3.25,0,0,1,.42.11,2.41,2.41,0,0,0,.52.11,22.7,22.7,0,0,0,5.52.1,16.71,16.71,0,0,0,2.86-.29C274.29,206,275.24,206.12,275.45,206Z"/><path class="cls-1" d="M180.34,193a1.69,1.69,0,0,1-.77,1.52c-.16.13-.63.07-.68-.12a7,7,0,0,1-.24-1.1,40.69,40.69,0,0,1,.48-4.94,23.36,23.36,0,0,1,.77-3.41,45.2,45.2,0,0,1,2.5-6.68,12.71,12.71,0,0,1,.77-1.4c1-1.54,2-3.08,3.11-4.54a7.56,7.56,0,0,0,.55-.75A11.9,11.9,0,0,1,189,169.4a12.55,12.55,0,0,1,2.72-1.79,14.08,14.08,0,0,1,4.87-1.18,2.11,2.11,0,0,1,.71,0,6.45,6.45,0,0,0,1.5.17,10,10,0,0,1,2,.35,6,6,0,0,1,.93.43c.27.14,0,.4-.07.41-.31,0-.11.21-.11.34a.24.24,0,0,1,0,.12,2.47,2.47,0,0,1-.6,0,11.19,11.19,0,0,0-1.31,0,10.77,10.77,0,0,0-1.34.1c-.38,0-.66.08-.76.09l-.84.1a10.77,10.77,0,0,0-1.75.45,10.29,10.29,0,0,0-2.68,1.34c-.24.18-.53.28-.78.45a13.33,13.33,0,0,0-1.62,1.45,20.56,20.56,0,0,0-1.44,1.69c-.56.65-1,1.39-1.62,2a2.2,2.2,0,0,0-.3.43c-.76,1.29-1.51,2.61-2.17,4-.33.7-.6,1.44-.88,2.17-.05.13-.12.25-.18.38a4.25,4.25,0,0,0-.21.49,35.92,35.92,0,0,0-1.52,5.36c-.09.42-.69,2.39-.73,2.89C180.77,191.93,180.31,192.78,180.34,193Z"/><path class="cls-1" d="M180.82,172.61c.28-.38.76-.41,1.29-.15a.81.81,0,0,1,.31.62,6.77,6.77,0,0,1-.36.65c0,.06-.47.46-.92,1s-.89,1.1-1.12,1.39c-.4.62-.85,1.17-1.25,1.78s-.78,1.27-1.18,1.9-.68,1.32-1,2a6.18,6.18,0,0,1-.43.9,7.74,7.74,0,0,0-.67,1.6,9.85,9.85,0,0,0-.46,1.67,1.64,1.64,0,0,0-.06.58c0,.17-.18,1-.28,1.88s-.26,1.75-.31,2c-.24,1-.37,2-.56,3,0,.15,0,.31-.08.44a1.78,1.78,0,0,0-.18.95c0,.45-.05.89-.11,1.34a2.88,2.88,0,0,1-.23.66c-.08.21-.38.11-.41,0s-.23,0-.36,0a.29.29,0,0,1-.13,0,22.38,22.38,0,0,1-.59-2.94,5.8,5.8,0,0,1,0-.66c0-.38,0-.89,0-1.41s0-1,0-1.48.06-.76.07-.87a3.27,3.27,0,0,1,.15-.69c0-.05.07-.86.18-1.67l.29-1.69a5.69,5.69,0,0,1,.63-1.86,1.66,1.66,0,0,0,.14-.37l.24-.81.33-.79c.23-.51.44-1,.71-1.54s.51-1,.77-1.56a2.35,2.35,0,0,1,.19-.25c.08-.11.17-.21.24-.32a13.07,13.07,0,0,1,1.13-1.72c.39-.57.85-1.09,1.26-1.65.19-.27,1.42-1.21,1.69-1.46S180.71,172.77,180.82,172.61Z"/><path class="cls-1" d="M164.15,195.49c.23-3.46,1.94-6.41,4.28-7.63.71-.42,1.06.24.55.92a11.34,11.34,0,0,0-1.91,4.64,21.14,21.14,0,0,0-.47,3.3,33.22,33.22,0,0,0,.38,6.9c.21,1.3.47,2.62.78,3.95s.59,2.73.85,4c.51,2.57.87,4.86,1.12,6.4a138.33,138.33,0,0,1,1.5,18.06A246.24,246.24,0,0,1,169,272.69c-.34,2.7-.76,5.38-1.22,8q-2.44,13.71-4.88,27.38c-.27,1.52-.59,3.07-.76,4.56-.13,1.23-1.44,8-2.8,14.86s-2.64,13.77-2.91,15.36a184,184,0,0,0-3.15,23.8c-.11,1.13,0,2.35-.18,3.39a40.82,40.82,0,0,0-.13,7.34c.06,1.72.24,3.42.35,5.13s.41,3.4.59,5.1l.66,5c.2,1.52-.4.82-.56.3-.46-1.49-.4-.21-.55,0s-.12.14-.18.08-.11-.34-.26-.89-.36-1.33-.6-2.27a32.28,32.28,0,0,1-.7-3.27c-.21-1.21-.52-2.5-.68-3.82s-.34-2.67-.5-3.95-.2-2.52-.29-3.62c-.18-2.2-.19-3.88-.18-4.43v-1.45c0-.86,0-2.07.08-3.51.09-2.89.34-6.71.73-10.6.79-7.78,2.14-15.81,2.42-17.44s.66-3.42,1-5.11c.08-.41,1.19-6.33,2.31-12.26s2.18-11.84,2.26-12.31c.91-4.72,1.66-9.49,2.74-14.15.21-.92.37-1.88.52-2.83,1.34-8.15,2.67-16.29,3.65-24.46.49-4.17.85-8.37,1.12-12.56.06-.75.13-1.51.19-2.26.07-.95.16-1.9.21-2.85a168.41,168.41,0,0,0-1.09-29.71c-.15-1.13-.52-4.4-1.05-7.69-.27-1.67-.57-3.26-.84-4.75s-.4-2.67-.49-3.35a24.83,24.83,0,0,1-.07-4.05C163.85,197.78,164.11,196.18,164.15,195.49Z"/><path class="cls-1" d="M201.46,403.78a13.79,13.79,0,0,1-1.77,4.46,10,10,0,0,1-1.34,1.72,7.3,7.3,0,0,1-1.66,1.22c-.75.39-1.05-.3-.53-.94a14.54,14.54,0,0,0,2.14-4.72,32.83,32.83,0,0,0,.94-3.35,61.53,61.53,0,0,0,1.18-7.05,144.14,144.14,0,0,0,.78-14.58q.08-9-.18-18c-.35-12.22-1.18-24.45-2.18-36.67-.22-2.71-.41-5.44-.59-8.15-.6-9.31-1.5-18.61-2.53-27.91-.17-1.55-.32-3.14-.58-4.62-.42-2.44-3.18-27.68-3.42-31-.31-4.08-.64-8.16-.9-12.26-.12-2.06-.24-4.11-.25-6.23,0-.52,0-1.07,0-1.62,0-.31,0-.57.08-.91l.1-.53a2.7,2.7,0,0,1,.13-.43,14.52,14.52,0,0,1,.57-1.58c.2-.51.42-1,.64-1.46a30.63,30.63,0,0,1,1.53-3.14,31.57,31.57,0,0,0,2.91-6.76,21.34,21.34,0,0,0,1-9.85c-.08-.4-.15-.8-.22-1.2a9.5,9.5,0,0,0-.32-1.16c-.13-.39-.22-.79-.37-1.17l-.53-1.11c-.64-1.35.12-.91.45-.46.91,1.3.45.09.53-.14s.06-.18.14-.14a9.53,9.53,0,0,1,.55.81,13.73,13.73,0,0,1,1.1,2.24,18,18,0,0,1,1,7.54,31.45,31.45,0,0,1-1.62,7.74c-.72,2.15-1.38,3.72-1.6,4.23,0,.12-.87,1.94-2,4.51a20.36,20.36,0,0,0-.69,2l-.08.25,0,.18c0,.09,0,.31,0,.48,0,.35,0,.8,0,1.21.05,1.73.19,3.64.36,5.57.69,7.75,1.7,15.89,1.89,17.54s.33,3.48.48,5.22c.1.82,2.83,24.18,2.94,25.12.48,4.85,1.09,9.7,1.3,14.55,0,1,.15,1.95.25,2.91.86,8.35,1.49,16.71,2.06,25.08l.89,12.83c0,.77.05,1.54.07,2.32,0,1,.05,1.95.11,2.92q.82,15.21.61,30.51c0,1.17-.19,4.56-.5,8s-.78,6.9-1,8.26a35.25,35.25,0,0,1-.86,3.93c-.22.79-.44,1.56-.63,2.22S201.53,403.44,201.46,403.78Z"/><path class="cls-1" d="M262.9,241.51a17.15,17.15,0,0,1-2.73-6.46c-.13-.67.54-.94,1-.33.94,1.2,1.88,2.42,2.77,3.69.14.2.73,1.14,1.56,2.55.41.7.89,1.52,1.38,2.44.24.47.49.95.73,1.47a7.68,7.68,0,0,1,.37.94c.09.3.19.61.26.9.58,2.31.94,4.64,1.3,6.76s.61,4,.81,5.24c.73,4.87,1.3,9.75,1.86,14.63q1.68,14.88,3.5,29.72c.27,2.19.51,4.4.73,6.6.75,7.54,1.76,15.07,3,22.56.2,1.24.38,2.52.68,3.71.24,1,1.17,6.55,2.2,12.17s2.17,11.31,2.42,12.61a181,181,0,0,0,4.5,19.21c.26.9.64,1.82.8,2.67a25.52,25.52,0,0,0,2,5.65,29,29,0,0,0,4.16,7,9.22,9.22,0,0,0,2.89,2.45c1.05.44.4.71-.07.62-.64-.1-.71-.12-.65,0s.33.32.37.43,0,.17,0,.19a2.34,2.34,0,0,1-.81-.24,8.73,8.73,0,0,1-.85-.4c-.3-.19-.64-.39-1-.64a18,18,0,0,1-4.13-4.62,52.07,52.07,0,0,1-4.53-8.94c0-.11-.62-1.6-1.36-3.86s-1.67-5.27-2.52-8.37c-1.69-6.19-3.1-12.73-3.4-14.06s-.53-2.81-.76-4.22c-.05-.33-1.05-5.2-1.94-10.09s-1.72-9.81-1.77-10.19c-.57-3.92-1.26-7.85-1.54-11.79-.06-.78-.18-1.58-.3-2.36-1-6.75-1.73-13.52-2.48-20.29l-1.23-10.37c-.07-.62-.1-1.24-.16-1.87-.07-.79-.12-1.58-.21-2.36-1-8.18-1.73-16.38-2.85-24.52-.24-1.85-1.06-10.92-1.69-12.8l-.12-.47a4.22,4.22,0,0,0-.19-.6c-.18-.5-.41-1.09-.65-1.67A22.58,22.58,0,0,0,262.9,241.51Z"/><path class="cls-1" d="M294.65,203.64c.07-2.87,0-5.13-.08-7.49,0-.75.65-1,1.08-.12a15.47,15.47,0,0,1,1.53,5.26,16.93,16.93,0,0,1-.11,3.55,34.38,34.38,0,0,1-1.63,6.79c-.81,2.44-1.77,4.92-2.52,7.13a43.94,43.94,0,0,0-1.51,5.46l-.29,1.89c0,.27,0,.52,0,.8l0,.88a29.79,29.79,0,0,0,.61,3.79c.57,2.58,1.31,5.18,2.12,7.78,3.33,10.54,7.54,20.93,11.67,31.31.93,2.3,1.83,4.62,2.7,6.94,3,8,6.22,15.87,9.46,23.77.54,1.31,1.07,2.67,1.68,3.91.5,1,2.92,6.9,5.26,12.91s4.6,12.18,5.07,13.6c2.35,7.09,4.67,14.22,6.57,21.49a27.35,27.35,0,0,1,.74,3.11c.28,2.27.87,4.5,1.31,6.8a43.38,43.38,0,0,1,.87,9.75,11.68,11.68,0,0,1-1.22,4.8c-.79,1.32-.79.32-.63-.11.24-.68.12-.79,0-.69s-.31.34-.44.35-.17,0-.19-.05a1.13,1.13,0,0,1,.07-.2c0-.12.07-.31.13-.54a4.71,4.71,0,0,0,.16-.83,8.72,8.72,0,0,0,.12-1.13,28.68,28.68,0,0,0-.45-6.29c-.78-4.68-2.27-9.51-2.5-10.47,0-.11-.48-1.8-1.22-4.3s-1.8-5.8-2.95-9.16c-2.3-6.72-5-13.66-5.53-15.07s-1.09-3-1.61-4.5c-.12-.35-2.15-5.5-4.25-10.64s-4.24-10.28-4.4-10.67c-1.63-4.13-3.42-8.2-4.84-12.39-.28-.83-.64-1.66-1-2.48-2.93-7.05-5.72-14.16-8.48-21.29l-4.26-10.93c-.25-.65-.46-1.33-.69-2-.29-.84-.56-1.68-.87-2.52-1.61-4.35-3.12-8.74-4.44-13.23-.65-2.25-1.26-4.51-1.73-6.87a31.71,31.71,0,0,1-.52-3.63,13,13,0,0,1,0-2l0-.52.07-.46.15-.91a24.89,24.89,0,0,1,.72-2.91c.4-1.29.93-2.79,1.52-4.26,1.19-2.93,2.39-5.79,2.73-6.93.21-.64.77-1.95,1.21-3.27A15.31,15.31,0,0,0,294.65,203.64Z"/><path class="cls-1" d="M205,255c7.42,7,18.74,16.63,33.47,12.9C242.38,277.85,212.85,287.93,205,255Z"/><path class="cls-1" d="M207.22,258.24a5.47,5.47,0,0,1-2.17-3,.49.49,0,0,1,.69-.55c.68.42,1.35.85,2,1.29.2.14,1.76,1.46,3.59,2.81a49.43,49.43,0,0,0,5.06,3.35,42.58,42.58,0,0,0,6.57,3.16,25,25,0,0,0,7.09,1.58,15.8,15.8,0,0,0,1.82.05,12.23,12.23,0,0,0,1.81-.07l1.8-.17.9-.19c.62-.11,1.26-.27,1.86-.35l.78-.07.39,0,.19,0c.06,0,.15,0,.15.06l.44,1.58c.12.54.18,1.08.27,1.61a2,2,0,0,1,0,.81c0,.3-.05.41-.08.63a8,8,0,0,1-1.59,3.37,11.27,11.27,0,0,1-2.56,2.29,16.12,16.12,0,0,1-6,2.41l-1.07.18a8.84,8.84,0,0,0-1,.16,12.33,12.33,0,0,1-2.52.07,18.78,18.78,0,0,1-8.64-2.67l-.8-.48-.64-.45-.79-.6a27.78,27.78,0,0,1-6.7-8.57,5.35,5.35,0,0,1-.62-1.39,10,10,0,0,0-.54-1.54c-.19-.51-.4-1-.6-1.52a18.61,18.61,0,0,1-.73-2.14c-.21-.73-.46-1.44-.6-2.18s-.21-1.47-.29-2.2.38-.4.48-.19c.29.62.32.06.45,0s.1-.07.15,0a10.48,10.48,0,0,1,.51,1.28l.47,1.3.64,1.48a47.13,47.13,0,0,0,2.17,4.41s.34.78,1,1.75a25.87,25.87,0,0,0,2.46,3.48,18.14,18.14,0,0,0,1.57,1.69,17.05,17.05,0,0,0,1.57,1.38,14.65,14.65,0,0,0,1.32.95,5.13,5.13,0,0,0,.78.48c.59.31,1.14.73,1.75,1a16.62,16.62,0,0,0,4.65,1.32,15.26,15.26,0,0,0,4.8-.13,16.58,16.58,0,0,0,5.1-1.76,3.93,3.93,0,0,0,.84-.61,7.12,7.12,0,0,0,1.38-1.61,4.78,4.78,0,0,0,.38-.88,3.66,3.66,0,0,0,.13-.44,2,2,0,0,1,0-.34.86.86,0,0,0,0-.16l0-.08s0,0-.06,0H237l-.14,0a10.67,10.67,0,0,1-1.38.2,29.56,29.56,0,0,1-5.72.16c-.34,0-.68-.1-1-.15s-.86-.12-1.28-.22a35.4,35.4,0,0,1-12.37-4.84,30.78,30.78,0,0,1-2.81-2c-1.15-.93-2.29-1.87-2.74-2.24S207.69,258.56,207.22,258.24Z"/><path class="cls-1" d="M198.11,280.87a11.73,11.73,0,0,1-3.49-5.1c-.2-.57.39-1,.91-.54,1,.85,2.06,1.69,3.06,2.58.32.25,2.68,2.75,5.63,5.16a46.67,46.67,0,0,0,8.39,5.55,41.8,41.8,0,0,0,11.54,3.84l2.49.36c.83.11,1.68.12,2.52.19l1.26.08,1.26,0,5.11-.06-1.06,6.28-.61,3.84-1.19,7.67c-.29,1.91-.61,3.82-1,5.71-1.18,6.51-2.1,13.07-2.88,19.65-.12,1.1-.28,2.21-.3,3.29,0,.88-.58,5.77-1.09,10.74s-1,10-1.11,11.16c-.68,5.72-1.17,11.47-1.43,17.21a19.07,19.07,0,0,1-.13,2.43,25.75,25.75,0,0,0-.13,5.27,51.78,51.78,0,0,0,.75,7.22,13.84,13.84,0,0,0,.91,3.26c.48.83-.14.74-.44.44-.72-.88-.42,0-.5.22,0,.06-.07.15-.15.13a3.78,3.78,0,0,1-.44-.6,9.82,9.82,0,0,1-.81-1.63,26.24,26.24,0,0,1-1.35-5.15,65.09,65.09,0,0,1-.85-8.63c0-.1,0-1.49,0-3.56s.07-4.8.19-7.6c.22-5.59.66-11.4.74-12.58s.26-2.48.42-3.72c0-.29.43-4.6.83-8.92s.9-8.64.95-9c.46-3.43.79-6.89,1.52-10.27.15-.66.23-1.36.32-2.05.77-5.9,1.74-11.77,2.72-17.63l1.43-8.93c0-.08.07-.17.11-.28l.06-.16a.79.79,0,0,0-.23,0h-.37c-.46,0-.92,0-1.39,0l-2.78-.18c-.93,0-1.85-.22-2.78-.35a21.75,21.75,0,0,1-2.75-.5A42.7,42.7,0,0,1,211.43,292a39.63,39.63,0,0,1-4.92-3.15c-1-.76-2-1.54-2.79-2.23L201.88,285c-.4-.37-1.2-1.23-1.95-2.1S198.46,281.19,198.11,280.87Z"/><path class="cls-1" d="M198.86,303.54c6.1,11.4,14.12,21,27.94,21.29,2.07,0-1-6.49-3.22-6.53-10.43-.2-16.4-5.81-21.14-14.68-.49-.92-2-3.63-3.4-3.31s-.63,2.39-.18,3.23Z"/><path class="cls-1" d="M264.49,382.44a13.29,13.29,0,0,1,1.4,4.71.54.54,0,0,1-.93.49l-.63-.67-.53-.69a11.12,11.12,0,0,1-1-1.46,49.81,49.81,0,0,1-2.52-6c-1.11-3.06-2.17-6.5-2.72-8.24-1-3.38-1.92-6.8-2.72-10.23q-2.48-10.45-4.62-21c-.32-1.55-.6-3.12-.85-4.68-.84-5.38-1.85-10.72-2.9-16.06-.18-.89-.33-1.81-.59-2.65s-1-4.67-1.73-8.71c-.35-2-.71-4.07-1-5.72-.36-2.19-.62-3.86-.73-4.49l-.28-2c1.13-.09,2.3-.12,3.34-.27l.68-.12c.13,0,.25,0,.38-.06l.75-.15c.5-.11,1-.25,1.5-.37l1.48-.46A31.27,31.27,0,0,0,256,291a15.23,15.23,0,0,1,1.66-1,11.72,11.72,0,0,0,1.79-1.09c.54-.45,1.06-.93,1.6-1.4.74-.65,1.39-1.39,2.11-2.08s1.3-1.49,2-2.22,1.28-1.48,2-2.2.71,0,.57.25c-.41.83.19.34.39.36s.16,0,.18.09a5.34,5.34,0,0,1-.25.49l-.7,1.22c-.14.25-.3.52-.47.8l-.6.87c-.43.59-.86,1.26-1.36,1.88a32.6,32.6,0,0,1-5.06,5.2,17,17,0,0,1-1.67,1.21,18.78,18.78,0,0,1-1.76,1.13,22.41,22.41,0,0,1-2.2,1.21,31.19,31.19,0,0,1-5,2c-.42.13-.83.26-1.23.35-.2.05-.39.11-.59.15l-.28.07-.17,0-.2.07c.22,1.09.31,1.51.34,1.68.2,1,.31,2,.44,3,.05.48,2.74,13.85,2.85,14.38.48,2.79,1.13,5.55,1.4,8.36a16,16,0,0,0,.29,1.66c1,4.76,1.83,9.54,2.75,14.31.48,2.43,1,4.85,1.56,7.27.09.44.15.88.23,1.32s.18,1.11.31,1.66c1.31,5.72,2.51,11.47,4.14,17.09.2.64.61,2.54,1.1,4.44s1,3.81,1.27,4.54a22.27,22.27,0,0,1,.53,2.21A13.55,13.55,0,0,0,264.49,382.44Z"/><path class="cls-1" d="M252.2,317.2h.41a6.41,6.41,0,0,0,.67-.13c.25-.06.54-.11.84-.19l.91-.36a3.66,3.66,0,0,0,.9-.41l.79-.41c.46-.28.79-.53.9-.6a16,16,0,0,0,1.92-1.28l1.26-.9a17.85,17.85,0,0,0,1.48-1.24,37.31,37.31,0,0,0,2.88-2.91A19.16,19.16,0,0,0,267.8,305c.13-.3.65-1.17,1.16-2.07a13.87,13.87,0,0,0,1-2.19c.07-.22,2.08.27,2,.49-.07.46-.14.92-.25,1.37a8.46,8.46,0,0,1-.45,1.28c-.29.63-.9,2-1.53,3.22s-1.24,2.25-1.3,2.33l-.61,1.25-.69,1.22a10.85,10.85,0,0,1-.7,1.11c-.67,1-1.44,2-2.21,3a22.72,22.72,0,0,1-2.4,2.62,18.17,18.17,0,0,1-2.15,1.6,24.36,24.36,0,0,1-2.42,1.31l-1.48.64a14.42,14.42,0,0,1-1.59.45,8.08,8.08,0,0,1-2,.07c-.48,0-.8-1-1-2.17a5.15,5.15,0,0,1,.35-2.19C251.87,317.67,252.09,317.19,252.2,317.2Z"/><path class="cls-1" d="M148.49,391.32a4.3,4.3,0,0,1-.39-1.84,5,5,0,0,1,.45-1.73c.16-.35.87-.42,1-.08.35.66.64,1.32,1,2,0,.1.22.59.47,1.3s.62,1.62,1.08,2.57a38.16,38.16,0,0,0,2.71,4.9c1.26,1.91,2.57,3.8,4,5.63a63.25,63.25,0,0,0,4.63,5.34c1.65,1.69,3.37,3.39,5.12,4.88.78.67,1.55,1.31,2.32,1.92a14.58,14.58,0,0,0,2.09,1.39q.56.3,1.11.54l.57.23.47.13a9.16,9.16,0,0,0,4.57-.44,7.53,7.53,0,0,0,1.59-.63c.4-.21,2.81-1.24,5.23-2.52s4.89-2.63,5.48-2.91c2.91-1.39,5.8-2.9,8.83-4.22a5.37,5.37,0,0,1,1.32-.51,16.16,16.16,0,0,0,2.93-.95,15.33,15.33,0,0,1,4.31-.93,4.74,4.74,0,0,1,1.12.08l.56.12.54.19c.64.22.17.59,0,.61-.63,0-.16.33-.15.52a.25.25,0,0,1,0,.19s-.46,0-1.14.1a12.24,12.24,0,0,0-2.5.72,40.62,40.62,0,0,0-4.08,2c-.05,0-.72.34-1.71.86s-2.28,1.24-3.61,2l-6,3.57a20.41,20.41,0,0,1-1.87.94c-.15.07-2.26,1.29-4.49,2.41a36.67,36.67,0,0,1-4.89,2.06,19.67,19.67,0,0,1-3.18.7,8.27,8.27,0,0,1-3.53-.28c-.47-.17-1-.29-1.36-.44a25.06,25.06,0,0,1-8.72-6c-1.24-1.21-2.49-2.39-3.68-3.64-.22-.23-.4-.48-.6-.72s-.5-.61-.76-.91a67.89,67.89,0,0,1-7.39-9.89,29.69,29.69,0,0,1-1.44-2.93c-.54-1.3-1-2.63-1.25-3.14S148.72,391.82,148.49,391.32Z"/><path class="cls-1" d="M142,405.62a3.71,3.71,0,0,1-.3-3.46c.14-.38.93-.63,1.17-.34.49.56,1,1.13,1.38,1.72.12.19.91,1.84,2,3.6l.77,1.36.82,1.27c.54.8,1,1.52,1.33,2,.68.88,1.33,1.77,2,2.68s1.37,1.72,2,2.59a36.63,36.63,0,0,0,10.05,8.46c.82.53,1.71.92,2.54,1.43a25,25,0,0,0,9.58,2.89,8.58,8.58,0,0,0,1.68,0c.45,0,3,0,5.48-.2s5.06-.76,5.65-.83a34.62,34.62,0,0,0,8.54-2.46,4.1,4.1,0,0,1,1.18-.47,6.47,6.47,0,0,0,2.48-1.18,30.06,30.06,0,0,0,3.06-2.24,7.46,7.46,0,0,1,.76-.56l.75-.56a.36.36,0,0,1,.61.37c-.23.57.26.33.47.4s.17.07.19.12a1.32,1.32,0,0,1-.16.36,7.29,7.29,0,0,1-.52.83,17.45,17.45,0,0,1-1.9,2.28,22.41,22.41,0,0,1-3.78,3.11s-.72.42-1.74,1-2.43,1.2-3.89,1.79a49.33,49.33,0,0,1-6.79,2.12,18.68,18.68,0,0,1-2.11.25c-.16,0-2.58.41-5.06.54a43.82,43.82,0,0,1-5.15-.09c-1-.13-2-.28-3-.44a15.67,15.67,0,0,1-2.85-.88,7,7,0,0,0-1.12-.38,32.76,32.76,0,0,1-9.16-4.43c-.7-.51-1.41-1-2.12-1.49s-1.35-1.07-2-1.62a5.14,5.14,0,0,1-.66-.66c-.27-.29-.52-.59-.8-.85a53.81,53.81,0,0,1-7.63-9.38c-.55-.76-2.39-4.76-2.83-5.71C142.61,408,142.25,406.07,142,405.62Z"/><path class="cls-1" d="M288.41,403a5.65,5.65,0,0,1-2.84,1.07c-.37.06-.9-.4-.71-.77a7,7,0,0,1,1.45-1.92,8.56,8.56,0,0,1,1.28-.83,14.76,14.76,0,0,1,2.78-1.15,27.72,27.72,0,0,1,5.75-1,33,33,0,0,1,7,.3,56.66,56.66,0,0,1,6.91,1.37c2.36.62,4.48,1.5,6.53,2.13.91.28,1.8.58,2.65.8a6.82,6.82,0,0,0,7.63-2.19,5.21,5.21,0,0,0,.89-1.24c.09-.19.46-.75.93-1.57s1-1.89,1.55-3c1-2.27,2.07-4.74,2.37-5.28a33.61,33.61,0,0,1,5.2-8,4.36,4.36,0,0,1,1.05-.93c.92-.48,1.7-1.12,2.59-1.63a11.47,11.47,0,0,1,4-1.34,7.64,7.64,0,0,1,2,.06c.59.07.3.54.11.61-.57.19-.08.35,0,.53a.33.33,0,0,1,0,.19s-.47.12-1.11.33a11.42,11.42,0,0,0-2.27.91,12.33,12.33,0,0,0-3.08,2.37A11.35,11.35,0,0,0,340,384a18.54,18.54,0,0,0-1.94,3,60,60,0,0,0-2.51,5.79,16.67,16.67,0,0,1-.84,1.76c-.08.13-.89,2.26-2,4.39a27.47,27.47,0,0,1-1.72,2.9,14,14,0,0,1-3.41,3.52,11.37,11.37,0,0,1-1.44.82,7.58,7.58,0,0,1-1.6.49c-.43.07-.85.22-1.29.28a12.69,12.69,0,0,1-5.31-.25,38.91,38.91,0,0,1-4.61-1.49q-1.12-.42-2.22-.78c-.71-.24-1.42-.44-2.15-.64-.26-.07-.51-.18-.78-.26a10.34,10.34,0,0,0-1-.3,42.73,42.73,0,0,0-10.7-1.23c-.4,0-1.58,0-2.76,0a12.16,12.16,0,0,0-2.76.39A9.33,9.33,0,0,0,288.41,403Z"/><path class="cls-1" d="M295.42,413.47a2.79,2.79,0,0,1-1.72-2.5c0-.36.5-1,.81-.91a14.36,14.36,0,0,1,1.79.56c.19,0,1.5.84,3.06,1.56.76.4,1.62.71,2.36,1l1.88.69c1.78.54,3.51,1.15,5.3,1.56a29.36,29.36,0,0,0,5.5.83c.92.09,1.84,0,2.76,0s1.84-.1,2.74-.25,1.62-.22,2.43-.33a17.84,17.84,0,0,0,7.74-3,5,5,0,0,0,1.12-.87c.23-.32,1.9-1.6,3.48-3.09s3.08-3.17,3.46-3.53c1.87-1.77,3.6-3.75,5.37-5.74a3.62,3.62,0,0,1,.79-.82,7.26,7.26,0,0,0,1.79-1.75,18.27,18.27,0,0,1,2.53-2.52,4.92,4.92,0,0,1,.78-.5c.3-.13.61-.24.9-.35.53-.2.53.43.43.57-.32.44.15.4.3.56a.41.41,0,0,1,.12.18,5.52,5.52,0,0,1-.6.73l-.61.8c-.22.3-.44.66-.67,1-.9,1.4-1.81,3-2,3.25-.06.07-1.5,2-3,4.13s-3.3,4.21-3.67,4.65a8.31,8.31,0,0,1-1.29,1.22c-.11.09-1.49,1.63-3,3-.77.71-1.62,1.37-2.25,1.89s-1.15.82-1.21.87a22.54,22.54,0,0,1-2.23,1.32,8.55,8.55,0,0,1-2.42.93,5.72,5.72,0,0,0-1,.35,26.27,26.27,0,0,1-8.59,1.72c-.75,0-1.49.09-2.23.08a20.69,20.69,0,0,1-2.23-.05c-.27,0-.53-.09-.79-.12l-1-.17a43.4,43.4,0,0,1-10.07-2.62,24.06,24.06,0,0,1-2.41-1.26c-1-.6-2-1.22-2.39-1.44a5.89,5.89,0,0,1-1-.88A4.28,4.28,0,0,0,295.42,413.47Z"/><path class="cls-1" d="M263.72,165.1c.43-.25.86,0,1.3.54a1.08,1.08,0,0,1,.1.86,5.73,5.73,0,0,1-.69.55c-.15.09-2.58.81-3.39,1.08a18.49,18.49,0,0,1-2.41.61c-1.65.34-3.28.72-4.91,1.11a10.68,10.68,0,0,1-1.11.18,17.48,17.48,0,0,0-3.73.81,1.53,1.53,0,0,0-.59.24c-.3.22-3.57,1.22-4,1.33a25.21,25.21,0,0,0-3.16.81c-.15.05-.27.16-.45.12a1.32,1.32,0,0,0-.95.26c-.4.2-.79.41-1.16.62a5.33,5.33,0,0,1-.64.22c-.2.07-.43-.23-.4-.32s-.19-.22-.33-.3a.64.64,0,0,1-.13-.1,2.47,2.47,0,0,1,.26-.5,7.35,7.35,0,0,1,.73-.88,7.62,7.62,0,0,1,1.4-1.2s.27-.16.64-.35.87-.45,1.39-.69c1-.48,2.1-.91,2.32-1a2.52,2.52,0,0,1,.72-.17c.11,0,3.22-1.21,3.36-1.22a6.83,6.83,0,0,1,2-.39,1.09,1.09,0,0,0,.4-.07,33.75,33.75,0,0,1,3.43-.73c.59-.11,1.16-.27,1.74-.4.11,0,.22,0,.33,0a2.71,2.71,0,0,0,.4,0c1.38-.33,2.78-.49,4.14-.86.31-.09,1.88-.11,2.24-.21C262.81,164.92,263.55,165.2,263.72,165.1Z"/><path class="cls-1" d="M233.37,177.18a.23.23,0,0,1-.2,0,.36.36,0,0,1-.14-.12,4,4,0,0,0-.52-.55c-.17-.15-.46-.66-.31-.81a1.92,1.92,0,0,1,.5-.39,2.94,2.94,0,0,1,.61-.22,4.08,4.08,0,0,1,.76.06,5.72,5.72,0,0,1,1.26.46,10.32,10.32,0,0,1,2,1.39,9.22,9.22,0,0,1,1.76,2.15,19.61,19.61,0,0,1,2.23,5,7.07,7.07,0,0,1,.21,1.22,32.2,32.2,0,0,1,.09,4.29,2.61,2.61,0,0,0,0,.74,6.34,6.34,0,0,1-.55,2.39,8.4,8.4,0,0,1-1.33,2.24,11.85,11.85,0,0,1-3.19,2.24,1.07,1.07,0,0,1-.51.17,2.75,2.75,0,0,0-1.1.29,6,6,0,0,1-1.48.39,3,3,0,0,1-.78-.07c-.24,0-.22-.42-.16-.48s0-.3-.09-.44a.53.53,0,0,1-.05-.15,10.69,10.69,0,0,1,1.17-.8l.78-.57c.22-.16.37-.31.43-.34l.5-.31a9.64,9.64,0,0,0,1-.79,5.7,5.7,0,0,0,1.19-1.56,5.07,5.07,0,0,1,.35-.46,4.5,4.5,0,0,0,.19-.42c.08-.25.18-.57.26-.91.14-.67.16-1.37.18-1.42,0-.27,0-.55.05-.83a2.57,2.57,0,0,1,.13-.86.87.87,0,0,0,0-.36,21.93,21.93,0,0,0-.54-3,10,10,0,0,0-.57-1.49,1.37,1.37,0,0,1-.07-.29,2.06,2.06,0,0,0-.12-.35,11.41,11.41,0,0,0-2.06-3.13c-.18-.21-.95-1.27-1.22-1.34S233.51,177.12,233.37,177.18Z"/><path class="cls-1" d="M154.27,186.15a79.48,79.48,0,0,1,5.46,10.8c.42,1.07-.35,1.42-1.23.37s-1.73-2-2.53-3.14l-1.22-1.63-1.15-1.7a72,72,0,0,1-6.92-14.32,62.13,62.13,0,0,1-2.87-11.79c-.12-1-.22-1.89-.33-2.79s-.09-1.76-.13-2.57c0-.41,0-.8,0-1.19s0-.75,0-1.1c0-.71,0-1.36.05-1.93A47.25,47.25,0,0,1,145.94,142a55.61,55.61,0,0,1,2.44-6.19c.48-1,.91-2,1.42-3l1.68-2.91c.29-.49.56-1,.86-1.47l1-1.4c.67-.93,1.31-1.88,2-2.78a50.78,50.78,0,0,1,4.7-5l1.27-1.18.64-.58.69-.51,2.78-2.07c1-.64,2-1.19,3-1.79.5-.28,1-.6,1.51-.85l1.57-.72,1.58-.71a11.6,11.6,0,0,1,1.6-.64l3.28-1.08c1.09-.35,2.23-.53,3.34-.8l1.68-.37c.57-.1,1.13-.15,1.7-.23,1.13-.14,2.27-.29,3.4-.41l3.41-.12c.57,0,1.14-.05,1.71,0l1.69.08,3.4.18c2,.28,4,.47,5.94.86l2.93.63c1,.21,2,.43,2.83.66a29.35,29.35,0,0,0,4.52.78,10.82,10.82,0,0,0,4.1-.45,28.66,28.66,0,0,0,4.21-1.88l4.41-2.32c5.84-3,11.67-6.42,18.14-8.83a66.1,66.1,0,0,1,6.66-2c.45-.11,1.41-.28,2.78-.53.68-.13,1.46-.19,2.33-.31s1.81-.22,2.83-.27a74.46,74.46,0,0,1,14.36.36,64.23,64.23,0,0,1,14.28,3.38c1,.4,1.95.71,2.79,1.12l2.3,1.09c1.36.68,2.31,1.31,2.85,1.61a18.8,18.8,0,0,1,1.91,1.29c.62.46,1.26.89,1.86,1.38l1.74,1.54c.29.27.59.51.86.79l.79.87a26.43,26.43,0,0,1,5.17,7.78,37.13,37.13,0,0,1,2.78,17.93,26.92,26.92,0,0,1-.73,5.07,70.93,70.93,0,0,1-3.51,10.42,34.77,34.77,0,0,1-9.15,12.27,24,24,0,0,1-6.51,3.78c-2.11.81-1.18-.18-.52-.55,1.95-1.09.2-.53-.07-.65-.09,0-.21-.09-.14-.18s.44-.21,1.1-.64l1.19-.73c.43-.32.93-.67,1.47-1.05a30.45,30.45,0,0,0,6.6-7.21,37.58,37.58,0,0,0,4.42-9.3,46.72,46.72,0,0,0,1.47-5.82,39.9,39.9,0,0,0,.74-6.67,34,34,0,0,0-2.4-13.92,22.75,22.75,0,0,0-4-6.45l-1.27-1.34c-.21-.22-.4-.45-.63-.65l-.68-.57-1.32-1.12c-.42-.37-.92-.64-1.35-1a39,39,0,0,0-7.71-4.11c-1.12-.38-2.2-.87-3.34-1.23s-2.25-.8-3.41-1.08c-.28-.06-2.43-.65-5.6-1.14a74.19,74.19,0,0,0-11.55-.81,64.14,64.14,0,0,0-11.49,1.12,39.42,39.42,0,0,0-5.44,1.5c-6.25,2.11-12.14,5.65-18.41,8.61-1.23.57-2.44,1.24-3.66,1.9s-2.66,1.44-4.15,2.09a15.65,15.65,0,0,1-5,1.33,19.83,19.83,0,0,1-5-.26c-1.56-.24-3.1-.64-4.52-.94a63.71,63.71,0,0,0-17.08-1.82,43.62,43.62,0,0,0-16.81,3.94l-1.44.62c-.46.23-.91.49-1.36.74a24.8,24.8,0,0,0-3.35,2,45,45,0,0,0-13.31,15.53c-.82,1.53-1.49,3.14-2.24,4.71s-1.21,3.27-1.82,4.9a43.74,43.74,0,0,0-2,10.1c-.06.4-.09,1-.12,1.7s-.1,1.59-.11,2.55,0,2,.05,3.14.19,2.26.3,3.42.33,2.32.52,3.44.48,2.17.69,3.16c.55,1.93,1,3.53,1.34,4.39.18.49.43,1.27.71,2.19s.69,2,1.05,3A36.69,36.69,0,0,0,154.27,186.15Z"/><path class="cls-1" d="M248.1,159.74c-2.44-.88-4.87-1.73-7.33-2.47-.9-.26-1.81-.45-2.71-.69s-1.58-.42-2.37-.62a9.14,9.14,0,0,0-2.17-.3,8.48,8.48,0,0,0-4.22,1.13,8,8,0,0,0-2.8,2.82c-.24.39-.46.77-.68,1.19a14,14,0,0,1-.78,1.3,11.15,11.15,0,0,1-2,2.17c-.95.78-2-2.25-.81-3.82.26-.36.47-.66.7-1s.52-.86.81-1.29l.45-.63.53-.68a12.88,12.88,0,0,1,1.22-1.23,10.71,10.71,0,0,1,6.23-2.6,14.17,14.17,0,0,1,4,.25c1.21.24,2.41.49,3.58.8,2.56.71,5.07,1.54,7.57,2.39l4.58,1.59c2.32.8,4.62,1.64,6.94,2.34,1.8.54,3.62.89,5.43,1.29.4.09.8.14,1.2.25,1.47.37,1.88.68,2,1.52a5.73,5.73,0,0,1,.07.58c0,.62-.75.94-1.89.81a55.73,55.73,0,0,1-10.16-2.48c-2.49-.81-5-1.69-7.45-2.51Z"/><path class="cls-1" d="M262,212.19a10,10,0,0,1,0-2.44,9.8,9.8,0,0,1,.48-2.16.45.45,0,0,1,.88.07,27.63,27.63,0,0,1,.65,3,50,50,0,0,1,.21,6,77.81,77.81,0,0,1-.59,8.07,68.5,68.5,0,0,1-1.93,9.72,89.28,89.28,0,0,1-7.36,18.76,42.11,42.11,0,0,1-2.35,3.85,56,56,0,0,1-4.79,6.14,24.82,24.82,0,0,1-6.15,5.13,10.58,10.58,0,0,1-1.26.63l-.65.29-.7.25a23.25,23.25,0,0,1-8.66,1,26.91,26.91,0,0,1-8.78-2.11,41.87,41.87,0,0,1-11.25-7.64,11.47,11.47,0,0,1-1.35-1.35c-.82-1.1-1.8-2.05-2.73-3.07a52.63,52.63,0,0,1-3.6-4.45,25.53,25.53,0,0,1-1.44-2.38c-.39-.64.12-.6.35-.38.6.6.33-.05.4-.21s.06-.12.11-.11.5.53,1.19,1.31,1.61,1.81,2.59,2.82c2,2,4.16,4,4.58,4.37.05.05.8.75,1.95,1.72a42.83,42.83,0,0,0,4.44,3.28,34.75,34.75,0,0,0,5.06,2.71c1.52.64,2.72,1,3.12,1.12.86.21,1.69.51,2.56.71a21.57,21.57,0,0,0,6.29.28l1.14-.12,1.09-.21a16.16,16.16,0,0,0,1.93-.46l.41-.11.19-.05h0l-.09,0H238l.07,0,.54-.24a3.76,3.76,0,0,0,.55-.27,26,26,0,0,0,5.66-4.44,13.35,13.35,0,0,0,1-1.11,63.12,63.12,0,0,0,7-11.06c1-2,1.9-4.1,2.71-6.2l.48-1.13c.2-.47.4-1,.57-1.43a82,82,0,0,0,4-15.54c.09-.61.42-2.36.66-4.14s.41-3.6.43-4.31c0-.4.12-1.24.23-2.08A14.41,14.41,0,0,0,262,212.19Z"/><path class="cls-1" d="M268.82,172.09a5.6,5.6,0,0,1,2.43-1.54,5.93,5.93,0,0,1,2.39-.24,6.43,6.43,0,0,1,3.62,1.67,1.28,1.28,0,0,1-.49,2,9.48,9.48,0,0,0-3.7,1.18,2.49,2.49,0,0,0-1.06.9,2.8,2.8,0,0,0-.3,1.25,7.15,7.15,0,0,0,.34,2.25,15.45,15.45,0,0,0,2.72,5,13.89,13.89,0,0,0,3.23,3,8.74,8.74,0,0,0,2.33,1.11,3.61,3.61,0,0,0,1.79.09,3.38,3.38,0,0,0,1.5-.84,8.19,8.19,0,0,0,1.6-2,16,16,0,0,0,1.35-2.83,10,10,0,0,0,.44-1.42l.18-.69.07-.68a9.29,9.29,0,0,0,.06-1.28,8.26,8.26,0,0,0-.19-1.16,4.75,4.75,0,0,0-1-2,7.36,7.36,0,0,0-4.19-2.53,11.45,11.45,0,0,0-2.75-.25,10.42,10.42,0,0,0-2.73.48,11.4,11.4,0,0,0-4.19,2.4,12.17,12.17,0,0,0-3.52,8.3,11.41,11.41,0,0,0,2.72,8.53,6.6,6.6,0,0,0,2.35,1.82,18.5,18.5,0,0,0,3.19,1.34,13.34,13.34,0,0,0,2.8.44,8,8,0,0,0,2.78-.44,3.78,3.78,0,0,0,2.63-3,10.65,10.65,0,0,0,0-3.41,17.9,17.9,0,0,0-1.08-4.12,12.6,12.6,0,0,0-2-3.46,7.81,7.81,0,0,0-6.61-2.77c-.76.08-1.53.32-2.3.35a7.72,7.72,0,0,0-4.82,2.35,16.82,16.82,0,0,0-4.5,6.36A24.88,24.88,0,0,0,262.5,192c-.32,1.21-1.16.55-1.23.06-.19-1.37-.67-.32-1-.19-.13,0-.3.09-.39,0a10,10,0,0,1,.06-3.07,19.07,19.07,0,0,1,2.11-6.54,20.2,20.2,0,0,1,4.7-5.74,16.33,16.33,0,0,1,3.8-2.39,17,17,0,0,1,5.06-1.29,14.32,14.32,0,0,1,10.88,3.58,17.56,17.56,0,0,1,3.8,4.8,25.85,25.85,0,0,1,1.22,2.49c.3.83.64,1.58.85,2.37a18.7,18.7,0,0,1,.95,6.81,11.17,11.17,0,0,1-2.13,5.94c-.08.1-.42.57-1,1.28-.3.34-.7.71-1.15,1.13a15,15,0,0,1-1.61,1.16A14.46,14.46,0,0,1,283,204.1a17.3,17.3,0,0,1-4.93.22,19.79,19.79,0,0,1-8.48-2.94,17.67,17.67,0,0,1-3.52-2.89,18.81,18.81,0,0,1-4.05-6.79,16.54,16.54,0,0,1-.7-7.6c.17-.95.18-1.95.36-2.91a18.87,18.87,0,0,1,6-11.49,17.76,17.76,0,0,1,12.4-4.3,18.11,18.11,0,0,1,6.65,1.5,14.31,14.31,0,0,1,5.63,4.43,11,11,0,0,1,1.29,2.36c.19.52.39,1.05.54,1.59l.37,1.62a16.14,16.14,0,0,1-.73,8,22.49,22.49,0,0,1-1.46,3.44,19.14,19.14,0,0,1-2.09,3.27,13.61,13.61,0,0,1-3.16,2.9,10.47,10.47,0,0,1-4.44,1.58,11.26,11.26,0,0,1-4.56-.47,15.06,15.06,0,0,1-3.76-1.81,14.1,14.1,0,0,1-2.46-2.08A22.31,22.31,0,0,1,269,188a23.27,23.27,0,0,1-2.1-4.3,24.43,24.43,0,0,1-.93-3.26,9.46,9.46,0,0,1,.33-4.36,9,9,0,0,1,1.22-2.47A13.56,13.56,0,0,1,268.82,172.09Z"/><path class="cls-1" d="M237.37,202.7c-.37-.46-.26-1,.13-1.66.12-.21.67-.43.81-.31a6.51,6.51,0,0,1,.76.72c.14.16,1.61,3,2.13,4a30.94,30.94,0,0,1,1.32,2.87l1.2,2.91c.4,1,.81,2,1.19,3a9.76,9.76,0,0,1,.41,1.4c.36,1.64.83,3.24,1.14,5a4.46,4.46,0,0,0,.19.88,4.54,4.54,0,0,1,.11,1.12,5.4,5.4,0,0,1-.48,2.35,3.68,3.68,0,0,1-1,1.3,3.59,3.59,0,0,1-.69.43c-.23.1-.45.15-.66.22a3.75,3.75,0,0,1-1.63.08,6.76,6.76,0,0,1-2.5-1.09,12.31,12.31,0,0,1-1.83-1.48,1.32,1.32,0,0,1-.43-.48,3.24,3.24,0,0,0-.85-1.08,11.77,11.77,0,0,1-1.18-1.46,3.94,3.94,0,0,1-.36-.9c-.09-.27.29-.38.38-.34.26.14.26-.14.36-.25a.63.63,0,0,1,.13-.11s.71.53,1.44,1l1.64,1.12a6.37,6.37,0,0,0,.62.47,10.66,10.66,0,0,0,1.38.86,5,5,0,0,0,1.35.46,1.39,1.39,0,0,0,.54,0c.08-.06.2,0,.25,0l.06-.1a1.93,1.93,0,0,0,.13-.69,8.27,8.27,0,0,0-.16-1.72,19.84,19.84,0,0,1-.33-2.28,1.88,1.88,0,0,0-.1-.47c-.42-1.3-.81-2.65-1.27-4-.24-.68-.54-1.34-.82-2a2.48,2.48,0,0,1-.1-.39c-.05-.17-.09-.34-.15-.51-.69-1.59-1.24-3.23-2-4.79-.18-.36-.66-2.22-.87-2.63C237.48,203.82,237.52,202.89,237.37,202.7Z"/><path class="cls-1" d="M160.39,166c.38.34.19.85-.32,1.49-.16.2-.8.49-.95.4a5.6,5.6,0,0,1-.8-.54,15.44,15.44,0,0,1-.89-1.42c-.39-.74-.85-1.57-1.06-2a12.26,12.26,0,0,1-.9-2.66,23.32,23.32,0,0,1-.65-5.81,8.24,8.24,0,0,1,.17-1.31c.19-.73.37-1.46.53-2.19s.34-1.46.59-2.16a1.86,1.86,0,0,0,.17-.73,2.9,2.9,0,0,1,.23-.86c.17-.41.4-.92.64-1.43a13.81,13.81,0,0,1,1.35-2.13,38.19,38.19,0,0,1,2.74-2.67c.14-.11.24-.27.44-.3a1.83,1.83,0,0,0,1-.63,7.85,7.85,0,0,1,1.26-1,2.82,2.82,0,0,1,.79-.26c.24-.06.44.36.42.44-.08.26.19.29.33.41a.58.58,0,0,1,.13.15,7.85,7.85,0,0,1-.76,1.35c-.41.65-.77,1.36-.89,1.46l-.44.52-.85,1.16a16.62,16.62,0,0,0-1.23,2,2.28,2.28,0,0,1-.42.56,9.72,9.72,0,0,0-.66,1.51,16.28,16.28,0,0,0-.5,1.55c-.28.57-.25,1.21-.68,1.75a.6.6,0,0,0-.1.36c-.14,1.07-.34,2.14-.38,3.24a10.76,10.76,0,0,0,.12,1.69,1.62,1.62,0,0,1,0,.31,2.54,2.54,0,0,0,0,.39,17.39,17.39,0,0,0,1,4c.11.3.37,1.84.54,2.18C160.38,165.05,160.24,165.86,160.39,166Z"/><path class="cls-1" d="M322,88c11.5,15,16.15,31,16.14,49.84,0,2.26,6.08,4.37,6.08,1.77,0-19.58-5.07-36.31-17-51.92-1.32-1.73-7.44-2.62-5.2.31Z"/><path class="cls-1" d="M351.16,125.25c9-6.94,19-15.43,31.21-13.7,2.67.38,6-3.37,2.08-3.93-14.39-2.05-26.27,7-37.05,15.26-3.12,2.39,1.62,4,3.76,2.37Z"/><path class="cls-1" d="M263,209.17s11.17-.34,13.35-1.87-.35,7.7-5,13.38-4.63,10.77-5.3,13.91c-1.12,5.25-5.27,1.16-5.27,1.16S264.91,217.49,263,209.17Z"/><path class="cls-1" d="M134.67,256.93c1,7,3.11,13.75,4.26,20.71s2.24,16.39-3.79,21.53c-2.24,1.91,1.21,3.49,2.9,2.05,12.72-10.85,3-32,1-45.46-.31-2-4.66-.95-4.35,1.17Z"/><path class="cls-1" d="M240.5,242.56a4.85,4.85,0,0,1-1.21,1.87,5.92,5.92,0,0,1-1.48,1,4.67,4.67,0,0,1-1.33.56,4.1,4.1,0,0,1-2.61-.51,3.88,3.88,0,0,1-1.56-1.75,6.53,6.53,0,0,1-.59-1.78c-.14-.75-.17-1.73.61-2.11.24-.13,1.13.51,2,1.11a12.33,12.33,0,0,0,1.28.74l.25.12-.06,0-.1,0a.63.63,0,0,0-.4,0,.23.23,0,0,0-.12.11c-.06.08.05.09-.12-.32-.09-.21,0-.09,0-.1a.64.64,0,0,1,.14,0l.16,0h.11a1.58,1.58,0,0,0,.29.08.32.32,0,0,0,.18,0s0,0,.07,0,.07-.14.07-.12a1.27,1.27,0,0,0,.5.72l.17.16.07,0c.08.09-.26-.06-1.58-.62l-.9-.37c-1-.4-1.78-.95-1.82-1.54a2.75,2.75,0,0,1,.32-1.35,3.54,3.54,0,0,1,1.3-1.28,3.63,3.63,0,0,1,1-.42,4.05,4.05,0,0,1,1.16-.13,4.35,4.35,0,0,1,2.23.66,4.8,4.8,0,0,1,2.06,5.39Z"/></g></svg>