<svg id="Layer_1" data-name="Layer 1" xmlns="http://www.w3.org/2000/svg" width="520" height="520" viewBox="0 0 520 520"><defs><style>.cls-1{fill:#221f1f;}</style></defs><title>Notioly v2</title><g id="_26.Nutritionist" data-name="26.Nutritionist"><path class="cls-1" d="M286.94,226.6c4.64-1.36,8.45-5.93,11.46-9.44,1-1.12-1.25-1.49-1.94-.69-2.57,3-6,7.37-9.95,8.54-1.42.41-1,2,.43,1.59Z"/><path class="cls-1" d="M288.36,227.6c4.64-1.35,8.45-5.92,11.47-9.43.94-1.1-1.27-1.41-1.93-.64-2.57,3-6,7.39-9.95,8.55-1.41.41-1,1.94.41,1.52Z"/><path class="cls-1" d="M284,268.43a21,21,0,0,0,8.23,2.21c.65,0,1.61-.18,1.89-.87a.85.85,0,0,0-.87-1.16,19.53,19.53,0,0,1-7.57-2.07c-1.14-.54-3.33,1.11-1.68,1.89Z"/><path class="cls-1" d="M282.45,269.13a21.27,21.27,0,0,0,8.33,2.25,3.28,3.28,0,0,0,2.05-.55c.35-.32.47-.67-.19-.69a19.26,19.26,0,0,1-7.47-2,2.53,2.53,0,0,0-1.87.14c-.12,0-1.33.64-.85.87Z"/><path class="cls-1" d="M326.51,102.76a9.06,9.06,0,0,1,.52-1c.37-.6.84-1.12,1.3-1a1,1,0,0,1,.57,1,2.9,2.9,0,0,1-1.37,1.76c-.54.42-1.44.41-1.25-.48a4.22,4.22,0,0,1,1.16-1.87"/><path class="cls-1" d="M328,102.35s.1,0,.2-.06,0-.09.06-.14a.44.44,0,0,0-.06-.47.25.25,0,0,0-.31-.06.61.61,0,0,0-.27.34,2,2,0,0,1-.51,1c-.2.17-1.5-.69-1.27-1.19.1-.2.19-.4.31-.6a4.27,4.27,0,0,1,.71-.85,1.55,1.55,0,0,1,1.82-.26l0,0a1.92,1.92,0,0,1,.92,2,2.66,2.66,0,0,1-.81,1.36,4.25,4.25,0,0,1-1.12.77,2,2,0,0,1-1.06.17.89.89,0,0,1-.7-.46,1.55,1.55,0,0,1-.08-.85,4.32,4.32,0,0,1,.43-1.43,3.13,3.13,0,0,1,.19-.36c.18-.23.26-.29.37-.3a.83.83,0,0,1,.42.18c.08.06.17.11.24.17a.74.74,0,0,1,.3.71c.08.36.26.21.23.23s0,.07,0,.08Z"/><path class="cls-1" d="M387.89,102.89c-8.51,16.4,4.44,30.27,2.16,39.45C387.9,151,378.21,156.57,369.42,158c-11.73,1.92-28.61-4.39-34.93-15.31,14.14-2.8,20.85-25.56,24.39-30.42,4.7,3,10.82-.27,11.56-5.8s-3.76-8-9.08-6.26c.53-5.76-1.85-15.63-7.54-16.68-12.73-2.36-20.4,5.28-33.24,2.92a95,95,0,0,0-5.09,27.08c-.49,9.15.45,24.33,10.18,28.66-7.56,6.68-21.53,10.27-30.73,5.09-9.38-5.28-7.37-15.62-2-23.19,8.49-12,20.26-23.08,21.38-38.35-3.93-1-8.45-2.74-9.57-6.58-3.52-12.09,20.06-52.94,64.91-10.56C402.27,67.29,391.28,96.37,387.89,102.89Z"/><path class="cls-1" d="M290.3,139.51a9.31,9.31,0,0,0,2.14,3.92,13.17,13.17,0,0,0,1.68,1.57c.32.23.66.43,1,.65a6.44,6.44,0,0,0,1,.59,19.57,19.57,0,0,0,9.38,2.06,30,30,0,0,0,9.74-1.76c.78-.27,1.56-.56,2.32-.91s1.5-.71,2.24-1.08,1.44-.83,2.14-1.26l.95-.66a1.41,1.41,0,0,0,.18-.14s.17-.09.13-.13l-.19-.11a.53.53,0,0,1-.1-.06l0,0,0,0-.15-.11-.28-.21a12.67,12.67,0,0,1-1.12-.91,16.46,16.46,0,0,1-1.9-2.11,12.46,12.46,0,0,1-.81-1.14l-.71-1.21a31.36,31.36,0,0,1-3.23-10.33,60.92,60.92,0,0,1-.59-10.61c.13-3.54.4-7,.84-10.5a93.72,93.72,0,0,1,3.21-15l.55-1.83.83-2.62.13-.4s0-.08,0-.08h.11l.2,0,.83.12,1.47.2a13.69,13.69,0,0,0,1.81.17,30.58,30.58,0,0,0,7.25-.51c3.37-.62,6.72-1.67,10.26-2.39a38.77,38.77,0,0,1,5.4-.75,28.81,28.81,0,0,1,5.49.22l1.36.2a10.81,10.81,0,0,1,1.51.45,7.85,7.85,0,0,1,2.51,1.77,14.16,14.16,0,0,1,3,4.88,25,25,0,0,1,1.37,5.35c.13.9.22,1.82.26,2.74a9.42,9.42,0,0,1,0,1.28,4.84,4.84,0,0,1,.71-.15,10.11,10.11,0,0,1,2.27,0,6.8,6.8,0,0,1,4.28,1.91,6.41,6.41,0,0,1,1.79,4.36,9.3,9.3,0,0,1-.92,4.43,9,9,0,0,1-7.16,5,8.43,8.43,0,0,1-2.3-.14,7.14,7.14,0,0,1-1.12-.31l-.39-.16a1,1,0,0,1-.18-.09c-.27-.29-.38.13-.53.32l-.17.32-.23.43-.46.89a152.64,152.64,0,0,1-7.48,14.47,45.15,45.15,0,0,1-4.93,6.62,24.15,24.15,0,0,1-6.56,5.21c-.45.25-.94.44-1.42.65a4.59,4.59,0,0,1-.73.28l-.4.14c-.23.07-.46.11-.69.17a4,4,0,0,0,.36.6l.19.3.05.08.11.13.23.28.9,1.11c.62.73,1.33,1.39,2,2.08a36.25,36.25,0,0,0,9.73,6.24,40.33,40.33,0,0,0,11.15,3.15,29.11,29.11,0,0,0,11.39-.63,28,28,0,0,0,12.71-7,17.12,17.12,0,0,0,3.93-5.94c.17-.56.36-1.13.5-1.69a9.4,9.4,0,0,0,.19-1.69,16,16,0,0,0-.37-3.54c-1.05-4.77-3.09-9.51-4.13-14.57a33.46,33.46,0,0,1-.79-7.74,25.53,25.53,0,0,1,1.34-7.7c.14-.38.27-.73.38-1.06l.4-.88a8.94,8.94,0,0,1,.67-1.27c.39-.63.62-.88.71-.78s-.33,1.71-.88,4.28a29,29,0,0,0-.28,10.62,47.61,47.61,0,0,0,1.65,7c.75,2.47,1.69,5.07,2.56,7.91a24.94,24.94,0,0,1,1.37,8.14c0,.37-.06.74-.11,1.12s-.13.76-.23,1.11a20.09,20.09,0,0,1-.67,2,15.56,15.56,0,0,1-.92,1.93l-.52.93-.6.87a23.17,23.17,0,0,1-5.94,5.75A32.37,32.37,0,0,1,375.7,158a31.33,31.33,0,0,1-7.92,1.81,36.59,36.59,0,0,1-8.11-.28,43.85,43.85,0,0,1-15.1-5.27,39.33,39.33,0,0,1-6.53-4.78,31.78,31.78,0,0,1-2.77-3l-.64-.8-.08-.11-.13-.19-.25-.39-.51-.78-1-1.55-.5-.77c-.2-.17.12-.15.22-.2l.45-.12,1.78-.49c.31-.08.64-.14.93-.24l.69-.24a14.32,14.32,0,0,0,1.62-.69,18.29,18.29,0,0,0,3-1.92,29.23,29.23,0,0,0,5.11-5.3,76,76,0,0,0,7.67-13.15l1.69-3.51.88-1.77.46-.88.27-.48a8.12,8.12,0,0,1,.45-.74c.3-.48.62-1,.94-1.42.06-.2.22,0,.34,0l.38.19.75.37a8.08,8.08,0,0,0,.79.37l.37.15a6.69,6.69,0,0,0,.77.2,5.8,5.8,0,0,0,3.16-.28,7.3,7.3,0,0,0,2-1.16,7.6,7.6,0,0,0,1.5-1.79,7,7,0,0,0,.81-2.19,9.22,9.22,0,0,0,.13-1.19,6.16,6.16,0,0,0-.09-1.15,3.83,3.83,0,0,0-2.68-3.14,6.72,6.72,0,0,0-2.35-.3l-.62.05-.18,0-.3.07-.6.14c-.8.16-1.58.41-2.38.61a25.37,25.37,0,0,0-.33-7.91,18.57,18.57,0,0,0-2.17-5.9,8.1,8.1,0,0,0-1.9-2.26c-.19-.14-.37-.29-.57-.42l-.6-.31a3.69,3.69,0,0,0-.64-.21l-.32-.09-.41-.06a26.75,26.75,0,0,0-6.45-.28c-4.33.31-8.59,1.72-13.05,2.73a39.31,39.31,0,0,1-6.88,1l-1.75,0-1.75-.1a6.4,6.4,0,0,1-.87-.08l-.7-.1c-.18,0-.44-.16-.44.11l-.61,1.93L320,92.27c-.48,1.67-.9,3.35-1.28,5A86,86,0,0,0,317,107.52c-.69,6.89-1,13.87.42,20.57a23.26,23.26,0,0,0,3.81,9.22,8.65,8.65,0,0,0,.76,1l.85.87a6.87,6.87,0,0,0,.94.77l.48.37a7.33,7.33,0,0,0,.92.56l1.78,1,.22.12.11.07.05,0-.05,0-.4.33-.8.65c-.54.42-1.06.88-1.61,1.27l-1.19.83a33.31,33.31,0,0,1-20.55,5.35,23.46,23.46,0,0,1-6.51-1.62,16.16,16.16,0,0,1-5.55-3.91,12.12,12.12,0,0,1-2.94-6.18,16.25,16.25,0,0,1,.43-6.74,25,25,0,0,1,2.59-6.14,54.68,54.68,0,0,1,3.74-5.38c2.6-3.45,5.32-6.78,7.89-10.2,3.88-5.18,7.47-10.64,9.53-16.71l.68-2.3c.2-.77.33-1.56.5-2.33a8.08,8.08,0,0,0,.2-1.18l.12-1,0-.34c0-.1.07-.25-.09-.24l-.71-.2a21.29,21.29,0,0,1-4.63-2,8.86,8.86,0,0,1-3.64-3.78,10.89,10.89,0,0,1-.67-5.16,23.26,23.26,0,0,1,1-4.93,31.73,31.73,0,0,1,4.57-8.84A29.37,29.37,0,0,1,325.3,50.1,31.28,31.28,0,0,1,340.53,50a51.55,51.55,0,0,1,14,5.81,90.28,90.28,0,0,1,12.15,8.82l2.8,2.5.51.45.07.06h.31l1.9,0a36.4,36.4,0,0,1,7.61.77,21.55,21.55,0,0,1,6.37,2.47,14.48,14.48,0,0,1,4.94,5,16.68,16.68,0,0,1,2,5.63,22.39,22.39,0,0,1,.3,4.91,31.77,31.77,0,0,1-1.13,7.14,25.62,25.62,0,0,1-3.07,7.23,16.81,16.81,0,0,1-1.38,1.93c-.59.57-.13-.62.8-3.4.45-1.39,1-3.18,1.51-5.36a36.57,36.57,0,0,0,1-7.62,19.67,19.67,0,0,0-.77-6.23,12.84,12.84,0,0,0-3.08-5.22c-2.87-2.92-7.17-4.21-11.49-4.61-1.07-.16-2.19-.12-3.28-.19L371,70l-1,0-.81,0-.61-.55-2.69-2.39L364.53,66,363.21,65l-2.64-2.13-2.76-2c-.91-.68-1.87-1.27-2.83-1.87s-1.89-1.24-2.9-1.75a45.29,45.29,0,0,0-12.46-5,29.3,29.3,0,0,0-13.14,0c-8.57,2.1-15.68,9-18.91,17.28a22.64,22.64,0,0,0-1.32,4.69,10.75,10.75,0,0,0,.07,4.5,5.74,5.74,0,0,0,2.5,3.11,17.28,17.28,0,0,0,4.36,1.93l2.21.63.63.18.08,0s0,0,0,.07l0,.17,0,.32-.15,1.3-.22,1.81a10.44,10.44,0,0,1-.23,1.36A37.07,37.07,0,0,1,314,94.89a48.85,48.85,0,0,1-4.74,9.75c-3.79,6.1-8.39,11.49-12.59,17-.52.69-1.05,1.38-1.55,2.08s-1,1.4-1.47,2.08a24.1,24.1,0,0,0-2.32,4.37,14.83,14.83,0,0,0-1,9.26Z"/><path class="cls-1" d="M332,242.12A25.89,25.89,0,0,1,321.81,240a38.43,38.43,0,0,1-9.64-5.93,73.2,73.2,0,0,1-9.77-10c-1.48-1.79-2.87-3.65-4.23-5.54-.68-.93-1.32-1.9-2-2.85l-.65-1s-.1-.15-.13-.15a1,1,0,0,1-.07.15,3.64,3.64,0,0,1-.28.42,14.55,14.55,0,0,1-1.63,1.94,22.53,22.53,0,0,1-3.86,3.07,35.34,35.34,0,0,1-4.26,2.33c-.73.33-1.47.65-2.22.95l-.72.27,3.31,4.35c1.47,1.89,2.95,3.75,4.48,5.58a133.26,133.26,0,0,0,9.63,10.51A74.24,74.24,0,0,0,312.17,254a49.17,49.17,0,0,0,7,3.61,38.48,38.48,0,0,0,7.48,2.22,32.6,32.6,0,0,0,7.76.52,12.42,12.42,0,0,0,6.89-2.4,23.79,23.79,0,0,0,5.33-5.49c1.56-2.12,2.84-4.39,4.26-6.75,2.36-4,4.78-7.92,6.72-12a42.14,42.14,0,0,0,2.45-6.32l.94-3.29c.3-1.1.53-2.23.8-3.34a81.69,81.69,0,0,0,1.91-13.56,69.16,69.16,0,0,0-.43-13.65c-.08-.57-.13-1.13-.22-1.7l-.32-1.67a34,34,0,0,0-.71-3.33l-.89-3.28-1.15-3.2a44.48,44.48,0,0,0-6.75-11.66A38.5,38.5,0,0,0,343,160.05a40,40,0,0,0-6.12-2.84c-1.05-.39-2.13-.74-3.21-1.05l-1.62-.38a11.39,11.39,0,0,0-1.63-.3,14.36,14.36,0,0,0-7.49.65,13.48,13.48,0,0,0-5.88,4.61,27.77,27.77,0,0,0-3.66,6.95,57.48,57.48,0,0,0-2.28,7.71c-2.3,10.13-2.88,20.6-4.75,31a43.21,43.21,0,0,1-1.21,5.25,9.87,9.87,0,0,1-1.85,3.77c-.38.29-.39-.37,0-2,.12-.75.25-1.58.44-2.37a64.67,64.67,0,0,0,1.72-11.25c.33-3.69.59-7.45,1.19-11.71.56-3.94,1.16-7.88,2-11.8a58.36,58.36,0,0,1,3.5-11.6,29.13,29.13,0,0,1,3-5.4,18.56,18.56,0,0,1,4.65-4.35,15.68,15.68,0,0,1,6.1-2.07,12.36,12.36,0,0,1,1.6-.09,12,12,0,0,1,1.59,0l1.58.16c.26,0,.52,0,.78.09l.76.17c.81.19,1.64.34,2.42.57s1.57.47,2.34.74a40.79,40.79,0,0,1,4.54,1.86,39.29,39.29,0,0,1,4.3,2.4c.68.44,1.34,1,2,1.43s1.36.93,2,1.49a43.15,43.15,0,0,1,8.23,9.41,53.43,53.43,0,0,1,5.16,11.31c.35,1,.65,2.37,1.12,4,.25.83.37,1.77.58,2.77s.45,2.07.55,3.23a74.26,74.26,0,0,1,.38,16.93,87.75,87.75,0,0,1-4.48,21.21A72.82,72.82,0,0,1,356,241.49c-1,1.76-2.08,3.53-3.14,5.31s-2.09,3.57-3.26,5.35a35.1,35.1,0,0,1-4,5.09,18.82,18.82,0,0,1-5.33,4,12,12,0,0,1-1.57.65l-.8.27-.84.2a16,16,0,0,1-3.32.35,34.67,34.67,0,0,1-6.45-.38,40.81,40.81,0,0,1-12-3.88,58.37,58.37,0,0,1-10.17-6.49,107.33,107.33,0,0,1-15.33-15.12c-2.09-2.46-4-4.83-5.69-7l-2.43-3.18c-1.06-1.45-2.08-2.82-3-4.11l1.95-.59.9-.32.57-.21c.61-.24,1.2-.48,1.75-.72q1.65-.74,3-1.47a24.18,24.18,0,0,0,4.1-2.8,14.13,14.13,0,0,0,2.26-2.39l.19-.26.25-.38a9.11,9.11,0,0,0,.58-1.07c.34-.8.66-1.54,1-2.25.4.54.85,1.28,1.26,1.9l1.17,1.79c.44.69.9,1.34,1.34,2,.86,1.3,1.75,2.48,2.57,3.62,1.68,2.24,3.23,4.21,4.71,5.87a68.62,68.62,0,0,0,7.34,7.28c1,.8,1.83,1.44,2.52,2l1.77,1.22c.92.66,1.42.89,1.59,1,.82.5,1.63,1,2.52,1.48s1.78,1,2.8,1.41l1.56.7c.56.21,1.13.42,1.74.63A38.86,38.86,0,0,0,332,242.12Z"/><path class="cls-1" d="M332.91,239.94c5.78-8.66,12.4-19.63,12.72-30.28,0-.89-2.15-.45-2.17.27-.33,10.61-6.81,21.34-12.57,30-.55.82,1.62.64,2,0Z"/><path class="cls-1" d="M311.25,483.42h-2.39c0-3,.54-6.91-.3-9.77-3.8,1.14-7.65,4.3-11.25,6.12-2.69,1.36-7,4.16-10.19,3.63-4.37-.74,18.41-11.51,18.41-11.51,3.89-7.49-.6-79.67-1.6-95,4.2-.36,8.61-.91,13-1.55.29,23.91-1.36,48.08-3.37,71.89C312.94,454.82,311.09,478.82,311.25,483.42Z"/><path class="cls-1" d="M315.47,377.08s0-.1,0-.11h-.11l-2.29.25-5.26.6-2.22.25s-.15,0-.15,0v.22l.29,5.18q.58,10.51,1.08,21c.24,5.12.53,10.23.71,15.35.31,8.68.54,17.37.59,26.06,0,4.35,0,8.7-.14,13.06-.09,2.18-.17,4.36-.37,6.55-.09,1.1-.21,2.19-.38,3.3-.09.55-.17,1.1-.32,1.67-.08.29-.12.55-.23.85l-.45,1.13-2.15,1c-3.59,1.73-7.17,3.53-10.64,5.48l-1,.55-.62.37a13.89,13.89,0,0,0-1.16.79,2.79,2.79,0,0,0-.5.47c-.07.08-.15.2-.09.31a.45.45,0,0,0,.32.12,3.65,3.65,0,0,0,1.4-.17,7.77,7.77,0,0,0,1.11-.44l.52-.26,1.06-.56,2.29-1.24c.74-.39,1.46-.81,2.18-1.25,1.45-.88,2.88-1.85,4.4-2.74.75-.45,1.53-.88,2.34-1.27l.3-.15.37-.16a7.65,7.65,0,0,1,1-.38c.63-.23,1.27-.44,1.91-.65.18.61.33,1.24.46,1.86.05.33.12.64.16,1l.05.48,0,.33a24.93,24.93,0,0,1,0,2.59c0,.85-.08,1.68-.13,2.51l-.06.91,0,.3v.23h.07a4,4,0,0,1,.82.14c.37.06.57.15.61.25s-.05.22-.29.34a4.51,4.51,0,0,1-1.23.39c-.31.07-.69.13-1.15.19l-.17,0s0-.08,0-.11a2.93,2.93,0,0,0-.05-.29c0-.2-.06-.42-.09-.65s-.07-.49-.09-.75-.05-.49-.07-.75-.08-.85-.13-1.32c-.08-.91-.15-1.91-.26-2.94,0-.25-.07-.51-.1-.77l-.06-.38c0-.13,0-.05,0-.09s-.08-.07-.11-.06-.06.06-.06.08h0l-.07,0-.37.18-.74.38c-1.5.8-3,1.76-4.52,2.72-.77.48-1.56,1-2.38,1.43-.4.23-.84.46-1.24.67l-1.16.61-1.2.65-.61.32-.31.16-.57.28a18,18,0,0,1-4.53,1.62,6.86,6.86,0,0,1-3.08,0,2.33,2.33,0,0,1-1-.56,1.79,1.79,0,0,1-.38-.52,2.09,2.09,0,0,1-.18-.62,2.45,2.45,0,0,1,.72-1.89,17.11,17.11,0,0,1,3.5-2.65c.74-.45,1.51-.9,2.28-1.34l1.25-.7,2.41-1.29c1.61-.84,3.23-1.65,4.86-2.45l2.45-1.19,1.23-.59.61-.29.1,0v0a2.22,2.22,0,0,0,.13-.41c.08-.35.18-.68.25-1.05.13-.75.26-1.51.34-2.3.19-1.55.3-3.15.4-4.75.19-3.21.28-6.44.35-9.69.2-12.52-.4-25.59-.93-38.42q-.45-10.59-1-21.17l-.59-10.58-.36-6.06v-.26c0-.06,0-.06.07-.06h.13l.52-.06,1-.12,1.57-.19,2.62-.3,6.66-.76,1.24-.14.62-.08.31,0h.08s0,0,0,.06v6c0,4.36-.09,8.71-.2,13.06-.37,13.19-1.23,26.41-2.18,39.46-.73,10.15-1.47,20.08-2.07,30.1-.12,2.21-.25,4.37-.37,6.6-.5,8.24-.75,10.84-1.42,12.59a11,11,0,0,1-.44,1.17c-.24.41-.5-.24-.64-1.77a58.29,58.29,0,0,1-.08-6.93c.33-9,.9-18.2,1.6-27.55s1.43-18.78,2-28.25q.66-10.56,1-21.15c.11-3.53.21-7.07.26-10.6l.06-5.29v-4.66Z"/><path class="cls-1" d="M350.87,251.43c1,6.18.85,13.32.7,20.36-.13,5.89-.15,11.78.07,17.64s.83,11.71,1.47,17.57c1.33,11.71,3,23.41,4.65,35.09L360,357.16l1.17,7.63.28,1.84,0,.23v.05l-.06,0-.11,0-.45.11-.9.22-2.24.55-3.72.87q-7.44,1.71-14.94,3.22l-3.73.74-1.77.42c-.64.15-1.28.35-1.92.47-2.53.56-5.06,1-7.58,1.36-4.35.65-8.7,1.19-13.05,1.69l-6.54.7c-2.2.21-4.39.37-6.6.47a67.67,67.67,0,0,1-13.32-.46,26.76,26.76,0,0,1-3.35-.73l-.84-.27-1.31-.63-.33-.16-.08,0v-.26a5.94,5.94,0,0,1,0-.72c0-.45.07-1.07.12-1.24.38-2.19.79-4.33,1.19-6.48,3.28-17.18,6.55-34.34,9.57-51.55,1.79-10.17,3.53-20.35,5.07-30.55,1.48-9.77,2.81-19.56,3.81-29.36.18-1.65.27-3.39.48-4.94.47-4.14,1.15-5.1,1.4-2a13.15,13.15,0,0,1,.11,2.28c-.69,7.64-.64,13.81-1.77,21.85-2.11,14.82-4.37,29.64-6.88,44.42-1,5.9-2.09,11.81-3.2,17.69q-2.22,11.26-4.43,22.52c-.49,2.57-1.44,7.51-2.73,14.21-.14.81-.29,1.65-.44,2.52,0,.09-.1.24,0,.24l.13.05.61.19a28.21,28.21,0,0,0,5.73,1,87.18,87.18,0,0,0,13.5-.06c4.81-.35,10-1,15.26-1.62,2.66-.34,5.37-.71,8.1-1.13s5.51-.88,8.18-1.57c2.86-.75,5.67-1.2,8.51-1.82s5.7-1.21,8.56-1.86,5.73-1.31,8.59-2l.59-.14.1,0a.19.19,0,0,0,0-.1l-.25-1.63-.68-4.38c-3.55-23.34-6.8-46.19-8.16-63.7-.6-8.78-.43-16.14-.33-21.45s.3-8.57.32-9.15C350,261,350.3,257.33,350.87,251.43Z"/><path class="cls-1" d="M337.9,483.42c-.13.51-2.09,0-2.09,0V472.51c-2.69,2-14.52,10.56-19.66,10.91-5.82.39,17.38-13.14,17.38-13.14,3.21-7.7-8.46-78.86-11.28-95.66,4.37-.7,9.93-2.4,14-3.19C335.83,371.52,341.46,469,337.9,483.42Z"/><path class="cls-1" d="M334.78,373.79v-.35c0-.05,0-.11,0-.17h-.15l-.22,0-1.2.28-2.41.58c-1.61.39-3.23.79-4.88,1.15l-1.24.26-.51.1-.16,0h-.14v.06l0,.26.76,4.77,3,19.69c.78,5.19,1.61,10.38,2.33,15.57,1.24,9,2.41,18,3.39,27,.48,4.52.93,9,1.24,13.58.16,2.27.29,4.54.32,6.84,0,1.14,0,2.29-.05,3.46a15.72,15.72,0,0,1-.16,1.77c0,.3-.07.59-.14.9l-.36,1.21-1.23.72c-3.52,2.07-7,4.21-10.43,6.46l-1.26.86-.76.52c-.4.29-.79.58-1.15.88a6.11,6.11,0,0,0-.53.47c-.14.17-.37.34-.33.58s.47.09.7.06a4.23,4.23,0,0,0,.7-.18,9.74,9.74,0,0,0,1.1-.45c.17-.07.37-.18.57-.28l.3-.15.48-.27c1.49-.79,2.93-1.68,4.37-2.59s2.84-1.86,4.24-2.82l2.4-1.69,3.36-2.45,0,7.37-.1,5.41v.1l-.65-.83c.67.19,1.21.3,1.4.35l.05,0,0,0h0l0,.07c.1.2.1.24.17.29l0,0h0s0,0,0,0,0,0,0,0-.13.2-.31.27a4.23,4.23,0,0,1-1.67.2h-.23l-.09-.41a41,41,0,0,1-.71-4.55c-.1-.92-.2-1.93-.27-3,0-.18,0-.15,0-.17l0,0a.08.08,0,0,0,0-.05s-.05,0-.07,0-.06.11-.06.11l-2.05,1.43-2.28,1.52c-1.53,1-3.08,2-4.69,2.87-.39.24-.81.45-1.21.67l-.62.33c-.06,0-.29.15-.47.23l-.56.27a25.8,25.8,0,0,1-4.41,1.72l-.9.17-.45.08a1.22,1.22,0,0,1-.4,0l-.64-.05a1.24,1.24,0,0,1-.57-.12,1.9,1.9,0,0,1-.85-.55,1.72,1.72,0,0,1-.36-.62,1.58,1.58,0,0,1-.1-.48,2.77,2.77,0,0,1,.87-2.05,25,25,0,0,1,3.64-3l1.09-.76.79-.54,1.14-.76,2.3-1.49q2.29-1.46,4.64-2.85l2.34-1.4,1.17-.69.59-.34.09,0s0,0,0,0a1.7,1.7,0,0,0,.11-.49,10.41,10.41,0,0,0,.14-1.17c.08-.81.1-1.65.11-2.49,0-1.7,0-3.42-.1-5.15-.15-3.45-.42-6.93-.72-10.41-1.12-12.79-3.1-26-5-39.06q-1.56-10.74-3.23-21.47l-1.7-10.73-.51-3.15-.17-1,0-.26c.05,0,.17,0,.24-.06l.53-.09,1.95-.35c1.75-.34,3.5-.76,5.26-1.19l3-.73,1.49-.35.9-.2,1.14-.24a3.2,3.2,0,0,0,.17.3l.15.16.3.31c0,.48.1,1.06.16,1.66l.41-.06.21,0,.09,0h0v1.22l0,1.12.08,2.25.17,4.48.36,9c.55,13.48,1,27,1.47,40.43.33,10.42.73,20.62.82,30.94,0,2.27,0,4.49,0,6.79-.15,8.5-.7,11.26-1.61,13a5.75,5.75,0,0,1-.67,1.1c-.34.33-.36-.34-.32-1.84s.1-3.92.18-7c.17-9.14-.08-18.58-.31-28.15s-.58-19.28-.94-29c-.57-14.46-1.14-29-1.71-43.49Z"/><path class="cls-1" d="M281.65,194.64a7.91,7.91,0,0,0-1.08,0,3.89,3.89,0,0,1-.85-.09,4.21,4.21,0,0,1-1.43-.65,17.35,17.35,0,0,1-2.17-1.68,14.14,14.14,0,0,1-1.79-2.16,7.65,7.65,0,0,1-.75-1.3,3.63,3.63,0,0,1-.27-.86,2.14,2.14,0,0,1,0-.57,2.94,2.94,0,0,1,.08-.53,2.84,2.84,0,0,1,.17-.49,2.27,2.27,0,0,1,.32-.53,2.35,2.35,0,0,1,.95-.77,1.89,1.89,0,0,1,1.19-.13,3.1,3.1,0,0,1,1.07.61,15.12,15.12,0,0,1,1.65,1.71c.44.43,1,1,1.56,1.47,1.09,1,2.21,2,3.33,3.05a22.67,22.67,0,0,1,4.84,6.39,27,27,0,0,1,2.15,7.68,25.65,25.65,0,0,0,1.06,4.25,11.14,11.14,0,0,0,.86,1.81l.55.83.64.87a3.29,3.29,0,0,1,.41.59c.24.58-.12,1-.72.89-.13,0-.32,0-.39-.13-.65-.91-1.8-1.21-2.4-2.39a27.29,27.29,0,0,1-2.19-6.51c-.19-.87-.34-1.73-.48-2.57a19.81,19.81,0,0,0-.72-3.13,16.91,16.91,0,0,0-2.75-4.77c-1.67-2.15-4.46-4.29-7-6.72-.39-.38-.63-.68-.92-1l-.42-.43c-.11-.12-.32-.29-.35-.32s-.15-.09-.21,0-.09,0-.17.28.15.84.5,1.41a17.79,17.79,0,0,0,1.14,1.58,12,12,0,0,0,2.15,1.93l1.07.78c.21.18.41.38.64.62A8,8,0,0,1,281.65,194.64Z"/><path class="cls-1" d="M272,198.49c-.18,1.24-.81,1.42-1.19,1.36a6.19,6.19,0,0,1-2-.66,4.1,4.1,0,0,1-1-.71,3.09,3.09,0,0,1-.43-.55,2.83,2.83,0,0,1-.28-.67,2.42,2.42,0,0,1,0-1.35,1.71,1.71,0,0,1,.32-.68,1.87,1.87,0,0,1,.53-.52,4.09,4.09,0,0,1,2-.65c2-.23,3.79.18,5.52,0,.51,0,1,0,1.54,0s1-.08,1.48-.13c.08,0,.17-.05.24,0,.22.13.28.68.13,1.1,0,.09-.07.24-.11.25-.39,0-.7.74-1.12.73a15.51,15.51,0,0,0-2.34.26,5.91,5.91,0,0,1-.94,0,8.92,8.92,0,0,1-1.17-.19,14.88,14.88,0,0,0-1.93-.14,6.92,6.92,0,0,0-1.43.13,2,2,0,0,0-.56.19c-.12.06-.13.09-.15.15s0,.11.05.3a.73.73,0,0,0,.07.2,1,1,0,0,0,.14.17,3.19,3.19,0,0,0,.94.64,7.52,7.52,0,0,0,1.22.4A3.93,3.93,0,0,1,272,198.49Z"/><path class="cls-1" d="M275.11,198.68a2.61,2.61,0,0,1-2.43,1.35H272l-.23,0a9.32,9.32,0,0,0-.92.17,4,4,0,0,0-1.44.58.1.1,0,0,0,0,.09l0,0c.05.07.07.12.14.21a1.67,1.67,0,0,0,.45.44.82.82,0,0,0,.23.11l.06,0,.21,0a3.41,3.41,0,0,0,.51.06h.39a1.23,1.23,0,0,1,1,.52l.05.07a.2.2,0,0,1,0,.09.86.86,0,0,1,.05.15,1.29,1.29,0,0,1,0,.23.55.55,0,0,1,0,.3,2.59,2.59,0,0,1-.11.37l-.27.4a3.26,3.26,0,0,0-.35.7,1.41,1.41,0,0,0-.09.48c0,.24,0,.23.25.4.08,0,.14.06.23.09s.11,0,.46.08l1.63.1,0,.15a11.16,11.16,0,0,0-.09,1.48,2.61,2.61,0,0,0,.54,1.6,2.67,2.67,0,0,0,2,.75h.33c.27,0,.49-.05.71.1l.47.23.36.19q.71.39,1.38.84a9.86,9.86,0,0,1,2.45,2.3c.73,1,1.37,2.05,2,3.1s1.19,2,1.75,3a1.84,1.84,0,0,1,.27.52c.1.5-.35.84-.88.7-.12,0-.29,0-.34-.12-.42-.78-1.37-1.07-1.79-1.89a25.15,25.15,0,0,0-2.86-4.14,10.53,10.53,0,0,0-1.25-1.25,13,13,0,0,0-2-1.45l-.24-.14h-.28a4.09,4.09,0,0,1-.88-.07,4.94,4.94,0,0,1-1.07-.25,3.94,3.94,0,0,1-2.11-1.78,4.63,4.63,0,0,1-.49-1.44l-.06-.37v-.23h-.16l-.38-.08c-.18-.05-.38-.13-.56-.2a2.35,2.35,0,0,1-1.44-2.2,3.77,3.77,0,0,1,.17-1.09.88.88,0,0,1,.08-.2l0-.07s0,0,0,0h-.15l-.11,0a3.38,3.38,0,0,1-.57-.24,3.31,3.31,0,0,1-1-.8,3.72,3.72,0,0,1-.33-.45,4.54,4.54,0,0,1-.31-.58,1.92,1.92,0,0,1-.15-.74v-.37c0-.12.07-.24.11-.36a2.3,2.3,0,0,1,.38-.61,3.58,3.58,0,0,1,.49-.43,4.3,4.3,0,0,1,.86-.43,8.25,8.25,0,0,1,1.44-.39c.44-.07.82-.12,1.17-.14a1.33,1.33,0,0,1,.36,0h.22l.38,0,.79.05A11.74,11.74,0,0,1,275.11,198.68Z"/><path class="cls-1" d="M280.13,194.64a54.43,54.43,0,0,1-5.93.55l-11.18-17a.4.4,0,0,1,.2-.62l3.49-1.18a.41.41,0,0,1,.46.16l5.75,10a25.69,25.69,0,0,0,4.25,5.53Z"/><path class="cls-1" d="M280.24,193.9c-1.58.22-4.41.93-5.34.37-1.23-.76-2.49-3.79-3.28-5L267,182.35c-.9-1.37-2.36-2.93-2.94-4.47-.14-.36-1.1.84-.15.24a18.06,18.06,0,0,1,1.84-.62c1.17-.57.32-.57.71.14,1.18,2.1,2.4,4.18,3.6,6.27a40.53,40.53,0,0,0,9.18,11.33c.68.57,2.61-.42,1.69-1.2-5.13-4.34-8-9.58-11.31-15.32-.85-1.46-1.23-3.1-3.14-3-1,.07-4.46,1-4.65,2.33s1.94,3.34,2.47,4.13l5.47,8.3c.9,1.37,2,4.18,3.38,5.12,1.55,1.1,5.09,0,6.83-.24C281.17,195.22,281.72,193.69,280.24,193.9Z"/><path class="cls-1" d="M293.88,243.34a2.4,2.4,0,0,1,.95,1.31,3.25,3.25,0,0,1,0,1.39,45.89,45.89,0,0,1-3,8.5c-1.06,2.35-2.27,4.6-3.46,6.87q-1.31,2.52-2.66,5l-2.17,3.94.61.19,3.72,1.12,3.58,1a2.63,2.63,0,0,1,.6.18.55.55,0,0,1,0,1c-.11.06-.24.16-.33.14-.93-.26-1.85.14-2.82-.18-1.78-.57-3.62-.95-5.44-1.43l-1.27-.37-1.59-.48.61-1c.24-.41.49-.81.73-1.23l.39-.61.77-1.21c.66-1.12,3.65-6.51,6.17-11.82,1.26-2.65,2.43-5.28,3.15-7.3.37-1,.63-1.86.81-2.47s.24-1,.26-1.06C293.54,244.39,293.64,244,293.88,243.34Z"/><path class="cls-1" d="M279.24,286.37a2,2,0,0,1,0,2.27,56.53,56.53,0,0,0-3,5.32,7.62,7.62,0,0,0-.4,1.06l0,.17a0,0,0,0,1,0,0,1.84,1.84,0,0,0-.36,0c-.19.06-.22.14-.17.06s.07-.13.07-.21a.66.66,0,0,0,0-.14.89.89,0,0,1,0-.16h0l.13,0,.25-.05a1.9,1.9,0,0,0,.48-.14,2.65,2.65,0,0,0,.83-.56,11.44,11.44,0,0,0,1.68-2.91,5.15,5.15,0,0,1,3.15-3.06l.41,0h.17a1.39,1.39,0,0,0,.33-.07,2.68,2.68,0,0,0,.68-.29,4.62,4.62,0,0,0,1.57-1.65,9.18,9.18,0,0,0,.92-2.23,1.27,1.27,0,0,1,.12-.39.64.64,0,0,1,1,.12c.07.08.18.19.16.25-.18.66.23,1.42-.12,2.13a8.12,8.12,0,0,1-2.79,3.56,3.82,3.82,0,0,1-2,.56h-.09l-.21,0c-.1,0-.17.08-.27.11a2,2,0,0,0-.52.37,11,11,0,0,0-1.63,2.87,6.32,6.32,0,0,1-2,2.52,4.35,4.35,0,0,1-1.77.68,1.59,1.59,0,0,1-1.47-.31,1.23,1.23,0,0,1-.32-.46,3.25,3.25,0,0,1-.11-.42,3,3,0,0,1,0-.62,7.33,7.33,0,0,1,.59-1.7c.24-.49.49-1,.74-1.38.5-.87,1-1.64,1.43-2.3.87-1.31,1.5-2.17,1.57-2.25A7.62,7.62,0,0,1,279.24,286.37Z"/><path class="cls-1" d="M272,290.28a31.44,31.44,0,0,1,3.18-4.65c.41-.52.79-1.07,1.21-1.58,1.49-1.8,3-3.53,4.4-5.37a17.5,17.5,0,0,0,1.57-2.57,16.27,16.27,0,0,0,1.2-3.42c.08-.34.56-.34,1,.05a2,2,0,0,1,.52,2.09,15.35,15.35,0,0,1-2,3.84,30.14,30.14,0,0,1-2.59,3.22c-1.11,1.21-2.09,2.59-3.12,3.87a45.93,45.93,0,0,0-3.16,4.33A9.57,9.57,0,0,0,272.9,293a4.85,4.85,0,0,0-.09.55c0,.18,0,.34,0,.55l.09,1.26a22.57,22.57,0,0,0,.34,2.47,9.06,9.06,0,0,0,1.3,3.37,1.73,1.73,0,0,0,.21.25.67.67,0,0,0,.21.18c.24.21.32.18.44.29a2,2,0,0,1,.42.42c.08.1.18.19.26.28s.12.35-.09.56a1.22,1.22,0,0,1-.47.28,1.91,1.91,0,0,1-.83,0,2.75,2.75,0,0,1-.66-.26l-.53-.38a5.23,5.23,0,0,1-.71-.89,8.18,8.18,0,0,1-.86-1.86,20.06,20.06,0,0,1-.78-3.77c-.06-.46-.11-.93-.15-1.39l-.05-.69a6.64,6.64,0,0,1,0-.89,8.7,8.7,0,0,1,1-3Z"/><path class="cls-1" d="M275,298c-.13-.14-.06-.31.13-.52a.49.49,0,0,1,.33-.11l.26.21c0,.05.47.88.63,1.15a8.43,8.43,0,0,1,.39.8c.12.28.24.55.38.81l.21.39c.05.08,0,0,0,0v0c0,.14.11.25.14.15s0,0,0-.08-.09-.09-.07-.12a12.93,12.93,0,0,1-.18-1.31.31.31,0,0,1,0-.19.69.69,0,0,0,0-.42,3.64,3.64,0,0,1,0-.57.84.84,0,0,1,.13-.27c.05-.08.19,0,.21,0s.11,0,.17,0h.07s.29.95.33,1,0,.09.06.22a4.6,4.6,0,0,0,.14.47c.06.18.13.36.19.5l.21.51a4.77,4.77,0,0,1,.13.47,3.09,3.09,0,0,1,.17,1,.89.89,0,0,1-.28.62.86.86,0,0,1-.92.18.7.7,0,0,0-.18-.05,2.6,2.6,0,0,1-1.37-1.34c-.08-.14-.14-.26-.22-.39s-.11-.2-.16-.3,0-.08,0-.12a.58.58,0,0,0-.05-.14c-.24-.48-.4-1-.63-1.45-.06-.11-.16-.68-.22-.8S275,298,275,298Z"/><path class="cls-1" d="M279.09,296c0-.09.08-.15.33-.18a.89.89,0,0,1,.35,0,1.77,1.77,0,0,1,.14.17,6.63,6.63,0,0,1,.09.72,1.93,1.93,0,0,1,0,.48c0,.32-.05.63-.06.94a1.18,1.18,0,0,1,0,.2,1.33,1.33,0,0,0,0,.68.13.13,0,0,0,0,.11,5.74,5.74,0,0,1,.19.64,1.16,1.16,0,0,0,.09.49s0,0,0,.08,0,.13.06.17l.15.18a1,1,0,0,1,0,.16.31.31,0,0,1-.09.19c-.06,0-.06.1-.08.15l0,.06a.89.89,0,0,1-.37,0,1.47,1.47,0,0,1-.4-.17,3.45,3.45,0,0,1-.37-.4,4.62,4.62,0,0,1-.31-.52.36.36,0,0,1,0-.18,5.23,5.23,0,0,1-.23-.77c0-.15-.06-.3,0-.44a.14.14,0,0,0,0-.09,3,3,0,0,1,.06-.73c0-.12,0-.24,0-.36s0-.05,0-.07a.19.19,0,0,0,0-.08c0-.28.1-.55.09-.83,0-.07.15-.35.14-.43S279.12,296,279.09,296Z"/><path class="cls-1" d="M280.74,292.86c-.05-.08.08-.11.34-.12a.46.46,0,0,1,.47.24s0,.47.05.61a1.3,1.3,0,0,1,0,.4,5,5,0,0,0-.12.74.42.42,0,0,1,0,.15.69.69,0,0,0-.06.5s0,.05.05.06a2.31,2.31,0,0,1,.17.37.52.52,0,0,0,.11.32s0,0,0,.06,0,.11.07.14a.59.59,0,0,1,.17.12.64.64,0,0,1,.06.14.25.25,0,0,1,0,.2s0,.11,0,.17l0,.06a1.26,1.26,0,0,1-.66.07,1.67,1.67,0,0,1-.42-.24,2,2,0,0,1-.42-.4.49.49,0,0,1-.06-.17,2.87,2.87,0,0,1-.29-.71.61.61,0,0,1,0-.42s0,0,0-.07a2.2,2.2,0,0,1,.09-.64,2.91,2.91,0,0,0,0-.31l0-.05s0,0,0-.06a6.12,6.12,0,0,0,.15-.69c0-.05.16-.27.16-.33S280.76,292.9,280.74,292.86Z"/><path class="cls-1" d="M318.76,159.68a3.81,3.81,0,0,1-.11,3.4,18.41,18.41,0,0,0-1.58,4.71,9,9,0,0,0-.08,2.31,6.17,6.17,0,0,0,.65,2,4.67,4.67,0,0,0,2.7,2.24,6.37,6.37,0,0,0,3.8-.3,17.51,17.51,0,0,0,6.07-4.09c1.86-1.75,3.6-3.69,5.58-5.5a24.85,24.85,0,0,1,3.83-2.93,26.62,26.62,0,0,1,4.12-2.1,2.9,2.9,0,0,1,.73-.26c.67-.08,1,.43.66,1-.07.13-.13.32-.23.36-1.08.4-1.61,1.42-2.65,1.91a13.23,13.23,0,0,0-2.69,1.68c-.83.67-1.6,1.42-2.37,2.18-.62.6-1.25,1.22-1.89,1.82l-2.53,2.31a37.49,37.49,0,0,1-4.67,3.92,14.41,14.41,0,0,1-4.67,2.07,7.73,7.73,0,0,1-2.93.14,6.17,6.17,0,0,1-2.86-1.18,7.5,7.5,0,0,1-1.95-2.3,8.06,8.06,0,0,1-.83-2.75,11.87,11.87,0,0,1,.64-4.78,23.43,23.43,0,0,1,1.95-4.3A13.59,13.59,0,0,1,318.76,159.68Z"/><path class="cls-1" d="M313.32,171.14a4,4,0,0,1,1.6,2.82,5.24,5.24,0,0,0,2,3.62,7.67,7.67,0,0,0,4.06,1.36,12,12,0,0,0,7.35-2.55c3.94-2.76,7.2-6.55,11-9.91a26.57,26.57,0,0,1,3.7-2.76,36,36,0,0,1,4-1.94,2.64,2.64,0,0,1,.69-.26.63.63,0,0,1,.67,1c-.06.12-.11.31-.21.35-1,.4-1.53,1.41-2.55,1.86a16.42,16.42,0,0,0-4.88,3.61c-.6.57-1.22,1.14-1.85,1.7l-2.46,2.14c-.56.5-2.07,2-4.22,3.85a32.87,32.87,0,0,1-3.78,2.81,15.19,15.19,0,0,1-4.9,2.09,10.06,10.06,0,0,1-5.35-.34,9.42,9.42,0,0,1-2.24-1.13,6.65,6.65,0,0,1-1.64-1.67,7.79,7.79,0,0,1-1.21-3.24,11.87,11.87,0,0,1-.12-1.41A9.45,9.45,0,0,1,313.32,171.14Z"/><path class="cls-1" d="M142.27,77.18c4.41,7.75,6.27,17.24,13.28,23.28,6,5.18,14.37,6.82,22.13,5.91,15.7-1.85,28.44-14.9,32-29.94.25-1.07-2.66-.64-2.9.36-3.38,14.2-15.43,27.38-30.68,28.09-8.12.38-16-2.42-21.09-8.95-4.51-5.79-6.26-13.2-9.86-19.53-.56-1-3.35,0-2.9.78Z"/><path class="cls-1" d="M151.25,68.87a8.19,8.19,0,0,1-3.48,2.87,2.09,2.09,0,0,0-.53.42,1.5,1.5,0,0,0-.33.47c-.08.25-.08.31.17.66A7.65,7.65,0,0,0,149.75,75a48.66,48.66,0,0,0,7,2.31l1.56.42,1.6.44c1,.31,2,.59,3.07.85a60.51,60.51,0,0,0,6.28,1.21,67.38,67.38,0,0,0,21.9-.71,55.31,55.31,0,0,0,6.3-1.59c2-.62,3.95-1.35,5.89-2.11a5.31,5.31,0,0,1,1-.37c.88-.17,1.31.33.86,1-.1.16-.19.38-.35.44-1.52.61-2.48,1.81-4.15,2.35-3.06,1-6.13,2.1-9.34,2.77a38.56,38.56,0,0,1-3.85.62c-1.66.19-3.32.24-5,.32a83.62,83.62,0,0,1-8.59,0,67.52,67.52,0,0,1-14.35-2.41c-2.37-.67-4.85-1.26-7.1-2a21.83,21.83,0,0,1-6.06-2.83,5.81,5.81,0,0,1-1.17-1.2,2.9,2.9,0,0,1-.51-1.86,3,3,0,0,1,.65-1.54,5,5,0,0,1,.89-.85,6.76,6.76,0,0,1,1.43-.74,5.62,5.62,0,0,1,.62-.22A14.79,14.79,0,0,1,151.25,68.87Z"/><path class="cls-1" d="M165.19,78.19a1.91,1.91,0,0,1,.41-2.28,36.69,36.69,0,0,1,5-3.79,22.76,22.76,0,0,1,5.06-2.29,9.32,9.32,0,0,1,1.21-.31,6.7,6.7,0,0,1,1.29-.15,5.48,5.48,0,0,1,1.38.1,7.33,7.33,0,0,1,1.28.39,8.65,8.65,0,0,1,3.82,3.36A26.59,26.59,0,0,1,186,75.68a9.2,9.2,0,0,0,1.22,1.94c.07,0,.16.11.16.16s-.12.76-.54,1c-.09,0-.25.12-.31.08-.55-.44-1.42-.6-1.77-1.27a18.63,18.63,0,0,0-2-3.22c-.28-.37-.56-.74-.85-1.08a6.81,6.81,0,0,0-1.2-1.2,4.48,4.48,0,0,0-2.72-.7,13.64,13.64,0,0,0-5.09,1.83,53,53,0,0,0-6.65,4.54A7,7,0,0,1,165.19,78.19Z"/><path class="cls-1" d="M171.89,78c1.14-.92,3.31-3.3,4.77-2.09a11.59,11.59,0,0,1,2.13,3.31c.34.59,2.4-.19,2.17-.58-.91-1.59-1.73-3.95-3.83-4.18-2.6-.3-5.07,1.9-6.93,3.39-.88.71,1.27.49,1.69.15Z"/><path class="cls-1" d="M157.09,76.64c-.88-1-.8-1.7-.54-2.26a36.58,36.58,0,0,1,3.07-5.49,22.2,22.2,0,0,1,3.71-4.13,8.36,8.36,0,0,1,1-.76,5.89,5.89,0,0,1,1.12-.66,4.88,4.88,0,0,1,1.3-.46,6.82,6.82,0,0,1,1.33-.17,8.71,8.71,0,0,1,4.85,1.55,25,25,0,0,1,2.25,1.7,9.17,9.17,0,0,0,1.9,1.28c.08,0,.19,0,.21.09a1.33,1.33,0,0,1-.11,1.09c-.07.08-.18.22-.26.2-.67-.18-1.54,0-2.13-.45A18.35,18.35,0,0,0,171.65,66c-.42-.22-.81-.45-1.22-.65a6.65,6.65,0,0,0-1.58-.62,4.5,4.5,0,0,0-2.77.46,13.43,13.43,0,0,0-3.92,3.72,51.78,51.78,0,0,0-4.27,6.83A8.93,8.93,0,0,1,157.09,76.64Z"/><path class="cls-1" d="M163.41,73.44a23.61,23.61,0,0,1,2-3.46c.7-.92,1.11-.88,2-.34A14.59,14.59,0,0,1,169,70.73c.45.35,2.31-.52,2.05-.72-1.68-1.32-3.2-2.2-5.34-1.44s-3.36,3.29-4.39,5.27c-.12.24,1.86.14,2.14-.4Z"/><path class="cls-1" d="M183.25,70.81c-.52-1.19-.2-1.8.22-2.19a18.63,18.63,0,0,1,4.89-3.33,11.4,11.4,0,0,1,5.21-1A8.66,8.66,0,0,1,198,65.87a8.42,8.42,0,0,1,2.82,3.74,16.23,16.23,0,0,1,.74,2.54c.19.79.37,1.58.57,2.29,0,.12.1.23.08.34-.06.32-.56.56-1,.44-.11,0-.27,0-.29-.11-.17-.59-.95-1-1-1.59a10.57,10.57,0,0,0-1.09-3.18l-.56-1.11a5.86,5.86,0,0,0-.86-1.3,4.69,4.69,0,0,0-.76-.64,6.69,6.69,0,0,0-1.56-.74,7.77,7.77,0,0,0-4.69.19A17.12,17.12,0,0,0,186.07,69c-1.1.77-1.77,1.37-1.85,1.42A7.45,7.45,0,0,1,183.25,70.81Z"/><path class="cls-1" d="M189,74.68c1.28-.71,3.54-2.6,5.08-2.31,2.83.55-1.27,4-1.92,4.62-1,1,1.13,1.33,1.81.64,1.49-1.49,5.33-4.72,1.92-6.47-2.63-1.36-5.64,1-7.85,2.23-1.29.72-.12,1.89,1,1.29Z"/><path class="cls-1" d="M159,68.18c-3.15.28-10.37,1.94-7.71,6.51.7,1.21,3.44.06,2.64-1.32-1.34-2.31,3.63-2.81,4.85-2.92,1.68-.14,2.19-2.44.22-2.27Z"/><path class="cls-1" d="M181.81,216.1c-.08,6.21-7.76,8-10.79,2.64a5.74,5.74,0,0,1,5.85-8.45A5.5,5.5,0,0,1,181.81,216.1Z"/><path class="cls-1" d="M180.36,216.28c-.09,2-1,4.49-3.24,4.82s-4.45-1.76-5.12-3.8c-.84-2.54.62-6.35,3.73-6.26s4.56,2.75,4.63,5.44c0,.87,2.92.32,2.9-.77C183,206,167,208.7,169,217.54c1.76,7.93,13.94,6,14.31-1.63C183.31,214.76,180.41,215.35,180.36,216.28Z"/><path class="cls-1" d="M162.13,204.26c-.08-1.09-.57-3.69.08-4.66l4.65-2c1.1.27,2.19.58,3.26.94a20.86,20.86,0,0,0,5.38,1.21c4.42.1,11.3-4,13.27,1.74,1.13,3.28.48,6.87,1.87,10.14,2.05,4.86,7.28,10.44,1.57,15.15-2,1.62-4.52,2.27-6.75,3.39s-3.62,2.78-5.61,3.92c-4.69,2.68-7.33-3.64-11.72-4.36-6.13-1-13.12-5.19-10.55-12.68.82-2.39,2.95-4.12,3.94-6.41.91-2.1.76-4.09.61-6.34-.06-.86-3-.28-2.9.78.29,4.35-1.21,6.53-3.32,10a9.8,9.8,0,0,0-1.69,5.66c.23,4.73,3.79,8.45,8.16,9.84,3,.94,6,.73,8.28,3.12,1.36,1.4,2.49,2.93,4.48,3.38,4.45,1,7.42-3.52,10.82-5.48,3.79-2.19,8.92-3.07,11-7.41,2.49-5.17-1.92-9.32-3.64-13.87-1.3-3.43-.33-7.77-2.19-11-1.71-2.93-5.22-2.86-8.21-2.37-2.4.4-4.81,1.23-7.29,1-1.82-.13-3.69-1.1-5.45-1.57a12.6,12.6,0,0,0-6.5-.39c-4.5,1.17-4.74,4.94-4.46,9C159.29,205.9,162.2,205.32,162.13,204.26Z"/><path class="cls-1" d="M223.54,84.75a39,39,0,0,1,.79,4.44,36.3,36.3,0,0,1-.05,4.77,16.9,16.9,0,0,1-.36,2.44l-.5,2.45a18.61,18.61,0,0,1-.74,2.41l-.83,2.39a49.23,49.23,0,0,1-38,30.33,48.33,48.33,0,0,1-16.92-.15l-.91-.14c-.29-.06-.59-.14-.88-.22l-1.78-.45a25.15,25.15,0,0,1-3.5-1.05c-1.15-.42-2.3-.82-3.43-1.27l-3.3-1.6a31.26,31.26,0,0,1-3.17-1.82l-1.56-1c-.52-.32-1-.72-1.48-1.08-1-.74-2-1.44-2.9-2.22l-2.7-2.47a49.83,49.83,0,0,1-14-25.21,51.09,51.09,0,0,1,.94-24.84c.25-1,.69-2,1-3l.55-1.48.27-.73.34-.71a46,46,0,0,1,2.92-5.56,50.29,50.29,0,0,1,7.73-9.84,48.68,48.68,0,0,1,4.77-4.08c.84-.62,1.66-1.28,2.53-1.86l2.68-1.63c.45-.26.89-.56,1.35-.8l1.42-.68,2.83-1.35,2.95-1.09,1.48-.53,1.51-.4a49.58,49.58,0,0,1,24.85-.49,47.87,47.87,0,0,1,13.71,5.52c1,.66,2.14,1.24,3.13,2l3,2.22c1,.76,1.84,1.64,2.77,2.46.45.42.94.81,1.35,1.26l1.25,1.37,1.2,1.31.6.66.53.71,2.14,2.84c.67,1,1.26,2,1.89,3,.3.51.64,1,.91,1.53l.78,1.6.78,1.6a12.3,12.3,0,0,1,.72,1.62l1.24,3.34c.41,1.11.64,2.29,1,3.43l.46,1.72c.13.58.19,1.17.29,1.76a27.17,27.17,0,0,1,.59,4.74c0,4.08-.69,4.94-1.39,2.06a11.75,11.75,0,0,1-.45-2.09c0-.44,0-.88-.1-1.31s-.15-.84-.23-1.26c-.16-.83-.33-1.64-.49-2.45a16.57,16.57,0,0,0-.68-2.34l-.77-2.28a19.62,19.62,0,0,0-.93-2.24l-1-2.26c-.31-.77-.78-1.49-1.16-2.27l-1.2-2.39A46.25,46.25,0,0,0,204,47a47.43,47.43,0,0,0-18.4-8.12,50.88,50.88,0,0,0-16.1-.51,47.24,47.24,0,0,0-19.31,7,16.27,16.27,0,0,0-1.79,1.25l-2.36,1.75-2.72,2.46c-.25.23-.51.44-.75.69l-.72.79L140.37,54c-.25.29-.53.57-.78.88s-.49.64-.73,1l-1.52,2a22.85,22.85,0,0,0-1.45,2.25c-.47.78-1,1.57-1.44,2.4s-.84,1.75-1.27,2.64c-.21.45-.45.9-.65,1.37s-.35,1-.53,1.44c-.35,1-.74,2-1.07,3s-.54,2.09-.81,3.16a46.92,46.92,0,0,0,37.92,57l1.92.3a13.91,13.91,0,0,0,1.93.22l3.84.19a51.15,51.15,0,0,0,7.49-.6,26.33,26.33,0,0,0,3.6-.69c1.17-.32,2.35-.57,3.48-.93l3.3-1.21a11.88,11.88,0,0,0,1.59-.68l1.53-.75,1.52-.73c.5-.25,1-.56,1.43-.84.93-.58,1.87-1.12,2.76-1.7s1.69-1.26,2.52-1.88c.4-.31.83-.59,1.2-.93l1.11-1a46.66,46.66,0,0,0,11.45-15.42c.25-.55.52-1,.73-1.55s.36-1,.52-1.44l.86-2.34c.43-1.33.59-2.19.68-2.44l.7-2.47c.16-.86.33-1.75.51-2.7A52.45,52.45,0,0,0,223.54,84.75Z"/><path class="cls-1" d="M176,126.5c-4.91,1.67-11.18,1-16.67-1.26a43.73,43.73,0,0,1-26.7-48.52l.13-.8.19-.78.4-1.57a23.55,23.55,0,0,1,.93-3.1c.38-1,.73-2,1.13-3l1.41-2.91a28.93,28.93,0,0,1,1.61-2.8l.85-1.37c.28-.47.63-.87,1-1.31.66-.85,1.27-1.74,2-2.56l2.18-2.38a46,46,0,0,1,10.23-7.81,46.63,46.63,0,0,1,12-4.53,45.16,45.16,0,0,1,21.94.84c.9.23,1.74.61,2.62.91a22.9,22.9,0,0,1,2.57,1,42.47,42.47,0,0,1,4.91,2.58A44.82,44.82,0,0,1,207.35,54,46.6,46.6,0,0,1,211,58.16c.54.75,1.12,1.47,1.64,2.24L214,62.76c.23.4.49.79.7,1.2l.61,1.25,1.2,2.5.95,2.6.48,1.3c.13.45.24.9.35,1.35a43.61,43.61,0,0,1,.44,21.94,42,42,0,0,1-4.89,12.1c-.59.92-1.09,1.9-1.75,2.77l-2,2.63c-.67.85-1.45,1.63-2.17,2.45-.38.39-.72.82-1.12,1.19l-1.21,1.11-1.16,1.06-.58.52-.62.47-2.51,1.9c-.86.59-1.77,1.11-2.66,1.66-.45.27-.88.57-1.35.81l-1.41.69c-.95.44-1.85,1-2.84,1.33l-2.95,1.1c-1,.37-2,.57-3,.86L185,128c-.51.12-1,.18-1.55.27a24.73,24.73,0,0,1-4.19.52c-3.61,0-4.36-.72-1.82-1.41a9.77,9.77,0,0,1,1.83-.43c.39,0,.77,0,1.15-.09l1.11-.21,2.15-.44a14.27,14.27,0,0,0,2.05-.62l2-.7a16.61,16.61,0,0,0,1.95-.84l2-.88c1.31-.64,2.63-1.39,4.08-2.08A40.69,40.69,0,0,0,209,109.33a41.67,41.67,0,0,0,7.1-16.13,44.78,44.78,0,0,0,.45-14.1,41.3,41.3,0,0,0-6.11-16.92c-.52-.9-1.49-2.07-2.63-3.64l-2.15-2.38a12.08,12.08,0,0,0-1.29-1.29L203,53.55c-.25-.23-.5-.47-.77-.69l-.85-.64-1.78-1.33a19.54,19.54,0,0,0-2-1.27c-.69-.41-1.37-.87-2.11-1.27l-2.31-1.11c-.4-.19-.79-.4-1.2-.57l-1.26-.47c-.86-.3-1.72-.65-2.61-.94l-2.77-.71a41.61,41.61,0,0,0-25,2,42.05,42.05,0,0,0-20.46,18.2,41.3,41.3,0,0,0-4.66,26.37,22.05,22.05,0,0,0,.61,3.16c.28,1,.5,2,.82,3s.71,1.94,1.06,2.9a10,10,0,0,0,.6,1.39c.22.45.43.9.65,1.34s.43.89.64,1.33.5.84.74,1.25c.51.82,1,1.64,1.49,2.42a45.86,45.86,0,0,0,3.35,4.23,41.09,41.09,0,0,0,13.52,10c.48.23.92.46,1.36.64l1.25.47,2.06.75c1.16.38,1.92.52,2.13.6l2.17.62,2.37.46A44,44,0,0,0,176,126.5Z"/><path class="cls-1" d="M223.54,216.08a38.42,38.42,0,0,1,.79,4.43,36.47,36.47,0,0,1-.05,4.78,16.76,16.76,0,0,1-.36,2.43l-.5,2.45a18.15,18.15,0,0,1-.74,2.41l-.83,2.39a49.23,49.23,0,0,1-38,30.33,48.33,48.33,0,0,1-16.92-.15L166,265c-.29-.06-.59-.14-.88-.22l-1.78-.45a26.54,26.54,0,0,1-3.5-1c-1.15-.43-2.3-.83-3.43-1.28l-3.3-1.6a31.26,31.26,0,0,1-3.17-1.82l-1.56-1c-.52-.32-1-.72-1.48-1.07-1-.75-2-1.45-2.9-2.23l-2.7-2.47a49.83,49.83,0,0,1-14-25.21,51.09,51.09,0,0,1,.94-24.84c.25-1,.69-2,1-3l.55-1.48.27-.73.34-.71a46.58,46.58,0,0,1,2.92-5.55,50.06,50.06,0,0,1,7.73-9.85,51.57,51.57,0,0,1,4.77-4.08c.84-.62,1.66-1.28,2.53-1.86l2.68-1.63c.45-.26.89-.56,1.35-.79l1.42-.69,2.83-1.35,2.95-1.08,1.48-.54,1.51-.4a49.69,49.69,0,0,1,24.85-.49,47.87,47.87,0,0,1,13.71,5.52c1,.66,2.14,1.24,3.13,2l3,2.22c1,.76,1.84,1.64,2.77,2.46.45.42.94.81,1.35,1.26l1.25,1.37,1.2,1.32.6.66.53.7,2.14,2.84c.67,1,1.26,2,1.89,3,.3.51.64,1,.91,1.52l.78,1.6.78,1.6a11.86,11.86,0,0,1,.72,1.63l1.24,3.33c.41,1.12.64,2.29,1,3.43l.46,1.72c.13.58.19,1.17.29,1.76a27.17,27.17,0,0,1,.59,4.74c0,4.08-.69,4.94-1.39,2.06a11.56,11.56,0,0,1-.45-2.09c0-.44,0-.88-.1-1.3s-.15-.85-.23-1.27c-.16-.83-.33-1.64-.49-2.45a17,17,0,0,0-.68-2.34l-.77-2.28a19.62,19.62,0,0,0-.93-2.24l-1-2.25c-.31-.78-.78-1.5-1.16-2.28l-1.2-2.39A46.35,46.35,0,0,0,204,178.36a47.43,47.43,0,0,0-18.4-8.12,50.88,50.88,0,0,0-16.1-.51,47.11,47.11,0,0,0-19.31,7,14.78,14.78,0,0,0-1.79,1.24l-2.36,1.76-2.72,2.45c-.25.23-.51.44-.75.69l-.72.79-1.51,1.65c-.25.29-.53.57-.78.88s-.49.64-.73,1l-1.52,2a22.85,22.85,0,0,0-1.45,2.25c-.47.78-1,1.57-1.44,2.41l-1.27,2.64c-.21.45-.45.89-.65,1.36s-.35,1-.53,1.44c-.35,1-.74,2-1.07,3s-.54,2.09-.81,3.16a47,47,0,0,0,23,51.85,48.15,48.15,0,0,0,14.91,5.2l1.92.29a12.54,12.54,0,0,0,1.93.22l3.84.19a49.8,49.8,0,0,0,7.49-.6,26.33,26.33,0,0,0,3.6-.69c1.17-.32,2.35-.57,3.48-.93l3.3-1.21a10.71,10.71,0,0,0,1.59-.68l1.53-.74,1.52-.73c.5-.26,1-.57,1.43-.85.93-.57,1.87-1.12,2.76-1.69l2.52-1.89c.4-.31.83-.59,1.2-.93l1.11-1a46.66,46.66,0,0,0,11.45-15.42c.25-.54.52-1.05.73-1.55s.36-1,.52-1.44l.86-2.34c.43-1.33.59-2.19.68-2.44l.7-2.47c.16-.86.33-1.75.51-2.7A52,52,0,0,0,223.54,216.08Z"/><path class="cls-1" d="M176,257.82c-4.91,1.67-11.18,1-16.67-1.26A43.73,43.73,0,0,1,132.61,208l.13-.8.19-.78.4-1.57a23.87,23.87,0,0,1,.93-3.09c.38-1,.73-2,1.13-3l1.41-2.91a26.72,26.72,0,0,1,1.61-2.8l.85-1.38c.28-.46.63-.87,1-1.31.66-.85,1.27-1.74,2-2.56l2.18-2.38a44.1,44.1,0,0,1,22.26-12.33,45,45,0,0,1,21.94.83c.9.23,1.74.61,2.62.91a22.9,22.9,0,0,1,2.57,1,42.47,42.47,0,0,1,4.91,2.58,42.87,42.87,0,0,1,12.3,11c.54.75,1.12,1.47,1.64,2.24l1.44,2.37c.23.4.49.78.7,1.19l.61,1.25,1.2,2.5.95,2.6.48,1.31c.13.44.24.89.35,1.34a43.61,43.61,0,0,1,.44,21.94,42,42,0,0,1-4.89,12.1c-.59.93-1.09,1.9-1.75,2.77l-2,2.63c-.67.86-1.45,1.63-2.17,2.45-.38.39-.72.82-1.12,1.19l-1.21,1.11-1.16,1.06-.58.52-.62.48-2.51,1.89c-.86.59-1.77,1.11-2.66,1.67-.45.26-.88.56-1.35.8l-1.41.7c-.95.43-1.85,1-2.84,1.32L189.59,258c-1,.36-2,.56-3,.85l-1.52.4c-.51.12-1,.18-1.55.27a23.75,23.75,0,0,1-4.19.52c-3.61,0-4.36-.72-1.82-1.41a9.77,9.77,0,0,1,1.83-.43c.39,0,.77,0,1.15-.09l1.11-.2,2.15-.45a14.27,14.27,0,0,0,2.05-.62l2-.7a18.4,18.4,0,0,0,1.95-.83l2-.89c1.31-.64,2.63-1.39,4.08-2.08A40.69,40.69,0,0,0,209,240.65a41.67,41.67,0,0,0,7.1-16.13,44.72,44.72,0,0,0,.45-14.09,41.35,41.35,0,0,0-6.11-16.93c-.52-.89-1.49-2.07-2.63-3.64l-2.15-2.38a11.15,11.15,0,0,0-1.29-1.28L203,184.87c-.25-.22-.5-.46-.77-.69l-.85-.64-1.78-1.33a19.54,19.54,0,0,0-2-1.27c-.69-.41-1.37-.86-2.11-1.27l-2.31-1.11c-.4-.19-.79-.39-1.2-.57l-1.26-.47c-.86-.3-1.72-.64-2.61-.94l-2.77-.71a41.54,41.54,0,0,0-25,2,42,42,0,0,0-20.46,18.19,41.3,41.3,0,0,0-4.66,26.37,22.05,22.05,0,0,0,.61,3.16c.28,1,.5,2,.82,3s.71,1.94,1.06,2.9a10,10,0,0,0,.6,1.39c.22.45.43.9.65,1.34s.43.89.64,1.33.5.84.74,1.25c.51.82,1,1.64,1.49,2.43a48.72,48.72,0,0,0,3.35,4.23,41.24,41.24,0,0,0,13.52,10c.48.22.92.46,1.36.64l1.25.46,2.06.75c1.16.38,1.92.52,2.13.6l2.17.62,2.37.46A42.45,42.45,0,0,0,176,257.82Z"/><path class="cls-1" d="M170.82,112.41l6.93,5.3.29-2-6.93,5c-2.38,1.73,1.21,2.89,2.82,1.73l6.92-5c.74-.53,1.13-1.4.29-2l-6.92-5.3c-1.38-1-5.28.92-3.4,2.36Z"/><path class="cls-1" d="M177.71,242.24l-6.92,5.3c-.27.21-.72.83-.29,1.14l6.92,5c1.19.86,5.15-.87,4.05-1.67l-6.93-5-.29,1.14,6.92-5.3c.78-.59.39-1.21-.38-1.44a4,4,0,0,0-3.08.82Z"/><path class="cls-1" d="M332.66,143.83c-.37,0-.74.07-1.11.09l-1.12,0a17.1,17.1,0,0,1-2.24-.2c-.54-.07-1.08-.18-1.62-.3a12.89,12.89,0,0,1-5-2.8,10.76,10.76,0,0,1-.93-.86,9.35,9.35,0,0,1-.88-.9l-.54-.6-.49-.65a4.58,4.58,0,0,1-.7-1.46c-.17-.64,2.05-.78,2.58,0a16.69,16.69,0,0,0,3.74,4.05,8.35,8.35,0,0,0,3.25,1.25,15.68,15.68,0,0,0,1.94.31c.66.05,1.33,0,2,0a19,19,0,0,0,2.48-.29,19.62,19.62,0,0,0,3.68-1,19.1,19.1,0,0,0,2.61-1.38c.18-.11.35-.24.54-.34.71-.38,1-.37,1.42.07a2.65,2.65,0,0,1,.29.29c.27.36.13.83-.36,1.21a12.42,12.42,0,0,1-2.42,1.5A16.68,16.68,0,0,1,337,143l-1,.33c-.36.09-.73.16-1.09.23l-1.1.22c-.37.06-.75.09-1.12.14Z"/><path class="cls-1" d="M317.65,186.74a2.72,2.72,0,0,0-1.13,1.67,1.46,1.46,0,0,0,.16,1.42,1.83,1.83,0,0,0,1.63.25,3.22,3.22,0,0,0,2.13-1.06,3.87,3.87,0,0,0,.32-2,.87.87,0,0,0-.36-.76c-.67-.38-1.85.09-2.48.35-.27.12-.95.55-.36.73a3.46,3.46,0,0,0,2-.38c-1.76-.18-2.37-.07-1.82.33,0,0,0,0,0,0a2.17,2.17,0,0,1,.07.24,2.28,2.28,0,0,1,0,.52,5.1,5.1,0,0,1-.12,1,2.63,2.63,0,0,1-.09.3l-.05.1c-.08.69.58.53,2-.48a1,1,0,0,1-.23-.36,1.65,1.65,0,0,1,.07-.93c.07-.22.24-.8.44-.93s.39-.24.34-.41-.39-.19-.5-.19A3.7,3.7,0,0,0,317.65,186.74Z"/><path class="cls-1" d="M314.88,197c-.82.54-1.71,2.27-1,3.17a1.79,1.79,0,0,0,1.64.37,3.09,3.09,0,0,0,2.06-1,3.66,3.66,0,0,0,.4-2.09,1,1,0,0,0-.32-.85c-.56-.42-1.64-.14-2.21.11-.26.11-1.24.53-.83.94s1.49.07,1.88-.1a1.7,1.7,0,0,1-1.51.12c0-.05,0-.06,0,0s.06.16.07.23a2.32,2.32,0,0,1,0,.53,5.6,5.6,0,0,1-.13,1,3.91,3.91,0,0,1-.15.41,1.87,1.87,0,0,1,1.94-.52.39.39,0,0,1-.1-.08,1.86,1.86,0,0,1-.1-.25,2.16,2.16,0,0,1,.55-1.73c.48-.32.33-.71-.2-.77A3.25,3.25,0,0,0,314.88,197Z"/><path class="cls-1" d="M145,73.58l1.38.08a5.51,5.51,0,0,1,1.06.08,6.29,6.29,0,0,1,1.74.6,63,63,0,0,0,11.93,3.94,77.14,77.14,0,0,0,10.69,2,73.48,73.48,0,0,0,9.39.22,65.57,65.57,0,0,0,9.31-1,39.16,39.16,0,0,0,5.31-1.29,24.65,24.65,0,0,0,4.62-2.14,3,3,0,0,1,.71-.44.84.84,0,0,1,1.12,1c0,.17,0,.42-.16.5a4.77,4.77,0,0,0-.79.69q-.36.36-.72.75A4.47,4.47,0,0,1,198.9,80a53.41,53.41,0,0,1-8.09,2.55,25,25,0,0,1-3.33.48c-1.42.13-2.85.13-4.27.16-1,0-3.74.16-7.35.06-1.8-.06-3.83-.18-6-.43s-4.29-.64-6.43-1.09a77.11,77.11,0,0,1-11.42-3.32,25.92,25.92,0,0,1-5.23-2.58A4,4,0,0,1,146,75a6.19,6.19,0,0,1-.46-.58C145.36,74.13,145.2,73.87,145,73.58Z"/><path class="cls-1" d="M145.58,78.7c7.25,5.35,18.23,7.25,27,7.85,9.38.64,19.53,0,28.16-4,1.81-.84.19-2.17-1.23-1.51-8.25,3.82-18.22,4.23-27.17,3.43-7.9-.7-18-2.56-24.51-7.38-.92-.69-3.52.63-2.26,1.56Z"/><path class="cls-1" d="M328.51,97.57a3.53,3.53,0,0,1,1.82.55c.2.15.45.23.6.44a2.53,2.53,0,0,1,.61,1.18,3.19,3.19,0,0,1,0,1.16,8.63,8.63,0,0,1-.24.85,2.57,2.57,0,0,1-.61.89c-.09.08,0,.08,0,0a5.38,5.38,0,0,0-.19-.51,7.4,7.4,0,0,1-.46-1.6c0-.24-.22-.3-.4-.45a2.14,2.14,0,0,0-.8-.42,3.89,3.89,0,0,0-.71-.13,4.79,4.79,0,0,0-1.19,0,8.65,8.65,0,0,1-.91.23l-.22,0c-.27,0-.39,0-.45,0h0a1,1,0,0,0,.17-.27c.2-.27.39-.59.63-.89a3.17,3.17,0,0,1,.84-.7,3.6,3.6,0,0,1,1.62-.47Z"/><path class="cls-1" d="M339,105.84c.21-.74.18-1.44.84-2a1,1,0,0,1,.73-.22c.43.08,1.05,1.82-.46,2.88-.57.4-1.38.58-1.3-.33a4.24,4.24,0,0,1,.93-2"/><path class="cls-1" d="M340.22,105.58s.13,0,.2-.14,0-.08,0-.14a.62.62,0,0,0-.07-.52.34.34,0,0,0-.32,0,.48.48,0,0,0-.24.36,2.42,2.42,0,0,0,0,.27,1.29,1.29,0,0,1-.21.54c-.09.12-.48,0-.84-.22s-.71-.43-.68-.65c.21-1.64,1.55-2.61,2.66-2.2a1.84,1.84,0,0,1,.71.64,2.28,2.28,0,0,1,.34,1,2.69,2.69,0,0,1-.29,1.43,3,3,0,0,1-1,1.09,2.4,2.4,0,0,1-1.24.36.85.85,0,0,1-.75-.41,1.69,1.69,0,0,1-.13-.89,5.25,5.25,0,0,1,.35-1.54c0-.09.06-.19.1-.27.18-.31.34-.34.72-.13l.26.14a.74.74,0,0,1,.38.66,3.4,3.4,0,0,1-.09.46c0,.08,0,.08.07.09s.06,0,.06,0,0,.05,0,.06Z"/><path class="cls-1" d="M341.49,100.8a2.92,2.92,0,0,1,1.41.83,2.27,2.27,0,0,1,.4.42,3.23,3.23,0,0,1,.38,1.85,5.9,5.9,0,0,1-.1.75,1.36,1.36,0,0,1-.48.78c-.08.06,0,.07-.05,0s-.15-.26-.23-.41c-.37-.54-.66-.78-.69-1.15s-.26-.35-.39-.5a2.17,2.17,0,0,0-.51-.49,1.59,1.59,0,0,0-.45-.23,2.12,2.12,0,0,0-.88-.1,7.22,7.22,0,0,1-.73.15l-.17,0a3.26,3.26,0,0,1-.39,0h0a.68.68,0,0,0,.12-.25,9.31,9.31,0,0,1,.47-.83,2.3,2.3,0,0,1,.75-.63,2.47,2.47,0,0,1,1.58-.23Z"/><path class="cls-1" d="M322.24,93.06a2.31,2.31,0,0,1,2.11-1.6,22.55,22.55,0,0,1,3.94,0,10.18,10.18,0,0,1,4,1.19,6,6,0,0,1,2.54,2.94,10.15,10.15,0,0,1,.65,3.6,11.36,11.36,0,0,1-1.71,5.85,18.47,18.47,0,0,1-3.84,4.5,19.65,19.65,0,0,1-2.85,2,17.26,17.26,0,0,1-3,1.52,1.88,1.88,0,0,1-.56.16c-.52,0-.73-.5-.51-1,.05-.11.09-.29.17-.31a2.16,2.16,0,0,0,.94-.71,3.42,3.42,0,0,1,.89-.76,13.5,13.5,0,0,0,3.64-2.68l1.31-1.25c.26-.27.54-.54.82-.81l.76-.86a11.48,11.48,0,0,0,1.72-3.49,9.31,9.31,0,0,0,.27-1.45,9.52,9.52,0,0,0,0-1.59,5.56,5.56,0,0,0-1.1-3c-1.33-1.59-3.82-1.93-5.56-2s-3,0-3.15,0A10.31,10.31,0,0,1,322.24,93.06Z"/><path class="cls-1" d="M339.62,97.65c-.11-1.23.2-1.58.54-1.69a10.19,10.19,0,0,1,3.5-.53,13.24,13.24,0,0,1,3,.49,11.54,11.54,0,0,1,4.81,2.28,9.33,9.33,0,0,1,1.16,1.19,8.49,8.49,0,0,1,.91,1.36c0,.08.13.15.12.25,0,.27-.54.48-1,.49-.1,0-.26,0-.28,0-.18-.31-.88-.25-1-.5a1.94,1.94,0,0,0-.59-.66,5.63,5.63,0,0,0-.74-.5c-.19-.14-.38-.27-.57-.43a5.36,5.36,0,0,0-.73-.61,10.62,10.62,0,0,0-4.4-1.24,13.24,13.24,0,0,0-2.78,0c-.75.1-1.23.22-1.28.23A2.78,2.78,0,0,1,339.62,97.65Z"/><path class="cls-1" d="M327.35,126.34a4.48,4.48,0,0,1-1.85-.07,3.67,3.67,0,0,1-.67-.18,4.19,4.19,0,0,1-1.69-1.59,4.76,4.76,0,0,1-.43-.88,1.68,1.68,0,0,1,0-1.19c.05-.11,0-.09.05,0s.23.25.38.39a16.14,16.14,0,0,1,1.43,1,1.86,1.86,0,0,0,.92.36,4.24,4.24,0,0,0,1.14.19,4.32,4.32,0,0,0,.8,0,5.17,5.17,0,0,0,1.27-.28,9.9,9.9,0,0,1,.95-.38l.23-.07a2.61,2.61,0,0,1,.48,0l0,0a1,1,0,0,0-.17.29c-.19.3-.36.65-.56,1a3.89,3.89,0,0,1-2.34,1.59Z"/><ellipse class="cls-1" cx="291.26" cy="266.68" rx="1.31" ry="0.89" transform="translate(-61.01 88.19) rotate(-15.61)"/><ellipse class="cls-1" cx="246.91" cy="361.78" rx="2.59" ry="1.75" transform="translate(-125.47 131.17) rotate(-23.92)"/><ellipse class="cls-1" cx="195.11" cy="375.9" rx="1.31" ry="0.89" transform="translate(-93.93 66.35) rotate(-15.61)"/><ellipse class="cls-1" cx="146.71" cy="351.52" rx="1.31" ry="0.89" transform="translate(-134.28 94.36) rotate(-24.88)"/><ellipse class="cls-1" cx="188.53" cy="342.22" rx="2.59" ry="1.75" transform="translate(-126.49 111.09) rotate(-24.88)"/><ellipse class="cls-1" cx="178.91" cy="296.51" rx="1.81" ry="1.23" transform="translate(-108.15 102.8) rotate(-24.88)"/><ellipse class="cls-1" cx="159.32" cy="243.84" rx="1.17" ry="0.79" transform="matrix(0.91, -0.42, 0.42, 0.91, -87.81, 89.67)"/><ellipse class="cls-1" cx="152.62" cy="276.81" rx="1.31" ry="0.89" transform="translate(-102.3 89.91) rotate(-24.88)"/><ellipse class="cls-1" cx="249.24" cy="179.5" rx="1.31" ry="0.89" transform="translate(-39.1 73.67) rotate(-15.61)"/><ellipse class="cls-1" cx="234.79" cy="174" rx="1.81" ry="1.23" transform="translate(-51.42 114.94) rotate(-24.88)"/><ellipse class="cls-1" cx="208.51" cy="154.31" rx="1.31" ry="0.89" transform="translate(-45.57 102.05) rotate(-24.88)"/><ellipse class="cls-1" cx="133.26" cy="327.89" rx="1.31" ry="0.89" transform="translate(-125.59 86.51) rotate(-24.88)"/><ellipse class="cls-1" cx="266.81" cy="395.21" rx="1.17" ry="0.79" transform="translate(-137.31 142.1) rotate(-23.92)"/><ellipse class="cls-1" cx="248.36" cy="329.16" rx="1.31" ry="0.89" transform="translate(-79.4 78.95) rotate(-15.61)"/><ellipse class="cls-1" cx="228.89" cy="241.92" rx="1.31" ry="0.89" transform="translate(-56.64 70.5) rotate(-15.61)"/><ellipse class="cls-1" cx="239.64" cy="318.81" rx="1.31" ry="0.89" transform="translate(-76.93 76.22) rotate(-15.61)"/><ellipse class="cls-1" cx="316.25" cy="319.57" rx="1.31" ry="0.89" transform="translate(-74.31 96.86) rotate(-15.61)"/><ellipse class="cls-1" cx="294.82" cy="330.47" rx="1.31" ry="0.89" transform="translate(-78.04 91.5) rotate(-15.61)"/><ellipse class="cls-1" cx="308.98" cy="313.32" rx="0.66" ry="0.44" transform="translate(-72.9 94.67) rotate(-15.61)"/><ellipse class="cls-1" cx="274.89" cy="266.08" rx="1.31" ry="0.89" transform="translate(-61.45 83.76) rotate(-15.61)"/><path class="cls-1" d="M332.57,373.85c.19-.8.29-1,.38-1,.32-.1.63-.23.94-.31a4.25,4.25,0,0,1,.8-.06,8.58,8.58,0,0,0,1.35-.33,2.43,2.43,0,0,0,.38-.13,1.22,1.22,0,0,0,.31-.25s0-.13,0-.11a4.29,4.29,0,0,1,.46,1.11c0,.1.08.26.06.26s.05.75-.09.76-.41.27-.63.38a.45.45,0,0,1-.28.06c-.13,0-.26-.08-.39-.09s-.92.12-1.65.12a7.76,7.76,0,0,1-1.48-.16A1.36,1.36,0,0,1,332.57,373.85Z"/></g></svg>