<svg id="Layer_1" data-name="Layer 1" xmlns="http://www.w3.org/2000/svg" width="520" height="520" viewBox="0 0 520 520"><defs><style>.cls-1{fill:#221f1f;}.cls-2{fill:#232020;}</style></defs><title>Notioly v2</title><g id="_34.Globe" data-name="34.Globe"><path class="cls-1" d="M113.5,283.37c6.34-4.3,15.69.45,22.22-4.6,5.35-4.13,8-10.5,14.31-13.51,4.75-2.28,13.16-1.61,14.77-7.76C166,253,162,250,162.13,245.68c.07-2.08,3.37-9.63.58-13.64-5.32-7.67-12.51-10.24-20.4-12.31-5.91-1.56-20.46-1.62-22-9.42C120.29,210.31,99.5,244.52,113.5,283.37Z"/><path class="cls-1" d="M125.08,214.41a26.78,26.78,0,0,0,7.33,2.43c2.59.54,5.25.89,8,1.38.68.13,1.36.26,2,.44l2,.55c1.31.37,2.62.78,3.92,1.24A34.78,34.78,0,0,1,155.8,224a27.1,27.1,0,0,1,4.75,3.86,25.85,25.85,0,0,1,2,2.3l.91,1.23a7.11,7.11,0,0,1,.78,1.53,11.68,11.68,0,0,1,.35,5.6,44.42,44.42,0,0,1-1.16,5.18c-.11.42-.22.83-.31,1.22A4.19,4.19,0,0,0,163,246a7.11,7.11,0,0,0,.42,2.29c.5,1.55,1.38,3.06,1.94,4.84a8.76,8.76,0,0,1,.44,2.82,7.84,7.84,0,0,1-.65,2.82,7.92,7.92,0,0,1-4.08,3.87c-3.36,1.51-6.93,1.71-10,2.88a19,19,0,0,0-7.05,5.37c-2,2.26-3.87,4.77-6.15,6.93a14,14,0,0,1-5.17,3.32,19.89,19.89,0,0,1-6,.92c-4,.13-7.93-.35-11.37,1.06-1,.47-1.52.65-1.61.47s.28-.7,1.15-1.38a10.67,10.67,0,0,1,4.16-1.72,31.88,31.88,0,0,1,6.22-.46,25.61,25.61,0,0,0,5.69-.49,8.19,8.19,0,0,0,1.31-.37,7.34,7.34,0,0,0,1.22-.52,7.63,7.63,0,0,0,1.14-.68,11.48,11.48,0,0,0,1.1-.84c2.91-2.43,5.15-5.77,8.08-8.74a20.51,20.51,0,0,1,5-3.86,14.23,14.23,0,0,1,3-1.21c1-.3,2-.52,3-.74a29.14,29.14,0,0,0,5.57-1.6,7.82,7.82,0,0,0,2.17-1.47,5.66,5.66,0,0,0,1.27-2.19c.68-2-.16-4.14-1.2-6.38a15.43,15.43,0,0,1-1.26-3.71,7.38,7.38,0,0,1-.05-2.11,18.64,18.64,0,0,1,.43-1.91,27.89,27.89,0,0,0,1.21-7.09,7,7,0,0,0-.71-3.19,10,10,0,0,0-1-1.42c-.34-.5-.75-.93-1.13-1.4a25,25,0,0,0-6-5.05,36.49,36.49,0,0,0-7.27-3.23c-1.27-.43-2.56-.81-3.87-1.17a33.84,33.84,0,0,0-3.9-.86c-2.66-.45-5.38-.82-8.07-1.43a26.65,26.65,0,0,1-6.54-2.24,11.34,11.34,0,0,1-2.89-2.11c-.22-.21-.4-.46-.6-.69a4.28,4.28,0,0,1-.26-.38l-.14-.22a3.55,3.55,0,0,1-.32-.78l-.05-.2-.1.17-.2.35-.44.81c-.5,1-1,1.94-1.43,2.93a95.27,95.27,0,0,0-8.2,28.92,82.43,82.43,0,0,0,.56,23c.12.83.29,1.65.46,2.47s.31,1.64.51,2.46c1.43,6.14,2.13,8,2.06,9.48a7,7,0,0,1,0,1c-.08.36-.4-.05-.91-1.11-.25-.53-.54-1.22-.88-2.06s-.62-1.84-1-3A79.24,79.24,0,0,1,107.44,256a91.61,91.61,0,0,1,2.44-21.93,100.76,100.76,0,0,1,3.88-12.68q1.18-3.1,2.58-6.13c.47-1,1-2,1.47-3,.81-1.6,2.06-3.69,2.93-5.1l.53,2c.18.78.39,1.27.59,1.9a2.16,2.16,0,0,0,.37.76l.18.28c.14.17.28.35.43.51a8.94,8.94,0,0,0,2.25,1.7Z"/><path class="cls-1" d="M188.39,170.11c-4.52,2.23-6.58,17.71,9.09,20.41,11.38,2,1,18.27,6.51,25.69,3.51,4.78,12.29,10.37,25.24-2.26,2.4-2.34,10.42-6.47,15.16.33,3,4.24,12.34-.6,13.05-6.49C236.92,170.37,188.39,170.11,188.39,170.11Zm33.4,26.25c-.51-.48-7.15,5.61-8.23,2.92-.51-1.28,3.26-3.27,4.4-4.43-2.79-1.29-7-3.64-6-5.08,1.6-2.23,5.69,1.51,8.17,2.58,1.65-2.1,2.91-7.6,5.8-6.15s.09,4.86-1.72,7.32c1.79.59,5.52,0,5.52,2C229.72,198,223.74,198.17,221.79,196.36Z"/><path class="cls-1" d="M256.86,204.49l1,1.71.6,1c.05.14.2.26.18.4l-.08.45-.07.44c0,.13-.05.19-.07.29a9.59,9.59,0,0,1-2.08,3.85,13.15,13.15,0,0,1-3.26,2.69,11.43,11.43,0,0,1-4,1.49,5.9,5.9,0,0,1-4.51-.9,4.37,4.37,0,0,1-.89-.88l-.58-.74a8.36,8.36,0,0,0-1.2-1.25,7.09,7.09,0,0,0-3-1.4,8.44,8.44,0,0,0-3.46.12,12.67,12.67,0,0,0-4.73,2.21,10.53,10.53,0,0,0-1,.84l-1.07,1-1.07,1c-.38.31-.77.6-1.15.89a23,23,0,0,1-9.25,4.56,13.13,13.13,0,0,1-10.17-2,14.58,14.58,0,0,1-3.73-3.7,10.43,10.43,0,0,1-1.65-5.07c-.27-3.47.34-6.8.65-10.08a25,25,0,0,0,.14-4.31,7.17,7.17,0,0,0-1.2-3.82,4.75,4.75,0,0,0-1.45-1.26,7.12,7.12,0,0,0-1.89-.69c-.64-.15-1.46-.28-2.17-.46l-1.1-.29-1.08-.37a15.22,15.22,0,0,1-5.07-3,12.61,12.61,0,0,1-3.3-5,13.21,13.21,0,0,1-.71-5.91,10.23,10.23,0,0,1,2.19-5.57c.89-1,1.62-1.06,1.63-.9s-.42.65-.83,1.52a13.89,13.89,0,0,0-.7,9,10.68,10.68,0,0,0,2.32,4.54,12.27,12.27,0,0,0,4.18,3,15.73,15.73,0,0,0,2.52.9c.43.13.88.23,1.32.32l1.47.32a8.23,8.23,0,0,1,3.07,1.45,6.79,6.79,0,0,1,2,2.85,14.8,14.8,0,0,1,.61,6.22c-.13,2-.41,3.91-.62,5.8a30,30,0,0,0-.21,5.57,8.29,8.29,0,0,0,1.78,4.81,12.54,12.54,0,0,0,5.15,3.89,11.49,11.49,0,0,0,6.5.44,18.45,18.45,0,0,0,3.21-1,23.27,23.27,0,0,0,3-1.67,36.33,36.33,0,0,0,5.43-4.33,13.48,13.48,0,0,1,3.45-2.34,14.17,14.17,0,0,1,3.94-1.26,9.48,9.48,0,0,1,4.23.26,8.41,8.41,0,0,1,3.64,2.2,5.27,5.27,0,0,1,.7.79l.64.79a2.75,2.75,0,0,0,1.19.94,5.25,5.25,0,0,0,3.35,0,11.13,11.13,0,0,0,5.88-4.13,7.83,7.83,0,0,0,1-1.95c.06-.17.09-.35.14-.52s0-.21.07-.32a2.33,2.33,0,0,0-.16-.31l-.3-.51-1.2-2.06c-.41-.68-.87-1.32-1.31-2a62.3,62.3,0,0,0-5.88-7.49,71,71,0,0,0-23.45-16.53,93.77,93.77,0,0,0-21.12-6.38c-1.6-.31-3.16-.53-4.78-.77l-6.37-.83a11.28,11.28,0,0,1-2.82-.68,7.5,7.5,0,0,1-.85-.36c-.59-.39,2-.74,6.44-.36a97,97,0,0,1,20.14,3.92,85,85,0,0,1,19.34,8.64A70.44,70.44,0,0,1,247,192a64.61,64.61,0,0,1,9.91,12.49Z"/><path class="cls-1" d="M224.66,187.24a4.47,4.47,0,0,0-1.27,1.49c-.41.67-.78,1.42-1.19,2.18l-.31.59-.17.29a5.3,5.3,0,0,1-.3.48c-.21.31-.41.63-.64.93a3,3,0,0,1-.33.43l-.51-.24c-.34-.16-.68-.34-1-.52a3.68,3.68,0,0,1-.46-.25l-.28-.17-1.09-.69a15,15,0,0,0-3.07-1.59,2.36,2.36,0,0,0-.83-.15.47.47,0,0,0-.33.15.26.26,0,0,0-.07.29.39.39,0,0,0,.08.14,1.35,1.35,0,0,0,.24.3,10.2,10.2,0,0,0,1.48,1.21c.55.38,1.14.73,1.74,1.07l.25.14.37.19.74.39,1.49.72a14.62,14.62,0,0,1-2.51,2.1A20,20,0,0,0,215,198a2.49,2.49,0,0,0-.4.41.51.51,0,0,0-.12.47.53.53,0,0,0,.59.31,1.25,1.25,0,0,0,.41-.11l.32-.14.39-.18c.51-.27,1-.58,1.53-.91a32.45,32.45,0,0,1,3.23-1.94,1.2,1.2,0,0,1,.66-.1l.16,0a.48.48,0,0,1,.19.13c.08.08.06.14,0,.16s-.31.06-.35.21-.12.28-.2.45a6.12,6.12,0,0,1-2.23,2.55,17.53,17.53,0,0,1-2.69,1.47l-.48.18a4.91,4.91,0,0,1-.66.17,3.33,3.33,0,0,1-1.29,0,2.34,2.34,0,0,1-1.71-1.44,2.5,2.5,0,0,1,0-1.3,3.65,3.65,0,0,1,.76-1.24c.18-.18.36-.39.55-.55l.36-.31.7-.53a10.65,10.65,0,0,1,1-.65.66.66,0,0,0,.2-.11.9.9,0,0,0-.14-.14l-.05,0-.31-.18-.66-.41a20.18,20.18,0,0,1-2.33-1.67,6.89,6.89,0,0,1-.57-.53,4.09,4.09,0,0,1-.58-.75,4.83,4.83,0,0,1-.23-.52,5.07,5.07,0,0,1-.09-.54,2,2,0,0,1,.34-1,2.76,2.76,0,0,1,1.31-.91,2.05,2.05,0,0,1,.71-.11,2.64,2.64,0,0,1,.64,0A6.94,6.94,0,0,1,216,189c.81.42,1.55.9,2.27,1.36l1.08.66.48.28a1.81,1.81,0,0,0,.3-.39l.59-1.1c.39-.76.78-1.54,1.27-2.31a7.32,7.32,0,0,1,1.1-1.38,2.92,2.92,0,0,1,1.85-.83,3.13,3.13,0,0,1,1.87.71,2.51,2.51,0,0,1,.91,1.84,6.26,6.26,0,0,1-1.15,3.27c-.14.23-.29.45-.44.68l-.36.52-.54.72c-.1.08,0,.08.1.11l.23,0,.46.07,1.36.12a5.7,5.7,0,0,1,2,.52,1.93,1.93,0,0,1,.86,1,2.21,2.21,0,0,1,0,1.3,2.87,2.87,0,0,1-1.67,1.63,7.09,7.09,0,0,1-2,.5,9.29,9.29,0,0,1-1.75,0c-2.19-.25-2.87-1-3-1.61a1.15,1.15,0,0,1,0-.45c.17-.4.77-.09,2,.12a8.44,8.44,0,0,0,2.88,0A4,4,0,0,0,228,196c.34-.18.48-.38.47-.45s0-.06,0-.08h0l.06,0h0l.05,0-.12.09-.05,0a4.11,4.11,0,0,0-1.16-.27l-2.24-.22c-.26-.05-.55-.08-.8-.14l-.72-.19-1.47-.4.11-.15,1.54-2.1.39-.53.31-.44.33-.51a8.73,8.73,0,0,0,1-2,2.22,2.22,0,0,0,.1-.73.59.59,0,0,0-.21-.35c0-.07-.19-.12-.27-.19s-.21-.1-.28-.1a.61.61,0,0,0-.4.07Z"/><path class="cls-1" d="M239.13,325.2c-8.3-2.21-13.73-10.63-11.75-17.21a23.55,23.55,0,0,1,8.21-11.9c4.22-3.13,8.34-5.45,9.43-11,.42-2.18,8.46-21.69,27.08-6.89C272.1,278.16,259.65,315.74,239.13,325.2Z"/><path class="cls-1" d="M270.32,279.68l.38-1c.05-.08,0-.09,0-.13l-.94-.72-1.11-.75a23.2,23.2,0,0,0-4.71-2.45,13.84,13.84,0,0,0-5.06-.91A11.27,11.27,0,0,0,254,275a16,16,0,0,0-5.5,5.2,21.32,21.32,0,0,0-1.72,3,14.7,14.7,0,0,0-.66,1.55l-.13.37-.09.39c-.08.31-.15.62-.24.92a13.34,13.34,0,0,1-4.16,6.28c-1.86,1.64-3.92,2.92-5.78,4.32a21.87,21.87,0,0,0-4.71,5,22.57,22.57,0,0,0-2.74,5.52,10.35,10.35,0,0,0-.57,2.92,14.65,14.65,0,0,0,.06,1.48,10.15,10.15,0,0,0,.27,1.46A15,15,0,0,0,231.8,320a18.37,18.37,0,0,0,6.42,4.23c1.51.54,1.24,1-.29,1a10.9,10.9,0,0,1-6.85-3,17,17,0,0,1-4.78-7.43,13.19,13.19,0,0,1-.56-4.52l.12-1.16.26-1.14c.2-.74.45-1.39.71-2.08a25.11,25.11,0,0,1,4.57-7.35,22.55,22.55,0,0,1,3.22-2.95c1.16-.85,2.3-1.6,3.42-2.4a20.41,20.41,0,0,0,3.64-3.14,10.82,10.82,0,0,0,2.25-4.11l.29-1.22a12.68,12.68,0,0,1,.46-1.32,23.06,23.06,0,0,1,1.16-2.4,21.91,21.91,0,0,1,3.11-4.3,15.64,15.64,0,0,1,4.73-3.51,12.51,12.51,0,0,1,5.8-1.21,16.13,16.13,0,0,1,5.71,1.26,25.94,25.94,0,0,1,5,2.77c.49.32.95.68,1.42,1l1,.75.26.2-.1.32-.22.61-.65,1.79-.63,1.62c-.84,2.15-1.74,4.28-2.68,6.38a132.44,132.44,0,0,1-10,18.43,72.19,72.19,0,0,1-10.06,12.56c-.88.8-1.72,1.61-2.68,2.35a21.53,21.53,0,0,1-4,2.6,4.37,4.37,0,0,1-2.09.55,3.12,3.12,0,0,1-.7,0c-.27-.08,0-.4.59-.88l2.92-2a51.68,51.68,0,0,0,10.08-10,96.67,96.67,0,0,0,8.16-12.32,145.27,145.27,0,0,0,9.37-20.16Z"/><path class="cls-1" d="M204.6,262.52c-1.71.43-6.16,3.85-10.36,1-4.64-3.14-12-.46-15.1,4.6s3.89,6.34,5.47,10.39c1,2.5-.89,5.85,1,7.77,9.17,9.13,19.72-11.84,21.92-14.46C209.39,269.66,210,263.06,204.6,262.52Z"/><path class="cls-1" d="M191.7,289.65a7.24,7.24,0,0,1-4-.59l-.9-.47L186,288c-.26-.19-.48-.42-.73-.64l-.35-.32-.39-.46a4.51,4.51,0,0,1-.76-2.14,10.37,10.37,0,0,1,0-1.94,11.6,11.6,0,0,0,.08-3.19c-.28-1.27-1.44-2.4-2.68-3.48a13,13,0,0,1-3.23-3.58,4.15,4.15,0,0,1-.28-2.77,5.09,5.09,0,0,1,.48-1.22l.31-.57.34-.49a13.9,13.9,0,0,1,7.69-5.26,12,12,0,0,1,4.19-.37,8.89,8.89,0,0,1,4,1.4,6.24,6.24,0,0,0,2.09.82,6.61,6.61,0,0,0,2.26,0,24,24,0,0,0,4.62-1.6c.53-.19.88-.12.88.06s-.17.48-.46.87a7.53,7.53,0,0,1-4,2.56,9.07,9.07,0,0,1-3,.23,7.27,7.27,0,0,1-2.94-.95l-1.1-.65a6.82,6.82,0,0,0-1-.45,7.86,7.86,0,0,0-2.17-.4,12,12,0,0,0-8.54,3.48,11,11,0,0,0-1,1.08l-.42.59-.33.59a2.58,2.58,0,0,0-.09,2.32,7.87,7.87,0,0,0,1.89,2.14,28.76,28.76,0,0,1,2.43,2.21,6.42,6.42,0,0,1,1.84,3.52,18.82,18.82,0,0,1-.14,3.67,3.41,3.41,0,0,0,.63,2.72,7.63,7.63,0,0,0,2.62,1.78,5.54,5.54,0,0,0,3.79,0,11.64,11.64,0,0,0,3.55-2,41.51,41.51,0,0,0,8.23-9.87c.94-1.42,1.7-2.84,2.74-4.3a6.59,6.59,0,0,0,.95-4.25,5.08,5.08,0,0,0-.52-1.8,4.43,4.43,0,0,0-1.57-1.68,2.9,2.9,0,0,1-.56-.41,1.5,1.5,0,0,1-.41-.38,2.82,2.82,0,0,1-.33-.41c-.12-.21.11-.35.68-.39a3.73,3.73,0,0,1,2.5.86,5,5,0,0,1,1.61,2.17,7.06,7.06,0,0,1,.51,2.58,8.48,8.48,0,0,1-.33,2.6,6.39,6.39,0,0,1-.47,1.28,5.06,5.06,0,0,1-.36.63l-.39.55c-.37.51-.79,1.21-1.2,1.86l-1.26,2c-.85,1.33-1.75,2.66-2.7,4a38.47,38.47,0,0,1-4.79,5.47,18.54,18.54,0,0,1-3,2.27,10.18,10.18,0,0,1-3.72,1.4Z"/><path class="cls-1" d="M150.05,327.9a84.85,84.85,0,0,0,37.75,11c13.22.64,26.75-1.36,38.88-6.66a68.66,68.66,0,0,0,12.59-7.1c2-1.36,3.84-2.92,5.7-4.44l2.66-2.45c.9-.8,1.7-1.72,2.55-2.57,11.81-12.31,19-28.72,22-45.53.19-1.06.3-2.11.45-3.17l.28-3.19.13-1.6c0-.54,0-1.07.05-1.61l.07-3.2a84.52,84.52,0,0,0-1.1-12.8,89.13,89.13,0,0,0-7.75-24.47A91.81,91.81,0,0,0,251.84,201a87,87,0,0,0-16.73-15.41,79.83,79.83,0,0,0-26.26-12.21A77.36,77.36,0,0,0,180,171.56c-6,.87-5.42-.12-.38-1.84a48.67,48.67,0,0,1,10.81-2,60,60,0,0,1,15.76,1.07A87.33,87.33,0,0,1,221,173.44a92.65,92.65,0,0,1,13.66,7.37A94.69,94.69,0,0,1,265.52,215a90.37,90.37,0,0,1,6.16,14.21c.39,1.23.85,2.44,1.18,3.69l1,3.75c.32,1.25.55,2.53.83,3.79s.49,2.54.68,3.83c.45,2.55.63,5.14.88,7.72.08,2.59.24,5.18.1,7.77l-.07,2.33-.2,2.33c-.13,1.55-.25,3.11-.49,4.66a90.14,90.14,0,0,1-1.87,9.22,105.59,105.59,0,0,1-6.31,17.8,83.92,83.92,0,0,1-4.45,8.44c-.82,1.37-1.74,2.66-2.61,4s-1.88,2.56-2.82,3.85a75.88,75.88,0,0,1-13.45,13.47c-11,8.64-24.5,13.74-38.21,15.62a92.8,92.8,0,0,1-41.12-3.34,84.47,84.47,0,0,1-11.84-4.83c-1.94-.89-3.77-2-5.63-3-.93-.52-1.8-1.14-2.71-1.71s-1.8-1.14-2.65-1.79l-2.58-1.89c-.86-.63-1.65-1.35-2.48-2-1.68-1.32-3.2-2.83-4.76-4.28a80,80,0,0,1-8.36-9.66,84.69,84.69,0,0,1-9.64-16.74,92.62,92.62,0,0,1-5.74-18.43,95.06,95.06,0,0,1,.11-38.24A88,88,0,0,1,119.14,208a78.71,78.71,0,0,1,19.65-21.86A93.8,93.8,0,0,1,149.61,179a79.4,79.4,0,0,1,9.25-4.45,60.06,60.06,0,0,1,6.6-2.28,25.56,25.56,0,0,1,7.59-1.18,20.59,20.59,0,0,1,2.35.14c.82.2-.34.74-3.06,1.66s-7,2.34-12.24,4.65a92.26,92.26,0,0,0-21.9,13.53A75.17,75.17,0,0,0,121.43,211c-8.9,15.19-12.69,33.48-11.24,51.32A88.5,88.5,0,0,0,122,300.07a78.44,78.44,0,0,0,12.19,15.72,77.24,77.24,0,0,0,15.83,12Z"/><path class="cls-2" d="M237,373.77l0-.06a.67.67,0,0,1-.25-.31l-13.42-36.81a.61.61,0,0,1,0-.38.11.11,0,0,0,0-.08c-.09-.24-1-.12-2.11.27s-1.87.91-1.78,1.15c0,0,0,.05,0,.06a.8.8,0,0,1,.25.31l.54,1.5,12.88,35.31a.61.61,0,0,1,0,.38v.08c.09.24,1,.12,2.11-.27S237.07,374,237,373.77Z"/><path class="cls-2" d="M171.2,173s0,0,0,0a.28.28,0,0,1-.18-.15L164.66,153a.28.28,0,0,1,.07-.21s0,0,0-.05a4.49,4.49,0,0,0-2.05.39c-1.09.35-1.94.74-1.9.87l0,0a.28.28,0,0,1,.18.15l.26.8,6.06,19a.23.23,0,0,1-.07.22.09.09,0,0,0,0,0,4.58,4.58,0,0,0,2.05-.4C170.39,173.52,171.24,173.13,171.2,173Z"/><path class="cls-1" d="M246.43,379a22.34,22.34,0,0,0-10-2.1c-.62.06-1.24.14-1.87.22s-1.21.29-1.83.4a25.36,25.36,0,0,0-6.33,2.35,38.29,38.29,0,0,0-5.75,3.9,24.29,24.29,0,0,0-2.32,2.1c-.75.74-1.48,1.49-2.15,2.29l-1.3,1.53-1.26,1.58a34.65,34.65,0,0,1-2.69,3c-1.23,1.18-2.58-2.56-.54-5.08.91-1.1,1.82-2.19,2.82-3.23s2-2.05,3.07-3c.52-.5,1.09-.95,1.66-1.41s1.12-.93,1.72-1.35a42.89,42.89,0,0,1,13.83-6.36,23.93,23.93,0,0,1,11.86,1.08,25.73,25.73,0,0,1,3.36,1.37,27.52,27.52,0,0,1,3.17,1.69,26.59,26.59,0,0,1,4.47,3.1c1.39,1.15,2.7,2.36,4,3.55l6,5.43c.44.4.88.77,1.31,1.19,1.57,1.53,1.89,2.17,1.58,3.17a4.8,4.8,0,0,1-.23.67c-.34.66-1.42.44-2.71-.58-3.82-3-7.3-6.63-11-9.81a31.77,31.77,0,0,0-4.22-3.16l-2.31-1.32a6.84,6.84,0,0,0-1.18-.59l-1.2-.53Z"/><path class="cls-1" d="M93.64,248.35a107.63,107.63,0,0,0,1,23.38,100.51,100.51,0,0,0,6.12,22.6,97.45,97.45,0,0,0,7.75,15.24,100.75,100.75,0,0,0,8.91,12.15c.83.94,1.71,1.84,2.56,2.77l1.28,1.38,1.37,1.3,2.73,2.6,2.89,2.43c.95.84,2,1.58,3,2.33s2,1.53,3.06,2.22c2.1,1.38,4.19,2.8,6.41,4s4.46,2.37,6.71,3.51c1.14.54,2.31,1,3.47,1.52l1.74.75,1.78.65a95.1,95.1,0,0,0,26.21,5.72,120.88,120.88,0,0,0,34.14-2.59c3.47-.78,3.28.19.52,1.81a39.92,39.92,0,0,1-15.06,4.3,107.36,107.36,0,0,1-18.11.26c-1.51-.13-3-.17-4.52-.4l-4.51-.58c-3-.55-6-1.07-8.89-1.85a95,95,0,0,1-32.86-15.19,100.13,100.13,0,0,1-16.4-14.81,96.09,96.09,0,0,1-12.68-18.34A107.28,107.28,0,0,1,90,258.67a122.61,122.61,0,0,1,.57-15A120.62,120.62,0,0,1,93.21,229a98.49,98.49,0,0,1,20.47-40,101.69,101.69,0,0,1,26.75-21.83c2.22-1.27,4.42-2.44,6.74-3.55a58.43,58.43,0,0,1,9.44-3.61,11.33,11.33,0,0,1,4.54-.51,9.14,9.14,0,0,1,1.45.22c.53.22-.08.74-1.62,1.48s-4,1.74-7.08,3.09a112.22,112.22,0,0,0-26.21,15.83,87.78,87.78,0,0,0-20.4,23.59,98.71,98.71,0,0,0-9.43,21.48,106.53,106.53,0,0,0-4.13,23.19Z"/><path class="cls-1" d="M290.08,139.89c6.25-3.66,12.6-7.16,19.17-10.3,3.29-1.56,6.64-3,10.1-4.3a35.34,35.34,0,0,1,11.1-2.46,73.86,73.86,0,0,1,8.1.73c2.63.35,5.23.76,7.83,1.22,4.58.81,9.13,1.69,13.68,2.66,2.27.48,4.54,1,6.81,1.53.58.16,1.12.24,1.73.46s1.23.38,1.8.61c1.12.48,2.23,1,3.27,1.52,4.22,2.17,8.14,4.66,12.05,7.18l11.59,7.64c1.71,1.12,3.44,2.22,5.16,3.21l.65.35a3.68,3.68,0,0,0,.61.29c.2.08.37.18.59.25l.72.22,2.95.82,11.86,3.17c10.11,2.73,20.33,5.24,30.22,8.93,3.08,1.22,2.31,1.9-.56,1.8a60.1,60.1,0,0,1-13.7-2.44c-10.24-2.95-20.52-5.71-30.86-8.65l-1-.29-.5-.15-.26-.08-.31-.13c-.39-.17-.87-.35-1.18-.53l-1-.53c-1.23-.71-2.38-1.43-3.52-2.17-2.28-1.47-4.5-3-6.73-4.47-4.45-3-8.88-6-13.41-8.77a52,52,0,0,0-8.36-4.34,36.94,36.94,0,0,0-4.57-1.2c-1.59-.36-3.2-.7-4.81-1-6.46-1.3-13-2.47-19.46-3.46-1.77-.26-3.55-.51-5.32-.71a30.37,30.37,0,0,0-5.14-.26,39,39,0,0,0-10.05,2.66A162.2,162.2,0,0,0,300,138.19c-7.77,4.29-15.4,8.9-22.82,13.78-1.92,1.29-3.93,2.6-5.7,3.95a20.17,20.17,0,0,0-2.45,2.24c-.69.79-1.34,1.72-1.24,2.26a1.64,1.64,0,0,0,1.29,1.42,8.38,8.38,0,0,0,2.89.27,26.87,26.87,0,0,0,3.15-.4l.81-.14a1.63,1.63,0,0,0,.55-.19l1.51-.67L290,155.4l14.19-6.31,7.07-3.12,3.56-1.52c1.21-.49,2.37-1,3.75-1.41a19,19,0,0,1,7.27-.72,30.69,30.69,0,0,1,5.49,1.1c1.44.42,2.54.78,3.43,1.07,1.78.57,2.64.85,3.53,1.09a8.32,8.32,0,0,0,1.31.16c.28.06.33.23.08.52a3.41,3.41,0,0,1-.6.54,8.06,8.06,0,0,1-1.12.47,9.25,9.25,0,0,1-3.33.1,40.93,40.93,0,0,1-4.14-.83,26.56,26.56,0,0,0-6.45-.86A16.11,16.11,0,0,0,318,147c-4.3,1.76-8.66,3.69-13,5.6l-26.58,11.73-.69.31a3,3,0,0,1-.69.26l-.56.1-1.55.28a23.76,23.76,0,0,1-3.36.33,10.16,10.16,0,0,1-3.92-.6,5,5,0,0,1-1.13-.61,4.44,4.44,0,0,1-.55-.42c-.18-.18-.35-.36-.51-.55a5.33,5.33,0,0,1-.74-1.29,2.81,2.81,0,0,1-.19-.67l-.15-.75a5.24,5.24,0,0,1,.27-1.9,6.52,6.52,0,0,1,.67-1.35,11.14,11.14,0,0,1,1.5-1.9,25.77,25.77,0,0,1,3.26-2.87c2.22-1.59,4.39-3,6.6-4.48q6.63-4.32,13.42-8.35Z"/><path class="cls-1" d="M303.23,155.72a.23.23,0,0,0-.1.3,3.14,3.14,0,0,0,.87,1.09,9.39,9.39,0,0,0,1.05.62,18,18,0,0,0,4.63,1.88,12,12,0,0,0,2.31.33,7.49,7.49,0,0,1,3,.4c.6.3-.54,3.55-1.74,3.45a17.91,17.91,0,0,1-6.33-1.63c-1.22-.61-2.63-.89-3.92-1.67a8.54,8.54,0,0,1-2-1.62,6,6,0,0,1-.8-1.13,2.76,2.76,0,0,1-.31-.75,2.21,2.21,0,0,1-.18-.79,2.53,2.53,0,0,1,.08-1c0-.16.08-.33.13-.48l.23-.46a3.61,3.61,0,0,1,.48-.72,4.3,4.3,0,0,1,.52-.59,20.51,20.51,0,0,1,3.42-2.5c.87-.59,1.64-1.28,2.46-1.9.18-.14.34-.3.53-.42.7-.44,1-.35,1.63.37.13.17.28.32.4.5a1.35,1.35,0,0,1,0,1.75,24,24,0,0,1-4.25,3.3,15.48,15.48,0,0,0-1.38,1c-.1.08-.17.16-.26.24a1.36,1.36,0,0,0-.21.22c0,.07-.14.15-.15.19s0,0,0,0Z"/><path class="cls-1" d="M304.78,170.31a6.38,6.38,0,0,0,3.35,2.28,20,20,0,0,0,4.92.87,67.26,67.26,0,0,0,10.74-.4l4-.43a20.72,20.72,0,0,1,11.66,2.07c2.22,1,4.28,2,6.46,2.72a76.07,76.07,0,0,0,13.53,3.46,31.09,31.09,0,0,0,12.07-.54c5.1-1.21,9.89-3.4,14.73-5.54.75-.33,1.29-.3,1.39,0a2.49,2.49,0,0,1-.49,1.62,12.55,12.55,0,0,1-5.85,4.64,45.51,45.51,0,0,1-16.81,3.67l-2.21-.07c-.73-.06-1.47-.16-2.21-.24-1.45-.19-2.79-.47-4.18-.76a72.56,72.56,0,0,1-8.17-2.23c-1.61-.54-3.22-1.11-4.83-1.76s-3.18-1.35-4.71-2a24.22,24.22,0,0,0-4.53-1.49,19.35,19.35,0,0,0-4.64-.28c-3.56.25-7.35.78-11.13.92a47.92,47.92,0,0,1-5.74-.08,21.1,21.1,0,0,1-5.82-1.23,10,10,0,0,1-3.33-2.05A7.68,7.68,0,0,1,301,170a5.87,5.87,0,0,1-.15-2.18,5.47,5.47,0,0,1,.78-2.05,8.58,8.58,0,0,1,2.89-2.67,22.29,22.29,0,0,1,5-2.15,48,48,0,0,1,5.18-1.22c1.74-.32,3.48-.56,5.23-.74l1.32-.12a10.3,10.3,0,0,1,1.38,0,19.13,19.13,0,0,1,2.71.27c2.7.43,5.28.92,7.87,1.27a69.84,69.84,0,0,0,7.73.64h1.68l1.68-.06c1.05,0,1.9-.12,2.63-.12a11.62,11.62,0,0,1,1.8-.06,3.62,3.62,0,0,1,2.12.55,4.32,4.32,0,0,1,.74.49c.29.31,0,.7-.72,1.11a8.29,8.29,0,0,1-1.48.63c-.61.17-1.34.34-2.16.5a49.83,49.83,0,0,1-15-.34c-2.47-.37-4.94-.87-7.29-1.24-.58-.08-1.17-.18-1.69-.21a5,5,0,0,0-.74,0,4.8,4.8,0,0,0-.75,0c-1.17.09-2.37.22-3.56.39A42,42,0,0,0,308,165.17a8.37,8.37,0,0,0-3.47,2.38,1.64,1.64,0,0,0-.31,1.16,3.58,3.58,0,0,0,.59,1.54Z"/><path class="cls-1" d="M420.1,191.16q-4.31-1.84-8.69-3.54c-1.07-.41-2.17-.72-3.23-1.14-3.76-1.44-7.52-2.9-11.34-4.21-1.68-.59-3.42-1.07-5.13-1.52a54.46,54.46,0,0,1-6.53-1.78c-.64-.25-.43-1.05.33-1.7a4,4,0,0,1,1.5-.79,3.88,3.88,0,0,1,1.89,0A91.88,91.88,0,0,1,402.29,181c2.61,1.12,5.44,1.91,8.15,2.93,3,1.1,5.94,2.27,8.88,3.48,1.82.73,3.62,1.49,5.42,2.26,1.37.57,2.73,1.18,4.08,1.79l2,.91,2,.92c1.05.47,2.11.89,3.15,1.37s2.11.87,3.14,1.44c.45.24.92.45,1.37.7a5.06,5.06,0,0,1,1,.71,3.34,3.34,0,0,1,.59.64,1.35,1.35,0,0,1,.19,1.21,2.79,2.79,0,0,1-.17.6c-.31.59-1.25.57-2.35,0-3.42-1.67-7.24-3.34-11.06-5.06-2.86-1.24-5.74-2.5-8.67-3.67Z"/><path class="cls-1" d="M421.05,171.62a30.85,30.85,0,0,1-3.81,5.09,22.77,22.77,0,0,1-1.55,1.71A28,28,0,0,1,409,183c-1.07.53-2.15,1.05-3.27,1.5a8.86,8.86,0,0,1-4.56.93c-.5-.07-.45-.9-.14-1.74s.83-1.66,1.53-1.82A31,31,0,0,0,410,179a16.57,16.57,0,0,0,4-3.31,28.89,28.89,0,0,0,3.62-4.47,21.34,21.34,0,0,0,1.73-3.1,16.66,16.66,0,0,0,1.53-5.1,9.35,9.35,0,0,0-.51-3.87c-.1-.26-.22-.5-.3-.76-.37-.92-.35-1.25.3-1.88.15-.14.29-.3.44-.43.5-.43,1.26-.25,1.83.61A9.44,9.44,0,0,1,424,161a14.34,14.34,0,0,1-.41,4.54,23.53,23.53,0,0,1-2.47,6.09Z"/><path class="cls-1" d="M430.19,173.14l0,0,0,0,.21.12,1,.51,1.93,1,3.95,1.94,4,2c.67.34,1.35.68,2,1.06a15.81,15.81,0,0,1,2.19,1.39,4.29,4.29,0,0,1,.76.75,2.68,2.68,0,0,1,.52,1.05,2.74,2.74,0,0,1,.07.5,2.82,2.82,0,0,1-.06.62,2.3,2.3,0,0,1-.54,1,2.36,2.36,0,0,1-.59.49,2.82,2.82,0,0,1-.42.22,5.08,5.08,0,0,1-.74.2,2.5,2.5,0,0,1-.57,0,3.68,3.68,0,0,1-.48,0,12.32,12.32,0,0,1-2.64-.6c-1.54-.5-2.93-1.1-4.32-1.7-2.77-1.21-5.45-2.52-8.11-3.82-1.95-.94-3.9-1.88-5.83-2.75-1-.42-2-.87-2.77-1.13l-.23-.07s0,0,0,0h0l0-.16c0-.12,0-.24,0-.36s0-.25,0-.37v-.25c0-.26-.07,2.16,0,1.13h-.19s0,0,0,0l0-.17a3.37,3.37,0,0,0-.09-.34,1.73,1.73,0,0,0-.17-.5c-.11-.26-.24-.35-.23-.33a1,1,0,0,0,.57,0,3.21,3.21,0,0,0,.58-.16l.16-.06.1,0v0l.08.13a9.4,9.4,0,0,0,1.56,1.71c.32.29.65.57,1,.8a9.51,9.51,0,0,0,1,.55c1.61.81,3.37,1.58,5.1,2.37,3.47,1.58,7,3.14,10.4,5.08.85.49,1.71,1,2.55,1.6a15.73,15.73,0,0,1,1.26,1,5.87,5.87,0,0,1,1.25,1.49,2,2,0,0,1,.27.59,2.32,2.32,0,0,1,.14.79,2.29,2.29,0,0,1-.13.9,2.2,2.2,0,0,1-.44.78,2.93,2.93,0,0,1-1.28.88,4.06,4.06,0,0,1-1.12.18,9.8,9.8,0,0,1-3.31-.58,68.49,68.49,0,0,1-10.59-4.94c-3-1.62-5.94-3.32-8.89-4.88a21.54,21.54,0,0,0-2.11-1,5,5,0,0,0-1.93-.29,1.33,1.33,0,0,0-.52.14s0,0-.05,0l-.08-.09a.26.26,0,0,0-.1-.07s0,0,0,0h0l.11,0h.23a1.23,1.23,0,0,0,.27.48,4.21,4.21,0,0,0,.66.68,20.36,20.36,0,0,0,2.51,1.57c.91.52,1.86,1,2.8,1.5,1.9,1,3.83,1.91,5.76,2.84,3.86,1.85,7.74,3.69,11.6,5.42,2.38,1,1.82,1.83-.68,1.91a27.63,27.63,0,0,1-11.3-3c-2-1-4-1.94-6-3s-3.93-2.06-6-3.37l-.79-.54a11.44,11.44,0,0,1-.91-.76,7,7,0,0,1-1.53-2.12,4,4,0,0,1-.34-2.1,3.41,3.41,0,0,1,.41-1.33,4,4,0,0,1,.83-1,4.49,4.49,0,0,1,1.73-.88,6.39,6.39,0,0,1,1.41-.19,9.12,9.12,0,0,1,3.41.65c.34.14.64.28.91.41,1.08.54,2.05,1.08,3,1.62,3.87,2.17,7.64,4.38,11.48,6.34a44.71,44.71,0,0,0,5.75,2.54,9.86,9.86,0,0,0,1.33.36,4.05,4.05,0,0,0,.55.08h.25s0,0,0,0l0,.11.09.22a.62.62,0,0,0,.07.23,1.21,1.21,0,0,0,.15.22v0a.58.58,0,0,0,.13.1h0a.24.24,0,0,0-.12,0s-.06,0-.13,0l-.18,0a1.22,1.22,0,0,0-.33.14,1.45,1.45,0,0,1-.18.08v0a0,0,0,0,1,0,0,2.1,2.1,0,0,0-.28-.35,13.47,13.47,0,0,0-2.82-2.07c-1.09-.66-2.24-1.28-3.42-1.87-2.37-1.19-4.83-2.28-7.32-3.37l-3.76-1.66c-.63-.29-1.26-.57-1.93-.92l-.52-.28c-.17-.1-.42-.27-.58-.38-.32-.23-.61-.47-.9-.71a18.35,18.35,0,0,1-1.64-1.56,10.83,10.83,0,0,1-.79-1,4.8,4.8,0,0,1-.39-.66,3.11,3.11,0,0,1-.32-1.06,2.34,2.34,0,0,1,.07-.92,2.18,2.18,0,0,1,.58-1,2.61,2.61,0,0,1,1.32-.68,4,4,0,0,1,.86-.07,3.19,3.19,0,0,1,.91.11,16.68,16.68,0,0,1,2.18.8c5.56,2.49,10.77,5.3,16.18,7.59a32.27,32.27,0,0,0,4,1.45,7.2,7.2,0,0,0,.86.17h.22c0,.05,0,.13,0,.19a1.9,1.9,0,0,0,.14.4v0c0,.09-.27-.73-.14-.37l0,.06,0,.12a1.67,1.67,0,0,0,.12.23,1.83,1.83,0,0,0,.2.32c.11.09.08.09.15.12h-.07a.17.17,0,0,0-.1,0l-.17.06-.16.1-.23.15-.22.18a.57.57,0,0,1-.11.1h0l0,0-.11-.1a8.29,8.29,0,0,0-.76-.51c-2.4-1.41-5.19-2.65-7.86-4-1.4-.68-2.8-1.37-4.2-2.09l-2.14-1.14c-1-.57-2.06-1.16-3-1.78a13.56,13.56,0,0,1-4-3.65,4.39,4.39,0,0,1-.79-2,3.06,3.06,0,0,1,0-.6,1.77,1.77,0,0,1,0-.32c0-.05,0-.12,0-.16l.09-.07a3.45,3.45,0,0,1,.68-.4,20.09,20.09,0,0,1,3.44.18,46.9,46.9,0,0,1,5.66,1.49l4.28,1.39c2.64.86,5.28,1.73,7.92,2.44a26.07,26.07,0,0,0,3.89.79,5,5,0,0,0,.85,0,1.82,1.82,0,0,0,.31,0l.06,0s0,0,0,0l.07.11.1.14c.12.14.16.08-.07.05-.42,0-.21,0-.3-.1l-.11-.29-.18-.3a7.81,7.81,0,0,0-2.91-2,32.11,32.11,0,0,0-3.75-1.38c-4-1.24-8.2-2-12.4-3.21a13.76,13.76,0,0,1-3.24-1.37l-.43-.3-.45-.41a2.91,2.91,0,0,1-.73-1.38,2.47,2.47,0,0,1,0-.9,2.8,2.8,0,0,1,.22-.69A2.06,2.06,0,0,1,424,161a2.62,2.62,0,0,1,.46-.53,4.32,4.32,0,0,1,2.16-1,9,9,0,0,1,1.9-.11,22.6,22.6,0,0,1,3.39.42c1.91.36,3.71.79,5.53,1.26,3.37.89,5.51,1.45,7,1.79s2.11.56,2.85.8a2.19,2.19,0,0,0,1.11-.05c.27,0,.42.08.32.47a2.23,2.23,0,0,1-1.36,1.35c-1.61.73-3.86.61-6.45.14-3.83-.71-7.57-1.84-11.11-2.32a10,10,0,0,0-2.34-.07,1.64,1.64,0,0,0-.36.08s-.11,0-.12,0l0,0c-.22-.48-.56-.47.06-.26H427l-1-.26,0,0h-.09l.12,0s.33-.13.46-.26.13-.13.26-.23L427,162h0a3.67,3.67,0,0,0,.62.36,17.27,17.27,0,0,0,2.42.87c3.59,1.05,7.54,1.81,11.51,3a27.85,27.85,0,0,1,6.12,2.49,8.29,8.29,0,0,1,3.11,3,3.87,3.87,0,0,1,.29.65,5.49,5.49,0,0,1,.23.74,3.62,3.62,0,0,1,.06,1.23,3.29,3.29,0,0,1-.68,1.59,3.24,3.24,0,0,1-1.15.94,4,4,0,0,1-.93.33,6.12,6.12,0,0,1-1.29.14,17,17,0,0,1-3.66-.48c-1.1-.24-2.14-.52-3.17-.81-2.06-.59-4.06-1.23-6-1.87l-3-1-1.06-.34,0,0a1,1,0,0,0-.22-.09c-.13,0-.08.08-.05.1a.71.71,0,0,0,.18.15Z"/><path class="cls-1" d="M318.79,156.25a4.2,4.2,0,0,1-1.94-1.14,2.58,2.58,0,0,1-.51-.83,2.35,2.35,0,0,1-.11-1,3.94,3.94,0,0,1,.56-1.33,7.43,7.43,0,0,1,1.66-1.72c.31-.23.62-.45.95-.65s.42-.25.64-.38l1.21-.64,2.41-1.18a18.59,18.59,0,0,0,2-1.17,7,7,0,0,1,2.68-1.37c.65-.09,1.34,3,.38,3.56a32.07,32.07,0,0,1-5.42,2.48,6.86,6.86,0,0,0-1.59.83l-.55.38-.25.17a2.46,2.46,0,0,0-.65.51.29.29,0,0,0,0,.4,1,1,0,0,0,.34.21,4.18,4.18,0,0,0,.51.2l.29.09.08,0,.15,0,.31.07c1.27.28,2.55.66,3.83,1a28.52,28.52,0,0,1,3.05.92,4.27,4.27,0,0,1,.66.29c.79.46.88.84.47,1.61-.09.17-.18.35-.28.52a1.37,1.37,0,0,1-1.48.62c-1.53-.4-2.94-.89-4.57-1.31l-1.86-.45-1.12-.25c-.66-.13-1.32-.26-1.93-.43Z"/><path class="cls-1" d="M255,155.92c-1.27,2.71-.51,5.35,1.28,7.62.68.85,3.47-.19,2.68-1.18-1.43-1.82-2.28-4.06-1.24-6.29.63-1.34-2.27-1.1-2.72-.15Z"/><path class="cls-1" d="M248.12,152.29a8.1,8.1,0,0,0,1.86,11.8c.71.47,3.22-.69,2.72-1a7.61,7.61,0,0,1-1.94-10.94c.62-.8-2.18-.44-2.64.16Z"/><path class="cls-1" d="M155.43,377.8l-21.81-.37-8-.06-28-.67c-4.14-.09-8.31-.1-12.43-.09-5.29,0-10.6.16-15.88-.22-3.29-.23.93-3,7-3,10.8.07,21.58.3,32.46.79,6.51.29,13.28.21,19.94.31l22,.33,13.52.15c6.82,0,13.67.11,20.44,0,5.26-.08,10.42-.35,15.6-.63l3.41-.21c4.26-.22,5.56-.16,6.53.48a6.47,6.47,0,0,1,.7.42c.29.26,0,.58-.8.95a14.11,14.11,0,0,1-3.6.77c-9.35,1-19.17,1.09-29,1.17-7.32,0-14.68,0-22-.07Z"/><path class="cls-1" d="M338.64,376.86l-19.39-.51c-2.35-.06-4.71,0-7.07-.12l-24.9-.93c-3.69-.14-7.39-.19-11-.23-4.7-.06-9.42,0-14.1-.41-2.93-.28.87-3,6.27-2.89,9.59.2,19.17.54,28.83,1.14,5.77.36,11.79.34,17.7.49l19.51.48,12,.2c6.06.06,12.15.14,18.16,0,4.67-.09,9.25-.41,13.83-.76,1-.07,2-.2,3-.28,1.87-.16,3.1-.23,3.95-.22a4.37,4.37,0,0,1,1.07.15,2.64,2.64,0,0,1,.77.33,4,4,0,0,1,.65.4c.59.46-1,1.46-3.81,1.88-8.34,1.24-17.08,1.36-25.85,1.46-6.52.05-13.06,0-19.58-.12Z"/><path class="cls-1" d="M241.85,394.27l-5.64-.15-5.65-.06c-1.37,0-2.75.09-4.12.09-4.84,0-9.69,0-14.52.24-2.15.08-4.29.3-6.4.56-2.67.36-5.46.84-7.88,1.24-.75.11-1-.59-.56-1.5a4,4,0,0,1,1.31-1.39,5.55,5.55,0,0,1,2.12-.85,97.53,97.53,0,0,1,17-1c3.4.07,6.92-.19,10.39-.21,1.91,0,3.82,0,5.73,0s3.82,0,5.72.09c2.35,0,4.7.12,7.05.19,3.55.12,7.12.32,10.65.48l4.1.14c1.36,0,2.72.06,4.09.18.6.05,1.2.06,1.81.12,2.26.31,3,.68,3.26,1.52a2.72,2.72,0,0,1,.19.57c.07.63-.92,1-2.49.85l-14.84-.68-5.67-.21-5.69-.14Z"/></g></svg>