<svg id="Layer_1" data-name="Layer 1" xmlns="http://www.w3.org/2000/svg" width="520" height="520" viewBox="0 0 520 520"><defs><style>.cls-1{fill:#221f1f;}.cls-2{fill:none;stroke:#221f1f;stroke-miterlimit:10;stroke-width:2.33px;}.cls-3{opacity:0.7;}.cls-4{fill:#353333;}</style></defs><title>Notioly v2</title><g id="_45.Winter" data-name="45.Winter"><path class="cls-1" d="M193.11,328.88c0,1.68-.07,3.36,0,5,0,.61.18,1.2.23,1.8a33.06,33.06,0,0,0,1.1,6.32,15.59,15.59,0,0,0,1.06,2.65l.88,1.59a6.59,6.59,0,0,1,.74,1.67c.1.38-.53.7-1.28.75a2.14,2.14,0,0,1-2-.83,21.33,21.33,0,0,1-2.52-7.63c-.05-.4-.12-.8-.2-1.19s-.14-.8-.22-1.2c-.18-.8-.31-1.61-.41-2.41a47.33,47.33,0,0,1-.27-5.31c0-1.08,0-2.16,0-3.23,0-1.63.14-3.26.12-4.86,0-1.25-.19-2.47-.31-3.7,0-.27-.08-.54-.09-.81,0-1,.17-1.33,1-1.53a3.82,3.82,0,0,1,.56-.14,1.19,1.19,0,0,1,1.31,1.07,29.55,29.55,0,0,1,.46,6.85c0,1.72-.11,3.42-.11,5.12Z"/><path class="cls-1" d="M304.09,309.4l.76,3.16c.1.38.26.74.34,1.13.28,1.36.5,2.74.74,4.12a15.46,15.46,0,0,0,.45,1.78,5.39,5.39,0,0,1,.44,2.32c-.07.51-2.54.35-2.75-.48a23.79,23.79,0,0,1-.77-4.59,14.46,14.46,0,0,0-.71-2.79l-.84-3.07c-.18-.63-.35-1.27-.55-1.89a29.26,29.26,0,0,0-1-2.82c-.31-.71-.7-1.36-1.05-2a3.75,3.75,0,0,1-.24-.44.85.85,0,0,1,.38-1.19,3.05,3.05,0,0,1,.32-.22,1,1,0,0,1,1.19.23,10.4,10.4,0,0,1,2.25,3.69c.4,1,.73,2,1.07,3.07Z"/><path class="cls-1" d="M190.46,87.68c.8.15.18,1.09-1,2.84-.39.55-1.81,2-2.24,1.92a7.47,7.47,0,0,1-2.07-.26,10.47,10.47,0,0,1-2.17-2.11,18.83,18.83,0,0,1-2.37-3.62,9.3,9.3,0,0,1-.93-2.67,15.87,15.87,0,0,1-.21-2.93,24.78,24.78,0,0,1,.42-3l.41-1.46a7,7,0,0,1,.5-1.4l.62-1.33a8,8,0,0,1,.69-1.26c.51-.77,1-1.56,1.59-2.28a8.91,8.91,0,0,1,1.79-1.5l.83-.55c.28-.15.55-.31.81-.47.54-.32,1-.66,1.54-1,.27-.19.44-.34.79-.56l1-.64,1.08-.59,1.16-.52a5.49,5.49,0,0,0,1.65-.73,5.22,5.22,0,0,1,2.14-.5A11.91,11.91,0,0,1,205,66.12a23.36,23.36,0,0,1,3.66,6c.11.3.4.51.23.94a2.33,2.33,0,0,0,.28,2.07,7.9,7.9,0,0,1,.56,2.81,3.7,3.7,0,0,1-.71,1.7c-.32.51-1.59.21-1.73.13-.41-.29-1,0-1.51.06l-.54,0a6.4,6.4,0,0,1-1.69-1c-.85-.56-1.79-1.06-1.88-1.2s-.21-.27-.52-.61a14.44,14.44,0,0,0-1.24-1.15,5.47,5.47,0,0,0-2.09-1.15c-.2,0-.25-.26-.35-.46a1.24,1.24,0,0,0-.84.08c-.22.17-.28.4-.32.39s-.18.1-.32.15-.34,0-.93.07c-.21,0-.31.13-.43.24-.49.5-1.1.9-1.54,1.33-.24.21-.5.41-.76.61a5.46,5.46,0,0,0-.64.63,2.32,2.32,0,0,0-.51.72,5,5,0,0,1-.31.76c0,.08-.22.12-.28.2s-.21.17-.24.29a11.25,11.25,0,0,0-.35,1.82,3.15,3.15,0,0,0,.4,1.91,7.86,7.86,0,0,1,0,1.2,2.45,2.45,0,0,0,.24,1.29C190.84,86.16,190.11,87.6,190.46,87.68Z"/><path class="cls-1" d="M308.51,334.24c.18.76-.72,1.17-2.3,1.15-.5,0-1.63-.91-1.85-.91a3.77,3.77,0,0,1-.67-1.19,18.54,18.54,0,0,1,.14-2.18l.08-.85,0-.43.14-.71c.19-1,.37-1.84.49-2.43a16.1,16.1,0,0,1,2.37-6,6,6,0,0,1,1.65-1.47,3.64,3.64,0,0,1,.86-.38,9.75,9.75,0,0,1,1.05-.15h.19c0-.15,0,0,0-.07h.4a1.51,1.51,0,0,1,.47.09l.89.28a3.73,3.73,0,0,1,1.86,1.19,8.51,8.51,0,0,1,1.47,2.38c.72,1.65,1.38,3.28,2,4.89.46,1.22.92,2.44,1.39,3.67a2.06,2.06,0,0,0,.48.94,9.11,9.11,0,0,1,1,3.53,11.32,11.32,0,0,1,0,2.91,6.64,6.64,0,0,1-.64,2.18,12.1,12.1,0,0,1-1,1.35l-.86,1c-.57.66-1.13,1.31-1.7,1.93-.17.18-.23.44-.56.49-.77.12-1,.6-1.28,1a10.18,10.18,0,0,1-1.49,1.6,3.76,3.76,0,0,1-1.23.5c-.42.12-1-.61-1-.75,0-.41-.51-.47-.8-.68a2.62,2.62,0,0,1-.3-.24,23.42,23.42,0,0,1,.9-4.49l.43-.86c.25-.49.58-1.16.88-1.83a19.41,19.41,0,0,0,.75-1.81c0-.12,0-.15,0-.17l0,0-.05-.06s0-.07,0-.15a1.39,1.39,0,0,0,.14-.25,7.35,7.35,0,0,0-.44-1.71c-.31-.92-.75-1.91-.77-2-.09-.41-.27-.8-.4-1.21a2.26,2.26,0,0,1-.08-.3s0,0,0,0a1,1,0,0,0,.22-.17c.08-.08.05-.08,0-.09s-.05-.36-.16-.82c-.06-.22-.13-.21-.24-.22s-.05-.16-.08-.21-.07-.2-.09-.15a2.38,2.38,0,0,1-.27.49,1,1,0,0,0-.12.66c0,.06-.14.08-.33.19l-.06.05-.12.22-.22.42a3.13,3.13,0,0,0-.23.62C309.63,333.26,308.43,333.93,308.51,334.24Z"/><path class="cls-1" d="M309.87,333.53c-.25,0-.24-.19,0-.45s.65-.61,1.13-1.15c.13-.16.52-.39.87-.68s.66-.56.79-.55a3.4,3.4,0,0,1,.72.05,4.44,4.44,0,0,1,.59.08,27.19,27.19,0,0,1,2.35,2.06,4.91,4.91,0,0,1,1.16,1.65c.58,1.23,1.21,2.43,1.76,3.74a2.49,2.49,0,0,1,.17,1,6.64,6.64,0,0,0,.05.89l0,.22.07.34.15.67a8.74,8.74,0,0,1,.09,2.7,1.66,1.66,0,0,0,0,.94,1,1,0,0,1,0,.41c0,.2-.12.48-.17.66a8.49,8.49,0,0,1-.52,1.29,6.17,6.17,0,0,1-1.13,1.7c-.91.63-1.7,1.26-2.59,1.82-.13.07-.16.24-.44.18-.66-.16-.76.12-1,.32a4,4,0,0,1-1.31.7,1.13,1.13,0,0,1-.52,0,7.2,7.2,0,0,1-.71-.13c-.39-.13-.36-1.06-.37-1.16a.9.9,0,0,0-.11-.49l-.1-.26-.05-.13s0,0,0,0,0,.05,0,0a1.61,1.61,0,0,0-.14-.38,1.85,1.85,0,0,0-.23-.34s0-.08,0-.12,0-.18-.06-.31v-.4a5.24,5.24,0,0,1,.1-1.24,3.39,3.39,0,0,0,.21-.38c.13-.22.28-.53.44-.85a8.57,8.57,0,0,0,.57-1.48c0-.16.22-.22.37-.31a3.72,3.72,0,0,0,.24-1,1.78,1.78,0,0,0,0-.29s-.06,0-.08,0l-.08,0,.35-.07c.1,0,.06,0,0,0s0,0,0-.07l-.09-.26c-.06-.18-.11-.36-.16-.55l-.27-1.19a7.55,7.55,0,0,0-.53-1.16c0-.07,0-.17,0-.26a.65.65,0,0,0,0-.31,13.54,13.54,0,0,0-1.38-2.74c-.16-.18-.11-1.47-.32-1.66S310.08,333.56,309.87,333.53Z"/><path class="cls-1" d="M306.64,334.3c-.11-.06-.15-.13-.12-.2a.57.57,0,0,1,.28-.28,4.07,4.07,0,0,1,1.57-.4,15.78,15.78,0,0,1,2.07.08,4.23,4.23,0,0,0,1,.06,2.3,2.3,0,0,1,.58.41l.76.67a1.7,1.7,0,0,1,.59.95c.22.72.53,1.43.81,2.15a.86.86,0,0,1,0,.55,2,2,0,0,0,.33,1.78c.05.08.06.19.29.19s1,1.39,1,1.62a8.89,8.89,0,0,0-.2,1.69c0,.08.09.09-.09.28-.42.45-.25.5-.22.62a1.1,1.1,0,0,1,0,.6c0,.11-.22.4-.34.66a4,4,0,0,1-.79.92c-.27.13-.48.5-.71.79-.08.09-.18.22-.25.29a3.11,3.11,0,0,1-1.4-.09,3.94,3.94,0,0,1-1.28-.41l-.3-.32c-.18-.18-.41-.42-.62-.66-.45-.49-.86-1-1-1.08s-.05-.28,0-.44-1.23-1.48-1.23-1.55c-.1-.36-.46-.61-.1-1.14.07-.11,0-.17,0-.23a4.64,4.64,0,0,1-.45-1.81,5.59,5.59,0,0,0-.33-.89c0-.06,0-.14.05-.2s.07-.18,0-.24a13.24,13.24,0,0,0-.7-2.19c-.12-.15.3-1.18.17-1.38S306.82,334.37,306.64,334.3Z"/><path class="cls-1" d="M180.33,357.42c.62-.06.38.69.23,2.2-.05.49-.54,1.81-.85,1.89a5,5,0,0,1-1.77.2,9.11,9.11,0,0,1-2.43-1.42,13.81,13.81,0,0,1-2.65-2.72,7.74,7.74,0,0,1-1.18-2.31,7.91,7.91,0,0,1-.32-1.46,8.68,8.68,0,0,1,0-1.69,8.82,8.82,0,0,1,3-5.63,12,12,0,0,1,2.14-1.57,10.54,10.54,0,0,1,2.6-1.1,5.94,5.94,0,0,1,3.07-.07,11.67,11.67,0,0,1,1.22.42,7.88,7.88,0,0,1,.95.48c.38.22.77.41,1.17.6a19,19,0,0,0,2.46.9,1.37,1.37,0,0,0,.88.13c.56-.15,5,1.43,5.52,1.77,1.3.88,2.65,1.58,4,2.31.19.1.42.08.54.37.28.7.75.71,1.17.86l.87.31.81.37a1.24,1.24,0,0,1,.37.33,5.22,5.22,0,0,0,.32.42,1.5,1.5,0,0,1,.09,1.21c-.3.28-.05.7,0,1.06a1.71,1.71,0,0,1,0,.38,2.32,2.32,0,0,1-.85.35,15.1,15.1,0,0,1-1.66.34,11.94,11.94,0,0,1-2.59.2l-1-.19-2.06-.42c-1.52-.33-3.07-.69-3.4-.74a2.42,2.42,0,0,1-.91-.48c-.15-.08-4.61-1.13-4.77-1.22a5.76,5.76,0,0,1-2.52-1.33,1,1,0,0,0-.5-.26l-.58-.2-.44-.17s-.06,0-.1-.08-.1,0-.13-.08-.08,0-.17,0a1.57,1.57,0,0,0-.28.06,3.12,3.12,0,0,0-1.1.75c-.05.06-.18,0-.25.07s-.21.06-.25.12a1.34,1.34,0,0,0-.26.56.34.34,0,0,0,0,.17,1.43,1.43,0,0,0,.07.32,2.53,2.53,0,0,0,.4.73,8.47,8.47,0,0,1,.31,1,2.4,2.4,0,0,0,.52,1C180.17,356.27,180.06,357.42,180.33,357.42Z"/><path class="cls-1" d="M187.43,354.8c.38-.38.62.38.91,1.83a6.23,6.23,0,0,1-.07,2.07,4.86,4.86,0,0,1-.8,1,6.15,6.15,0,0,1-1.63.36,9.24,9.24,0,0,1-2.63,0,4.15,4.15,0,0,1-1.1-.3,5.16,5.16,0,0,1-.65-.34,5.56,5.56,0,0,1-.61-.43,5.09,5.09,0,0,1-.53-.48c-.1-.11-.18-.19-.29-.33a5.09,5.09,0,0,1-.34-.47,4.87,4.87,0,0,1-.36-.67l-.15-.39a3.16,3.16,0,0,1-.14-.55,4.46,4.46,0,0,1,.21-2.55,4.83,4.83,0,0,1,.28-.6,4.53,4.53,0,0,1,.3-.46c.11-.14.24-.31.33-.41l.29-.29.31-.26.24-.18a4.69,4.69,0,0,1,.47-.29,6.93,6.93,0,0,1,1.31-.56,14.19,14.19,0,0,1,1.74-.4,21.47,21.47,0,0,1,2.77-.24,3.78,3.78,0,0,1,1.28.21,6.59,6.59,0,0,0,3.33.49c.19,0,.38,0,.56-.18s3.33-.3,3.74-.14c1,.42,2,.67,3,1,.14.05.29,0,.43.22.31.59.62.49.93.53a4.49,4.49,0,0,1,1.3.35,2.61,2.61,0,0,1,.64.7,2,2,0,0,1,0,1.22c-.2.27,0,.69,0,1,0,.13,0,.29,0,.39a11.09,11.09,0,0,1-2.74,1.76l-1.91.28c-1,.15-2,.3-2.2.36s-.44-.07-.66-.15-3.08.46-3.21.43c-.62-.07-1.25.14-1.85-.41-.11-.11-.24-.08-.37-.07a7.18,7.18,0,0,1-.8,0l-.39,0h-.2s0-.29,0-.14v.14h-.09c-.36-.06-.84-.14-1.27-.18a5.22,5.22,0,0,0-1.23.13c-.07,0-.14-.06-.2-.09s-.16-.09-.23-.07l-.18.06h0l0-.07-.06-.14a7.85,7.85,0,0,0-.38-.93,3.76,3.76,0,0,0-.77-1.16c-.2-.21-.31-.14-.12-.16A1.67,1.67,0,0,0,184,355a2.78,2.78,0,0,0,.56-.4,4.07,4.07,0,0,0,.68-.63c.14-.13.27-.27.4-.41l.09-.1h0l-1,1.22h0l0,0,.09-.11.17-.24c.07-.15.25-.39.35-.59l.16-.33,0-.08h0l.05,0s.14.17.39.37a1.21,1.21,0,0,0,.69.35C186.83,354,187.26,355,187.43,354.8Z"/><path class="cls-1" d="M203.25,177.32c3.18,2.23,7.7,4.94,11.69,3.17,3.09-1.37,3.54-4.91,3.36-7.9-.09-1.48-3-1-2.93.24.1,1.62.28,4.36-1.06,5.58-2.26,2.06-6.92-1.4-8.82-2.73-1-.7-3.57.71-2.24,1.64Z"/><path class="cls-1" d="M224.89,171.51c3.06,2.11,6.93,4.39,10.72,2.76,3.15-1.35,4.2-4.79,4.46-7.93.13-1.56-2.83-1.2-2.94.19-.15,1.82-.49,4.47-2.18,5.59-2.46,1.62-5.88-1-7.84-2.34-1.11-.77-3.61.77-2.22,1.73Z"/><path class="cls-1" d="M183.43,97a41.06,41.06,0,0,0-7.5,8.07,54.94,54.94,0,0,0-5.35,9.76,81,81,0,0,0-5.27,21.89c-.21,2.76-.5,5.51-.51,8.29,0,1.38-.1,2.76-.08,4.15l.06,4.16c0,1.23,0,2.45.11,3.67l.19,3.67c0,1.23.17,2.45.27,3.67l.25,2.91,0,.28v.08h.06l.14,0,.28-.05a2.36,2.36,0,0,0,.39-.1c.57-.16,1.14-.3,1.71-.49l1.71-.58c2.26-.84,4.52-1.77,6.75-2.8,8.92-4.08,17.66-8.76,26.65-12.94A167.13,167.13,0,0,1,227.94,141a59.07,59.07,0,0,1,16.88-2.52,19.73,19.73,0,0,1,2.17.12c.72.07,1.44.09,2.16.21a31.18,31.18,0,0,1,4.26.95,18.55,18.55,0,0,1,2.07.68l2,.88a18,18,0,0,1,1.92,1.06,14,14,0,0,1,1.82,1.2c2.88,2.26,1.9,2.47-.85,1.35-.66-.32-1.54-.54-2.47-.88a31.42,31.42,0,0,0-3.15-1,14.25,14.25,0,0,0-1.82-.42c-.64-.11-1.27-.29-2-.38s-1.38-.18-2.09-.29-1.47-.11-2.22-.19a51,51,0,0,0-16.3,1.77,116.47,116.47,0,0,0-16,5.39c-10.47,4.28-20.62,9.55-31,14.51-3.12,1.47-6.29,3-9.57,4.32l-2.49,1-2.56.88-1.32.38-.83.24-1.08.22-2.16.45c-.26.13-.17-.19-.22-.34l0-.54-.12-1.1-.57-6c-.17-1.77-.22-3.56-.34-5.33l-.15-2.67,0-2.68c0-1.78-.1-3.56,0-5.34a105.26,105.26,0,0,1,2.87-23.28c.42-1.93,1.06-3.79,1.63-5.68.29-.94.69-1.85,1-2.77s.69-1.85,1.13-2.74a49.47,49.47,0,0,1,6-10.23,43,43,0,0,1,23.92-15.9,52.05,52.05,0,0,1,10.89-1.59,43.83,43.83,0,0,1,11,.85,36.86,36.86,0,0,1,10.32,3.87,42.78,42.78,0,0,1,8.86,6.45,65.22,65.22,0,0,1,10.59,13,96.34,96.34,0,0,1,7.52,14.86c.93,2.27,1.77,4.52,2.55,6.86a67.79,67.79,0,0,1,2.47,9.4,12.15,12.15,0,0,1,.15,4.38,6.79,6.79,0,0,1-.31,1.35c-.47.94-1.42-2.57-3.32-8.86a126.57,126.57,0,0,0-5-13.86,93.05,93.05,0,0,0-6.92-13.23,61.53,61.53,0,0,0-9.4-11.6,40.61,40.61,0,0,0-12.36-8.07,36.7,36.7,0,0,0-10.67-2.42L212,87.58c-.94,0-1.87,0-2.81.07a47.18,47.18,0,0,0-5.56.57,44.82,44.82,0,0,0-10.69,3.06A39.28,39.28,0,0,0,183.49,97Z"/><path class="cls-1" d="M205.46,218.66c-8.56,18.41-51.75,26.46-68.67,1.16-10.91-16.31,32.88-37.9,31.53-50.63a62.76,62.76,0,0,0,14.54-4.78c.58,0,.54,2.61.84,3.94-19.32,1-11.26,23.63,6,20.2C196.45,200.11,198.47,207.17,205.46,218.66Z"/><path class="cls-1" d="M170.2,170.69h-.11v.1c0,.09,0-.23,0,0l-.07.35-.14.68a7.88,7.88,0,0,1-.42,1.27,18.06,18.06,0,0,1-2.46,4.31,58.76,58.76,0,0,1-6.22,6.88c-4.36,4.24-8.9,8.15-13.13,12.32a61.07,61.07,0,0,0-8.27,9.74,19.34,19.34,0,0,0-2.36,4.81,9.17,9.17,0,0,0-.33,5,12.13,12.13,0,0,0,2.41,4.57,32.22,32.22,0,0,0,3.68,4.15c5.38,5.16,12.59,8.2,20,9.36a49.23,49.23,0,0,0,19.93-1.1,47.5,47.5,0,0,0,6.07-2,45.23,45.23,0,0,0,5.69-2.87,29,29,0,0,0,9.17-8.4c1.27-2.18,1.87-1.68,1.39.78a16,16,0,0,1-.75,2.08q-.3.57-.66,1.2l-.38.64-.45.62a19.92,19.92,0,0,1-5.25,4.95,50,50,0,0,1-26.43,7.65A48.68,48.68,0,0,1,157.35,236a38.73,38.73,0,0,1-12.61-6,35.51,35.51,0,0,1-6.24-5.71c-.45-.56-.95-1.07-1.36-1.65l-1.26-1.74a21.71,21.71,0,0,1-1.15-2c-.16-.35-.28-.73-.42-1.1a5.44,5.44,0,0,1-.33-1.13,14,14,0,0,1,1.29-8.93,35.07,35.07,0,0,1,4.75-7.16,144.93,144.93,0,0,1,13-12.92c2.22-2,4.44-4.09,6.55-6.2a46.28,46.28,0,0,0,5.77-6.68c.23-.38.49-.74.7-1.12l.59-1.15.44-1.17.11-.58.06-.3,0-.14V170l0-1.07v-.54s0-.11,0-.11l.13,0,.27-.05,1.05-.19.53-.1.45-.1c.89-.19,1.78-.41,2.66-.65,1.77-.48,3.52-1,5.24-1.66.86-.32,1.72-.64,2.56-1l.41-.18.48-.21.95-.42a3.45,3.45,0,0,1,.8-.14l.39-.05a.65.65,0,0,1,.37.18,4.1,4.1,0,0,1,.79,2.36l.12,1.22c0,.3.08.6.13.85l.24,1.11-1.12.05A15.14,15.14,0,0,0,177,171a7,7,0,0,0-3.56,5.32,9.36,9.36,0,0,0,1.92,6.41,11.43,11.43,0,0,0,2.43,2.48,11.68,11.68,0,0,0,3,1.72,14,14,0,0,0,6,1l.76-.06a8.64,8.64,0,0,0,.88-.11l1.11-.18.55-.09.14,0c.05,0,.06.07.09.1l.15.25,1.89,3.26c2.16,3.75,4.11,7.6,6,11.45l2.55,5c3.2,6.24,4.25,8.2,4.34,9.91a6.68,6.68,0,0,1,.05,1.14c-.14.89-2.15-1.29-4.79-5.82-3.92-6.74-7.06-14-11-20.81l-.74-1.29s0,0-.07-.05l-.33.07-1.67.12a16.82,16.82,0,0,1-6.7-1.12,15.5,15.5,0,0,1-5.76-3.82,15.1,15.1,0,0,1-2.11-2.83,13.37,13.37,0,0,1-1.32-3.35,10.31,10.31,0,0,1,.1-5.48A9.74,9.74,0,0,1,174,169.6a13.08,13.08,0,0,1,4.69-2.43,21.76,21.76,0,0,1,4.92-.8l-1.83,2.42a12.31,12.31,0,0,1-.2-1.35c0-.29,0-.2,0-.22h0s0-.06,0-.05h0l-.39.16c-.73.3-1.46.58-2.2.85-1.47.55-3,1-4.47,1.49-.75.22-1.51.43-2.27.63l-1.15.28-.79.18Z"/><path class="cls-1" d="M253.9,209.27c1.68-25.43-5.11-44.86-7.75-62.06,6.54.6,13.44-3.37,14.21-2.91-4.56,19.71,30.95,21.07,38.94,29.78C314.14,190.26,282.75,223.23,253.9,209.27Z"/><path class="cls-1" d="M294.43,172.81c-4.36-2.31-9.4-3.9-14.3-5.76s-9.95-3.81-14.47-7a21.15,21.15,0,0,1-4.49-4.24,13,13,0,0,1-2.53-5.86,10.88,10.88,0,0,1-.14-1.4l0-.7,0-.69a5,5,0,0,1,.11-.71c.09-.16-.1-.13-.19-.1l-.33.09-1.64.55a35.84,35.84,0,0,1-5,1.29,22.75,22.75,0,0,1-2.63.31h-.64l-.46,0c0,.09,0,.28,0,.42l.07.5c.12.83.27,1.66.42,2.49.28,1.67.61,3.33.92,5l2,10c1.16,5.87,2.27,11.81,3.05,17.72a101.74,101.74,0,0,1,.84,23c-.21,2.39-.95,2-1.59,0a43.1,43.1,0,0,1-1.35-10,164,164,0,0,0-2.49-22.88c-1.29-7.61-3-15.22-4.23-23-.12-.78-.24-1.56-.36-2.36-.18-1.23-.41-2.51-.56-3.71.88.07,1.8.15,2.68.18a10.85,10.85,0,0,0,1.27,0l.69,0a25.19,25.19,0,0,0,2.81-.44c.94-.21,1.88-.47,2.82-.77l1.41-.47,1.92-.68a5.3,5.3,0,0,1,2.21-.46,6.39,6.39,0,0,1,.85.17c.05,0,.2,0,.2.11l0,.23.06.46.11.91.05.46a4.14,4.14,0,0,1-.07.64,8.35,8.35,0,0,0-.12,1.27c0,.22,0,.46,0,.68a10.28,10.28,0,0,0,1.47,5.13,17.37,17.37,0,0,0,5.15,5.13,43.68,43.68,0,0,0,6.76,3.62c4.74,2.11,9.75,3.73,14.71,5.63a39.25,39.25,0,0,1,8.95,4.48,11,11,0,0,1,1.93,1.81,15.19,15.19,0,0,1,1.52,2.1,15.69,15.69,0,0,1,1.92,4.81,17.52,17.52,0,0,1-.27,7.73,26.07,26.07,0,0,1-3,7,32.69,32.69,0,0,1-4.6,6,40.59,40.59,0,0,1-27.15,12.51l-1.27,0-1.28,0a20.26,20.26,0,0,1-2.56-.22c-.79-.13-1.52-.2-2.18-.36l-1.78-.45a16.07,16.07,0,0,1-2.59-.95,9.5,9.5,0,0,1-.9-.44c-.25-.16-.48-.32-.67-.47a4.54,4.54,0,0,1-.9-.92,4.37,4.37,0,0,1-.58-.83c-.14-.39.42-.45,1.51-.22s2.72.7,4.83,1.18a33.52,33.52,0,0,0,19.22-1.42,37.78,37.78,0,0,0,16.1-11.55c3.05-3.85,5.34-8.49,5.41-13.17a12.4,12.4,0,0,0-1.71-6.54l-.44-.73-.54-.68-.53-.68-.57-.55a16.61,16.61,0,0,0-2.91-2Z"/><path class="cls-1" d="M191.47,139.5a79.44,79.44,0,0,0-6.38,5.12c-.76.67-1.45,1.41-2.22,2.08a88.24,88.24,0,0,1-8.56,6.78,48.5,48.5,0,0,1-4.2,2.62A12.67,12.67,0,0,1,164,158c-.69,0-.65-.85-.24-1.72a4.28,4.28,0,0,1,.83-1.24,2.55,2.55,0,0,1,1.24-.84c3.46-1.11,6.72-3.27,10.08-5.59a60.07,60.07,0,0,0,5.69-5c2.09-1.87,4.23-3.75,6.49-5.51,1.39-1.08,2.84-2.09,4.33-3.05a36.72,36.72,0,0,1,7.28-3.51,31.81,31.81,0,0,1,6.05-1.65c.46-.07.91-.13,1.38-.16a3.71,3.71,0,0,1,1.83.19,1.33,1.33,0,0,1,.75.89,3.12,3.12,0,0,1,.19.59c.09.66-.61,1.18-1.73,1.32a36.21,36.21,0,0,0-9.83,2.74,38.32,38.32,0,0,0-6.78,4.09Z"/><path class="cls-1" d="M193.63,65.57a14.47,14.47,0,0,0-10.89,6.07,14.74,14.74,0,0,0-2.55,5.5c-.12.5-.17,1-.26,1.52s-.07,1-.08,1.56a21,21,0,0,0,.21,3.18,9.5,9.5,0,0,0,2.11,4.91C183.65,90,185.81,91,188,92c.68.33.39,1-.49,1.52a4.11,4.11,0,0,1-3.88-.07,12.3,12.3,0,0,1-3.58-2.81,11.87,11.87,0,0,1-2.25-4,16.06,16.06,0,0,1-.76-4.26c0-.71,0-1.4,0-2.09s.09-1.43.21-2.13a18.81,18.81,0,0,1,4.13-9.4,18.35,18.35,0,0,1,9.55-5.67,23.11,23.11,0,0,1,3.41-.47l1.73,0c.57,0,1.14.15,1.71.22A15.59,15.59,0,0,1,206.6,68a21,21,0,0,1,4.16,6.69c.18.56.38,1.1.55,1.66.49,2.15.26,2.9-.46,3.39a3.57,3.57,0,0,1-.51.32c-.6.21-1.13-.58-1.5-1.92-1.15-4-3.29-7.85-6.62-10.23a13.9,13.9,0,0,0-1.93-1.16,12.9,12.9,0,0,0-2.11-.75l-.55-.15c-.18,0-.37,0-.56-.08-.37,0-.74-.12-1.12-.15a14.9,14.9,0,0,0-2.31.07Z"/><path class="cls-1" d="M258.06,143c-10.27,9.12-29.41,2.75-35.26,1.26C235.34,139.73,247.76,137.89,258.06,143Z"/><path class="cls-1" d="M230.82,143.84c-.14,0-.09,0-.13,0h-.19l-.35,0-.44.08-.27.06-.14,0s-.11,0-.07,0a2.24,2.24,0,0,0,.41.2,3.71,3.71,0,0,0,.46.13,4.79,4.79,0,0,1,.51.13l.13.05.39.1.85.22,1.71.4c1.14.26,2.29.49,3.44.68a42.6,42.6,0,0,0,6.93.62,22.73,22.73,0,0,0,6-.84,27.39,27.39,0,0,0,6.79-3.3c.66-.41,1.17.24,1.12,1.33a4.36,4.36,0,0,1-2.35,3.46,22.66,22.66,0,0,1-8.69,2.43,33.64,33.64,0,0,1-8.7-.48l-5.12-.92c-.86-.16-1.72-.33-2.57-.52l-1.72-.41c-.66-.15-1.36-.35-2-.52l-8.58-2.41.13-.08.27-.09.54-.18,1.08-.35,2.12-.7c1.4-.44,2.7-.9,4.11-1.29a66.48,66.48,0,0,1,8-1.91A57.23,57.23,0,0,1,245.1,139a41.41,41.41,0,0,1,8.22.79,14.11,14.11,0,0,1,1.79.43,6.22,6.22,0,0,1,2.21,1,1.57,1.57,0,0,1,.62,1.2,3.73,3.73,0,0,1,0,.66c-.11.67-1.14.79-2.6.38a45,45,0,0,0-13.85-1.28,60.44,60.44,0,0,0-10.67,1.7Z"/><path class="cls-1" d="M216.84,146.61c-7.68,15-34.1,17.31-34.14,17.06C192.58,158.77,204.6,151.73,216.84,146.61Z"/><path class="cls-1" d="M190.67,161.82c-2.38,1.17-4.76,2.32-7.18,3.44l-.79-1.6a.07.07,0,0,0,.07-.07.14.14,0,0,0,0-.06l0-.1a3.32,3.32,0,0,0,.06-.44c0-.2,0-.79,0-1.08h.22l.45,0,.93-.07c.64-.06,1.28-.13,1.91-.21,1.4-.19,2.78-.51,4.16-.77a56.05,56.05,0,0,0,14.18-4.49,26.43,26.43,0,0,0,5.46-3.59,35.78,35.78,0,0,0,5.35-6.15c.49-.69,1.2-.25,1.53.82a4.82,4.82,0,0,1-1,4.26,27,27,0,0,1-7.26,6.09,38.89,38.89,0,0,1-8.49,3.64,99.39,99.39,0,0,1-10.76,2.82q-1.67.3-3.36.51c-.56.07-1.13.13-1.7.18l-.87.07-.45,0h-.43l-.17,0-.11,0a.85.85,0,0,1-.24-.06,1.46,1.46,0,0,1-.4-.25,1.37,1.37,0,0,1-.44-.77l-.18-1,.9-.42c1.59-.75,3.19-1.51,4.78-2.3,2.19-1.08,4.39-2.18,6.58-3.3l9.95-5.05c2.56-1.33,5-2.77,7.53-4.1.56-.29,1.1-.6,1.67-.87,2.13-1,2.92-1.09,3.71-.51a3.11,3.11,0,0,1,.53.41c.46.52-.2,1.39-1.68,2.24-4.36,2.55-9.07,5-13.81,7.42l-10.66,5.48Z"/><path class="cls-2" d="M306.12,363.94c-1.54,1.27-3.24,2.52-5.07,3.76"/><path class="cls-1" d="M318.75,333.86a38.23,38.23,0,0,0-2.69-9.79,16.63,16.63,0,0,0-1.85-3c-1.2-1.6-2.75-2.69-4.52-2.46a3.26,3.26,0,0,0-.67.12,3,3,0,0,0-.59.18,2.54,2.54,0,0,0-.9.74,10.42,10.42,0,0,0-1.49,2.68,27.61,27.61,0,0,0-1.45,5.69c-.39,2.5-.5,5.06-1,7.56-.16.77-.91.63-1.59-.11a4.72,4.72,0,0,1-1.11-3.61,48.08,48.08,0,0,1,1.55-8,22.45,22.45,0,0,1,1.57-4,11.61,11.61,0,0,1,1.31-2,5.29,5.29,0,0,1,2.31-1.63,9.21,9.21,0,0,1,2.94-.39,7.26,7.26,0,0,1,2.91.84,10.84,10.84,0,0,1,3.94,3.87A32.71,32.71,0,0,1,321.18,331a59.75,59.75,0,0,1,.93,6.65c.07.85.12,1.7.14,2.55a15,15,0,0,1-.09,2.65,11.66,11.66,0,0,1-2.14,4.91,27.21,27.21,0,0,1-2.53,3.09,26.5,26.5,0,0,1-2.91,2.69c-.45.37-.89.73-1.38,1.06-1.82,1.21-2.67,1.31-3.4.76a2.28,2.28,0,0,1-.46-.4c-.32-.54.16-1.17,1.32-2a40.91,40.91,0,0,0,4.92-4.32,14.69,14.69,0,0,0,3.46-5.09c.07-.33.19-.65.24-1l0-.47a2.81,2.81,0,0,0,0-.54c0-.84,0-1.7-.08-2.55-.11-1.72-.31-3.44-.59-5.14Z"/><path class="cls-1" d="M180.35,342.88a20.35,20.35,0,0,1,6,.4,52.08,52.08,0,0,1,5.46,1.5c1.29.42,2.59.79,3.84,1.25,4.43,1.64,8.77,3.36,13.2,4.85,2,.67,4,1.21,6,1.71,2.56.63,5.17,1.08,7.68,2,1.56.55-1.09,2.88-4.12,2.17a99.13,99.13,0,0,1-15.64-5.08c-3-1.26-6.3-2.28-9.43-3.36a41.94,41.94,0,0,0-10.35-2.57,11.11,11.11,0,0,0-6,1.21,14.48,14.48,0,0,0-3.73,3,5.22,5.22,0,0,0-1.44,4.05,6.26,6.26,0,0,0,1.34,3.15,14.77,14.77,0,0,0,2.56,2.56c.45.32.86.65,1.32,1,1.65,1.21,2.15,1.66,2.1,2.59a4.29,4.29,0,0,1,0,.63c-.14.62-1.16.58-2.62-.2a17.32,17.32,0,0,1-5.9-5.1,9.51,9.51,0,0,1-1.63-4.25,7.91,7.91,0,0,1,1-4.73A11.52,11.52,0,0,1,172,347a17.89,17.89,0,0,1,2.41-2,13.84,13.84,0,0,1,6-2.22Z"/><path class="cls-1" d="M312.54,282.24c-1.4-4.95-3-9.84-4.82-14.62-.66-1.75-1.49-3.43-2.21-5.14a97.57,97.57,0,0,0-4.38-8.81,58.7,58.7,0,0,0-5.55-8,31.49,31.49,0,0,0-6.37-5.74,30,30,0,0,0-9.92-4c-1.08-.29-.9-1,.2-1.58a7.09,7.09,0,0,1,2.31-.62,10.51,10.51,0,0,1,3.16.49,28.85,28.85,0,0,1,10.24,6.75,46.17,46.17,0,0,1,7.2,9.57A118.5,118.5,0,0,1,309,263.27a150.36,150.36,0,0,1,5.33,14.86c1,3.09,1.81,6.2,2.65,9.31,1.25,4.72,2.34,9.5,3.46,14.21.88,3.65,1.86,7.21,2.77,10.81l.62,2.36c.71,3,.75,3.92.15,4.74a3.12,3.12,0,0,1-.41.56c-.5.44-1.33-.66-2-2.82-2-6.4-3.46-13.2-5.12-20-1.24-5-2.51-10.09-4-15.06Z"/><path class="cls-1" d="M197.86,438.14c0-2.39-.11-4.79-.21-7.18,0-.87-.17-1.74-.21-2.61-.13-3.08-.25-6.17-.46-9.25-.09-1.37-.28-2.74-.49-4.08a26,26,0,0,1-.61-5.2c.05-1.11,3.05-.12,3.33,1.9a71.48,71.48,0,0,1,.74,10.77c0,2.18.32,4.4.44,6.61q.21,3.64.31,7.3l.11,4.49c0,1.13,0,2.27.05,3.41s0,2.26,0,3.39c.06,1.75.23,3.48.31,5.23,0,.38.05.76,0,1.15,0,1.45-.27,1.9-1.07,2.14a3.44,3.44,0,0,1-.55.15c-.61.08-1.07-.53-1.18-1.56-.32-3-.41-6.22-.48-9.44-.06-2.39-.1-4.8-.2-7.21Z"/><path class="cls-1" d="M322.66,403.34l-1.7-8c-.2-1-.49-1.93-.69-2.91l-2-10.35c-.31-1.52-.7-3-1.11-4.53a31.46,31.46,0,0,1-1.33-5.82c-.09-1.25,3-.37,3.58,1.85a115.65,115.65,0,0,1,2.36,12c.34,2.43,1.06,4.87,1.6,7.31l1.76,8.06,1.11,4.95c.59,2.49,1.15,5,1.84,7.45.54,1.9,1.25,3.72,1.89,5.56.14.41.31.79.45,1.21.49,1.52.44,2.07-.22,2.62a5.19,5.19,0,0,1-.45.37c-.54.32-1.2-.17-1.7-1.26a65.15,65.15,0,0,1-3.46-10.38c-.7-2.67-1.32-5.36-2-8.05Z"/><path class="cls-1" d="M297.88,338.84c-10.36,5.75-24,9.34-37.47,12.3-9.6-47.23-32.61-81.83-32.74-82,0,0-23.18,4.16-30.83-8.25s6.23-39.46,16.9-32.47c4.43,2.9,26.69,15.45,36.5-6.38,3.87-8.63,20.45.71,24.73,12.24,5.31,14.33-.2,20.16-8.1,25.85C267,260.38,289.39,293.86,297.88,338.84Z"/><path class="cls-1" d="M248.24,228.9a20.44,20.44,0,0,1-6.35,5.32,19.71,19.71,0,0,1-8,2.11,27.26,27.26,0,0,1-8-.82,40.71,40.71,0,0,1-7.45-2.65c-1.19-.56-2.36-1.16-3.5-1.81-.57-.32-1.13-.67-1.69-1l-.41-.26-.33-.18a2.8,2.8,0,0,0-.65-.32A4.65,4.65,0,0,0,209,229a8.28,8.28,0,0,0-2.86,1.28,18.38,18.38,0,0,0-4.76,5,31.92,31.92,0,0,0-3.28,6.43,29.27,29.27,0,0,0-2,10.28,14.7,14.7,0,0,0,3,9.38,15.33,15.33,0,0,0,5.72,4.33,27.46,27.46,0,0,0,7.22,2.11,46.57,46.57,0,0,0,7.67.55c1.29,0,2.59-.07,3.88-.16l1.92-.18,1.14-.14,1.64-.26c.22.31.44.66.65,1l.61.95.77,1.25c.5.83,1,1.67,1.48,2.51,1,1.67,1.92,3.38,2.87,5.07,1.84,3.41,3.64,6.85,5.32,10.34,3.38,7,6.5,14.08,9.29,21.31a269.46,269.46,0,0,1,10.47,33.12l1.24,5.41.18.75.07.3s0,.13.07.1l.18,0,1.76-.42c3.58-.84,7.14-1.73,10.68-2.7a133.2,133.2,0,0,0,20.62-7.23c2-1,3-1.28,3.08-1s-.71,1.17-2.3,2.37c-3.14,2.43-9.69,5.89-17.95,8.22-3.65,1.05-7.33,2-11,2.86l-2.76.64-4.71,1.05c-.24-.87-.42-1.81-.63-2.73l-.45-2-.61-2.72c-.74-3.66-1.79-7.24-2.7-10.85-.49-1.8-1.06-3.58-1.58-5.38s-1.05-3.58-1.66-5.34A278.25,278.25,0,0,0,234,283c-1.15-2.22-2.33-4.43-3.58-6.63l-1.91-3.29-1-1.63-.37-.6a2.13,2.13,0,0,0-.16-.25l-.38.06-1.27.14q-1.28.14-2.55.21c-1.7.11-3.41.15-5.13.1a41.13,41.13,0,0,1-10.28-1.45,21.39,21.39,0,0,1-9.34-5.16,15.86,15.86,0,0,1-3.17-4.5,17.21,17.21,0,0,1-1.41-5.24,26.49,26.49,0,0,1,.34-8,35.13,35.13,0,0,1,2.31-7.58,31.9,31.9,0,0,1,4-6.88,17.81,17.81,0,0,1,6.16-5.36,8.56,8.56,0,0,1,4.3-.89,6.88,6.88,0,0,1,2.21.48l.53.2.49.27c.31.18.67.37.9.53a42.84,42.84,0,0,0,6.59,3.42c4.56,1.88,9.54,3,14.31,2.29a15.78,15.78,0,0,0,7.92-3.59,21.55,21.55,0,0,0,5.36-7.13l.51-1a8.32,8.32,0,0,1,.7-1.18,6,6,0,0,1,2.08-1.84,8.24,8.24,0,0,1,5.21-.72,21.21,21.21,0,0,1,8.93,4,28,28,0,0,1,9.25,11.3c.5,1.16.81,2.31,1.21,3.46a36.27,36.27,0,0,1,.84,3.57,20.1,20.1,0,0,1,.11,7.42,16,16,0,0,1-3.13,6.78,29,29,0,0,1-5.28,5.06l-.35.28-.21.16-.41.3-.21.15c-.05,0,0,.06,0,.09l.07.11.27.44.79,1.27.92,1.53c1.22,2,2.4,4.09,3.55,6.17q5.32,9.66,9.78,19.6c3,6.62,5.66,13.37,8,20.26.52,1.51,1,3,1.55,4.52l1.4,4.6c.41,1.44.83,2.75,1.14,4l.82,3.34c.47,2,.9,3.67,1.09,5.05a23.33,23.33,0,0,1,.4,5.69,14.18,14.18,0,0,1-.17,1.76c-.18.61-.65-.25-1.31-2.31s-1.45-5.35-2.66-9.52c-1.64-6.22-3.73-12.41-5.89-18.63s-4.73-12.37-7.49-18.47-5.75-12.16-9-18.08q-2.43-4.45-5.1-8.77l-1.27-2-.67-1.08-.09-.13s-.09-.1,0-.12l.26-.19L265,259l2.05-1.52,1-.8a28,28,0,0,0,3.49-3.26,13.22,13.22,0,0,0,3.11-5.82,16.8,16.8,0,0,0,.05-6.78,34.5,34.5,0,0,0-.82-3.49c-.4-1.13-.75-2.35-1.2-3.37a23.23,23.23,0,0,0-3.86-5.86,27.48,27.48,0,0,0-5.38-4.66,17.79,17.79,0,0,0-6.27-2.71,6.62,6.62,0,0,0-2.92,0,3.32,3.32,0,0,0-1.94,1.42c-.12.18-.21.4-.32.59l-.45.9a18.2,18.2,0,0,1-.95,1.8,25.67,25.67,0,0,1-2.3,3.43Z"/><path class="cls-1" d="M298.7,399.28c-1.12,6.12-6.15,11.56-8.36,11-2.83-.7.74-12.26-1-10.3s-16.64,27.91-12,10.06a.83.83,0,0,0-1.47-.7c-12.72,16.82-11.88-4-11.88-4a170.42,170.42,0,0,0,.46-19.78c12.72-4.79,26.57-11,36.62-17.82A153.58,153.58,0,0,1,298.7,399.28Z"/><path class="cls-1" d="M270.85,385l-3.07,1.17-1.39.51c-.05,0-.18,0-.16.09v2.36l0,3.29q0,3.3-.23,6.58l-.21,3.28-.26,3.2a24.79,24.79,0,0,0,.25,4.48,10,10,0,0,0,1.19,3.81,1.4,1.4,0,0,0,.75.61,2,2,0,0,0,1.12-.19,11,11,0,0,0,2.92-2.17,37,37,0,0,0,2.67-3l.32-.4a2.74,2.74,0,0,1,.34-.37,2.46,2.46,0,0,1,.57-.38,2.19,2.19,0,0,1,2.47.54,2.1,2.1,0,0,1,.55,1.26,2.25,2.25,0,0,1-.06.65l-.07.29-.23.87-.12.47-.09.39a3.86,3.86,0,0,0-.09.84c0,.14,0,.32.18.36a.5.5,0,0,0,.37-.12,3.56,3.56,0,0,0,.61-.56l.29-.32.36-.44c.42-.53.83-1.08,1.23-1.64.82-1.11,1.61-2.25,2.39-3.4l1-1.54,1.45-2.24c.51-.78,1-1.59,1.53-2.31a7.06,7.06,0,0,1,1.33-1.43,4.51,4.51,0,0,1,1-.73.36.36,0,0,1,.19,0,.26.26,0,0,1,.19.11,1.17,1.17,0,0,1,.16.28,4.58,4.58,0,0,1,.17.56,11.53,11.53,0,0,1,.24,1.5,16.5,16.5,0,0,1-.18,2.62c-.09.78-.17,1.56-.22,2.33l0,.57v.44c0,.23,0,.45,0,.67a2.19,2.19,0,0,0,0,.29l0,.15a1.67,1.67,0,0,0,.08.3.54.54,0,0,0,.45.38,1.07,1.07,0,0,0,.63-.19,3.37,3.37,0,0,0,.45-.31,4.62,4.62,0,0,0,.55-.46,15.28,15.28,0,0,0,2-2.23,20.6,20.6,0,0,0,2.81-5.43c.51-1.73,1.23-1.47,1.55.39a11.38,11.38,0,0,1-3,8.49,12.62,12.62,0,0,1-2.07,1.89,4.93,4.93,0,0,1-.73.47,3.43,3.43,0,0,1-1.09.47,2.78,2.78,0,0,1-1.08.22,5.68,5.68,0,0,1-1.09,0,3.47,3.47,0,0,1-2.43-2.81,5.79,5.79,0,0,1-.18-1c0-.23,0-.43,0-.65,0-.37,0-1,0-.81l0-.06c0-.13,0-.16-.08-.08l0,0,0,0-.3.44-1.21,1.78c-.82,1.18-1.65,2.35-2.53,3.51l-.67.87-.9,1.12a14.2,14.2,0,0,1-2.53,2.55,3.2,3.2,0,0,1-2.22.69,1.64,1.64,0,0,1-1.09-.61,2.73,2.73,0,0,1-.48-1,9.82,9.82,0,0,1,.27-4.37c.16-.78.32-1.37.44-1.83l.05-.19,0-.09v0h0l.41.11h0a.62.62,0,0,0,.18,0s-.1.07-.08.08,0-.13,0-.09a.46.46,0,0,0,.13.13l.32.25h0l0,0,0,0-.06.07-.12.15-1,1.2c-.67.78-1.35,1.56-2.09,2.32a15.78,15.78,0,0,1-2.51,2.1,5.76,5.76,0,0,1-3.69,1.14,3.77,3.77,0,0,1-2.09-.92,5.31,5.31,0,0,1-1.22-1.57,11.48,11.48,0,0,1-1.07-3.2,24.2,24.2,0,0,1-.41-3.45,23.59,23.59,0,0,1,0-3.46c.19-2.16.33-4.33.44-6.5s.17-4.35.19-6.52v-3.26l0-1.78,0-1.27V385c0-.1-.06-.25.09-.26l.59-.22,4.27-1.61,3.75-1.47c2.49-1,5-2,7.41-3.13,3.72-1.65,7.4-3.39,11-5.28,1.79-.95,3.57-1.92,5.3-3,.43-.26.87-.51,1.3-.78l1.6-1,1.82-1.19.91-.59.45-.3.12-.07v.4c0,1.12,0,2.22.08,3.33,0,.95,0,1.89.05,2.84,0,1.57,0,3.13,0,4.7,0,3.13-.15,6.25-.38,9.38-.1,1.38-.19,2.73-.34,4.12-.6,5.13-1.14,6.72-2.08,7.67a4.1,4.1,0,0,1-.66.62c-.69.38-.77-1.75-.41-5.45.52-5.49.86-11.14.95-16.86,0-1.44,0-2.87,0-4.31v-1.13c0-.13,0-.09,0-.1l0,0h0l0,0-.24.15c-1.27.79-2.56,1.56-3.86,2.29a193.85,193.85,0,0,1-24.06,11.23Z"/><path class="cls-1" d="M236.23,297a6.06,6.06,0,0,1,.2,1.3,2.25,2.25,0,0,1-4.18,1.28c-.68-1.22-1.35-4.81.43-5.52S235.78,295.29,236.23,297Z"/><path class="cls-1" d="M242.1,312a5.88,5.88,0,0,1,.2,1.3,2.24,2.24,0,0,1-4.17,1.27c-.69-1.21-1.36-4.8.43-5.51S241.65,310.28,242.1,312Z"/><path class="cls-1" d="M245.37,325.2a6.06,6.06,0,0,1,.2,1.3,2.25,2.25,0,0,1-4.18,1.28c-.68-1.22-1.35-4.81.43-5.51S244.92,323.46,245.37,325.2Z"/><path class="cls-1" d="M272,351.08a182.22,182.22,0,0,1-24.81,5l-4.58.57c-1.54.14-3.07.29-4.61.41l-4.08.16c-1.36,0-2.73,0-4.1,0l-8-.2c-5.36-.1-10.71-.1-16,.22a86.77,86.77,0,0,0-14,1.94l-2.19.53-2.14.64c-1.45.39-2.82,1-4.22,1.47a50.33,50.33,0,0,0-7.91,3.95c-1.56.94-1.86.23-.93-1.29a10.06,10.06,0,0,1,2.36-2.65,18.73,18.73,0,0,1,1.9-1.4c.73-.41,1.51-.8,2.35-1.18s1.5-.59,2.26-.87,1.51-.57,2.28-.79c1.55-.43,3.08-.92,4.65-1.23a81.17,81.17,0,0,1,9.4-1.56,143.73,143.73,0,0,1,18.89-.6c3.76.1,7.61.21,11.42.24,1.89,0,3.79,0,5.69-.16s3.79-.25,5.68-.41a170,170,0,0,0,24.7-4.2c2.52-.57,5-1.3,7.48-2s4.93-1.47,7.34-2.37l2.76-1,2.73-1.07c1.83-.68,3.6-1.49,5.38-2.28.89-.38,1.76-.82,2.63-1.26l2.59-1.32c.85-.47,1.67-1,2.51-1.46a27.76,27.76,0,0,0,2.44-1.53l2.53-1.73.67-.45.34-.23s.07-.07.07,0l0,.1.06.19.5,1.52c.74,2.36,1,3.43,1.45,5,.8,2.91,1.49,5.84,2,8.82.24,1.32.49,2.6.65,3.94.62,5,.33,6.62-.4,7.69a4.89,4.89,0,0,1-.52.7c-.63.46-1.06-1.52-1.5-5a126.27,126.27,0,0,0-3.21-15.81l-.55-2-.14-.49s0,0,0,0v0s0,0,0,0l0,0h0l-.19.13c-1.18.87-2.46,1.55-3.7,2.3s-2.54,1.41-3.83,2.07a130.11,130.11,0,0,1-24,9.06Z"/><path class="cls-1" d="M190.68,402.55c-2-.11-4.08-.19-6.12-.44-1-.11-2-.18-3.05-.32l-3-.47-1.52-.23-1.5-.32-3-.63a17.34,17.34,0,0,1-6.07-2.66,25.49,25.49,0,0,1-8-9.93,55.65,55.65,0,0,1-4-11.73,103,103,0,0,1-2.42-17.67,179.54,179.54,0,0,1,1.3-31.2,217.3,217.3,0,0,1,6-30.56,175.06,175.06,0,0,1,9.24-26.07c1.24-2.67,2.56-5.32,4-7.92a84.38,84.38,0,0,1,4.76-7.53,42.31,42.31,0,0,1,12.95-12.35c1.65-.91,2.49-1.05,2.56-.78s-.57,1-1.68,2.11-2.64,2.6-4.37,4.49-3.62,4.19-5.62,6.77a86.37,86.37,0,0,0-9,14.94,143.76,143.76,0,0,0-6.67,16.36,216.5,216.5,0,0,0-8.56,34.6,176.93,176.93,0,0,0-2.17,21.66,150,150,0,0,0,.68,21.94,86.08,86.08,0,0,0,2,11.78,47.56,47.56,0,0,0,4.1,11.07,27.87,27.87,0,0,0,3.26,4.79,17.2,17.2,0,0,0,4.36,3.59,16.39,16.39,0,0,0,5.4,1.81l2.93.61,3,.45a98.2,98.2,0,0,0,14.75,1,124.19,124.19,0,0,0,14.8-.92c14.91-1.75,29.58-5.75,43.76-10.43a246.82,246.82,0,0,0,31.76-13.26c2.24-1.14,4.41-2.32,6.61-3.57,4.09-2.3,6.69-3.94,8.55-5.05.93-.56,1.68-1,2.33-1.28a9.3,9.3,0,0,1,1.7-.7,9.57,9.57,0,0,1,1.39-.41c1.08-.16-1.53,2.89-7.41,6.8a170.83,170.83,0,0,1-28.41,14.39,282.42,282.42,0,0,1-31,10.51,201.92,201.92,0,0,1-24,5.24,131.64,131.64,0,0,1-24.63,1.57Z"/><path class="cls-1" d="M252.61,221.93a29.1,29.1,0,0,1-1.7,3.57c-.35.57-.73,1.12-1.1,1.68-.19.27-.36.56-.57.82l-.66.77a16,16,0,0,1-1.36,1.49l-1.54,1.34a16.44,16.44,0,0,1-1.67,1.15,10.17,10.17,0,0,1-1.76,1l-1.84.83c-.63.22-1.27.39-1.91.58a24.74,24.74,0,0,1-3.87.76,24.19,24.19,0,0,1-7.87-.36A28.56,28.56,0,0,1,216.42,231a43.17,43.17,0,0,1-7.34-6.45,68.67,68.67,0,0,1-6-7.53,111.41,111.41,0,0,1-9.39-16.64c-2.39-5.11-4.52-10.36-6.41-15.62a110.08,110.08,0,0,1-5.63-20.8c-.33-2.23.54-2.06,1.69-.38a31.34,31.34,0,0,1,3.67,8.76,178.54,178.54,0,0,0,6.86,20.41,136.72,136.72,0,0,0,9.55,19.34,60.8,60.8,0,0,0,7.91,10.39,38.76,38.76,0,0,0,10.25,7.9,31.48,31.48,0,0,0,3.21,1.4,23,23,0,0,0,3.36.86,23.32,23.32,0,0,0,3.45.36,21.28,21.28,0,0,0,3.46-.3c.58-.09,1.16-.16,1.73-.28l1.66-.49.83-.25.79-.36c.51-.25,1.05-.45,1.56-.73a18.33,18.33,0,0,0,5.16-4.5,25.05,25.05,0,0,0,3.78-7.77,42.59,42.59,0,0,0,1.64-8.73c.81-9,0-18.26-1.35-27.25-1-7-2.53-13.78-3.9-20.68-.31-1.51-.62-3-.9-4.54-1-5.72-1-7.65-.23-9a4.89,4.89,0,0,1,.5-.87c.63-.58,1.3,1.67,2.12,5.77,2.49,12.2,5.46,25.19,6.72,38.6a107,107,0,0,1,.45,15.11,66.21,66.21,0,0,1-.8,7.64,40.75,40.75,0,0,1-2.09,7.55Z"/><path class="cls-1" d="M224.43,175.44a21.81,21.81,0,0,1-.46-8.37l.25-1.54c.13-.51.27-1,.43-1.51a14.54,14.54,0,0,1,2.81-4.72,13.57,13.57,0,0,1,4.42-3.18,35.89,35.89,0,0,1,4.35-1.62,22.84,22.84,0,0,1,5.58-1.21c1.2,0,.31,3-1.79,3.5-3.7.85-7.16,1.57-9.8,3.65a10.08,10.08,0,0,0-3.1,5.41,16.73,16.73,0,0,0-.24,7.23,22.19,22.19,0,0,0,1.27,4.41,19.75,19.75,0,0,0,3.64,5.93,15.23,15.23,0,0,0,4.25,3c.34.16.7.25,1,.4a7.14,7.14,0,0,1,1.3.69,1.38,1.38,0,0,1,.42.95c0,.2.07.4.07.59,0,.63-.74.92-2,.7a13.25,13.25,0,0,1-5-2.48,18.56,18.56,0,0,1-2.14-1.92,22.94,22.94,0,0,1-1.79-2.25,24.74,24.74,0,0,1-3.54-7.68Z"/><path class="cls-1" d="M236.66,205a2.37,2.37,0,1,1-2.37-2.37A2.39,2.39,0,0,1,236.66,205Z"/><path class="cls-1" d="M214.19,163.74c-1,1.73-1.42,2-1.86,2q-2.12-.14-4.17-.12a20.15,20.15,0,0,0-3.48.15,10.82,10.82,0,0,0-5.19,2.44l-.33.25-.29.31q-.3.31-.57.63a2.65,2.65,0,0,0-.45.69l-.38.73c-.05.08,0,.2-.16.23a2.37,2.37,0,0,1-1.57-.8c-.1-.11-.28-.27-.25-.32.23-.42-.47-1.39-.12-1.85s.66-.82.95-1.28a6,6,0,0,1,2-2.11c.51-.25,1.06-.4,1.56-.62.16-.09.5-.22.95-.4a12.9,12.9,0,0,1,1.66-.59,18.28,18.28,0,0,1,4.57-.74,22.51,22.51,0,0,1,6.36.67C213.68,163.11,213.85,163.39,214.19,163.74Z"/><g class="cls-3"><path class="cls-1" d="M326.8,179.73c.84-.08,1.69-.15,2.53-.21a7.72,7.72,0,0,1,1.27-.06,5.17,5.17,0,0,1,1.26.27v.06a4.38,4.38,0,0,1-1.26.27,6.76,6.76,0,0,1-1.27-.06c-.84-.05-1.69-.12-2.53-.21Z"/><path class="cls-1" d="M329.36,177.23c.09.85.16,1.69.21,2.53a7.77,7.77,0,0,1,.06,1.27,4.81,4.81,0,0,1-.27,1.27h-.06A5.24,5.24,0,0,1,329,181a7.77,7.77,0,0,1,.06-1.27c.05-.84.12-1.68.21-2.53Z"/><path class="cls-1" d="M330.87,177.75c-.44.73-.88,1.45-1.35,2.16a6.68,6.68,0,0,1-.71,1.05,4.7,4.7,0,0,1-1,.85l0,0a5.08,5.08,0,0,1,.54-1.18,7.53,7.53,0,0,1,.81-1c.55-.64,1.11-1.28,1.68-1.9Z"/><path class="cls-1" d="M327.72,177.81c.61.59,1.21,1.19,1.79,1.8a7,7,0,0,1,.87.93,5,5,0,0,1,.61,1.14l-.05,0a5,5,0,0,1-1-.79,8.41,8.41,0,0,1-.77-1c-.51-.68-1-1.37-1.48-2.07Z"/><path class="cls-4" d="M328,179.84l1,0s.3,0,1.12,0c.22,0,.47,0,.54,0a8.07,8.07,0,0,1,.89,0c.23,0,.3,0,.32,0s.05-.05,0-.08,0,0,0,0-2.28,0-3.57,0h-1.14c-.23,0-.27,0-.27,0s0,.06,0,.06S327,179.8,328,179.84Z"/><path class="cls-4" d="M329.17,179.62a8.22,8.22,0,0,1,1.42-.06l.59.08a4,4,0,0,1,.5.12s0,0,0,0l-.1,0-.19.06a6.38,6.38,0,0,1-1,.13c-.45,0-1-.06-1.1-.07-.42,0-1.16-.06-1.8-.13a1.78,1.78,0,0,0-.66,0h0c-.05-.08-.05-.07-.07,0v0l.06,0h0a.17.17,0,0,0,.09,0l2.66.21a4.54,4.54,0,0,0,1.17,0c.2,0,.41,0,.61-.1l.3-.07c.06,0,.32-.07.31-.19s-.25-.17-.31-.2l-.29-.07-.58-.09a4.3,4.3,0,0,0-1.08,0l-1.34.11-1,.09c-.47,0-.56,0-.56.09s0,0,.1,0A19.24,19.24,0,0,0,329.17,179.62Z"/><path class="cls-4" d="M329.25,178.4c0,.54,0,1,0,1s0,.29,0,1.11c0,.23,0,.48,0,.55a6,6,0,0,1,0,.88c0,.23,0,.3,0,.32s.06.05.08,0,0,0,0,0,0-2.28,0-3.57c0-.25,0-.54,0-.66s0-.34,0-.48,0-.27,0-.27-.05,0-.05,0S329.29,177.44,329.25,178.4Z"/><path class="cls-4" d="M329.48,179.61a10.84,10.84,0,0,1,.06,1.42l-.08.59a4.15,4.15,0,0,1-.12.49s0,0,0,0l0-.1-.05-.19a6.13,6.13,0,0,1-.14-1c0-.45.07-1,.07-1.11,0-.42.07-1.16.13-1.8a1.92,1.92,0,0,0,0-.65v0h0c.08,0,.08-.05,0-.07h0l0,.07h0a.25.25,0,0,0,0,.09c0,.23-.1,1.21-.21,2.66a5.13,5.13,0,0,0,0,1.18q0,.3.09.6c0,.1.05.2.08.3s.07.32.19.32.17-.26.19-.31.06-.2.08-.3.06-.39.09-.58a4.31,4.31,0,0,0,0-1.08c-.05-.6-.09-1.06-.12-1.34l-.09-1c0-.46,0-.55-.09-.55s-.05,0,0,.09A16.4,16.4,0,0,0,329.48,179.61Z"/><path class="cls-4" d="M330.09,178.62c-.35.43-.61.79-.61.79s-.17.25-.66.9c-.14.18-.28.39-.32.44a8.13,8.13,0,0,1-.52.73c-.14.17-.16.24-.16.28s0,.07.07.05a.08.08,0,0,0,.05,0s1.35-1.84,2.12-2.87l.39-.53c.09-.11.19-.28.28-.39s.17-.21.13-.25,0,0-.07,0S330.69,177.87,330.09,178.62Z"/><path class="cls-4" d="M329.54,179.73a8.58,8.58,0,0,1-.8,1.17c-.25.26-.42.42-.42.42a1.82,1.82,0,0,1-.39.33s0,0,0,0l0-.1.07-.18a7.27,7.27,0,0,1,.5-.91c.28-.35.63-.73.72-.84.26-.33.75-.89,1.18-1.37a2.14,2.14,0,0,0,.41-.51v0h0c.09,0,.09,0,0-.05l0,0-.06,0h0a.15.15,0,0,0-.08,0l-1.76,2a4.8,4.8,0,0,0-.72.93c-.1.18-.2.36-.29.54l-.12.29c0,.06-.13.3,0,.37s.29-.1.34-.13l.23-.2a5.44,5.44,0,0,0,.42-.41,4.12,4.12,0,0,0,.64-.87c.32-.51.56-.91.71-1.14l.51-.83c.25-.39.3-.47.26-.5s-.05,0-.1.05A18.83,18.83,0,0,0,329.54,179.73Z"/><path class="cls-4" d="M328.39,178.77c.33.43.63.77.63.77s.21.22.73.85a5.22,5.22,0,0,0,.36.41,6.36,6.36,0,0,1,.58.67c.14.17.21.21.24.21s.07,0,.06-.05a.07.07,0,0,0,0,0s-1.48-1.73-2.32-2.71c-.16-.2-.36-.42-.43-.51s-.23-.25-.31-.36-.17-.21-.21-.18,0,0,0,.07S327.8,178,328.39,178.77Z"/><path class="cls-4" d="M329.34,179.55a10.05,10.05,0,0,1,1,1l.32.51a3.3,3.3,0,0,1,.23.45s0,0,0,0l-.09,0-.16-.12a6.33,6.33,0,0,1-.77-.69c-.29-.35-.57-.78-.66-.89-.26-.33-.7-.93-1.06-1.46s-.37-.49-.42-.51h0v0c0-.09,0-.09-.05-.06l0,0,0,.06h0a.4.4,0,0,0,0,.09l1.56,2.17a4.77,4.77,0,0,0,.74.91,5.72,5.72,0,0,0,.46.4,2,2,0,0,0,.26.18c.05,0,.26.2.35.12s0-.3,0-.36l-.14-.28c-.1-.17-.2-.34-.3-.49a4.51,4.51,0,0,0-.71-.82l-.95-.95-.7-.69c-.32-.33-.38-.4-.42-.36s0,0,0,.1A17.6,17.6,0,0,0,329.34,179.55Z"/></g><g class="cls-3"><path class="cls-4" d="M350.69,152.51a10.89,10.89,0,0,0,1.29.14,8.87,8.87,0,0,1,1.44.09,2,2,0,0,0,.71,0,3.82,3.82,0,0,1,1.14-.23,1.42,1.42,0,0,0,.41-.13c.07,0,.07,0,0-.06a.17.17,0,0,0-.06,0,4.14,4.14,0,0,0-.49-.16,6.76,6.76,0,0,0-1.2-.17,11.28,11.28,0,0,0-1.5.11l-1.42.11c-.32,0-.7.07-.85.07l-.61.06c-.3,0-.36,0-.36.05s0,0,.06,0A14.25,14.25,0,0,0,350.69,152.51Z"/><path class="cls-4" d="M352.28,150.56a12.21,12.21,0,0,0-.15,1.29,7.88,7.88,0,0,1-.08,1.44,2,2,0,0,0,0,.7,4.3,4.3,0,0,1,.24,1.15,1.22,1.22,0,0,0,.13.41c0,.06,0,.06.05,0l.05-.06a3.35,3.35,0,0,0,.15-.49,6.5,6.5,0,0,0,.17-1.19,13.17,13.17,0,0,0-.1-1.5c0-.51-.08-1-.11-1.42s-.07-.71-.07-.85l-.06-.62c0-.29,0-.35-.06-.35s0,0,0,.05S352.44,149.32,352.28,150.56Z"/><path class="cls-4" d="M353.37,150.8a10.57,10.57,0,0,0-.89.95,9.52,9.52,0,0,1-.93,1.1,2.28,2.28,0,0,0-.39.58,4.09,4.09,0,0,1-.49,1.06,1.27,1.27,0,0,0-.15.41c0,.07,0,.06.05,0l.06,0a3,3,0,0,0,.42-.31,5.64,5.64,0,0,0,.85-.85,12.06,12.06,0,0,0,.82-1.27l.76-1.2c.19-.26.36-.61.45-.72l.32-.53c.16-.25.19-.3.17-.32s0,0-.06,0S354.24,149.9,353.37,150.8Z"/><path class="cls-4" d="M351.18,151.09a10.5,10.5,0,0,0,.72,1.08,9.63,9.63,0,0,1,.87,1.16c.13.27.43.44.48.51a4.48,4.48,0,0,1,.92.72,1.09,1.09,0,0,0,.36.23c.07,0,.06,0,.05,0a.24.24,0,0,0,0-.07,3.34,3.34,0,0,0-.2-.48,5.82,5.82,0,0,0-.64-1,11.76,11.76,0,0,0-1.05-1.08l-1-1c-.2-.25-.51-.49-.6-.6l-.45-.44c-.2-.21-.24-.25-.27-.23s0,0,0,.06A13.06,13.06,0,0,0,351.18,151.09Z"/></g><g class="cls-3"><path class="cls-4" d="M376.13,155.78a10.68,10.68,0,0,0,1.29.14,10.84,10.84,0,0,1,1.44.09,1.94,1.94,0,0,0,.7,0,4,4,0,0,1,1.15-.23,1.58,1.58,0,0,0,.41-.13c.06,0,.06,0,0-.06l-.06,0a3.35,3.35,0,0,0-.49-.15,6.4,6.4,0,0,0-1.19-.18,11.16,11.16,0,0,0-1.5.11l-1.42.11c-.33,0-.71.07-.85.07l-.62.06c-.29,0-.35,0-.35.05s0,0,.05,0S374.89,155.61,376.13,155.78Z"/><path class="cls-4" d="M377.71,153.83a10.68,10.68,0,0,0-.14,1.29,10.84,10.84,0,0,1-.09,1.44,1.94,1.94,0,0,0,0,.7,4.32,4.32,0,0,1,.23,1.15,1.58,1.58,0,0,0,.13.41c0,.06,0,.06.06,0a.17.17,0,0,0,0-.06,3.35,3.35,0,0,0,.15-.49,6.4,6.4,0,0,0,.18-1.19,13.25,13.25,0,0,0-.11-1.5c0-.51-.08-1-.11-1.42s-.07-.71-.07-.85l-.06-.62c0-.29,0-.35,0-.35s0,0,0,0S377.87,152.59,377.71,153.83Z"/><path class="cls-4" d="M378.8,154.07a11.32,11.32,0,0,0-.88,1,11.22,11.22,0,0,1-.93,1.1,2,2,0,0,0-.4.59,4.2,4.2,0,0,1-.49,1,1.09,1.09,0,0,0-.14.41c0,.07,0,.06,0,0l.07,0a4.73,4.73,0,0,0,.41-.31,6.14,6.14,0,0,0,.86-.85c.3-.36.53-.84.81-1.26l.76-1.21c.2-.26.37-.61.45-.72l.32-.53c.16-.25.19-.3.17-.32s0,0-.06,0S379.67,153.17,378.8,154.07Z"/><path class="cls-4" d="M376.61,154.36a11.55,11.55,0,0,0,.73,1.08,9.15,9.15,0,0,1,.86,1.16c.13.27.43.44.48.51a4,4,0,0,1,.92.72,1.07,1.07,0,0,0,.37.23c.06,0,0,0,0,0V158s-.06-.2-.2-.48a7.33,7.33,0,0,0-.64-1,13.24,13.24,0,0,0-1.05-1.08l-1-1c-.21-.25-.51-.49-.61-.6l-.44-.43c-.21-.22-.25-.26-.27-.24s0,0,0,.06S375.94,153.31,376.61,154.36Z"/></g><g class="cls-3"><path class="cls-4" d="M351.62,173.52a3.41,3.41,0,0,0,.61.09,3.3,3.3,0,0,1,.69,0,.63.63,0,0,0,.33,0,1.64,1.64,0,0,1,.55-.14.36.36,0,0,0,.19-.08s0,0,0,0l0,0s-.09-.05-.24-.09a2,2,0,0,0-.56-.1,4.46,4.46,0,0,0-.72.06l-.67.07c-.16,0-.34,0-.41,0l-.29,0c-.14,0-.17,0-.17,0s0,0,0,0S351,173.43,351.62,173.52Z"/><path class="cls-4" d="M352.35,172.58a5,5,0,0,0-.09.61,2.5,2.5,0,0,1-.05.68,1,1,0,0,0,0,.34,1.57,1.57,0,0,1,.15.54,1.07,1.07,0,0,0,.07.2s0,0,0,0l0,0a.73.73,0,0,0,.09-.23,2.62,2.62,0,0,0,.11-.57,6,6,0,0,0-.06-.71c0-.24,0-.48-.07-.68s0-.33,0-.4l0-.3c0-.14,0-.16,0-.16s0,0,0,0S352.45,172,352.35,172.58Z"/><path class="cls-4" d="M352.87,172.68a4.22,4.22,0,0,0-.43.44,4.7,4.7,0,0,1-.45.51c-.12.09-.16.25-.19.28a1.43,1.43,0,0,1-.21.53.53.53,0,0,0,0,.2s0,0,0,0h0a.9.9,0,0,0,.21-.13,2.44,2.44,0,0,0,.43-.39,7,7,0,0,0,.37-.61l.35-.58a3.5,3.5,0,0,0,.21-.35l.15-.26c.07-.12.08-.14.07-.15s0,0,0,0S353.3,172.26,352.87,172.68Z"/><path class="cls-4" d="M351.83,172.84a5.46,5.46,0,0,0,.33.53,2.63,2.63,0,0,1,.41.55c.05.14.2.21.23.25a1.6,1.6,0,0,1,.46.32.9.9,0,0,0,.18.1s0,0,0,0a0,0,0,0,0,0,0,.77.77,0,0,0-.08-.24,2.09,2.09,0,0,0-.29-.5,4.72,4.72,0,0,0-.5-.5l-.49-.47c-.1-.12-.25-.23-.29-.28l-.22-.2c-.1-.1-.12-.12-.14-.11s0,0,0,0S351.53,172.33,351.83,172.84Z"/></g><g class="cls-3"><path class="cls-4" d="M305.28,94.82a5,5,0,0,0,.61.09,3.32,3.32,0,0,1,.69,0,.76.76,0,0,0,.33,0,1.64,1.64,0,0,1,.55-.14.49.49,0,0,0,.19-.08s0,0,0,0l0,0s-.09,0-.24-.09a2,2,0,0,0-.57-.1,4.44,4.44,0,0,0-.71.06l-.67.06c-.16,0-.34,0-.41,0l-.29,0c-.14,0-.17,0-.17,0s0,0,0,0S304.69,94.72,305.28,94.82Z"/><path class="cls-4" d="M306,93.87a5.31,5.31,0,0,0-.09.62,3.24,3.24,0,0,1-.05.68c0,.14,0,.29,0,.34a1.58,1.58,0,0,1,.14.54.76.76,0,0,0,.08.2s0,0,0,0l0,0s.05-.09.09-.23a2.62,2.62,0,0,0,.11-.57,6.25,6.25,0,0,0-.07-.72l-.06-.67a2.85,2.85,0,0,0-.05-.41l0-.29c0-.14,0-.17,0-.17s0,0,0,0S306.11,93.28,306,93.87Z"/><path class="cls-4" d="M306.53,94a5.8,5.8,0,0,0-.43.44,3.32,3.32,0,0,1-.45.52c-.12.09-.16.25-.19.28a1.39,1.39,0,0,1-.21.52.6.6,0,0,0-.05.21s0,0,0,0h0a.9.9,0,0,0,.21-.13,2.44,2.44,0,0,0,.43-.39,7,7,0,0,0,.37-.61l.35-.58c.09-.13.17-.3.21-.35l.15-.26c.07-.12.08-.14.07-.15s0,0,0,0S307,93.56,306.53,94Z"/><path class="cls-4" d="M305.49,94.14a4.77,4.77,0,0,0,.33.53,2.46,2.46,0,0,1,.4.55c.06.14.21.21.24.24a1.74,1.74,0,0,1,.46.33.9.9,0,0,0,.18.1s0,0,0,0v0a.77.77,0,0,0-.08-.24,2.25,2.25,0,0,0-.29-.5,4,4,0,0,0-.51-.5l-.48-.48c-.1-.11-.25-.22-.3-.28l-.21-.2c-.1-.1-.12-.11-.14-.1s0,0,0,0S305.19,93.63,305.49,94.14Z"/></g><g class="cls-3"><path class="cls-4" d="M360.11,127.92a3.41,3.41,0,0,0,.61.09,3.3,3.3,0,0,1,.69.05.63.63,0,0,0,.33,0,1.64,1.64,0,0,1,.55-.14.49.49,0,0,0,.19-.08s0,0,0,0l0,0s-.09-.05-.24-.09a2,2,0,0,0-.56-.1,4.46,4.46,0,0,0-.72.06l-.67.06c-.16,0-.34,0-.41,0l-.29,0c-.14,0-.17,0-.17,0s0,0,0,0S359.52,127.83,360.11,127.92Z"/><path class="cls-4" d="M360.84,127a5.31,5.31,0,0,0-.09.62,2.5,2.5,0,0,1-.05.68,1,1,0,0,0,0,.34,1.38,1.38,0,0,1,.14.54.76.76,0,0,0,.08.2s0,0,0,0l0,0a.73.73,0,0,0,.09-.23,2.62,2.62,0,0,0,.11-.57,4.49,4.49,0,0,0-.07-.71l-.06-.68c0-.15,0-.33,0-.4l0-.3c0-.14,0-.16,0-.17s0,0,0,0S360.94,126.38,360.84,127Z"/><path class="cls-4" d="M361.36,127.08a4.22,4.22,0,0,0-.43.44,4.7,4.7,0,0,1-.45.51c-.12.09-.16.25-.19.28a1.43,1.43,0,0,1-.21.53.53.53,0,0,0-.05.2s0,0,0,0h0a.9.9,0,0,0,.21-.13,2.44,2.44,0,0,0,.43-.39,7,7,0,0,0,.37-.61l.35-.58c.1-.13.17-.3.21-.35l.15-.26c.07-.12.08-.14.07-.15s0,0,0,0S361.79,126.66,361.36,127.08Z"/><path class="cls-4" d="M360.32,127.24a3.83,3.83,0,0,0,.33.53,2.63,2.63,0,0,1,.41.55c.05.14.2.21.23.25a1.42,1.42,0,0,1,.46.32.9.9,0,0,0,.18.1s0,0,0,0v0a.77.77,0,0,0-.08-.24,1.92,1.92,0,0,0-.29-.5,4.72,4.72,0,0,0-.5-.5l-.49-.47c-.1-.12-.25-.23-.3-.29l-.21-.2c-.1-.09-.12-.11-.14-.1s0,0,0,0S360,126.73,360.32,127.24Z"/></g><g class="cls-3"><path class="cls-1" d="M311,140.11c.05.52.09,1,.12,1.55a3.2,3.2,0,0,1-.12,1.56h0a3.33,3.33,0,0,1-.13-1.56c0-.51.08-1,.13-1.55Z"/></g><g class="cls-3"><path class="cls-4" d="M310.09,141.77a5.31,5.31,0,0,0,.62.09,3.24,3.24,0,0,1,.68,0,.83.83,0,0,0,.34,0,1.58,1.58,0,0,1,.54-.14.76.76,0,0,0,.2-.08s0,0,0,0l0,0s-.09-.05-.23-.09a2.16,2.16,0,0,0-.57-.1,4.44,4.44,0,0,0-.71.06l-.68.06c-.15,0-.33.05-.4.05l-.3,0c-.14,0-.16,0-.17,0l0,0S309.5,141.68,310.09,141.77Z"/><path class="cls-4" d="M311.35,140.93a4.29,4.29,0,0,0-.44.43,2.7,2.7,0,0,1-.45.52c-.12.09-.15.25-.18.28a1.83,1.83,0,0,1-.21.52.52.52,0,0,0-.06.21s0,0,0,0h0a1.08,1.08,0,0,0,.22-.13,2.84,2.84,0,0,0,.42-.39,5.25,5.25,0,0,0,.38-.61c.12-.21.24-.41.35-.58s.16-.3.2-.35l.15-.26c.08-.12.09-.14.08-.15s0,0,0,0S311.78,140.51,311.35,140.93Z"/><path class="cls-4" d="M310.31,141.09a3.83,3.83,0,0,0,.33.53,3,3,0,0,1,.4.55c.06.14.21.21.23.25a1.28,1.28,0,0,1,.46.32.83.83,0,0,0,.19.1s0,0,0,0a.1.1,0,0,0,0,0s0-.1-.08-.24a2.74,2.74,0,0,0-.29-.5,4.84,4.84,0,0,0-.51-.5l-.49-.48c-.1-.11-.25-.22-.29-.28l-.22-.2c-.1-.1-.12-.11-.13-.1s0,0,0,0S310,140.58,310.31,141.09Z"/></g><g class="cls-3"><path class="cls-4" d="M380.88,221.48a8.33,8.33,0,0,0-.51-.88,5.54,5.54,0,0,1-.62-.93c-.08-.22-.32-.35-.36-.4a2.55,2.55,0,0,1-.73-.56,1.07,1.07,0,0,0-.3-.17c-.06,0-.05,0-.05,0a.14.14,0,0,0,0,.07,3,3,0,0,0,.11.39,3.61,3.61,0,0,0,.44.84,8.85,8.85,0,0,0,.79.85c.28.28.54.56.77.8s.39.38.46.47l.34.34c.16.17.19.2.21.18s0,0,0,0S381.34,222.34,380.88,221.48Z"/><path class="cls-4" d="M378.92,221.5a6.53,6.53,0,0,0,.88-.5,6,6,0,0,1,.93-.62c.22-.08.35-.32.41-.36a2.5,2.5,0,0,1,.55-.73.82.82,0,0,0,.17-.3c0-.06,0-.05,0-.05h-.06a2.87,2.87,0,0,0-.4.11,3.9,3.9,0,0,0-.83.43,7,7,0,0,0-.85.8l-.8.77c-.2.15-.39.39-.48.46s-.23.25-.33.34-.2.19-.19.21,0,0,.06,0A10.16,10.16,0,0,0,378.92,221.5Z"/><path class="cls-4" d="M378.53,220.73a6.29,6.29,0,0,0,1,.12,6.24,6.24,0,0,1,1.11.06,1.17,1.17,0,0,0,.55,0,2.55,2.55,0,0,1,.88-.25,1,1,0,0,0,.32-.14s0,0,0-.05l-.05,0a3.18,3.18,0,0,0-.38-.14,3.76,3.76,0,0,0-.93-.15,7.92,7.92,0,0,0-1.16.13l-1.1.13c-.25,0-.54.09-.66.09l-.47.07c-.23,0-.27,0-.27.06s0,0,0,0S377.56,220.59,378.53,220.73Z"/><path class="cls-4" d="M379.79,221.89a6.3,6.3,0,0,0,.34-.95,5.57,5.57,0,0,1,.32-1.07,1.36,1.36,0,0,0,.07-.54,2.48,2.48,0,0,1,0-.92.94.94,0,0,0-.06-.34s0,0-.06,0l-.05,0a3.16,3.16,0,0,0-.23.35,4.11,4.11,0,0,0-.35.87,7.08,7.08,0,0,0-.14,1.16c0,.39-.08.77-.11,1.1s0,.55-.07.66,0,.34,0,.48,0,.27,0,.28,0,0,0,0A9.49,9.49,0,0,0,379.79,221.89Z"/></g><g class="cls-3"><path class="cls-4" d="M355.56,240.83a6.79,6.79,0,0,0-.5-.87,5.08,5.08,0,0,1-.62-.94c-.08-.22-.33-.35-.37-.4a2.85,2.85,0,0,1-.73-.55.79.79,0,0,0-.3-.18c-.06,0,0,0,0,0a.21.21,0,0,0,0,.06,2.41,2.41,0,0,0,.12.39,3.94,3.94,0,0,0,.43.84,7.86,7.86,0,0,0,.8.85l.76.8c.16.19.39.38.47.47l.34.34c.15.17.19.2.21.18s0,0,0-.05S356,241.69,355.56,240.83Z"/><path class="cls-4" d="M353.61,240.85a6.79,6.79,0,0,0,.87-.5,5.87,5.87,0,0,1,.94-.62c.22-.08.35-.32.4-.36a2.55,2.55,0,0,1,.56-.73,1.07,1.07,0,0,0,.17-.3c0-.06,0-.05,0-.05h-.06a3,3,0,0,0-.39.11,3.94,3.94,0,0,0-.84.43,10.5,10.5,0,0,0-.85.8c-.28.28-.56.54-.8.77s-.38.39-.47.46-.24.25-.34.34-.2.19-.18.21,0,0,.05,0A10.68,10.68,0,0,0,353.61,240.85Z"/><path class="cls-4" d="M353.21,240.08a6.41,6.41,0,0,0,1,.12,6.34,6.34,0,0,1,1.12.06,1.32,1.32,0,0,0,.54,0,2.4,2.4,0,0,1,.88-.26.85.85,0,0,0,.32-.14c.05,0,.05,0,0,0l0-.05a3.93,3.93,0,0,0-.39-.14,4.2,4.2,0,0,0-.93-.15,8.08,8.08,0,0,0-1.16.13l-1.1.13c-.24,0-.54.09-.65.09s-.34.06-.48.07-.27,0-.27.06,0,0,0,0A8,8,0,0,0,353.21,240.08Z"/><path class="cls-4" d="M354.47,241.24a7.18,7.18,0,0,0,.35-1,5.09,5.09,0,0,1,.31-1.07,1.06,1.06,0,0,0,.07-.54,3,3,0,0,1-.05-.92.94.94,0,0,0-.06-.34s0,0,0,0l-.05,0a1.87,1.87,0,0,0-.23.34,3.62,3.62,0,0,0-.36.87,8.39,8.39,0,0,0-.13,1.16c0,.39-.08.77-.12,1.1s0,.55-.06.66,0,.34,0,.48,0,.27,0,.28,0,0,0,0S354.12,242.15,354.47,241.24Z"/></g><g class="cls-3"><path class="cls-4" d="M383.41,197.44a7.42,7.42,0,0,0-.5-.88,4.27,4.27,0,0,1-.62-.93c-.09-.22-.33-.35-.37-.4a2.69,2.69,0,0,1-.73-.56.84.84,0,0,0-.3-.17c-.06,0,0,0,0,0a.21.21,0,0,0,0,.06,3,3,0,0,0,.11.39,4,4,0,0,0,.44.84,7.86,7.86,0,0,0,.8.85l.76.8c.15.19.39.38.46.47s.26.24.35.34.19.2.21.18,0,0,0-.05S383.87,198.3,383.41,197.44Z"/><path class="cls-4" d="M381.46,197.46a6.79,6.79,0,0,0,.87-.5,6,6,0,0,1,.93-.62c.23-.08.35-.32.41-.36a2.69,2.69,0,0,1,.55-.73,1.35,1.35,0,0,0,.18-.3c0-.06,0,0,0,0a.11.11,0,0,0-.06,0,3,3,0,0,0-.39.11,3.94,3.94,0,0,0-.84.43,7.86,7.86,0,0,0-.85.8l-.8.77c-.19.15-.38.39-.47.46l-.34.34c-.17.16-.2.19-.18.21s0,0,.05,0A10.68,10.68,0,0,0,381.46,197.46Z"/><path class="cls-4" d="M381.06,196.69a6.41,6.41,0,0,0,1,.12,6.35,6.35,0,0,1,1.12.06,1.32,1.32,0,0,0,.54,0,2.4,2.4,0,0,1,.88-.26.85.85,0,0,0,.32-.14s.05,0,0-.05l-.05,0a3.18,3.18,0,0,0-.38-.14,3.68,3.68,0,0,0-.93-.15,8.08,8.08,0,0,0-1.16.13l-1.1.13c-.25,0-.54.09-.65.09s-.34.06-.48.07-.27,0-.27.06,0,0,0,0S380.09,196.55,381.06,196.69Z"/><path class="cls-4" d="M382.32,197.85a7.18,7.18,0,0,0,.35-.95,4.22,4.22,0,0,1,.31-1.07,1.36,1.36,0,0,0,.07-.54,2.71,2.71,0,0,1-.05-.92.94.94,0,0,0-.06-.34c0-.05,0-.05-.05,0l-.06,0a2.29,2.29,0,0,0-.22.34,3.62,3.62,0,0,0-.36.87,8.39,8.39,0,0,0-.13,1.16c-.05.39-.09.77-.12,1.1s0,.55-.06.66,0,.34,0,.48,0,.27,0,.28,0,0,0,0S382,198.76,382.32,197.85Z"/></g><g class="cls-3"><path class="cls-4" d="M361.24,206.81a4.42,4.42,0,0,0-.31-.54,2.49,2.49,0,0,1-.38-.57c-.06-.13-.2-.21-.23-.25a1.45,1.45,0,0,1-.44-.34.69.69,0,0,0-.19-.11s0,0,0,0a.1.1,0,0,0,0,0s0,.11.08.24a2.24,2.24,0,0,0,.26.51,6,6,0,0,0,.49.53l.47.49c.1.12.24.24.28.29s.11.1.21.21.12.12.13.11,0,0,0,0S361.52,207.33,361.24,206.81Z"/><path class="cls-4" d="M360,206.82a4.42,4.42,0,0,0,.54-.31,3,3,0,0,1,.57-.38c.13,0,.21-.2.25-.22a1.48,1.48,0,0,1,.34-.45.74.74,0,0,0,.11-.18s0,0,0,0h0a.81.81,0,0,0-.24.07,2,2,0,0,0-.51.27,4,4,0,0,0-.53.49l-.49.46a3.87,3.87,0,0,0-.29.29l-.21.21c-.1.09-.12.11-.11.13s0,0,0,0S359.52,207.11,360,206.82Z"/><path class="cls-4" d="M359.8,206.34a4,4,0,0,0,.61.08,4,4,0,0,1,.69,0,.72.72,0,0,0,.33,0,1.92,1.92,0,0,1,.54-.15.76.76,0,0,0,.2-.08s0,0,0,0l0,0s-.09,0-.24-.09a2.52,2.52,0,0,0-.57-.09,6.17,6.17,0,0,0-.71.08l-.67.08c-.16,0-.34,0-.41.06l-.29,0c-.14,0-.16,0-.17,0h0A6.86,6.86,0,0,0,359.8,206.34Z"/><path class="cls-4" d="M360.57,207.06a4,4,0,0,0,.21-.58,3.12,3.12,0,0,1,.19-.66.78.78,0,0,0,0-.33,1.49,1.49,0,0,1,0-.57.43.43,0,0,0,0-.2s0,0,0,0l0,0a1.24,1.24,0,0,0-.14.21,3.55,3.55,0,0,0-.22.53,5.47,5.47,0,0,0-.08.72c0,.24-.05.47-.07.67s0,.34,0,.41l0,.29c0,.14,0,.17,0,.17s0,0,0,0S360.35,207.62,360.57,207.06Z"/></g></g></svg>