<svg id="Layer_1" data-name="Layer 1" xmlns="http://www.w3.org/2000/svg" width="520" height="520" viewBox="0 0 520 520"><defs><style>.cls-1{fill:#221f1f;}.cls-2{fill:none;stroke:#221f1f;stroke-linecap:round;stroke-linejoin:round;stroke-width:3px;}.cls-3{fill:#232020;}</style></defs><title>Notioly v2</title><g id="_58.Spring" data-name="58.Spring"><path class="cls-1" d="M166.07,356.89c3.35,19.58,16.45,36.51,6.42,36.32-4.82-.1-3.8-7.53-8.27-11.55C164.22,381.66,172.45,383.84,166.07,356.89Z"/><path class="cls-1" d="M303.43,270.77c-.4,8.5-.63,41.16-7.58,45.35-3.81,3.12-6.23-9.39-6.59-12.35C289.26,303.77,301.07,309.31,303.43,270.77Z"/><path class="cls-2" d="M330.25,391.24c5.54,0,8.41-7.56,10.69-10.4"/><path class="cls-1" d="M351.07,383.39c-.3-.27-.61-.54-.94-.79-.13-.09-.28-.11-.4-.21-.42-.34-.82-.73-1.27-1.05a1.65,1.65,0,0,0-.66-.25c-.3,0-.66,0-.82-.37s1.14-2.81,1.5-2.7a3,3,0,0,1,1.6,1.19c.26.38.68.43,1,.65s.73.52,1.08.79l.66.5a8.18,8.18,0,0,0,1,.71c.29.16.68.17,1.05.32a1.6,1.6,0,0,1,.26.08c.3.23.24.46-.32,1-.13.12-.25.25-.39.36a4.4,4.4,0,0,1-1.08.73,1.54,1.54,0,0,1-1.39-.25c-.32-.18-.62-.43-.95-.65Z"/><path class="cls-1" d="M379.59,398.49c.17.51.34,1,.53,1.52.07.18.22.32.29.51.23.64.43,1.32.72,1.93a2.23,2.23,0,0,0,.53.69c.28.24.65.34.65.76a3.79,3.79,0,0,1-1.06,1.2c-.56.48-1.27.8-1.49.58a4.2,4.2,0,0,1-1.25-2.46,5,5,0,0,0-.68-1.41c-.23-.52-.43-1.05-.64-1.57-.13-.32-.24-.65-.38-1a10.57,10.57,0,0,0-.65-1.41,5.56,5.56,0,0,0-.87-.88c-.06-.07-.15-.12-.2-.19-.19-.27-.06-.45.61-.86l.46-.28a1.69,1.69,0,0,1,1.29-.28A3.41,3.41,0,0,1,379,397c.26.48.45,1,.68,1.47Z"/><path class="cls-1" d="M285.75,423.84l.26-.4.08-.11,0,0h0l.17,0c.27,0,.37.09.54.1s.38,0,.44,0c.22,0,.33-.13.26-.05s0,0,0,.06a.32.32,0,0,0,0,.14c0,.07,0,.23,0,.39s.08.28.13.52l0,.15c0,.06,0,0,0,0h0c-.08,0-.22.13-.4.18a13.92,13.92,0,0,0-2.17,1,3.86,3.86,0,0,0-.84.72c-.32.35-.54.82-1.09.89-.35,0-2-2.31-1.54-2.72a6.24,6.24,0,0,1,2.68-1.56,14.51,14.51,0,0,0,1.79-1,4.46,4.46,0,0,1,.69-.25l.23-.05a1.66,1.66,0,0,1,.32,0,1.88,1.88,0,0,1,.5.05,1.57,1.57,0,0,1,.69.39,1.48,1.48,0,0,1,.41,1.12,1.58,1.58,0,0,1-.1.51,1.69,1.69,0,0,1-.14.35,1.71,1.71,0,0,1-.13.27l-.63,1.11c-.31.56-.67,1.1-.93,1.68a10.76,10.76,0,0,0-.4,1.46c0,.11-.05.23-.09.34-.18.38-.43.39-1.13,0a4.31,4.31,0,0,1-.47-.26c-.51-.33-.85-.71-.86-1a5,5,0,0,1,.67-2.43c.28-.56.6-1.09.89-1.66Z"/><path class="cls-1" d="M262.29,369.65c.59-.2,1.17-.38,1.72-.6.21-.08.36-.23.57-.31a15.77,15.77,0,0,0,2.12-.88,2.62,2.62,0,0,0,.76-.64c.28-.32.43-.76.94-.83.33-.06,2.16,2.14,1.72,2.6a5.26,5.26,0,0,1-2.68,1.54,7.67,7.67,0,0,0-1.62.81c-.59.28-1.2.5-1.8.73l-1.1.41a8.83,8.83,0,0,0-1.55.72c-.33.22-.6.67-.55.83a.87.87,0,0,0-.24-.16.62.62,0,0,0-.25-.14.31.31,0,0,0-.16-.05l.07,0,.13-.07c.13-.07-.12.08-.25.18l-.41.35a1.09,1.09,0,0,1-.73.36c-.25,0-.6-.2-.72-.73a2.19,2.19,0,0,1,.07-1.07,3.1,3.1,0,0,1,.16-.39,2,2,0,0,1,.17-.3,4,4,0,0,1,.65-.79,5.76,5.76,0,0,1,1.21-.84c.59-.32,1.18-.53,1.74-.78Z"/><path class="cls-1" d="M289.42,372a18.88,18.88,0,0,0-1.8-1.63c-.23-.19-.51-.3-.75-.5-.85-.66-1.7-1.35-2.62-1.95a6.28,6.28,0,0,0-1.29-.66,3.43,3.43,0,0,1-1.65-.87c-.27-.33,1.32-2.42,2-2.12a10.83,10.83,0,0,1,3.25,2.21,16.54,16.54,0,0,0,2,1.37,24.14,24.14,0,0,1,2.1,1.71c.42.36.81.78,1.21,1.18a17.37,17.37,0,0,1,1.63,2.06,10,10,0,0,1,1.14,1.86c.06.16.14.31.19.48.11.63-.09.86-.79,1a2.63,2.63,0,0,1-.48.06,1.48,1.48,0,0,1-1.19-.42c-.53-.74-.89-1.32-1.48-2.06a14.84,14.84,0,0,0-1.5-1.62Z"/><path class="cls-1" d="M291.71,135.88a7.41,7.41,0,0,1-.25,3.67c-1.22,3-6.1-.81-7.55-1.82-1.09-.76-3.6.75-2.23,1.71,3,2.1,8.8,5.65,11.9,1.66,1.26-1.63,1.34-4,1-6-.22-1.38-3.12-.65-2.9.78Z"/><path class="cls-1" d="M304.25,134.88a7.82,7.82,0,0,0,5.75,5c4.29.63,5.8-3.66,6.16-7.11.15-1.43-2.79-1-2.93.24-.15,1.44-.43,5.62-2.74,4.66a6.48,6.48,0,0,1-3.34-3.58c-.43-1.27-3.32-.47-2.9.78Z"/><path class="cls-1" d="M237.36,439.48c.49,1.85.88,3.71,1.19,5.57.11.68.31,1.34.39,2,.3,2.41.41,4.81.54,7.19.05,1.05.18,2.1.32,3.13a18.19,18.19,0,0,1,.4,3.9c0,.4-.78.52-1.56.29a2.23,2.23,0,0,1-1.7-1.63,57.89,57.89,0,0,1-.36-8.19,28.41,28.41,0,0,0-.61-4.91c-.29-1.78-.6-3.57-1.06-5.32l-.43-1.62-.52-1.59c-.25-.8-.6-1.57-.92-2.35a15.72,15.72,0,0,0-1.12-2.25,8.32,8.32,0,0,0-1.11-1.58l-1.23-1.46c-.19-.21-.4-.38-.59-.59-.68-.78-.73-1.16-.28-1.86.11-.15.2-.32.31-.47.39-.48,1-.45,1.71.09a16.94,16.94,0,0,1,1.41,1.29c.41.48.81,1,1.2,1.51a11.84,11.84,0,0,1,1.07,1.64c.32.57.66,1.14,1,1.73.39.88.8,1.77,1.14,2.68s.66,1.83.93,2.76Z"/><path class="cls-1" d="M234.62,448.17c.51,1.09,1,2.2,1.4,3.3.17.4.4.76.54,1.17.51,1.44.89,2.91,1.32,4.35a15,15,0,0,0,.7,1.87,5.28,5.28,0,0,1,.75,2.45c0,.57-2.94.7-3.25-.14a26.45,26.45,0,0,1-1.26-4.86,13.85,13.85,0,0,0-1.07-2.9c-.42-1.05-.85-2.1-1.32-3.13-.29-.64-.62-1.25-.94-1.87a16.57,16.57,0,0,0-1.71-2.64,10.67,10.67,0,0,0-1.8-1.56c-.14-.1-.3-.18-.43-.28-.49-.4-.49-.69-.08-1.37.1-.16.19-.32.29-.47a1.08,1.08,0,0,1,1.39-.44,9.77,9.77,0,0,1,3.66,3.33,29.65,29.65,0,0,1,1.87,3.15Z"/><path class="cls-1" d="M229.09,454.14c.19.33.35.68.51,1,.06.12.18.19.23.32.17.44.28.91.41,1.35a1.33,1.33,0,0,0,.33.49c.18.18.49.32.33.69a9.5,9.5,0,0,1-2.86,1.14,1.63,1.63,0,0,1-.22-1.27c.06-.34-.2-.48-.32-.72s-.24-.54-.38-.8a3.24,3.24,0,0,0-.28-.47,1.8,1.8,0,0,0-.54-.59,1.29,1.29,0,0,0-.68,0l-.16,0c-.15,0-.09-.23.26-.93l.23-.48a2,2,0,0,1,.83-1,1.63,1.63,0,0,1,1.6.39,6.24,6.24,0,0,1,.77.86Z"/><path class="cls-1" d="M362.42,450.05c.06,1.09.1,2.18.13,3.25,0,.4.1.78.1,1.18,0,1.38-.1,2.77-.15,4.14a12.49,12.49,0,0,0,.11,1.83,4.6,4.6,0,0,1,0,2.33c-.19.49-3-.12-3.07-1a18.78,18.78,0,0,1,.27-4.65,13.6,13.6,0,0,0-.07-2.85c0-1.05-.07-2.1-.14-3.15,0-.64-.1-1.28-.17-1.93a18.2,18.2,0,0,0-.5-2.86,11.31,11.31,0,0,0-.93-2c-.08-.14-.18-.26-.25-.41-.24-.54-.11-.78.58-1.18a4.48,4.48,0,0,1,.47-.28,1.1,1.1,0,0,1,1.42.19,9.39,9.39,0,0,1,1.78,4.09c.22,1.09.36,2.19.48,3.28Z"/><path class="cls-1" d="M367.7,441.84a51.74,51.74,0,0,0-1.85,5.06c-.19.64-.3,1.29-.48,1.92-.65,2.24-1.22,4.52-1.68,6.84a27.39,27.39,0,0,0-.38,3.12,12.71,12.71,0,0,1-.61,4.06c-.16.42-.9.2-1.56-.28a2.32,2.32,0,0,1-1.19-1.93,41,41,0,0,1,1.61-8.17c.52-1.62.73-3.36,1.18-5a54.55,54.55,0,0,1,1.79-5.42l.65-1.64.71-1.6c.33-.82.78-1.6,1.17-2.39s.84-1.56,1.26-2.34c.31-.61.6-1.23.94-1.83s.62-1.22,1-1.82c.17-.25.31-.52.49-.77.67-.92,1.05-1.08,1.79-.75a4.52,4.52,0,0,1,.5.23,1.26,1.26,0,0,1,.29,1.7c-1.06,2-2.17,4.1-3.3,6.2l-1.17,2.39c-.35.83-.73,1.64-1.05,2.48Z"/><path class="cls-1" d="M370.39,451.18c-.63.9-1.25,1.83-1.81,2.8-.21.35-.33.75-.54,1.1-.73,1.25-1.45,2.53-2.09,3.84a11,11,0,0,0-.63,1.83,5.88,5.88,0,0,1-.8,2.33c-.32.43-2.88-1-2.59-2a16.14,16.14,0,0,1,2.25-4.79,27.93,27.93,0,0,0,1.46-2.89c.56-1,1.18-2.06,1.82-3.06.39-.62.83-1.21,1.22-1.83.66-.89,1.33-1.79,2-2.68.47-.71.92-1.46,1.39-2.21.12-.15.21-.32.34-.47.49-.54.8-.56,1.42-.07a4.87,4.87,0,0,1,.43.33,1.24,1.24,0,0,1,.37,1.42,23.49,23.49,0,0,1-2.3,3.62c-.61.89-1.27,1.78-1.85,2.72Z"/><path class="cls-1" d="M268.49,170c-8.74,6.4-71.59,33.82-54.07-43.38,7-30.95,21.39-23.22,21.39-23.22s20,11.35,24.73,44.47c.09.57-9.91-8.09-13.64-3.61-3.42,4.11-3.19,19.83,10,18.6C266.41,162,267.79,168.9,268.49,170Z"/><path class="cls-1" d="M244.18,112.92a45.79,45.79,0,0,0-6.47-6.44c-.59-.47-1.19-.92-1.81-1.35-.28-.19-.66-.45-.82-.53a8.66,8.66,0,0,0-.88-.33,8.12,8.12,0,0,0-4-.19c-.17,0-.34,0-.5.09l-.49.16c-.32.12-.65.21-1,.34l-.92.49a3.62,3.62,0,0,0-.9.55,16.3,16.3,0,0,0-3.15,3l-1.33,1.79c-.41.63-.75,1.3-1.14,2l-.56,1c-.19.33-.32.7-.48,1l-.94,2.09a77.42,77.42,0,0,0-3.71,13,95.16,95.16,0,0,0-2.57,23.77l.06,1.49,0,.75.09.73.38,2.94c.13,1,.42,1.92.62,2.89a14.06,14.06,0,0,0,.36,1.42l.49,1.39a19.7,19.7,0,0,0,15.79,13.64,35.81,35.81,0,0,0,10.44.24,63.75,63.75,0,0,0,13.16-3.1,81.37,81.37,0,0,0,12.41-5.36c1.22-.66,1.76-.89,1.89-.67s-.27.89-1.17,1.76a31,31,0,0,1-10.69,6.21,66.49,66.49,0,0,1-13.9,3.51c-1.2.14-2.39.3-3.61.34-.61,0-1.21.08-1.82.09l-1.83,0-.91,0-.92-.08-1.83-.18c-.61-.08-1.21-.22-1.82-.33a14,14,0,0,1-1.81-.42l-1.79-.54a18.67,18.67,0,0,1-1.74-.71,20.36,20.36,0,0,1-3.31-1.79,12.82,12.82,0,0,1-1.52-1.14,15.2,15.2,0,0,1-1.43-1.23l-1.28-1.39c-.21-.23-.44-.45-.63-.7l-.53-.78a30,30,0,0,1-5-13.73,37.06,37.06,0,0,1-.4-4.33l-.08-2.18,0-1.09,0-1.09.15-4.37.42-4.36c.1-1.46.38-2.9.58-4.34s.4-2.9.71-4.33c.61-2.85,1.07-5.73,1.89-8.54a48,48,0,0,1,1.37-4.63,41.16,41.16,0,0,1,1.72-4.52l1-2.23,1.22-2.13c.21-.35.4-.71.62-1.06l.73-1a17.8,17.8,0,0,1,1.55-1.94,13.57,13.57,0,0,1,8.8-4.75,10.54,10.54,0,0,1,5.13.89,24.13,24.13,0,0,1,2.11,1.41c.63.51,1.29,1,1.89,1.53a52.46,52.46,0,0,1,8.06,8.73c.59.79,1.18,1.59,1.7,2.43s1.1,1.64,1.6,2.49c1,1.73,2,3.42,2.8,5.22.4.86.84,1.7,1.21,2.57l1.06,2.65c.76,1.74,1.26,3.58,1.85,5.37l.44,1.36.34,1.37.68,2.76.33,1.37.25,1.39.63,3.59a13,13,0,0,1-.1,1.56l0,.15c0,.07-.12,0-.16,0l-.3-.07c-.21,0-.45-.14-.72-.23A13.06,13.06,0,0,1,257.9,147l-.94-.61-.68-.41a16.07,16.07,0,0,0-5.66-2.3,3.54,3.54,0,0,0-2.71.56,5.25,5.25,0,0,0-1.47,2.51,14.58,14.58,0,0,0-.42,6.34,11.62,11.62,0,0,0,2.35,5.72,8.1,8.1,0,0,0,5.15,2.88,11.68,11.68,0,0,0,2.71.08l1.49-.09.79-.05.81,0a11.38,11.38,0,0,1,4.95,1.29,8.38,8.38,0,0,1,2.69,2.32,6,6,0,0,1,1.36,3.49c0,.39,0,.88,0,1.14s-.14.26-.39,0a7.65,7.65,0,0,1-.85-1.18,9.8,9.8,0,0,0-3.9-3.82,10.65,10.65,0,0,0-5.3-.87,30.31,30.31,0,0,1-3.18.15,12,12,0,0,1-3.42-.57,10.46,10.46,0,0,1-5.57-4.33,14.88,14.88,0,0,1-2.18-6.58,16.81,16.81,0,0,1,.7-6.9,9.08,9.08,0,0,1,.77-1.73,5.63,5.63,0,0,1,1.39-1.67,5.13,5.13,0,0,1,2.08-1,6.76,6.76,0,0,1,2.08-.12,17.15,17.15,0,0,1,6.59,2.46l1.09.66h0l-.08-.44c-.15-.75-.24-1.52-.44-2.26l-1.11-4.47c-.42-1.48-.93-2.93-1.39-4.39a20.65,20.65,0,0,0-.79-2.16l-.86-2.14A59.51,59.51,0,0,0,244.15,113Z"/><path class="cls-1" d="M387.14,454.25c.1-.07-.11-.33-.1-.49A4.21,4.21,0,0,1,387,452a2.69,2.69,0,0,1,.68-1.09,3.68,3.68,0,0,1,1.85-1.28,3.48,3.48,0,0,1,.72-.11,2.72,2.72,0,0,1,.75.06l.14.05c.13.06.13,0,.08.05l0,0c-.12.08-.1.35-.14.54a4.37,4.37,0,0,0-.2,1,.81.81,0,0,1-.13.31c-.07.11-.22.13-.31.22a11.38,11.38,0,0,1-1.25,1.33,6,6,0,0,1-1,.67l-.65.28A2.46,2.46,0,0,0,387.14,454.25Z"/><path class="cls-1" d="M279.11,118.22c65.61,4.18,59.24-63.36,12.93-51.69C240.28,79.56,259.56,117,279.11,118.22Z"/><path class="cls-1" d="M286.3,66.78A57,57,0,0,1,301.1,64a30,30,0,0,1,14.84,3.21,23.47,23.47,0,0,1,8.43,7.34,23.08,23.08,0,0,1,3.79,9.11,25.49,25.49,0,0,1-.23,9.81,24.52,24.52,0,0,1-.63,2.38l-.85,2.3a29.76,29.76,0,0,1-2.36,4.29,32.77,32.77,0,0,1-3,3.85L319.35,108c-.3.28-.58.58-.9.83l-1,.74A42.78,42.78,0,0,1,302.2,117a62,62,0,0,1-21.55,2c-2.25-.15-1.9-.69,0-1.16a26.9,26.9,0,0,1,3.89-.61c1.6-.19,3.45-.44,5.47-.51a52.59,52.59,0,0,0,20.52-5.28,32.67,32.67,0,0,0,8.53-6.15,27.22,27.22,0,0,0,5.8-8.71A22.66,22.66,0,0,0,326.17,84a22.09,22.09,0,0,0-6-11.27,24.38,24.38,0,0,0-12.63-6.24,35.88,35.88,0,0,0-14.43.64,75.41,75.41,0,0,0-17.05,6,37.27,37.27,0,0,0-10.87,8.09,23.45,23.45,0,0,0-3.78,5.56,19.63,19.63,0,0,0-.25,16.44,24.22,24.22,0,0,0,9.36,11,29,29,0,0,0,5.28,2.55,12.75,12.75,0,0,1,1.48.56,7.15,7.15,0,0,1,1,.5,6.34,6.34,0,0,1,.78.48c.26.25-.2.4-1.31.43a13.6,13.6,0,0,1-4.93-1A25.36,25.36,0,0,1,259,103.55a22.65,22.65,0,0,1-1.49-10.37,22.23,22.23,0,0,1,3.5-10,34.44,34.44,0,0,1,11.35-10.45,64.74,64.74,0,0,1,14-6Z"/><path class="cls-1" d="M233.88,88.7a26.5,26.5,0,0,1,4-.61c.67-.06,1.34-.08,2-.08h.69a.54.54,0,0,0,.08-.17,9.9,9.9,0,0,1,.64-1.51,24.13,24.13,0,0,1,1.56-2.88l.85-1.38.95-1.3c.62-.88,1.3-1.7,2-2.51a61.86,61.86,0,0,1,9.23-8.65,77.7,77.7,0,0,1,22.05-11.9,68.14,68.14,0,0,1,10.26-2.67,50.59,50.59,0,0,1,10.65-.65,33.19,33.19,0,0,1,24.77,12.44L325,68.77a18.11,18.11,0,0,1,1.3,2l1.16,2.05.58,1,.48,1.07c.61,1.44,1.33,2.82,1.81,4.33a33.82,33.82,0,0,1,1.27,4.56,26,26,0,0,1,.16,9.51,23.65,23.65,0,0,1-3.51,8.85,29.72,29.72,0,0,1-6.37,7,48.24,48.24,0,0,1-14.54,7.8,69.76,69.76,0,0,1-16,3.44,67.8,67.8,0,0,1-20.92-1.06,46.64,46.64,0,0,1-10-3.35,33,33,0,0,1-8.82-5.94,9.84,9.84,0,0,1-1.56-1.85c-.28-.44-.33-.69-.2-.76.28-.16,1.23.44,2.78,1.38a54.25,54.25,0,0,0,6.48,3.42,65.25,65.25,0,0,0,9.71,3.38A63.79,63.79,0,0,0,289,117.39a65.6,65.6,0,0,0,19.93-4.29,45.73,45.73,0,0,0,9-4.69,29.59,29.59,0,0,0,7.2-6.82,20.88,20.88,0,0,0,3.87-8.9,23.55,23.55,0,0,0-.44-9.87,31.55,31.55,0,0,0-2.05-5.77,44.32,44.32,0,0,0-2.87-5.51A31.77,31.77,0,0,0,315,62.61a30,30,0,0,0-11.47-4.7A41.37,41.37,0,0,0,291,57.58,67.8,67.8,0,0,0,264.78,67a71,71,0,0,0-11.29,8.35A44.86,44.86,0,0,0,244.65,86l-1,2.09-.47,1.27c-.22.57-.42,1.2-.66,1.73-.49-.06-1-.12-1.48-.16-.24,0-.52,0-.71,0h-.45c-.6,0-1.2,0-1.8.07a24.17,24.17,0,0,0-3.59.57,25.29,25.29,0,0,0-6.74,2.67,30.42,30.42,0,0,0-10.34,10.21A49.43,49.43,0,0,0,212,116.31a86.45,86.45,0,0,0-2.87,12.87,83.26,83.26,0,0,0,.29,26.18,46,46,0,0,0,2.91,9.58,27,27,0,0,0,5.39,8.16,22.37,22.37,0,0,0,8,5.32c.75.3,1.55.48,2.31.72.39.11.77.25,1.17.34l1.2.19c.8.12,1.6.3,2.41.36l2.45.11a44,44,0,0,0,8.61-.73,35,35,0,0,0,3.68-.75c1.11-.27,2.14-.45,3.06-.72,1.83-.54,3.31-.95,4.55-1.26a22.63,22.63,0,0,1,5.16-1.1,13,13,0,0,1,1.68-.06c.62.09-.09.65-1.92,1.58-.91.47-2.1,1-3.55,1.67s-3.23,1.15-5.2,1.81A52.11,52.11,0,0,1,232.57,183a28.61,28.61,0,0,1-9.58-2.54,24,24,0,0,1-8.09-6.05,32.75,32.75,0,0,1-5.34-8.54,50.9,50.9,0,0,1-2.88-9.52,80.71,80.71,0,0,1-1.19-19.61c.13-2.43.35-4.85.67-7.28.16-1.23.39-2.42.58-3.61l.31-1.79.38-1.8a67.82,67.82,0,0,1,4.52-14,40.68,40.68,0,0,1,8.58-12.29,29,29,0,0,1,13.31-7.29Z"/><path class="cls-1" d="M346,157.71c22.1-16.48,1.05-69.41-21.9-44.15,0,0,8.63,26.74,6.31,39.12C330.4,152.68,339.25,152.79,346,157.71Z"/><path class="cls-1" d="M324.13,118.35l-.62-2.21-.32-1.1-.56-1.83,2-1.95.74-.72c.26-.22.54-.43.81-.65.55-.42,1.07-.86,1.64-1.26l1.8-1.08a14.18,14.18,0,0,1,8.27-1.72,14.5,14.5,0,0,1,7.29,3.12,22.64,22.64,0,0,1,2.52,2.37,29.84,29.84,0,0,1,2.08,2.7,33,33,0,0,1,3.18,5.94,42.22,42.22,0,0,1,3,13,38.91,38.91,0,0,1-.86,11.79,25.75,25.75,0,0,1-2.77,7.11,18.59,18.59,0,0,1-5,5.77c-1.28,1-1.4.37-.76-.87.31-.62.84-1.36,1.38-2.31s1.2-2,2-3a27.29,27.29,0,0,0,2.86-6.51,36.19,36.19,0,0,0,1.14-7.13,43.8,43.8,0,0,0-.31-7.32A42.81,42.81,0,0,0,352,123.2a30.26,30.26,0,0,0-3.92-8,19.46,19.46,0,0,0-6.43-6,11.18,11.18,0,0,0-9.09-.64,17.7,17.7,0,0,0-4.21,2.32c-.63.53-1.32,1-1.9,1.56L325,113.79l0,.07.78,2.68.84,3.06q.81,3.06,1.55,6.14a124.56,124.56,0,0,1,3.13,19c0,1.36.17,2.71.11,4.08a19.68,19.68,0,0,1-.08,2l-.07.71a2.46,2.46,0,0,0,0,.46h.9l1.68.18c1.12.14,2.23.35,3.33.6a27.76,27.76,0,0,1,3.17.9,15.73,15.73,0,0,1,3.95,1.93,3.52,3.52,0,0,1,1.35,1.51,2.82,2.82,0,0,1,.24.63c0,.61-1.41-.14-4-1.26a30.82,30.82,0,0,0-5.6-1.72c-1-.2-2-.36-2.95-.49-.5-.06-1-.11-1.49-.15l-1.44-.09-1.58,0c.13-1.09.26-2.17.38-3.26a12.37,12.37,0,0,0,.1-1.73c0-.59,0-1.17,0-1.77l-.08-1.78c-.12-2.39-.43-4.81-.77-7.22a174.68,174.68,0,0,0-4.42-19.89Z"/><path class="cls-1" d="M356.91,134.05a45,45,0,0,0-1.67-11.54c-.41-1.37-.9-2.72-1.42-4.05a45.87,45.87,0,0,0-3.16-6.87,35.54,35.54,0,0,0-4.32-6.21A27.77,27.77,0,0,0,344,103a25.12,25.12,0,0,0-2.66-2,26,26,0,0,0-7.64-3.16c-.82-.24-.68-1,.21-1.58a4.49,4.49,0,0,1,1.87-.68,5.87,5.87,0,0,1,2.53.32,24,24,0,0,1,8.13,5.3,33.08,33.08,0,0,1,5.76,7.51A63.16,63.16,0,0,1,357.12,119a50.72,50.72,0,0,1,2.56,12.24,40.54,40.54,0,0,1-.11,7.71,30.94,30.94,0,0,1-3.28,11.19c-.37.66-.7,1.34-1.09,2L354,154l-1.43,1.78c-.48.58-1.06,1.08-1.6,1.63a12.77,12.77,0,0,1-1.52,1.31,11.35,11.35,0,0,1-1.32.89,6.12,6.12,0,0,1-1,.41,1.7,1.7,0,0,1-1.38-.12,2.82,2.82,0,0,1-.54-.31c-.45-.44.15-1.35,1.48-2.3a29,29,0,0,0,5.13-5.26,25.41,25.41,0,0,0,3.41-6.66,32.16,32.16,0,0,0,1.66-11.34Z"/><path class="cls-1" d="M283.06,184.14a37.79,37.79,0,0,0,9,6.06l.9.41.93.34.92.34.94.29a24.58,24.58,0,0,0,13.7.71,20,20,0,0,0,5.67-2.43,41.76,41.76,0,0,0,6.08-5c.61-.55,1.15,0,1.22,1a4.75,4.75,0,0,1-1.67,3.75,24,24,0,0,1-16.69,6.11,33.47,33.47,0,0,1-10.7-1.89A37.88,37.88,0,0,1,283.16,188a55.49,55.49,0,0,1-5.35-4.8,80.92,80.92,0,0,1-6.95-8.25c-1.69-2.2-3.34-4.37-4.9-6.63l0,0a.4.4,0,0,0-.12-.1l-.17-.09-.63-.31a21.1,21.1,0,0,1-1.91-.9,1.89,1.89,0,0,1-.75-.93c-.08-.19-.22-.36-.3-.54s0-.61.58-.78a4.09,4.09,0,0,1,2.18.07,13,13,0,0,1,1.63.55c.27.12.55.26.85.43a3.52,3.52,0,0,1,1.05.93c1.14,1.58,2.29,3.18,3.47,4.8s2.35,3.17,3.61,4.69a63,63,0,0,0,7.67,8Z"/><path class="cls-1" d="M313.19,203.69c-7.8,3.45-18.47-1.83-18-9.8,12.07,3.69,18.37,1.65,23-3.84C319.38,197.58,320,200.7,313.19,203.69Z"/><path class="cls-3" d="M314,204.35a13.21,13.21,0,0,0,3.63-2.3,6.86,6.86,0,0,0,2.12-4,15.59,15.59,0,0,0-.05-4.27l-.13-1-.17-1.09-.3-2-.16-1c-.07-.25,0-.92-.32-.43l-1.35,1.46-.7.76-.51.49a13.87,13.87,0,0,1-1.44,1.22,12.6,12.6,0,0,1-3.3,1.75,17.48,17.48,0,0,1-7.53.79,32.29,32.29,0,0,1-3.87-.58c-.64-.13-1.27-.3-1.91-.44-.32-.07-.64-.17-1-.26l-1.57-.45-1-.27-.24-.07a.88.88,0,0,0,0,.23v.48l0,1.94a1.86,1.86,0,0,0,0,.35l0,.27.11.55.12.55.19.52a10.24,10.24,0,0,0,2.31,3.72,14.18,14.18,0,0,0,3.43,2.6,15.55,15.55,0,0,0,4,1.46,14.42,14.42,0,0,0,8.44-.55c.78-.27-.06-2-.68-1.76a12.47,12.47,0,0,1-7.36.47,13.89,13.89,0,0,1-3.52-1.28A12.25,12.25,0,0,1,298.5,200a8.5,8.5,0,0,1-1.9-3.05l-.17-.42-.08-.44-.16-.81v-.1l.35.11c.33.09.66.19,1,.26.67.16,1.33.33,2,.47a37,37,0,0,0,4.09.61,19.43,19.43,0,0,0,8.33-.9,14.25,14.25,0,0,0,3.77-2,15.25,15.25,0,0,0,1.63-1.36l.19-.19,0,0h0l.26,1.87a14.35,14.35,0,0,1,.06,3.75,5,5,0,0,1-1.55,3,11.71,11.71,0,0,1-3.14,2C312.69,202.88,313.43,204.62,314,204.35Z"/><path class="cls-1" d="M305.47,214.08c9.43,2,20.6-.13,26.4-8.34,1.29-1.83-1.95-2.56-2.94-1.15-5,7-14.28,8.5-22.3,6.81-1.81-.39-3.46,2.2-1.16,2.68Z"/><path class="cls-1" d="M343.08,304.94a171.66,171.66,0,0,0,21,14.94,89,89,0,0,0,11.4,5.77,35.61,35.61,0,0,0,12,3,11.28,11.28,0,0,0,7.85-2.36,13,13,0,0,0,3.86-7.38,13.9,13.9,0,0,0,.31-1.95c.07-.66.17-1.31.21-2,0-1.34.11-2.67,0-4a60.59,60.59,0,0,0-.91-8.12,118,118,0,0,0-4.25-16,245.43,245.43,0,0,0-13-30.68c-4.41-8.84-9.27-17.53-14.45-25.84-1.68-2.65-3.39-5.31-5.22-7.82-.45-.64-.91-1.23-1.4-1.82s-1-1.2-1.52-1.77a45.86,45.86,0,0,0-3.24-3.3,32.75,32.75,0,0,0-7.48-5.2,62.44,62.44,0,0,0-8.62-3.44c-3.71-1.21-3-1.8.39-1.55a33.06,33.06,0,0,1,6.94,1.38,28,28,0,0,1,9.13,4.85,49.39,49.39,0,0,1,7,7.21c2.13,2.73,3.82,5.42,5.58,8.19,3.46,5.51,6.7,11.14,9.79,16.85a281.08,281.08,0,0,1,16.33,35.5,148.81,148.81,0,0,1,6.7,23,56.08,56.08,0,0,1,1,12.24,29.33,29.33,0,0,1-.88,6.21,16.16,16.16,0,0,1-2.78,5.85,12.08,12.08,0,0,1-6,4.11,18.37,18.37,0,0,1-7,.61,43.54,43.54,0,0,1-13-3.67,124.25,124.25,0,0,1-22.74-13.54,226.19,226.19,0,0,1-24.69-21c-4-3.95-7.9-8.05-11.55-12.35-1.83-2.15-3.6-4.34-5.28-6.61l-1.24-1.72-.4-.58-.33-.49c-.44-.65-.86-1.33-1.26-2l-.07-.12s0,.08,0,.12v.27l0,.54-.05,1.09c0,.88-.07,1.75-.11,2.62-.13,2.55-.25,5.08-.38,7.61-.37,6.3-.81,12.54-1.6,18.74a90.33,90.33,0,0,1-1.63,9.29,31.71,31.71,0,0,1-1.44,4.6,12.37,12.37,0,0,1-1.14,2.27,6.52,6.52,0,0,1-2,2.09,5.42,5.42,0,0,1-2.58.8,4.35,4.35,0,0,1-2.67-1,9.81,9.81,0,0,1-2.66-3.88,31.75,31.75,0,0,1-1.82-6.47,41.33,41.33,0,0,1-.59-4.44,15.2,15.2,0,0,1,.22-4.92,12.7,12.7,0,0,1,.39-1.5c.25-.54.62.26,1,2.07s.86,4.68,1.65,8.26a26.19,26.19,0,0,0,2.49,7.22,6.23,6.23,0,0,0,1,1.25,1.58,1.58,0,0,0,.9.44,1.68,1.68,0,0,0,1-.29c.24-.09.32-.25.49-.35s.3-.35.46-.54a12.78,12.78,0,0,0,1.53-3.28,34.84,34.84,0,0,0,1.06-3.84c.6-2.64,1-5.36,1.41-8.11.72-5.5,1.18-11.12,1.53-16.76.18-2.83.32-5.66.45-8.51q.31-7.53.64-15.09l2.16,3.67c.63,1.06,1.26,2.14,1.86,3.11s1.22,2,1.84,2.92c.3.46.63.91.92,1.33l.46.65.95,1.3c1.28,1.72,2.63,3.4,4,5.06,2.76,3.32,5.68,6.52,8.7,9.65a224,224,0,0,0,19.22,17.6Z"/><path class="cls-1" d="M306.54,265.62c-3.6-6.21-7.25-12.41-11.09-18.48-1.3-2.07-2.27-4.35-4.64-5.26-3-1.15-6.9-.91-10-.63-2.92.27-14,2-11.73,7.42,1.92,4.66,12.37-.08,15.78.44,1.73.26,2.47-2.39.73-2.66a16.2,16.2,0,0,0-4.86.27c-1.68.26-6.77,2-8.3,1-1.89-1.29,4.49-3.11,5.69-3.34a31.78,31.78,0,0,1,9.08-.4c3,.31,3.77,1.23,5.34,3.68s3.25,5.21,4.83,7.84q3.47,5.73,6.82,11.52a1.37,1.37,0,0,0,2.37-1.39Z"/><path class="cls-1" d="M273.51,247.87c-1.83.52-4.31,1.11-5.34,2.89a3.26,3.26,0,0,0,1.46,4.42c4.46,2.56,11-1.49,15.57-1.89,1.59-.14,1.61-2.65,0-2.5-3.09.27-6,1.41-9,2.06-1,.22-4.45,1.15-5.27.17-1.41-1.7,2.34-2.47,3.28-2.74a1.25,1.25,0,0,0-.66-2.41Z"/><path class="cls-1" d="M276.76,252.71c-2.77.53-6.07,1.68-5.91,5.11.09,2,1.63,2.93,3.44,3.09,4,.34,8.44-1.57,12-3.19,1.46-.67.19-2.82-1.26-2.16a39.68,39.68,0,0,1-6.85,2.38c-1,.24-3.21,1-4.2.41-.6-.34-.7-.31-.56-1.12.29-1.58,2.76-1.87,4-2.11,1.58-.3.91-2.71-.66-2.41Z"/><path class="cls-1" d="M279.39,257.91c-2.07,1-7.84,4.68-4.84,7.48s9-1.19,11.6-2.78a.85.85,0,0,0,.18-1.43c-.56-.48-1.56-.13-2.08.19-1.26.78-5.85,3.84-7.24,2.56-1.59-1.46,2.61-3.89,3.64-4.4,1.77-.89.18-2.34-1.26-1.62Z"/><path class="cls-3" d="M273.23,259.26,266.56,274a7.12,7.12,0,0,0,2.56,1.18l6.71-14.82A9.17,9.17,0,0,0,273.23,259.26Z"/><path class="cls-1" d="M291.77,155.75a14,14,0,0,1-3.38-2.15,6.21,6.21,0,0,1-.8-.88c-.12-.18-.24-.37-.35-.56a6.67,6.67,0,0,1-.3-.74,3.21,3.21,0,0,1,.61-2.92,3.47,3.47,0,0,1,.86-.71,4.37,4.37,0,0,1,1-.39,5.63,5.63,0,0,1,1.64-.16,17.14,17.14,0,0,1,4.79,1.11,41.34,41.34,0,0,1,4.3,1.87c1.24.61,2.48,1.21,3.69,1.86a14.7,14.7,0,0,1,4.38,3c.38.43-.14.89-.91,1.12a3.08,3.08,0,0,1-2.54-.23,75.41,75.41,0,0,0-8.83-4.91,13.52,13.52,0,0,0-2.9-1,9.45,9.45,0,0,0-2.78-.21,1.93,1.93,0,0,0-.44.1.51.51,0,0,0-.25.18.64.64,0,0,0-.09.61,2.35,2.35,0,0,0,.76,1,8.08,8.08,0,0,0,1.3.91,25.08,25.08,0,0,0,3.86,1.75,61.09,61.09,0,0,0,6.29,2c1.65.42,3.32.65,5,1,.37.08.75.14,1.12.25,1.39.4,1.9.89,1.8,1.68a1.59,1.59,0,0,1-.13.51c-.35.44-.72.63-1.67.46a88.67,88.67,0,0,1-9.1-2,50.1,50.1,0,0,1-7-2.47Z"/><path class="cls-1" d="M328.22,156.55l.59-.15c.07,0,.08,0,.12,0l.05-.05.16-.27c.12-.21.15-.38.25-.57a1.77,1.77,0,0,0,.1-.67c0-.09-.14-.24-.48-.41a6.35,6.35,0,0,0-1.95-.32,27.69,27.69,0,0,0-8.36,1.1,22.3,22.3,0,0,0-3.58,1.34c-1.45.71-2.82,1.6-4.07,2.3-.36.21-.87-.25-1-1.07a2.63,2.63,0,0,1,1.23-2.48A27.33,27.33,0,0,1,321.5,152a29.07,29.07,0,0,1,6.68-.44,6.81,6.81,0,0,1,2,.56,3.14,3.14,0,0,1,1.86,3.22,5,5,0,0,1-.26,1.08,4.6,4.6,0,0,1-.41.93,5.85,5.85,0,0,1-.28.52,2.62,2.62,0,0,1-.45.49,2.77,2.77,0,0,1-.7.42,5.49,5.49,0,0,1-.63.23,9.89,9.89,0,0,1-1.15.25c-.75.12-1.48.18-2.21.24-2.2.15-4.38.1-6.52.15-1.67,0-3.31.22-4.93.34-.36,0-.71.09-1.07.1-1.33.08-1.63-.05-2-.7-.11-.14-.18-.3-.37-.35s-.29-.09-.24-.31.18-.27.2-.32a.78.78,0,0,1,.22-.23,2.61,2.61,0,0,1,1.23-.56,57.26,57.26,0,0,1,9.16-.63c1.13,0,2.26-.05,3.37-.11a21,21,0,0,0,3.14-.36Z"/><path class="cls-1" d="M295.16,162.66a35.88,35.88,0,0,1-5.26-.11c-.33,0-.68-.08-1.06-.16a5.25,5.25,0,0,1-.59-.16,2.44,2.44,0,0,1-.69-.37l-.27-.21a4.38,4.38,0,0,1-1.16-1.84,2.71,2.71,0,0,1,.47-2.44,6.21,6.21,0,0,1,3.19-1.86,28.47,28.47,0,0,1,2.94-.7,8.8,8.8,0,0,1,3.82-.13c.4.11.28.72-.07,1.31a2.17,2.17,0,0,1-1.53,1.17,24.82,24.82,0,0,0-3.37.39,9.34,9.34,0,0,0-2.9.92c-.34.22-.42.34-.41.55a1.82,1.82,0,0,0,.58.86,1,1,0,0,0,.34.17,10.22,10.22,0,0,0,2.22.29c.81,0,1.64,0,2.47,0,1,0,2.05-.09,3.07-.17,1.56-.13,3.13-.25,4.67-.48,1.2-.18,2.36-.5,3.55-.75.26-.05.52-.13.79-.16,1-.14,1.36,0,1.6.64a2.23,2.23,0,0,1,.16.43c.09.49-.26.9-.93,1.11a39,39,0,0,1-6.52,1.28c-1.68.22-3.39.36-5.1.48Z"/><path class="cls-1" d="M296.5,195.38c2.27-6.13,4.52-12.28,6.62-18.46.78-2.25,1.44-4.54,2.16-6.8.3-1,.63-2,.91-3l.1-.36,0-.11.06-.21a3.36,3.36,0,0,0,.14-.48l.06-.25s0-.05,0-.06h-.17a2.65,2.65,0,0,0-.44.17l-.47.24-1.23.74c-1.79,1.1-3.59,2.23-5.48,3.26a22.13,22.13,0,0,1-6.14,2.47,6.81,6.81,0,0,1-1.64.09,3.83,3.83,0,0,1-1.88-.63,3,3,0,0,1-1.21-1.56,2.75,2.75,0,0,1,.58-1.9c.1-.14.2-.3.3-.43l.26-.31c.17-.19.33-.39.51-.56.35-.36.72-.69,1.09-1a25.48,25.48,0,0,1,2.3-1.76A32.28,32.28,0,0,1,306.52,159c1.53-.18,1.4.54.31,1.42a21.92,21.92,0,0,1-5.52,3,35.72,35.72,0,0,0-6.19,3.08,24.39,24.39,0,0,0-2.75,2,11,11,0,0,0-1.15,1.09c-.09.09-.16.18-.23.26l0,0s0,0,0,0,0,0,0,.08l.05,0a2.29,2.29,0,0,0,.5,0,8.71,8.71,0,0,0,2.94-.7,49.55,49.55,0,0,0,6.3-3.24l4.1-2.44a8.92,8.92,0,0,1,3.06-1.29,10.68,10.68,0,0,1,1.31-.07c.05,0,.14,0,.17,0v.16l0,.33,0,.65a8.67,8.67,0,0,1-.46,3.23l-.37,1.43-.31,1.1c-.42,1.46-.86,2.92-1.33,4.35-2,6.3-4.27,12.52-6.52,18.73l-4.23,11.44c-2.18,5.76-4.36,11.54-6.52,17.26-1.67,4.44-3.18,8.85-4.81,13.26l-1.07,2.9c-1.41,3.6-2.05,4.67-3,5.17a3.59,3.59,0,0,1-.66.32c-.65.13-.47-1.5.45-4.17,2.71-7.93,5.83-16.19,9-24.49,2.3-6.17,4.64-12.36,6.89-18.56Z"/><path class="cls-1" d="M324.34,163.62a10.28,10.28,0,0,0,4.45.25,1.36,1.36,0,0,0,.29-.11.54.54,0,0,0,.12-.07l.18-.14h0a.29.29,0,0,0,.1-.41,1.79,1.79,0,0,0-.13-.22l-.05,0-.13-.12a3.11,3.11,0,0,0-.28-.23,13.56,13.56,0,0,0-5.45-2.41,25,25,0,0,1-3.61-.7c-.75-.25.5-2.75,2.09-2.5a17.56,17.56,0,0,1,7.73,3.07l.9.7a7,7,0,0,1,1.11,1.06,3,3,0,0,1,.7,1.43,2.09,2.09,0,0,1-.37,1.5,7.08,7.08,0,0,1-.8.84,6.86,6.86,0,0,1-.92.56,4.1,4.1,0,0,1-.8.29,6.59,6.59,0,0,1-1.53.25,14.87,14.87,0,0,1-2.86-.17c-1.13-.18-2.21-.44-3.28-.72-1.62-.42-3.19-1-4.76-1.42-1.22-.35-2.46-.56-3.66-.79l-.79-.12c-1-.2-1-.35-1.22-1.07a2.72,2.72,0,0,0-.19-.47.57.57,0,0,1,.24-.75,1.82,1.82,0,0,1,1.11-.3,28.76,28.76,0,0,1,6.92,1.48c1.65.48,3.28,1,4.9,1.28Z"/><path class="cls-1" d="M323.16,174.06a7.81,7.81,0,0,0,1.27.74,3.78,3.78,0,0,0,.51.19.45.45,0,0,0,.19,0,.2.2,0,0,0,.14-.06.24.24,0,0,0,.08-.09l.17-.3a3.77,3.77,0,0,0,.41-1.21,2.28,2.28,0,0,0-.51-1.55,10.71,10.71,0,0,0-3.16-2.63c-1.28-.78-2.66-1.49-4.05-2.18-1.23-.61-2.52-1.15-3.8-1.68a22.44,22.44,0,0,1-4.8-2.34c-.9-.66,1.51-2.3,3.31-1.46a86.1,86.1,0,0,1,9.69,5c.94.62,1.95,1.19,2.94,1.91a7.31,7.31,0,0,1,2.61,3,4.65,4.65,0,0,1,.32,2.41,6.19,6.19,0,0,1-.73,2.12,3.68,3.68,0,0,1-.8,1.06,2.6,2.6,0,0,1-1.28.62,2.85,2.85,0,0,1-.71,0,3,3,0,0,1-.64-.09,6.39,6.39,0,0,1-1.07-.36,17.18,17.18,0,0,1-3.9-2.8c-1.73-1.57-3.28-3.3-4.82-5-1.2-1.31-2.46-2.52-3.64-3.84-.26-.29-.53-.57-.78-.87-.91-1.14-1-1.67-.61-2.33a3.3,3.3,0,0,1,.3-.43c.42-.38,1.05-.18,1.78.55,2.18,2.15,4.3,4.58,6.5,6.9a35,35,0,0,0,5.11,4.65Z"/><path class="cls-1" d="M257.73,359.13a11.17,11.17,0,0,1-1.74-.91,5.37,5.37,0,0,1-1.69-1.57,3.63,3.63,0,0,1-.55-2.82,3.1,3.1,0,0,1,1.88-2.16,7.4,7.4,0,0,1,3-.48,30,30,0,0,1,8.75,2.32c1.22.49,2.44,1,3.65,1.47a14,14,0,0,1,4.41,2.49c.39.37-.08.88-.81,1.2a2.9,2.9,0,0,1-2.46.05,82.93,82.93,0,0,0-8.76-4,14.55,14.55,0,0,0-5.63-.91,4,4,0,0,0-1.15.22.62.62,0,0,0-.38.47.83.83,0,0,0,.22.72,3.64,3.64,0,0,0,1,.84,14.84,14.84,0,0,0,3.65,1.42,46,46,0,0,0,6.12,1.22c1.61.22,3.21.24,4.86.41.36,0,.72.06,1.09.12,1.37.24,1.92.68,1.87,1.47a1.36,1.36,0,0,1-.09.51,1.43,1.43,0,0,1-1.55.64,79,79,0,0,1-8.8-.89,35.17,35.17,0,0,1-6.93-1.78Z"/><path class="cls-1" d="M295.89,358a9.23,9.23,0,0,0,1.07-.21l.16,0a.14.14,0,0,0,.08,0l0,0,.11-.18a2.6,2.6,0,0,0,.16-.35,2.31,2.31,0,0,0,.17-.46.37.37,0,0,0-.17-.41,2.34,2.34,0,0,0-.71-.18c-.33,0-.68-.06-1.06-.07a19.92,19.92,0,0,0-4.21.36,36.39,36.39,0,0,0-4.3,1.05,23.5,23.5,0,0,0-3.63,1.5c-1.47.77-2.85,1.73-4.15,2.44-.37.21-.94-.29-1.08-1.17a2.73,2.73,0,0,1,1.18-2.64,25.7,25.7,0,0,1,5.06-2.35,28.28,28.28,0,0,1,5.33-1.33c2.19-.3,4.39-.93,6.91-.69a6,6,0,0,1,1.85.5,3.15,3.15,0,0,1,1.63,1.66c.06.19.13.38.17.57s0,.39,0,.59a6.22,6.22,0,0,1-.16,1.09c-.1.3-.21.58-.32.86l-.44.85a2.92,2.92,0,0,1-1.48,1.13,11,11,0,0,1-2.41.49c-.76.08-1.51.13-2.25.17-2.26.11-4.5.05-6.7.1-1.71.05-3.4.24-5.07.38-.37,0-.73.09-1.09.11-1.38.08-1.68-.07-2-.8-.11-.15-.19-.33-.39-.39s-.32-.1-.26-.34.21-.3.21-.35a1,1,0,0,1,.23-.24,2.65,2.65,0,0,1,1.27-.61,54.2,54.2,0,0,1,9.43-.67,57.12,57.12,0,0,0,6.81-.37Z"/><path class="cls-1" d="M262.82,367.61A33.12,33.12,0,0,1,257,367c-.18,0-.41-.12-.61-.17a2.76,2.76,0,0,1-.65-.22,5.11,5.11,0,0,1-.77-.42c-.16-.14-.31-.26-.48-.43a3.85,3.85,0,0,1-1.23-2.59,3.21,3.21,0,0,1,1.34-2.42,6,6,0,0,1,.55-.38l.48-.25a9.4,9.4,0,0,1,1-.38,14.13,14.13,0,0,1,1.86-.48c1.09-.22,2.17-.4,3.25-.54a9.13,9.13,0,0,1,4.19.13c.43.16.24.9-.19,1.58s-1.07,1.35-1.75,1.34a29.9,29.9,0,0,0-3.66.18,16.45,16.45,0,0,0-3.43.65c-.34.12-.38.12-.5.22a.42.42,0,0,0-.18.34.64.64,0,0,0,.17.36l.2.2c.12.1.26.23.29.22l.09.07.25.08a2.83,2.83,0,0,0,.53.15c.39.09.8.17,1.24.23.85.12,1.75.19,2.64.24,1.11.06,2.22.08,3.34.07a47.23,47.23,0,0,0,5.06-.31,27,27,0,0,0,3.75-.93c.28-.07.53-.18.8-.26,1-.25,1.31-.18,1.76.53a4.66,4.66,0,0,1,.3.47c.28.55,0,1.15-.79,1.54a22.41,22.41,0,0,1-7.34,1.71c-1.87.17-3.77.21-5.67.2Z"/><path class="cls-1" d="M279.43,412.23q-.85-10.2-2-20.4l-.92-7.42-1.83-15.77-.05-.49,0-.25c0-.06,0-.07-.07,0l-.1.06c-.25.17-.5.36-.77.56l-1.41,1.09-1.9,1.42c-1.6,1.17-3.23,2.32-5,3.36a26.19,26.19,0,0,1-2.74,1.42l-.74.29-.41.14-.54.15a5.75,5.75,0,0,1-2.13.15,3.37,3.37,0,0,1-2.17-1.19,2.35,2.35,0,0,1-.23-2.37A7.22,7.22,0,0,1,258,370.6a17.63,17.63,0,0,1,1.5-1.41,22.25,22.25,0,0,1,6.8-3.83c1.56-.51,1.59.37.71,1.59a23.27,23.27,0,0,1-4.64,4.46c-.44.34-.87.68-1.26,1-.18.16-.41.4-.52.51h0l.23-.07.35-.13a20.24,20.24,0,0,0,2.95-1.47,69.67,69.67,0,0,0,5.89-4l1.56-1.18c.9-.68,1.8-1.46,2.67-2a2.66,2.66,0,0,1,1.14-.39,2.16,2.16,0,0,1,.45,0l.17.11.09.07.05,0,0,0h0s.14-.32.08-.17h0l.63.57c.12,0,.16.37.23.57l.2.67c.08.66.16,1.32.25,2q.3,2.58.6,5.19c.2,1.55.4,3.11.61,4.67.41,3.12.85,6.26,1.21,9.37q1.2,10.29,2.15,20.61c.39,4.23.74,8.47,1.08,12.71.49,6.41.87,12.87,1.17,19.27.23,5,.54,9.84.47,14.81,0,1.09,0,2.17-.09,3.28-.29,4.11-.9,5.43-1.9,6.1a3.27,3.27,0,0,1-.69.42c-.36.1-.59-.28-.67-1a21.12,21.12,0,0,1,0-3.28c.21-4.26.14-8.7,0-13.22s-.36-9.1-.64-13.71c-.42-6.83-.94-13.71-1.57-20.57Z"/><path class="cls-1" d="M291.55,364.53a16,16,0,0,0,4.66.81,3.09,3.09,0,0,0,.72-.12l.31-.09a.72.72,0,0,0,.3-.13.38.38,0,0,0,.2-.38,1,1,0,0,0-.24-.42,3.76,3.76,0,0,0-.78-.61,9.58,9.58,0,0,0-1.13-.63,11.14,11.14,0,0,0-2.71-.87,20.77,20.77,0,0,1-3.63-.7c-.75-.27.52-3,2.13-2.78a18.75,18.75,0,0,1,4.09,1.09,14.78,14.78,0,0,1,2,1,9.07,9.07,0,0,1,.94.63,10.46,10.46,0,0,1,1.06.88,5,5,0,0,1,1.29,1.93,3,3,0,0,1,.11,1.11,4.64,4.64,0,0,1-.42,1,4.81,4.81,0,0,1-2.47,1.7,9.06,9.06,0,0,1-3.11.19,20.67,20.67,0,0,1-2.78-.48c-1.1-.26-2.17-.59-3.23-.92-1.61-.5-3.17-1.1-4.74-1.59a35.22,35.22,0,0,0-3.67-.84l-.79-.13c-1-.21-1-.38-1.17-1.17a3.75,3.75,0,0,0-.19-.53.6.6,0,0,1,.26-.81,1.4,1.4,0,0,1,.52-.25,2,2,0,0,1,.62-.07,26.34,26.34,0,0,1,7,1.6c1.66.53,3.29,1.1,4.92,1.52Z"/><path class="cls-1" d="M290.42,374.65a5.91,5.91,0,0,0,1.11.72c.36.17.36.17.47.16a.25.25,0,0,0,.14-.06s0,0,.08-.11l.15-.3a5.59,5.59,0,0,0,.3-.6c.05-.2.12-.4.19-.6a2.41,2.41,0,0,0-.27-1.54,7.68,7.68,0,0,0-2.65-2.61,38.3,38.3,0,0,0-3.72-2.19c-1.14-.61-2.35-1.14-3.55-1.66a21.59,21.59,0,0,1-4.51-2.25c-.85-.63,1.51-2.32,3.21-1.5a63.73,63.73,0,0,1,9.09,4.94c.88.62,1.81,1.23,2.72,2a6.22,6.22,0,0,1,2.16,3.19,5.74,5.74,0,0,1-.74,4.17,3.84,3.84,0,0,1-.71,1,2.65,2.65,0,0,1-1.18.65,3.63,3.63,0,0,1-2.4-.37,14.75,14.75,0,0,1-3.59-2.85c-1.55-1.58-2.9-3.31-4.28-5-1.06-1.3-2.19-2.51-3.24-3.81-.23-.29-.48-.55-.7-.85-.8-1.11-.89-1.6-.44-2.23a3.25,3.25,0,0,1,.31-.42c.42-.38,1.06-.17,1.73.55,2,2.12,3.87,4.54,5.81,6.85a31.27,31.27,0,0,0,4.54,4.64Z"/><path class="cls-1" d="M321.76,370.17a9,9,0,0,1-1.58-1.52,4.62,4.62,0,0,1-1.05-2.57,3.75,3.75,0,0,1,1.13-2.85,3.92,3.92,0,0,1,2.64-1,8.87,8.87,0,0,1,3,.47,34.11,34.11,0,0,1,8.11,4.73l3.29,2.39a15.42,15.42,0,0,1,3.87,3.52c.32.47-.3.92-1.14,1.11a2.94,2.94,0,0,1-2.57-.44c-2.5-2.16-5.14-4.24-7.84-6.27a16.2,16.2,0,0,0-5.39-2.51,5.71,5.71,0,0,0-1.34-.17,1,1,0,0,0-.72.25c-.3.37-.39.88.29,1.63a11,11,0,0,0,3.19,2.3,43.5,43.5,0,0,0,5.93,2.57c1.59.55,3.22.91,4.86,1.41.36.11.72.2,1.09.34,1.34.52,1.82,1.1,1.58,1.93a1.48,1.48,0,0,1-.22.53,1.55,1.55,0,0,1-1.73.4,69.77,69.77,0,0,1-8.79-2.73,31.27,31.27,0,0,1-6.69-3.44Z"/><path class="cls-1" d="M358.23,368.68c.24-.09.44-.19.63-.28s0,0,.08,0l.05,0a.17.17,0,0,0,.07-.1s.05-.22.07-.32a2,2,0,0,0,0-.34,2.75,2.75,0,0,0,0-.63,2.47,2.47,0,0,0-.07-.48c-.09-.22-.12-.3-.32-.41a3.42,3.42,0,0,0-1.73,0,16.12,16.12,0,0,0-4,1.33,33.78,33.78,0,0,0-4,2.13,25.38,25.38,0,0,0-3.19,2.44c-1.26,1.14-2.39,2.45-3.54,3.49-.33.31-1-.08-1.31-.91a2.81,2.81,0,0,1,.54-2.86,29.91,29.91,0,0,1,9.29-6.32c1-.44,2.08-.94,3.18-1.37a11.74,11.74,0,0,1,3.62-.92,5.13,5.13,0,0,1,2.44.45,3.39,3.39,0,0,1,1.74,2.12,6,6,0,0,1,.18,2.27c-.09.54-.09,1.75-.85,2.34a3.61,3.61,0,0,1-.69.53c-.21.13-.39.21-.59.31a11.67,11.67,0,0,1-1.13.46c-.75.27-1.49.49-2.23.69-2.23.6-4.48,1-6.67,1.52-1.71.4-3.35.94-5,1.42-.36.11-.71.24-1.07.33-1.36.36-1.7.28-2.2-.35-.14-.13-.24-.29-.46-.31s-.33,0-.32-.28.15-.34.14-.39a1.65,1.65,0,0,1,.18-.29,2.75,2.75,0,0,1,1.15-.84,58.44,58.44,0,0,1,9.28-2.63,47,47,0,0,0,6.64-1.83Z"/><path class="cls-2" d="M333.46,379.21c-5,3.7-9.21,11.44-3.59,10.71,2.56-.33,8.79-9.93,11.07-12.78"/><path class="cls-2" d="M334.07,374.05c-6.74.78-11.49,4.31-10.69,6.07,2.51,5.5,15.62-5.54,17.84-4.77"/><path class="cls-1" d="M352.29,375.82a15,15,0,0,0,4-.19,5.34,5.34,0,0,0,1.13-.48,2.37,2.37,0,0,0,.71-.5,2.9,2.9,0,0,0,.38-.54l0,0s0,0,0,0a0,0,0,0,0,0-.05.23.23,0,0,0-.08-.11,2.41,2.41,0,0,0-.91-.44,7,7,0,0,0-2.31-.18,12.26,12.26,0,0,1-3.15.13c-.68-.12-.15-3,1.2-3.16a14.42,14.42,0,0,1,3.64.08,8.16,8.16,0,0,1,2,.57,3.58,3.58,0,0,1,.55.28,3.37,3.37,0,0,1,.56.39,3.07,3.07,0,0,1,1,1.34,3,3,0,0,1,0,2,4.77,4.77,0,0,1-.69,1.35,5.15,5.15,0,0,1-2.13,1.69,12.68,12.68,0,0,1-4.92.78c-1,0-1.93-.07-2.87-.14-1.43-.1-2.84-.31-4.24-.4a24,24,0,0,0-3.19.09c-.23,0-.45.06-.66.07-.83,0-.87-.13-1.19-.86a4.57,4.57,0,0,0-.29-.47.69.69,0,0,1,0-.84,1.59,1.59,0,0,1,.91-.59,19.92,19.92,0,0,1,6.14-.16c1.46.12,2.91.28,4.32.3Z"/><path class="cls-1" d="M339.57,414l.16-18.05c0-2.2,0-4.39,0-6.58l.21-12.88v-.3c0-.07-.05-.26.09-.19l.6.09,1.17.18,1.17.17c.37.06.84.12,1,.17,1,.2,1.95.38,2.91.65a26.67,26.67,0,0,1,5.68,2.05,13.3,13.3,0,0,1,3.24,2.25,6.53,6.53,0,0,1,.82,1,2.35,2.35,0,0,1,.3.59,1.64,1.64,0,0,1,.2.6,1.69,1.69,0,0,1,.06.63,1.65,1.65,0,0,1-.1.62,1.6,1.6,0,0,1-.32.53,2.29,2.29,0,0,1-.43.45,4.48,4.48,0,0,1-2.08.83,3.89,3.89,0,0,1-.6,0,2.42,2.42,0,0,1-.47,0,6.65,6.65,0,0,1-.91-.17,12,12,0,0,1-3.28-1.54,28.74,28.74,0,0,1-2.74-2.05c-.86-.72-1.68-1.47-2.47-2.22s-1.57-1.53-2.29-2.12c-.47-.36-.34-.45-.34-.78a.56.56,0,0,1,.3-.42,1.79,1.79,0,0,1,.89-.14,10.35,10.35,0,0,1,5.42,2.73A26.27,26.27,0,0,0,351.6,383a6.56,6.56,0,0,0,1.78.74,2.23,2.23,0,0,0,.34,0s0,0,0,0h0a0,0,0,0,0,0,0,0,0,0,0,0,0,0s0,0,0-.07l-.25-.26a11.7,11.7,0,0,0-3-1.86c-.55-.28-1.16-.48-1.75-.73s-1.22-.43-1.84-.61-1.26-.37-1.91-.52l-1-.22-.48-.11-.22-.05-.07,0a4.83,4.83,0,0,0-.56-.16,4,4,0,0,0-.06.55c0,1.3,0,2.6,0,3.91v8.29l-.12,18.17c0,3.73,0,7.46,0,11.18,0,5.65,0,11.32.2,16.91.14,4.35.47,8.61.8,12.89.08.94.16,1.86.25,2.8.26,3.52.23,4.56-.41,5.41-.14.19-.27.45-.41.61s-.59.08-1-.62a10.3,10.3,0,0,1-.81-3,209,209,0,0,1-1.48-24c-.12-6.06-.12-12.15-.15-18.22Z"/><path class="cls-1" d="M286.38,266c2.31,2,3.67,4.86,5.24,7.46a29.68,29.68,0,0,0,6.15,7.59c1.23,1,3-.73,1.77-1.77-5-4.18-6.6-10.83-11.39-15.05-1.21-1-3,.71-1.77,1.77Z"/><path class="cls-1" d="M195.79,316.25c7.36-8.83,14.54-17.82,21.64-26.87q3.84-5,7.67-10,13.6-17.53,27-35.27c3.95-5.24,7.84-10.58,11.68-15.85l3.71-5.08c.63-.86,1.24-1.69,1.93-2.55a18.19,18.19,0,0,1,2.31-2.42,25.87,25.87,0,0,1,11.75-5.56c1.32-.26,2-.12,2,.17s-.58.76-1.55,1.37c-1.92,1.25-5.49,3-9,5.6a14.32,14.32,0,0,0-1.12.91,10.63,10.63,0,0,0-1,1,24.48,24.48,0,0,0-1.89,2.3L267,229.11l-7.68,10.27q-7.73,10.27-15.69,20.47c-6.36,8.12-12.71,16.78-19.17,25.12q-10.67,13.77-21.64,27.3-6.76,8.31-13.77,16.44c-3.53,4.1-7.15,8.16-10.91,12.08-.92,1-1.87,2-2.85,2.92s-1.92,1.92-2.93,2.83l-1.49,1.39-1.57,1.33a18.51,18.51,0,0,1-1.62,1.27c-.57.4-1.11.83-1.7,1.21a36.32,36.32,0,0,1-12,4.2,115.74,115.74,0,0,1-12.36,1.59l-5.4.46c-6.75.52-8.68.8-9.66,1-.27.08-.43.54-.48.8s-.23.26-.47,0a1.38,1.38,0,0,1-.26-.76,1.93,1.93,0,0,1,.48-1.25,5.4,5.4,0,0,1,2.49-1.45,21.58,21.58,0,0,1,3.38-.74c3.74-.52,7.46-.77,11.19-1.14s7.47-.79,11.12-1.52a32.68,32.68,0,0,0,10.24-3.53c.74-.46,1.46-1,2.19-1.55s1.43-1.2,2.15-1.8,1.39-1.28,2.09-1.92,1.39-1.32,2.06-2c8.06-8.12,15.58-17,23-25.94Z"/><path class="cls-1" d="M139.3,359.27c-4.73.64-9.68,0-14.42-.14-1.79,0-5.87-.64-6.22,2-.93,6.74,17.4,5.31,20,5.14,1.76-.12,1.77-2.87,0-2.75-4.49.29-9.27.54-13.69-.57-1.09-.27-2.08-.94-3.12-1.22-.66-.17-1,0-.29.23,1.09.3,2.94-.05,4.09,0,1.78.05,3.56.13,5.34.2a54.22,54.22,0,0,0,9-.18c1.74-.24,1-2.89-.73-2.65Z"/><path class="cls-1" d="M125.45,363c-2.08,0-6.38-.22-7.18,2.48a2.78,2.78,0,0,0,1,2.77c3.7,3.55,11.19,3,15.75,2.77,1.76-.11,1.77-2.86,0-2.75-3.79.23-7.85.35-11.51-.86-.49-.16-2.15-.59-2.4-1.2-.06-.15-.2-.14-.24-.29a40,40,0,0,0,4.55-.17,1.38,1.38,0,0,0,0-2.75Z"/><path class="cls-1" d="M144.88,374.83l.21-.29a.8.8,0,0,0-.26,0,4.43,4.43,0,0,0-1.13.23c-1.76.42-3.54.8-5.32,1.13-1.61.3-3.21.65-4.85.84a44,44,0,0,1-7,.32,21.85,21.85,0,0,1-3.57-.42,10.12,10.12,0,0,1-4.41-2,4.93,4.93,0,0,1-.61-.7,2,2,0,0,1-.34-.8,1.23,1.23,0,0,1,.36-.83,4.18,4.18,0,0,1,.68-.55,7.69,7.69,0,0,1,2.28-.9c.44-.13.92-.22,1.37-.33l1.17-.23c1.25-.24,2.5-.46,3.74-.67,3.17-.54,6.37-1.11,9.49-1.34.93-.08,1,.67.32,1.57a6.6,6.6,0,0,1-4,2.1l-8,1.13-1,.16-.43.07h0l-.17,0a.7.7,0,0,0-.3.05c-.1.07-.05.12,0,.19a.85.85,0,0,0,.42.34,18.93,18.93,0,0,0,5.6.39c1.95-.11,3.93-.39,5.89-.68,2.15-.34,4.3-.76,6.45-1.24L143,372l.8-.19,1.25-.33c1.69-.44,3.39-.94,5-1.41a2.6,2.6,0,0,1,.51-.12c-1,1.91-2,3.81-2.85,5.58l-.49,1.08-.38.88c-.24.56-.5,1.22-.67,1.72l-.17.47-.12.39a3.89,3.89,0,0,0-.14.83c0,.27.09.65.41.63a1.87,1.87,0,0,0,.78-.27,4.23,4.23,0,0,0,.71-.51l.35-.34.47-.51c.67-.74,1.31-1.54,1.94-2.34,1.93-2.52,3.63-5.16,5.6-7.71.45-.55.84-1.12,1.33-1.66,1.81-2,2.78-2.44,3.7-2.11a2.27,2.27,0,0,1,.59.24c.26.19.23.54,0,1a7.69,7.69,0,0,1-.47.73c-.2.27-.45.57-.73.92-1.71,2-3.34,4.41-5.07,6.76-.86,1.18-1.74,2.37-2.66,3.57-.47.6-.93,1.2-1.44,1.8-.24.29-.51.6-.78.89l-.2.23a3.09,3.09,0,0,1-.26.26l-.75.7a6.76,6.76,0,0,1-1.22.93,7.3,7.3,0,0,1-1.29.68,2.17,2.17,0,0,1-.63.2,2.64,2.64,0,0,1-.59.11H145a5.23,5.23,0,0,1-.54-.12c-1.64-.66-2.11-2.07-1.75-4.15a11.78,11.78,0,0,1,.38-1.56c.07-.29.14-.44.2-.65l.2-.57c.2-.55.41-1.1.64-1.63l.34-.8.29-.65,0-.07Z"/><path class="cls-1" d="M175,390.11a19.55,19.55,0,0,0-.68-4.59c-.39-1.59-.87-3.2-1.39-4.8-.38-1.17-.85-2.32-1.24-3.49-1.38-4.15-2.75-8.35-4-12.59-.54-1.89-1.09-3.79-1.63-5.66a27.66,27.66,0,0,1-1.35-7.45c0-.8.76-.76,1.58-.2a4.66,4.66,0,0,1,1.16,1.18,4.43,4.43,0,0,1,.76,1.77c.93,4.79,2.31,9.57,3.6,14.48.77,2.94,2,5.86,3,8.82a65.71,65.71,0,0,1,2.81,10.11,12.68,12.68,0,0,1,.14,3.45,5.49,5.49,0,0,1-.55,1.86,3.91,3.91,0,0,1-.61.87,5.85,5.85,0,0,1-.82.67,5.78,5.78,0,0,1-2.81.64,4.47,4.47,0,0,1-2.77-.95,13.36,13.36,0,0,1-3.15-4.05c-1.25-2.19-2.41-4.33-3.68-6.33-.28-.43-.58-.84-.86-1.26-1.07-1.54-1.32-2-1.06-2.83a4.59,4.59,0,0,1,.16-.59c.22-.59,1.32-.39,2.44.81a28.53,28.53,0,0,1,3.87,5.81,33.59,33.59,0,0,0,3.29,5.43,3.27,3.27,0,0,0,1.21.95,2,2,0,0,0,.23.07,2.65,2.65,0,0,0,.33,0l.45,0a3.18,3.18,0,0,0,.37-.06c.47-.13.6-.21.77-.48a3.2,3.2,0,0,0,.28-1.57Z"/><path class="cls-1" d="M209.33,360.21l-6.67,8c-.81,1-1.55,2-2.36,3-2.85,3.43-5.73,6.84-8.55,10.29-1.25,1.54-2.44,3.13-3.6,4.72a51.77,51.77,0,0,1-4.64,6c-1.1,1.13-2.15-2.17-.41-4.5,3.1-4.13,6.34-8.14,9.85-12,2.09-2.31,4-4.94,6-7.41l6.68-8.1,4.13-5c2.09-2.52,4.22-5,6.26-7.52,1.59-2,3-4,4.61-5.94.34-.43.67-.87,1-1.29,1.4-1.55,2.11-1.92,3-1.58a1.87,1.87,0,0,1,.53.26c.41.46.22,1.15-.66,2.3-2.6,3.45-5.51,7.14-8.49,10.74l-6.66,8.09Z"/><path class="cls-1" d="M324.48,349.41c-2.13-2.25-4.15-4.59-6.16-6.92-.73-.86-1.51-1.66-2.23-2.53-2.51-3-4.92-6.15-7.44-9.16-1.12-1.32-2.31-2.6-3.54-3.79-1.56-1.56-3.28-2.92-4.72-4.57-.44-.52.1-1.05,1-1.22a3.82,3.82,0,0,1,3.22.92,74.11,74.11,0,0,1,9.07,10.46c1.62,2.22,3.58,4.3,5.39,6.41,2,2.35,4,4.65,6.07,6.91,1.29,1.37,2.57,2.75,3.93,4.05a69.47,69.47,0,0,0,6.39,5.64c.88.64,1.75,1.3,2.68,1.85l2.79,1.65c.4.25.84.42,1.25.66,1.54.87,1.91,1.33,1.86,2.21a3.94,3.94,0,0,1-.05.6c-.14.62-1,.67-2.27.13a41.9,41.9,0,0,1-10.45-6.79l-1.8-1.53c-.58-.53-1.14-1.08-1.71-1.62-1.16-1.07-2.26-2.19-3.35-3.31Z"/><path class="cls-1" d="M322.34,255.46c.33-2,.73-4,1.09-6l1.21-5.94c.32-1.44.57-2.89.9-4.32,1.22-5.05,2.58-10.06,4.14-15,.67-2.21,1.34-4.43,2-6.62.46-1.4.84-2.83,1.39-4.21.27-.7.54-1.39.84-2.07s.71-1.34,1.1-2c.49-.81,1.09-.32,1.43.7a6.35,6.35,0,0,1-.18,4c-2.07,5.4-3.81,11.06-5.66,16.73-.57,1.7-1,3.47-1.42,5.26s-.78,3.59-1.17,5.38c-.88,3.92-1.68,7.87-2.37,11.83-.46,2.44-.78,4.89-1.16,7.34-.23,1.86-.46,3.73-.68,5.59s-.33,3.73-.43,5.59c0,1.44,0,2.87,0,4.29s.15,2.84.21,4.26c0,.63.07,1.24.13,1.86.19,2.32,0,3.06-.72,3.64a4.21,4.21,0,0,1-.51.38c-.59.28-1.15-.64-1.43-2.4a68.53,68.53,0,0,1-.26-16.22c.32-4.07.89-8.13,1.49-12.17Z"/><path class="cls-1" d="M264.46,317.81c.82-4.11,1.74-8.21,2.81-12.27.4-1.47.67-3,1.12-4.44,1.49-5.19,3.3-10.26,5.06-15.31.78-2.24,1.47-4.51,2.1-6.76.76-2.91,1.34-5.83,2.1-8.7.26-.89,1-.67,1.58.24a5.8,5.8,0,0,1,.63,4.3A137.57,137.57,0,0,1,274,292.65c-.69,1.73-1.22,3.54-1.77,5.35s-1,3.68-1.49,5.5c-1.07,4-2.08,8.06-2.89,12.15l-.76,3.78-.63,3.79-.47,2.89L265.6,329c-.24,1.93-.53,3.85-.66,5.78-.22,3-.35,5.94-.37,8.91,0,.66,0,1.3,0,2-.1,2.44-.35,3.2-1.17,3.69a3.13,3.13,0,0,1-.55.32c-.62.2-1.06-.82-1.12-2.63a106.18,106.18,0,0,1,.8-16.67c.46-4.19,1.15-8.38,1.88-12.55Z"/><path class="cls-1" d="M305.35,225a2.43,2.43,0,0,1-1.41,2.1c-3.37,2-5.86-4.21-1.73-4.38C304,222.69,305.32,223.8,305.35,225Z"/><path class="cls-1" d="M322.33,222.6a1.92,1.92,0,0,1-1.12,1.66c-2.69,1.6-4.67-3.35-1.38-3.48A2.21,2.21,0,0,1,322.33,222.6Z"/><path class="cls-1" d="M307.07,244.8a2.43,2.43,0,0,1-1.12-2.24c-.08-3.88,6.49-3,4.62.64C309.76,244.78,308.16,245.37,307.07,244.8Z"/><path class="cls-1" d="M277.62,298.59a2.11,2.11,0,0,1-1-2c-.08-3.46,5.76-2.67,4.1.56A2.43,2.43,0,0,1,277.62,298.59Z"/><path class="cls-1" d="M288.09,348.69a2.09,2.09,0,0,1-1-1.95c-.07-3.39,5.65-2.62,4,.55A2.39,2.39,0,0,1,288.09,348.69Z"/><path class="cls-1" d="M277.45,326.58a2.49,2.49,0,0,1-1.16-2.31c-.08-4,6.71-3.1,4.77.66C280.22,326.56,278.57,327.17,277.45,326.58Z"/><path class="cls-1" d="M288.24,327.82a1.8,1.8,0,0,1-.85-1.68c-.06-2.93,4.89-2.27,3.48.48A2.05,2.05,0,0,1,288.24,327.82Z"/><path class="cls-1" d="M311.87,262.36a2.79,2.79,0,0,1-1.3-2.6c-.1-4.54,7.56-3.51,5.38.74C315,262.34,313.14,263,311.87,262.36Z"/><path class="cls-1" d="M268.2,339.2a1.67,1.67,0,0,1-.79-1.58c-.06-2.75,4.59-2.13,3.27.45A1.94,1.94,0,0,1,268.2,339.2Z"/><path class="cls-1" d="M274.31,417.09a4.45,4.45,0,0,1,.63-2.62,3.33,3.33,0,0,1,.66-.69,2.23,2.23,0,0,1,1.14-.49,4,4,0,0,1,2.21.63,10.16,10.16,0,0,1,1,.68l.62.54a9.62,9.62,0,0,0,1.11.82c.49.32,1.07.55,1.28,1.18.13.39-2.15,2.12-2.59,1.78a12.92,12.92,0,0,1-1.16-1.05c-.18-.18-.35-.37-.52-.57a3.24,3.24,0,0,1-.22-.28,1.41,1.41,0,0,0,0-.18c-.1-.32-.36-.33-.59-.36a.38.38,0,0,0-.37.16.74.74,0,0,0-.18.4,1.66,1.66,0,0,0,0,.32,1.31,1.31,0,0,0,.05.39,3.93,3.93,0,0,0,.81,1.65,1.7,1.7,0,0,0,1.13.5l.19,0c.15,0,.09.16.23,1l.11.53a.92.92,0,0,1-.73,1.24,3.38,3.38,0,0,1-2.33-.66,5.24,5.24,0,0,1-1.43-1.55,6.76,6.76,0,0,1-.64-1.36,7.25,7.25,0,0,1-.42-2Z"/><path class="cls-1" d="M243.19,425.16a4.39,4.39,0,0,1,.63-2.61,3.37,3.37,0,0,1,.66-.7,2.24,2.24,0,0,1,1.14-.49,3.9,3.9,0,0,1,2.21.64,8.59,8.59,0,0,1,1,.67l.62.54a7.94,7.94,0,0,0,1.11.82c.48.32,1.07.55,1.28,1.18.13.4-2.16,2.12-2.59,1.78a12.92,12.92,0,0,1-1.16-1.05,7,7,0,0,1-.52-.57,1.21,1.21,0,0,1-.22-.28,1.11,1.11,0,0,0,0-.17c-.1-.33-.36-.34-.59-.37a.39.39,0,0,0-.37.16.78.78,0,0,0-.18.4,1.12,1.12,0,0,0,0,.32,1.37,1.37,0,0,0,0,.4,4.05,4.05,0,0,0,.81,1.65,1.72,1.72,0,0,0,1.13.49l.18,0c.16,0,.1.16.24,1l.1.53a.92.92,0,0,1-.72,1.24,3.33,3.33,0,0,1-2.33-.66,5.12,5.12,0,0,1-1.43-1.55,6.18,6.18,0,0,1-.64-1.35,7,7,0,0,1-.42-2Z"/><path class="cls-1" d="M288,424l.27-.49a3.57,3.57,0,0,0,.17-.44.44.44,0,0,0,.08-.35.47.47,0,0,0-.06-.09s-.1,0-.14-.1a.42.42,0,0,0-.26-.12h-.16a.69.69,0,0,0-.25.06,6.44,6.44,0,0,0-1.52.91,6.26,6.26,0,0,0-1.16,1.25,5.44,5.44,0,0,1-1.41,1.72c-.2.12-.82-.33-1.3-.93s-.81-1.35-.52-1.74a9.87,9.87,0,0,1,4.06-3.37l.89-.38a6.48,6.48,0,0,1,1.16-.35,2.82,2.82,0,0,1,2.24.5,2.69,2.69,0,0,1,.32.27,3.66,3.66,0,0,1,.62,1,3,3,0,0,1,.3,1.13,5,5,0,0,1-.07,1.13c-.09.29-.17.6-.28.88a9.08,9.08,0,0,1-1.14,1.95,15.59,15.59,0,0,1-2.25,2.34,18.08,18.08,0,0,1-1.94,1.69,4.92,4.92,0,0,1-.51.31c-.68.32-1,.15-1.31-.57a5.1,5.1,0,0,1-.19-.5,1.43,1.43,0,0,1,.23-1.39c.81-.81,1.67-1.52,2.51-2.35a8.88,8.88,0,0,0,1.55-2Z"/><path class="cls-1" d="M332.69,411.35a4.42,4.42,0,0,1,.58-1.61A3.37,3.37,0,0,1,334,409a2.39,2.39,0,0,1,1-.34,2.84,2.84,0,0,1,1.32.07,7.42,7.42,0,0,1,2.29,1.34c.44.39.85.78,1.25,1.17a8.43,8.43,0,0,0,1.15.92c.51.36,1.12.62,1.36,1.29.14.41-2.17,2.1-2.66,1.7a13.7,13.7,0,0,1-2.41-2.57c-.29-.34-.26-.35-.39-.44s-.22-.1-.34-.18a.82.82,0,0,0-.39-.13.37.37,0,0,0-.32.18,1.14,1.14,0,0,0-.1.19,1.34,1.34,0,0,0-.06.7,1.21,1.21,0,0,0,.06.31,2.9,2.9,0,0,0,.16.47,2.76,2.76,0,0,0,.51.86,2,2,0,0,0,1.2.65,1.7,1.7,0,0,1,.21,0c.18,0,.12.17.26,1l.1.54a1.13,1.13,0,0,1-.07.8.89.89,0,0,1-.72.42,3.59,3.59,0,0,1-2.45-.81,5.76,5.76,0,0,1-1.44-1.73c-.13-.24-.25-.48-.36-.73l-.15-.41a3.39,3.39,0,0,1-.17-.59,6.09,6.09,0,0,1-.21-1.18l-.05-.58.06-.55Z"/><path class="cls-1" d="M347,419.05a3.68,3.68,0,0,0,.21-.46,1.15,1.15,0,0,0,.06-.21c0-.06,0-.06,0-.09a.46.46,0,0,0,0-.35v0c0-.07-.15-.07-.21-.12a.66.66,0,0,0-.26-.08h-.17a2,2,0,0,0-.32.11,7,7,0,0,0-1.47.92,5.62,5.62,0,0,0-1.11,1.22,5,5,0,0,1-1.35,1.65c-.2.11-.82-.33-1.3-.92s-.83-1.34-.56-1.71a9.7,9.7,0,0,1,3.88-3.26l.79-.36a7,7,0,0,1,1.05-.42,3.06,3.06,0,0,1,2.23.13,3.1,3.1,0,0,1,.74.55,3.89,3.89,0,0,1,.85,1.77,3.65,3.65,0,0,1,0,1,3.79,3.79,0,0,1-.14.81,7.9,7.9,0,0,1-.9,2,11.8,11.8,0,0,1-2.07,2.44,7.2,7.2,0,0,1-2.14,1.61,1.79,1.79,0,0,1-.65.22,2.34,2.34,0,0,1-.57,0,.86.86,0,0,1-.37-.19,1,1,0,0,1-.23-.83,3.19,3.19,0,0,1,.06-.53,2.64,2.64,0,0,1,.62-1.19c.3-.27.55-.52.88-.8a14.52,14.52,0,0,0,1-1,6.8,6.8,0,0,0,1.26-1.91Z"/><path class="cls-1" d="M374.26,400.54a9.55,9.55,0,0,1-.4-1.9,6.08,6.08,0,0,1,.2-2.5,3.41,3.41,0,0,1,1-1.6,2.88,2.88,0,0,1,3.07-.32,5.43,5.43,0,0,1,1.33.94,10.27,10.27,0,0,1,.78.88c.41.52.83,1,1.24,1.5a4.35,4.35,0,0,1,1.27,2.06c0,.29-.65.6-1.39.79s-1.52.26-1.75-.07l-1.16-1.76-.54-.83c-.09-.13-.19-.27-.25-.38a1.48,1.48,0,0,0,0-.19.38.38,0,0,0-.37-.28.62.62,0,0,0-.39.24,1,1,0,0,0-.22.51,5,5,0,0,0,.13,1.25,7.59,7.59,0,0,0,.57,1.66,7.26,7.26,0,0,0,1.53,2.23,2.91,2.91,0,0,0,1.68.71,2.72,2.72,0,0,0,.3,0c.3,0,.32.15.61.9l.22.5a.95.95,0,0,1-.72,1.37,4,4,0,0,1-1.61,0,5.4,5.4,0,0,1-1.37-.56,7.43,7.43,0,0,1-2-1.77,11.63,11.63,0,0,1-1.82-3.31Z"/><path class="cls-1" d="M246,392.64l0,.52-.05.92c0,.67,0,1.35-.06,2a3.42,3.42,0,0,1-.15.94c-.06.09-.11.19-.17.27l-.21.15-.2.08H245c-.29-.57-.08-.15-.15-.28h0l-.09.06-.4.22a2.41,2.41,0,0,1-1.52-.74l-1.71-1.31c-.68-.52-1.36-.93-2-1.37l-.79-.5-.29-.18a.94.94,0,0,0-.38-.11.27.27,0,0,0-.27.23,1.27,1.27,0,0,0,.15.8,8.54,8.54,0,0,0,.51.82c.19.29.41.57.63.85a15.47,15.47,0,0,0,2.76,2.6c1.31,1,2.75,1.7,4.08,2.56.41.27.15.83-.51,1.2a2.69,2.69,0,0,1-2.65,0A20.06,20.06,0,0,1,238,399a16.5,16.5,0,0,1-1.77-2.18l-.39-.6-.41-.73c-.17-.35-.28-.71-.42-1.05a4.35,4.35,0,0,1-.22-1,2.58,2.58,0,0,1,.63-2,2.35,2.35,0,0,1,2.08-.45,5.72,5.72,0,0,1,1.21.4c.21.08.41.18.61.28l.41.23a15.6,15.6,0,0,1,1.43.88c.44.31.92.65,1.3.95l.46.39a3.3,3.3,0,0,0,.52.42l.05-.61,0-.27.15-1.71.13-1.1.07-.55c0-.23.08-.52.13-.77a5.15,5.15,0,0,1,.92-2.37,1.3,1.3,0,0,1,.94-.56,1,1,0,0,1,.55.14,2.05,2.05,0,0,1,.47.29,6.11,6.11,0,0,1,1.7,2.88,19.47,19.47,0,0,1,.94,5.16,11.23,11.23,0,0,1,0,1.16c-.1,1.46-.41,1.9-1.09,2.05a2.49,2.49,0,0,1-.46.09c-.52,0-.77-.61-.79-1.54a25.57,25.57,0,0,0-.37-4.18,15.53,15.53,0,0,0-.48-2l0-.06h0s0,0,0,0a0,0,0,0,0,0,0h0l0,.17-.05.39c-.07.53-.12,1.07-.15,1.61Z"/><path class="cls-1" d="M245.75,406.89a5.48,5.48,0,0,0,3.14-1.23,2,2,0,0,0,.47-.45,4.7,4.7,0,0,0,.4-.47,8.11,8.11,0,0,0,1.71-4.57,8.64,8.64,0,0,0-.13-2.38,13.07,13.07,0,0,1-.52-3.05c0-.68,3-.62,3.3.75a13.16,13.16,0,0,1-.32,7.26,12.18,12.18,0,0,1-2.16,4.24,9.27,9.27,0,0,1-4.42,2.6,7.89,7.89,0,0,1-3.21,0,8.9,8.9,0,0,1-4-2.29,15.25,15.25,0,0,1-2.38-2.57c-.15-.21-.32-.41-.45-.63-.44-.85-.35-1.22.3-1.67a4.5,4.5,0,0,1,.45-.31,1.21,1.21,0,0,1,1.52.33,19.51,19.51,0,0,0,3.42,3.48,4.77,4.77,0,0,0,2.92.86Z"/><path class="cls-1" d="M251.17,441.92c-.25-2.86-.54-5.72-.9-8.58-.13-1-.35-2.07-.48-3.12-.48-3.67-.94-7.36-1.51-11-.25-1.63-.6-3.25-1-4.85a35.27,35.27,0,0,1-1.18-6.21c-.07-1.32,3-.24,3.54,2.13a108.87,108.87,0,0,1,2,12.82c.23,2.6.81,5.24,1.18,7.88.4,2.9.75,5.81,1,8.72.21,1.79.33,3.6.5,5.39l.26,4.1.18,4.1c.08,2.12.27,4.21.2,6.36,0,.47,0,.94-.06,1.42a4.25,4.25,0,0,1-.49,1.86,1.27,1.27,0,0,1-.94.63,2.26,2.26,0,0,1-.57.09c-.61,0-1-.81-.88-2,.09-3.49-.06-7.29-.28-11.13-.15-2.85-.38-5.73-.67-8.61Z"/><path class="cls-1" d="M386.94,408.18l.12-.19.06,0,.1-.08a.55.55,0,0,0,.13-.32h0c0-.1-.1-.11-.13-.17-.2-.23-.4-.4-1.59,0a4.4,4.4,0,0,0-1.19.72c-.48.37-.85.89-1.51,1-.19,0-.66-.57-1-1.27s-.47-1.46-.15-1.7a9.2,9.2,0,0,1,1.82-1.08,8.52,8.52,0,0,1,1-.37,4.76,4.76,0,0,1,.57-.13c.17,0,.41-.09.71-.12a9.88,9.88,0,0,1,1.92-.14,2.47,2.47,0,0,1,1.64.67,5.05,5.05,0,0,1,.49.68,3.39,3.39,0,0,1,.19.76l.07.38c0,.12,0,.26,0,.39a5.85,5.85,0,0,1-.36,1.54,6.31,6.31,0,0,1-.49.92,7.71,7.71,0,0,1-.52.75,9.52,9.52,0,0,1-2,1.92,3.59,3.59,0,0,1-2.48.94,1.51,1.51,0,0,1-.72-.15c-.46-.18-.63-.42-.66-.65a1,1,0,0,1,.33-.77,3.33,3.33,0,0,1,.36-.39,4.3,4.3,0,0,1,1.14-.67c.06,0,.1-.11.12-.14s0,0,0-.08a.22.22,0,0,0,0-.08c0-.07,0-.06,0-.09s0,0,0-.08l.68-.58a6.53,6.53,0,0,0,1.2-1.45Z"/><path class="cls-1" d="M391.35,359.1a8.38,8.38,0,0,1-.07,2.6c.11-.05.28-.15.49-.27,0,.05.59-.42,1-.7s.89-.63,1.36-.91l.91-.53c.37-.22.75-.4,1.11-.58a5.83,5.83,0,0,1,2-.6,2.27,2.27,0,0,1,1.58.37,1.31,1.31,0,0,1,.48.76l.09.41c0,.14,0,.28,0,.41a4,4,0,0,1-.18.82,3.73,3.73,0,0,1-.27.82l-.43.86c-.15.28-.37.57-.55.85l-.29.41-.14.21-.11.14-.43.52c-.28.36-.59.68-.89,1a50.8,50.8,0,0,1-3.6,3.59,15,15,0,0,1-5.49,3.6c-.68.21-.81-.49-.59-1.32a4.27,4.27,0,0,1,1.62-2.43,37.32,37.32,0,0,0,4.69-3.82c.74-.69,1.45-1.42,2.13-2.17l.49-.56c.11-.13.07-.07.11-.1l.06-.05a1.79,1.79,0,0,0,.33-.31.94.94,0,0,0,.15-.22c.11-.16.19-.47,0-.51a1.06,1.06,0,0,0-.53.13,4.91,4.91,0,0,0-.5.28l-1.32.86-1,.69-.76.55-.84.63c-1.11.84-2.23,1.74-3.28,2.58.07-2.06.16-4.16.12-5.93,0-1,0-1.79-.08-2.69l-.07-.92a5.9,5.9,0,0,0-.1-.7,2.49,2.49,0,0,0-.32-.9.36.36,0,0,0-.41-.15.82.82,0,0,0-.35.29,3.64,3.64,0,0,0-.54,1.14c0,.1-.07.21-.1.31l-.09.36c-.09.36-.15.72-.22,1.09a24.15,24.15,0,0,0-.15,6l.15,1.29c.17,1.61.14,2.09-.49,2.6a4.58,4.58,0,0,1-.43.34c-.48.3-1.14-.31-1.46-1.62a20.45,20.45,0,0,1-.52-6,24.43,24.43,0,0,1,.32-3.06l.15-.78.07-.38.13-.5a15,15,0,0,1,.95-2.65c.24-.42.5-.81.76-1.18s.56-.5.88-.74a3.34,3.34,0,0,1,1-.3,2.25,2.25,0,0,1,1.14.18,2.92,2.92,0,0,1,1.48,1.58,10.89,10.89,0,0,1,.75,3.06l.1.82,0,.46.06.91Z"/><path class="cls-1" d="M387.31,378.55a9.8,9.8,0,0,1-5.27-2.24,10.2,10.2,0,0,1-1.51-1.43,10.32,10.32,0,0,1-2-6.67c0-1,.06-2,.13-2.92a8.5,8.5,0,0,1,.76-3.56c.38-.66,2.85,1,2.62,2.18a27.82,27.82,0,0,0-.63,6.3,5.3,5.3,0,0,0,1.63,3.2,6.93,6.93,0,0,0,3.5,2.09,7.91,7.91,0,0,0,2.62.17,8.37,8.37,0,0,0,3.84-1.41,7.74,7.74,0,0,0,2-2.36c.11-.19.17-.41.29-.6.41-.7.63-.86,1.46-.7l.54.1c.6.16.88.73.66,1.53a9.19,9.19,0,0,1-5,5.36,11.35,11.35,0,0,1-5.68,1Z"/><path class="cls-1" d="M378.14,424.88c.37-4.15.8-8.29,1.25-12.42.15-1.51.26-3,.44-4.53.65-5.31,1.44-10.6,2.23-15.88.35-2.35.65-4.71.95-7.05a54.88,54.88,0,0,1,1.52-9c.54-1.81,2.87,1.09,2.32,4.45-.94,6-1.87,12.09-3,18.19-.66,3.65-.93,7.5-1.35,11.27-.45,4.14-.89,8.29-1.26,12.44-.23,2.56-.43,5.11-.61,7.67-.23,3.87-.47,7.77-.47,11.62,0,3,.25,5.92.54,8.83.07.64.17,1.26.23,1.91a16.1,16.1,0,0,1,.13,2.52,1.82,1.82,0,0,1-.61,1.24,3.25,3.25,0,0,1-.48.44c-.56.35-1.2-.56-1.63-2.39-1.12-5.39-1.12-11.07-1-16.73.1-4.2.4-8.41.7-12.6Z"/><path class="cls-1" d="M305.73,147.84c.43-.71.77-1.47,1.21-2.18,0-.07.78-1,.78-1l-1.29.42a1.32,1.32,0,0,1,.28.25c.11.28.44.61.59.89,1,2,.82,4.69.2,6.73-.19.61,2.63.26,2.86-.5a12.44,12.44,0,0,0,.43-5.11c-.17-1.25-.81-3.13-2.18-3.5a4.22,4.22,0,0,0-3.68,1.17,17.13,17.13,0,0,0-2.06,3.35c-.28.46,1,.33,1.17.3a2.48,2.48,0,0,0,1.69-.8Z"/><path class="cls-1" d="M270.73,132.43a3.21,3.21,0,0,0-.37-1.07,3,3,0,0,1-.24-.69,1.16,1.16,0,0,1,.2-.91,20.22,20.22,0,0,1,3.84-4.28,14.85,14.85,0,0,1,2.11-1.4l1.12-.6,1.18-.51a15.32,15.32,0,0,1,8.69-1.13,6.78,6.78,0,0,1,1.28.28l1.25.34c.81.2,1.56.54,2.34.8.14,0,.3,0,.39.17.24.31,0,1-.52,1.4-.11.09-.26.26-.31.24-.56-.21-1.37.5-1.88.24a4,4,0,0,0-1.54-.4,8.41,8.41,0,0,0-1.57-.14,6.36,6.36,0,0,1-1.23-.15c-.52-.1-1-.15-1.58-.2a3.31,3.31,0,0,0-1,.08,8.61,8.61,0,0,0-1.72.38l-1,.33-1.07.49a8.23,8.23,0,0,0-1.09.59,9.28,9.28,0,0,0-1.07.69,26.06,26.06,0,0,0-5,4.78,1.71,1.71,0,0,1-.41.25l-.27.13Z"/><path class="cls-1" d="M302.73,124a8.47,8.47,0,0,1-.44-1.68.8.8,0,0,1,.24-.69,16.52,16.52,0,0,1,3.39-2.48,16.75,16.75,0,0,1,3.5-1.25,13,13,0,0,1,6.56-.19,9.53,9.53,0,0,1,.95.29l.92.38a11.86,11.86,0,0,1,1.73.81c.1,0,.23.06.27.17.13.3-.28.93-.76,1.29-.11.08-.27.22-.3.2-.39-.2-1.17.45-1.49.22a4.74,4.74,0,0,0-2.12-.49c-.28,0-.55-.12-.83-.17a9,9,0,0,0-1.08-.3,7.61,7.61,0,0,0-2,.11,13.5,13.5,0,0,0-3.29,1.07,28.33,28.33,0,0,0-4.33,2.6A4.58,4.58,0,0,1,302.73,124Z"/><path class="cls-1" d="M312.64,168.69a3.23,3.23,0,0,1,.46,2.52,2.72,2.72,0,0,1-.11.38l-.09.19a1.17,1.17,0,0,1-.21.27,1.77,1.77,0,0,1-.63.41.78.78,0,0,1-.32.08,2.48,2.48,0,0,1-.27,0,2.13,2.13,0,0,1-.76-.13,5.37,5.37,0,0,1-1-.49,3.58,3.58,0,0,0-.78-.33c-.34-.12-.77-.15-.94-.64-.05-.15.42-.65.9-1.13s.91-1,1-.92a2.69,2.69,0,0,1,1.11,1,.51.51,0,0,0,.12.13s0-.07,0,.3a.84.84,0,0,0,.08.34.35.35,0,0,0,.06.17l0,0h0l-.55-.64h0l0,.06,0,.05v0a.45.45,0,0,0,0-.44.56.56,0,0,0-.25-.28.88.88,0,0,0-.66,0,.28.28,0,0,0-.18.32s0,0,0,.07a.05.05,0,0,1,0,0s-.07-.15-.13-.17l-.06,0h0l-.75.23h0l0,0s0,0,0,0l-.09.09-.16.19c-.16.22-.33.42-.64.35a.93.93,0,0,1-.62-.76,1.44,1.44,0,0,1,.29-1.44,3.12,3.12,0,0,1,1.9-1l.47-.07.49,0a2.54,2.54,0,0,1,.49.05l.46.17a3.19,3.19,0,0,1,1.4,1.08Z"/></g></svg>