<svg width="253" height="349" viewBox="0 0 253 349" fill="none" xmlns="http://www.w3.org/2000/svg">
<path d="M67.88 307C67.88 307 78.62 318.06 76.88 319.92C76.36 320.46 60.03 325.98 45.79 334.43C45.1753 334.279 44.5761 334.072 44 333.81C45.33 332.41 52.34 326.63 61.58 321.47C68.06 317.87 67.88 307 67.88 307Z" fill="#221F1F"/>
<path d="M204 296.05C200.94 298.79 194.95 316.15 192.54 317.53C189.67 319.18 180.72 316.06 171.79 315.21C165.691 314.669 159.558 314.616 153.45 315.05C145.45 313.32 153.37 297.45 153.37 297.45C153.37 297.45 157.06 306.11 161.47 309.93C170.47 309.22 185.1 312.93 187.37 313.1C192.37 313.52 193.26 308.5 195.16 305.1C196.87 302 200.18 296.86 204 296.05Z" fill="#221F1F"/>
<path d="M64.77 100.76C64.1422 99.6823 63.8463 98.4433 63.9192 97.1982C63.9921 95.9531 64.4307 94.7571 65.18 93.7601C65.62 93.1401 67.03 93.2701 67.26 93.9001L67.59 94.8201C67.71 95.1301 67.86 95.4201 67.99 95.7101C68.22 96.3001 68.54 96.8601 68.8 97.4101C69.6192 99.5688 70.8484 101.549 72.42 103.24C73.602 104.453 74.9732 105.467 76.48 106.24C77.5773 106.813 78.7587 107.208 79.98 107.41C81.0853 107.684 82.2538 107.519 83.24 106.95C83.4672 106.72 83.6353 106.439 83.73 106.13C83.73 106.01 83.8 105.89 83.84 105.77L83.9 105.32V105.09V104.82V104.28C83.7772 102.448 83.3585 100.648 82.66 98.9501C82.0415 97.2861 81.1268 95.748 79.96 94.4101C79.0201 93.2972 77.7369 92.5282 76.3123 92.2241C74.8877 91.92 73.4024 92.098 72.09 92.7301C70.7641 93.3022 69.5542 94.1122 68.52 95.1201C66.5598 97.0019 65.3513 99.5326 65.12 102.24C64.9743 103.65 65.0485 105.073 65.34 106.46C65.4018 106.798 65.4853 107.132 65.59 107.46C65.6636 107.801 65.7639 108.135 65.89 108.46C66.02 108.73 66.1 109.01 66.24 109.29C66.38 109.57 66.55 109.81 66.69 110.08C66.83 110.35 67.17 110.76 67.44 111.08C67.7352 111.386 68.0718 111.648 68.44 111.86C69.2405 112.427 70.0829 112.931 70.96 113.37C71.29 113.55 71.68 113.64 72.05 113.81C72.42 113.98 72.86 114.02 73.27 114.15C74.1331 114.315 75.0154 114.356 75.89 114.27C77.5329 114.125 79.0906 113.475 80.35 112.41C81.1623 111.696 81.8934 110.894 82.53 110.02C84.0378 108.006 85.0641 105.673 85.53 103.2C86.0335 100.638 86.0063 98.0007 85.45 95.4501L85.12 94.3801C84.9891 94.0373 84.9115 93.6764 84.89 93.3101C84.6578 91.6725 83.8915 90.1575 82.71 89.0001C81.1654 87.2506 79.3153 85.7969 77.25 84.7101C76.73 84.4301 76.25 84.1001 75.7 83.8101C75.1803 83.4777 74.6428 83.174 74.09 82.9001C73.09 82.3801 73.84 81.6701 74.27 81.6901C75.49 81.6901 74.67 81.0801 74.64 80.6901C74.64 80.5601 74.64 80.3901 74.71 80.3101C75.5895 80.3468 76.4619 80.4843 77.31 80.7201C79.2531 81.1972 81.1208 81.9409 82.86 82.9301C84.7433 84.0376 86.4323 85.4463 87.86 87.1001C88.7197 88.0683 89.4554 89.1398 90.05 90.2901C90.7094 91.5671 91.2387 92.9072 91.63 94.2901C93.3371 100.434 92.6954 106.993 89.83 112.69C88.9152 114.471 87.7537 116.114 86.38 117.57C86.0912 117.869 85.7875 118.152 85.47 118.42C85.13 118.68 84.79 118.92 84.47 119.16C83.7653 119.645 83.0151 120.06 82.23 120.4C81.8614 120.6 81.4806 120.777 81.09 120.93L79.93 121.39C79.49 121.56 78.93 121.66 78.41 121.81C75.7303 122.405 72.9454 122.333 70.3 121.6C67.6794 120.882 65.2555 119.579 63.21 117.79C62.8053 117.461 62.4274 117.1 62.08 116.71C61.75 116.36 61.45 116.06 61.23 115.77C60.79 115.19 60.51 114.77 60.45 114.72C60.1036 114.219 59.7929 113.695 59.52 113.15C59.2163 112.614 58.9619 112.052 58.76 111.47L58.43 110.6C58.33 110.31 58.27 110.07 58.2 109.8C58.06 109.27 57.91 108.8 57.8 108.22C57.3352 106.051 57.3046 103.811 57.71 101.63C57.81 101.21 57.86 100.77 57.92 100.33C57.98 99.8901 58.07 99.4501 58.15 99.0101C58.5279 97.1228 59.178 95.3004 60.08 93.6001C61.0164 91.8905 62.2066 90.3328 63.61 88.9801C66.5052 86.1275 70.359 84.4554 74.42 84.2901C76.5725 84.2251 78.7121 84.6455 80.68 85.5201C82.5782 86.3784 84.28 87.6173 85.68 89.1601C86.1733 89.7333 86.6151 90.349 87 91.0001L87.69 92.1301C87.88 92.5101 88.07 92.8901 88.29 93.2601C89.3324 95.1498 90.1256 97.1666 90.65 99.2601C91.2868 101.484 91.4972 103.808 91.27 106.11C91.2012 106.768 91.0672 107.418 90.87 108.05C90.77 108.38 90.67 108.7 90.54 109.05C90.41 109.4 90.23 109.71 90.06 110.05C89.3331 111.388 88.2676 112.513 86.97 113.31C85.7518 114.051 84.3869 114.519 82.97 114.68C81.71 114.836 80.4344 114.816 79.18 114.62C78.9 114.57 78.5 114.49 78.01 114.37C77.52 114.25 77.01 114.04 76.37 113.8C75.0465 113.242 73.786 112.545 72.61 111.72C70.6956 110.319 68.9682 108.679 67.47 106.84C67.1801 106.462 66.9225 106.061 66.7 105.64C66.44 105.09 66.14 104.47 65.9 103.84C65.38 102.52 65.07 101.24 64.77 100.76Z" fill="#221F1F"/>
<path d="M36.84 154.11C36.84 154.11 37.04 154.8 37.32 155.79C37.6 156.78 37.92 158.13 38.22 159.5C38.84 162.24 39.22 165.2 38.85 165.78C38.7744 165.86 38.6735 165.912 38.5642 165.927C38.4549 165.941 38.344 165.918 38.25 165.86C37.9 165.45 36.94 162.78 35.89 160.22L33.83 155.16C33.67 154.7 36.68 153.64 36.84 154.11Z" fill="#232020"/>
<path d="M95.77 73.26C95.7273 73.3741 95.6459 73.4697 95.54 73.53C95.4337 73.6045 95.3094 73.6494 95.18 73.66C94.7544 73.6582 94.3308 73.601 93.92 73.49C93.58 73.42 92.82 72.87 92.85 72.63C92.9029 72.1461 93.0102 71.6698 93.17 71.21C93.332 70.9643 93.5235 70.7393 93.74 70.54C93.91 70.37 94.11 70.16 94.34 69.95L95.13 69.38L95.57 69.08L96.03 68.85L96.95 68.41L98.46 67.93C99.8164 67.6305 101.216 67.5831 102.59 67.79C105.09 68.1831 107.546 68.8229 109.92 69.7C110.415 69.879 110.893 70.0998 111.35 70.36C112.838 71.2106 114.451 71.8214 116.13 72.17C116.398 72.2713 116.688 72.2989 116.97 72.25C117.881 72.3127 118.787 72.4397 119.68 72.63C120.92 72.83 122.2 73.02 122.49 73.1C123.946 73.5178 125.425 73.8517 126.92 74.1C127.13 74.1 127.37 74.1 127.56 74.27C127.961 74.5709 128.461 74.7101 128.96 74.66C129.631 74.7027 130.299 74.7862 130.96 74.91C131.313 75.0196 131.65 75.1778 131.96 75.38C132.25 75.55 132.09 76.13 131.96 76.19C131.66 76.38 131.9 76.66 131.96 76.9C131.97 76.9864 131.97 77.0736 131.96 77.16C130.551 77.6633 129.098 78.0349 127.62 78.27H126.62H124.53C122.99 78.27 121.35 78.19 121.02 78.17C120.676 78.1418 120.339 78.0608 120.02 77.93C119.94 77.93 118.72 77.81 117.5 77.64C116.28 77.47 115.06 77.25 114.97 77.22C113.992 77.0412 113.056 76.6817 112.21 76.16C112.048 76.0473 111.864 75.969 111.67 75.93C110.06 75.45 108.67 74.76 107.23 74.19C106.507 73.9224 105.769 73.6953 105.02 73.51C104.889 73.4547 104.763 73.3912 104.64 73.32C104.492 73.2348 104.334 73.1676 104.17 73.12C102.576 72.6256 100.897 72.4689 99.24 72.66C99.06 72.66 98.6 72.66 98.1 72.66L97.42 72.78C97.268 72.8067 97.1242 72.8684 97 72.96C96.92 73.03 96.65 72.96 96.38 72.96C96.11 72.96 95.82 73.15 95.77 73.26Z" fill="#221F1F"/>
<path d="M92.8901 107.87C93.2801 106.164 93.8849 104.514 94.6901 102.96C94.7477 102.863 94.834 102.787 94.9371 102.742C95.0403 102.696 95.1549 102.684 95.2651 102.708C95.3753 102.731 95.4755 102.788 95.5517 102.871C95.6279 102.954 95.6763 103.058 95.6901 103.17C95.7752 103.793 95.8153 104.421 95.8101 105.05V106L95.7001 106.95C95.7001 107.05 95.6401 107.33 95.5401 107.74C95.4401 108.15 95.2601 108.68 95.0801 109.32C94.5256 110.868 93.8153 112.356 92.9601 113.76C91.9728 115.33 90.8268 116.794 89.5401 118.13C88.519 119.175 87.4118 120.131 86.2301 120.99C82.8899 123.497 78.8885 124.971 74.7201 125.23C70.3651 125.482 66.0604 124.193 62.5601 121.59C61.7053 120.958 60.8936 120.27 60.1301 119.53C59.3918 118.784 58.6973 117.996 58.0501 117.17C56.7888 115.539 55.6871 113.791 54.7601 111.95C54.3701 111.11 54.0201 110.25 53.6601 109.39C53.3001 108.53 53.1401 107.59 52.8901 106.7C52.2215 103.543 52.2386 100.28 52.9401 97.13C53.6517 94.0162 54.9962 91.0821 56.8901 88.51C57.5401 87.69 58.1901 86.83 58.8901 86.05C59.0201 85.88 59.3101 85.53 59.7401 85.05C60.1701 84.57 60.7401 84.05 61.5001 83.44C63.219 82.0448 65.087 80.8441 67.0701 79.86C69.1135 78.8695 71.2841 78.1662 73.5201 77.77C74.8399 77.5347 76.1798 77.4309 77.5201 77.46C80.3776 77.5598 83.1749 78.3087 85.7001 79.65C86.9456 80.3349 88.104 81.1676 89.1501 82.13C90.1652 83.1003 91.0737 84.1764 91.8601 85.34C92.3154 85.9573 92.6917 86.6292 92.9801 87.34C93.5101 88.93 94.1801 90.43 94.6101 92.02C95.223 94.2044 95.5788 96.453 95.6701 98.72C95.6701 99.28 95.6701 99.83 95.6701 100.38C95.6701 100.93 95.5501 101.47 95.5001 102.01C95.4001 103.01 94.9401 102.46 94.8901 102.12C94.7301 101.12 94.5301 101.94 94.3501 102.03C94.1701 102.12 94.2101 102.1 94.1601 102.03C94.1101 101.96 94.0601 101.21 93.9101 100.03C93.7211 98.58 93.454 97.1412 93.1101 95.72C92.5517 93.4181 91.6944 91.1993 90.5601 89.12C90.1074 88.2944 89.5961 87.5024 89.0301 86.75C87.8309 85.1712 86.3065 83.8684 84.5601 82.93C83.6072 82.4286 82.6008 82.0361 81.5601 81.76C80.5957 81.5214 79.6117 81.3708 78.6201 81.31C77.3928 81.252 76.1628 81.3224 74.9501 81.52C73.9501 81.7 72.9501 81.83 72.0001 82.08C71.2338 82.3143 70.4824 82.5948 69.7501 82.92C68.2719 83.595 66.8592 84.4051 65.5301 85.34C63.5582 86.7749 61.8092 88.4935 60.3401 90.44C58.6796 92.6395 57.4265 95.1186 56.6401 97.76C56.5099 98.2911 56.4064 98.8285 56.3301 99.37C55.9272 104.198 57.2061 109.017 59.9501 113.01C61.2694 115.1 62.9647 116.928 64.9501 118.4C65.2687 118.678 65.6025 118.939 65.9501 119.18C66.3929 119.5 66.865 119.778 67.3601 120.01C69.9576 121.223 72.8463 121.674 75.6901 121.31C78.5955 120.924 81.3681 119.855 83.7801 118.19C85.0752 117.347 86.3022 116.404 87.4501 115.37C88.6397 114.294 89.6791 113.063 90.5401 111.71C90.7073 111.43 90.8945 111.163 91.1001 110.91L91.8501 109.79C92.2773 109.197 92.6268 108.552 92.8901 107.87Z" fill="#221F1F"/>
<path d="M162.15 104.26C162.546 102.551 163.154 100.898 163.96 99.34C164.018 99.2432 164.104 99.1669 164.207 99.1216C164.31 99.0764 164.425 99.0645 164.535 99.0876C164.645 99.1108 164.745 99.1678 164.822 99.2507C164.898 99.3336 164.946 99.4382 164.96 99.55C165.045 100.173 165.085 100.801 165.08 101.43C165.08 101.74 165.08 102.07 165.08 102.43L164.97 103.43C164.97 103.53 164.92 103.81 164.82 104.22C164.72 104.63 164.55 105.22 164.35 105.81C163.794 107.362 163.08 108.853 162.22 110.26C160.436 113.08 158.115 115.523 155.39 117.45C151.985 119.9 147.932 121.291 143.74 121.45C139.386 121.569 135.121 120.208 131.64 117.59C129.949 116.325 128.435 114.838 127.14 113.17C126.45 112.37 125.93 111.48 125.33 110.64C124.73 109.8 124.27 108.89 123.81 107.95C123.395 107.117 123.025 106.262 122.7 105.39C121.288 101.457 121.001 97.2076 121.87 93.12C122.571 89.9891 123.913 87.0372 125.81 84.45C126.13 84.03 126.43 83.59 126.81 83.19C127.19 82.79 127.49 82.38 127.81 81.97C130.145 79.3973 133.002 77.3518 136.19 75.97C138.284 75.0794 140.486 74.4707 142.74 74.16C144.065 73.9763 145.403 73.9093 146.74 73.96C149.589 74.0853 152.378 74.8184 154.92 76.11C156.169 76.7946 157.334 77.6236 158.39 78.58C159.412 79.5495 160.327 80.6257 161.12 81.79C161.579 82.4285 161.958 83.1202 162.25 83.85C162.79 85.44 163.46 86.94 163.9 88.54C164.514 90.731 164.87 92.9863 164.96 95.26C164.96 95.82 164.96 96.37 164.96 96.92C164.96 97.47 164.85 98.01 164.79 98.56C164.69 99.56 164.23 99 164.18 98.67C164.02 97.67 163.83 98.49 163.64 98.58C163.45 98.67 163.5 98.65 163.45 98.58C163.4 98.51 163.36 97.76 163.2 96.58C163.016 95.1259 162.749 93.6835 162.4 92.26C161.842 89.952 160.977 87.729 159.83 85.65C159.389 84.8121 158.874 84.0155 158.29 83.27C157.088 81.6891 155.556 80.389 153.8 79.46C152.847 78.9654 151.841 78.5829 150.8 78.32C149.813 78.096 148.81 77.9522 147.8 77.89C146.552 77.8101 145.299 77.8537 144.06 78.02C143.06 78.15 142.06 78.28 141.06 78.46C140.95 78.46 140.06 78.72 138.77 79.2C137.264 79.7861 135.833 80.5516 134.51 81.48C132.484 82.8274 130.711 84.5197 129.27 86.48C127.622 88.6885 126.382 91.1744 125.61 93.82C125.447 94.3426 125.35 94.8834 125.32 95.43C125.097 97.7816 125.307 100.154 125.94 102.43L126.5 104.14C126.72 104.71 126.99 105.25 127.24 105.81C127.48 106.376 127.761 106.924 128.08 107.45C128.357 107.984 128.664 108.501 129 109C130.323 111.096 132.018 112.933 134 114.42C134.36 114.67 134.68 114.98 135 115.22C135.458 115.528 135.932 115.812 136.42 116.07C137.712 116.685 139.076 117.135 140.48 117.41C141.899 117.633 143.339 117.687 144.77 117.57C146.22 117.397 147.645 117.061 149.02 116.57C150.391 116.037 151.704 115.367 152.94 114.57C154.248 113.747 155.489 112.82 156.65 111.8C157.848 110.728 158.898 109.501 159.77 108.15C159.94 107.875 160.127 107.612 160.33 107.36C160.57 107.03 160.81 106.63 161.08 106.24C161.528 105.634 161.888 104.967 162.15 104.26Z" fill="#221F1F"/>
<path d="M141.45 120C141.717 119.839 142.026 119.761 142.337 119.775C142.649 119.789 142.949 119.895 143.2 120.08C143.42 120.19 143.67 120.72 143.53 120.88C143.263 121.189 142.972 121.476 142.66 121.74C142.439 121.861 142.212 121.972 141.98 122.07C141.521 122.288 141.046 122.472 140.56 122.62C139.597 122.944 138.611 123.194 137.61 123.37C136.393 123.591 135.155 123.668 133.92 123.6C131.466 123.48 129.026 123.146 126.63 122.6C126.104 122.482 125.586 122.328 125.08 122.14C123.34 121.51 121.6 120.96 119.86 120.41C119.575 120.297 119.275 120.223 118.97 120.19C118.005 119.948 117.059 119.634 116.14 119.25C114.86 118.75 113.58 118.18 113.3 118.02C111.92 117.22 110.53 116.45 109.17 115.63C108.962 115.539 108.772 115.41 108.61 115.25C108.283 114.878 107.876 114.584 107.42 114.39C106.83 114.05 106.25 113.7 105.69 113.3C105.425 113.079 105.184 112.831 104.97 112.56C104.76 112.32 105.09 112.08 105.19 112.1C105.51 112.15 105.39 111.87 105.44 111.73C105.455 111.677 105.479 111.626 105.51 111.58C106.166 111.747 106.814 111.947 107.45 112.18C108.45 112.51 109.45 112.84 109.61 112.93L110.47 113.32L112.31 114.12C113.67 114.69 115.11 115.24 115.41 115.33C115.719 115.454 116.017 115.604 116.3 115.78C116.43 115.88 120.63 117.25 120.8 117.27C121.676 117.533 122.529 117.868 123.35 118.27C123.514 118.355 123.689 118.416 123.87 118.45C125.38 118.85 126.87 119.32 128.38 119.67C129.15 119.84 129.93 119.96 130.71 120.06C130.852 120.087 130.993 120.124 131.13 120.17C131.299 120.226 131.473 120.263 131.65 120.28C133.479 120.538 135.333 120.571 137.17 120.38C138.13 120.366 139.087 120.269 140.03 120.09C140.29 120 141.24 120.12 141.45 120Z" fill="#221F1F"/>
<path d="M46.34 107C46.3578 107.299 46.2959 107.597 46.1606 107.864C46.0253 108.131 45.8215 108.358 45.57 108.52C45.41 108.65 44.94 108.59 44.89 108.4C44.7806 108.04 44.7004 107.673 44.65 107.3C44.7094 105.645 44.8697 103.995 45.13 102.36C45.3012 101.206 45.5585 100.066 45.9 98.95C46.5561 96.6609 47.392 94.4273 48.4 92.27C48.6271 91.7876 48.8843 91.32 49.17 90.87C50.17 89.33 51.17 87.79 52.28 86.33C52.4786 86.0915 52.6623 85.841 52.83 85.58C53.456 84.7625 54.1854 84.0297 55 83.4C55.8251 82.6877 56.7395 82.086 57.72 81.61C59.2598 80.9286 60.9092 80.529 62.59 80.43C62.825 80.3899 63.0651 80.3899 63.3 80.43C63.7917 80.5452 64.2951 80.6022 64.8 80.6C65.4768 80.6485 66.147 80.7658 66.8 80.95C67.1217 81.0665 67.4329 81.2104 67.73 81.38C68 81.52 67.73 81.78 67.66 81.79C67.35 81.79 67.55 82 67.55 82.13C67.5602 82.1693 67.5602 82.2106 67.55 82.25C67.3508 82.2744 67.1493 82.2744 66.95 82.25C66.5137 82.2244 66.0763 82.2244 65.64 82.25C65.1917 82.2554 64.7442 82.2888 64.3 82.35C63.92 82.35 63.64 82.43 63.54 82.44L62.7 82.54C62.1051 82.6407 61.5197 82.7912 60.95 82.99C59.9961 83.3035 59.0932 83.755 58.27 84.33C58.03 84.51 57.74 84.61 57.49 84.78C56.9115 85.2184 56.3696 85.7033 55.87 86.23C55.3599 86.767 54.8792 87.3311 54.43 87.92C53.87 88.57 53.43 89.31 52.81 89.92C52.6932 90.0508 52.5925 90.1952 52.51 90.35C51.75 91.64 51 92.96 50.34 94.35C50.01 95.05 49.74 95.79 49.46 96.52C49.41 96.65 49.34 96.77 49.28 96.9C49.1998 97.0588 49.1297 97.2224 49.07 97.39C48.4254 99.1346 47.9172 100.927 47.55 102.75C47.46 103.17 46.86 105.14 46.82 105.64C46.77 105.93 46.31 106.78 46.34 107Z" fill="#221F1F"/>
<path d="M46.82 86.61C47.1 86.23 47.58 86.2001 48.11 86.4601C48.2043 86.534 48.281 86.628 48.3347 86.7352C48.3883 86.8424 48.4174 86.9602 48.42 87.08C48.312 87.3031 48.1918 87.5201 48.06 87.73C48.06 87.79 47.59 88.19 47.14 88.73C46.69 89.27 46.25 89.83 46.02 90.12C45.62 90.74 45.17 91.29 44.77 91.9C44.37 92.51 43.99 93.17 43.59 93.8C43.19 94.43 42.91 95.12 42.59 95.8C42.4711 96.1111 42.3273 96.4121 42.16 96.7C41.8774 97.2066 41.6527 97.7433 41.49 98.3C41.2879 98.8421 41.134 99.401 41.03 99.97C40.9755 100.158 40.9552 100.355 40.97 100.55C40.97 100.72 40.79 101.55 40.69 102.43C40.59 103.31 40.43 104.18 40.38 104.43C40.14 105.43 40.01 106.43 39.82 107.43C39.82 107.58 39.82 107.74 39.74 107.87C39.5935 108.164 39.5312 108.493 39.56 108.82C39.56 109.27 39.51 109.71 39.45 110.16C39.4004 110.389 39.3232 110.61 39.22 110.82C39.14 111.03 38.84 110.93 38.81 110.82C38.78 110.71 38.58 110.82 38.45 110.82C38.4072 110.83 38.3628 110.83 38.32 110.82C38.0578 109.854 37.8607 108.872 37.73 107.88C37.7174 107.66 37.7174 107.44 37.73 107.22C37.73 106.84 37.73 106.33 37.73 105.81C37.73 105.29 37.73 104.81 37.73 104.33C37.73 103.85 37.79 103.57 37.8 103.46C37.8249 103.225 37.8752 102.994 37.95 102.77C37.95 102.72 38.02 101.91 38.13 101.1L38.42 99.41C38.5206 98.7582 38.7338 98.1289 39.05 97.55C39.1112 97.4327 39.1582 97.3085 39.19 97.18L39.43 96.37L39.76 95.58C39.99 95.07 40.2 94.58 40.47 94.04C40.74 93.5 40.98 93.04 41.24 92.48C41.2977 92.3926 41.3611 92.309 41.43 92.23C41.51 92.12 41.6 92.02 41.67 91.91C42.0009 91.3079 42.3787 90.7328 42.8 90.19C43.19 89.62 43.65 89.1 44.06 88.54C44.25 88.27 45.48 87.33 45.75 87.08C46.02 86.83 46.71 86.77 46.82 86.61Z" fill="#221F1F"/>
<path d="M30.15 109.49C30.38 106.03 32.09 103.08 34.43 101.86C35.14 101.44 35.49 102.1 34.98 102.78C34.0049 104.165 33.3522 105.75 33.07 107.42C32.8268 108.506 32.6696 109.609 32.6 110.72C32.4865 113.027 32.6138 115.339 32.98 117.62C33.19 118.92 33.45 120.24 33.76 121.57C34.07 122.9 34.35 124.3 34.61 125.57C35.12 128.14 35.48 130.43 35.73 131.97C36.6242 137.951 37.1253 143.984 37.23 150.03C37.4003 162.288 36.6549 174.543 35 186.69C34.66 189.39 34.24 192.07 33.78 194.69C32.1534 203.83 30.5267 212.957 28.9 222.07C28.63 223.59 28.31 225.14 28.14 226.63C28.01 227.86 26.7 234.63 25.34 241.49C23.98 248.35 22.7 255.26 22.43 256.85C20.863 264.706 19.8108 272.657 19.28 280.65C19.17 281.78 19.28 283 19.1 284.04C18.8363 286.478 18.7928 288.934 18.97 291.38C19.03 293.1 19.21 294.8 19.32 296.51C19.43 298.22 19.73 299.91 19.91 301.61L20.57 306.61C20.77 308.13 20.17 307.43 20.01 306.91C19.55 305.42 19.61 306.7 19.46 306.91C19.31 307.12 19.34 307.05 19.28 306.99C19.22 306.93 19.17 306.65 19.02 306.1C18.87 305.55 18.66 304.77 18.42 303.83C18.1304 302.753 17.8967 301.661 17.72 300.56C17.51 299.35 17.2 298.06 17.04 296.74C16.88 295.42 16.7 294.07 16.54 292.79C16.38 291.51 16.34 290.27 16.25 289.17C16.07 286.97 16.06 285.29 16.07 284.74V283.29C16.07 282.43 16.07 281.22 16.15 279.78C16.24 276.89 16.49 273.07 16.88 269.18C17.67 261.4 19.02 253.37 19.3 251.74C19.58 250.11 19.96 248.32 20.3 246.63C20.38 246.22 21.49 240.3 22.61 234.37C23.73 228.44 24.79 222.53 24.87 222.06C25.78 217.34 26.53 212.57 27.61 207.91C27.82 206.99 27.98 206.03 28.13 205.08C29.47 196.93 30.8 188.79 31.78 180.62C32.27 176.45 32.63 172.25 32.9 168.06C32.96 167.31 33.03 166.55 33.09 165.8C33.16 164.85 33.25 163.9 33.3 162.95C33.8133 153.034 33.4485 143.092 32.21 133.24C32.06 132.11 31.69 128.84 31.16 125.55C30.89 123.88 30.59 122.29 30.32 120.8C30.05 119.31 29.92 118.13 29.83 117.45C29.6964 116.104 29.673 114.75 29.76 113.4C29.85 111.78 30.11 110.18 30.15 109.49Z" fill="#221F1F"/>
<path d="M67.4601 317.78C67.1352 319.359 66.5362 320.868 65.6901 322.24C65.3074 322.86 64.8581 323.437 64.3501 323.96C63.8572 324.443 63.2983 324.854 62.6901 325.18C61.9401 325.57 61.6401 324.88 62.1601 324.24C63.1503 322.808 63.8751 321.209 64.3001 319.52C64.6724 318.421 64.9862 317.303 65.2401 316.17C65.7697 313.845 66.1637 311.491 66.4201 309.12C66.9262 304.276 67.1865 299.41 67.2001 294.54C67.2534 288.54 67.1934 282.54 67.0201 276.54C66.6701 264.32 65.8401 252.09 64.8401 239.87C64.6201 237.16 64.4301 234.43 64.2501 231.72C63.6501 222.41 62.7501 213.11 61.7201 203.81C61.5501 202.26 61.4001 200.67 61.1401 199.19C60.7201 196.75 57.9601 171.51 57.7201 168.19C57.4101 164.11 57.0801 160.03 56.8201 155.93C56.7001 153.87 56.5801 151.82 56.5701 149.7C56.5701 149.18 56.5701 148.63 56.5701 148.08C56.5701 147.77 56.5701 147.51 56.6501 147.17L56.7501 146.64C56.7814 146.493 56.8249 146.349 56.8801 146.21C57.0394 145.673 57.2297 145.145 57.4501 144.63C57.6501 144.12 57.8701 143.63 58.0901 143.17C58.5399 142.095 59.0507 141.047 59.6201 140.03C60.8503 137.898 61.8269 135.629 62.5301 133.27C63.631 130.11 63.9735 126.736 63.5301 123.42C63.4501 123.02 63.3801 122.62 63.3101 122.22C63.228 121.827 63.1211 121.44 62.9901 121.06C62.8601 120.67 62.7701 120.27 62.6201 119.89L62.0901 118.78C61.4501 117.43 62.2101 117.87 62.5401 118.32C63.4501 119.62 62.9901 118.41 63.0701 118.18C63.1501 117.95 63.1301 118 63.2101 118.04C63.4072 118.3 63.5907 118.571 63.7601 118.85C64.194 119.562 64.5622 120.312 64.8601 121.09C65.7267 123.503 66.0676 126.074 65.8601 128.63C65.6479 131.268 65.1036 133.868 64.2401 136.37C63.5201 138.52 62.8601 140.09 62.6401 140.6C62.6401 140.72 61.7701 142.54 60.6401 145.11C60.3756 145.764 60.1452 146.432 59.9501 147.11L59.8701 147.36V147.54C59.8701 147.63 59.8701 147.85 59.8701 148.02C59.8701 148.37 59.8701 148.82 59.8701 149.23C59.9201 150.96 60.0601 152.87 60.2301 154.8C60.9201 162.55 61.9301 170.69 62.1201 172.34C62.3101 173.99 62.4501 175.82 62.6001 177.56C62.7001 178.38 65.4301 201.74 65.5401 202.68C66.0201 207.53 66.6301 212.38 66.8401 217.23C66.8401 218.23 66.9901 219.18 67.0901 220.14C67.9501 228.49 68.5801 236.85 69.1501 245.22L70.0401 258.05C70.0401 258.82 70.0901 259.59 70.1101 260.37C70.1101 261.37 70.1601 262.32 70.2201 263.29C70.7667 273.43 70.9701 283.6 70.8301 293.8C70.8301 294.97 70.6401 298.36 70.3301 301.8C70.0201 305.24 69.5501 308.7 69.3301 310.06C69.1184 311.385 68.8313 312.697 68.4701 313.99C68.2501 314.78 68.0301 315.55 67.8401 316.21C67.6501 316.87 67.5301 317.44 67.4601 317.78Z" fill="#221F1F"/>
<path d="M128.9 155.51C127.555 153.568 126.625 151.368 126.17 149.05C126.04 148.38 126.71 148.11 127.17 148.72C128.11 149.92 129.05 151.14 129.94 152.41C130.08 152.61 130.67 153.55 131.5 154.96C131.91 155.66 132.39 156.48 132.88 157.4C133.12 157.87 133.37 158.35 133.61 158.87C133.754 159.175 133.877 159.489 133.98 159.81C134.07 160.11 134.17 160.42 134.24 160.71C134.82 163.02 135.18 165.35 135.54 167.47C135.9 169.59 136.15 171.47 136.35 172.71C137.08 177.58 137.65 182.46 138.21 187.34C139.33 197.26 140.497 207.167 141.71 217.06C141.98 219.25 142.22 221.46 142.44 223.66C143.19 231.2 144.2 238.73 145.44 246.22C145.64 247.46 145.82 248.74 146.12 249.93C146.36 250.93 147.29 256.48 148.32 262.1C149.35 267.72 150.49 273.41 150.74 274.71C151.89 281.19 153.392 287.603 155.24 293.92C155.5 294.82 155.88 295.74 156.04 296.59C156.482 298.545 157.154 300.442 158.04 302.24C159.091 304.757 160.491 307.114 162.2 309.24C162.983 310.248 163.967 311.082 165.09 311.69C166.14 312.13 165.49 312.4 165.02 312.31C164.38 312.21 164.31 312.19 164.37 312.31C164.43 312.43 164.7 312.63 164.74 312.74C164.78 312.85 164.74 312.91 164.74 312.93C164.458 312.9 164.183 312.819 163.93 312.69C163.64 312.572 163.356 312.439 163.08 312.29C162.78 312.1 162.44 311.9 162.08 311.65C160.447 310.36 159.049 308.797 157.95 307.03C156.156 304.203 154.639 301.209 153.42 298.09C153.42 297.98 152.8 296.49 152.06 294.23C151.32 291.97 150.39 288.96 149.54 285.86C147.85 279.67 146.44 273.13 146.14 271.8C145.84 270.47 145.61 268.99 145.38 267.58C145.33 267.25 144.33 262.38 143.44 257.49C142.55 252.6 141.72 247.68 141.67 247.3C141.1 243.38 140.41 239.45 140.13 235.51C140.07 234.73 139.95 233.93 139.83 233.15C138.83 226.4 138.1 219.63 137.35 212.86L136.12 202.49C136.05 201.87 136.02 201.25 135.96 200.62C135.89 199.83 135.84 199.04 135.75 198.26C134.75 190.08 134.02 181.88 132.9 173.74C132.66 171.89 131.84 162.82 131.21 160.94L131.09 160.47C131.042 160.266 130.978 160.065 130.9 159.87C130.72 159.37 130.49 158.78 130.25 158.2C129.86 157.274 129.409 156.376 128.9 155.51Z" fill="#221F1F"/>
<path d="M160.65 117.64C160.72 114.77 160.65 112.51 160.57 110.15C160.57 109.4 161.22 109.15 161.65 110.03C162.469 111.678 162.987 113.46 163.18 115.29C163.268 116.474 163.231 117.664 163.07 118.84C162.759 121.153 162.212 123.428 161.44 125.63C160.63 128.07 159.67 130.55 158.92 132.76C158.3 134.546 157.795 136.369 157.41 138.22L157.12 140.11C157.12 140.38 157.12 140.63 157.12 140.91V141.79C157.242 143.065 157.445 144.331 157.73 145.58C158.3 148.16 159.04 150.76 159.85 153.36C163.18 163.9 167.39 174.29 171.52 184.67C172.45 186.97 173.35 189.29 174.22 191.61C177.22 199.61 180.44 207.48 183.68 215.38C184.22 216.69 184.75 218.05 185.36 219.29C185.86 220.29 188.28 226.19 190.62 232.2C192.96 238.21 195.22 244.38 195.69 245.8C198.04 252.89 200.36 260.02 202.26 267.29C202.567 268.311 202.814 269.35 203 270.4C203.28 272.67 203.87 274.9 204.31 277.2C204.967 280.407 205.259 283.678 205.18 286.95C205.121 288.619 204.705 290.256 203.96 291.75C203.17 293.07 203.17 292.07 203.33 291.64C203.57 290.96 203.45 290.85 203.33 290.95C203.21 291.05 203.02 291.29 202.89 291.3C202.76 291.31 202.72 291.3 202.7 291.25C202.717 291.181 202.74 291.114 202.77 291.05C202.77 290.93 202.84 290.74 202.9 290.51C202.978 290.239 203.032 289.961 203.06 289.68C203.125 289.306 203.165 288.929 203.18 288.55C203.262 286.443 203.111 284.334 202.73 282.26C201.95 277.58 200.46 272.75 200.23 271.79C200.23 271.68 199.75 269.99 199.01 267.49C198.27 264.99 197.21 261.69 196.06 258.33C193.76 251.61 191.06 244.67 190.53 243.26C190 241.85 189.44 240.26 188.92 238.76C188.8 238.41 186.77 233.26 184.67 228.12C182.57 222.98 180.43 217.84 180.27 217.45C178.64 213.32 176.85 209.25 175.43 205.06C175.15 204.23 174.79 203.4 174.43 202.58C171.5 195.53 168.71 188.42 165.95 181.29L161.69 170.36C161.44 169.71 161.23 169.03 161 168.36C160.71 167.52 160.44 166.68 160.13 165.84C158.52 161.49 157.01 157.1 155.69 152.61C155.04 150.36 154.43 148.1 153.96 145.74C153.717 144.541 153.543 143.329 153.44 142.11C153.389 141.444 153.389 140.776 153.44 140.11V139.59L153.51 139.13L153.66 138.22C153.841 137.236 154.082 136.265 154.38 135.31C154.78 134.02 155.31 132.52 155.9 131.05C157.09 128.12 158.29 125.26 158.63 124.12C158.84 123.48 159.4 122.17 159.84 120.85C160.225 119.812 160.497 118.736 160.65 117.64Z" fill="#221F1F"/>
<path d="M71 169C78.42 176 89.74 185.63 104.47 181.9C108.38 191.85 78.85 201.93 71 169Z" fill="#221F1F"/>
<path d="M73.2201 172.24C72.17 171.523 71.4027 170.462 71.0501 169.24C71.0297 169.15 71.0351 169.056 71.0656 168.969C71.0961 168.883 71.1505 168.806 71.2225 168.749C71.2946 168.691 71.3813 168.655 71.4729 168.645C71.5644 168.634 71.657 168.65 71.7401 168.69C72.4201 169.11 73.0901 169.54 73.7401 169.98C73.9401 170.12 75.5001 171.44 77.3301 172.79C78.9465 174.009 80.6364 175.128 82.3901 176.14C84.4857 177.379 86.6838 178.436 88.9601 179.3C91.2339 180.169 93.6224 180.701 96.0501 180.88C96.6553 180.932 97.2629 180.948 97.8701 180.93C98.4743 180.951 99.0793 180.928 99.6801 180.86L101.48 180.69L102.38 180.5C103 180.39 103.64 180.23 104.24 180.15L105.02 180.08H105.41H105.6C105.66 180.08 105.75 180.08 105.75 180.14L106.19 181.72C106.31 182.26 106.37 182.8 106.46 183.33C106.515 183.597 106.515 183.873 106.46 184.14C106.46 184.44 106.41 184.55 106.38 184.77C106.123 186.003 105.578 187.158 104.79 188.14C104.059 189.03 103.195 189.802 102.23 190.43C100.413 191.63 98.3723 192.45 96.2301 192.84L95.1601 193.02C94.824 193.054 94.4901 193.108 94.1601 193.18C93.3247 193.289 92.4803 193.313 91.6401 193.25C88.5856 193.077 85.6196 192.16 83.0001 190.58L82.2001 190.1L81.5601 189.65L80.7701 189.05C77.9938 186.663 75.7168 183.75 74.0701 180.48C73.7982 180.049 73.5894 179.581 73.4501 179.09C73.3123 178.563 73.1317 178.048 72.9101 177.55C72.7201 177.04 72.5101 176.55 72.3101 176.03C72.0236 175.332 71.7798 174.617 71.5801 173.89C71.3701 173.16 71.1201 172.45 70.9801 171.71C70.8401 170.97 70.7701 170.24 70.6901 169.51C70.6101 168.78 71.0701 169.11 71.1701 169.32C71.4601 169.94 71.4901 169.38 71.6201 169.32C71.7501 169.26 71.7201 169.25 71.7701 169.32C71.968 169.735 72.1383 170.163 72.2801 170.6L72.7501 171.9L73.3901 173.38C74.0362 174.887 74.7605 176.359 75.5601 177.79C75.5601 177.79 75.9001 178.57 76.5601 179.54C77.283 180.766 78.1058 181.93 79.0201 183.02C79.507 183.616 80.0314 184.181 80.5901 184.71C81.0847 185.202 81.609 185.663 82.1601 186.09C82.5822 186.431 83.0228 186.748 83.4801 187.04C83.7252 187.223 83.9863 187.384 84.2601 187.52C84.8501 187.83 85.4001 188.25 86.0101 188.52C87.4875 189.184 89.054 189.629 90.6601 189.84C92.2569 190.05 93.877 190.006 95.4601 189.71C97.2448 189.406 98.9676 188.811 100.56 187.95C100.866 187.785 101.148 187.58 101.4 187.34C101.938 186.875 102.403 186.333 102.78 185.73C102.936 185.45 103.063 185.155 103.16 184.85C103.213 184.706 103.256 184.559 103.29 184.41C103.28 184.297 103.28 184.183 103.29 184.07C103.295 184.017 103.295 183.963 103.29 183.91V183.83C103.29 183.83 103.29 183.83 103.23 183.83H103H102.86C102.405 183.927 101.944 183.994 101.48 184.03C99.5831 184.268 97.6674 184.322 95.7601 184.19C95.4201 184.19 95.0801 184.09 94.7601 184.04C94.4401 183.99 93.9001 183.92 93.4801 183.82C89.0883 183.002 84.8911 181.359 81.1101 178.98C80.1368 178.366 79.1986 177.699 78.3001 176.98C77.1501 176.05 76.0101 175.11 75.5601 174.74C75.1101 174.37 73.6901 172.56 73.2201 172.24Z" fill="#221F1F"/>
<path d="M64.11 194.87C62.5117 193.513 61.3066 191.751 60.62 189.77C60.42 189.2 61.01 188.77 61.53 189.23C62.53 190.08 63.59 190.92 64.59 191.81C64.91 192.06 67.27 194.56 70.22 196.97C72.8085 199.117 75.6216 200.978 78.61 202.52C82.2489 204.356 86.1367 205.649 90.15 206.36L92.64 206.72C93.47 206.83 94.32 206.84 95.16 206.91L96.42 206.99H97.68L102.79 206.93L101.73 213.21L101.12 217.05L99.93 224.72C99.64 226.63 99.32 228.54 98.93 230.43C97.75 236.94 96.83 243.5 96.05 250.08C95.93 251.18 95.77 252.29 95.75 253.37C95.75 254.25 95.17 259.14 94.66 264.11C94.15 269.08 93.66 274.11 93.55 275.27C92.87 280.99 92.38 286.74 92.12 292.48C92.1285 293.292 92.085 294.104 91.99 294.91C91.7665 296.658 91.7229 298.424 91.86 300.18C91.9408 302.601 92.1914 305.014 92.61 307.4C92.7788 308.52 93.0845 309.615 93.52 310.66C94 311.49 93.38 311.4 93.08 311.1C92.36 310.22 92.66 311.1 92.58 311.32C92.58 311.38 92.51 311.47 92.43 311.45C92.264 311.265 92.1166 311.064 91.99 310.85C91.6701 310.333 91.399 309.787 91.18 309.22C90.5566 307.554 90.1042 305.828 89.83 304.07C89.3552 301.215 89.0712 298.332 88.98 295.44C88.98 295.34 88.98 293.95 88.98 291.88C88.98 289.81 89.05 287.08 89.17 284.28C89.39 278.69 89.83 272.88 89.91 271.7C89.99 270.52 90.17 269.22 90.33 267.98C90.33 267.69 90.76 263.38 91.16 259.06C91.56 254.74 92.06 250.42 92.11 250.06C92.57 246.63 92.9 243.17 93.63 239.79C93.78 239.13 93.86 238.43 93.95 237.74C94.72 231.84 95.69 225.97 96.67 220.11L98.1 211.18C98.1 211.1 98.17 211.01 98.21 210.9L98.27 210.74C98.1938 210.729 98.1163 210.729 98.04 210.74H97.67C97.21 210.74 96.75 210.74 96.28 210.74L93.5 210.56C92.57 210.56 91.65 210.34 90.72 210.21C89.7936 210.102 88.875 209.935 87.97 209.71C84.3093 208.94 80.7657 207.693 77.43 206C75.7147 205.072 74.0703 204.02 72.51 202.85C71.51 202.09 70.51 201.31 69.72 200.62L67.88 199C67.48 198.63 66.68 197.77 65.93 196.9C65.18 196.03 64.46 195.19 64.11 194.87Z" fill="#221F1F"/>
<path d="M64.86 217.54C70.96 228.94 78.98 238.54 92.8 238.83C94.87 238.83 91.8 232.34 89.58 232.3C79.15 232.1 73.18 226.49 68.44 217.62C67.95 216.7 66.44 213.99 65.04 214.31C63.64 214.63 64.41 216.7 64.86 217.54Z" fill="#221F1F"/>
<path d="M130.49 296.44C131.245 297.909 131.72 299.507 131.89 301.15C131.921 301.268 131.91 301.392 131.861 301.504C131.812 301.615 131.727 301.706 131.619 301.763C131.511 301.82 131.388 301.838 131.268 301.816C131.148 301.794 131.04 301.732 130.96 301.64L130.33 300.97L129.8 300.28C129.428 299.821 129.094 299.332 128.8 298.82C127.83 296.877 126.988 294.873 126.28 292.82C125.17 289.76 124.11 286.32 123.56 284.58C122.56 281.2 121.64 277.78 120.84 274.35C119.187 267.383 117.647 260.383 116.22 253.35C115.9 251.8 115.62 250.23 115.37 248.67C114.53 243.29 113.52 237.95 112.47 232.61C112.29 231.72 112.14 230.8 111.88 229.96C111.62 229.12 110.88 225.29 110.15 221.25C109.8 219.25 109.44 217.18 109.15 215.53C108.79 213.34 108.53 211.67 108.42 211.04L108.14 209.04C109.27 208.95 110.44 208.92 111.48 208.77L112.16 208.65C112.29 208.65 112.41 208.65 112.54 208.59L113.29 208.44C113.79 208.33 114.29 208.19 114.79 208.07L116.27 207.61C118.263 206.935 120.183 206.06 122 205C122.532 204.632 123.086 204.298 123.66 204C124.288 203.691 124.887 203.326 125.45 202.91C125.99 202.46 126.51 201.98 127.05 201.51C127.79 200.86 128.44 200.12 129.16 199.43C129.88 198.74 130.46 197.94 131.16 197.21C131.86 196.48 132.44 195.73 133.16 195.01C133.88 194.29 133.87 195.01 133.73 195.26C133.32 196.09 133.92 195.6 134.12 195.62C134.32 195.64 134.28 195.62 134.3 195.71C134.225 195.877 134.142 196.041 134.05 196.2L133.35 197.42C133.21 197.67 133.05 197.94 132.88 198.22L132.28 199.09C131.85 199.68 131.42 200.35 130.92 200.97C129.432 202.886 127.735 204.63 125.86 206.17C125.328 206.607 124.771 207.011 124.19 207.38C123.625 207.789 123.037 208.166 122.43 208.51C121.72 208.954 120.985 209.358 120.23 209.72C118.624 210.529 116.951 211.199 115.23 211.72C114.81 211.85 114.4 211.98 114 212.07C113.8 212.12 113.61 212.18 113.41 212.22L113.13 212.29H112.96L112.76 212.36C112.98 213.45 113.07 213.87 113.1 214.04C113.3 215.04 113.41 216.04 113.54 217.04C113.59 217.52 116.28 230.89 116.39 231.42C116.87 234.21 117.52 236.97 117.79 239.78C117.857 240.338 117.954 240.892 118.08 241.44C119.08 246.2 119.91 250.98 120.83 255.75C121.31 258.18 121.83 260.6 122.39 263.02C122.48 263.46 122.54 263.9 122.62 264.34C122.7 264.78 122.8 265.45 122.93 266C124.24 271.72 125.44 277.47 127.07 283.09C127.27 283.73 127.68 285.63 128.17 287.53C128.66 289.43 129.17 291.34 129.44 292.07C129.654 292.797 129.831 293.535 129.97 294.28C130.084 295.013 130.258 295.735 130.49 296.44Z" fill="#221F1F"/>
<path d="M118.2 231.2H118.61C118.835 231.169 119.059 231.125 119.28 231.07C119.53 231.01 119.82 230.96 120.12 230.88L121.03 230.52C121.347 230.425 121.65 230.287 121.93 230.11L122.72 229.7C123.18 229.42 123.51 229.17 123.62 229.1C124.29 228.72 124.932 228.292 125.54 227.82L126.8 226.92C127.315 226.534 127.809 226.12 128.28 225.68C129.293 224.763 130.254 223.792 131.16 222.77C132.188 221.624 133.075 220.358 133.8 219C133.93 218.7 134.45 217.83 134.96 216.93C135.356 216.23 135.691 215.498 135.96 214.74C136.03 214.52 138.04 215.01 137.96 215.23C137.89 215.69 137.82 216.15 137.71 216.6C137.594 217.038 137.444 217.466 137.26 217.88C136.97 218.51 136.36 219.88 135.73 221.1C135.1 222.32 134.49 223.35 134.43 223.43L133.82 224.68L133.13 225.9C132.919 226.284 132.685 226.654 132.43 227.01C131.76 228.01 130.99 229.01 130.22 230.01C129.49 230.945 128.687 231.821 127.82 232.63C127.144 233.216 126.425 233.75 125.67 234.23C124.889 234.712 124.081 235.149 123.25 235.54L121.77 236.18C121.249 236.36 120.718 236.511 120.18 236.63C119.519 236.736 118.847 236.76 118.18 236.7C117.7 236.7 117.38 235.7 117.18 234.53C117.136 233.783 117.256 233.036 117.53 232.34C117.87 231.67 118.09 231.19 118.2 231.2Z" fill="#221F1F"/>
<path d="M14.49 305.32C14.2258 304.743 14.0926 304.115 14.1 303.48C14.1449 302.881 14.2973 302.295 14.55 301.75C14.71 301.4 15.42 301.33 15.55 301.67C15.9 302.33 16.19 302.99 16.55 303.67C16.55 303.77 16.77 304.26 17.02 304.97C17.27 305.68 17.64 306.59 18.1 307.54C18.8821 309.238 19.7879 310.875 20.81 312.44C22.07 314.35 23.38 316.24 24.81 318.07C26.2526 319.935 27.7984 321.718 29.44 323.41C31.09 325.1 32.81 326.8 34.56 328.29C35.34 328.96 36.11 329.6 36.88 330.21C37.5354 330.733 38.2347 331.198 38.97 331.6C39.3433 331.8 39.7134 331.98 40.08 332.14L40.65 332.37L41.12 332.5C42.656 332.744 44.2287 332.592 45.69 332.06C46.2422 331.911 46.7757 331.7 47.28 331.43C47.68 331.22 50.09 330.19 52.51 328.91C54.93 327.63 57.4 326.28 57.99 326C60.9 324.61 63.79 323.1 66.82 321.78C67.2356 321.553 67.6794 321.381 68.14 321.27C69.1447 321.047 70.1258 320.729 71.07 320.32C72.4544 319.804 73.906 319.491 75.38 319.39C75.7552 319.372 76.1312 319.399 76.5 319.47L77.06 319.59L77.6 319.78C78.24 320 77.77 320.37 77.6 320.39C76.97 320.39 77.44 320.72 77.45 320.91C77.475 320.971 77.475 321.039 77.45 321.1C77.45 321.1 76.99 321.1 76.31 321.2C75.4535 321.351 74.6154 321.592 73.81 321.92C72.4138 322.51 71.0516 323.178 69.73 323.92C69.68 323.92 69.01 324.26 68.02 324.78C67.03 325.3 65.74 326.02 64.41 326.78L58.41 330.35C57.8032 330.695 57.179 331.009 56.54 331.29C56.39 331.36 54.28 332.58 52.05 333.7C50.4719 334.504 48.8376 335.192 47.16 335.76C46.1212 336.081 45.0575 336.315 43.98 336.46C42.7969 336.623 41.5927 336.527 40.45 336.18C39.98 336.01 39.45 335.89 39.09 335.74C35.7893 334.384 32.8163 332.338 30.37 329.74C29.13 328.53 27.88 327.35 26.69 326.1C26.47 325.87 26.29 325.62 26.09 325.38C25.89 325.14 25.59 324.77 25.33 324.47C22.5714 321.405 20.0979 318.094 17.94 314.58C17.4066 313.63 16.9259 312.652 16.5 311.65C15.96 310.35 15.5 309.02 15.25 308.51C15 308 14.72 305.82 14.49 305.32Z" fill="#221F1F"/>
<path d="M7.99998 319.62C7.67149 319.112 7.47241 318.53 7.42012 317.927C7.36783 317.324 7.4639 316.717 7.69998 316.16C7.83998 315.78 8.62998 315.53 8.86998 315.82C9.35998 316.38 9.86998 316.95 10.25 317.54C10.37 317.73 11.16 319.38 12.25 321.14L13.02 322.5L13.84 323.77C14.38 324.57 14.84 325.29 15.17 325.77C15.85 326.65 16.5 327.54 17.17 328.45C17.84 329.36 18.54 330.17 19.17 331.04C21.9828 334.443 25.3876 337.309 29.22 339.5C30.04 340.03 30.93 340.42 31.76 340.93C34.7259 342.529 37.9845 343.512 41.34 343.82C41.8986 343.875 42.4613 343.875 43.02 343.82C43.47 343.82 46.02 343.82 48.5 343.62C50.98 343.42 53.56 342.86 54.15 342.79C57.0905 342.34 59.9608 341.513 62.69 340.33C63.0565 340.113 63.4546 339.954 63.87 339.86C64.7716 339.649 65.6173 339.246 66.35 338.68C67.4161 337.998 68.4382 337.25 69.41 336.44C69.6512 336.237 69.9051 336.05 70.17 335.88L70.92 335.32C70.9748 335.252 71.0522 335.207 71.138 335.192C71.2238 335.177 71.3121 335.193 71.3866 335.239C71.461 335.284 71.5166 335.354 71.5429 335.437C71.5693 335.52 71.5647 335.61 71.53 335.69C71.3 336.26 71.79 336.02 72 336.09C72.21 336.16 72.17 336.16 72.19 336.21C72.155 336.337 72.101 336.459 72.03 336.57C71.8755 336.858 71.7017 337.135 71.51 337.4C70.9425 338.213 70.3069 338.975 69.61 339.68C68.4673 340.852 67.1998 341.894 65.83 342.79C65.83 342.79 65.11 343.21 64.09 343.79C63.07 344.37 61.66 344.99 60.2 345.58C57.9906 346.449 55.7214 347.158 53.41 347.7C52.712 347.823 52.0075 347.907 51.3 347.95C51.14 347.95 48.72 348.36 46.24 348.49C44.523 348.561 42.8034 348.531 41.09 348.4C40.09 348.27 39.09 348.12 38.09 347.96C37.1142 347.758 36.1598 347.463 35.24 347.08C34.878 346.922 34.5034 346.795 34.12 346.7C30.8546 345.709 27.764 344.215 24.96 342.27C24.26 341.76 23.55 341.27 22.84 340.78C22.13 340.29 21.49 339.71 20.84 339.16C20.6004 338.96 20.3795 338.74 20.18 338.5C19.91 338.21 19.66 337.91 19.38 337.65C16.4923 334.82 13.9328 331.673 11.75 328.27C11.2 327.51 9.35998 323.51 8.91998 322.56C8.60998 322 8.24998 320.07 7.99998 319.62Z" fill="#221F1F"/>
<path d="M154.41 317C153.579 317.609 152.597 317.979 151.57 318.07C151.2 318.13 150.67 317.67 150.86 317.3C151.229 316.581 151.719 315.931 152.31 315.38C152.711 315.066 153.139 314.788 153.59 314.55C154.475 314.073 155.407 313.688 156.37 313.4C158.246 312.865 160.173 312.53 162.12 312.4C164.457 312.251 166.804 312.352 169.12 312.7C171.45 313.013 173.757 313.47 176.03 314.07C178.39 314.69 180.51 315.57 182.56 316.2C183.47 316.48 184.36 316.78 185.21 317C186.551 317.477 188.008 317.522 189.376 317.129C190.745 316.737 191.956 315.926 192.84 314.81C193.196 314.443 193.496 314.025 193.73 313.57C193.82 313.38 194.19 312.82 194.66 312C195.13 311.18 195.66 310.11 196.21 309C197.21 306.73 198.28 304.26 198.58 303.72C199.924 300.82 201.675 298.126 203.78 295.72C204.078 295.355 204.432 295.041 204.83 294.79C205.75 294.31 206.53 293.67 207.42 293.16C208.659 292.47 210.015 292.015 211.42 291.82C212.086 291.752 212.759 291.772 213.42 291.88C214.01 291.95 213.72 292.42 213.53 292.49C212.96 292.68 213.45 292.84 213.53 293.02C213.549 293.082 213.549 293.148 213.53 293.21C213.53 293.21 213.06 293.33 212.42 293.54C211.633 293.761 210.872 294.066 210.15 294.45C209.004 295.072 207.965 295.872 207.07 296.82C206.686 297.188 206.329 297.582 206 298C205.258 298.935 204.609 299.94 204.06 301C203.122 302.885 202.285 304.817 201.55 306.79C201.305 307.393 201.024 307.98 200.71 308.55C200.63 308.68 199.82 310.81 198.71 312.94C198.197 313.941 197.622 314.909 196.99 315.84C196.069 317.205 194.915 318.396 193.58 319.36C193.121 319.668 192.639 319.942 192.14 320.18C191.626 320.402 191.09 320.566 190.54 320.67C190.11 320.74 189.69 320.89 189.25 320.95C187.482 321.242 185.673 321.157 183.94 320.7C182.374 320.3 180.834 319.802 179.33 319.21C178.583 318.93 177.843 318.67 177.11 318.43C176.4 318.19 175.69 317.99 174.96 317.79C174.7 317.72 174.45 317.61 174.18 317.53C173.852 317.413 173.518 317.313 173.18 317.23C169.679 316.37 166.084 315.957 162.48 316C162.08 316 160.9 316 159.72 316C158.788 316.024 157.862 316.155 156.96 316.39C156.086 316.472 155.227 316.678 154.41 317Z" fill="#221F1F"/>
<path d="M161.42 327.47C160.923 327.264 160.496 326.918 160.19 326.474C159.885 326.031 159.715 325.508 159.7 324.97C159.7 324.61 160.2 323.97 160.51 324.06C161.118 324.208 161.716 324.395 162.3 324.62C162.49 324.62 163.8 325.46 165.36 326.18C166.12 326.58 166.98 326.89 167.72 327.18L169.6 327.87C171.38 328.41 173.11 329.02 174.9 329.43C176.703 329.88 178.545 330.158 180.4 330.26C181.32 330.35 182.24 330.26 183.16 330.26C184.08 330.26 185 330.16 185.9 330.01C186.8 329.86 187.52 329.79 188.33 329.68C191.11 329.303 193.762 328.275 196.07 326.68C196.483 326.445 196.86 326.152 197.19 325.81C197.42 325.49 199.09 324.21 200.67 322.72C202.25 321.23 203.75 319.55 204.13 319.19C206 317.42 207.73 315.44 209.5 313.45C209.718 313.137 209.985 312.86 210.29 312.63C210.984 312.155 211.589 311.563 212.08 310.88C212.839 309.959 213.686 309.115 214.61 308.36C214.854 308.169 215.115 308.002 215.39 307.86C215.69 307.73 216 307.62 216.29 307.51C216.82 307.31 216.82 307.94 216.72 308.08C216.4 308.52 216.87 308.48 217.02 308.64C217.075 308.688 217.117 308.75 217.14 308.82C216.961 309.08 216.761 309.324 216.54 309.55L215.93 310.35C215.71 310.65 215.49 311.01 215.26 311.35C214.36 312.75 213.45 314.35 213.26 314.6C213.2 314.67 211.76 316.6 210.26 318.73C208.76 320.86 206.96 322.94 206.59 323.38C206.205 323.832 205.772 324.241 205.3 324.6C205.19 324.69 203.81 326.23 202.3 327.6C201.53 328.31 200.68 328.97 200.05 329.49C199.42 330.01 198.9 330.31 198.84 330.36C198.123 330.842 197.378 331.283 196.61 331.68C195.855 332.111 195.039 332.425 194.19 332.61C193.847 332.696 193.512 332.813 193.19 332.96C190.443 334.01 187.539 334.592 184.6 334.68C183.85 334.68 183.11 334.77 182.37 334.76C181.626 334.784 180.882 334.767 180.14 334.71C179.87 334.71 179.61 334.62 179.35 334.59L178.35 334.42C174.9 333.954 171.52 333.074 168.28 331.8C167.454 331.426 166.649 331.005 165.87 330.54C164.87 329.94 163.87 329.32 163.48 329.1C163.115 328.845 162.779 328.55 162.48 328.22C162.167 327.918 161.809 327.665 161.42 327.47Z" fill="#221F1F"/>
<path d="M129.72 79.1C130.15 78.85 130.58 79.1 131.02 79.64C131.095 79.7687 131.143 79.9115 131.16 80.0595C131.177 80.2075 131.164 80.3575 131.12 80.5C130.905 80.7008 130.674 80.8847 130.43 81.05C130.28 81.14 127.85 81.86 127.04 82.13C126.251 82.3872 125.446 82.591 124.63 82.74C122.98 83.08 121.35 83.46 119.72 83.85C119.353 83.9295 118.983 83.9895 118.61 84.03C117.341 84.163 116.09 84.4347 114.88 84.84C114.669 84.8777 114.468 84.9595 114.29 85.08C113.99 85.3 110.72 86.3 110.29 86.41C109.22 86.6115 108.165 86.8821 107.13 87.22C106.98 87.27 106.86 87.38 106.68 87.34C106.342 87.3009 106.001 87.394 105.73 87.6C105.33 87.8 104.94 88.01 104.57 88.22C104.362 88.3068 104.148 88.3803 103.93 88.44C103.73 88.51 103.5 88.21 103.53 88.12C103.56 88.03 103.34 87.9 103.2 87.82C103.153 87.7924 103.109 87.7588 103.07 87.72C103.137 87.544 103.225 87.3762 103.33 87.22C103.55 86.9082 103.794 86.6139 104.06 86.34C104.476 85.8848 104.947 85.4819 105.46 85.14C105.46 85.14 105.73 84.98 106.1 84.79C106.47 84.6 106.97 84.34 107.49 84.1C108.49 83.62 109.59 83.19 109.81 83.1C110.04 83.0082 110.283 82.9509 110.53 82.93C110.64 82.93 113.75 81.72 113.89 81.71C114.533 81.4807 115.208 81.3493 115.89 81.32C116.027 81.3219 116.162 81.2982 116.29 81.25C117.42 80.9474 118.565 80.7037 119.72 80.52C120.31 80.41 120.88 80.25 121.46 80.12C121.57 80.12 121.68 80.12 121.79 80.12C121.923 80.1298 122.057 80.1298 122.19 80.12C123.57 79.79 124.97 79.63 126.33 79.26C126.64 79.17 128.21 79.15 128.57 79.05C128.81 78.92 129.55 79.2 129.72 79.1Z" fill="#221F1F"/>
<path d="M99.37 91.18C99.3388 91.1951 99.3047 91.2029 99.27 91.2029C99.2354 91.2029 99.2012 91.1951 99.17 91.18C99.1137 91.1529 99.0655 91.1115 99.03 91.06C98.8745 90.8607 98.7004 90.6765 98.51 90.51C98.34 90.36 98.05 89.85 98.2 89.7C98.3439 89.5432 98.5129 89.4114 98.7 89.31C98.8946 89.2144 99.0992 89.1407 99.31 89.09C99.5647 89.0863 99.8191 89.1064 100.07 89.15C100.507 89.2534 100.93 89.4078 101.33 89.61C102.049 89.9928 102.721 90.4594 103.33 91C104.022 91.6237 104.615 92.3486 105.09 93.15C106.064 94.7042 106.814 96.3873 107.32 98.15C107.426 98.5498 107.496 98.958 107.53 99.37C107.655 100.796 107.685 102.23 107.62 103.66C107.585 103.905 107.585 104.155 107.62 104.4C107.594 105.225 107.407 106.037 107.07 106.79C106.746 107.601 106.297 108.357 105.74 109.03C104.808 109.948 103.73 110.705 102.55 111.27C102.397 111.369 102.222 111.428 102.04 111.44C101.657 111.459 101.282 111.558 100.94 111.73C100.465 111.923 99.968 112.054 99.46 112.12C99.1981 112.131 98.9359 112.107 98.68 112.05C98.44 112.05 98.46 111.63 98.52 111.57C98.58 111.51 98.52 111.27 98.43 111.13C98.406 111.083 98.3891 111.032 98.38 110.98C98.7519 110.688 99.1428 110.421 99.55 110.18L100.33 109.61C100.55 109.45 100.7 109.3 100.76 109.27L101.26 108.96C101.61 108.719 101.944 108.455 102.26 108.17C102.744 107.723 103.147 107.195 103.45 106.61C103.558 106.45 103.675 106.297 103.8 106.15C103.871 106.013 103.934 105.873 103.99 105.73C104.07 105.48 104.17 105.16 104.25 104.82C104.39 104.15 104.41 103.45 104.43 103.4C104.43 103.13 104.43 102.85 104.48 102.57C104.474 102.278 104.518 101.987 104.61 101.71C104.635 101.591 104.635 101.469 104.61 101.35C104.5 100.339 104.319 99.3363 104.07 98.3501C103.92 97.839 103.729 97.3407 103.5 96.86C103.466 96.7662 103.443 96.669 103.43 96.5701C103.401 96.45 103.36 96.3329 103.31 96.2201C102.801 95.0703 102.104 94.0127 101.25 93.09C101.07 92.88 100.3 91.82 100.03 91.75C99.76 91.68 99.51 91.12 99.37 91.18Z" fill="#221F1F"/>
<path d="M20.2701 100.15C22.3619 103.606 24.1872 107.216 25.7301 110.95C26.1501 112.02 25.3801 112.37 24.5001 111.32C23.6201 110.27 22.7701 109.32 21.9701 108.18L20.7501 106.55L19.6001 104.85C16.7717 100.347 14.4509 95.5442 12.6801 90.53C11.341 86.703 10.3798 82.7542 9.81009 78.74C9.69009 77.74 9.59009 76.85 9.48009 75.95C9.37009 75.05 9.3901 74.19 9.3501 73.38C9.3501 72.97 9.3501 72.58 9.3501 72.19C9.3501 71.8 9.3501 71.44 9.3501 71.09C9.3501 70.38 9.35009 69.73 9.40009 69.16C9.61713 64.6749 10.4724 60.2437 11.9401 56C12.6292 53.8898 13.4439 51.8227 14.3801 49.81C14.8601 48.81 15.2901 47.81 15.8001 46.81L17.4801 43.9C17.7701 43.41 18.0401 42.9 18.3401 42.43L19.3401 41.03C20.0101 40.1 20.6501 39.15 21.3401 38.25C22.7922 36.4792 24.3625 34.8087 26.0401 33.25L27.3101 32.07L27.9501 31.49L28.6401 30.98L31.4201 28.91C32.4201 28.27 33.4201 27.72 34.4201 27.12C34.9201 26.84 35.4201 26.52 35.9301 26.27L37.5001 25.55L39.0801 24.84C39.5968 24.5873 40.1316 24.3733 40.6801 24.2L43.9601 23.12C45.0501 22.77 46.1901 22.59 47.3001 22.32L48.9801 21.95C49.5501 21.85 50.1101 21.8 50.6801 21.72C51.8101 21.58 52.9501 21.43 54.0801 21.31L57.4901 21.19C58.0601 21.19 58.6301 21.14 59.2001 21.19L60.8901 21.27L64.2901 21.45C66.2901 21.73 68.2901 21.92 70.2301 22.31L73.1601 22.94C74.1601 23.15 75.1601 23.37 75.9901 23.6C77.4741 23.9775 78.9854 24.2383 80.5101 24.38C81.893 24.4943 83.2849 24.3415 84.6101 23.93C86.0616 23.4174 87.4695 22.7887 88.8201 22.05L93.2301 19.73C99.0701 16.73 104.9 13.31 111.37 10.9C113.553 10.1169 115.777 9.44932 118.03 8.89997C118.48 8.78997 119.44 8.61997 120.81 8.36997C121.49 8.23997 122.27 8.17996 123.14 8.05996C124.01 7.93996 124.95 7.83997 125.97 7.78997C130.757 7.4469 135.566 7.56746 140.33 8.14997C145.204 8.72739 149.995 9.86146 154.61 11.53C155.61 11.93 156.56 12.24 157.4 12.65L159.7 13.74C161.06 14.42 162.01 15.05 162.55 15.35C163.213 15.7405 163.85 16.1713 164.46 16.64C165.08 17.1 165.72 17.53 166.32 18.02L168.06 19.56C168.35 19.83 168.65 20.07 168.92 20.35L169.71 21.22C171.882 23.4858 173.632 26.1202 174.88 29C177.275 34.6548 178.23 40.8154 177.66 46.93C177.578 48.6393 177.334 50.337 176.93 52C176.031 55.5589 174.858 59.0427 173.42 62.42C171.319 67.1388 168.194 71.3304 164.27 74.69C162.312 76.2846 160.115 77.5603 157.76 78.47C155.65 79.28 156.58 78.29 157.24 77.92C159.19 76.83 157.44 77.39 157.17 77.27C157.08 77.27 156.96 77.18 157.03 77.09C157.1 77 157.47 76.88 158.13 76.45L159.32 75.72C159.75 75.4 160.25 75.05 160.79 74.67C163.364 72.6377 165.593 70.203 167.39 67.46C169.283 64.5775 170.77 61.4481 171.81 58.16C172.424 56.2535 172.915 54.3095 173.28 52.34C173.714 50.1414 173.961 47.9101 174.02 45.67C174.203 40.9131 173.386 36.1708 171.62 31.75C170.657 29.3912 169.305 27.2108 167.62 25.3L166.35 23.96C166.14 23.74 165.95 23.51 165.72 23.31L165.04 22.74L163.72 21.62C163.3 21.25 162.8 20.98 162.37 20.62C159.962 18.9655 157.376 17.5869 154.66 16.51C153.54 16.13 152.46 15.64 151.32 15.28C150.18 14.92 149.07 14.48 147.91 14.2C147.63 14.14 145.48 13.55 142.31 13.06C138.487 12.4895 134.625 12.2187 130.76 12.25C126.904 12.2772 123.059 12.652 119.27 13.37C117.423 13.7394 115.605 14.2407 113.83 14.87C107.58 16.98 101.69 20.52 95.4201 23.48C94.1901 24.05 92.9801 24.72 91.7601 25.38C90.5401 26.04 89.1001 26.82 87.6101 27.47C86.0288 28.1876 84.339 28.6371 82.6101 28.8C80.9391 28.9249 79.2591 28.8375 77.6101 28.54C76.0501 28.3 74.5101 27.9 73.0901 27.6C67.505 26.2251 61.7595 25.6129 56.0101 25.78C50.2002 25.9602 44.4849 27.2997 39.2001 29.72L37.7601 30.34C37.3001 30.57 36.8501 30.83 36.4001 31.08C35.2326 31.6576 34.1125 32.3264 33.0501 33.08C27.4802 37.1664 22.9259 42.4803 19.7401 48.61C18.9201 50.14 18.2501 51.75 17.5001 53.32C16.7501 54.89 16.2901 56.59 15.6801 58.22C14.6181 61.4962 13.9468 64.8863 13.6801 68.32C13.6201 68.72 13.5901 69.32 13.5601 70.02C13.5301 70.72 13.4601 71.61 13.4501 72.57C13.4401 73.53 13.4501 74.57 13.5001 75.71C13.5501 76.85 13.6901 77.97 13.8001 79.13C13.9101 80.29 14.1301 81.45 14.3201 82.57C14.5101 83.69 14.8001 84.74 15.0101 85.73C15.5601 87.66 16.0101 89.26 16.3501 90.12C16.5301 90.61 16.7801 91.39 17.0601 92.31C17.3401 93.23 17.7501 94.31 18.1101 95.31C18.7125 96.9733 19.4344 98.5908 20.2701 100.15Z" fill="#221F1F"/>
<path d="M114.1 73.7401C111.66 72.8601 109.23 72.0101 106.77 71.2701C105.87 71.0101 104.96 70.8201 104.06 70.5801C103.16 70.3401 102.48 70.1601 101.69 69.9601C100.981 69.7734 100.253 69.6727 99.5201 69.6601C98.0388 69.6617 96.5839 70.0513 95.3001 70.7901C94.1444 71.4796 93.1813 72.4495 92.5001 73.6101C92.2601 74.0001 92.0401 74.3801 91.8201 74.8001C91.5837 75.2472 91.3233 75.6811 91.0401 76.1001C90.4725 76.9088 89.7999 77.6385 89.0401 78.2701C88.0901 79.0501 87.0401 76.0201 88.2301 74.4501C88.4901 74.0901 88.7001 73.7901 88.9301 73.4501C89.1601 73.1101 89.4501 72.5901 89.7401 72.1601L90.1901 71.5301L90.7201 70.8501C91.0987 70.4132 91.5063 70.0022 91.9401 69.6201C93.6821 68.1045 95.8674 67.1925 98.1701 67.0201C99.5085 66.9135 100.855 66.9976 102.17 67.2701C103.38 67.5101 104.58 67.7601 105.75 68.0701C108.31 68.7801 110.82 69.6101 113.32 70.4601L117.9 72.0501C120.22 72.8501 122.52 73.6901 124.84 74.3901C126.64 74.9301 128.46 75.2801 130.27 75.6801C130.67 75.7701 131.07 75.8201 131.47 75.9301C132.94 76.3001 133.35 76.6101 133.47 77.4501C133.503 77.6421 133.527 77.8357 133.54 78.0301C133.54 78.6501 132.79 78.9701 131.65 78.8401C128.193 78.3337 124.792 77.5034 121.49 76.3601C119 75.5501 116.49 74.6701 114.04 73.8501L114.1 73.7401Z" fill="#221F1F"/>
<path d="M128 126.19C127.9 125.38 127.9 124.56 128 123.75C128.078 123.014 128.239 122.29 128.48 121.59C128.508 121.49 128.57 121.402 128.656 121.343C128.741 121.283 128.845 121.255 128.949 121.264C129.053 121.272 129.15 121.316 129.225 121.388C129.3 121.461 129.348 121.557 129.36 121.66C129.632 122.647 129.849 123.649 130.01 124.66C130.2 126.654 130.27 128.658 130.22 130.66C130.163 133.358 129.966 136.052 129.63 138.73C129.222 142.012 128.577 145.261 127.7 148.45C125.963 154.961 123.493 161.254 120.34 167.21C119.626 168.534 118.842 169.82 117.99 171.06C116.538 173.215 114.937 175.267 113.2 177.2C111.441 179.232 109.364 180.964 107.05 182.33C106.644 182.568 106.223 182.778 105.79 182.96L105.14 183.25L104.44 183.5C101.642 184.376 98.7039 184.716 95.78 184.5C92.7553 184.296 89.7869 183.583 87 182.39C82.8587 180.473 79.0586 177.893 75.75 174.75C75.2632 174.338 74.8117 173.887 74.4 173.4C73.58 172.3 72.6 171.35 71.67 170.33C70.3901 168.913 69.1884 167.428 68.07 165.88C67.5471 165.113 67.0664 164.319 66.63 163.5C66.24 162.86 66.75 162.9 66.98 163.12C67.58 163.72 67.31 163.07 67.38 162.91C67.45 162.75 67.44 162.79 67.49 162.8C67.54 162.81 67.99 163.33 68.68 164.11C69.37 164.89 70.29 165.92 71.27 166.93C73.27 168.93 75.43 170.93 75.85 171.3C75.9 171.35 76.65 172.05 77.8 173.02C79.2079 174.208 80.691 175.303 82.24 176.3C83.849 177.341 85.5415 178.248 87.3 179.01C88.82 179.65 90.02 180.01 90.42 180.13C91.28 180.34 92.11 180.64 92.98 180.84C95.0517 181.24 97.1709 181.335 99.27 181.12L100.41 181L101.5 180.79C102.152 180.676 102.797 180.523 103.43 180.33L103.84 180.22L104.03 180.17H103.94H104H104.07L104.61 179.93C104.8 179.855 104.984 179.765 105.16 179.66C107.243 178.449 109.148 176.955 110.82 175.22C111.174 174.869 111.508 174.498 111.82 174.11C114.53 170.676 116.876 166.969 118.82 163.05C119.82 161.05 120.72 158.95 121.53 156.85L122.01 155.72C122.21 155.25 122.41 154.72 122.58 154.29C124.418 149.253 125.758 144.048 126.58 138.75C126.67 138.14 127 136.39 127.24 134.61C127.48 132.83 127.65 131.01 127.67 130.3C127.67 129.9 127.79 129.06 127.9 128.22C127.981 127.547 128.014 126.868 128 126.19Z" fill="#221F1F"/>
<path d="M134.82 86.0901C135.482 85.3739 136.32 84.843 137.25 84.5501C138.022 84.3079 138.835 84.2262 139.64 84.3101C140.993 84.4691 142.261 85.0539 143.26 85.9801C143.388 86.134 143.478 86.3158 143.523 86.511C143.569 86.7061 143.567 86.9091 143.52 87.1037C143.472 87.2982 143.379 87.4789 143.249 87.6311C143.119 87.7833 142.955 87.9028 142.77 87.9801C141.468 88.1138 140.209 88.5156 139.07 89.1601C138.638 89.3533 138.271 89.6655 138.01 90.0601C137.814 90.4478 137.712 90.8758 137.71 91.3101C137.702 92.0734 137.817 92.833 138.05 93.5601C138.639 95.3808 139.561 97.0762 140.77 98.5601C141.68 99.7256 142.77 100.738 144 101.56C144.717 102.043 145.503 102.417 146.33 102.67C146.91 102.85 147.525 102.881 148.12 102.76C148.684 102.614 149.201 102.325 149.62 101.92C150.255 101.341 150.795 100.667 151.22 99.9201C151.762 99.0232 152.214 98.0753 152.57 97.0901C152.752 96.6283 152.899 96.1537 153.01 95.6701L153.19 94.9801L153.26 94.3001C153.309 93.8753 153.329 93.4476 153.32 93.0201C153.284 92.6294 153.221 92.2417 153.13 91.8601C152.961 91.1233 152.618 90.4377 152.13 89.8601C151.063 88.5634 149.584 87.6707 147.94 87.3301C147.037 87.1361 146.113 87.0521 145.19 87.0801C144.263 87.1178 143.345 87.2792 142.46 87.5601C140.908 88.0517 139.479 88.8701 138.27 89.9601C136.077 92.1741 134.817 95.1448 134.75 98.2601C134.605 99.7918 134.771 101.337 135.238 102.803C135.706 104.269 136.465 105.625 137.47 106.79C138.105 107.568 138.908 108.19 139.82 108.61C140.839 109.155 141.907 109.604 143.01 109.95C143.925 110.196 144.864 110.343 145.81 110.39C146.755 110.409 147.697 110.26 148.59 109.95C149.265 109.745 149.868 109.355 150.333 108.825C150.798 108.295 151.105 107.646 151.22 106.95C151.403 105.821 151.403 104.669 151.22 103.54C151.025 102.129 150.663 100.746 150.14 99.4201C149.662 98.1677 148.986 96.9997 148.14 95.9601C147.339 95.0042 146.321 94.254 145.172 93.7721C144.022 93.2902 142.773 93.0906 141.53 93.1901C140.77 93.2701 140 93.5101 139.23 93.5401C137.394 93.7223 135.684 94.556 134.41 95.8901C132.433 97.6287 130.892 99.8071 129.91 102.25C129.34 103.46 128.868 104.714 128.5 106C128.18 107.21 127.34 106.55 127.27 106.06C127.08 104.69 126.6 105.74 126.27 105.87C126.14 105.87 125.97 105.96 125.88 105.87C125.742 104.85 125.762 103.814 125.94 102.8C126.241 100.51 126.956 98.2943 128.05 96.2601C129.249 94.073 130.842 92.1268 132.75 90.5201C133.901 89.5523 135.179 88.748 136.55 88.1301C138.16 87.442 139.867 87.0069 141.61 86.8401C143.572 86.6559 145.551 86.8789 147.424 87.4949C149.296 88.1109 151.02 89.1067 152.49 90.4201C154.028 91.7852 155.314 93.4099 156.29 95.2201C156.741 96.0276 157.148 96.8588 157.51 97.7101C157.81 98.5401 158.15 99.2901 158.36 100.08C159.095 102.272 159.417 104.581 159.31 106.89C159.186 109.034 158.446 111.096 157.18 112.83C157.1 112.93 156.76 113.4 156.18 114.11C155.88 114.45 155.48 114.82 155.03 115.24C154.52 115.662 153.982 116.049 153.42 116.4C152.05 117.206 150.557 117.78 149 118.1C147.376 118.409 145.715 118.483 144.07 118.32C141.055 118.002 138.154 116.997 135.59 115.38C134.297 114.573 133.114 113.601 132.07 112.49C130.254 110.539 128.874 108.225 128.02 105.7C127.197 103.256 126.958 100.653 127.32 98.1001C127.49 97.1501 127.5 96.1501 127.68 95.1901C128.261 90.7717 130.386 86.7014 133.68 83.7001C137.113 80.736 141.549 79.1975 146.08 79.4001C148.372 79.4746 150.628 79.9836 152.73 80.9001C154.952 81.8755 156.889 83.3999 158.36 85.3301C158.885 86.061 159.318 86.8536 159.65 87.6901C159.84 88.2101 160.04 88.7401 160.19 89.2801L160.56 90.9001C160.995 93.5856 160.744 96.3375 159.83 98.9001C159.44 100.085 158.951 101.236 158.37 102.34C157.786 103.498 157.086 104.594 156.28 105.61C155.387 106.738 154.32 107.716 153.12 108.51C151.779 109.367 150.261 109.908 148.68 110.09C147.144 110.248 145.592 110.088 144.12 109.62C142.789 109.194 141.523 108.585 140.36 107.81C139.463 107.213 138.638 106.515 137.9 105.73C136.804 104.593 135.832 103.343 135 102C134.154 100.643 133.45 99.2017 132.9 97.7001C132.515 96.6362 132.204 95.547 131.97 94.4401C131.738 92.9809 131.851 91.4877 132.3 90.0801C132.577 89.199 132.989 88.3659 133.52 87.6101C133.915 87.0721 134.35 86.564 134.82 86.0901Z" fill="#221F1F"/>
<path d="M103.37 116.7C103 116.24 103.11 115.7 103.5 115.04C103.62 114.83 104.17 114.61 104.31 114.73C104.582 114.949 104.836 115.19 105.07 115.45C105.21 115.61 106.68 118.45 107.2 119.45C107.689 120.384 108.129 121.342 108.52 122.32L109.72 125.23C110.12 126.23 110.53 127.23 110.91 128.23C111.081 128.686 111.218 129.154 111.32 129.63C111.68 131.27 112.15 132.87 112.46 134.63C112.494 134.929 112.557 135.224 112.65 135.51C112.733 135.877 112.77 136.254 112.76 136.63C112.778 137.439 112.614 138.243 112.28 138.98C112.049 139.483 111.707 139.927 111.28 140.28C111.067 140.449 110.836 140.593 110.59 140.71C110.36 140.81 110.14 140.86 109.93 140.93C109.399 141.076 108.843 141.103 108.3 141.01C107.401 140.82 106.551 140.449 105.8 139.92C105.144 139.486 104.531 138.991 103.97 138.44C103.789 138.318 103.642 138.153 103.54 137.96C103.337 137.543 103.047 137.175 102.69 136.88C102.258 136.426 101.864 135.937 101.51 135.42C101.353 135.136 101.233 134.834 101.15 134.52C101.06 134.25 101.44 134.14 101.53 134.18C101.79 134.32 101.79 134.04 101.89 133.93C101.928 133.888 101.972 133.851 102.02 133.82C102.02 133.82 102.73 134.35 103.46 134.82L105.1 135.94C105.297 136.109 105.504 136.266 105.72 136.41C106.157 136.731 106.619 137.019 107.1 137.27C107.526 137.487 107.98 137.642 108.45 137.73C108.628 137.765 108.812 137.765 108.99 137.73C109.07 137.67 109.19 137.73 109.24 137.73L109.3 137.63C109.385 137.41 109.429 137.176 109.43 136.94C109.437 136.363 109.383 135.786 109.27 135.22C109.116 134.467 109.006 133.706 108.94 132.94C108.927 132.78 108.893 132.622 108.84 132.47C108.42 131.17 108.03 129.82 107.57 128.47C107.33 127.79 107.03 127.13 106.75 126.47C106.706 126.343 106.673 126.213 106.65 126.08C106.6 125.91 106.56 125.74 106.5 125.57C105.81 123.98 105.26 122.34 104.5 120.78C104.32 120.42 103.84 118.56 103.63 118.15C103.48 117.82 103.52 116.89 103.37 116.7Z" fill="#221F1F"/>
<path d="M26.39 80C26.77 80.34 26.58 80.85 26.07 81.49C25.91 81.69 25.27 81.98 25.12 81.89C24.8383 81.7334 24.5706 81.5527 24.32 81.35C23.9978 80.8932 23.7007 80.4191 23.43 79.93C23.04 79.19 22.58 78.36 22.37 77.93C21.9691 77.0808 21.6671 76.1882 21.47 75.27C21.0105 73.3683 20.7921 71.4163 20.82 69.46C20.8415 69.0195 20.8984 68.5814 20.99 68.15C21.18 67.42 21.36 66.69 21.52 65.96C21.68 65.23 21.86 64.5 22.11 63.8C22.2156 63.5708 22.2734 63.3224 22.28 63.07C22.3119 62.7732 22.3895 62.4832 22.51 62.21C22.68 61.8 22.91 61.29 23.15 60.78C23.5341 60.0303 23.986 59.3174 24.5 58.65C25.3681 57.7148 26.2826 56.8237 27.24 55.98C27.38 55.87 27.48 55.71 27.68 55.68C28.0738 55.5864 28.4255 55.3649 28.68 55.05C29.0646 54.6744 29.4869 54.3393 29.94 54.05C30.189 53.9248 30.4553 53.8372 30.73 53.79C30.97 53.73 31.17 54.15 31.15 54.23C31.07 54.49 31.34 54.52 31.48 54.64C31.5316 54.6822 31.5756 54.7329 31.61 54.79C31.4018 55.264 31.1472 55.7162 30.85 56.14C30.44 56.79 30.08 57.5 29.96 57.6L29.52 58.12L28.67 59.28C28.2134 59.9169 27.8023 60.5852 27.44 61.28C27.3297 61.4872 27.188 61.6761 27.02 61.84C26.7576 62.3238 26.5369 62.8289 26.36 63.35C26.1676 63.858 26.0007 64.3753 25.86 64.9C25.58 65.47 25.61 66.11 25.18 66.65C25.1092 66.7563 25.0742 66.8824 25.08 67.01C24.94 68.08 24.74 69.15 24.7 70.25C24.6955 70.8156 24.7356 71.3807 24.82 71.94C24.8299 72.0431 24.8299 72.1469 24.82 72.25C24.81 72.3798 24.81 72.5102 24.82 72.64C24.9935 74.0083 25.3292 75.3511 25.82 76.64C25.93 76.94 26.19 78.48 26.36 78.82C26.38 79.05 26.24 79.86 26.39 80Z" fill="#221F1F"/>
<path d="M188 2C199.5 17 204.15 33 204.14 51.84C204.14 54.1 210.22 56.21 210.22 53.61C210.22 34.03 205.15 17.3 193.22 1.69C191.9 -0.0399978 185.78 -0.93 188.02 2H188Z" fill="#221F1F"/>
<path d="M217.16 39.25C226.16 32.31 236.16 23.82 248.37 25.55C251.04 25.93 254.37 22.18 250.45 21.62C236.06 19.57 224.18 28.62 213.4 36.88C210.28 39.27 215.02 40.88 217.16 39.25Z" fill="#221F1F"/>
<path d="M129 123.17C129 123.17 140.17 122.83 142.35 121.3C144.53 119.77 142 129 137.35 134.68C132.7 140.36 132.72 145.45 132.05 148.59C130.93 153.84 126.78 149.75 126.78 149.75C126.78 149.75 130.91 131.49 129 123.17Z" fill="#221F1F"/>
<path d="M0.670032 170.93C1.67003 177.93 3.78003 184.68 4.93003 191.64C6.08003 198.6 7.17003 208.03 1.14003 213.17C-1.09997 215.08 2.35003 216.66 4.04003 215.22C16.76 204.37 7.04003 183.22 5.04003 169.76C4.73003 167.76 0.380036 168.81 0.690036 170.93H0.670032Z" fill="#221F1F"/>
<path d="M106.5 156.56C106.247 157.269 105.833 157.909 105.29 158.43C104.85 158.836 104.351 159.173 103.81 159.43C103.398 159.684 102.95 159.873 102.48 159.99C101.578 160.115 100.659 159.935 99.87 159.48C99.182 159.071 98.6371 158.46 98.31 157.73C98.0287 157.168 97.83 156.569 97.72 155.95C97.58 155.2 97.55 154.22 98.33 153.84C98.57 153.71 99.46 154.35 100.33 154.95C100.741 155.222 101.169 155.469 101.61 155.69L101.86 155.81H101.8H101.7C101.57 155.767 101.43 155.767 101.3 155.81C101.248 155.831 101.205 155.87 101.18 155.92C101.12 156 101.23 156.01 101.06 155.6C100.97 155.39 101.06 155.51 101.06 155.5C101.107 155.495 101.153 155.495 101.2 155.5H101.36H101.47C101.564 155.536 101.661 155.563 101.76 155.58C101.819 155.597 101.881 155.597 101.94 155.58C101.94 155.58 101.94 155.58 102.01 155.58C102.08 155.58 102.08 155.44 102.08 155.46C102.156 155.752 102.333 156.007 102.58 156.18L102.75 156.34H102.82C102.9 156.43 102.56 156.28 101.24 155.72L100.34 155.35C99.34 154.95 98.56 154.4 98.52 153.81C98.5095 153.34 98.6197 152.875 98.84 152.46C99.1541 151.927 99.6023 151.486 100.14 151.18C100.45 150.991 100.788 150.849 101.14 150.76C101.518 150.661 101.909 150.617 102.3 150.63C103.089 150.644 103.86 150.872 104.53 151.29C105.411 151.844 106.089 152.669 106.46 153.641C106.832 154.613 106.877 155.68 106.59 156.68L106.5 156.56Z" fill="#221F1F"/>
</svg>
