<svg id="Layer_1" data-name="Layer 1" xmlns="http://www.w3.org/2000/svg" width="520" height="520" viewBox="0 0 520 520"><defs><style>.cls-1{fill:#221f1f;}</style></defs><title>Notioly v2</title><g id="_52.Effortless" data-name="52.Effortless"><path class="cls-1" d="M273.33,40.63a.71.71,0,0,1-.12,1.42A.71.71,0,0,1,273.33,40.63Z"/><path class="cls-1" d="M300.22,286.5A130.84,130.84,0,0,0,285.93,298a123.79,123.79,0,0,0-11.88,13.95c-3.74,4.91-7.44,9.89-11.5,14.63-2.05,2.35-4.17,4.65-6.45,6.81a65.62,65.62,0,0,1-7.31,6c-7.43,5.07-14.66,10.41-20.85,16.8a71.72,71.72,0,0,0-7.47,9c-1.12,1.6-2.17,3.26-3.14,5s-2,3.48-3,5.18c-4.33,6.89-10.36,12.48-16.77,17.24s-13.24,8.9-19.74,13.41a184.13,184.13,0,0,0-18.54,14.77,176.18,176.18,0,0,0-14.75,15.06c-2.29,2.66-4.52,5.37-6.61,8.17s-4.36,5.58-6.75,8.17a78.84,78.84,0,0,1-21.51,16.57,96.21,96.21,0,0,1-12.5,5.37,100,100,0,0,0-12.21,5.4c-2.46,1.3-3.55,1.82-3.6,1.59s1-1.18,3-2.55a60.18,60.18,0,0,1,8.6-4.92c1.85-.88,4-1.73,6.1-2.6s4.39-1.86,6.7-2.94a77.29,77.29,0,0,0,22-15.51,101.65,101.65,0,0,0,8.81-10.33c2.81-3.69,5.8-7.23,8.92-10.66a184.08,184.08,0,0,1,20.24-19q5.4-4.38,11.16-8.34c3.82-2.63,7.73-5.12,11.58-7.66a125.21,125.21,0,0,0,13.36-9.85,57.06,57.06,0,0,0,11-12.5c.74-1.18,1.4-2.39,2.11-3.62s1.4-2.53,2.18-3.74a65.66,65.66,0,0,1,5-7.05,84.78,84.78,0,0,1,12.17-12.16c4.8-4,10.06-7.54,15.07-11.1a78.58,78.58,0,0,0,13.14-12.9c4-4.75,7.62-9.78,11.44-14.72a100.61,100.61,0,0,1,12.48-14.05c5.73-5.21,12.1-9.56,18.28-14s12.17-9.24,17.15-15c3.78-4.34,7.19-9,10.84-13.59,1.85-2.26,3.7-4.52,5.76-6.61,1-1.08,2.1-2.06,3.16-3.07s2.23-1.93,3.45-2.76a40.45,40.45,0,0,1,3.71-2.4c.65-.37,1.33-.67,2-1l1-.49,1-.39,2.07-.78,2-.73a17,17,0,0,0,2-.82,21.29,21.29,0,0,0,1.93-.91c5.1-2.59,9.42-6.4,13.57-10.37a96.85,96.85,0,0,1,10.21-8.76,51,51,0,0,1,5.72-3.56,46.3,46.3,0,0,0,5.55-3.44,102.15,102.15,0,0,0,10-8.58,130.72,130.72,0,0,1,9.92-8.92,59.91,59.91,0,0,1,10.11-6.09c3.33-1.59,6.16-2.71,8.54-3.61s4.32-1.57,5.91-2.1a50.75,50.75,0,0,1,6.63-1.88c.71-.15,1.63-.37,2.07-.4.73-.06-.25.56-2.66,1.67s-6.3,2.62-11.24,4.57c-7.29,2.9-14.55,6.3-20.5,11.51s-11.54,11.45-18.52,16.28c-.87.61-1.78,1.17-2.7,1.72l-2.74,1.51-1.32.73c-.43.26-.85.54-1.27.81l-1.28.81-1.23.88a91.53,91.53,0,0,0-9.31,8,85.37,85.37,0,0,1-9.7,8.25c-.89.6-1.81,1.18-2.73,1.75s-1.89,1.07-2.87,1.53-2,.93-3,1.29l-3,1.1A31.9,31.9,0,0,0,346.8,241a45.61,45.61,0,0,0-6.84,5.92c-4.25,4.38-7.92,9.39-11.78,14.32-1.92,2.47-3.93,4.92-6.06,7.27a76.27,76.27,0,0,1-6.85,6.61c-4.8,4.14-10,7.74-15,11.39Z"/><path class="cls-1" d="M155.27,212.14c0,.65-.26,1.17-.59,1.17s-1.59-.52-1.59-1.17,1.27-1.18,1.59-1.18S155.27,211.49,155.27,212.14Z"/><circle class="cls-1" cx="156.25" cy="224.71" r="1.01"/><path class="cls-1" d="M118,157.1a6.65,6.65,0,0,1-2.4-4.75,5.15,5.15,0,0,1,.31-2,7.8,7.8,0,0,1,1.89-2.73l.59-.53a4.31,4.31,0,0,1,.75-.51,4.11,4.11,0,0,1,1.73-.47,5.41,5.41,0,0,1,2.9.77,5.7,5.7,0,0,1,2.49,2.65c.14.35-.31.53-.86.54a2.21,2.21,0,0,1-1.54-.53c-1.28-1.41-3-2.12-4.36-1.08a5.28,5.28,0,0,0-2,3,4,4,0,0,0,1,3.59,7.85,7.85,0,0,0,2,1.67,10.33,10.33,0,0,0,3.85,1.33,8.19,8.19,0,0,0,3.06-.28c.22-.05.41-.15.62-.21.76-.26,1-.28,1.41.09.09.09.19.16.27.25.26.29.07.78-.6,1.15a9.15,9.15,0,0,1-6.66.49,12,12,0,0,1-4.56-2.38Z"/><path class="cls-1" d="M152.12,179.32a11.11,11.11,0,0,0,7.25-8.13l.28-1a9.69,9.69,0,0,0,.16-1.08c.07-.72.25-1.42.25-2.16a36.58,36.58,0,0,0-.12-6.36c-.14-1.06-.25-2.13-.41-3.19l-.72-3.61.06-.87c.13-.26.37-.34.7-.39a5.75,5.75,0,0,1,1.09,0l.88,0a7.5,7.5,0,0,0,3.21-.41A2,2,0,0,0,166,150a4.46,4.46,0,0,0-2.18-3,10.5,10.5,0,0,0-3.82-1.58c-.81-.11-.79-.59.09-1a5.08,5.08,0,0,1,4.38.57,7.57,7.57,0,0,1,3.07,3.23,4.57,4.57,0,0,1,.4,2.5,3.83,3.83,0,0,1-1.21,2.44,5,5,0,0,1-2.22,1.11,10.07,10.07,0,0,1-2.14.23,9.76,9.76,0,0,1-1.44-.07l-.13,0s0,.06,0,.1v.08a1,1,0,0,0,0,.11l.16.85.3,1.72a44.49,44.49,0,0,1,.41,11.61l-.24,1.6L161,172l-.22.79-.32.76c-.23.5-.41,1-.68,1.5a12.51,12.51,0,0,1-4.49,4.81,13,13,0,0,1-3.76,1.54,15.05,15.05,0,0,1-4,.3,13.8,13.8,0,0,1-5.8-1.75,23.56,23.56,0,0,1-4.81-3.51,31.27,31.27,0,0,1-5.8-7c-.35-.57-.66-1.17-1-1.78-1-2.34-.95-3.28-.58-3.87a1.78,1.78,0,0,1,.28-.39c.17-.14.38,0,.59.41a7,7,0,0,1,.34.75c.14.29.29.64.44,1a28.9,28.9,0,0,0,10,11.92,13.93,13.93,0,0,0,5.25,2.2,12.12,12.12,0,0,0,5.61-.42Z"/><path class="cls-1" d="M174.34,120.2c2.32-2.86,4-6.22,3.88-9.88,0-.46,0-.92,0-1.38l-.16-1.35a13.06,13.06,0,0,0-.56-2.64,11.85,11.85,0,0,0-2.71-4.55,15,15,0,0,0-6.8-3.92,19.67,19.67,0,0,0-3.47-.74,13.14,13.14,0,0,0-1.73-.12c-.56,0-1.2.09-1.8.13a43.76,43.76,0,0,0-7.2,1.17,39.84,39.84,0,0,0-6.88,2.42,37.82,37.82,0,0,0-6.28,3.71,38.32,38.32,0,0,0-9,9.33,54.67,54.67,0,0,0-7,15c-.25.82-.44,1.15-.62,1.08s-.33-.52-.37-1.3a17.65,17.65,0,0,1,1.63-7.45,45.58,45.58,0,0,1,9.9-14.53,38.1,38.1,0,0,1,15.11-9.07A48.73,48.73,0,0,1,160.87,94l1.35-.12a8.64,8.64,0,0,1,1.44,0,25.07,25.07,0,0,1,2.76.34,21.17,21.17,0,0,1,5.25,1.74,14.47,14.47,0,0,1,4.88,3.7l.52.58.43.65a13.57,13.57,0,0,1,.81,1.31,13.74,13.74,0,0,1,1.11,2.87c.12.5.29,1,.37,1.49L180,108a17,17,0,0,1,.06,3,14.37,14.37,0,0,1-1.45,5.9c-2.16,4.52-5.83,8-9.73,10.81a53.06,53.06,0,0,1-20.07,8.57,38.61,38.61,0,0,1-16.78,0,9,9,0,0,1-3.61-1.55,11.44,11.44,0,0,1-2.12-2.23c-.49-.64-.84-1.16-1.13-1.59a7.46,7.46,0,0,1-1-1.89,4.47,4.47,0,0,1-.22-.69c0-.29.35-.19,1.05.32a16,16,0,0,1,2.69,2.78,9.21,9.21,0,0,0,2.51,2.24,7.45,7.45,0,0,0,1.51.61l1.77.42a33.86,33.86,0,0,0,7.35.65,47.22,47.22,0,0,0,14.85-2.86,50.55,50.55,0,0,0,10.21-5,35.09,35.09,0,0,0,8.48-7.37Z"/><path class="cls-1" d="M115,150.69a11.34,11.34,0,0,1-1.57-.07,6.52,6.52,0,0,1-1.51-.2c-.5-.12-1-.21-1.49-.37l-1.43-.57a12,12,0,0,1-4.65-3.92l-.63-.93-.5-1a11.25,11.25,0,0,1-.77-2.1,10.76,10.76,0,0,1,1-7.65,13.9,13.9,0,0,1,1.14-1.62A17.53,17.53,0,0,1,106,131l1.53-1.08c.53-.33,1.1-.61,1.64-.92a15.2,15.2,0,0,1,6.45-1.7,11.59,11.59,0,0,1,8,2.8c.34.3.4.56.26.68a1.36,1.36,0,0,1-.87.12,12.89,12.89,0,0,1-3.39-.86,11.74,11.74,0,0,0-3.63-.78,12,12,0,0,0-3.71.5,17.73,17.73,0,0,0-1.8.66c-.59.27-1.15.61-1.73.9s-1.1.74-1.66,1.11a5.45,5.45,0,0,0-.72.6,4.12,4.12,0,0,0-.67.65,7.1,7.1,0,0,0-1.74,4.16,10.13,10.13,0,0,0,8.6,10.88c.54.11,1.1.09,1.65.15a3.42,3.42,0,0,0,.78,0c.25,0,.53-.08.8-.13a24.57,24.57,0,0,0,3.27-.92,27.69,27.69,0,0,0,4.71-2.12,12.09,12.09,0,0,0,3.81-3.22c.09-.13.19-.26.27-.39l.19-.41c.06-.14.15-.28.19-.41a3.4,3.4,0,0,1,.07-.34,2.62,2.62,0,0,0-.59-1.48c-.7-1-1.7-1.93-2.58-3A12.14,12.14,0,0,1,124,135a5.41,5.41,0,0,1-.91-2.43,1.44,1.44,0,0,1,.33-1.19,2,2,0,0,1,.33-.32c.18-.1.37.08.53.43.08.17.15.39.28.64l.16.4c.07.14.15.29.22.45a12.32,12.32,0,0,0,2,2.7,24.79,24.79,0,0,1,2.5,3,4.12,4.12,0,0,1,.72,2.54c0,.26-.11.51-.18.76s-.16.36-.24.54a5.24,5.24,0,0,1-.57,1,11.76,11.76,0,0,1-3,2.95,25.11,25.11,0,0,1-5.28,2.76q-1.38.54-2.79,1a18.27,18.27,0,0,1-3,.64Z"/><path class="cls-1" d="M124.94,128.6s8.89-28,35.68-30.14c2-.16,17.29,1.81,15.89,16-1.16,11.83-28.64,24.2-43.83,21.08C128.3,134.62,126.78,132.44,124.94,128.6Z"/><path class="cls-1" d="M122.27,131.94s-6.48-4.16-15,2.78c-5.69,4.64-2.21,14.53,7.27,14.36,2,0,10.76-2.32,12.41-7.49C127.74,139.08,122.19,135.64,122.27,131.94Z"/><path class="cls-1" d="M188.69,202.6a22.65,22.65,0,0,1-4.43,3.45,11.21,11.21,0,0,1-2.73,1.13,8.82,8.82,0,0,1-1.54.24h-.79a6.17,6.17,0,0,1-.86-.14,10.37,10.37,0,0,1-2.71-1.22c-.82-.48-1.56-1-2.3-1.54-1.47-1.06-2.87-2.18-4.26-3.28-2.79-2.21-5.55-4.4-8.46-6.34a33.11,33.11,0,0,0-9.25-4.53,15.92,15.92,0,0,0-3.61-.54,13.61,13.61,0,0,0-3.6.45,24.21,24.21,0,0,0-6.89,2.81,33.08,33.08,0,0,0-9.62,9.1,75.47,75.47,0,0,0-6.8,11.7c-2,4.07-3.74,8.33-6,12.37l-6.46,12.09c-3.86,7.13-7.8,14.29-12,21.18-2.71,4.42-5.53,8.79-8.68,13a62.79,62.79,0,0,1-5.1,6,23.26,23.26,0,0,1-6.33,4.84c-.39.17-.73.31-1,.41a6.72,6.72,0,0,1-.76.14c-.4.05-.58,0-.57-.08s.19-.26.52-.47l.59-.36.74-.53a30,30,0,0,0,4.06-3.68c1.56-1.66,3.27-3.73,5.1-6a146.91,146.91,0,0,0,9-12.88c2.79-4.45,5.44-9,8-13.59s5.11-9.23,7.62-13.9l3.78-7c1.29-2.3,2.39-4.66,3.53-7.08,2.7-5.75,5.47-11.74,9.39-17.13a38.48,38.48,0,0,1,6.82-7.33,27,27,0,0,1,8.85-4.78l1.33-.39,1.36-.3a14.68,14.68,0,0,1,2.83-.3A17.45,17.45,0,0,1,153,189a39.35,39.35,0,0,1,9.66,5.12c3,2.06,5.78,4.32,8.59,6.53,1.4,1.1,2.81,2.2,4.26,3.18s3,2,4.46,1.81a10.42,10.42,0,0,0,5.52-2.58,34.09,34.09,0,0,0,4.59-4.56,93.79,93.79,0,0,0,7.6-10.68c7-11.32,12.87-23.39,18.65-35.3,2.27-4.63,4.38-9.26,6.92-13.74.33-.56.67-1.11,1.07-1.66a5.19,5.19,0,0,1,.71-.82,6.1,6.1,0,0,1,.85-.64,22.61,22.61,0,0,1,3.54-1.72,65.37,65.37,0,0,1,7.34-2.37c1.1-.29,2.19-.55,3.29-.78q.84-.17,1.68-.3l.45-.07.68-.08a10.32,10.32,0,0,1,1.34-.06,2.92,2.92,0,0,1,1.72.47,1,1,0,0,1,.41.64,1.24,1.24,0,0,1-.13.68c-.28.78-1.57,1.63-2.48,2.18l-.35.2-.25.13-.46.25c-.31.15-.6.29-.88.41q-.84.38-1.53.63a15.35,15.35,0,0,1-3.87,1,11.66,11.66,0,0,1-1.23.12c-.45,0,.1-.44,1.46-1.12.68-.35,1.57-.75,2.62-1.25.52-.24,1.08-.51,1.67-.81l.9-.48.46-.26.23-.13.12-.08a2.87,2.87,0,0,0,.43-.31c.08-.09.27-.21.14-.34a1,1,0,0,0-.46,0l-.62.1a56.78,56.78,0,0,0-6.63,1.56,54.48,54.48,0,0,0-6.47,2.29,11.53,11.53,0,0,0-2.74,1.54,7.2,7.2,0,0,0-.88,1.17c-.3.47-.59,1-.88,1.46-2.26,4.06-4.29,8.4-6.39,12.7s-4.18,8.65-6.35,13c-3.21,6.41-6.54,12.79-10.2,19-1.83,3.11-3.75,6.18-5.83,9.16a60.8,60.8,0,0,1-6.95,8.49Z"/><path class="cls-1" d="M235.53,142.67a23.93,23.93,0,0,0,4.06-1.51l.27-.17.08-.06a1,1,0,0,0,.13-.16.27.27,0,0,0-.08-.36.41.41,0,0,0-.2-.09l-.14,0h-.32a21.76,21.76,0,0,0-2.81.26c-.85.12-1.7.31-2.57.47-.55.1-1.11.21-1.7.26a3.83,3.83,0,0,1-1.86-.23c-.42-.18-.12-.59.26-1a2.06,2.06,0,0,1,1.31-.82c2-.13,4.23-.67,6.63-.69.37,0,.71,0,1.17,0a5.72,5.72,0,0,1,.83.12,2.71,2.71,0,0,1,.73.34,2,2,0,0,1,.86,1.29,1.89,1.89,0,0,1-.49,1.47,4.63,4.63,0,0,1-.7.62,6.27,6.27,0,0,1-.58.36,11.18,11.18,0,0,1-1.11.53c-.73.31-1.47.56-2.2.8l-2.69.86-1,.35-.47.18-.36.17a.34.34,0,0,0-.2.21l0,.14-.07.25a10.5,10.5,0,0,1-.36,1.08,3.77,3.77,0,0,1-1.2,1.53,6.92,6.92,0,0,1-1.58.89,6.24,6.24,0,0,1-.72.27c-.9.27-1.22.17-1.5-.27a2,2,0,0,1-.19-.31c-.15-.36.15-.74.73-1a10.87,10.87,0,0,0,2.27-1.18,1.68,1.68,0,0,0,.52-.68,4.45,4.45,0,0,0,.18-.55l.1-.36.06-.2a2.53,2.53,0,0,1,.12-.36,1.8,1.8,0,0,1,.66-.88,3.88,3.88,0,0,1,.48-.3l.32-.15c.41-.18.79-.32,1.16-.45l2.2-.73Z"/><path class="cls-1" d="M199.51,211.13a87.93,87.93,0,0,0,7.75-13.36c.82-1.7,1.57-3.44,2.34-5.17,2.72-6.1,5.18-12.34,7.59-18.6l3.15-8.36c1.38-3.54,2.62-7.2,4.94-10.42.78-1,1-.52.85.55a21.08,21.08,0,0,1-1.51,4.76c-1.58,3.46-2.93,7.09-4.35,10.69s-2.83,7.24-4.35,10.85c-1.81,4.32-3.53,8.89-5.52,13.26a111.38,111.38,0,0,1-7.45,14,49.43,49.43,0,0,1-6,7.78,26.94,26.94,0,0,1-5.88,4.67,15.72,15.72,0,0,1-7.25,2,22.69,22.69,0,0,1-10.94-3.36c-.73-.42-1.44-.83-2.14-1.3-2.6-1.75-3.26-2.52-3.48-3.3a3.76,3.76,0,0,1-.13-.54c0-.49,1.18.07,3,1.29a38.63,38.63,0,0,0,8.8,4.54,15.14,15.14,0,0,0,4.75.84c.39,0,.78-.05,1.18-.06s.78-.15,1.17-.22a13.71,13.71,0,0,0,2.32-.69,20.55,20.55,0,0,0,6.11-4.13c.93-.84,1.76-1.81,2.62-2.75s1.62-2,2.35-3.06Z"/><path class="cls-1" d="M100.65,275.25c2.57-3.71,5-7.5,7.45-11.33l2.57-4.23c3.06-4.95,6.09-9.92,9-14.95,1.31-2.23,2.57-4.5,3.79-6.76,1.57-2.9,3.05-5.86,4.78-8.66a1.53,1.53,0,0,1,.37-.43.29.29,0,0,1,.15-.06s0,.09,0,.09l.06,0c.12-.06.18.08.22.23a2.59,2.59,0,0,1,.07.62,9.8,9.8,0,0,1-1.28,4.29c-3.22,5.92-6.59,11.75-10.22,17.51-2.17,3.44-4.24,7.13-6.42,10.67q-3.6,5.83-7.41,11.56c-1.57,2.34-3.17,4.66-4.84,6.94-1.13,1.53-2.29,3.05-3.53,4.51-.62.72-1.27,1.44-2,2.12-.35.34-.7.68-1.08,1-.19.16-.39.31-.6.46a6.48,6.48,0,0,1-.71.44,2,2,0,0,1-1.79-.22c-1.54-.85-2.78-1.82-4.19-2.57a13.8,13.8,0,0,0-4.3-1.61,10.59,10.59,0,0,0-2-.11,18.68,18.68,0,0,0-2.55.39,2.55,2.55,0,0,1-1.29,0,2.19,2.19,0,0,1-.49-.13c-.21-.11-.11-.36.29-.71A5.63,5.63,0,0,1,77,283.26a9.65,9.65,0,0,1,4-.24,13.43,13.43,0,0,1,3.85,1.23,27.64,27.64,0,0,1,3.39,2c.53.35,1,.7,1.54,1a3.94,3.94,0,0,0,.64.33h0s0,0,0,0l.12-.06.25-.18a6.21,6.21,0,0,0,.52-.41c.35-.3.7-.64,1-1a55.28,55.28,0,0,0,4.27-5.13c1.35-1.81,2.66-3.67,3.94-5.55Z"/><path class="cls-1" d="M193.3,387.12c-3.74.47-10.29,6-13,8-.89-2.77-1.51-51.41-.52-63-8.1-7.37-25.58-31.73-27.78-34,.26,9.54-3.82,52.65-7.15,62.55-4,11.88-20.29,55.75-24.35,56.12-4.42.4-8.08-1-15,0,9.21-22.48,22.54-64.92,22.54-64.92s-.34-44-.51-79.05c5.15,3,30.32.86,39-6.95.36,4.74,1,8.56,1.89,10.63,4.14,9.3,25,38.69,26.68,43.22C197.77,326.86,192,377.33,193.3,387.12Z"/><path class="cls-1" d="M129.12,328.3l.09,22.13v1.48c0,.2-.11.45-.13.58l-.11.33-.21.66-.84,2.64-1.71,5.27-3.46,10.51c-4.7,14-9.46,28-14.87,41.75l-.65,1.61-.09.23-.05.11,0,.06h0l.24,0,.33,0c.69-.06,1.38-.11,2.07-.12,2.78-.11,5.54.27,8.13.4a17.74,17.74,0,0,0,1.93,0l.47,0a.24.24,0,0,0,.14,0,2.29,2.29,0,0,0,.46-.42,19.69,19.69,0,0,0,2.1-3.18c1.28-2.31,2.44-4.73,3.56-7.15,3.91-8.6,7.4-17.42,10.8-26.25q2.53-6.65,4.95-13.32l1.19-3.35.57-1.67.48-1.66c.32-1.11.53-2.28.8-3.41l.65-3.48c1.57-9.31,2.66-18.73,3.62-28.15.47-4.72.89-9.44,1.23-14.16.17-2.36.32-4.72.42-7.08l.14-4.88c0-.4,0-.9.05-1.23l.87,1c.55.67,1.1,1.29,1.66,2l8,10.41c2.56,3.34,5.15,6.67,7.79,9.94s5.33,6.5,8.19,9.52c.36.37.71.77,1.09,1.11l1.27,1.23.22.21a1.53,1.53,0,0,1,0,.3l0,.6-.05.79c0,.52-.07,1-.09,1.56-.09,2.08-.14,4.16-.18,6.25-.15,9-.1,17.94,0,26.91l.25,13.47.21,6.71.15,3.35.08,1.25a2.54,2.54,0,0,0,.1.66l1.09-.83,2.13-1.59a47.93,47.93,0,0,1,4.47-2.95,9.61,9.61,0,0,1,4.32-1.59c.61,0,.24.18-.74.62a26.55,26.55,0,0,0-4.41,2.84c-.95.72-2,1.56-3.14,2.5l-1.77,1.5-1.45,1.19c-.58.47-1.16.94-1.76,1.41-.11-.43-.19-1-.3-1.5s-.21-1-.26-1.61-.09-.91-.14-1.37l-.09-1c-.12-1.39-.21-2.84-.29-4.33-.17-3-.28-6.15-.35-9.46-.21-11-.3-21.94-.15-32.92,0-2.75.09-5.49.21-8.25,0-.69,0-1.38.09-2.08l.11-1.61h0l0,0-.19-.19-.76-.73c-.51-.5-1-1-1.45-1.52-3.79-4.08-7.2-8.39-10.62-12.7s-6.71-8.72-10-13.09l-2.12-2.79-.11-.15s-.05-.08-.06-.05v.09l-.08,2c-.09,1.37-.15,2.76-.25,4.13-.77,11-1.92,22-3.37,33-.44,3.28-.9,6.57-1.46,9.88a83.13,83.13,0,0,1-2.11,9.94c-2.14,6.43-4.52,12.73-6.91,19.09s-4.9,12.68-7.54,19c-1.33,3.13-2.69,6.26-4.15,9.34-.73,1.54-1.48,3.07-2.3,4.58-.41.76-.83,1.51-1.3,2.25a13.67,13.67,0,0,1-1.63,2.17,3,3,0,0,1-.74.59,1.76,1.76,0,0,1-.54.2,2,2,0,0,1-.47.06c-.49,0-1,.05-1.46.05-1,0-1.91-.07-2.85-.14-1.86-.16-3.67-.33-5.48-.31-.91,0-1.81.05-2.72.13-.69.06-1.53.18-2.26.27l-1.13.15-.14,0s0-.09,0-.13l.11-.26.21-.54,1.42-3.53c.35-.86.69-1.72,1-2.59,2.68-6.91,5.2-13.9,7.65-20.91s4.83-14.05,7.16-21.1l3.47-10.59,1.7-5.31.22-.66.1-.33a.4.4,0,0,0,0-.15v-4.15q-.14-27.45-.27-54.89l0-10,0-5V272.3c0-.15,0-.34.05-.37.57.29,1.21.59,1.82.83l.45.14.31.08.6.13a22.05,22.05,0,0,0,2.46.33,44.17,44.17,0,0,0,5,.12,71.73,71.73,0,0,0,10-1,62,62,0,0,0,9.75-2.41,35,35,0,0,0,4.59-1.93,22.36,22.36,0,0,0,2.14-1.22l.28-.18.36-.28.73-.55c.49-.37.95-.78,1.43-1.17.12,1.27.23,2.54.35,3.81.1.93.22,1.86.36,2.78a18.74,18.74,0,0,0,1.41,5.26,110,110,0,0,0,5.5,9.66c5.65,9.06,11.64,17.78,17.35,26.67.72,1.11,1.41,2.24,2.1,3.38a17.84,17.84,0,0,1,1.85,3.68,22.36,22.36,0,0,1,.52,4.06c.07,1.34.1,2.67.1,4,0,5.3-.25,10.57-.51,15.86-.27,4.65-.54,9.19-.81,13.88-1.13,17.36-1.41,22.85-1.84,26.57-.1.85-.15,2-.2,2.47-.08.87-.52-.49-.67-3.67s-.06-8.16.27-14.53q.73-13.33,1.49-27c.21-4.54.4-9.11.39-13.67a45.68,45.68,0,0,0-.38-6.69,7.23,7.23,0,0,0-1.12-2.83c-.54-1-1.16-1.95-1.75-2.93-4.93-7.79-10.2-15.51-15.26-23.42-2.52-4-5-7.93-7.36-12.12-.59-1-1.1-2.12-1.64-3.28a19.87,19.87,0,0,1-1-3.64c-.43-2.15-.76-5.82-.66-4.77-.1.06.41-.25-1.05.67a32.94,32.94,0,0,1-3.19,1.62,61.83,61.83,0,0,1-16.67,4.24,68.2,68.2,0,0,1-8.59.55,40.24,40.24,0,0,1-4.37-.23,19.93,19.93,0,0,1-2.23-.37c-.16,0-.43-.11-.51-.12h0c.1,17.82.2,35.7.29,53.55Z"/><path class="cls-1" d="M129.74,255.89l-.08,4.5c0,.55,0,1.1,0,1.64-.06,1.93-.17,3.86-.27,5.79,0,.85,0,1.71,0,2.56a15.66,15.66,0,0,1-.16,3.28c-.14.67-1.65-.28-1.6-1.52.07-2.2.19-4.4.42-6.63.14-1.33.07-2.72.09-4.09l.06-4.52v-2.78c0-1.4,0-2.81,0-4.21,0-1.08-.18-2.14-.26-3.21,0-.24,0-.47-.06-.71,0-.88.07-1.17.5-1.36a1.48,1.48,0,0,1,.29-.12c.33-.09.6.27.7.91a45.84,45.84,0,0,1,.44,5.94c0,1.5,0,3,.06,4.53Z"/><path class="cls-1" d="M167.11,238l-.24,7.47,0,2.73c-.08,3.2-.16,6.41-.16,9.61,0,1.42.07,2.85.15,4.25.11,1.81.32,3.61.28,5.43,0,1.13-1.67-.18-1.83-2.29a104.39,104.39,0,0,1-.08-11.19c.11-2.24,0-4.57.07-6.86l.2-7.55.15-4.64c.07-2.34.17-4.7.2-7,0-1.81-.05-3.58-.09-5.37,0-.39,0-.78,0-1.17,0-1.47.1-1.93.54-2.25a1.37,1.37,0,0,1,.29-.2c.33-.15.6.45.69,1.54.24,3.21.2,6.58.13,10-.06,2.51-.13,5-.2,7.54Z"/><path class="cls-1" d="M107.45,417c-.18,1.19-1.15,7.65,3,9.09,3.37,1.15,7.84,21.16,13.73,20.43,7.26-.89-8.1-29.52-8.1-29.52Z"/><path class="cls-1" d="M125.85,436.05a31.28,31.28,0,0,1,1.32,6,8.1,8.1,0,0,1-.27,3.37,3.17,3.17,0,0,1-1.29,1.67,3.36,3.36,0,0,1-2,.42,4.6,4.6,0,0,1-2.44-1.11,9.08,9.08,0,0,1-1.62-1.73,37,37,0,0,1-3.63-6.85c-1-2.34-1.92-4.69-2.93-7a21.35,21.35,0,0,0-1.52-2.89,4.12,4.12,0,0,0-.93-1.09c-.08-.08-.14-.07-.2-.12l-.42-.18-.44-.19-.41-.28a5.16,5.16,0,0,1-.93-.82,5.72,5.72,0,0,1-.69-1,7.37,7.37,0,0,1-.76-2.23,12.09,12.09,0,0,1,0-4.49c.19-.9.64-.68,1,.11a13,13,0,0,1,.88,3.57,5,5,0,0,0,1.35,3.1,2.32,2.32,0,0,0,.3.22.94.94,0,0,0,.32.19l.35.17a2.93,2.93,0,0,1,.83.48,7.4,7.4,0,0,1,1.62,2.09,72.27,72.27,0,0,1,3.52,8.2,49.3,49.3,0,0,0,2.18,4.81,17.94,17.94,0,0,0,2.9,4.21c1.21,1.29,3,1.49,3.3-.12a7.58,7.58,0,0,0,.06-2.66,23.34,23.34,0,0,0-.54-2.82,56.56,56.56,0,0,0-2.23-6.86c-1.32-3.41-2.81-6.8-4.43-10.06-.63-1.27-1.29-2.51-2-3.73l-.24-.43-.14-.22s0-.08-.07-.09h-.12l-.26,0-2.11.07-1.84.06c-2.32,0-3-.09-3.55-.59a3.44,3.44,0,0,1-.33-.34c-.22-.39.72-.71,2.42-.82,1.25-.08,2.53-.15,3.81-.2l1,0,1.24,0c.31,0,.63,0,.93,0l.45.82.59,1.09c1.26,2.32,2.45,4.71,3.57,7.14A101.42,101.42,0,0,1,125.9,436Z"/><path class="cls-1" d="M181.21,394.36a7.35,7.35,0,0,0,9.19,3.55c6.53-2.1,18.32-4.84,20.85-9.68s-23,1.9-23,1.9Z"/><path class="cls-1" d="M205.64,385.47c.87-.07,1.76-.12,2.67-.11a13.68,13.68,0,0,1,1.4.09,6.27,6.27,0,0,1,.79.15,3.82,3.82,0,0,1,1,.41,1.86,1.86,0,0,1,.92,1.82,2,2,0,0,1-.37.95l-.48.76a3.41,3.41,0,0,1-.49.59l-.5.52-1.09.88a21.83,21.83,0,0,1-3.37,2,87.69,87.69,0,0,1-12.64,4.16q-1.41.39-2.79.84c-.48.13-1,.29-1.49.39a9.19,9.19,0,0,1-1.57.16,7.54,7.54,0,0,1-3.95-1,7.32,7.32,0,0,1-2.8-2.91c-.2-.37-.16-.62,0-.69a1.45,1.45,0,0,1,.84.15,15.36,15.36,0,0,1,2.68,1.49,5.57,5.57,0,0,0,2.9,1c.26,0,.53,0,.79,0l.81-.09c.55-.13,1.05-.24,1.7-.44,2.47-.72,4.93-1.33,7.38-2a40.55,40.55,0,0,0,8.55-3.33,16.13,16.13,0,0,0,2.07-1.31,7.34,7.34,0,0,0,.89-.77,5.15,5.15,0,0,0,.7-.79l.24-.35a.44.44,0,0,0,.06-.25c0-.19-.18-.3-.34-.35a4.43,4.43,0,0,0-1-.17c-.4,0-.81-.05-1.23-.05a45.51,45.51,0,0,0-6.21.62c-3.15.5-6.3,1.12-9.39,1.87-1.19.29-2.37.62-3.54,1a1.35,1.35,0,0,0-.64.3l-.77.5-1.53,1-1.35.88c-1.71,1.06-2.32,1.28-2.95,1.08a2.29,2.29,0,0,1-.42-.15c-.36-.23.18-.92,1.38-1.78.89-.63,1.81-1.26,2.74-1.88l1.41-.93.72-.46.32-.2.38-.11.41-.11c2.21-.62,4.47-1.17,6.75-1.67a92,92,0,0,1,10.33-1.71Z"/><path class="cls-1" d="M78.44,284.31a3,3,0,0,1-1.06,1.85c-1.62,1.12-3.15,2.45-4.69,3.74-1.32,1.11-2.68,2.19-3.89,3.41l-.25.26a.44.44,0,0,0-.08.11c-.06.05-.08.22,0,.15a1,1,0,0,0,.23-.13l.68-.47.9-.66c.7-.53,1.42-1.05,2.11-1.62s1.29-1.1,2-1.66a1.17,1.17,0,0,1,.35-.28.65.65,0,0,1,.77.7c0,.11,0,.26,0,.31-.51.42-.51,1.27-1.08,1.68-1,.78-2,1.72-3,2.56a11.28,11.28,0,0,1-1.3.93l-.6.36-.81.45a6.93,6.93,0,0,1-1.43.57,1.86,1.86,0,0,1-1.24,0,.79.79,0,0,1-.42-.3,1.1,1.1,0,0,1-.21-.52,2.29,2.29,0,0,1,0-.58,4.82,4.82,0,0,1,.22-.68l.07-.17.14-.22.3-.43.29-.44.37-.41.73-.8.53-.53c.72-.71,1.49-1.42,2.28-2.09a48.93,48.93,0,0,1,4.44-3.47,12.44,12.44,0,0,1,2.36-1.39,3.74,3.74,0,0,1,.53-.13Z"/><path class="cls-1" d="M75.23,289.75a3.66,3.66,0,0,1-.94,1.68,38.72,38.72,0,0,0-3.79,4.36c-.5.66-1,1.32-1.46,2-.22.34-.45.69-.62,1a2.59,2.59,0,0,0-.28.71,1.37,1.37,0,0,0-.36.1.6.6,0,0,0-.16.08l-.06.06a1,1,0,0,0-.17-.55c0-.08.15-.11.21-.26a6.65,6.65,0,0,1,.63-.82c.47-.55,1-1.12,1.47-1.67s1-1.1,1.61-1.61,1.18-1,1.76-1.45,1.42-1,2.15-1.56a19.08,19.08,0,0,1,2.18-1.43,1.27,1.27,0,0,1,.43-.18.64.64,0,0,1,.59.86c0,.11,0,.26-.08.29-.57.3-.65,1.16-1.22,1.47a20.68,20.68,0,0,0-2.9,2.25c-.38.32-.78.62-1.15.89a17.14,17.14,0,0,0-1.45,1.13c-.33.28-1.15,1.14-2.27,2.38a11.91,11.91,0,0,1-1.16.93,1.55,1.55,0,0,1-.32.16,1,1,0,0,1-.71,0,1,1,0,0,1-.32-.28c0-.08-.09-.16-.13-.24a1.93,1.93,0,0,1-.08-.33,2.39,2.39,0,0,1,0-.59,3,3,0,0,1,.14-.45A13.66,13.66,0,0,1,68.4,296,30.84,30.84,0,0,1,72,291.81a11.71,11.71,0,0,1,2.07-1.67A4.89,4.89,0,0,1,75.23,289.75Z"/><path class="cls-1" d="M69.24,298.09a1.8,1.8,0,0,0,.9.43c.2,0,.24-.13.34-.11a7,7,0,0,0,1.91-.73c.69-.36,1.38-.77,2.08-1.18,1.19-.72,2.43-1.39,3.64-2.14.81-.5,1.63-1,2.47-1.51l1.3-.72.71-.33.39-.15a3.72,3.72,0,0,1,.61-.18,2,2,0,0,1,1.35.09,1.62,1.62,0,0,1,.84,1,2.54,2.54,0,0,1,.08,1,2.23,2.23,0,0,1-.07.5c0,.16-.05.24-.08.35a8,8,0,0,1-.46,1.16,13.08,13.08,0,0,1-1.15,2,.85.85,0,0,1-.24.29c-.3.17-.72-.1-.87-.51,0-.09-.11-.22-.08-.27.32-.43,0-1.15.28-1.57a4.49,4.49,0,0,0,.54-1.29l.06-.32c0-.11,0-.21,0-.19a.1.1,0,0,0-.07,0s0,0,0,0v0s0,0,0,0l-.27.06a5.14,5.14,0,0,0-.59.2,21,21,0,0,0-2.38,1.26l-4,2.41a27.08,27.08,0,0,1-4.13,2.08,4.11,4.11,0,0,1-1.76.33,2.17,2.17,0,0,1-.69-.18c-.18-.11-.29-.2-.32-.22a.94.94,0,0,1-.31-.68A2.51,2.51,0,0,1,69.24,298.09Z"/><path class="cls-1" d="M155.8,205.05a7.15,7.15,0,0,1-4.63.4,9.37,9.37,0,0,1-1.57-.44,15,15,0,0,1-4.45-3.18c-.56-.57-1.12-1.14-1.65-1.72a7.29,7.29,0,0,1-1.69-2.55c-.1-.32.35-.49.89-.49a1.72,1.72,0,0,1,1.43.57,27.54,27.54,0,0,0,3.64,4.19,8.1,8.1,0,0,0,3,1.62,6,6,0,0,0,3.51.23,3.4,3.4,0,0,0,1.77-1.05,4.55,4.55,0,0,0,.66-3.22,27.17,27.17,0,0,0-.52-2.82c0-.22-.09-.43-.12-.66-.08-.83.08-1.14.58-1.28.12,0,.23-.07.35-.09.39,0,.68.28.8.8a18.81,18.81,0,0,1,.76,5.43,5.65,5.65,0,0,1-.68,2.48,4.64,4.64,0,0,1-2,1.82Z"/><path class="cls-1" d="M156.73,211.61a2.29,2.29,0,0,1-.08,1.42,1.7,1.7,0,0,1-.35.6,3.19,3.19,0,0,1-.43.46,2.82,2.82,0,0,1-.7.49,2.35,2.35,0,0,1-1.57.07,2.5,2.5,0,0,1-1.2-.84,3.52,3.52,0,0,1-.56-1.11,1.46,1.46,0,0,1,.25-1.54c.12-.12.52.17.9.46s.78.52.79.56a1.28,1.28,0,0,0,.11.7c.13.2.35.11.56,0s.47-.3.52-.54a.64.64,0,0,0-.14-.46c-.17-.25-.59-.44-.71-.37s0,0,0,0,0,0,0,0l.13.25.08.14c.1.22,0,.31-.47.53l-.31.15a.7.7,0,0,1-.88-.11c-.06-.1-.13-.19-.18-.29a3.56,3.56,0,0,1-.13-.39,2,2,0,0,1,0-1,2.5,2.5,0,0,1,.41-.64,2,2,0,0,1,1.9-.47,2.69,2.69,0,0,1,1.2.65,2.84,2.84,0,0,1,.81,1.21Z"/><path class="cls-1" d="M159,225.56a3.22,3.22,0,0,1-.41.69,2.32,2.32,0,0,1-.61.56,2.77,2.77,0,0,1-1.45.44,3.62,3.62,0,0,1-1-.06,2.61,2.61,0,0,1-1.5-1.07,2.87,2.87,0,0,1-.42-1.63,6.54,6.54,0,0,1,.17-1.33,2,2,0,0,1,.94-1.46c.19-.09.45.33.68.75s.51.8.45.91a4.15,4.15,0,0,0-.46,1.58c0,.3.28.43.67.48a1.1,1.1,0,0,0,1-.23,1.32,1.32,0,0,0,.25-.75c0-.47-.09-.89-.41-1s-.51.1-.61.3a.9.9,0,0,1-.07.14c-.17.25-.33.22-.77,0l-.3-.17a.64.64,0,0,1-.32-.86,1.86,1.86,0,0,1,.19-.37l.4-.37a2.13,2.13,0,0,1,1-.52,2.24,2.24,0,0,1,2.14,1,3.42,3.42,0,0,1,.38,3Z"/><path class="cls-1" d="M216.72,394.24l-.15.45a.68.68,0,0,0,0,.13l0,.27-.08.55-.08.55a.75.75,0,0,1-.05.26l-.28.08-1.11.32c-.44.12-.57.14-.79.19l-.63.13-1.24.26c-.6.13-1.18.31-1.77.43a42.65,42.65,0,0,0-6.13,1.56,9.1,9.1,0,0,0-2.37,1.26,5.25,5.25,0,0,0-1.1,1.11,4.47,4.47,0,0,0-.62,1.18c-.09.25-.65.32-1.16-.08a1.58,1.58,0,0,1-.55-1,1.83,1.83,0,0,1,.3-1.32,8.21,8.21,0,0,1,3.5-2.68,18.42,18.42,0,0,1,3.78-1.15c1.51-.29,3-.78,4.52-1.11l2.47-.52.6-.14.28-.06.13,0,.28-.06.05-.3c0-.08,0-.08.05-.23l.13-.42a4,4,0,0,1,.33-.83,6.51,6.51,0,0,1,.94-1.46,14.92,14.92,0,0,1,4-3c1.06-.63,2.06-1.3,3-2l.61-.44c.77-.53,1.05-.6,1.57-.27.12.08.25.14.36.22.35.28.25.83-.32,1.39-1.71,1.6-3.81,2.54-5.53,3.7a6.6,6.6,0,0,0-2.78,3Z"/><path class="cls-1" d="M419,176.1a28.29,28.29,0,0,1-1.45,2.49c-.55.77-1.08,1.56-1.68,2.29a48.31,48.31,0,0,1-3.74,4.2c-2.63,2.65-5.46,5-8.23,7.41a101.68,101.68,0,0,0-8,7.36,95.64,95.64,0,0,0-6.92,8.34,46.41,46.41,0,0,1-3.54,4.4,13.26,13.26,0,0,1-5,3.21,37.39,37.39,0,0,1-5.46,1.51c-1.83.37-3.62.72-5.52.95a58.5,58.5,0,0,1-11.16-.12,66.29,66.29,0,0,0-10.8-.23c-5.14.43-10.15,2.35-15.4,3.64a35.64,35.64,0,0,1-8.15,1.19,51.4,51.4,0,0,1-8.16-.82,53,53,0,0,1-13.6-4.57,70.17,70.17,0,0,1-12.07-7.66,111,111,0,0,1-10.59-9.49c-3.33-3.37-6.53-6.84-9.58-10.47a123.07,123.07,0,0,1-15.8-23.55,71.62,71.62,0,0,1-5.08-13.31c-.35-1.14-.56-2.32-.8-3.49-.1-.59-.25-1.17-.33-1.76l-.21-1.78c-.07-.6-.16-1.19-.2-1.78l-.07-1.8-.05-1.8,0-1.77c.11-4.2.43-8.37.57-12.53.07-2.08.09-4.16,0-6.23a22.11,22.11,0,0,1,.67-6.41c1.09-4.2,3.34-7.86,5.24-11.51a39.66,39.66,0,0,0,2.5-5.59,26.77,26.77,0,0,0,1.25-5.92c.29-2.6.63-5.5,2.14-8a16.25,16.25,0,0,1,1.23-1.72c.43-.53.87-1,1.32-1.54.91-1,1.84-2,2.78-2.93a54.46,54.46,0,0,0,5.23-5.88c.39-.52.74-1.06,1.1-1.61l1.16-1.68c.81-1.09,1.63-2.17,2.53-3.19a61.87,61.87,0,0,1,5.68-5.77,68,68,0,0,1,6.3-5.06,65.52,65.52,0,0,1,6.84-4.31,48.56,48.56,0,0,1,7.43-3.24l2.11-.59c.6-.13,1.1-.19,1.49-.24.77-.1,1.12-.08,1.09,0s-.44.31-1.17.59c-.36.15-.81.27-1.32.49l-1.73.72a62.54,62.54,0,0,0-10,5.61,87,87,0,0,0-12.5,10.44,54.26,54.26,0,0,0-5.13,6l-1.12,1.63c-.39.6-.8,1.18-1.23,1.75a40.21,40.21,0,0,1-2.72,3.22c-1.9,2-3.86,3.88-5.61,5.87a14.9,14.9,0,0,0-2.21,3,12,12,0,0,0-1.15,3.47c-.47,2.48-.54,5.37-1.4,8.15a39.74,39.74,0,0,1-3.34,7.74c-1.29,2.43-2.64,4.75-3.65,7.16a20.27,20.27,0,0,0-1.78,7.42c0,1.21,0,2.67,0,4s0,2.76-.08,4.13c-.1,2.75-.27,5.47-.41,8.18-.07,1.36-.13,2.71-.17,4.06l-.05,2,.07,2c0,.66,0,1.33.1,2l.24,2a37.39,37.39,0,0,0,.69,3.92,65.73,65.73,0,0,0,5.49,15.1,108.23,108.23,0,0,0,8.37,13.91,142.38,142.38,0,0,0,12.44,15.25,120.93,120.93,0,0,0,14.57,13.59,75.49,75.49,0,0,0,8.26,5.56,61.82,61.82,0,0,0,9,4.16c.78.27,1.57.5,2.36.75l1.19.37,1.2.28c.81.18,1.61.39,2.42.55l2.44.38a20.33,20.33,0,0,0,2.46.27c.82.06,1.65.16,2.46.18a24.63,24.63,0,0,0,4.83-.37,99.39,99.39,0,0,0,10.62-2.67c1.79-.49,3.6-1,5.45-1.3a32.59,32.59,0,0,1,5.64-.57c3.76-.1,7.47.28,11.12.53a41.54,41.54,0,0,0,10.81-.42c1.8-.32,3.6-.66,5.34-1.12A17.75,17.75,0,0,0,382,212.9a13.91,13.91,0,0,0,3.74-3.61l3.34-4.41a83.77,83.77,0,0,1,7.39-8.37c2.68-2.59,5.53-5,8.31-7.36a69.58,69.58,0,0,0,9.54-9.49c2.85-3.43,4.51-7.6,6-11.87s2.59-8.66,4-13c.37-1.08.75-2.16,1.18-3.23a29.15,29.15,0,0,0,1.08-3.14,43.93,43.93,0,0,0,1.19-6.59c.47-13.54,3.69-27.7-1.16-40.63a62.34,62.34,0,0,0-10-17.66,182.83,182.83,0,0,0-13.37-15.45A92.47,92.47,0,0,0,391.3,57.8a55.72,55.72,0,0,0-13.66-7.31c-4.85-1.69-10.07-1.91-15.29-2.42a50.71,50.71,0,0,1-7.86-1.29,38.79,38.79,0,0,1-3.82-1.26L347,44.06c-4.27-1.69-8.47-3.25-13-3.72a30.08,30.08,0,0,0-10.48.76,40.84,40.84,0,0,0-6.83,2.37,74.47,74.47,0,0,0-7.1,3.75c-.73.42-1.65,1.05-2.1,1.3s-.35,0,.06-.45a17.62,17.62,0,0,1,2.45-2.31,35.2,35.2,0,0,1,13.07-6.49,33.11,33.11,0,0,1,7.18-1.06,30.41,30.41,0,0,1,7.3.67c4.81,1,9.26,3,13.69,4.7s9,2.3,13.8,2.7,9.88.89,14.62,2.83a60.41,60.41,0,0,1,13.09,7.31,95.16,95.16,0,0,1,11.31,9.81c3.52,3.54,6.83,7.28,10,11.12a106.78,106.78,0,0,1,9,12.08,52.41,52.41,0,0,1,7.74,21.17,57.91,57.91,0,0,1,.28,11.32l-.23,2.8c-.09.89-.15,1.8-.21,2.71l-.28,5.52c-.18,3.69-.37,7.42-.92,11.17a37.19,37.19,0,0,1-1.2,5.61c-.13.47-.31.93-.48,1.39s-.34.91-.5,1.32c-.34.83-.63,1.69-.93,2.54-1.17,3.45-2.16,7-3.26,10.56a66.53,66.53,0,0,1-4,10.55Z"/><path class="cls-1" d="M356.7,105.54A28.37,28.37,0,0,1,360,106.8a10.88,10.88,0,0,1,1.23.79,4.35,4.35,0,0,1,.75.79,3.32,3.32,0,0,1,.43.81,3.94,3.94,0,0,1,.15.61,2,2,0,0,1,0,.32c0,.17,0,.4-.08.67a5.58,5.58,0,0,1-.27.78c-.12.26-.28.5-.42.75-.63.92-1.36,1.69-1.48,1.89a22.66,22.66,0,0,1-1.71,1.68c-.08.09-.81-.59-.76-.67a6.66,6.66,0,0,1,.73-1,14,14,0,0,0,1.63-2.16,7.33,7.33,0,0,0,.4-1.06c0-.15,0-.29.07-.44a1,1,0,0,0-.28-.8,4.38,4.38,0,0,0-1-.56,17.42,17.42,0,0,0-1.88-.8c-.39-.14-.8-.23-1.18-.38s-.44-.26-.66-.37-.13-.52,0-1A1.74,1.74,0,0,1,356.7,105.54Z"/><path class="cls-1" d="M271,110.93c.38-.78.77-1.57,1.21-2.36.16-.28.27-.6.46-.87a11.54,11.54,0,0,1,2.39-2.64c.41-.32.81-.67,1.22-1s.53-.43.82-.6a2.57,2.57,0,0,1,.94-.33c.41-.05.71,2,.2,2.24a25.12,25.12,0,0,0-2.74,1.83,5.6,5.6,0,0,0-1.25,1.72c-.4.7-.8,1.43-1.15,2.2-.23.47-.44,1-.65,1.44-.31.73-.66,1.47-.94,2.22-.22.59-.36,1.21-.55,1.81a2.34,2.34,0,0,1-.13.4c-.21.48-.41.57-.93.4-.12,0-.24-.07-.36-.12a.82.82,0,0,1-.53-.88,15.13,15.13,0,0,1,1-3.14c.33-.78.66-1.57,1-2.36Z"/><path class="cls-1" d="M279.41,84.13c0-.13.06-.35.1-.63s.18-.64.34-1a6.92,6.92,0,0,1,1.57-2.24,13.28,13.28,0,0,1,3.14-2.13c.41-.23,2.2-1,2.37-1.07,0,0,.74-.29,1.44-.63a11.35,11.35,0,0,0,1.62-.94A23.71,23.71,0,0,0,293.12,73c1.48-1.4,3.1-2.88,3.44-3.2a12.36,12.36,0,0,1,2-1.46,19.63,19.63,0,0,1,2.24-1.17c.22-.11.63.82.47.92-.68.42-1.34.85-2,1.3a17.82,17.82,0,0,0-2.46,2c-.89.87-1.65,1.69-1.72,1.76-.55.66-1.13,1.32-1.72,2-.29.3-.58.6-.88.88a17.47,17.47,0,0,1-2.78,2.18,29.94,29.94,0,0,1-2.83,1.57,15.48,15.48,0,0,0-3.62,2.19,4.61,4.61,0,0,0-1.15,1.66c0,.18-.14.35-.2.54s-.1.38-.13.58-.44.49-1,.7a.91.91,0,0,1-1-.36A1.32,1.32,0,0,1,279.41,84.13Z"/><path class="cls-1" d="M301.8,148.72a3.63,3.63,0,0,0-.56.61,3,3,0,0,0-.37.61c-.05.07-.24.36-.22.4s-.24.47-.2.57a1.87,1.87,0,0,0,.07.78,2.21,2.21,0,0,0,.56.93c.11.09.69.82.86.92a2.38,2.38,0,0,1-.48.81,2.07,2.07,0,0,1-.66-.34c-.14-.13-.48-.38-.77-.65a7.69,7.69,0,0,1-.54-.57,3.37,3.37,0,0,1-.56-.67,1.72,1.72,0,0,1-.2-.38,3.63,3.63,0,0,1-.29-1.23,3.59,3.59,0,0,1,.1-1.18,5.05,5.05,0,0,1,.72-1.43,4.94,4.94,0,0,1,.5-.7,2.92,2.92,0,0,1,.4-.29c.09-.08.44.19.85.56A3.08,3.08,0,0,1,301.8,148.72Z"/><path class="cls-1" d="M299.37,188.79a2.78,2.78,0,0,0,.52.63,5.25,5.25,0,0,0,.61.48c.08,0,.43.34.48.35a6.06,6.06,0,0,0,.75.53,10.4,10.4,0,0,0,1,.53,5.42,5.42,0,0,0,1.21.44c.18,0,1.11.39,1.32.42a1.64,1.64,0,0,1-.09.79,2.55,2.55,0,0,1-.73,0c-.37,0-1.63-.25-1.69-.27l-.79-.06-.36-.07a10.56,10.56,0,0,1-1-.28,5.18,5.18,0,0,1-1-.36,5.46,5.46,0,0,1-1.22-1,4.24,4.24,0,0,1-.58-.69,2.33,2.33,0,0,1-.21-.49c-.05-.12.22-.37.6-.62A2.39,2.39,0,0,1,299.37,188.79Z"/><path class="cls-1" d="M405.3,93.77A3.26,3.26,0,0,0,405,93a3.69,3.69,0,0,0-.45-.64,5,5,0,0,0-.35-.48,5.76,5.76,0,0,0-.56-.73,10,10,0,0,0-.77-.79,6.55,6.55,0,0,0-1-.79c-.17-.06-.95-.7-1.14-.79a1.72,1.72,0,0,1,.33-.73,2.34,2.34,0,0,1,.69.23c.33.15,1.48.72,1.53.76.24.09.49.19.73.3l.33.17a9.67,9.67,0,0,1,.9.57,6.06,6.06,0,0,1,.82.64,5.75,5.75,0,0,1,.86,1.3,4.43,4.43,0,0,1,.36.84,4.75,4.75,0,0,1,.05.53c0,.13-.33.28-.76.41A2.44,2.44,0,0,1,405.3,93.77Z"/><path class="cls-1" d="M340.46,181.31a4.59,4.59,0,0,0,1.13,1.37c.15.11.29.23.42.34l.43.2a1.54,1.54,0,0,0,.51.19,5,5,0,0,0,1.17.25l.84.06a7.49,7.49,0,0,0,1.09-.08,22.42,22.42,0,0,0,2.36-.41c1.18-.26,2.43-.61,2.68-.71A19.47,19.47,0,0,1,354,182c.14,0,.29.82.18.86a13.67,13.67,0,0,1-1.36.47c-.71.19-3.14,1.09-3.26,1.13-.47.22-1,.43-1.45.63l-.71.25a15.2,15.2,0,0,1-2.09.52,7.3,7.3,0,0,1-2.15.1,6.11,6.11,0,0,1-3.05-1.32,7.51,7.51,0,0,1-1.34-1.3c-.21-.29-.32-.63-.5-.93s.17-.57.59-.91A1.91,1.91,0,0,1,340.46,181.31Z"/><path class="cls-1" d="M392.35,151.49a9.57,9.57,0,0,0,2.57-1.64,1.64,1.64,0,0,0,.36-.69,2.41,2.41,0,0,0-.21-1.6,7,7,0,0,1-.34-1.23,2.92,2.92,0,0,1,.14-1.49,2.39,2.39,0,0,1,.27-.58,2.14,2.14,0,0,1,.4-.56,4.81,4.81,0,0,1,.95-.74,6.32,6.32,0,0,1,2.41-1c.24,0,.45.45.43,1a1.49,1.49,0,0,1-.67,1.35,7.69,7.69,0,0,0-1.68.86,1.19,1.19,0,0,0-.28,1.25c.07.45.32,1,.49,1.62a3.26,3.26,0,0,1-.17,2.17,4.61,4.61,0,0,1-1.39,1.63,11.1,11.1,0,0,1-1.59,1c-.65.36-1.3.67-1.9,1a8,8,0,0,0-2.29,2,11.16,11.16,0,0,0-1.23,2.08c-.08.16-.13.33-.22.48-.31.58-.52.69-1.06.56a3.35,3.35,0,0,1-.37-.09.79.79,0,0,1-.42-1.07,10.73,10.73,0,0,1,2.61-4.18c.23-.23.46-.45.71-.67a7.47,7.47,0,0,1,.85-.63c.57-.36,1.1-.64,1.61-.92Z"/><path class="cls-1" d="M360.35,60.54A16.9,16.9,0,0,1,355.59,58c-.5-.33-1-.61-1.51-.89a8.1,8.1,0,0,0-2.67-1.09,9.09,9.09,0,0,0-3-.09,9.44,9.44,0,0,0-2.59.78c-1.05.48-2,1.15-3,1.66-.33.15-.62-.28-.66-.88a2,2,0,0,1,.88-1.78A11.85,11.85,0,0,1,351,54.05a12.48,12.48,0,0,1,4.7,1.69,31.8,31.8,0,0,0,4.22,2.53,19.67,19.67,0,0,0,2.88.8,31.58,31.58,0,0,1,4.64,1.29,13.33,13.33,0,0,1,3.35,1.84,6.73,6.73,0,0,1,.65.52c.77.71.85,1.07.6,1.58a1.86,1.86,0,0,1-.19.34c-.25.34-.78.27-1.32-.15a23.64,23.64,0,0,0-2.5-1.67,12,12,0,0,0-2.76-1.09c-1.5-.41-3.18-.72-4.87-1.14Z"/><path class="cls-1" d="M314.4,223.3a81.72,81.72,0,0,1-24.48-11.78,96.5,96.5,0,0,1-7.87-6,113.74,113.74,0,0,1-22.22-26.69,121,121,0,0,1-7.15-13.68,81,81,0,0,1-3.46-9.26,37.8,37.8,0,0,1-1.71-9.81c0-2.1.53-1.76,1.09-.09s1.46,4.62,2.45,8.16a91.29,91.29,0,0,0,7.42,18.17c1.54,2.92,3.23,5.75,5,8.56s3.66,5.52,5.7,8.16a98.74,98.74,0,0,0,17,17.33,83.41,83.41,0,0,0,23.2,13.24l1.94.71,2,.61,2,.6,2,.5,2,.48a19.37,19.37,0,0,0,2,.31,23.74,23.74,0,0,0,4-.05,85.29,85.29,0,0,0,12.31-2.35c2.05-.49,4.1-1,6.17-1.42a37.43,37.43,0,0,1,6.32-.81c6.56-.17,12.92.26,19.2-.58.68-.11,1.37-.2,2-.32l2-.42c1.24-.33,2.28-.57,3.11-.88l1.15-.37.92-.35a10.73,10.73,0,0,1,2.41-.64,4.35,4.35,0,0,1,.84-.06c.33,0,.08.41-.7,1a8.56,8.56,0,0,1-1.59,1.05,15.39,15.39,0,0,1-2.42,1.11c-5.6,2.11-11.75,2.4-17.74,2.4-3,0-6-.1-9,0-.74,0-1.45.09-2.18.13s-1.43.16-2.15.3c-1.45.23-2.91.57-4.38.9-4.35,1-8.75,2.23-13.34,2.95a32.42,32.42,0,0,1-7.07.4,16.68,16.68,0,0,1-1.83-.24c-.61-.1-1.14-.26-1.71-.38-1.11-.29-2.24-.51-3.35-.84Z"/><path class="cls-1" d="M305.88,228.49a1.21,1.21,0,0,1-2.42,0A1.21,1.21,0,0,1,305.88,228.49Z"/><path class="cls-1" d="M246.26,229c.13.84-.23,1.64-1.52,1.1a1.25,1.25,0,0,1-.56-1.72C245.11,226.83,246.09,227.94,246.26,229Z"/><path class="cls-1" d="M288.59,230.87a.71.71,0,0,1-.71.71.72.72,0,1,1,.71-.71Z"/><path class="cls-1" d="M262.28,258c.06.75-1.46,1.07-1.46,0a.73.73,0,0,1,1.31-.39A.87.87,0,0,1,262.28,258Z"/><path class="cls-1" d="M253,295c.05.76-1.47,1.07-1.47,0a.74.74,0,0,1,1.47,0Z"/><path class="cls-1" d="M244.61,288.18c0,.6-1.16.85-1.16,0a.57.57,0,0,1,1-.31A.64.64,0,0,1,244.61,288.18Z"/><path class="cls-1" d="M302.49,236.32a.71.71,0,0,1-1.32.35C300.47,235.74,302.49,235.12,302.49,236.32Z"/><path class="cls-1" d="M247.13,224.63a.71.71,0,1,1-1.42,0A.71.71,0,0,1,247.13,224.63Z"/><path class="cls-1" d="M445.46,141.79c-.33.77-1.06,1.26-1.87.13a1.25,1.25,0,0,1,.43-1.76C445.62,139.34,445.87,140.8,445.46,141.79Z"/><path class="cls-1" d="M433.72,165c-.35.68-1.8.14-1.25-.77a.73.73,0,0,1,1.32.36A.65.65,0,0,1,433.72,165Z"/><path class="cls-1" d="M453.66,137.2a.71.71,0,0,1-1,.23.71.71,0,1,1,1-.23Z"/><path class="cls-1" d="M269.69,57.19c.84-.07,1.61.36,1,1.6a1.25,1.25,0,0,1-1.76.42C267.44,58.16,268.62,57.27,269.69,57.19Z"/><path class="cls-1" d="M217,173.16a11.26,11.26,0,0,1-2.18-.12,6.41,6.41,0,0,1-.78-.09,10.71,10.71,0,0,1-2.55-1q-.53-.27-1.08-.51c-.22-.11-.47-.21-.69-.33a1.64,1.64,0,0,1-.56-.55c-.16-.28,1.39-1.57,1.74-1.33.69.43,1.38.85,2.12,1.37a3.81,3.81,0,0,0,1.53.44,9.59,9.59,0,0,0,1.78.18,5.94,5.94,0,0,0,1.11-.09,5.34,5.34,0,0,0,1.61-.48,4,4,0,0,0,1-.85,1.81,1.81,0,0,0,.18-.21c.25-.24.41-.19.83.17l.28.24a.76.76,0,0,1,.23,1,4.39,4.39,0,0,1-2.35,1.8,8.67,8.67,0,0,1-2.19.48Z"/><path class="cls-1" d="M155.88,148.53a3.08,3.08,0,0,1-1.15,1.69,3,3,0,0,1-2,.46,3.37,3.37,0,0,1-1.29-.41,7.19,7.19,0,0,1-2.34-3l-.69-1.42a3.88,3.88,0,0,1-.6-1.94c0-.23.49-.28,1-.22s1,.2,1.11.5c.39,1.1.82,2.22,1.3,3.29a2.84,2.84,0,0,0,1.34,1.32,1.07,1.07,0,0,0,1.36-.3,2.57,2.57,0,0,0,.29-1.25,7.72,7.72,0,0,0-.3-2.31,9.88,9.88,0,0,0-.73-1.71c-.06-.13-.13-.24-.18-.37-.19-.48-.12-.68.32-.94a2.91,2.91,0,0,1,.3-.17.71.71,0,0,1,.94.26,9.16,9.16,0,0,1,1.35,3.4,7.44,7.44,0,0,1,0,3.16Z"/><path class="cls-1" d="M160.5,162.86c.7.86.69,1.19.56,1.35a4.47,4.47,0,0,1-1.8,1.32,4.28,4.28,0,0,1-2,.15,5.07,5.07,0,0,1-3-1.45,7.37,7.37,0,0,1-.64-.74,5.75,5.75,0,0,1-.5-.78s-.08-.08-.06-.14.5-.41.87-.5a1.39,1.39,0,0,1,.23,0c.12.17.77,0,.87.1a2,2,0,0,0,.78.56,1.2,1.2,0,0,1,.26.24c.1.11.16.29.28.39a2.77,2.77,0,0,0,2,.46,3.25,3.25,0,0,0,1.21-.5,6.17,6.17,0,0,0,.51-.41A1.48,1.48,0,0,1,160.5,162.86Z"/><path class="cls-1" d="M152.3,136.82c-1,.66-1.17.75-1.42.74a6.64,6.64,0,0,0-2.14,0,8.46,8.46,0,0,0-2,.33,8.86,8.86,0,0,0-1.61.71,9.58,9.58,0,0,0-1.42,1,5.67,5.67,0,0,0-.74.73,9,9,0,0,0-.55.82s0,.11-.11.12a1.57,1.57,0,0,1-1-.55c-.06-.08-.18-.19-.16-.21.15-.25-.33-.91-.1-1.17a3.93,3.93,0,0,0,.56-.76c.18-.26.36-.52.57-.77a2.26,2.26,0,0,1,.59-.48,8.82,8.82,0,0,1,.89-.41,16.29,16.29,0,0,1,1.48-.75,9.39,9.39,0,0,1,2.71-.76,6.65,6.65,0,0,1,2.78.15,3.7,3.7,0,0,1,1.29.63A3,3,0,0,1,152.3,136.82Z"/><path class="cls-1" d="M160.77,435a6.81,6.81,0,0,0,1.11-1.52,4.88,4.88,0,0,0,.23-.64,5,5,0,0,0,.46-2.37c0-.15,0-.3,0-.45l.39.5a.71.71,0,0,0-.41-.09c-.1,0-.11.08-.16.14a1.85,1.85,0,0,1-.37.28c-.11.07-.62-.16-1-.55a1,1,0,0,1-.2-1.47,2.53,2.53,0,0,1,1.7-.66,2.88,2.88,0,0,1,1.43.42l.69.4,0,.53a5.38,5.38,0,0,1-.09,2,15.43,15.43,0,0,1-.51,2.26,8.89,8.89,0,0,1-.54,1.12,11.9,11.9,0,0,1-.7,1,12.82,12.82,0,0,1-1,1.1c-.51.52-1.09,1-1.64,1.43s-.8.79-1.27,1.16a3,3,0,0,1-.34.25.76.76,0,0,1-.6.11.84.84,0,0,1-.27-.17.68.68,0,0,1-.17-.34,1.2,1.2,0,0,1,0-.38.7.7,0,0,1,0-.2,1.07,1.07,0,0,0,0-.39c0-.09-.08-.14-.06-.21a.54.54,0,0,1,.07-.17,14.32,14.32,0,0,1,1.81-1.73,11.56,11.56,0,0,0,1.36-1.35Z"/><path class="cls-1" d="M243.48,122.14c.15.33.31.66.46,1,.06.12.15.21.21.33.17.42.31.86.49,1.27a1.77,1.77,0,0,0,.34.47c.17.18.42.3.4.61s-1.56,1.12-1.77.87a2.92,2.92,0,0,1-.64-1.48,2.55,2.55,0,0,0-.42-.84l-.46-.93c-.09-.18-.19-.37-.3-.55a3.74,3.74,0,0,0-.54-.76,2,2,0,0,0-.64-.32.67.67,0,0,1-.15-.06c-.15-.09-.11-.22.17-.63l.2-.29c.22-.31.49-.5.69-.47a2.15,2.15,0,0,1,1.36.84,8,8,0,0,1,.63.93Z"/><path class="cls-1" d="M235.78,125.6q.48.3,1,.57c.13.07.27.08.4.14.44.25.89.51,1.35.72a2.48,2.48,0,0,0,.66.18c.29,0,.61,0,.83.27s-.61,1.83-.92,1.76a3.82,3.82,0,0,1-1.63-.8,3.77,3.77,0,0,0-1-.44c-.37-.17-.74-.37-1.11-.57l-.68-.38c-.35-.19-.67-.42-1-.61a9.59,9.59,0,0,1-.94-.44c-.07,0-.16-.09-.22-.14-.24-.25-.2-.46.22-.73A2.68,2.68,0,0,1,233,125a2.88,2.88,0,0,1,.79-.28,2.07,2.07,0,0,1,1.12.37c.29.16.61.35.94.51Z"/><path class="cls-1" d="M241.43,148.27c.21-.3.43-.61.63-.92.08-.11.1-.25.18-.36.27-.4.58-.79.84-1.2a2.13,2.13,0,0,0,.23-.59c.08-.27.06-.57.35-.75s1.75.81,1.65,1.1a3.36,3.36,0,0,1-.95,1.42,3.41,3.41,0,0,0-.52.91c-.19.33-.4.65-.61,1l-.39.6a8.65,8.65,0,0,0-.54.93,4.37,4.37,0,0,0-.19.83c0,.07,0,.14,0,.19-.09.22-.23.22-.69,0l-.3-.15c-.34-.18-.57-.42-.59-.61a2.45,2.45,0,0,1,.35-1.44c.16-.32.37-.63.55-.95Z"/></g></svg>