<svg id="Layer_1" data-name="Layer 1" xmlns="http://www.w3.org/2000/svg" width="520" height="520" viewBox="0 0 520 520"><defs><style>.cls-1{fill:none;stroke:#221f1f;stroke-miterlimit:10;stroke-width:2.5px;}.cls-2{fill:#232020;}.cls-3{fill:#221f1f;}</style></defs><title>Notioly v2</title><g id="_89.People_finder" data-name="89.People finder"><path class="cls-1" d="M131.1,405.2s13.75.21,23.9-4.35"/><path class="cls-2" d="M259,87.25a18.27,18.27,0,0,0-4-2.2,10.65,10.65,0,0,0-4.75-.74A9.78,9.78,0,0,0,245.67,86a19.09,19.09,0,0,0-3.38,3c-.15.14,2,2,2.08,1.88a16.71,16.71,0,0,1,2.85-2.59,7.08,7.08,0,0,1,3.26-1.2,8.12,8.12,0,0,1,3.5.56,16.69,16.69,0,0,1,3.36,1.87A8.62,8.62,0,0,0,259,87.25Z"/><path class="cls-3" d="M184,142.34l6.27-3c2.09-1,4.17-2,6.22-3s4-2.3,6.1-3.11a40.26,40.26,0,0,1,6.67-2.09l.15.26A20.4,20.4,0,0,1,204,136a33.82,33.82,0,0,1-6.49,2.63q-3.28,1.18-6.62,2.17c-2.23.64-4.45,1.29-6.7,1.85Z"/><path class="cls-3" d="M313.65,45.6c-.26.12-5.75-2.71-9.61-1.86-6.33,1.39-9.7,5.8-12.13,11-2.11,4.46-4.09,9-6.33,13.39-1.61,3.19-3.21,8.6-2,12.46,1.35,4.34,5.29,4.4,8.88,4.79,8.82,1,17.36,5.31,26.92,2.47,2.32-.69,17.47-1.91,17.69-5C338.11,67.73,332.4,36.78,313.65,45.6ZM320,72.32c-.55.46-.88,1.87-1.19,2.53-3.13,9.22-12.47,12.87-18.38,4.71-3.91-5.4-4-11.62-4-18,0,0,9.85.63,15.33-6.41,0,0,4.53,9.78,8.76,8.64A4.12,4.12,0,0,1,325.59,68C325.58,71.7,322,70.65,320,72.32Z"/><path class="cls-3" d="M319.55,71.78a1.89,1.89,0,0,0-.14,1c0,.28,0,.53.06.78a6.06,6.06,0,0,1,0,1.53,9,9,0,0,1-.3,1.46,7.92,7.92,0,0,1-.6,1.45,13.16,13.16,0,0,1-7.87,7,9.19,9.19,0,0,1-5.61-.16,11.87,11.87,0,0,1-4.56-3.12,19,19,0,0,1-4.21-8,38,38,0,0,1-1-8.76l0-1.68V60.33c.7,0,1.41.07,2.09.07l.67,0,.51,0c.68-.05,1.35-.14,2-.25A20.83,20.83,0,0,0,304.48,59,15.68,15.68,0,0,0,308,57.13l.8-.6.72-.67.19-.17.05,0a1.33,1.33,0,0,0,.12-.12l.17-.19.68-.77L312.07,53l.93,2c.3.6.73,1.38.83,1.56.36.62.73,1.23,1.12,1.82a16.72,16.72,0,0,0,2.61,3.17,5.54,5.54,0,0,0,1.47,1,2.34,2.34,0,0,0,.68.17,1.71,1.71,0,0,0,.32,0l.47-.09a5.67,5.67,0,0,1,2.72.22,5.07,5.07,0,0,1,2.31,1.55,5.23,5.23,0,0,1,1.13,2.39,5.85,5.85,0,0,1,0,2.6,3.59,3.59,0,0,1-.66,1.4,4,4,0,0,1-1.17,1,10.92,10.92,0,0,1-2.22.81c-.42.13-.82.3-1.13.39a1.26,1.26,0,0,1-.94,0c-.21-.13-.32-.4-.09-.85.12-.17.24-.46.45-.54a15.93,15.93,0,0,0,2.71-1.32,2.14,2.14,0,0,0,.71-.83,3,3,0,0,0,.21-1,4.07,4.07,0,0,0-.07-1.25A3.21,3.21,0,0,0,324,66a2.9,2.9,0,0,0-1.92-1.14,3.38,3.38,0,0,0-1.15,0l-.13,0-.26.06a3.06,3.06,0,0,1-.54.07,4,4,0,0,1-1.1-.08,7.27,7.27,0,0,1-3.28-1.87,19,19,0,0,1-3.28-4.24l-.44-.78-.21-.39a2.71,2.71,0,0,1-.15-.29.86.86,0,0,0,0-.17s-.06,0-.11,0l0,0-.3.26-.6.53a17.78,17.78,0,0,1-3.83,2.44A21.2,21.2,0,0,1,302.5,62a24.31,24.31,0,0,1-2.77.49c-.5.06-1,.11-1.57.14h-.64a1.62,1.62,0,0,0,0,.23V64c0,.88,0,1.81.09,2.77a30.91,30.91,0,0,0,.86,6.07,18.26,18.26,0,0,0,2.67,5.86,10.29,10.29,0,0,0,4.7,3.88,7.41,7.41,0,0,0,5.36-.23A10.44,10.44,0,0,0,315,79.51l.64-.78.5-.76a9.8,9.8,0,0,0,.75-1.3,10.39,10.39,0,0,0,.62-1.36c.1-.23.2-.45.32-.68s.16-.3.21-.4l.18-.37c.14-.27.28-.56.46-.9A3.73,3.73,0,0,1,319.55,71.78Z"/><path class="cls-3" d="M313.64,45.58a.76.76,0,0,1-.05-.64s.08,0,.11,0h0l-.12,0a2.66,2.66,0,0,1-.3,0c-.2,0-.41,0-.63,0-.42,0-.84,0-1.27-.08l-2.53-.24a13.47,13.47,0,0,0-4.84.1A14,14,0,0,0,297,49a25.63,25.63,0,0,0-4.44,7.27l-3.77,8.11-1.89,4.05a24.54,24.54,0,0,0-1.56,3.93,16,16,0,0,0-.71,7,5.46,5.46,0,0,0,1.25,2.81,5.27,5.27,0,0,0,2.7,1.45,25.76,25.76,0,0,0,3.62.54c1.3.15,2.61.36,3.89.6,2.56.5,5,1.14,7.52,1.69A43.47,43.47,0,0,0,312,87.6c.7,0,1.4,0,2.1,0s1.39-.09,2.07-.23a17.15,17.15,0,0,0,2-.42,21.85,21.85,0,0,1,2.24-.5c2.94-.48,5.81-.85,8.64-1.41a38.5,38.5,0,0,0,4.14-1,11.39,11.39,0,0,0,1.84-.74,3.17,3.17,0,0,0,.65-.43c.16-.16.14-.14.15-.2a60.48,60.48,0,0,0-.1-8.61,68.94,68.94,0,0,0-1.19-8.6c-1-5-2.53-10-5.23-14.12a14.62,14.62,0,0,0-4.86-4.79,9.93,9.93,0,0,0-3.1-1.07,10.47,10.47,0,0,0-3.3.08c-.75.1-1.5.42-2.21.56-1.87.59-2.64.25-1.38-.78a3.45,3.45,0,0,1,1-.69A17.6,17.6,0,0,1,321,43.46a9.49,9.49,0,0,1,5.71,1.73,18.05,18.05,0,0,1,4.17,4.29,30.5,30.5,0,0,1,2.88,5.09,52.18,52.18,0,0,1,3.46,11,66.83,66.83,0,0,1,1.16,9.13,61.57,61.57,0,0,1-.11,8.14,2.62,2.62,0,0,1-.68,1.45,4.26,4.26,0,0,1-1,.76,11.88,11.88,0,0,1-1.84.84,44.62,44.62,0,0,1-7.29,1.69c-1.7.3-3.64.57-5.73.89-.52.08-1.05.16-1.56.26-.28,0-.41.09-.73.17l-.87.22a14.7,14.7,0,0,1-1.8.37,16.36,16.36,0,0,1-1.88.23,31.94,31.94,0,0,1-8-.41c-2.72-.45-5.47-1.14-8.26-1.77-1.39-.31-2.79-.62-4.2-.84s-2.81-.37-4.34-.54a11.56,11.56,0,0,1-4.67-1.41,6.92,6.92,0,0,1-2.95-4.19,13.08,13.08,0,0,1-.29-4.8,23.13,23.13,0,0,1,1-4.49,29.08,29.08,0,0,1,1.7-4.13c.6-1.27,1.2-2.53,1.78-3.77,1.17-2.48,2.29-4.87,3.36-7.13a40.79,40.79,0,0,1,3.43-6.39,18,18,0,0,1,4.43-4.58,15.5,15.5,0,0,1,4.53-2.23c.34-.12.67-.18,1-.26a7.47,7.47,0,0,1,1.77-.28,6.09,6.09,0,0,1,.72,0,10.73,10.73,0,0,1,1.53.14,15.29,15.29,0,0,1,3,.82c.52.2,1.06.42,1.65.68l.9.41.46.21.22.09.1,0s0,0,0,0h-.08l0,.07A.75.75,0,0,0,313.64,45.58Z"/><path class="cls-3" d="M335,95.94c-2.42,4.18-7.28,7.45-12.53,9.12a40.78,40.78,0,0,1-47.95-18.49,40.67,40.67,0,0,1-2.71-5.35c-.38-.93-.66-1.9-1-2.85-.15-.47-.32-1-.46-1.43L270,75.47,269.68,74a9.32,9.32,0,0,1-.24-1.48l-.3-3c-.06-1,0-2,0-3a21.53,21.53,0,0,1,.23-3,40.55,40.55,0,0,1,1.13-5.89l.93-2.85c.3-1,.77-1.84,1.14-2.77a43.69,43.69,0,0,1,6.28-10.1c.51-.69,1.11-1.3,1.68-1.93s1.14-1.28,1.77-1.86a49.25,49.25,0,0,1,3.85-3.36,46.36,46.36,0,0,1,8.67-5.43,42.58,42.58,0,0,1,4.76-1.91,22.49,22.49,0,0,1,2.45-.77l2.5-.6a37.17,37.17,0,0,1,10.26-.67,35.88,35.88,0,0,1,19.06,7.22l1,.75c.34.26.65.56,1,.84l1.92,1.7a19.3,19.3,0,0,1,1.79,1.83l1.73,1.88c.59.62,1.06,1.35,1.59,2s1.06,1.35,1.51,2.08l1.33,2.21c.21.37.45.72.65,1.11l.55,1.16a38.76,38.76,0,0,1,3.66,11.54c.12,1,.35,2,.38,3l.16,3a43.86,43.86,0,0,1-.41,6.06,46.36,46.36,0,0,1-1.14,5.7c-.28.93-.61,1.84-.91,2.77-.17.45-.29.93-.49,1.37l-.6,1.33L347,84.3a9.91,9.91,0,0,1-.66,1.3l-1.44,2.54c-.5.84-1.11,1.6-1.66,2.4l-.85,1.19c-.3.38-.63.74-.95,1.11a20.87,20.87,0,0,1-2.68,2.85c-2.58,2.14-3.57,2-2.2,0a8,8,0,0,1,1-1.41c.26-.24.53-.48.77-.74l.67-.81,1.25-1.59a12.17,12.17,0,0,0,1.09-1.66l1-1.68a16,16,0,0,0,.89-1.75l.87-1.8c.57-1.23,1-2.55,1.67-3.89a37.19,37.19,0,0,0,2.52-16.13,38.52,38.52,0,0,0-4.44-15.64,45.72,45.72,0,0,0-7.91-10.39,35.42,35.42,0,0,0-14.06-8.74,24.8,24.8,0,0,0-4-1,18.56,18.56,0,0,0-2.92-.4A27.56,27.56,0,0,0,311.5,28a37.85,37.85,0,0,0-17.62,4.86A44.33,44.33,0,0,0,277.11,49a37.32,37.32,0,0,0-4.54,11.86,34,34,0,0,0-.07,12.84l.34,1.58a9.32,9.32,0,0,0,.41,1.55c.34,1,.68,2,1,3l1.35,2.9.33.72.41.68.82,1.36.81,1.36c.28.45.63.85.93,1.27l1.88,2.5L282.87,93l.52.56c.18.18.38.34.56.51l1.13,1a36.22,36.22,0,0,0,9.66,6.15l1.24.56,1.27.44c.85.27,1.66.6,2.49.83a41.49,41.49,0,0,0,4.88,1,37.68,37.68,0,0,0,15.52-.9c.46-.12.92-.21,1.33-.35l1.17-.42,1.9-.68c1-.43,1.67-.77,1.87-.84l1.9-.84,2-1.06A44.4,44.4,0,0,0,335,95.94Z"/><path class="cls-3" d="M217.33,218.42c1-.78,2-1.51,2.9-2.34l1.4-1.22,1.33-1.28c.92-.84,1.69-1.79,2.53-2.69.39-.47.76-.95,1.14-1.43l.57-.72.5-.76c.32-.51.69-1,1-1.53l.85-1.59c.28-.53.46-1.1.7-1.65a6.94,6.94,0,0,0,.32-.82l.22-.79a34.83,34.83,0,0,0,.4-7.29c-.11-3.65-.51-7.32-.91-11-1.44-12.93-3.68-25.81-6-38.67l-1.59-8.56c-.26-1.44-.53-2.86-.76-4.31l-.16-1.1a7.62,7.62,0,0,1-.09-1.15,18.72,18.72,0,0,1,0-2.25c.23-3.81,1.17-7.43.93-10.92a10.66,10.66,0,0,0-1.38-4.84,7.8,7.8,0,0,0-3.55-3.3c-.92-.38-1.36-.54-1.3-.8s.63-.51,1.72-.44a6.78,6.78,0,0,1,4,2,9.87,9.87,0,0,1,3,5.77c.62,4.23-.43,8.1-.78,11.67a23.94,23.94,0,0,0-.15,2.65c0,.42,0,.87.06,1.25s.11.88.18,1.33c.29,1.82.62,3.69,1,5.54,1.33,7.44,2.65,14.91,3.8,22.45,1.37,9,3,18.37,3.89,27.7.22,2.57.4,5.15.45,7.75a28.28,28.28,0,0,1-.71,7.95,27.73,27.73,0,0,1-3.68,7.06,44.16,44.16,0,0,1-5.21,5.87A78.84,78.84,0,0,1,208.4,227a150,150,0,0,1-26.35,11.41A146.25,146.25,0,0,1,160.77,244l-2.39.38-2.41.3a34.61,34.61,0,0,1-6.47.16,12.4,12.4,0,0,1-1.72-.29,5.35,5.35,0,0,1-1.12-.5,4.85,4.85,0,0,1-.8-.51c-.49-.59,1.91-.56,6.19-.86a110.23,110.23,0,0,0,19.35-3.49,166.22,166.22,0,0,0,19.3-6.36c9.37-3.79,18.56-8.36,26.58-14.42Z"/><path class="cls-3" d="M239.52,90.32l-22.21,15.3c-2.05,1.41,2.85.9,3.8.25l22.21-15.3c2.05-1.42-2.85-.9-3.8-.25Z"/><path class="cls-3" d="M181.14,146l-.95.37-.35.11-.37-.05a4.45,4.45,0,0,1-.73-.12,4.69,4.69,0,0,1-1-.41,8.47,8.47,0,0,1-.84-.5,10.52,10.52,0,0,1-2.55-2.61,7.45,7.45,0,0,1-1.38-3.56,5,5,0,0,1,0-1.09l.12-.56c.07-.21.17-.43.26-.65.08-.49.59-.71.91-.95l.65-.45,3.76-2.66,13.43-9.13c2-1.35,3.93-2.78,5.85-4.19a89.08,89.08,0,0,1,7.5-5.31c1.65-1,1,2.31-1.83,4.38-5.07,3.66-10.21,7.21-15.54,10.6-3.18,2-6.32,4.39-9.49,6.59L176,137.6l-.5.34c-.1,0-.1.16-.15.24a2.6,2.6,0,0,0,0,1.09,7.1,7.1,0,0,0,3.18,4.34,3.52,3.52,0,0,0,.7.35c.2.06.32.12.47.06l1.7-.66,3.65-1.42c3.67-1.45,7.38-2.87,11-4.37,2.82-1.17,5.53-2.45,8.28-3.68.61-.27,1.19-.56,1.81-.82,2.28-1,3.08-1.11,3.81-.72a2.51,2.51,0,0,1,.49.27c.41.37-.38,1.13-2,1.95-4.83,2.42-10.07,4.62-15.36,6.76L181.17,146Z"/><path class="cls-3" d="M241.59,120.24l-4.58,1.9c-.55.24-1.07.54-1.63.76-2,.81-3.95,1.58-5.91,2.4-.87.36-1.71.79-2.54,1.22a14.1,14.1,0,0,1-3.27,1.52c-.74.17-.88-2.33.36-2.94a48.6,48.6,0,0,1,6.82-2.81,42,42,0,0,0,4.15-1.81c1.53-.66,3.06-1.3,4.59-2,.94-.41,1.89-.8,2.82-1.22,1.42-.63,2.86-1.23,4.23-1.92,1.07-.53,2.06-1.19,3.08-1.79.22-.13.43-.28.67-.4.86-.46,1.21-.44,1.67,0,.1.11.22.21.31.33.3.41.11,1-.47,1.39a34,34,0,0,1-5.72,3.27c-1.5.71-3,1.37-4.55,2.05Z"/><path class="cls-3" d="M261.86,109c-2,3.07-5.84,4.32-9.39,4.49l1.32.88a26.66,26.66,0,0,0-5.15-19.93A32.86,32.86,0,0,0,244,89.72c-.73-.63-1-.22-1-.59.07-.9,2.06-2.3,2.64-2.68,4.91-3.13,7.67-1.07,11.26,2.63,5.4,5.57,6.63,12.81,4.86,20.21-.32,1.34,2.63,1,2.93-.25,2.36-9.87-1-19.29-9.56-24.88-4.86-3.17-12.67,0-15.11,5.11a.73.73,0,0,0,.25,1,25.73,25.73,0,0,1,10.58,24.43c-.09.73.78.91,1.32.89,4.83-.23,9.69-2.13,12.43-6.24C265.47,108,262.52,108,261.86,109Z"/><path class="cls-3" d="M211.68,110c-.45.17.36-.09.5-.12a5.82,5.82,0,0,1,1.38-.13,3.85,3.85,0,0,1,3.5,2.58c.28.69,2,.18,1.73-.47-1.34-3.22-4.8-3.83-7.84-2.73-1.13.41-.12,1.18.73.87Z"/><path class="cls-3" d="M210.17,111.34l.15,0c-.26.09.17-.05.25-.07a3.93,3.93,0,0,1,1.05-.12,2.32,2.32,0,0,1,2.15,2.3c.06.47,2,.06,1.88-.51-.42-3.12-3.84-3-6.17-2.11-.22.09-.74.31-.54.62s1,0,1.23-.06Z"/><path class="cls-3" d="M207.54,112.87a1.41,1.41,0,0,1,.72-.29c1.08-.1,1.76,1,2.11,1.8.24.57,2.09,0,1.89-.5a3.19,3.19,0,0,0-3.23-2.22,5.64,5.64,0,0,0-2.62.79c-1.07.67.6.75,1.13.42Z"/><path class="cls-3" d="M180.67,206.76c8.09-6.82,18.27-11.5,28.19-14.88,2.69-.91.23-2.2-1.58-1.58-10.52,3.58-21.28,8.63-29.85,15.85-1.76,1.48,2.26,1.44,3.24.61Z"/><path class="cls-3" d="M205.55,172.54c-.09-2.16-.14-4.31-.17-6.45,0-.79-.08-1.57-.08-2.35,0-2.76.1-5.52.17-8.27,0-1.23,0-2.45,0-3.67a24.4,24.4,0,0,1,.12-4.68c.17-1,2.19.33,2.17,2.1,0,3.16-.11,6.31-.36,9.5-.14,1.91,0,3.89,0,5.84,0,2.14.08,4.28.17,6.43.06,1.31.11,2.63.22,3.95.14,2,.31,4,.63,5.94a38,38,0,0,0,1.06,4.42c.09.32.2.63.28.95.35,1.18.31,1.59-.17,2a2.88,2.88,0,0,1-.33.28c-.39.25-.87-.15-1.24-1a34.26,34.26,0,0,1-2-8.45c-.26-2.16-.43-4.34-.56-6.51Z"/><path class="cls-3" d="M211.18,200c1.26-1,2.51-2.11,2.74-3.12.14-.79.32-1.57.46-2.37l.24-2.5c.22-3.37.24-6.8.12-10.24-.06-2.5-.28-5-.41-7.51-.55-8.85-1.37-17.7-2.37-26.53q-.35-2.94-.71-5.88c-.12-1-.25-2-.37-2.94s-.23-2-.31-3a25.19,25.19,0,0,0-1.65-7,15,15,0,0,0-4.07-5.67c-1.14-.9-.72-1.36.76-1.06a7.89,7.89,0,0,1,1.25.46,8.27,8.27,0,0,1,1.44,1A9.73,9.73,0,0,1,211,127a24.48,24.48,0,0,1,2.07,8c.08.66.12,1.33.16,2s.11,1.18.19,1.83l.43,3.82c.58,5.12,1.11,10.26,1.51,15.44.48,6.19,1.21,12.61,1.55,19,.21,3.49.29,7,.29,10.52l-.09,2.64c0,.88-.06,1.76-.16,2.65s-.12,1.77-.31,2.67l-.26,1.34a5.59,5.59,0,0,1-.39,1.41,8.91,8.91,0,0,1-2.25,2.79,29.33,29.33,0,0,1-2.66,2,62.51,62.51,0,0,1-5.62,3.3c-5.8,3-11.84,5.58-17.83,8-4.66,1.87-9.22,3.74-13.91,5.42-1,.37-2,.75-3.09,1.09-3.9,1.27-5.24,1.43-6.25,1a2.73,2.73,0,0,1-.66-.28c-.5-.39,1-1.16,3.79-2.14,8.28-3,17-6.26,25.54-9.94,3.17-1.37,6.32-2.8,9.4-4.35a58,58,0,0,0,8.73-5.2Z"/><path class="cls-3" d="M105.24,380.1c-1.08,3.53-2.24,7-3.65,10.49a55.26,55.26,0,0,1-2.39,5.13c-.47.84-1,1.67-1.52,2.49l-.2.3-.06.08-.12.15c-.1.12-.11.11-.17.18a.94.94,0,0,0,.3.16c.76.31,1.59.63,2.4.9,1.63.57,3.3,1,5,1.47a68.63,68.63,0,0,0,10.29,1.72,80.52,80.52,0,0,0,20.89-.92c3.86-.61,7.7-1.31,11.51-2.13,1.9-.42,3.79-.85,5.65-1.36s3.68-1.1,5.57-1.68a81.86,81.86,0,0,0,18.65-8.21,49.52,49.52,0,0,0,8-6.11c.58-.6,1.2-1.17,1.76-1.8l.67-.74a.2.2,0,0,0,.08-.19l0-.3-.52-5.15c-1.44-13.74-3.22-27.47-4.83-41.22-1.44-12.19-2.86-24.47-3.9-36.63-.63-7.82-1.24-15.66-1.42-23.53-.07-2-.12-3.93-.1-5.9l0-5.91c.16-3.93.27-7.87.7-11.78.45-4.89,1.09-4.14,1.45,0,.09,1,.16,2.29.21,3.72s.19,3,.25,4.81c.07,3.53.3,7.66.31,12.13.35,15.9,1.72,31.78,3.43,47.67s3.72,31.81,5.45,47.85c.26,2.4.51,4.81.77,7.23q.39,3.9.79,7.82a7.7,7.7,0,0,1-.94,1.15l-.63.71c-.42.48-.89.91-1.33,1.36s-.91.88-1.38,1.31-.93.85-1.43,1.24a52.37,52.37,0,0,1-6.15,4.43,78.5,78.5,0,0,1-13.55,6.59c-2.35.88-4.74,1.69-7.09,2.41a74.06,74.06,0,0,1-7.24,2c-4.69,1.08-9.4,1.94-14.12,2.69a88.84,88.84,0,0,1-14.41,1.3,76,76,0,0,1-14.43-1.29,66,66,0,0,1-7-1.75c-1.16-.36-2.31-.75-3.45-1.18l-.85-.34c-.44-.18-.88-.36-1.29-.55l-1.23-.58-.6-.31c-.18-.1-.46-.2-.49-.31L94,398.62l1-1.13c.15-.18.35-.4.45-.54l.26-.39.52-.78c.64-1.08,1.23-2.21,1.78-3.37a126.4,126.4,0,0,0,6.41-18.76c1.74-6.42,3.26-12.91,4.67-19.41,4.22-19.74,7.6-39.76,10.57-59.58,2.29-15.42,4.19-30.59,6-45.88.39-3.37.78-6.67,1.17-10.07,1.5-12.59,2.11-16.58,3.13-19.21a17.7,17.7,0,0,1,.69-1.73c.68-1.15.57,4-.37,13.3-2.82,27.43-6.62,56.27-11.37,85.1-1.77,10.71-3.69,21.42-5.86,32.09s-4.57,21.33-7.69,31.84Z"/><path class="cls-2" d="M130.21,405.36l.16,22.93c0,.27,2.09.25,2.07,0l-.15-22.94A3.59,3.59,0,0,0,130.21,405.36Z"/><path class="cls-2" d="M146.69,429.1l.66-26.34c0-.31-2.07-.36-2.07-.05l-.66,26.37c0,.09.27.14.63.18l.41-.4a.37.37,0,0,1,.25.21.16.16,0,0,1,0,.18l-.25-.24v.48l-.24-.24a.18.18,0,0,0,0,.19.41.41,0,0,0,.26.21l.41-.39C146.41,429.25,146.69,429.19,146.69,429.1Z"/><path class="cls-3" d="M170,491.71c-.77.43-4.45,2.89-12.48.92a49.3,49.3,0,0,1-20.89-11.05v9.11h-5l-.29-64.09a21.81,21.81,0,0,0,13.72,1.65,58.9,58.9,0,0,0,8.68,2.69L150,481.68c5.39,2.57,11.87,4.76,16.09,6.53C166.09,488.21,171.56,490.86,170,491.71Z"/><path class="cls-3" d="M169.67,491.07a8.62,8.62,0,0,1-5.68,3,18.41,18.41,0,0,1-7-.5,49.27,49.27,0,0,1-11.15-4.23,50.34,50.34,0,0,1-5.14-3.05c-.82-.56-1.63-1.15-2.43-1.76l-.32-.24q0,3.86,0,7.71l-7.56,0-.07-9.74q0-19.8-.07-39.61l-.07-17.89c.84.35,1.7.74,2.55,1.08l.64.25.31.11.16.06c.22.08.44.16.65.22a22.6,22.6,0,0,0,2.66.69,19.26,19.26,0,0,0,5.41.26c.45,0,.89-.11,1.34-.18l.75-.15a2,2,0,0,1,1.29.16c.88.34,1.78.66,2.68,1s1.8.6,2.7.86c.45.14.9.26,1.34.37.13,0,.71.15,1.1.23l1.33.25-2.23,29.93-1.5,20.07-.07.92v.06l.13.06,1.79.78q2.19.93,4.43,1.78l4.5,1.7,2.26.85,1.14.45.57.22.28.12a3.19,3.19,0,0,1,.36.15,18.23,18.23,0,0,1,3,1.72,4.83,4.83,0,0,1,1.42,1.6,1.66,1.66,0,0,1,.08,1.4.93.93,0,0,1-.65.59c-.3,0-.27-.12-.12-.4a.85.85,0,0,0,.08-.7,1.39,1.39,0,0,0-.5-.55c-.4-.27-.91-.42-1.31-.7a14.86,14.86,0,0,0-3.14-1.57c-1.1-.36-2.18-.67-3.28-1a64.11,64.11,0,0,1-6.88-2.23c-1.13-.46-2.26-.93-3.39-1.42L150.2,483a12,12,0,0,1-1.34-.67l.12-1.63.47-7.29.9-14.56c.26-3.87.56-7.76.88-11.63l1.3-14.85c0-.08,0-.18,0-.47l-.32-.08c-.51-.13-1.09-.28-1.73-.48-1.28-.38-2.81-.89-4.63-1.56l-.69-.26-.16-.06s0,0-.07,0l-.68.14c-.28.05-.57.08-.86.12a20.85,20.85,0,0,1-3.76.14,22.63,22.63,0,0,1-4.22-.64c-.73-.18-1.47-.41-2.22-.66l-.5-.18-.21-.09c.08,15.83.22,45.35.29,61.32h2.73c0-6.07,0-8.53,0-10.6.94.89,1.89,1.8,2.76,2.58.44.35.86.71,1.28,1l.72.55c.92.7,1.84,1.33,2.73,1.91a49.21,49.21,0,0,0,5,2.86,50,50,0,0,0,7.67,3,29.92,29.92,0,0,0,6,1.24,22.2,22.2,0,0,0,3.58.07A10.42,10.42,0,0,0,169.67,491.07Z"/><path class="cls-2" d="M154.85,431.8l2.36-31.52c0-.36-2.05-.52-2.07-.16l-2.36,31.53C152.75,431.94,154.83,432.09,154.85,431.8Z"/><path class="cls-3" d="M188.64,209.65c-2.71,9.91-1.28,19.6,1.43,29.38.2.7,2.52.08,2.32-.63-2.68-9.67-4.13-19.26-1.44-29.08.19-.71-2.12-.38-2.31.33Z"/><path class="cls-3" d="M188.76,197.19c-4.45,3.8-4.33,11.63-3.83,16.8.08.8,2.4.29,2.32-.62-.45-4.62-.67-12.29,3.38-15.75,1-.88-1.26-.94-1.87-.43Z"/><path class="cls-3" d="M175.17,162.86c2.2,2.1,5.63,1.7,8.11.4.42-.22.82-.64.29-1s-1.57.07-2,.31a3.28,3.28,0,0,1-3.65-.82c-.64-.62-3.35.46-2.71,1.07Z"/><path class="cls-3" d="M174.83,137.91a38.82,38.82,0,0,0-5.69-7.85c-.62-.69-2.69.16-2,.94a38.82,38.82,0,0,1,5.69,7.85c.42.8,2.5,0,2-.94Z"/><path class="cls-3" d="M169.5,195.22a4.77,4.77,0,0,1-1.36-3.87,25.54,25.54,0,0,1,.93-6.65,7.28,7.28,0,0,1,.82-1.72,5.43,5.43,0,0,1,.62-.81c.21-.21.41-.43.62-.62a25.22,25.22,0,0,1,2.62-2.13,20.82,20.82,0,0,0,4-3.29,9.55,9.55,0,0,0,.7-1l.67-1.14a22.47,22.47,0,0,0,1.12-2.38,24,24,0,0,0,1.76-8.83,28.71,28.71,0,0,0-.31-4.54c-.11-.76-.25-1.51-.41-2.25L181,154.9a6.06,6.06,0,0,1-.18-1.48,5.9,5.9,0,0,1,1-3.33,6.44,6.44,0,0,1,1.15-1.27,1.3,1.3,0,0,0,.39-.6c.07-.41,0-.63-.5-1a4.49,4.49,0,0,0-1.88-.81,4.66,4.66,0,0,1-.68-.09.82.82,0,0,1-.52-.52A.72.72,0,0,1,180,145c.12-.12.27-.29.42-.29.72,0,1.4,0,2.14.06a3.46,3.46,0,0,1,2.19,1,3.28,3.28,0,0,1,.92,2.81,3.53,3.53,0,0,1-.55,1.39,6,6,0,0,1-.82.92,3.58,3.58,0,0,0-.91,2.76,3.78,3.78,0,0,0,.1.57l.19.78c.14.55.23,1.11.32,1.66a34.75,34.75,0,0,1,.33,4.32,30.19,30.19,0,0,1-.66,7.44,26.47,26.47,0,0,1-2,5.72c-.24.48-.47,1-.75,1.45a14.36,14.36,0,0,1-.87,1.46,12.42,12.42,0,0,1-2.4,2.55c-1.76,1.45-3.55,2.5-4.88,3.76a6.8,6.8,0,0,0-.85.9,4.93,4.93,0,0,0-.54,1,11.1,11.1,0,0,0-.61,2.22c-.27,1.48-.37,2.79-.46,3.74s-.14,1.55-.15,1.65A20.7,20.7,0,0,1,169.5,195.22Z"/><path class="cls-3" d="M130.2,252.87c-1.27,4,2.62,8.67,6.78,8.12s6.67-6.14,4.3-9.6-8.54-3.08-10.44.66"/><path class="cls-3" d="M168.5,311.19c-1.17,3.71,2.43,8.05,6.29,7.54s6.2-5.7,4-8.92-7.93-2.85-9.69.62"/><path class="cls-3" d="M175.53,354.51a4.61,4.61,0,0,0,4.74,5.67,4.54,4.54,0,0,0,3-6.71c-1.66-2.41-6-2.15-7.29.47"/><path class="cls-3" d="M118.21,357c-1.15,3.63,2.38,7.87,6.15,7.37s6.06-5.57,3.9-8.71-7.75-2.79-9.47.6"/><path class="cls-3" d="M144,340.36c-1.11,3.52,2.3,7.62,6,7.14s5.86-5.4,3.77-8.44-7.5-2.7-9.16.59"/><path class="cls-3" d="M172.2,391.07c1.08-1.76,1-4.12-1.45-4.54a6.37,6.37,0,0,0-6.05,2.38c-1.26,1.83.05,4,1.94,4.69A5.52,5.52,0,0,0,172.2,391.07Z"/><path class="cls-3" d="M163.12,274.34c-1.14,3.62,2.36,7.84,6.12,7.34s6-5.55,3.89-8.68-7.72-2.78-9.43.61"/><path class="cls-3" d="M162,235.68c-1.15,3.61,2.36,6.79,6.12,6.29s6-4.51,3.89-7.63-7.72-2.78-9.43.6"/><path class="cls-3" d="M125.24,295.8c-1.15,3.61,2.36,7.83,6.12,7.33s6-5.54,3.88-8.67-7.71-2.78-9.43.6"/><path class="cls-3" d="M103.56,394.72c1.08,2,3.73,2.95,5.1,1.12a3.55,3.55,0,0,0-2.12-5.34,2.92,2.92,0,0,0-3.27,3.88"/><path class="cls-3" d="M242.37,118.58l-4.47,1.89c-.54.23-1.05.53-1.6.75-1.91.8-3.85,1.56-5.74,2.38a26.93,26.93,0,0,0-2.45,1.26,14.63,14.63,0,0,1-3.13,1.59c-.72.19-1-2.27.22-2.93a41,41,0,0,1,6.65-2.9c1.39-.45,2.7-1.2,4.05-1.79l4.48-1.94c.91-.4,1.83-.8,2.73-1.22,1.37-.64,2.76-1.26,4.07-2,1-.57,1.94-1.25,2.89-1.91.21-.14.4-.3.61-.44.8-.5,1.14-.51,1.64-.06a2.42,2.42,0,0,1,.33.31c.33.37.2.92-.34,1.39a26.31,26.31,0,0,1-5.47,3.54c-1.46.75-3,1.43-4.44,2.12Z"/><path class="cls-3" d="M152.88,169.72c-3.08,2-14.9.39-14.24-9.16s11.64-3.63,11.64-3.63c7.12-4.05,14.24-10.39,17.12-18.26,4.27-11.63-5.09-24.69-15.91-27.32-46.86-11.4-46.75,45.6-48.05,54.41-1.06,7.17-28.18,27.14-7.18,49.88,8.63,9.35,22.06,15.25,34.45,12.35C182.4,215.9,154.34,168.79,152.88,169.72Z"/><path class="cls-3" d="M152.48,169.11a4.7,4.7,0,0,1-2,1.06,11.87,11.87,0,0,1-1.27.26c-.43,0-.88.09-1.33.08a11.76,11.76,0,0,1-5.46-1.31,8.8,8.8,0,0,1-4.11-4.48c-.09-.25-.21-.5-.29-.75l-.16-.78-.15-.78c0-.26,0-.53,0-.79a10.24,10.24,0,0,1,.29-3.15,5.9,5.9,0,0,1,2.16-3.35,6.34,6.34,0,0,1,3.8-1.09,12.86,12.86,0,0,1,3.6.59c.57.17,1.13.36,1.68.58.27.1.54.22.81.34l.26.12c7.59-4.42,16.94-13.07,16.94-23a20.79,20.79,0,0,0-5.54-13.48,23,23,0,0,0-5.79-4.67,20.94,20.94,0,0,0-7.07-2.37,39.84,39.84,0,0,0-15.83-.25l-1.91.51c-.31.08-.63.15-.94.26l-.92.35c-.61.25-1.23.46-1.82.73l-1.75.9a26.9,26.9,0,0,0-6.23,4.76,33.38,33.38,0,0,0-4.85,6.29A45.84,45.84,0,0,0,111,132.9a62.31,62.31,0,0,0-2.53,7.69c-.71,2.62-1.28,5.28-1.74,8-.82,4.61-1.29,9.27-1.69,14-.12,1.2-.18,2.33-.41,3.66a12.05,12.05,0,0,1-1.67,3.61c-1.33,2.06-2.77,3.94-4.14,5.85a59.63,59.63,0,0,0-7.08,11.93,24.39,24.39,0,0,0-1.91,13.22,23.38,23.38,0,0,0,2,6.39,31,31,0,0,0,3.69,5.72,43,43,0,0,0,4.78,5,43.42,43.42,0,0,0,5.54,4.08,37.51,37.51,0,0,0,12.71,5,29.21,29.21,0,0,0,6.79.5,29.6,29.6,0,0,0,6.73-1.08,52.9,52.9,0,0,0,15.09-6.2,32.35,32.35,0,0,0,6.24-5.1,26.37,26.37,0,0,0,4.5-6.59,29.49,29.49,0,0,0,2.51-15,48.11,48.11,0,0,0-3.86-15.07c-.69-1.61-1.55-3.24-2.31-4.69-.49-.93-.9-1.7-1.23-2.3-.15-.28-.27-.5-.34-.66s-.16,0,.21-.64c0-.11,0-.21.06-.2a.09.09,0,0,0,0-.07s0,0,0,0a.09.09,0,0,1,0,.11,1.15,1.15,0,0,1-.09.28s0-.05,0,0a2.8,2.8,0,0,1,1.31,1,11.14,11.14,0,0,1,1.54,1.94,67.47,67.47,0,0,1,4.89,10.68,36.52,36.52,0,0,1,2.25,12,32.08,32.08,0,0,1-2.23,12.29,29,29,0,0,1-7.17,10.29A39.67,39.67,0,0,1,143,225.22a64.14,64.14,0,0,1-11.72,4,30.4,30.4,0,0,1-10.1.73,35.51,35.51,0,0,1-9.79-2.38A43.19,43.19,0,0,1,91.75,211.8c-.35-.56-.78-1.23-1.25-2l-.68-1.32-.37-.73-.33-.8a23.17,23.17,0,0,1-1.89-8.24,25.1,25.1,0,0,1,.3-5.19A32,32,0,0,1,89,188a51.71,51.71,0,0,1,6.09-11.17c1.27-1.85,2.65-3.7,4-5.59.68-.94,1.35-1.9,2-2.88a8,8,0,0,0,1.27-2.89c.28-2.34.44-4.89.71-7.43s.56-5.13,1-7.75a87.07,87.07,0,0,1,3.81-15.78c.43-1.32,1-2.6,1.49-3.89s1.13-2.56,1.83-3.79a38.6,38.6,0,0,1,4.68-7.06,29.66,29.66,0,0,1,13.93-9.51,37.87,37.87,0,0,1,16.41-1,36.7,36.7,0,0,1,3.93.7c.65.15,1.29.23,1.94.43s1.31.38,1.95.61a23.06,23.06,0,0,1,6.76,4,25.11,25.11,0,0,1,8,12.19,20.74,20.74,0,0,1,.73,6.82,20.07,20.07,0,0,1-1.53,6.22,31.25,31.25,0,0,1-6.09,9.09,43.78,43.78,0,0,1-6.36,5.56c-.95.7-1.84,1.29-2.64,1.79-.39.25-.76.48-1.12.68l-1.48.87-.68-.35c-.21-.12-.5-.25-.57-.28l-.7-.3c-.47-.19-.92-.35-1.37-.49a11.77,11.77,0,0,0-2.54-.53,4.1,4.1,0,0,0-3.48,1,4.82,4.82,0,0,0-1.12,2.63,6.27,6.27,0,0,0-.07,1.27c0,.39,0,.75,0,1.07a6.52,6.52,0,0,0,1.11,3.16,8.73,8.73,0,0,0,4.41,3.38,11.92,11.92,0,0,0,3.35.81A7.44,7.44,0,0,0,152.48,169.11Z"/><path class="cls-3" d="M173.44,144.4c.07.46.77,1.36.34,1.58-.92.47-1.76-1.76-1.27-2.23S173.35,143.74,173.44,144.4Z"/><path class="cls-3" d="M173.56,144.4a1.67,1.67,0,0,0,.05.59c0,.07.08.08.08.12s0,0,0,0a1.11,1.11,0,0,0-.11.2.26.26,0,0,0,0,.14s0,0,0,0a.26.26,0,0,0,0-.1v0h0l.17.32h0l0,0a.41.41,0,0,0-.16,0c-.08,0-.38,0-.28,0s-.06-.22-.16-.35-.37-.34-.28-.8c0-.16.52-.16,1-.22s.9-.21.94-.13a2.83,2.83,0,0,1,.27.73,2.59,2.59,0,0,1,.05.82,1.89,1.89,0,0,1-.1.37,1.34,1.34,0,0,1-.26.41,1.1,1.1,0,0,1-.38.28,1,1,0,0,1-.27.07,2,2,0,0,1-1.12-.13,1.76,1.76,0,0,1-.63-.51,3.05,3.05,0,0,1-.49-1.2,3.94,3.94,0,0,1-.05-.78,1.53,1.53,0,0,1,.21-.75,1,1,0,0,1,.18-.21l.14-.11a1.29,1.29,0,0,1,.39-.2,1.12,1.12,0,0,1,.89.14,1.69,1.69,0,0,1,.49.46,2.43,2.43,0,0,1,.14.2c.11.26,0,.37-.5.5l-.33.07a1.89,1.89,0,0,1-.83,0,.32.32,0,0,0-.22,0,2.86,2.86,0,0,0,.29-.17,1.22,1.22,0,0,0,.23-.2c.1-.12,0-.16.07,0a1.74,1.74,0,0,0,.4.63l.07.07h0l-.65-.69h0l0,0a.09.09,0,0,0,.06,0s.12.07.2.09a2.73,2.73,0,0,0,.61.08.25.25,0,0,0,0,.17Z"/><path class="cls-3" d="M171.88,142.81a.85.85,0,0,0-.56.21,2.09,2.09,0,0,1-.14.17,2.29,2.29,0,0,0-.48.77,1.86,1.86,0,0,0-.08.41q0,.25-.06.54c0,.06,0,.06-.1,0a.81.81,0,0,1-.22-.23,1.84,1.84,0,0,1-.19-1.22c.07-.25.06-.53.15-.79a3.06,3.06,0,0,1,.47-.8,1.63,1.63,0,0,1,.43-.4,2.21,2.21,0,0,1,.8-.29,1.38,1.38,0,0,1,.6-.1.35.35,0,0,1,.14,0,.67.67,0,0,1,.27.21l0,0s0,.09-.13.24c-.24.43-.38.85-.51,1s-.2.18-.39.19Z"/><path class="cls-3" d="M430.84,123.59c1.67,4.44,1.11,10.11-.81,15.12a38.86,38.86,0,0,1-6.83,11.6,37.71,37.71,0,0,1-10.53,8.48,41.85,41.85,0,0,1-26.3,4.59,37.2,37.2,0,0,1-20.66-10.33,41,41,0,0,1-11.1-20.22,41.73,41.73,0,0,1,.3-19.87,37.08,37.08,0,0,1,10-17.22A40.12,40.12,0,0,1,382.22,86a42.65,42.65,0,0,1,19.87-.54A40,40,0,0,1,422.61,96.7a39.38,39.38,0,0,1,6.57,9.27,38,38,0,0,1,3.53,10.82,24.35,24.35,0,0,1,.44,3.8,5.21,5.21,0,0,1-.51,2.92c-.28.29-.6-.12-.91-1.27a8.86,8.86,0,0,1-.42-1.65,26.41,26.41,0,0,0-1.85-7.64,60.66,60.66,0,0,0-3.47-7.17,33.67,33.67,0,0,0-10.7-11.71,38.16,38.16,0,0,0-14.74-5.9,40.45,40.45,0,0,0-28,5A33.85,33.85,0,0,0,357,115.88a39.85,39.85,0,0,0,2.2,22.54,36.21,36.21,0,0,0,16.3,18.39,35.53,35.53,0,0,0,11.82,3.86,39.86,39.86,0,0,0,22.7-3.55,36.44,36.44,0,0,0,8.29-5.59,35.35,35.35,0,0,0,8.8-12.3,41.35,41.35,0,0,0,2.12-6.18A45.84,45.84,0,0,0,430.84,123.59Z"/><path class="cls-3" d="M391.9,107.52a16.87,16.87,0,0,0-8.39-1.14c-2.75.41-5.62,1.59-7.05,3.73a5.56,5.56,0,0,0-.91,2.61,8.64,8.64,0,0,0,.25,2.87,6.07,6.07,0,0,0,1.14,2.18,7.09,7.09,0,0,0,2,1.58,8.29,8.29,0,0,0,1.21.55c.19.08.5.17.51.18h.51a22.25,22.25,0,0,0,2.83-.3,18.55,18.55,0,0,0,5.38-1.75,14.64,14.64,0,0,0,2.37-1.51l.3-.23a2.87,2.87,0,0,1,.43-.28,3.05,3.05,0,0,1,1-.35,3.17,3.17,0,0,1,2,.24,3.26,3.26,0,0,1,1.36,1.16l.72,1.13a19.42,19.42,0,0,0,1.52,2,9.58,9.58,0,0,0,1.77,1.67,3.08,3.08,0,0,0,1.89.67l.76-.13a5,5,0,0,1,1,0,5.33,5.33,0,0,1,2,.48,4.76,4.76,0,0,1,2.62,3.15,5.9,5.9,0,0,1,.17,2,4.5,4.5,0,0,1-.65,2,5.42,5.42,0,0,1-3.23,2.29c-.76.21-1.15.07-1.17-.17s.3-.6.73-1.06a8.5,8.5,0,0,0,1.35-1.71,3.65,3.65,0,0,0,.34-2.18,2.34,2.34,0,0,0-.91-1.78,2.72,2.72,0,0,0-2-.46l-.51.08a2.49,2.49,0,0,1-.67,0,4.61,4.61,0,0,1-1.31-.2,6.82,6.82,0,0,1-2-1.06,14.28,14.28,0,0,1-2.7-2.82c-.37-.5-.71-1-1-1.52l-.47-.77-.12-.2-.06-.1,0,0a1,1,0,0,0-.09-.13.9.9,0,0,0-1.18-.15,3.46,3.46,0,0,0-.31.22l-.38.29c-.25.19-.52.36-.79.53a14.71,14.71,0,0,1-1.64.93,18.57,18.57,0,0,1-3.48,1.32,27.76,27.76,0,0,1-4.35.8l-1.11.08-.56,0a2,2,0,0,1-.83-.07l-.34-.11-.28-.09-.54-.21a10.57,10.57,0,0,1-1.08-.5,8.7,8.7,0,0,1-3.54-3.3,8.85,8.85,0,0,1-1.15-4.67,8.19,8.19,0,0,1,1.68-5,10.36,10.36,0,0,1,4.11-3.09,15.88,15.88,0,0,1,4.81-1.29,18.8,18.8,0,0,1,4.92.19,19.06,19.06,0,0,1,5.72,1.89,15.88,15.88,0,0,1,2.55,1.69c.12.09.15.13.2.17l.16.15.15.14a.57.57,0,0,0,.18,0l1.11-.3a31.5,31.5,0,0,1,4.36-1,12.92,12.92,0,0,1,4.63.18,6.8,6.8,0,0,1,4,2.58,7.64,7.64,0,0,1,1.08,2.13c.22.72.45,1.42.6,2.15a25.93,25.93,0,0,1,.74,6.85,15.1,15.1,0,0,1-1.73,6.82c-.3.45-.57.91-.89,1.34a13.81,13.81,0,0,1-1.1,1.21l-1.1.87c-.37.23-.72.4-1,.57a7.44,7.44,0,0,1-2.24.68,4.17,4.17,0,0,1-.52,0,2.29,2.29,0,0,1-.79-.24,2.4,2.4,0,0,1-.58-.32c-.21-.21,0-.5.61-.8s1.47-.67,2.48-1.28a8.41,8.41,0,0,0,3.39-3.87,14.06,14.06,0,0,0,1.12-5.38,23.1,23.1,0,0,0-.62-5.76c-.1-.48-.24-1-.38-1.42a8,8,0,0,0-.43-1.26,4.47,4.47,0,0,0-1.42-1.77,6.34,6.34,0,0,0-3.51-1,14.66,14.66,0,0,0-4.19.56l-2.24.61-1.83.48-.28.07c-.1,0-.14-.1-.22-.13l-.39-.36-.78-.7a13.4,13.4,0,0,0-3.6-2.1Z"/><path class="cls-3" d="M381,122.39a1,1,0,0,1-.18,0,.17.17,0,0,0,0,.07v1.76c0,1,0,2,.08,3a26.57,26.57,0,0,0,.9,5.81,18.37,18.37,0,0,0,1.85,4.2,15.19,15.19,0,0,0,1.14,1.66c.21.25.4.54.63.77l.7.69a8.27,8.27,0,0,0,3.3,1.91,8.06,8.06,0,0,0,7.27-1.84,12.5,12.5,0,0,0,2.4-2.67c.29-.54.65-1,.89-1.59l.37-.83a10,10,0,0,1,.46-.94,16.7,16.7,0,0,1,.95-1.42l.51-.65.26-.33.13-.16c0-.09.19-.1.21-.22A12.3,12.3,0,0,1,406,130a2.31,2.31,0,0,0,1.51-1.79c.13-.82.69-.84,1.15.14a2.62,2.62,0,0,1-.19,2.29,3.92,3.92,0,0,1-1.13,1.2,6.9,6.9,0,0,1-1.33.71,6.6,6.6,0,0,0-1.56.82l-.56.66c-.22.27-.43.54-.62.81a9,9,0,0,0-.53.78c-.07.13-.13.24-.17.33l-.26.54a16,16,0,0,1-2.6,4,13,13,0,0,1-3.88,3,9.28,9.28,0,0,1-4.89,1,10,10,0,0,1-6.13-2.65,16.06,16.06,0,0,1-3.85-5.27,22.52,22.52,0,0,1-1.88-6.75,51.21,51.21,0,0,1-.32-6.86l0-2.53c.84,0,1.76-.12,2.32-.19s1.06-.13,1.58-.21c1.06-.16,2.1-.38,3.12-.64a18.67,18.67,0,0,0,5.6-2.29c.42-.29.71-.57,1.35-.95a3.07,3.07,0,0,1,1.93-.28,3.11,3.11,0,0,1,1.7.95,16,16,0,0,1,.93,1.38,15.11,15.11,0,0,0,3,3.45,4.45,4.45,0,0,0,1.8.91,1.56,1.56,0,0,0,.43,0,1.27,1.27,0,0,0,.42-.05l.64-.12a5.79,5.79,0,0,1,.72,0,5,5,0,0,1,2.46.6,4,4,0,0,1,2.08,2.68,2,2,0,0,1,0,.89,1.17,1.17,0,0,1-.28.58,1.82,1.82,0,0,1-.37.4c-.49.27-.63-.91-1.51-2a3.1,3.1,0,0,0-2.84-1l-.43.08a3.34,3.34,0,0,1-.78.11,4.29,4.29,0,0,1-1.54-.23,7.2,7.2,0,0,1-2.34-1.39,17.4,17.4,0,0,1-3.17-3.69c-.22-.33-.43-.67-.64-1a1.06,1.06,0,0,0-.33-.36,1,1,0,0,0-.85-.09,1.8,1.8,0,0,0-.3.18l-.77.58a12.85,12.85,0,0,1-1.62,1,19.66,19.66,0,0,1-3.36,1.35,30.12,30.12,0,0,1-3.43.85c-.58.12-1.15.21-1.73.3l-.87.12-.64.08Z"/><path class="cls-3" d="M383.43,109.56c5.77,2.07,1.81,3.18.27,2.61-.71-.27-1.68-.41-1.95-1.24-.89-2.76,8.64-2.52,8.13,2.09-.38,3.47-6.24,4.42-8.07,2.17a7.44,7.44,0,0,1-1.16-3.15c-.27-2-.12-2.08,1.79-3.17,4.5-2.58,9.4,1.71,14.15,2.13,4,.36,7.71-1.88,11.16.92,1.4,1.13,5.26-.89,3.38-2.42-3.29-2.66-6.44-2.14-10.45-1.69-5.62.64-10.37-3.43-16-3-3.4.27-7.87,2-8.43,5.81-.46,3.18,1.18,7.28,4.21,8.65,6,2.73,19.24-5.59,11.35-11.48a11.72,11.72,0,0,0-11.46-.8c-2.47,1.28-4.47,4-2.15,6.38,2.14,2.17,7.13,2.79,9.81,1.45,4.12-2.06,1.28-6.92-2-8.1-1.74-.62-5.1,1.89-2.54,2.8Z"/><path class="cls-3" d="M390.88,109.52a6.13,6.13,0,0,0,5,3c2.79.16,5.26-1.49,8-1.5a6.83,6.83,0,0,1,6.62,5.35c.71,2.74,0,5.86-3.13,6.55-1.77.38-1.35,1.89.41,1.51,5.16-1.13,7.38-6.15,4.81-10.83a8.29,8.29,0,0,0-7.09-4.31c-4.27-.11-8.77,3.68-11.89-.87-.57-.83-3.37.15-2.68,1.15Z"/><path class="cls-3" d="M391.63,112.5a7.89,7.89,0,0,0,4.38,2.09c1.88.34,4.32.16,5.43,2,.78,1.3.18,2.87.85,4.23.76,1.54,2.46,2,4.07,1.91,3.49-.13,5.78-2.89,4.81-6.33-1.27-4.48-6.58-6.1-10.64-5.09-2.63.65-2,2.93.61,2.28s7.16,3.29,5.78,6.16c-.14.23-.09.33.15.32l-.55-.64a4.49,4.49,0,0,1-.25-1.21,9.87,9.87,0,0,0-.27-2.42c-1.64-4.56-7.52-2.21-10.35-5-1.11-1.12-5.23.52-4,1.73Z"/><path class="cls-3" d="M392,113.69c2.53,3.48,6.58,5.59,10.9,4.61,1.81-.42,1.27-2.39-.53-2-3.08.71-6-1.54-7.72-3.91-.77-1-3.53.07-2.65,1.28Z"/><path class="cls-3" d="M382.79,119.38c-3-1-5.42-3.18-5.08-6.53a6.65,6.65,0,0,1,5.36-5.84c1.36-.29,1-1.66-.37-1.38a8.91,8.91,0,0,0-7.12,6.93c-.71,4.14,2.27,7,5.93,8.2.86.28,2.56-1,1.28-1.38Z"/><path class="cls-3" d="M394.09,114.83c1.59,2.62,4.09,7.23,7.45,7.74,2.12.32,4.51-.4,6,1.61a5.36,5.36,0,0,1,.66,1.59c.21.56-.45,1.17.32.7-1.67,1-.14,2.67,1.3,1.79,2.64-1.62,1-5.34-1.06-6.69s-4.89-.45-6.93-1.52-3.9-4.5-5.12-6.52c-.71-1.16-3.46,0-2.65,1.3Z"/><path class="cls-3" d="M329,167a15.12,15.12,0,0,1,7.49.67,22.91,22.91,0,0,1,7.07,4.07A43.14,43.14,0,0,1,357.39,195a39.94,39.94,0,0,1,.79,13.74,42.83,42.83,0,0,1-3.63,13.28A39.54,39.54,0,0,1,339,239.71a42.49,42.49,0,0,1-32.86,4,37.93,37.93,0,0,1-9.37-4,35,35,0,0,1-8-6.41c-.56-.64-1.19-1.23-1.7-1.91l-1.56-2c-.5-.7-.94-1.43-1.4-2.14a19.63,19.63,0,0,1-1.28-2.22,44.14,44.14,0,0,1-2.17-4.62,48.3,48.3,0,0,1-1.54-4.87,49.16,49.16,0,0,1-1-5,50.78,50.78,0,0,1-.35-5.09,43.51,43.51,0,0,1,.22-5.1l.37-2.53c.1-.85.36-1.67.54-2.51a35.61,35.61,0,0,1,3.74-9.52,37.53,37.53,0,0,1,7.56-9.4,42.67,42.67,0,0,1,10-6.68,56.54,56.54,0,0,1,22.18-5.3,33.31,33.31,0,0,1,3.87,0,5.09,5.09,0,0,1,2.92.92c.25.33-.22.56-1.42.7a10.78,10.78,0,0,1-1.72.21,36.67,36.67,0,0,0-4.12.18c-1.32.2-2.61.34-3.89.64l-1.92.4-1.95.48c-1.32.28-2.66.7-4.12,1a46.1,46.1,0,0,0-7.75,2.76c-1.27.52-2.43,1.24-3.65,1.87l-1.72,1.1-.86.56-.82.61L293.65,177l-1.52,1.36c-.25.23-.51.45-.75.68l-.7.74c-.46.5-.93,1-1.38,1.49a36.48,36.48,0,0,0-2.43,3.24l-1.11,1.7-.95,1.78A37,37,0,0,0,281,200.3a39.7,39.7,0,0,0-.16,8.3,38.06,38.06,0,0,0,1.54,8.19,38.72,38.72,0,0,0,4.43,9.53,34.26,34.26,0,0,0,13.38,12.15A38.14,38.14,0,0,0,310.8,242a40.77,40.77,0,0,0,12.11.3A38.41,38.41,0,0,0,335,238.75a34.17,34.17,0,0,0,10.22-7.69,39.81,39.81,0,0,0,6.95-10.65,41.45,41.45,0,0,0,3.19-11.83,38.81,38.81,0,0,0-.34-11.39,43.45,43.45,0,0,0-3.06-9.8,42.5,42.5,0,0,0-4.35-7.57,36.8,36.8,0,0,0-4.52-5.1,22.21,22.21,0,0,0-2-1.68l-.84-.68-.76-.51c-.92-.62-1.5-1-1.69-1.1l-1.76-1-2-1c-.69-.34-1.47-.59-2.3-.93S330.05,167.31,329,167Z"/><path class="cls-3" d="M312,203.89a17.85,17.85,0,0,1-3.75.71,15.07,15.07,0,0,1-1.9.05,2.86,2.86,0,0,1-.37,0h-.07l-.16,0a1.19,1.19,0,0,0,0,.24l-.05,1.42-.08,3a37.44,37.44,0,0,0,.25,4.64,14.9,14.9,0,0,0,2.63,7.36,11.46,11.46,0,0,0,1.27,1.49c.24.22.46.47.71.67l.78.56a7.42,7.42,0,0,0,3.56,1.23,8.3,8.3,0,0,0,6.18-2.52,12.65,12.65,0,0,0,2.63-3.63c.73-1.34,1.11-2.72,1.95-4.34.3-.53.76-.68.86-.49a5.36,5.36,0,0,1,.18,1,6.84,6.84,0,0,1,.06,1.83,1.91,1.91,0,0,1-.06.33s0,.07,0,.08,0-.05,0,0l0,.15c0,.21-.09.42-.14.64a5.61,5.61,0,0,1-.48,1.35,15.47,15.47,0,0,1-3.06,4.37,11.28,11.28,0,0,1-4.66,2.91,9.26,9.26,0,0,1-5.61.05,10.39,10.39,0,0,1-4.57-3,16.81,16.81,0,0,1-3.29-5.46,21.6,21.6,0,0,1-1.19-6.19c-.08-1.54-.07-3.07,0-4.59l.16-5.44c.59.1,1.18.19,1.75.26l.74,0h.5a13.34,13.34,0,0,0,2-.12,14.68,14.68,0,0,0,3.74-.95,16.29,16.29,0,0,0,1.74-.83l.81-.51c.29-.2.45-.34.92-.68h0l.47-.28a1,1,0,0,1,.53-.05,2.74,2.74,0,0,1,1,.46,7.7,7.7,0,0,1,.7.56l.59.53c.77.72,1.5,1.43,2.25,2.11a20.1,20.1,0,0,0,2.34,1.84,5.39,5.39,0,0,0,2.52,1,3.71,3.71,0,0,0,.47,0l.24,0,.35-.06a5.17,5.17,0,0,1,1.36,0,5,5,0,0,1,2.52,1.06,4.73,4.73,0,0,1,1.49,2.35,5.73,5.73,0,0,1,.08,2.77,3.52,3.52,0,0,1-.63,1.27,3.58,3.58,0,0,1-1.1.87,7.44,7.44,0,0,1-1.72.59c-.44.1-.77.16-1,.2a2.54,2.54,0,0,1-1.22-.05,4.35,4.35,0,0,1-.52-.1c-.24-.09-.22-.38.16-.82a5.15,5.15,0,0,1,2.09-1.15,4.81,4.81,0,0,0,1.54-.73,1.27,1.27,0,0,0,.42-1,3.87,3.87,0,0,0-.24-1.56,2.35,2.35,0,0,0-.84-1.09,2.72,2.72,0,0,0-1.34-.5,3,3,0,0,0-.73,0l-.49.09a4.28,4.28,0,0,1-.81.07,6.39,6.39,0,0,1-2.76-.77,14.32,14.32,0,0,1-2.08-1.35c-1.13-.87-2.13-1.82-3.1-2.73-.48-.45-1-.9-1.41-1.27l-.16-.13h0l-.3.23c-.19.15-.4.27-.6.4a13,13,0,0,1-1.24.73,15.46,15.46,0,0,1-2.66,1.12Z"/><path class="cls-3" d="M335.81,194.8a9.81,9.81,0,0,0-1.15-.51l-.3-.11-.09,0-.18,0-.33-.09c-.43-.13-.88-.24-1.31-.35l-.19-1.92c-.06-.27-.09-.55-.17-.81a5.45,5.45,0,0,0-.59-1.45,5,5,0,0,0-2.33-2,13,13,0,0,0-7.05-.57c-.38.06-.75.14-1.11.23-.18,0-.37.09-.53.15l-.23.08s-.09,0-.14,0l-.13-.12-.27-.24-.2.06-.26.09a1.07,1.07,0,0,1-.24,0c-.23,0-.41.05-.73.11L318,187l-.25-.21-.32-.24c-.22-.17-.43-.29-.64-.44l-.66-.38-.68-.32a6.21,6.21,0,0,0-2.32-.5,4.53,4.53,0,0,0-2.21.62l-.52.29-.48.41-.48.4-.42.5a7,7,0,0,0-.81,1l-1,1.6-.63.09-.56.1-.71.16q-.72.18-1.41.42a12.66,12.66,0,0,0-2.61,1.21A6.92,6.92,0,0,0,298,196a10.78,10.78,0,0,0-.16,1.14l0,1.71-.66.41c-.22.13-.46.31-.56.38s-.51.38-.76.58a17.23,17.23,0,0,0-1.4,1.3,11.13,11.13,0,0,0-2.1,3.06,6.79,6.79,0,0,0,.1,5.81,16.72,16.72,0,0,0,3.92,5c1,.92.51,1.32-.82,1a7.25,7.25,0,0,1-2.44-1.15,8.45,8.45,0,0,1-2.64-2.9,10.05,10.05,0,0,1-1.32-4.44,9.45,9.45,0,0,1,1-4.57,13.31,13.31,0,0,1,2.61-3.58,16.77,16.77,0,0,1,1.6-1.44c.28-.22.57-.43.86-.64s.12-.08.15-.1h0s0,0,0-.06v-.27c0-.14,0-.29,0-.44a13.51,13.51,0,0,1,.36-1.79,7.48,7.48,0,0,1,.74-1.69,7.62,7.62,0,0,1,.48-.77l.57-.7a10.66,10.66,0,0,1,2.71-2.16,15.09,15.09,0,0,1,3-1.31c.48-.15,1-.28,1.47-.4.26,0,.5-.12.76-.16a1.85,1.85,0,0,1,.26,0,.61.61,0,0,0,.07-.1l.12-.18.51-.8c.36-.52.81-1,1.22-1.5a8.45,8.45,0,0,1,3.41-2.23,7.25,7.25,0,0,1,4.15-.06,10.35,10.35,0,0,1,3.52,1.78l.35.27.15.12c.08.06.13.19.23.09l.17-.06c.1,0,.36-.11.52-.15.38-.1.75-.18,1.12-.25a21.08,21.08,0,0,1,2.24-.28,15.91,15.91,0,0,1,4.55.3,8.91,8.91,0,0,1,4.23,2.15,7.84,7.84,0,0,1,1.44,2,8.61,8.61,0,0,1,.71,2.28,3.41,3.41,0,0,1,.06.4,1.27,1.27,0,0,0,0,.28l.28.08.44.16a12.72,12.72,0,0,1,1.27.54A11.9,11.9,0,0,1,339,194a7.38,7.38,0,0,1,1.86,2.21,6.19,6.19,0,0,1,.76,2.85c0,.42-.07.84-.1,1.26a8.13,8.13,0,0,1-.31,1.2l-.18.58-.25.52c-.09.2-.2.38-.26.56a26.33,26.33,0,0,1,1.88,2.09,22.4,22.4,0,0,1,1.94,2.76,13.4,13.4,0,0,1,1.4,3.13,7.2,7.2,0,0,1,.21,3.55,6,6,0,0,1-1.1,2.4,8,8,0,0,1-.88,1,3.72,3.72,0,0,1-.48.41l-.28.23-.05.13-.07.19-.22.54c-.15.35-.31.69-.49,1a18,18,0,0,1-1.15,2,11.7,11.7,0,0,1-3.32,3.37,7.39,7.39,0,0,1-3.17,1.16,7,7,0,0,1-2.67-.23,6.19,6.19,0,0,1-1.63-.7,2.72,2.72,0,0,1-1.29-1.45,2.87,2.87,0,0,1-.19-.65c0-.3.37-.33,1-.13a25.66,25.66,0,0,0,2.67.76,5.57,5.57,0,0,0,5.13-1.7,12.46,12.46,0,0,0,1.92-2.46c.27-.46.53-.94.77-1.43.12-.24.23-.49.34-.74l.15-.37c.11-.25.21-.54.31-.82l.87-.65a3.34,3.34,0,0,0,.4-.35,2.85,2.85,0,0,0,.34-.36,2.46,2.46,0,0,0,.29-.39,3.58,3.58,0,0,0,.59-1.74,7.94,7.94,0,0,0-1.28-4.21,20,20,0,0,0-1.79-2.59c-.34-.41-.69-.82-1.05-1.22l-.28-.29-.46-.48c-.4-.4-.84-.79-1.26-1.18l1.1-2.34c.18-.39.24-.78.38-1.16a11,11,0,0,0,.13-1.12,4.35,4.35,0,0,0-.17-1,5.81,5.81,0,0,0-3.24-3.25Z"/><path class="cls-3" d="M330.69,219.57c3.13,4,9.08-1.94,4.68-4.28a5.53,5.53,0,0,0-5.84.82c-1.93,1.7-1.16,4.29.22,6.11,2.68,3.53,7,2.76,9.43-.54,3.18-4.29.13-10.65-5.51-8.91-1.3.41-1,1.71.34,1.3,5.33-1.65,5.46,7.42,1.27,9-2,.72-4-1.82-4.51-3.49s.37-3.57,2.53-3.23a1.82,1.82,0,0,1,1.34,2.28c-.36.87-1.39.77-1.95.06s-2.62.12-2,.91Z"/><path class="cls-3" d="M331.77,204.21c.2,1.73,5,.6,5.15-1.16.41-4-6.69-3.14-6.45,1,.2,3.44,5.68,3.93,7.82,2.11,1.48-1.26,2.89-3.52,2-5.48a7.93,7.93,0,0,0-3.36-3.28c-4.12-2.2-11.17,1.41-8.61,6.53.37.74,2.22.17,1.88-.5a3.8,3.8,0,0,1,5.26-5c1.17.61,2.81,1.92,3.16,3.29.78,3.07-3.43,5.75-5.7,3.34a2.1,2.1,0,0,1-.54-1.88c.63-2.2,2.79-1.28,2.63-.1-.08.59-1.33.79-1.35.59-.09-.76-2-.31-1.89.51Z"/><path class="cls-3" d="M317.11,192.29c.16,1.39,3.86.49,4-.87.3-2.88-5-2.24-4.84.77.14,2.53,4.17,2.7,5.67,1.39,1-.87,1.94-2.37,1.35-3.72a5.17,5.17,0,0,0-2.25-2.21c-2.8-1.51-8,.91-6.16,4.5.36.73,2.21.16,1.88-.51a2.13,2.13,0,0,1,2.81-3,4,4,0,0,1,2,2c.43,1.71-1.72,3.31-3.06,1.93a1.19,1.19,0,0,1-.32-1.1c.38-1,1.14-.46,1,.05-.06.31,0-.05,0,.09l-.27,0c-.13,0-.09,0,.1.14-.09-.76-2-.32-1.89.5Z"/><path class="cls-3" d="M330.94,194.75c-.23-.31-.05.28-.4.31-.18.2-.25.25-.2.14a1.75,1.75,0,0,1-.36-.81c.26-1.95,2-.14,2.12.49a2.12,2.12,0,0,1-.34,1.31,2.29,2.29,0,0,1-3.43.86,1.85,1.85,0,0,1-1-1.33,5.4,5.4,0,0,1,.27-3.39,2.75,2.75,0,0,1,5.07.29c.29.76,2.16.22,1.88-.51-1.23-3.28-5.95-3.36-8.09-.9-1.2,1.38-1.71,4.2-.7,5.84.9,1.46,3.23,1.86,4.78,1.63a4.59,4.59,0,0,0,3.21-2.68c1.65-3.67-4.78-5.34-5.6-1.84a1.92,1.92,0,0,0,2.67,2.18c.65-.23,2.57-1.48,1.9-2.37-.46-.61-2.27.08-1.74.78Z"/><path class="cls-3" d="M306.73,196.06c-1,.22-.05.32.08,1.16.25,1.64-3,.25-1.68-1.45l2.7-.91a2.33,2.33,0,0,1,1.6,1.44,3.65,3.65,0,0,1,0,2c-.36,1.57-1.59,3.85-3.46,3.86a5.56,5.56,0,0,1-4.2-2.73c-1.41-2.39-.33-7.07,3.17-6.55.84.12,1.95-1.05.69-1.24a5.71,5.71,0,0,0-5.87,8.06c1.49,3.05,5.58,4.77,8.57,2.86,3.68-2.34,4.66-9.48-1.21-9.05-1.93.15-4.15,1.34-4.07,3.53.07,1.91,1.52,2.55,3.24,2.3,1.34-.2,2.68-1,2.42-2.52-.19-1.11-1.1-2.2-2.3-1.92s-.85,1.41.31,1.14Z"/><path class="cls-3" d="M299,207.86c1.62.89-.65,1-1.06.77-1-.51-.29-.79.47-1.15a2.2,2.2,0,0,1,3.06,2.61c-.7,3.19-5.34,3.46-6.9.89a7.77,7.77,0,0,1-.84-4.63c.44-3.39,4.73-4.83,6.76-1.66.41.63,2.22,0,1.74-.79-2.3-3.59-8.49-2.64-10,1.23-1,2.48-.4,6.5,2.05,7.94a6.58,6.58,0,0,0,6.15.33c1.54-.81,3.19-2.56,3-4.41a3.27,3.27,0,0,0-3.76-3.06c-1.17.16-3.94.91-4.17,2.39-.54,3.57,9.4,1,5-1.47-.64-.35-2.34.54-1.48,1Z"/><path class="cls-3" d="M308.68,197.12c-.32,1.16,1.4,2.54,2.47,2.52a2.83,2.83,0,0,0,2.63-2.77c-.38-3.87-5.95-3.33-6.44.3-.57,4.15,5.13,5.06,7.83,3.57,4.38-2.43,2.87-8-.65-10.47-4.23-3-9.15.67-8.91,5.41,0,.74,1.93.33,1.89-.5-.08-1.49.47-3.63,1.9-4.38s3.07-.06,4.17.9c1.77,1.56,3.37,4.6,2,6.89-1.61,2.67-6.69,1.78-6.33-1.61.18-1.68,1.7-1.76,2.39-.4,1.09,2.15-1.38,1.59-1.05.36.22-.81-1.69-.56-1.89.18Z"/><path class="cls-3" d="M325.41,200.85c.78-.45,1-.67.52-.67a1.62,1.62,0,0,1-.54-.11c-.26-.2-.59-.22-.8-.51a1.49,1.49,0,0,1,1.68-2.18,3.31,3.31,0,0,1,1.34.9c1.7,1.63.1,6.17-2.37,6.17s-4.25-3.27-4.59-5.31c-.45-2.72,2-5.15,4.45-5.37a3.46,3.46,0,0,1,4,3.75c0,.89,1.86.57,1.9-.18.24-5.24-6-6.14-9.47-3.54-1.83,1.38-3.28,3.74-2.72,6.08.46,1.91,1.84,4.34,3.63,5.27,4.05,2.11,7.28-1.32,7.78-5.17.45-3.55-5.07-5.44-7.18-2.61-2,2.68,2,5.52,4.09,3.53a.54.54,0,0,0,.17-.48l0-.07c-.2-.78-2.08-.28-1.89.5Z"/><path class="cls-3" d="M340,210.34c-2.7-2.31-7.07.53-5.93,4s5.62,2.89,7.87.91c2.67-2.34,3.07-6.08-.12-8.11a7.67,7.67,0,0,0-9.94,1.61,2.89,2.89,0,0,0,2.13-.4c2-2.65,6.22-1.22,7.61,1.39a3.94,3.94,0,0,1-.17,3.64c-.73,1.59-2.18,3.48-4.05,2.09a3.8,3.8,0,0,1-1.36-2.76c-.05-1.19.58-2.74,1.91-1.6.42.36,2.33-.49,2-.73Z"/></g></svg>