<svg id="Layer_1" data-name="Layer 1" xmlns="http://www.w3.org/2000/svg" width="520" height="520" viewBox="0 0 520 520"><defs><style>.cls-1{fill:#221f1f;}.cls-2{opacity:0.3;}.cls-3{opacity:0.77;}</style></defs><title>Notioly v2</title><g id="_54.Laziness" data-name="54.Laziness"><path class="cls-1" d="M206.34,459.93l-35.63,1-13,.38c-15.28.32-30.56.5-45.84.46-6.78,0-13.6,0-20.34-.15-4.33-.08-8.66-.18-13-.44-2.17-.14-4.34-.31-6.51-.59a38.23,38.23,0,0,1-6.5-1.26c-.34-.12-.63-.23-.86-.33a4.27,4.27,0,0,1-.57-.34c-.28-.21-.37-.36-.29-.46s.88-.14,2-.14c2.29.06,6.4,0,11.32.38,8.73.61,17.54.74,26.35.87s17.67.12,26.56.14c10.63,0,21.69-.36,32.57-.63q17.92-.45,35.88-1l22.08-.74c11.14-.41,22.34-.8,33.4-1.28l25.53-1.27,5.59-.25c7-.22,9.28,0,10.78.64a5.14,5.14,0,0,1,1,.48c.62.52-2.16.76-7.28,1-15.16.78-31.18,1.57-47.27,2.21L206.36,460Z"/><g class="cls-2"><path class="cls-1" d="M149.22,316.39q-7.11.19-14.22.31c-1.73,0-3.45.11-5.18.12-6.1,0-12.19,0-18.27-.06-2.7,0-5.42,0-8.09.09-3.45.07-6.9.25-10.34.06-2.15-.13.55-2.21,4.52-2.27,7-.1,14.06,0,21.14.16,4.23.12,8.64-.05,13-.12,4.76-.07,9.52-.16,14.29-.3l8.79-.3c4.43-.18,8.89-.36,13.29-.65,3.42-.23,6.76-.59,10.14-.91l2.22-.22c2.78-.22,3.67-.13,4.31.4a2.54,2.54,0,0,1,.42.36c.29.42-.82.86-2.85,1.12-6,.8-12.4,1.25-18.81,1.62-4.76.27-9.55.46-14.33.65Z"/></g><g class="cls-2"><path class="cls-1" d="M268.21,310.37c2.44,0,4.88,0,7.31-.14.89,0,1.76-.18,2.65-.24a62.48,62.48,0,0,0,9.25-1.34,17.57,17.57,0,0,0,2-.55c.65-.22,1.32-.41,1.95-.66l2.44-1a18.59,18.59,0,0,1,2.44-1c1.07-.34.73,2.09-1.23,3a37.73,37.73,0,0,1-10.88,2.88c-2.22.27-4.51.66-6.79.86-1.25.11-2.5.15-3.75.22s-2.49.07-3.74.07c-1.54,0-3.07,0-4.6,0-2.32,0-4.64-.12-6.94-.13-1.78,0-3.53.1-5.29.16l-1.16,0c-1.45,0-1.9-.13-2.21-.7a2.4,2.4,0,0,1-.2-.39c-.14-.44.46-.8,1.52-.92a83.84,83.84,0,0,1,9.82-.27c2.46,0,4.94.1,7.4.08Z"/></g><path class="cls-1" d="M425.87,406c3.56,5.23,12.5,19.52,17.3,23.66,9.58,8.26,32-5.41,30.82-10-1.45-5.7-21.87,4-25.49,4-3.18,0-15.62-21.38-17.14-22.71C429.82,401.42,426.66,404.83,425.87,406Z"/><path class="cls-1" d="M461.26,418a51.8,51.8,0,0,1,6.64-1.52,14.94,14.94,0,0,1,3.69-.11,5.71,5.71,0,0,1,2.15.67,3.29,3.29,0,0,1,1.68,3.65,2.76,2.76,0,0,1-.17.59c-.07.18-.14.37-.22.53a9.1,9.1,0,0,1-1.11,1.61,17.5,17.5,0,0,1-2.56,2.41,35.07,35.07,0,0,1-6.3,4,33.65,33.65,0,0,1-12.57,3.54,16.33,16.33,0,0,1-6.68-1,11.26,11.26,0,0,1-3-1.76,20.86,20.86,0,0,1-2.35-2.35c-2.48-2.91-4.7-6-6.87-9-2.78-3.9-5.55-7.83-7.94-11.94-1.51-2.56,2.75-.87,5.78,3.71,2.71,4,5.39,8.06,8.24,11.92a44.32,44.32,0,0,0,4.48,5.35,9.38,9.38,0,0,0,2.6,1.66,12.62,12.62,0,0,0,3.16.79,20.77,20.77,0,0,0,8.33-1,39,39,0,0,0,8-3.58,28.18,28.18,0,0,0,4.27-3,12.54,12.54,0,0,0,1.72-1.79,2.48,2.48,0,0,0,.7-1.56,1.09,1.09,0,0,0-.79-.72,5.1,5.1,0,0,0-1.82-.23,20.63,20.63,0,0,0-4.19.56,118.56,118.56,0,0,0-11.59,3.44c-.93.3-1.87.61-2.82.89-.48.14-1,.27-1.46.39l-.76.16-.41.07c-.15,0-.35,0-.52,0a5.48,5.48,0,0,1-.56-.1,4.83,4.83,0,0,1-.52-.23,5.26,5.26,0,0,1-.78-.55,13.58,13.58,0,0,1-1.21-1.18c-.73-.81-1.4-1.64-2.05-2.48-1.29-1.69-2.51-3.41-3.7-5.13-2.72-3.91-5.36-7.78-8-11.57a4.14,4.14,0,0,0-.35-.45,3,3,0,0,0-.25-.25,1.44,1.44,0,0,0-.31.19c-.09.05-.91.75-1.33,1.13s-.87.78-1.21,1.05a3.67,3.67,0,0,1-1.7.86,5.66,5.66,0,0,1-.72.14c-.68,0-.1-1.7,1.92-3.85.2-.22.41-.43.63-.65l.33-.31.43-.39a10.1,10.1,0,0,1,2.59-1.48,14,14,0,0,1,1.59,1.72l1,1.37,1.62,2.29q1.57,2.31,3.17,4.66c2.12,3.11,4.26,6.28,6.54,9.23.6.77,1.22,1.52,1.85,2.19a9.41,9.41,0,0,0,.92.89,1.73,1.73,0,0,0,.19.15l.11.08h.07c.11,0,.2,0,.32-.05l.73-.17c.51-.13,1-.29,1.57-.45,1.06-.32,2.15-.68,3.23-1,2.18-.72,4.37-1.46,6.61-2.12Z"/><path class="cls-1" d="M413.91,412.4c3.85,3.76,9.75,30.14,19.68,33.78,9.6,3.5,38.2,1.06,39.09-2.64,1.94-8-18.43-7.42-23.08-7.42-5.05,0-9.63.79-13.31-3.34-6.7-7.54-8.53-16.16-13-24.77C420.88,409,416.25,412.88,413.91,412.4Z"/><path class="cls-1" d="M458.87,434.64a42.69,42.69,0,0,1,9,1.5,12.68,12.68,0,0,1,4.43,2.23,5.5,5.5,0,0,1,1.71,2.38,3.79,3.79,0,0,1,.21.75,3.33,3.33,0,0,1,.08.76,6.4,6.4,0,0,1,0,.76l-.15.84a3.66,3.66,0,0,1-1.83,2,7.49,7.49,0,0,1-.92.43q-.47.19-.9.33a29.12,29.12,0,0,1-3.5.91,79.25,79.25,0,0,1-9,1.25,104.82,104.82,0,0,1-15.85,0,40.1,40.1,0,0,1-7.95-1.36l-1-.34-1-.46-.93-.56-.86-.64a19.19,19.19,0,0,1-2.85-3,61.82,61.82,0,0,1-6.82-12.35c-1.2-2.73-2.34-5.47-3.44-8.22s-2.13-5.54-3.4-8c-.41-.71-.49-1-.29-1.21s.76-.12,1.49.41c1.47,1,3.26,3.54,4.53,6.7a164.7,164.7,0,0,0,7.1,16.4,26.47,26.47,0,0,0,4.94,6.86,9.34,9.34,0,0,0,1.55,1.16,6.34,6.34,0,0,0,.82.42c.28.13.63.23.94.35a29.5,29.5,0,0,0,4.22,1,64.84,64.84,0,0,0,10.86.62c3.69-.07,7.41-.33,11.05-.75,2-.24,4-.54,6-1a24.6,24.6,0,0,0,2.84-.78,11.7,11.7,0,0,0,1.22-.54,3.26,3.26,0,0,0,.33-.24.46.46,0,0,0,.15-.26,2.57,2.57,0,0,0,.06-.46,2.35,2.35,0,0,0,0-.53,1.78,1.78,0,0,0-.14-.5,2.09,2.09,0,0,0-.24-.47,4.9,4.9,0,0,0-1.91-1.57,20.14,20.14,0,0,0-5.5-1.67A86.66,86.66,0,0,0,449,437c-1.88,0-3.81.11-5.8-.07a11.3,11.3,0,0,1-5.74-2,11.87,11.87,0,0,1-2.18-2.12c-.64-.74-1.23-1.51-1.81-2.29a47.51,47.51,0,0,1-3.06-4.93c-1.42-2.63-2.63-5.31-3.8-8l-1.78-4-.91-1.95-.48-1-.24-.48-.1-.19-.18-.3s-.05-.12-.09-.12l-.16.09-.82.52a24.15,24.15,0,0,1-4.56,2.48,3.29,3.29,0,0,1-2.57.09,1.57,1.57,0,0,1-.69-.49c-.09-.15,0-.27.14-.38a5.8,5.8,0,0,1,.68-.37,35,35,0,0,0,3.14-1.9l1.6-1.08.82-.55.43-.28c.18-.12.48-.29.72-.43.5-.3,1-.55,1.54-.81l.8-.38s.07-.06.09,0l.05.09.1.19.21.38.85,1.55c.14.25.3.53.42.77l.23.46c1.22,2.42,2.3,4.92,3.37,7.4,2.14,4.94,4.38,9.79,7.76,13.78a11.77,11.77,0,0,0,1.85,1.92,7.5,7.5,0,0,0,2.16,1.16,16.54,16.54,0,0,0,5.47.59l3.1,0h3.08c2.08,0,4.16.07,6.26.22Z"/><path class="cls-1" d="M143.59,174.09a12.3,12.3,0,0,0,6.37-5.24,17.7,17.7,0,0,0,2.23-8.28,36.6,36.6,0,0,0-.39-6.51c-1.09-7.69-3.73-15.2-6.82-22.44-1.38-3.21-2.94-6.38-4.56-9.45-2.09-4-4.41-7.78-6.48-11.76-1.29-2.49,2.3-.48,4.88,4a140.22,140.22,0,0,1,11.45,25.24c1.71,5.3,3.41,10.9,3.91,16.68a27.91,27.91,0,0,1-.73,9.57,21.9,21.9,0,0,1-.82,2.31c-.32.75-.78,1.45-1.16,2.18s-1,1.33-1.54,1.94a20.35,20.35,0,0,1-1.85,1.63,14.45,14.45,0,0,1-2.59,1.53l-1.37.63-1.45.45a14.25,14.25,0,0,1-6,.16,25.58,25.58,0,0,1-8.27-3.24,63,63,0,0,1-7.19-5c-3.53-2.77-6.87-5.65-10.26-8.42-.75-.61-1.5-1.18-2.27-1.75-2.86-2.15-3.69-2.47-4.27-3.17-.14-.14-.36-.29-.47-.43s.1-.45.91-.47a6.69,6.69,0,0,1,3.13,1.1,43.44,43.44,0,0,1,5,3.59c1.58,1.29,3.13,2.61,4.7,3.93a101.1,101.1,0,0,0,9.7,7.49,30.31,30.31,0,0,0,7.95,3.87,16.39,16.39,0,0,0,4.2.6,12.13,12.13,0,0,0,4-.83Z"/><path class="cls-1" d="M96.08,152.15a8.31,8.31,0,0,0,4.83.82c1.83-.19,3.65-1,5.43-.17.67.32,3.2-.73,2.23-1.18-3.39-1.59-6.88,1.07-10.26-.66-.67-.33-3.2.7-2.23,1.19Z"/><path class="cls-1" d="M100.07,140.67A10.06,10.06,0,0,0,97,139.48a3.73,3.73,0,0,0-2.73,1.07c-1.18,1,.67,1.73,1.52,1,.21-.18.45-.33.65-.49-.21.17-.28,0,0,.11.77.31,1.51.67,2.27,1,.92.42,2.68-.9,1.35-1.51Z"/><path class="cls-1" d="M145.44,103.07c.38,4.88-5.76,7.06-10.08,8.26a24.25,24.25,0,0,1-8.28.74c-11.89-.87-29.58.82-29.52,16.32,0,3.13,0,9.35-1.23,11.13-.63,1-.75,1.13-2.15.64-1.93-21.07-4.36-49.92-4.4-50.33C94.45,83.32,142.86,70.12,145.44,103.07Z"/><path class="cls-1" d="M91.84,96.22l2.35,29.58q.45,5.4.92,10.78l.27,3.47-.8-1,.27.1.15,0c.1,0,.18-.06.24-.14a3.91,3.91,0,0,0,.54-1.37,25.35,25.35,0,0,0,.54-4.1c.09-1.41.14-2.84.16-4.27,0-.7,0-1.47.06-2.23a19.84,19.84,0,0,1,.32-2.28,14.23,14.23,0,0,1,4.53-7.93,20.55,20.55,0,0,1,8-4.17,40.74,40.74,0,0,1,8.52-1.46,66,66,0,0,1,8.55-.06,24.38,24.38,0,0,0,10.29-1.24,23.36,23.36,0,0,0,4.73-2,6.23,6.23,0,0,0,3-3.41,4.37,4.37,0,0,1,.15-.58,2.1,2.1,0,0,1,.1-.43q.12-.33.3-.33c.12,0,.26.13.4.39a3.51,3.51,0,0,1,.22.5c0,.19.07.43.1.7a4.72,4.72,0,0,1-.32,1.94,6.89,6.89,0,0,1-1.41,2.14,13.2,13.2,0,0,1-5.19,3.19q-1.37.5-2.73.87a22.71,22.71,0,0,1-2.88.65,26.69,26.69,0,0,1-5.85.26,62.13,62.13,0,0,0-10.74,0,30.73,30.73,0,0,0-10.14,2.53,15.46,15.46,0,0,0-4.15,2.85,11.71,11.71,0,0,0-2.71,4.15,13.91,13.91,0,0,0-.88,4.34c0,.74,0,1.58,0,2.4s0,1.64-.07,2.47a40.09,40.09,0,0,1-.48,5c-.09.44-.18.87-.32,1.33,0,.21-.17.46-.25.69a7.18,7.18,0,0,1-.42.76,2.46,2.46,0,0,1-1.51,1.21,2.56,2.56,0,0,1-1,0,4.43,4.43,0,0,1-.49-.13l-.36-.12-.69-.23-.06-.73c-.22-2.53-.43-5.07-.65-7.59L90,102.89l-.74-9.17-.19-2.29c0-.57-.53-2.05.62-2.74a15.85,15.85,0,0,1,4.12-2.6,56.1,56.1,0,0,1,13.5-4.1,60.81,60.81,0,0,1,14-1,38.11,38.11,0,0,1,10.67,2,26.36,26.36,0,0,1,2.52,1.06c.83.4,1.62.88,2.41,1.34a21,21,0,0,1,4.2,3.63l.8.93a9.91,9.91,0,0,1,.71,1,12.84,12.84,0,0,1,1.27,2.11,17.93,17.93,0,0,1,2,6.13,6,6,0,0,1,0,1.71,4.89,4.89,0,0,1-.25,1.16,5.53,5.53,0,0,1-.33.87c-.22.29-.5-.14-.81-1.14-.17-.5-.28-1.15-.52-1.91s-.45-1.63-.8-2.58a18.81,18.81,0,0,0-4.72-7.57,21.23,21.23,0,0,0-7.8-4.65c-5.9-2-12.55-2.18-19-1.42a61.41,61.41,0,0,0-14.11,3.39,34.49,34.49,0,0,0-3.28,1.42,14.07,14.07,0,0,0-2.79,1.77l-.07.06v0h0l0,.22.16,1.86.31,3.73Z"/><path class="cls-1" d="M150.33,242.81c-.83-2.33-1.69-4.66-2.65-6.94-.34-.84-.75-1.65-1.11-2.48-1.24-2.93-2.57-5.83-4-8.68-.62-1.28-1.36-2.49-2.08-3.7a48.59,48.59,0,0,1-2.75-4.68c-.25-.51.1-.65.68-.46a4.79,4.79,0,0,1,2.08,1.54,50,50,0,0,1,3,4.78,48.45,48.45,0,0,1,2.47,5.07c.89,2.07,2,4.15,2.9,6.26q1.5,3.48,2.82,7c.54,1.46,1.06,2.92,1.57,4.39.77,2.22,1.46,4.48,2.2,6.7.55,1.73,1.2,3.4,1.76,5.11.12.37.26.74.37,1.12.4,1.43.39,1.92-.06,2.36a2.72,2.72,0,0,1-.3.29c-.37.23-.86-.27-1.24-1.27-1.15-3-2.12-6.17-3.19-9.35-.78-2.36-1.58-4.73-2.45-7.07Z"/><path class="cls-1" d="M211.19,339a21.83,21.83,0,0,0-2.35-7.49c-.45-.88-1-1.71-1.46-2.57-.86-1.51-1.78-3-2.69-4.5s-1.85-3-2.62-4.65q-1-2.15-2-4.28l-1.25-2.71c-.38-.91-.72-1.84-1.05-2.78-.2-.58.13-.66.69-.34a5.36,5.36,0,0,1,1.91,2c1.7,3.76,3,7.45,5.11,10.92,1.19,2.14,2.68,4.23,3.93,6.44a39,39,0,0,1,1.89,3.77,23.79,23.79,0,0,1,1.23,4.07,47.39,47.39,0,0,1,.72,5.1,4.82,4.82,0,0,0,.16.84.85.85,0,0,0,.25.48.48.48,0,0,0,.49.06.93.93,0,0,0,.46-.36,7.91,7.91,0,0,0,1.12-3.37,13.49,13.49,0,0,0-.54-5.58c-.12-.39-.26-.77-.41-1.15-.56-1.4-.75-1.81-.54-2.35a1.91,1.91,0,0,1,.13-.36c.18-.33.87.05,1.5,1.17a13.7,13.7,0,0,1,1.59,5.48,14.8,14.8,0,0,1-.07,3,13,13,0,0,1-.75,3A5.65,5.65,0,0,1,216,344a3.12,3.12,0,0,1-.57.62,2.11,2.11,0,0,1-.89.46,2,2,0,0,1-1.87-.25,2.51,2.51,0,0,1-.63-.74l-.21-.47c0-.13-.07-.24-.11-.36a16.94,16.94,0,0,1-.3-2.2c-.08-.68-.17-1.35-.28-2Z"/><g class="cls-2"><path class="cls-1" d="M207.1,332.29c-.86-1.72-1.84-3.41-2.85-5.1-.37-.62-.79-1.2-1.16-1.83l-1-1.66c-.32-.58-.63-1.19-.9-1.79a31.5,31.5,0,0,1-1.32-3.7c-.33-1.1-.68-2.18-1.06-3.22-.48-1.35-1.1-2.6-1.48-3.94-.12-.42.39-.63,1-.51a2.36,2.36,0,0,1,1.76,1.39c1.15,2.88,1.69,5.72,2.58,8.4a11.54,11.54,0,0,0,1.1,2.3l1.44,2.3c1,1.69,2.08,3.41,3,5.19.6,1.1,1.15,2.19,1.67,3.35a28.61,28.61,0,0,1,1.62,5.48c.15.71.3,1.41.46,2.12s.29,1.46.42,2.07a4.52,4.52,0,0,0,.23.73c.07.18.14.23.1.27s-.13.23-.1.07c0,0,.13.26.31.47s.21.2.29.3a.45.45,0,0,1-.07.65,1.07,1.07,0,0,1-.65.29,1.56,1.56,0,0,1-1.16-.37,3,3,0,0,1-.82-1.27,7.81,7.81,0,0,1-.31-1.11c-.12-.63-.24-1.26-.37-1.89-.24-1.27-.49-2.53-.81-3.75a22,22,0,0,0-2.09-5.21Z"/></g><path class="cls-1" d="M219.22,344.59a35.19,35.19,0,0,0,.94-4.72c.08-.58.11-1.17.16-1.75.21-1.88-.57-3.9-1.41-5.76a18.73,18.73,0,0,0-1.35-2.4c-.65-1-1.39-1.9-2-2.92-.39-.63,1.22-.7,2.05.46a23,23,0,0,1,3.38,6.7,22.54,22.54,0,0,1,.55,2.29,6.41,6.41,0,0,1,.09,1.24c0,.4,0,.78-.08,1.16a41.64,41.64,0,0,1-.8,5,21.83,21.83,0,0,1-.91,3,5.06,5.06,0,0,1-1.39,2.08,1.6,1.6,0,0,1-1.42.3,1.89,1.89,0,0,1-1.12-.86,4.75,4.75,0,0,1-.57-1.87,9.54,9.54,0,0,1,0-1.85c0-.27,0-.54.08-.81.19-1,.43-1.32.84-1.38a1.33,1.33,0,0,1,.28,0c.28.06.32.45.23,1.09a12.16,12.16,0,0,0,0,2.95,3.16,3.16,0,0,0,.34,1.21.51.51,0,0,0,.45.3c.15,0,.68-.53,1-1.2a14.47,14.47,0,0,0,.76-2.19Z"/><path class="cls-1" d="M223.28,340.48a15.34,15.34,0,0,0,.51-4c0-.49-.09-1-.14-1.45a17.4,17.4,0,0,0-.58-2.56l-.7-2.58c-.21-.76-.5-1.54-.76-2.27a11.83,11.83,0,0,0-1.28-2.54c-.16-.21,0-.43.42-.43a1.61,1.61,0,0,1,1.3.9,17.7,17.7,0,0,1,1.11,3c.29,1,.55,2,.78,3,.14.62.33,1.24.51,1.86a13.39,13.39,0,0,1,.37,2,14.33,14.33,0,0,1-.25,4.34c-.18.87-.41,1.71-.66,2.55l-.6,1.88a17.77,17.77,0,0,1-.65,1.9,5.43,5.43,0,0,1-.84,1.38,5.35,5.35,0,0,1-.58.59,1.6,1.6,0,0,1-.92.41,1.32,1.32,0,0,1-1-.31,1.37,1.37,0,0,1-.46-1.1.52.52,0,0,1,.29-.46.84.84,0,0,1,.22-.1c.25,0,.35.33.54.66a.47.47,0,0,0,.21.2.49.49,0,0,0,.18,0,2.45,2.45,0,0,0,.7-.66,5.82,5.82,0,0,0,1-2.24c.41-1.37.87-2.66,1.18-4Z"/><path class="cls-1" d="M213,303.41a42.61,42.61,0,0,0-5.51-6.45c-2-2-4.21-3.95-6.43-5.82-1.62-1.37-3.32-2.64-5-4-5.87-4.65-11.93-9.1-18-13.5-2.71-1.95-5.47-3.85-8.19-5.76-1.74-1.22-3.5-2.44-5.22-3.73a31.86,31.86,0,0,1-4.88-4.31c-.9-1.18-.25-1.26.83-.81a20.83,20.83,0,0,1,4.87,2.8c6.86,5.17,14,10.09,21,15.45,4.17,3.2,8.63,6.36,12.83,9.72a101,101,0,0,1,13.08,12.1c.61.68,1.17,1.44,1.73,2.18s1,1.54,1.52,2.32q1.42,2.34,2.76,4.71c2.73,4.79,5.32,9.66,7.8,14.54.48,1,1,1.89,1.39,2.91a3.78,3.78,0,0,1,.27.89l.14.77.29,1.55c.38,2.07.72,4.15.92,6.28a26.35,26.35,0,0,1,.14,2.84,6.49,6.49,0,0,1-1,4c-.87,1-1.79.74-2.15.38a1.31,1.31,0,0,1-.39-.51c0-.13,0-.22.17-.28s.34-.08.49-.15c.37-.2.5-.38.71-1.54a22.48,22.48,0,0,0-.14-5.34c-.22-1.86-.53-3.74-.86-5.64l-.26-1.44-.12-.75-.16-.38c-.33-.8-.79-1.7-1.21-2.56-.88-1.74-1.8-3.48-2.72-5.22-2.77-5.14-5.59-10.38-8.7-15.25Z"/><path class="cls-1" d="M201.68,251.35a12,12,0,0,1-2,1.36c-.12,0-.17.09-.34.15a2.57,2.57,0,0,1-.47.15,1.4,1.4,0,0,1-.91-.09,1.12,1.12,0,0,1-.57-.69,2.42,2.42,0,0,1-.07-.92,6.53,6.53,0,0,1,.45-1.79,8.38,8.38,0,0,1,1.8-2.51,19.46,19.46,0,0,1,2.27-1.91c.7-.51,1.4-1,2.11-1.52a16.23,16.23,0,0,1,2.82-1.72c.62-.27.45,1.16-.59,1.82a49.57,49.57,0,0,0-5.36,3.72,6.66,6.66,0,0,0-2.13,3.1,5.52,5.52,0,0,0-.2.94c0,.15,0,.33.15.36s.92-.36,1.48-.77a24.9,24.9,0,0,0,2.1-1.77,12.36,12.36,0,0,1,1.63-1.4c.58-.43,1.18-.82,1.77-1.2l2.71-1.79.59-.39c.76-.45,1-.52,1.37-.33a1.59,1.59,0,0,1,.22.13c.2.17,0,.54-.54.92-1.56,1.13-3.3,2.15-4.92,3.27a11.92,11.92,0,0,0-1.65,1.34c-.55.54-1.13,1.06-1.73,1.56Z"/><path class="cls-1" d="M208.2,250.9c-1,.73-2,1.48-3,2.2-.37.26-.74.54-1.13.79a3.57,3.57,0,0,1-2.68.55,1.61,1.61,0,0,1-1.2-1,1.68,1.68,0,0,1,0-.8,4.28,4.28,0,0,1,.24-.66,8.79,8.79,0,0,1,1.36-1.79,8.45,8.45,0,0,1,2.16-1.7c.25-.14.34,0,.28.36a2.45,2.45,0,0,1-.6,1.13,11.79,11.79,0,0,1-.93.94,9.17,9.17,0,0,0-.85.93,3.16,3.16,0,0,0-.57.93c-.07.29-.09.39.09.55a1.42,1.42,0,0,0,1.21.12,4.12,4.12,0,0,0,1.34-.7c1-.68,2-1.43,3-2.18l1.86-1.38a30.54,30.54,0,0,1,3-1.9,15.39,15.39,0,0,1,2.5-1.16,5.69,5.69,0,0,1,.59-.16c.76-.18,1-.06,1.2.2a1.18,1.18,0,0,1,.11.19c.07.22-.21.44-.69.54a16,16,0,0,0-4.21,1.95c-1,.64-2,1.36-3,2.11Z"/><path class="cls-1" d="M211.85,253c-.95.59-1.89,1.19-2.89,1.77-.36.21-.7.43-1.08.63a7.62,7.62,0,0,1-2.18.77,1.84,1.84,0,0,1-1.34-.23,1.61,1.61,0,0,1-.61-1.23,2.52,2.52,0,0,1,.14-1.11,4.17,4.17,0,0,1,.51-.93,5.21,5.21,0,0,1,2-1.65c.25-.11.31.1.24.38a2.11,2.11,0,0,1-.55,1,5.72,5.72,0,0,0-1.25,1.68,1.82,1.82,0,0,0,0,.84c.07.21.1.29.42.35a2.78,2.78,0,0,0,1.28-.28,12.74,12.74,0,0,0,1.33-.67c1-.52,1.91-1.14,2.88-1.74l1.77-1.11c.89-.57,1.8-1.11,2.71-1.65.7-.42,1.37-.88,2.13-1.24a2.94,2.94,0,0,1,.51-.23c.66-.26,1.06-.15,1.17.14a.77.77,0,0,1,.05.19.44.44,0,0,1-.18.25.54.54,0,0,1-.15.09,1.33,1.33,0,0,1-.24.11,40.83,40.83,0,0,0-3.73,2.11c-.95.59-1.91,1.18-2.86,1.79Z"/><path class="cls-1" d="M108.1,219c-1-4.11-1.89-8.26-2.56-12.44-.33-2.09-.64-4.19-.88-6.29a21.36,21.36,0,0,1-.19-3.34c0-.57.07-1.12.1-1.68s.15-1.11.24-1.65a24.29,24.29,0,0,1,2.08-6.32,18.49,18.49,0,0,1,4-5.45,12.27,12.27,0,0,1,6.15-3.21,16.43,16.43,0,0,1,6.76.39,43.09,43.09,0,0,1,8.81,3.39,86.52,86.52,0,0,1,8.07,4.63c9.15,5.91,17.59,12.69,26,19.49s16.58,13.82,25.09,20.4a114.92,114.92,0,0,0,11.71,8.13,24.69,24.69,0,0,0,6.3,2.78,6.6,6.6,0,0,0,1.57.19A6.93,6.93,0,0,0,212,238l.89-.13a27.49,27.49,0,0,1,3.67-.35,14.45,14.45,0,0,1,4.81.66,11.06,11.06,0,0,1,4.26,2.52,12.5,12.5,0,0,1,1.61,1.88,6.9,6.9,0,0,1,.71,1.14,3.39,3.39,0,0,1,.27,1.56,5.33,5.33,0,0,1-1,2.6,12.34,12.34,0,0,1-1.61,1.89,35.49,35.49,0,0,1-7.7,5.41c-.69.37-1.38.72-2.12,1s-1.39.64-2.13.93a7.88,7.88,0,0,1-2.54.63,2.09,2.09,0,0,1-1-.25,2.26,2.26,0,0,1-.28-.2l-.17-.19a1.57,1.57,0,0,1-.29-.5,1.39,1.39,0,0,1-.09-.68,1.59,1.59,0,0,1,.18-.57,2.2,2.2,0,0,1,.55-.68,6.2,6.2,0,0,1,1.95-1.12c.41-.14.5-.11.58,0s0,.34-.32.69-.83.78-1.28,1.36a1,1,0,0,0-.2.4.07.07,0,0,0,0,.09s0,0,0,0h0l.06,0,0,0h0l-.12.14h0l0,0c.05-.05.06-.13.08-.16l0,0a3.5,3.5,0,0,0,.52-.15,23.43,23.43,0,0,0,3.13-1.63,62.13,62.13,0,0,0,7.62-5.08,13.74,13.74,0,0,0,2.88-2.94,2.6,2.6,0,0,0,.49-1.26c0-.14,0-.24-.1-.35l0,0-.07-.11-.15-.21-.29-.41a9,9,0,0,0-2.92-2.63,10,10,0,0,0-3.81-1.15,17.6,17.6,0,0,0-4.27.13l-1.13.15-.57.08-.76.08a9.43,9.43,0,0,1-2.79-.36,22.77,22.77,0,0,1-4.65-1.91c-1.44-.76-2.81-1.59-4.15-2.44a186.81,186.81,0,0,1-15.15-11.3c-4.88-3.95-9.68-8-14.5-12-5.75-4.82-11.69-9.64-17.82-14.28a163.82,163.82,0,0,0-19.1-12.73A40.72,40.72,0,0,0,122,181a11.67,11.67,0,0,0-5.74.21,11.05,11.05,0,0,0-4.72,3.28,20.33,20.33,0,0,0-4.6,11,17.72,17.72,0,0,0-.07,3c.06,1,.22,2.06.34,3.09q.41,3.12,1,6.22c.89,5.09,2,10.14,3.44,15.12a137,137,0,0,0,5,14.68,120.3,120.3,0,0,0,10.75,20.86c1.08,1.62,2.12,3.29,3.33,4.82l1.77,2.34c.29.38.58.78.89,1.16l1,1.09,1.91,2.19c.65.73,1.38,1.37,2.06,2.05s1.36,1.38,2.12,2l2.23,1.85a80.53,80.53,0,0,0,15.25,9.35c5.37,2.62,10.89,4.89,16.39,7.37,2.41,1.1,4.8,2.15,7.18,3.4a67.81,67.81,0,0,1,9.12,5.39,16.11,16.11,0,0,1,2.2,1.77,12.29,12.29,0,0,1,1.31,1.42,11.11,11.11,0,0,1,.88,1.17c.23.47-.53.2-2.08-.68-.79-.43-1.73-1.07-2.92-1.74s-2.55-1.51-4.12-2.37c-9.26-5.23-19.64-8.92-29.78-14a84.63,84.63,0,0,1-14.6-9c-1.11-.93-2.25-1.83-3.34-2.8l-3.13-3c-1-1.07-1.94-2.18-2.9-3.27l-.72-.83-.65-.86-1.31-1.73a115,115,0,0,1-13-22.16,144.29,144.29,0,0,1-8.33-24.27Z"/><g class="cls-2"><path class="cls-1" d="M224.39,252.18a34.65,34.65,0,0,1-2.9,2.12c-.37.23-.69.52-1.07.73a29.67,29.67,0,0,1-4.13,2c-.63.25-1.25.54-1.91.78a7.65,7.65,0,0,1-1.33.41,2.5,2.5,0,0,1-1.57-.15c-.37-.18,0-.65.3-1.12s.51-1,.81-1a32.2,32.2,0,0,0,4.4-1.37,12.66,12.66,0,0,0,2.64-1.51,31.1,31.1,0,0,0,2.76-1.94c.54-.44,1.07-.88,1.56-1.36a10.89,10.89,0,0,0,1.94-2.38,3.76,3.76,0,0,0,.48-2.06,2,2,0,0,0-.07-.37c-.08-.42,0-.54.42-.94l.3-.27c.32-.3.85-.21,1.17.44a4.07,4.07,0,0,1,.07,3A8.39,8.39,0,0,1,227,249.5a18.42,18.42,0,0,1-2.57,2.71Z"/></g><g class="cls-3"><path class="cls-1" d="M168.22,294.14c-3.31-1.43-6.65-2.9-9.91-4.56-1.17-.63-2.41-1.13-3.55-1.83a70.27,70.27,0,0,1-11.47-8.18c-.78-.69-1.57-1.36-2.37-2l-2.26-2.13a42.58,42.58,0,0,1-5.45-5.78c-1-1.31,2-1.11,4,1.06a104.8,104.8,0,0,0,11.62,10.75,44,44,0,0,0,4,2.77c1.41.83,2.85,1.62,4.28,2.41,3.17,1.68,6.45,3.2,9.78,4.64l6.17,2.65c1.57.65,3.11,1.4,4.66,2.1s3.07,1.48,4.58,2.25c1.16.63,2.33,1.21,3.49,1.81l3.4,1.93c.51.28,1,.6,1.46.92,1.77,1.22,2.25,1.74,2.28,2.46a2.6,2.6,0,0,1,0,.48c-.1.47-1,.26-2.35-.53-1.94-1.21-4-2.32-6-3.51l-3.16-1.67c-1.05-.56-2.16-1-3.24-1.59-3.23-1.54-6.55-3-9.92-4.37Z"/></g><path class="cls-1" d="M205.42,296.87c-.67.79-1.38,1.55-2.11,2.29-.26.27-.5.57-.78.83a23.47,23.47,0,0,1-3.21,2.42c-.51.32-1,.7-1.46,1a4.43,4.43,0,0,1-2,1.08c-.48.06-.91-2.32-.29-2.67,1.15-.68,2.32-1.33,3.58-2a9.09,9.09,0,0,0,2-1.72c.69-.67,1.36-1.38,2-2.12.38-.46.78-.92,1.14-1.41a13.49,13.49,0,0,0,2.47-4.26,3.68,3.68,0,0,1,.21-.45c.3-.53.58-.62,1.16-.33a2.87,2.87,0,0,1,.39.2,1,1,0,0,1,.51,1.09,12.41,12.41,0,0,1-1.69,3.58c-.56.86-1.17,1.7-1.82,2.52Z"/><path class="cls-1" d="M248.8,259.51c-1.83-.56-3.67-1.12-5.5-1.75-.66-.22-1.33-.37-2-.6-2.32-.79-4.68-1.61-7-2.62-1-.45-2.05-.88-3.05-1.37a11.82,11.82,0,0,1-3.6-2.36c-.31-.33.09-.72.71-.92a2.47,2.47,0,0,1,2,.17,56.24,56.24,0,0,0,7.27,3.7,47.59,47.59,0,0,0,4.94,1.62c1.85.61,3.63,1.2,5.48,1.74l3.41,1c1.73.51,3.45,1.08,5.16,1.63,1.33.42,2.67.77,4,1.27.29.1.58.2.87.33,1.06.47,1.31.82,1.24,1.42a1.77,1.77,0,0,1-.05.41c-.13.44-.71.53-1.46.27-2.26-.73-4.6-1.54-7-2.28q-2.7-.82-5.48-1.61Z"/><path class="cls-1" d="M300.39,276.89a26.17,26.17,0,0,0-12.18-8.68,51.65,51.65,0,0,0-15.32-2.95c-3.82-.18-7.76,0-11.65,0q-20.69.16-41.38.66c-6.12.15-12.28.38-18.35.63-7.8.33-15.62.8-23.43.81-4.87,0,1.2-2.8,10.19-3.16,15.94-.62,31.87-1,48-1.13,9.61,0,19.62-.42,29.47-.48,2.7,0,5.44,0,8.18.17a62.86,62.86,0,0,1,8.19,1.07,43.76,43.76,0,0,1,8,2.32,32.85,32.85,0,0,1,7.3,4.06,25.1,25.1,0,0,1,6.85,7.72,23.09,23.09,0,0,1,2.79,9.92,20.87,20.87,0,0,1-4.71,14.68,12.36,12.36,0,0,1-3.11,2.54,15.72,15.72,0,0,1-1.76.85c-.59.26-1.16.55-1.76.78a48.87,48.87,0,0,1-7.32,2.21,103.67,103.67,0,0,1-23.16,2c-1.7,0-3.37,0-5.07-.06-6.33-.17-8.31-.38-9.66-1.11a6.46,6.46,0,0,1-.9-.5c-.6-.55,2-1,6.65-1,6.88,0,13.91.16,20.93-.33s14.06-1.73,20.27-4.82a10.44,10.44,0,0,0,2.71-2,14.16,14.16,0,0,0,2.05-2.92,18.79,18.79,0,0,0,2.1-7.05,20,20,0,0,0-3.9-14.07Z"/><path class="cls-1" d="M105.77,271.29c-3.07,0-6.15,0-9.22.12-1.12,0-2.24.13-3.36.15-4,.08-7.91.16-11.86.34-1.75.08-3.51.25-5.24.44a49.91,49.91,0,0,1-6.69.58c-1.4,0,.09-2.78,2.68-3.05a115.22,115.22,0,0,1,13.8-.65c2.77,0,5.63-.25,8.46-.33,3.11-.1,6.22-.16,9.33-.2l5.74-.06c2.89,0,5.8,0,8.68-.11,2.23-.07,4.42-.27,6.63-.41.48,0,1-.08,1.45-.09,1.82-.06,2.4.12,2.79.83a2.84,2.84,0,0,1,.25.49c.18.55-.56,1-1.89,1.17a121.52,121.52,0,0,1-12.24.7l-9.3.15Z"/><path class="cls-1" d="M149.22,314.38c-4.74.12-9.48.22-14.21.27-1.73,0-3.46.12-5.19.13-6.09,0-12.18-.06-18.27-.1-2.7,0-5.42,0-8.09.09-3.44.07-6.9.28-10.34.05-2.14-.14.55-2.49,4.52-2.54,7-.11,14,0,21.14.2,4.23.14,8.64,0,13-.1,4.76-.07,9.52-.15,14.28-.28l8.79-.29c4.44-.18,8.9-.35,13.3-.65,3.41-.23,6.76-.6,10.13-.93l2.22-.23c2.78-.22,3.67-.12,4.31.48a2.42,2.42,0,0,1,.43.41c.3.47-.81,1-2.84,1.24-6,.84-12.4,1.3-18.81,1.67-4.76.27-9.55.45-14.33.64Z"/><path class="cls-1" d="M296.5,305.81c1.19.36,3-.23,5.21.22,14.29,2.86,46.35,9.31,50.61,14.41,4.94,5.91,53.92,98.16,57.39,96.26,5.56-3,22.63-13.37,25.16-20.95-3.7-9-33-65.58-44.18-87.66-4.28-8.46-9.58-18.32-17.9-23.39-18.66-11.37-79.7-16.22-83.39-17.37C298.56,267.33,318.29,289.65,296.5,305.81Z"/><path class="cls-1" d="M399.46,322c10.74,21.22,21.6,42.38,32.09,63.76.94,2,1.9,3.91,2.82,5.89.48,1,.92,2,1.38,3l.28.63.14.33a.58.58,0,0,1,.06.17l-.07.16-.52,1.19a8.18,8.18,0,0,1-.86,1.57,27.06,27.06,0,0,1-4.44,5.16,60.17,60.17,0,0,1-5.08,4.25c-2.32,1.76-4.7,3.4-7.14,5-1.21.77-2.44,1.54-3.68,2.28l-1.87,1.1-2.18,1.22a2.61,2.61,0,0,1-.88.23,1.94,1.94,0,0,1-.87-.31,6,6,0,0,1-1.27-1.16c-.56-.64-1-1.27-1.51-1.92-.93-1.29-1.79-2.59-2.64-3.91-1.7-2.63-3.32-5.29-4.92-8-3.2-5.34-6.3-10.73-9.37-16.14-6.15-10.81-12.17-21.68-18.21-32.53-3.3-5.93-6.62-11.87-10-17.77-1.68-2.95-3.36-5.89-5.08-8.8q-1.28-2.19-2.61-4.32c-.44-.69-.91-1.42-1.36-2a7,7,0,0,0-1.74-1.34,36.31,36.31,0,0,0-5.8-2.49c-2-.71-4.07-1.34-6.14-1.93-4.15-1.17-8.34-2.21-12.55-3.2s-8.43-1.91-12.66-2.82l-6.34-1.36-3.17-.67-1.59-.34a9.3,9.3,0,0,0-1.47-.21c-1.23-.06-2.22,0-2.92-.08s-1-.36-.93-.44.5-.12,1.12-.26a20.87,20.87,0,0,1,2.68-.52,9.42,9.42,0,0,1,2,0l2.22.23c1.58.17,3.37.4,5.31.69,3.88.57,8.42,1.37,13.3,2.48,4.32,1,8.63,2,12.93,3.2a96.31,96.31,0,0,1,12.79,4.25A21.64,21.64,0,0,1,351.9,318a8,8,0,0,1,1.6,1.35,15.19,15.19,0,0,1,1.1,1.51c1.24,1.92,2.35,3.83,3.47,5.75,2.23,3.83,4.4,7.69,6.57,11.55l25.84,46.53c3.06,5.44,6.19,10.92,9.45,16.37,1.64,2.72,3.29,5.44,5,8.1.87,1.34,1.75,2.66,2.67,3.93.46.63.93,1.25,1.41,1.81l.32.35a.86.86,0,0,0,.14.13.4.4,0,0,0,.17.09.34.34,0,0,0,.17-.08l1.19-.67,1.46-.85c1-.57,1.92-1.17,2.87-1.76,1.91-1.2,3.77-2.45,5.61-3.73a61.78,61.78,0,0,0,10.1-8.61c.48-.54.89-1.11,1.34-1.66l.55-.88a4.86,4.86,0,0,0,.49-.89c.16-.38.19-.42.24-.54l-.27-.61c-.29-.68-.58-1.35-.91-2-1.25-2.7-2.56-5.39-3.87-8.07-2.63-5.38-5.32-10.73-8-16.09l-16.24-32.07-10-19.72-5-9.87c-1.67-3.27-3.39-6.51-5.35-9.58-2.95-4.64-6.48-9-11-12a41,41,0,0,0-7.38-3.6c-2.57-1-5.23-1.83-7.89-2.61a270.23,270.23,0,0,0-32.62-6.67c-6-.91-12-1.69-17.95-2.41l-8.95-1-4.46-.51-2.24-.28-1.13-.17-.58-.09-.64-.14-8.23-1.85,8.5.06a10,10,0,0,1,4,1,20,20,0,0,1,3.42,2,27.31,27.31,0,0,1,5.54,5.46,24.5,24.5,0,0,1,4.8,10.55,18.63,18.63,0,0,1-.66,9.26,19.79,19.79,0,0,1-3,5.57,16.41,16.41,0,0,1-5.09,4.49c-.64.32-1.44.78-1.84.91-.68.2.09-.61,1.84-2.37a30.58,30.58,0,0,0,3-3.59,19.83,19.83,0,0,0,2.92-5.71,16.84,16.84,0,0,0,.49-7.95,21.62,21.62,0,0,0-3-7.6,28,28,0,0,0-2.48-3.36,27.4,27.4,0,0,0-3-2.91,19.42,19.42,0,0,0-3.44-2.26,8.85,8.85,0,0,0-3.61-1l.44-2.93.31.07.4.07.87.13,1.79.23,3.64.43,7.33.86c4.92.59,9.85,1.21,14.81,1.9,9.9,1.39,19.87,3,29.77,5.21,2.94.67,5.88,1.38,8.8,2.21s5.83,1.71,8.69,2.81a43.29,43.29,0,0,1,8.39,4.14,33.68,33.68,0,0,1,6.95,6.35c4,4.77,7,10.18,9.75,15.54l8.16,16.06Z"/><path class="cls-1" d="M97.45,436.91c2.74,15.53,0,20.58,0,20.58-5,2.95-13.47,1.26-15.58,0s-1.68-20.84-1.47-22.1Z"/><path class="cls-1" d="M82.15,447.88c0,1.64.06,3.27.18,4.86.06.8.15,1.59.27,2.32a9.62,9.62,0,0,0,.22,1c0,.11.05.19.13.24l.1.06.3.13c.21.1.47.17.69.26a21.66,21.66,0,0,0,3.88.76,18.13,18.13,0,0,0,6.9-.26,7.24,7.24,0,0,0,.79-.25c.13-.05.27-.08.39-.14l.28-.12c.09,0,.25-.08.28-.21s0-.11.07-.17.09-.24.13-.37a19.21,19.21,0,0,0,.69-3.47,33.3,33.3,0,0,0,0-6.47c-.24-2.77-.79-5.52-1-8.32-.11-1.76,3.11-.08,3.58,3.26a50.85,50.85,0,0,1,.5,8.92,31,31,0,0,1-.5,4.57,20.23,20.23,0,0,1-.61,2.31,10,10,0,0,1-.66,1.57c-.1.34-.45.42-.72.58l-.46.22-.37.16a18.15,18.15,0,0,1-5.69,1.16,23.64,23.64,0,0,1-5.65-.34,20.18,20.18,0,0,1-2.24-.53c-.37-.1-.74-.23-1.11-.37-.19-.06-.39-.15-.58-.23s-.48-.24-.73-.37A3.68,3.68,0,0,1,80,456.32a16.62,16.62,0,0,1-.34-2c-.15-1.28-.23-2.54-.28-3.79-.1-2.45-.1-4.87-.09-7.3,0-1.83.07-3.67.14-5.5l0-.88c0-.32,0-.65.06-1l.1-.94,0-.47a3.77,3.77,0,0,1,.47,0c.61,0,1.25.06,1.9.13l1.52.13c2.81.21,5.58.26,8.36.38.62,0,1.22,0,1.84.06,2.28.16,3,.42,3.41,1.24a3.25,3.25,0,0,1,.28.56c.16.63-.81,1-2.5,1.07-2.5,0-5.06,0-7.65-.18l-3.9-.27-1-.07H82.3s0-.05,0,.13l0,1.44,0,2.91c0,1.94,0,3.88,0,5.81Z"/><path class="cls-1" d="M278.39,432.9c-2.74,15.53,0,19.58,0,19.58,5.05,2.95,13.47,1.26,15.58,0s.95-21.57.74-22.83Z"/><path class="cls-1" d="M297.05,442.38c-.05,2-.14,3.91-.34,5.9a24.35,24.35,0,0,1-.49,3.09,8,8,0,0,1-.3.95,5.18,5.18,0,0,1-.28.58,6,6,0,0,1-.38.5,3.88,3.88,0,0,1-1,.7c-.2.09-.33.13-.46.18l-.4.15a22.26,22.26,0,0,1-4.42,1,21.89,21.89,0,0,1-7.88-.53l-1-.3-1-.39a9.76,9.76,0,0,1-1.05-.54,2.17,2.17,0,0,1-.6-.4,6.49,6.49,0,0,1-.33-.64c-.09-.2-.2-.52-.24-.65l-.15-.5q-.12-.5-.21-1c-.12-.65-.2-1.3-.26-1.94a56.7,56.7,0,0,1-.1-6.76,35.69,35.69,0,0,1,1.06-8.45c.5-1.7,2.87,1,2.48,4.08a77.43,77.43,0,0,0-.61,8.26,28.65,28.65,0,0,0,.22,4c0,.33.1.63.15.93s.17.66.14.62.05.13.08.17l.13.08.19.12.43.2a11.79,11.79,0,0,0,4.63,1,26,26,0,0,0,5-.41,16.78,16.78,0,0,0,2.58-.67l.26-.09.12-.05a.39.39,0,0,0,.2-.18,1,1,0,0,0,.12-.29c.06-.17.11-.4.16-.6a38,38,0,0,0,.57-5.58c.1-2.36.12-4.73.09-7.1,0-1.8-.07-3.6-.15-5.4l0-.92a4.35,4.35,0,0,0-.07-.75l-1.7.34c-2.73.58-5.37,1.31-8,2-.59.14-1.16.32-1.76.45-2.22.49-3,.44-3.59-.24a2.54,2.54,0,0,1-.42-.46c-.34-.55.47-1.22,2.07-1.72,2.36-.74,4.81-1.38,7.31-2,1.25-.29,2.52-.57,3.79-.84l1.37-.28c.63-.12,1.29-.29,1.89-.36l.91-.13.46-.07.23,0a.67.67,0,0,1,0,.22l.24,1.84c.07.45.09.95.13,1.42l.08,1.22.07,1.47.09,2.94c.05,2,.06,3.93,0,5.9Z"/><path class="cls-1" d="M115.28,130.53c2.16,3.07,5.91,7.86,10.14,7.42,7.17-.76,1-8.26-.15-11.49-.24-.68-2.39,0-2.17.59.62,1.75,1.9,3.31,2.69,5s2.07,5.81-1.33,4.46c-2.94-1.16-5.38-4.28-7.15-6.8-.38-.53-2.49.17-2,.82Z"/><path class="cls-1" d="M128.62,125.31c1.66,3,4.69,7.74,8.66,7.13,6.78-1.05,1.18-7.78,0-11.13-.18-.56-2.34.08-2.17.58.55,1.62,1.69,3.07,2.4,4.63.48,1,2.09,5.38-.46,4.92-1.72-.32-3.29-2.39-4.28-3.67a24.59,24.59,0,0,1-2-3c-.32-.57-2.38.21-2.18.58Z"/><path class="cls-1" d="M132,132a31.88,31.88,0,0,1-2.93-5.51,16,16,0,0,1-.78-2.21,9.2,9.2,0,0,1-.28-2.13,7.71,7.71,0,0,1,.24-2.22,6,6,0,0,1,2.76-3.42,12.93,12.93,0,0,1,3.4-1.4,11.1,11.1,0,0,1,4.54-.42c.49.09.37.65,0,1.18a2.7,2.7,0,0,1-1.8,1.14c-2.69.27-5.49.92-6.66,2.87l-.24.47a2.93,2.93,0,0,0-.12.53,4.85,4.85,0,0,0-.09.55l0,.59a8.29,8.29,0,0,0,.5,2.43,24.91,24.91,0,0,0,2.49,5.25,35.71,35.71,0,0,0,2.07,3,31.37,31.37,0,0,0,3.69,4.11,16.61,16.61,0,0,0,3.41,2.35c.26.13.52.24.78.35,1,.41,1.11.52,1.29,1.12.05.13.12.27.16.4a.48.48,0,0,1-.31.58,2,2,0,0,1-1.25.06A11.05,11.05,0,0,1,139,139.7a25.49,25.49,0,0,1-3.15-2.82A39.14,39.14,0,0,1,132,132Z"/><path class="cls-1" d="M123,118.48c-.54,1.33-.91,1.59-1.31,1.61-1.32.1-2.63.23-3.9.43a20.72,20.72,0,0,0-3.25.62A10.07,10.07,0,0,0,110,124a6,6,0,0,0-1.44,2.69c0,.09,0,.18-.1.24a1.37,1.37,0,0,1-1.23-.29c-.08-.07-.23-.17-.22-.21.14-.42-.46-1.08-.24-1.56s.47-.84.66-1.29a5.63,5.63,0,0,1,.76-1.27,3.32,3.32,0,0,1,.82-.85c.42-.29.86-.54,1.28-.79a21.64,21.64,0,0,1,2.22-1.17,17.21,17.21,0,0,1,4-1.18,22.82,22.82,0,0,1,5.74-.31A3,3,0,0,1,123,118.48Z"/><path class="cls-1" d="M143.12,155.3s0,0,0-.05-.15-.07-.23,0,.05.09.07.14a.76.76,0,0,0,.11.16l.09.06s.13,0,0,0c.09,0,.22-.23.13-.39a.71.71,0,0,0-.43-.27.36.36,0,0,0-.27,0l0,.05s0,0,0,0h0l-.23-.08h.05l.14,0h0s0,.06,0,.09a1,1,0,0,1-.82.18.81.81,0,0,1-.6-.36,2.12,2.12,0,0,1-.11-.21,1,1,0,0,1,0-.3.65.65,0,0,1,.1-.39,2.13,2.13,0,0,1,.49-.46,2.29,2.29,0,0,1,.74-.22,2.93,2.93,0,0,1,2,.77,1.8,1.8,0,0,1,0,2.75,2.07,2.07,0,0,1-.32.19l-.3.1-.21,0a1.74,1.74,0,0,1-.74-.14,2.69,2.69,0,0,1-1.2-1,1.23,1.23,0,0,1-.21-.78c.07-.21.15-.15.22-.05a2,2,0,0,1,.16.31s0,0,.08.11l.19.2.39.39c0,.06.16.12.15.19l0,0,.08.06a.07.07,0,0,1,0,.07.5.5,0,0,1-.53,0,1.36,1.36,0,0,1-.53-.73,2.19,2.19,0,0,1-.1-.65l0-.43.35-.12a1.73,1.73,0,0,1,1-.1,1.09,1.09,0,0,1,.56.38,1.53,1.53,0,0,1,.23.49,4.54,4.54,0,0,1,.1.67l.06.52h-1.1a2.63,2.63,0,0,1-.48-.06l-.47-.11v-.64a1.88,1.88,0,0,1,0-.33,1.33,1.33,0,0,1,.29-.58,1.14,1.14,0,0,1,.26-.21l.26-.15.55.13c.13,0,.21.26.12.64v.14s0,0,0,0a.1.1,0,0,1,0,.12s-.06,0-.06,0,0-.1,0-.15l0-.14v-.06s0-.09,0,0,0,.17,0,.2,0,.05,0,.05l-.06.08c0,.07-.15.27-.18.36l0,0a.45.45,0,0,1-.42.13l-.12,0,.88,0c-.15-.23-.23-.14.1-.09l-.53-1.09.17,0a1.75,1.75,0,0,1,.42,0L141.9,156l0-.14v0h0l.15,0a1.19,1.19,0,0,0,.44-.21c.07-.06.05-.07,0,0a1.55,1.55,0,0,0,0,.6c0,.1,0,.06,0,.07h0l-.06,0,.72-1.17v.14h0l-.13.07h0l.13-.07h0Z"/><path class="cls-1" d="M67.47,407.92c-1.78-12-3.17-24.07-4.45-36.12s-2.4-24.11-3.46-36.18c-2.11-24.13-3.92-48.28-5.6-72.43-1.23-17.63-2.47-35.25-3.55-52.87Q49,187,47.72,163.7c-.83-15.53-1.72-31.09-2.35-46.62-.44-7.76-.91-15.57-.75-23.42a108.58,108.58,0,0,1,.8-11.79,49.43,49.43,0,0,1,2.8-11.63,23.07,23.07,0,0,1,2.92-5.41,14.72,14.72,0,0,1,4.68-4.26,24.6,24.6,0,0,1,5.82-2.07,24.35,24.35,0,0,1,6.09-.66,19.12,19.12,0,0,1,11.54,4.08,25.54,25.54,0,0,1,7.32,9.67,39.14,39.14,0,0,1,3,10.22c.29,1.75.42,3.55.55,5.25l.42,5.16q.87,10.32,1.84,20.65,1.92,20.64,4,41.11c3.51,35,7.26,70.19,10.64,105.2.53,5.47.6,7.78.26,7.69s-1.1-2.71-2-7.29c-1.82-9.14-4.38-26.07-6.45-46.26-3.65-35.77-7.2-71.54-10.4-107.43L87.26,92.42l-.53-6.74a42.38,42.38,0,0,0-1-6.37,29.73,29.73,0,0,0-5.14-11.44,18.59,18.59,0,0,0-4.41-4.18,15.81,15.81,0,0,0-5.51-2.29,21.92,21.92,0,0,0-12.15,1.39c-3.56,1.39-6,4.94-7.52,8.9a51.26,51.26,0,0,0-2.77,12.76,126.4,126.4,0,0,0-.6,13.37c0,5.37.27,10.79.57,16.24.15,2.73.32,5.47.42,8.25l.05,2.06.1,2,.2,4.12c.6,11,1.2,22.08,1.81,33.18,1.27,22.2,2.67,44.52,4.1,66.64q2.36,36.49,5.16,73c1.91,24.31,4,48.6,6.62,72.82,1.66,14.9,3.44,29.81,6.16,44.5L74,426.08c.21.91.46,1.79.69,2.69l.35,1.34.17.64a1,1,0,0,0,.11.35,1,1,0,0,0,.26.23,2.76,2.76,0,0,0,.38.21,9.78,9.78,0,0,0,1.19.43c.84.26,1.72.47,2.62.66,1.79.37,3.63.65,5.47.9,7.38,1,14.86,1.48,22.33,1.91,22.66,1.23,45.43,1.53,68.15,1.45s45.41-.67,67.89-2.05c9.8-.62,19.53-1.4,29.15-2.58,4.81-.6,9.59-1.29,14.28-2.25a66,66,0,0,0,6.88-1.78,20.33,20.33,0,0,0,3.16-1.31c1-.49,1.83-1.21,1.86-1.69,1.13-7.38,1.26-15.09,1.39-22.65s0-15.2-.09-22.8-.37-15.09-.61-22.78c-.94-28.5-1.24-37.57-.59-43.74.14-1.4.27-3.25.45-4.06.31-1.35.65.82,1.12,6s1,13.28,1.48,23.72c.65,14.1,1.2,28.38,1.45,42.84.1,7.23.2,14.5.06,21.83s-.24,14.63-1.46,22.29a6.61,6.61,0,0,1-.22.76,7.67,7.67,0,0,1-.36.7l-.43.58c-.15.16-.29.31-.44.45a8.7,8.7,0,0,1-1.73,1.25,19.84,19.84,0,0,1-3.35,1.48A57.71,57.71,0,0,1,289,432.9c-4.39,1-8.78,1.63-13.19,2.22-8.82,1.15-17.67,1.92-26.56,2.55-17.77,1.23-35.65,1.86-53.55,2.22-24.4.44-48.86.36-73.34-.5-6.12-.22-12.24-.5-18.37-.88s-12.24-.86-18.39-1.63a61.45,61.45,0,0,1-9.37-1.75c-.4-.12-.82-.26-1.26-.44-.21-.09-.44-.19-.68-.31a6.2,6.2,0,0,1-.93-.58A3.3,3.3,0,0,1,72.15,432l-.34-1.31c-.38-1.52-.84-3-1.14-4.55l-1-4.54c-.31-1.52-.55-3-.83-4.55-.56-3-1-6.06-1.48-9.1Z"/><path class="cls-1" d="M90.91,189.52l-2.79-29.31c-.35-3.56-.71-7.13-1.06-10.68Q85.38,130.68,84,111.79c-.42-5.58-.86-11.2-1.08-16.79A86.11,86.11,0,0,0,82,84.45a40.19,40.19,0,0,0-1.1-5.08,13.5,13.5,0,0,0-2.1-4.48,9.93,9.93,0,0,1-.72-1,1.22,1.22,0,0,1-.11-.24,1,1,0,0,1-.06-.32c0-.17.07-.22.13-.21a1.12,1.12,0,0,1,.24.2c.1.1.24.09.37.16a3.92,3.92,0,0,1,1.1.49,8.48,8.48,0,0,1,2.77,3.19,18.79,18.79,0,0,1,1.87,5.54,70,70,0,0,1,1,11.12c.12,3.68.25,7.2.51,10.86.44,7.26,1,14.55,1.48,21.88.6,8.76,1.59,17.85,2.43,26.79l2.82,29.51q.91,9.09,1.82,18.16c1,9.16,1.89,18.36,3,27.44.83,7.06,1.8,14,2.75,20.92.22,1.53.43,3,.65,4.57.78,5.73.87,7.53.48,8.82a6.61,6.61,0,0,1-.27.93c-.18.36-.48,0-.86-1.06A29.4,29.4,0,0,1,99,257.89C97,245.46,95.45,232.3,94,219.08c-1.1-9.82-2.11-19.69-3.12-29.54Z"/><path class="cls-1" d="M153.08,83.18c.62-.14,1.46,1.11,1.71,1.5a6.1,6.1,0,0,1,.94,2.81c.09,1.17,3,.51,2.9-.78-.25-3.1-2.72-6.06-6-5.31-.52.12-1.39.63-1.21,1.28s1.18.61,1.68.5Z"/><path class="cls-1" d="M160.08,77.83c.84-.17,1.74.71,2.2,1.29a5.41,5.41,0,0,1,1.12,2.82c.12,1.11,3,.45,2.9-.78a6.27,6.27,0,0,0-2.08-4,5.16,5.16,0,0,0-4.59-1c-.49.1-1.39.6-1.22,1.22s1.2.55,1.67.45Z"/></g></svg>