<svg width="890" height="774" viewBox="0 0 890 774" fill="none" xmlns="http://www.w3.org/2000/svg">
<path d="M402.211 183.878C402.211 205.23 385.152 222.457 364.209 222.457C343.267 222.457 326.207 205.23 326.207 183.878C326.207 162.526 343.267 145.3 364.209 145.3C385.152 145.3 402.211 162.526 402.211 183.878Z" stroke="black" stroke-width="7"/>
<path d="M306.524 183.302C306.524 204.245 289.298 221.304 267.946 221.304C246.594 221.304 229.367 204.245 229.367 183.302C229.367 162.359 246.594 145.3 267.946 145.3C289.298 145.3 306.524 162.359 306.524 183.302Z" stroke="black" stroke-width="7"/>
<path d="M310.023 175.464C313.354 174.238 321.014 172.706 325.01 176.384" stroke="black" stroke-width="7" stroke-linecap="round"/>
<ellipse cx="268.523" cy="191.948" rx="9.22271" ry="9.79912" fill="black"/>
<ellipse cx="356.137" cy="194.253" rx="10.3755" ry="9.79912" fill="black"/>
<path d="M346.914 161.397C349.617 159.553 357.321 155.587 366.512 154.48" stroke="black" stroke-width="7" stroke-linecap="round"/>
<path d="M262.758 154.003C271.212 152.064 283.509 154.003 290.426 163.703" stroke="black" stroke-width="7" stroke-linecap="round"/>
<path d="M311.629 216.564C316.641 216.804 327.117 214.838 328.921 205.055" stroke="black" stroke-width="7" stroke-linecap="round"/>
<path d="M290.426 246.707C297.682 255.478 297.482 263.372 322.705 254.016" stroke="black" stroke-width="7" stroke-linecap="round"/>
<path d="M377.008 220.192C380.386 238.52 376.552 255.908 349.498 282.315C318.368 312.7 303.89 327.893 260.453 295.337" stroke="black" stroke-width="7" stroke-linecap="round"/>
<path d="M379.718 242.096C370.519 124.677 286.342 77.2803 244.42 67.9727C219.697 71.9821 206.313 138.624 175.173 145.928C165.92 145.928 157.414 144.102 153.193 125.234C130.77 24.9986 196.748 20.9575 225.734 24.2987C392.467 -68.7755 481.769 127.541 379.718 242.096Z" fill="black"/>
<path d="M170.532 190.218C169.662 192.754 168.444 198.841 170.532 202.899" stroke="black" stroke-width="7" stroke-linecap="round"/>
<path d="M229.326 174.078H169.379" stroke="black" stroke-width="7" stroke-linecap="round"/>
<path d="M178.225 178.012C168.041 170.986 150.767 176.545 156.784 203.106C160.537 219.669 177.689 222.011 180.905 211.639" stroke="black" stroke-width="7" stroke-linecap="round"/>
<path d="M363.688 354.922C505.559 461.198 564.791 680.8 505.559 677.259" stroke="black" stroke-width="7" stroke-linecap="round"/>
<path d="M178.707 538.399C188.097 534.12 200.606 506.971 206.866 490.844C207.299 489.73 209.472 490.184 209.437 491.379C209.173 500.221 209.503 511.491 211.793 518.237" stroke="black" stroke-width="7" stroke-linecap="round"/>
<path d="M458.432 620.612C455.303 608.771 468.859 576.697 438.045 429.937" stroke="black" stroke-width="7" stroke-linecap="round"/>
<path d="M274.534 573.382C299.141 555.511 353.304 522.912 372.996 535.476C397.602 551.18 381.892 553.345 369.324 550.097" stroke="black" stroke-width="7" stroke-linecap="round"/>
<path d="M346.813 550.617C359.49 548.718 385.065 548.959 385.912 565.126C386.391 574.553 383.793 572.985 379.04 570.041C375.631 567.935 371.116 565.126 365.828 565.126H343.109" stroke="black" stroke-width="7" stroke-linecap="round"/>
<path d="M343.11 565.882H365.966C371.286 565.882 375.828 568.75 379.257 570.9C382.613 576.986 385.096 588.207 368.098 584.397C351.1 580.588 344.352 581.753 343.11 582.811" stroke="black" stroke-width="7" stroke-linecap="round"/>
<path d="M368.392 584.098C374.013 590.521 380.498 602.617 361.539 599.62C342.581 596.623 327.663 605.864 322.574 610.859C313.977 616.567 293.604 623.703 280.964 606.578" stroke="black" stroke-width="7" stroke-linecap="round"/>
<path d="M450.384 654.815C447.46 658.813 448.067 669.124 473.832 678.388" stroke="black" stroke-width="7" stroke-linecap="round"/>
<path d="M517.762 633.565C489.911 628.203 461.328 626.215 450.5 625.89C444.691 625.718 438.242 630.677 441.485 636.291C442.383 637.728 445.204 640.924 449.29 642.21C466.642 647.863 474.044 648.365 481.685 648.387" stroke="black" stroke-width="7" stroke-linecap="round"/>
<path d="M481.332 648.151C473.689 648.129 466.283 647.625 448.926 641.957C444.966 643.389 444.453 650.204 450.722 654.459C454.681 657.156 461.848 660.464 473.689 664.458" stroke="black" stroke-width="7" stroke-linecap="round"/>
<path d="M391.329 620.527C369.899 627.135 329.397 654.172 338.826 709.461C348.255 764.749 404.544 771.428 431.509 767.857C447.582 765.728 495.798 743.212 493.12 680.531" stroke="black" stroke-width="7" stroke-linecap="round"/>
<path d="M374.718 627.492L368.289 600.705" stroke="black" stroke-width="7" stroke-linecap="round"/>
<path d="M451.331 591.598L448.652 623.206" stroke="black" stroke-width="7" stroke-linecap="round"/>
<path d="M380.611 583.561C409.541 581.24 463.759 580.132 449.186 594.276C445.258 596.776 397.541 602.42 375.254 598.562" stroke="black" stroke-width="7" stroke-linecap="round"/>
<path d="M404.38 755.336C442.782 763.24 468.954 732.488 479.239 712.657C480.061 711.071 478.46 709.373 476.757 709.913C452.843 717.491 418.992 714.741 385.142 702.127C356.552 691.473 348.812 698.631 348.476 703.666C348.47 703.761 348.473 703.85 348.483 703.944C349.96 717.632 363.156 746.851 404.38 755.336Z" fill="black"/>
<path d="M387.578 565.056C389.268 565.593 391.068 565.882 392.935 565.882C402.699 565.882 410.615 557.967 410.615 548.203C410.615 538.439 402.699 530.523 392.935 530.523C387.445 530.523 382.54 533.026 379.297 536.952" stroke="black" stroke-width="7" stroke-linecap="round"/>
<path d="M638.669 735.176H652.769V700.363C652.769 699.278 651.282 698.97 650.851 699.966L636.833 732.382C636.262 733.703 637.23 735.176 638.669 735.176Z" fill="black"/>
<path d="M657.055 760.357L653.128 701.939C652.934 699.052 655.224 696.604 658.117 696.604H681.674C683.909 696.604 685.872 698.086 686.483 700.235L705.272 766.25" stroke="black" stroke-width="7" stroke-linecap="round"/>
<path d="M645.805 760.356H636.34C633.578 760.356 631.34 762.595 631.34 765.356V766.25" stroke="black" stroke-width="7" stroke-linecap="round"/>
<path d="M629.199 729.284H550.203C546.853 729.284 544.451 726.054 545.415 722.845L579.913 608.017C580.548 605.903 582.494 604.456 584.701 604.456H785.09C788.514 604.456 790.925 607.819 789.825 611.062L750.892 725.89C750.204 727.919 748.3 729.284 746.157 729.284H695.631" stroke="black" stroke-width="7" stroke-linecap="round"/>
<path d="M780.275 770H25.9492" stroke="black" stroke-width="7" stroke-linecap="round"/>
<path d="M437.936 566.418C445.972 560.882 468.152 548.524 492.582 543.381" stroke="black" stroke-width="7" stroke-linecap="round"/>
<path d="M447.043 545.523C438.471 550.524 420.899 561.917 419.184 567.489" stroke="black" stroke-width="7" stroke-linecap="round"/>
<circle cx="4.28594" cy="4.28594" r="4.28594" transform="matrix(-1 0 0 1 474.367 527.309)" fill="black"/>
<circle cx="4.28594" cy="4.28594" r="4.28594" transform="matrix(-1 0 0 1 522.586 531.595)" fill="black"/>
<path d="M568.035 503.979C599.108 476.477 707.763 405.086 727.151 465.405C736.794 495.408 674.112 517.373 727.151 439.689C808.322 320.8 959.663 408.08 843.407 525.408" stroke="black" stroke-width="7" stroke-linecap="round"/>
<path d="M402.605 501.804C395.086 439.141 222.667 490.283 203.28 429.964C193.636 399.962 254.22 408.707 203.28 455.68C142.931 511.328 56.2057 455.68 87.2864 350.411" stroke="black" stroke-width="7" stroke-linecap="round"/>
<path d="M75.7578 295.768C78.1144 285.774 83.6918 264.852 87.1482 261.114C90.1007 257.921 92.8812 272.873 94.3636 284.177C94.7425 287.066 97.4506 289.083 100.315 288.551L113.857 286.034" stroke="black" stroke-width="7" stroke-linecap="round"/>
<path d="M124.884 284.739L103.838 303.81C103.327 304.273 103.091 304.966 103.212 305.644L107.685 330.621C108.061 332.724 105.319 333.873 104.084 332.129L91.2342 313.986C90.478 312.918 88.9171 312.852 88.0734 313.852L69.6075 335.742C68.2169 337.391 65.5616 335.974 66.1563 333.901L72.8571 310.544C73.1334 309.58 72.6542 308.561 71.7361 308.16L50.6914 298.954" stroke="black" stroke-width="7" stroke-linecap="round"/>
<path d="M52.6953 295.768L81.7708 293.763" stroke="black" stroke-width="7" stroke-linecap="round"/>
<path d="M288.819 650.135C280.43 624.554 278.279 610.321 279.706 600.919C268.174 634.232 250.228 641.878 240.337 650.359C238.653 668.34 236.641 723.616 260.941 730.298C291.315 738.651 299.136 681.593 288.819 650.135Z" fill="black"/>
<path d="M211.24 595.294C219.428 592.677 228.082 592.288 233.801 607.433C244.424 635.568 223.572 738.499 270.492 729.603C308.028 722.487 289.236 643.023 280.317 607.048" stroke="black" stroke-width="7" stroke-linecap="round"/>
<path d="M247.493 560.346C211.478 602.931 133.086 600.56 84.4595 517.344" stroke="black" stroke-width="7" stroke-linecap="round"/>
<path d="M227.449 729.395C187.177 724.883 142.203 707.766 81.5699 729.395C-16.802 764.486 -62.9215 527.37 203.777 336.374" stroke="black" stroke-width="7" stroke-linecap="round"/>
<path d="M318.066 327.504C331.872 307.483 344.305 331.228 338.78 346.593C333.256 361.958 286.384 387.533 254.902 331.437" stroke="black" stroke-width="7" stroke-linecap="round"/>
<path d="M289.263 363.776C279.568 368.623 261.09 384.029 264.699 406.888" stroke="black" stroke-width="7" stroke-linecap="round"/>
<path d="M299.53 394.355C284.882 413.84 268.198 417.847 261.691 417.415" stroke="black" stroke-width="7" stroke-linecap="round"/>
<path d="M313.328 365.28C321.85 372.466 335.887 391.749 329.871 417.416" stroke="black" stroke-width="7" stroke-linecap="round"/>
<path d="M295.78 367.786C294.697 373.854 294.927 384.152 299.529 394.355C303.409 402.98 310.408 411.537 322.349 417.415" stroke="black" stroke-width="7" stroke-linecap="round"/>
</svg>
