<svg width="2057" height="1395" viewBox="0 0 2057 1395" fill="none" xmlns="http://www.w3.org/2000/svg">
<path d="M1660.96 855.561C1777.82 970.567 1837.47 981.022 1846.7 1048.67" stroke="black" stroke-width="9" stroke-linecap="round"/>
<path d="M2033.83 513.131C2033.32 518.171 2030.76 527.456 2024.61 524.272C2016.93 520.293 2013.09 521.089 2008.48 522.681C2003.87 524.272 1998.49 519.497 1994.65 521.089C1990.81 522.681 1976.98 529.047 1974.68 522.681" stroke="black" stroke-opacity="0.5" stroke-width="9" stroke-linecap="round"/>
<path d="M1978.37 546.405C1990.95 548.992 2017.68 552.787 2023.97 547.268" stroke="black" stroke-opacity="0.5" stroke-width="9" stroke-linecap="round"/>
<path d="M2039.48 580.264C2047.22 549.198 2059.07 484.699 2047.46 464.989C2046.53 463.415 2044.65 462.854 2042.86 463.253C2023.76 467.52 1988.76 474.234 1970.82 473.941C1967.78 473.891 1965.06 476.198 1964.94 479.228C1963.97 504.077 1959.75 548.307 1948.79 571.045C1947.56 573.592 1948.39 576.721 1951.05 577.669C1961.63 581.434 1983.84 585.002 2015.99 578.705" stroke="black" stroke-opacity="0.5" stroke-width="9" stroke-linecap="round"/>
<path d="M1993.47 485.976C1994.51 482.314 1989.44 466.372 1985.46 455.143C1984.39 452.098 1986.38 448.816 1989.59 448.527C1998.65 447.715 2010.91 447.214 2015.37 449.195C2022.41 452.326 2023.97 479.716 2023.97 485.194C2023.97 490.672 1991.9 491.454 1993.47 485.976Z" fill="black" fill-opacity="0.5"/>
<path d="M1991.94 178.584C1997.43 184.774 2008.56 198.124 2009.19 202" stroke="black" stroke-opacity="0.5" stroke-width="9" stroke-linecap="round"/>
<path d="M1988.24 199.536C1993.16 193.752 2004.23 181.71 2009.19 179.817" stroke="black" stroke-opacity="0.5" stroke-width="9" stroke-linecap="round"/>
<path d="M2026.25 164.106C2024.55 167.481 1999.05 167.324 1982.62 166.69C1979.76 166.58 1977.39 168.861 1977.21 171.716C1975.71 196.079 1964.13 206.153 1966.34 213.485C1968.19 219.616 1999.83 218.253 2016.47 216.724C2017.2 216.656 2017.92 216.444 2018.49 215.972C2029.36 206.953 2028.55 159.528 2026.25 164.106Z" stroke="black" stroke-opacity="0.5" stroke-width="9" stroke-linecap="round"/>
<path d="M2032.04 247.528C2040.56 218.017 2053.65 155.505 2040.74 133.006C2039.82 131.403 2037.95 130.72 2036.13 131.037C2017.04 134.357 1982.87 139.796 1966.96 140.599C1964.1 140.744 1961.73 143.053 1961.67 145.912C1961.2 170.269 1957.49 213.632 1945.69 237.83C1944.01 241.261 1946.08 245.66 1949.88 245.978C1969.11 247.588 1998.89 248.941 2010.17 245.188" stroke="black" stroke-opacity="0.5" stroke-width="9" stroke-linecap="round"/>
<path d="M1990.21 148.233C1981.05 145.947 1984.9 125.371 1988.58 113.19C1989.09 111.517 1990.47 110.276 1992.18 109.896C1999.72 108.217 2010.07 106.03 2015.93 105.124C2019.22 104.616 2020.28 104.354 2020.28 105.124C2020.28 107.991 2016.27 128.869 2015.1 141.676C2014.94 143.365 2014 144.903 2012.45 145.584C2007.38 147.805 1998.5 150.303 1990.21 148.233Z" fill="black" fill-opacity="0.5"/>
<path d="M496.334 396.846C494.489 399.921 493.398 396.066 493.259 394.386C486.494 312.59 428.069 251.705 423.764 249.245C419.459 246.785 428.069 266.465 423.764 270.77C420.32 274.214 412.899 251.295 409.619 239.405C408.799 235.919 407.897 228.703 410.849 227.719C414.539 226.489 446.519 240.019 451.439 245.554C456.359 251.09 436.064 244.324 432.374 243.709C429.422 243.217 430.324 244.734 431.144 245.554C498.794 314.435 498.36 393.469 496.334 396.846Z" fill="black" fill-opacity="0.5"/>
<path d="M1289.51 479.26C1265.11 500.785 1211.28 532.519 1191.11 487.255C1185.57 470.034 1204.8 446.152 1216.94 456.504C1237.85 474.339 1187.41 500.17 1170.81 466.344C1157.44 439.107 1167.74 404.229 1168.35 393.774" stroke="black" stroke-opacity="0.5" stroke-width="9" stroke-linecap="round"/>
<path d="M1148.05 418.374C1152.97 409.969 1163.92 392.789 1168.35 391.313C1172.78 389.837 1184.95 408.739 1190.49 418.374" stroke="black" stroke-opacity="0.5" stroke-width="9" stroke-linecap="round"/>
<path d="M685.709 188.928L675.039 197.162C672.346 199.24 672.47 203.342 675.282 205.255L689.258 214.758" stroke="black" stroke-opacity="0.5" stroke-width="9" stroke-linecap="round"/>
<path d="M737.845 224.598C738.665 199.998 735.262 151.166 715.09 152.642C694.918 154.118 653.385 155.307 635.139 155.717C630.219 155.512 620.625 158.054 621.609 169.862C622.839 184.622 616.689 252.888 641.904 252.888C662.077 252.888 697.46 250.838 712.63 249.813" stroke="black" stroke-opacity="0.5" stroke-width="9" stroke-linecap="round"/>
<path d="M1082.3 227.001C1163.48 220.851 1327.2 211.503 1332.61 223.311C1339.38 238.071 1322.16 325.402 1329.54 336.472C1335.35 345.191 1150.49 343.101 1053.01 340.882C1050.41 340.823 1048.36 338.786 1048.21 336.189C1046.73 310.495 1044.33 263.185 1044.79 247.911" stroke="black" stroke-opacity="0.5" stroke-width="9" stroke-linecap="round"/>
<path d="M1325.85 201.172L1354.77 202.75C1357.49 202.898 1359.59 205.2 1359.49 207.924L1358.44 236.842" stroke="black" stroke-opacity="0.5" stroke-width="9" stroke-linecap="round"/>
<path d="M1058.32 316.792C1065.91 296.907 1086.86 264.394 1109.98 293.422C1138.89 329.708 1147.5 334.627 1166.56 303.262C1185.63 271.897 1200.39 287.272 1220.68 308.797C1240.98 330.322 1255.12 303.262 1272.96 303.262C1290.79 303.262 1292.64 321.712 1309.24 308.797" stroke="black" stroke-opacity="0.5" stroke-width="9" stroke-linecap="round"/>
<path d="M1613 298.366C1620.99 302.261 1638.09 309.805 1642.52 308.821" stroke="black" stroke-opacity="0.5" stroke-width="9" stroke-linecap="round"/>
<path d="M1658.51 277.456C1655.23 271.716 1647.93 259.621 1644.98 257.161" stroke="black" stroke-opacity="0.5" stroke-width="9" stroke-linecap="round"/>
<path d="M1731.08 266.386L1743.99 248.551" stroke="black" stroke-opacity="0.5" stroke-width="9" stroke-linecap="round"/>
<path d="M1761.21 292.831L1780.28 286.066" stroke="black" stroke-opacity="0.5" stroke-width="9" stroke-linecap="round"/>
<path d="M1773.51 335.882H1794.42" stroke="black" stroke-opacity="0.5" stroke-width="9" stroke-linecap="round"/>
<path d="M1762.44 371.551L1776.59 390.002" stroke="black" stroke-opacity="0.5" stroke-width="9" stroke-linecap="round"/>
<path d="M1728 394.922L1731.69 413.987" stroke="black" stroke-opacity="0.5" stroke-width="9" stroke-linecap="round"/>
<path d="M1665.89 380.777C1661.79 377.702 1653.09 369.338 1651.12 360.482" stroke="black" stroke-opacity="0.5" stroke-width="9" stroke-linecap="round"/>
<path d="M1648.67 403.532C1645.43 400.298 1639.08 392.721 1636.57 385.599C1635.94 383.813 1636.72 381.918 1638.09 380.608C1644.23 374.726 1652.86 361.997 1651.13 345.106C1648.67 321.121 1656.05 264.541 1715.7 279.301C1763.43 291.109 1760.6 347.566 1745.22 363.557C1715.7 389.387 1689.26 368.477 1662.81 409.067" stroke="black" stroke-opacity="0.5" stroke-width="9" stroke-linecap="round"/>
<path d="M1670.81 335.267C1669.37 327.682 1670.93 310.544 1688.64 302.672" stroke="black" stroke-opacity="0.5" stroke-width="9" stroke-linecap="round"/>
<path d="M1701.56 297.751C1703.61 296.931 1708.32 295.537 1710.78 296.521" stroke="black" stroke-opacity="0.5" stroke-width="9" stroke-linecap="round"/>
<path d="M1737.23 750.395C1828.25 740.555 2011.15 726.779 2014.59 750.395C2018.9 779.916 2057.03 992.707 2014.59 998.242C1980.65 1002.67 1922.55 1005.01 1897.74 1005.62" stroke="black" stroke-opacity="0.5" stroke-width="9" stroke-linecap="round"/>
<path d="M1745.84 787.91L1993.68 782.375" stroke="black" stroke-opacity="0.5" stroke-width="9" stroke-linecap="round"/>
<path d="M1794.42 885.081L1948.82 879.674C1951 879.597 1952.97 880.928 1953.68 882.991C1961.25 905.233 1971.68 944.692 1960.47 948.426C1948.67 952.362 1883.8 954.986 1852.85 955.806" stroke="black" stroke-opacity="0.5" stroke-width="9" stroke-linecap="round"/>
<path d="M1976.46 891.846C1980.77 887.951 1990.49 879.669 1994.91 877.701" stroke="black" stroke-opacity="0.5" stroke-width="9" stroke-linecap="round"/>
<path d="M1984.46 909.681H2004.14" stroke="black" stroke-opacity="0.5" stroke-width="9" stroke-linecap="round"/>
<path d="M1983.84 926.286L2005.37 938.586" stroke="black" stroke-opacity="0.5" stroke-width="9" stroke-linecap="round"/>
<circle cx="1811.64" cy="902.301" r="3.07502" fill="black" fill-opacity="0.5"/>
<circle cx="1816.56" cy="917.062" r="3.07502" fill="black" fill-opacity="0.5"/>
<circle cx="1828.86" cy="902.301" r="3.07502" fill="black" fill-opacity="0.5"/>
<circle cx="1833.78" cy="917.062" r="3.07502" fill="black" fill-opacity="0.5"/>
<circle cx="1835.01" cy="933.052" r="3.07502" fill="black" fill-opacity="0.5"/>
<circle cx="1846.08" cy="899.841" r="3.07502" fill="black" fill-opacity="0.5"/>
<circle cx="1851" cy="914.601" r="3.07502" fill="black" fill-opacity="0.5"/>
<circle cx="1852.24" cy="930.591" r="3.07502" fill="black" fill-opacity="0.5"/>
<circle cx="1853.46" cy="944.121" r="3.07502" fill="black" fill-opacity="0.5"/>
<circle cx="1859.61" cy="899.841" r="3.07502" fill="black" fill-opacity="0.5"/>
<circle cx="1864.53" cy="914.601" r="3.07502" fill="black" fill-opacity="0.5"/>
<circle cx="1865.76" cy="930.591" r="3.07502" fill="black" fill-opacity="0.5"/>
<circle cx="1866.99" cy="944.121" r="3.07502" fill="black" fill-opacity="0.5"/>
<circle cx="1876.83" cy="898.612" r="3.07502" fill="black" fill-opacity="0.5"/>
<circle cx="1881.75" cy="913.371" r="3.07502" fill="black" fill-opacity="0.5"/>
<circle cx="1882.99" cy="929.361" r="3.07502" fill="black" fill-opacity="0.5"/>
<circle cx="1884.21" cy="942.892" r="3.07502" fill="black" fill-opacity="0.5"/>
<circle cx="1892.83" cy="897.381" r="3.07502" fill="black" fill-opacity="0.5"/>
<circle cx="1897.74" cy="912.141" r="3.07502" fill="black" fill-opacity="0.5"/>
<circle cx="1898.97" cy="928.131" r="3.07502" fill="black" fill-opacity="0.5"/>
<circle cx="1900.2" cy="941.662" r="3.07502" fill="black" fill-opacity="0.5"/>
<circle cx="1908.81" cy="896.151" r="3.07502" fill="black" fill-opacity="0.5"/>
<circle cx="1913.74" cy="910.911" r="3.07502" fill="black" fill-opacity="0.5"/>
<circle cx="1914.96" cy="926.901" r="3.07502" fill="black" fill-opacity="0.5"/>
<circle cx="1916.19" cy="940.431" r="3.07502" fill="black" fill-opacity="0.5"/>
<circle cx="1924.81" cy="894.921" r="3.07502" fill="black" fill-opacity="0.5"/>
<circle cx="1929.72" cy="909.681" r="3.07502" fill="black" fill-opacity="0.5"/>
<circle cx="1930.95" cy="925.672" r="3.07502" fill="black" fill-opacity="0.5"/>
<circle cx="1932.18" cy="939.201" r="3.07502" fill="black" fill-opacity="0.5"/>
<circle cx="1940.79" cy="893.691" r="3.07502" fill="black" fill-opacity="0.5"/>
<circle cx="1945.72" cy="908.452" r="3.07502" fill="black" fill-opacity="0.5"/>
<circle cx="1946.95" cy="924.442" r="3.07502" fill="black" fill-opacity="0.5"/>
<circle cx="1948.17" cy="937.971" r="3.07502" fill="black" fill-opacity="0.5"/>
<path d="M740.918 428.132C774.128 490.248 835.239 704.297 852.234 728.255" stroke="black" stroke-width="9" stroke-linecap="round"/>
<path d="M701.559 465.033L708.939 572.043" stroke="black" stroke-width="9" stroke-linecap="round"/>
<path d="M771.67 509.895C763.67 508.944 742.291 512.342 733.75 538.444C722.229 573.655 689.428 613.037 673.75 571.276C666.069 550.816 685.75 504.82 703.03 490.863" stroke="black" stroke-width="9" stroke-linecap="round"/>
<path d="M696.359 497.605C681.182 516.081 667.051 553.411 673.747 571.276C682.316 594.137 696.009 592.681 708.535 580.905C709.592 579.911 710.102 578.473 709.984 577.027L703.749 500.3C703.423 496.294 698.91 494.5 696.359 497.605Z" fill="black"/>
<path d="M738.271 412.142C739.651 399.937 742.317 371.098 732.75 363.484C721.25 354.33 729.991 383.235 724.93 390.944" stroke="black" stroke-width="9" stroke-linecap="round"/>
<path d="M704.018 351.942C700.766 351.623 693.613 352.229 691.011 357.204C687.76 363.422 663.605 393.556 669.179 405.992" stroke="black" stroke-width="9" stroke-linecap="round"/>
<path d="M694.18 442.893C696.222 446.009 700.025 452.831 698.894 455.193" stroke="black" stroke-width="9" stroke-linecap="round"/>
<path d="M686.798 417.062C683.329 414.102 674.782 408.892 668.348 411.734" stroke="black" stroke-width="9" stroke-linecap="round"/>
<path d="M680.651 449.043C677.564 441.697 668.077 428.155 654.82 432.754" stroke="black" stroke-width="9" stroke-linecap="round"/>
<path d="M734.767 338.342C731.86 336.355 724.592 332.621 718.777 333.575" stroke="black" stroke-width="9" stroke-linecap="round"/>
<path d="M742.73 312.511C743.863 320.626 743.686 337.375 740.788 343.672C737.875 350.001 732.535 356.33 731.078 359.252" stroke="black" stroke-width="9" stroke-linecap="round"/>
<path d="M725.133 375.595L685.426 457.795C684.166 461.299 679.943 467.831 673.136 465.919C664.628 463.53 643.829 446.325 653.756 431.51C661.697 419.658 700.553 359.346 718.988 330.672C722.612 326.211 732.318 316.335 742.15 312.511" stroke="black" stroke-width="9" stroke-linecap="round"/>
<path d="M742.147 327.271C742.147 326.276 739.837 324.986 736.971 323.784C733.827 322.467 733.245 318.015 736.144 316.223C738.765 314.602 742.147 316.488 742.147 319.569V327.271Z" fill="black"/>
<path d="M671.422 568.354C686.797 659.989 759.245 689.509 844.853 888.771" stroke="black" stroke-width="9" stroke-linecap="round"/>
<path d="M846.699 906.606C839.87 949.142 827.432 1039.41 829.642 1075.58C829.814 1078.39 832.362 1080.31 835.155 1079.98C929.791 1068.95 1067.59 1135.77 1107.46 1088.65" stroke="black" stroke-width="9" stroke-linecap="round"/>
<path d="M828.25 1079.42L876.22 1099.72L879.295 1081.27C866.011 1078.81 838.705 1078.4 828.25 1079.42Z" fill="black"/>
<path d="M880.527 1080.65C867.612 1164.09 842.028 1341.66 843.012 1384.46" stroke="black" stroke-width="9" stroke-linecap="round"/>
<path d="M1053.34 953.961C1088.4 1018.42 1120.8 1130.91 1154.82 1190.74" stroke="black" stroke-width="9" stroke-linecap="round"/>
<path d="M1042.89 852.486C1062.98 853.306 1095.26 871.034 1116.07 918.906C1140.67 975.487 1176.34 1171.06 1156.66 1190.12" stroke="black" stroke-width="9" stroke-linecap="round"/>
<path d="M1156.05 1192.58C1158.71 1251.83 1166.01 1374.13 1173.88 1389.38" stroke="black" stroke-width="9" stroke-linecap="round"/>
<path d="M879.295 1308.2C878.68 1330.34 875.974 1377.33 870.07 1388.16" stroke="black" stroke-width="9" stroke-linecap="round"/>
<path d="M994.301 568.353C989.872 547.197 969.085 531.248 959.245 525.918C888.52 498.242 843.624 568.353 846.699 674.749C849.774 781.145 956.309 901.199 1042.89 854.33C1124.68 810.05 1101.93 722.719 1064.41 688.279C1040.01 665.881 999.836 594.798 994.301 568.353Z" fill="black"/>
<path d="M1539.76 598.975L1585.01 615.329C1587.3 616.156 1588.67 618.504 1588.08 620.864C1583.8 637.869 1569.47 668.565 1543.73 659.3C1528.27 653.731 1525.26 628.398 1534.51 614.85" stroke="black" stroke-width="9" stroke-linecap="round"/>
<path d="M1586.51 627.84L1643.28 652.796" stroke="black" stroke-width="9" stroke-linecap="round"/>
<path d="M1582.28 638.335L1631.32 657.568" stroke="black" stroke-width="9" stroke-linecap="round"/>
<path d="M1530.32 622.045C1526.85 630.13 1516.37 647.406 1499.99 658.733C1496.92 660.862 1496.64 665.544 1499.7 667.694L1513.27 677.22" stroke="black" stroke-width="9" stroke-linecap="round"/>
<path d="M1513.29 688.971C1508.9 708.502 1506.96 748.055 1532.37 756.207C1534.37 756.848 1535.99 758.454 1536.32 760.528L1539.3 779.166" stroke="black" stroke-width="9" stroke-linecap="round"/>
<path d="M1630.41 778.6C1622.35 783.138 1619.76 791.369 1586.55 793.445C1566.87 794.675 1537.97 809.435 1542.89 849.41" stroke="black" stroke-width="9" stroke-linecap="round"/>
<ellipse cx="1553.73" cy="624.817" rx="5.18028" ry="8.37391" transform="rotate(27.2342 1553.73 624.817)" fill="black"/>
<path d="M1632.65 654.315C1629.28 656.291 1626.86 659.886 1625.5 662.602C1625.11 663.399 1625.92 664.168 1626.74 663.81C1637.4 659.125 1655.53 654.082 1657.14 665.509C1658.76 676.993 1637.81 683.364 1625.13 685.505C1624.24 685.654 1623.95 686.804 1624.68 687.337L1629.72 691.067C1630.13 691.37 1630.24 691.951 1629.99 692.397C1615.83 717.697 1639.95 730.679 1654.24 734.129C1654.46 734.183 1654.67 734.32 1654.81 734.504C1678.49 765.182 1696.18 742.838 1702.28 727.352C1702.4 727.048 1702.67 726.822 1702.99 726.742C1735.72 718.478 1736.46 699.002 1732.49 689.48C1732.29 689.008 1732.48 688.445 1732.91 688.175C1773.27 663.019 1756.14 640.892 1740.6 631.643C1739.79 631.165 1739.95 629.854 1740.84 629.566C1747.96 627.267 1763.03 620.009 1761.44 602.32C1758.8 572.995 1726.72 578.812 1715.19 572.414C1703.65 566.017 1641.87 404.095 1559.85 468.184C1493.89 519.719 1531.32 568.093 1558.77 580.716C1558.84 580.749 1558.91 580.792 1558.97 580.84C1589.71 604.892 1610.71 581.535 1625.99 577.538C1626.79 577.328 1627.38 578.197 1626.99 578.931C1611.54 608.146 1625.38 623.832 1635.41 628.674C1636.01 628.965 1636.21 629.744 1635.81 630.286C1629.36 639.159 1631.06 648.412 1633.12 652.85C1633.37 653.38 1633.16 654.02 1632.65 654.315Z" fill="black"/>
<path d="M1645.58 669.964C1642.99 669.156 1637.06 668.772 1634.11 673.696" stroke="black" stroke-width="9" stroke-linecap="round"/>
<path d="M1545.55 718.541C1542.8 721.538 1535.19 725.293 1526.82 716.329" stroke="black" stroke-width="9" stroke-linecap="round"/>
<path d="M1619.76 826.041C1572.41 821.736 1482.61 896.151 1402.66 982.252" stroke="black" stroke-width="9" stroke-linecap="round"/>
<path d="M1631.45 811.895C1668.35 936.126 1780.89 1090.49 1809.18 1141.54" stroke="black" stroke-width="9" stroke-linecap="round"/>
<path d="M1493.68 1147.08C1621.6 1197.5 1755.68 1116.94 1807.95 1140.93C1825.79 1149.11 1819.02 1206.73 1720.01 1206.73" stroke="black" stroke-width="9" stroke-linecap="round"/>
<path d="M1712.01 1156.91C1718.57 1223.13 1735.63 1360.97 1751.37 1382.62" stroke="black" stroke-width="9" stroke-linecap="round"/>
<path d="M1643.13 1209.8C1636.78 1265.36 1624.68 1378.93 1627.14 1388.77" stroke="black" stroke-width="9" stroke-linecap="round"/>
<path d="M1632.06 1332.8L1650.51 1388.77" stroke="black" stroke-width="9" stroke-linecap="round"/>
<path d="M1526.28 1390C1512.57 1349.35 1524.26 1110.93 1532.65 983.196C1532.96 978.382 1526.9 975.957 1523.68 979.547C1461.96 1048.29 1375.32 1106.01 1302.76 926.524C1301.86 924.31 1302.64 921.665 1304.65 920.374L1361.46 883.851" stroke="black" stroke-width="9" stroke-linecap="round"/>
<path d="M1718.78 990.862L1883.11 1064.87C1888.14 1067.13 1890.38 1073.04 1888.13 1078.07L1804.13 1265.68C1801.84 1270.79 1795.8 1273.03 1790.73 1270.64L1723.08 1238.71" stroke="black" stroke-opacity="0.5" stroke-width="9" stroke-linecap="round"/>
<path d="M1404.51 963.802C1387.09 918.086 1348.55 820.26 1333.79 794.675" stroke="black" stroke-width="9" stroke-linecap="round"/>
<path d="M1328.25 814.356C1316.15 795.086 1289.99 759.866 1282.12 773.15C1277.2 781.452 1299.96 802.67 1312.87 819.276" stroke="black" stroke-width="9" stroke-linecap="round"/>
<path d="M1304.88 811.28C1291.15 798.57 1262.32 775.118 1256.91 782.99C1251.5 790.862 1276.39 814.56 1289.51 825.425" stroke="black" stroke-width="9" stroke-linecap="round"/>
<path d="M1254.7 798.365C1249.22 799.711 1246.54 808.974 1279.67 835.266" stroke="black" stroke-width="9" stroke-linecap="round"/>
<path d="M1264.29 824.196C1253.01 819.071 1234.52 813.126 1250.76 830.346C1271.05 851.871 1287.04 865.401 1298.11 887.541" stroke="black" stroke-width="9" stroke-linecap="round"/>
<path d="M1322.1 797.135L1392.91 765.541C1397.96 763.29 1400.22 757.375 1397.97 752.33L1313.21 562.601C1310.98 557.607 1305.15 555.332 1300.12 557.496L1109.89 639.426C1104.82 641.612 1102.47 647.499 1104.66 652.572L1187.68 844.97C1189.9 850.111 1195.9 852.429 1201 850.112L1245.84 829.731" stroke="black" stroke-opacity="0.5" stroke-width="9" stroke-linecap="round"/>
<path d="M1176.34 686.434L1291.35 638.464" stroke="black" stroke-opacity="0.5" stroke-width="9" stroke-linecap="round"/>
<path d="M1208.94 738.095L1313.49 693.814" stroke="black" stroke-opacity="0.5" stroke-width="9" stroke-linecap="round"/>
<path d="M1236.61 757.775L1323.94 719.645" stroke="black" stroke-opacity="0.5" stroke-width="9" stroke-linecap="round"/>
<path d="M1240.3 691.355L1301.19 665.524" stroke="black" stroke-opacity="0.5" stroke-width="9" stroke-linecap="round"/>
<path d="M533.048 647.689C542.479 647.894 562.562 639.249 549.654 609.559C539.76 586.804 509.063 581.269 505.988 592.955" stroke="black" stroke-width="9" stroke-linecap="round"/>
<path d="M539.814 597.874L444.488 659.989" stroke="black" stroke-width="9" stroke-linecap="round"/>
<ellipse cx="509.07" cy="638.69" rx="7.38006" ry="3.69003" transform="rotate(40.6213 509.07 638.69)" fill="black"/>
<ellipse cx="509.063" cy="656.171" rx="2.46002" ry="1.84501" transform="rotate(36.52 509.063 656.171)" fill="black"/>
<ellipse cx="520.133" cy="662.321" rx="2.46002" ry="1.84501" transform="rotate(36.52 520.133 662.321)" fill="black"/>
<ellipse cx="505.371" cy="664.781" rx="2.46002" ry="1.84501" transform="rotate(36.52 505.371 664.781)" fill="black"/>
<path d="M533.664 692.585C537.559 695.865 546.456 702.056 550.884 700.58" stroke="black" stroke-width="9" stroke-linecap="round"/>
<path d="M546.579 650.764C556.779 655.191 571.243 665.724 553.028 674.325C550.786 675.383 549.424 677.757 549.805 680.207C554.491 710.348 547.312 765.276 485.025 777.329C482.606 777.797 480.773 779.887 480.773 782.351V790.37" stroke="black" stroke-width="9" stroke-linecap="round"/>
<path d="M471.526 678.519C457.262 682.088 448.059 673.445 443.807 666.107C442.618 664.054 443.458 661.523 445.448 660.232L487.097 633.215C487.39 633.025 487.665 632.804 487.91 632.554C505.336 614.844 511.324 588.571 512.139 577.579C506.337 485.724 410.992 502.533 381.421 556.241C380.466 557.975 378.629 559.033 376.654 559.157C346.881 561.027 344.154 607.459 346.867 634.506C347.1 636.833 345.756 639.018 343.597 639.916C279.933 666.407 240.384 768.327 328.869 832.806C406.077 889.067 490.276 753.69 478.296 682.337C477.785 679.296 474.518 677.77 471.526 678.519Z" fill="black"/>
<path d="M450.023 788.525C452.281 788.977 478.193 794.297 494.008 797.547C496.333 798.024 497.994 800.069 497.994 802.442V827.886" stroke="black" stroke-width="9" stroke-linecap="round"/>
<path d="M464.781 823.58C488.151 826.04 527.659 844.093 547.192 875.24C569.947 911.526 600.902 1031.45 621.607 1087.42" stroke="black" stroke-width="9" stroke-linecap="round"/>
<path d="M504.758 1040.68C533.458 1111.81 605.988 1221.98 666.504 1093.57" stroke="black" stroke-width="9" stroke-linecap="round"/>
<path d="M521.976 1080.65C484.256 1095 383.231 1112.63 280.895 1068.35" stroke="black" stroke-width="9" stroke-linecap="round"/>
<path d="M295.655 1072.66L330.921 950.722C331.528 948.624 330.744 946.407 328.938 945.179C258.626 897.36 148.512 782.508 248.915 688.895" stroke="black" stroke-width="9" stroke-linecap="round"/>
<path d="M323.947 1102.18C310.826 1184.18 283.725 1355.68 280.281 1385.69" stroke="black" stroke-width="9" stroke-linecap="round"/>
<path d="M392.827 1189.51C388.727 1252.65 379.42 1380.9 374.992 1388.77" stroke="black" stroke-width="9" stroke-linecap="round"/>
<path d="M574.255 1148.3C573.845 1221.69 571.795 1371.92 566.875 1385.69" stroke="black" stroke-width="9" stroke-linecap="round"/>
<path d="M212.629 710.42C211.604 696.07 217.918 664.787 251.374 654.455" stroke="black" stroke-width="9" stroke-linecap="round"/>
<path d="M239.074 596.029C249.939 633.954 272.53 716.693 275.975 744.245" stroke="black" stroke-width="9" stroke-linecap="round"/>
<path d="M619.762 1088.65L721.311 1097.06C726.737 1097.51 731.525 1093.54 732.084 1088.12L753.427 881.435C753.992 875.966 750.036 871.067 744.57 870.467L659.122 861.096" stroke="black" stroke-opacity="0.5" stroke-width="9" stroke-linecap="round"/>
<path d="M573.023 936.741V916.877C573.023 911.02 578.034 906.417 583.87 906.913L685.856 915.582C691.438 916.056 695.541 921.024 694.953 926.595L684.14 1029.07C683.568 1034.49 678.757 1038.45 673.325 1037.98L605.619 1032.07" stroke="black" stroke-opacity="0.5" stroke-width="9" stroke-linecap="round"/>
<path d="M651.128 979.971L639.824 998.87C637.708 1002.41 632.459 1002.01 630.903 998.19L605.617 936.126" stroke="black" stroke-opacity="0.5" stroke-width="9" stroke-linecap="round"/>
<path d="M222.47 621.244L306.959 489.303C309.902 484.707 308.617 478.601 304.072 475.581L131.948 361.206C127.284 358.107 120.985 359.441 117.978 364.164L6.87642 538.672C3.98068 543.22 5.21234 549.246 9.66075 552.293L169.58 661.834" stroke="black" stroke-opacity="0.5" stroke-width="9" stroke-linecap="round"/>
<path d="M164.044 530.223C159.919 529.354 159.289 525.542 160.158 520.713C161.782 511.682 158.641 510.116 153.726 517.865L131.449 552.978" stroke="black" stroke-opacity="0.5" stroke-width="9" stroke-linecap="round"/>
<path d="M224.317 499.473L229.663 502.727C234.48 505.659 235.921 511.991 232.848 516.719L180.052 597.944C177.003 602.635 170.699 603.912 166.065 600.778L76.2736 540.052C71.744 536.989 70.515 530.855 73.5145 526.283L125.925 446.395C128.97 441.753 135.214 440.481 139.833 443.56L144.366 446.582" stroke="black" stroke-opacity="0.5" stroke-width="9" stroke-linecap="round"/>
<rect x="155.704" y="436.143" width="19.0265" height="30.2371" rx="9.51326" transform="rotate(35.4162 155.704 436.143)" stroke="black" stroke-opacity="0.5" stroke-width="9"/>
<rect x="213.673" y="474.998" width="19.0265" height="30.2371" rx="9.51326" transform="rotate(35.4162 213.673 474.998)" stroke="black" stroke-opacity="0.5" stroke-width="9"/>
<path d="M164.043 460.113L202.173 485.943" stroke="black" stroke-opacity="0.5" stroke-width="9" stroke-linecap="round"/>
<path d="M114.23 468.108L218.166 536.988" stroke="black" stroke-opacity="0.5" stroke-width="9" stroke-linecap="round"/>
<path d="M232.311 613.249C234.945 621.556 237.539 636.269 227.152 629.49C226.909 629.332 226.678 629.144 226.47 628.942C211.028 613.944 181.891 588.505 184.809 602.766C184.893 603.173 185.054 603.594 185.256 603.957C188.335 609.508 195.794 620.652 203.406 624.934" stroke="black" stroke-width="9" stroke-linecap="round"/>
<path d="M194.18 628.623C183.725 621.038 165.564 612.634 170.81 625.548C173.559 632.314 189.261 640.309 196.641 647.689" stroke="black" stroke-width="9" stroke-linecap="round"/>
<path d="M173.27 629.239C168.145 632.314 164.291 642.523 189.875 658.759" stroke="black" stroke-width="9" stroke-linecap="round"/>
<path d="M170.197 643.999C162.817 650.149 181.882 669.829 204.022 696.274" stroke="black" stroke-width="9" stroke-linecap="round"/>
<path d="M683.723 861.711C684.953 858.841 689.258 855.561 693.563 848.796C697.593 842.463 678.803 834.651 668.348 859.866" stroke="black" stroke-width="9" stroke-linecap="round"/>
<path d="M673.885 847.566C665.7 836.652 646.954 825.924 634.556 865.05C633.544 868.246 636.075 871.339 639.291 870.394C645.388 868.604 652.86 864.477 656.665 856.176" stroke="black" stroke-width="9" stroke-linecap="round"/>
<path d="M646.823 842.646C639.853 836.906 624.559 832.682 619.148 861.711C615.823 879.546 632.064 879.546 636.983 859.251" stroke="black" stroke-width="9" stroke-linecap="round"/>
<path d="M625.914 843.875C618.739 841.005 604.019 840.923 602.544 863.555C601.542 878.931 619.764 870.321 619.764 859.251" stroke="black" stroke-width="9" stroke-linecap="round"/>
<path d="M615.62 840.33C618.08 833.565 607.502 824.585 592.25 840.33C573.185 860.01 584.87 868.62 598.4 859.395" stroke="black" stroke-width="9" stroke-linecap="round"/>
<path d="M581.017 852.486L533.047 848.181" stroke="black" stroke-opacity="0.5" stroke-width="9" stroke-linecap="round"/>
<path d="M353.141 29.4052C358.151 24.0313 340.244 25.752 330.664 27.2841C329.62 23.7469 326.848 15.2877 324.107 9.7482C320.681 2.82382 316.836 22.8215 315.511 26.929C314.186 31.0366 300.162 29.033 292.541 30.9542C284.921 32.8753 300.303 39.6755 307.222 43.3906C314.141 47.1057 303.772 58.4712 305.764 67.764C307.756 77.0568 318.005 60.9847 323.972 57.9548C329.939 54.925 330.814 68.835 341.751 72.0991C352.688 75.3632 342.726 56.8394 339.399 48.6862C336.071 40.533 346.878 36.1226 353.141 29.4052Z" stroke="black" stroke-opacity="0.5" stroke-width="9"/>
<path d="M239.875 124.411L217.342 124.84C212.157 124.938 208.033 129.22 208.132 134.402L208.775 168.184C208.873 173.367 213.157 177.488 218.342 177.389L240.875 176.96C246.06 176.862 250.184 172.58 250.085 167.398L249.442 133.616C249.343 128.433 245.06 124.312 239.875 124.411Z" stroke="black" stroke-opacity="0.5" stroke-width="9"/>
<path d="M309.502 98.0529L288.221 98.458C283.035 98.5567 278.912 102.838 279.011 108.021L280.13 166.826C280.229 172.008 284.512 176.13 289.697 176.031L310.978 175.626C316.163 175.527 320.287 171.246 320.188 166.063L319.069 107.258C318.97 102.075 314.687 97.9542 309.502 98.0529Z" stroke="black" stroke-opacity="0.5" stroke-width="9"/>
<path d="M380.367 71.0461L357.835 71.475C350.921 71.6066 345.423 77.315 345.555 84.2251L347.103 165.552C347.234 172.462 352.945 177.957 359.859 177.825L382.392 177.396C389.305 177.265 394.803 171.556 394.672 164.646L393.124 83.3196C392.992 76.4095 387.281 70.9145 380.367 71.0461Z" fill="black" fill-opacity="0.5"/>
<path d="M751.376 365.437C788.276 362.977 934.026 379.751 935.01 359.579C935.215 322.679 930.833 200.668 914.105 201.16C897.376 201.652 770.236 242.026 748.301 244.896C732.31 246.988 726.162 247.356 732.311 294.096" stroke="black" stroke-opacity="0.5" stroke-width="9" stroke-linecap="round"/>
<path d="M762.651 302.754C764.167 282.075 774.866 248.843 805.528 281.348C843.855 321.978 887.891 248.684 894.667 235.152" stroke="black" stroke-opacity="0.5" stroke-width="9" stroke-linecap="round"/>
<path d="M766.97 311.116C775.366 308.069 793.371 303.93 800.541 321.057C810.447 344.719 837.896 382.89 891.362 300.846" stroke="black" stroke-opacity="0.5" stroke-width="9" stroke-linecap="round" stroke-dasharray="10 10"/>
<path d="M1489.24 37.1662C1498.16 43.4101 1500.39 45.7515 1504.11 56.6783" stroke="black" stroke-opacity="0.5" stroke-width="9" stroke-linecap="round"/>
<path d="M1502.73 115.351L1541.54 163.694C1545.46 168.575 1552.59 169.356 1557.47 165.437C1562.35 161.519 1563.13 154.385 1559.22 149.505L1520.41 101.162" stroke="black" stroke-opacity="0.5" stroke-width="9" stroke-linecap="round"/>
<path d="M1476.7 115.214C1504.67 115.214 1527.34 92.5428 1527.34 64.576C1527.34 36.6092 1504.67 13.9376 1476.7 13.9376C1448.73 13.9376 1426.06 36.6092 1426.06 64.576C1426.06 92.5428 1448.73 115.214 1476.7 115.214Z" stroke="black" stroke-opacity="0.5" stroke-width="9"/>
</svg>
