<svg width="1960" height="1400" viewBox="0 0 1960 1400" fill="none" xmlns="http://www.w3.org/2000/svg">
<path d="M1513.48 250.645L1470.15 247.383C1467.72 247.201 1465.5 248.784 1465.09 251.183C1462.37 267.021 1463.02 297.41 1487.67 299.296C1502.6 300.439 1514.55 280.509 1511.92 265.798" stroke="black" stroke-width="9" stroke-linecap="round"/>
<path d="M1463.86 257.192L1407.36 256.75" stroke="black" stroke-width="9" stroke-linecap="round"/>
<path d="M1463.45 267.489L1415.53 265.18" stroke="black" stroke-width="9" stroke-linecap="round"/>
<path d="M1512.72 273.339C1512.59 281.245 1514.79 299.131 1523.86 314.517C1525.76 317.74 1524.09 322.131 1520.42 322.838L1506.3 325.554" stroke="black" stroke-width="9" stroke-linecap="round"/>
<path d="M1501.89 335.31C1498.27 353.103 1485.23 386.487 1461.27 384.102C1459.18 383.894 1457.04 384.69 1455.89 386.447L1446.63 400.565" stroke="black" stroke-width="9" stroke-linecap="round"/>
<path d="M1386.28 329.444C1385.73 336.455 1381.94 353.603 1371.13 366.102" stroke="black" stroke-width="9" stroke-linecap="round"/>
<ellipse cx="6.84368" cy="11.0628" rx="6.84368" ry="11.0628" transform="matrix(-0.952893 -0.303305 -0.303305 0.952893 1503.1 268.428)" fill="black"/>
<path d="M1415.69 262.057C1417.66 264.874 1418.34 268.598 1418.47 271.319C1418.52 272.208 1417.46 272.576 1416.86 271.917C1409.72 264.058 1396.67 253.309 1391.11 262.145C1385.51 271.031 1400.33 284.037 1410.07 290.587C1410.82 291.087 1410.61 292.253 1409.73 292.444L1404.44 293.598C1403.94 293.707 1403.6 294.193 1403.65 294.702C1405.91 320.911 1381.11 322.716 1367.95 320.26C1367.72 320.218 1367.48 320.261 1367.28 320.37C1336.21 336.983 1329.83 311.894 1330.51 296.745C1330.53 296.418 1330.38 296.102 1330.12 295.898C1306.12 276.888 1312.66 260.479 1319.49 254.012C1319.86 253.66 1319.92 253.071 1319.64 252.646C1295.68 216.916 1317.8 204.872 1334.14 202.894C1335.07 202.781 1335.46 201.513 1334.77 200.881C1329.67 196.204 1320.17 184.657 1328 170.718C1341.14 147.333 1365.62 164.134 1377.6 163.122C1389.57 162.11 1501.33 50.5917 1545.58 134.453C1581.16 201.881 1532.03 228.12 1504.5 228.376C1504.42 228.377 1504.34 228.387 1504.27 228.406C1469.9 236.882 1461.09 209.904 1449.95 200.771C1449.31 200.245 1448.42 200.792 1448.47 201.62C1450.33 231.4 1433.16 239.297 1423.03 239.637C1422.36 239.659 1421.86 240.292 1422 240.947C1423.97 250.597 1419.21 257.578 1415.86 260.523C1415.43 260.909 1415.35 261.578 1415.69 262.057Z" fill="black"/>
<path d="M1399.05 270.16C1401.51 270.456 1406.57 272.347 1407.19 277.541" stroke="black" stroke-width="9" stroke-linecap="round"/>
<path d="M1464.06 347.849C1465.23 351.369 1470.15 357.328 1480.45 352.998" stroke="black" stroke-width="9" stroke-linecap="round"/>
<path d="M479.108 290.141C479.108 308.554 464.726 323.213 447.31 323.213C429.893 323.213 415.512 308.554 415.512 290.141C415.512 271.729 429.893 257.07 447.31 257.07C464.726 257.07 479.108 271.729 479.108 290.141Z" stroke="black" stroke-width="9"/>
<circle cx="362.614" cy="289.504" r="32.4348" stroke="black" stroke-width="9"/>
<path d="M399.551 282.629C402.381 281.951 408.891 281.105 412.287 283.136" stroke="black" stroke-width="9" stroke-linecap="round"/>
<ellipse cx="371.532" cy="294.599" rx="7.64167" ry="8.91529" fill="black"/>
<ellipse cx="443.489" cy="295.236" rx="7.00487" ry="8.27848" fill="black"/>
<path d="M431.391 271.674C433.85 269.976 440.859 266.325 449.221 265.306" stroke="black" stroke-width="9" stroke-linecap="round"/>
<path d="M357.52 264.613C364.914 262.946 375.669 264.613 381.718 272.948" stroke="black" stroke-width="9" stroke-linecap="round"/>
<path d="M403.371 317.507C407.801 317.719 417.06 315.981 418.654 307.335" stroke="black" stroke-width="9" stroke-linecap="round"/>
<path d="M381.719 345.543C388.304 353.295 388.122 360.272 411.012 352.003" stroke="black" stroke-width="9" stroke-linecap="round"/>
<path d="M458.49 322.618C461.49 338.616 458.085 353.794 434.057 376.845C406.41 403.368 393.55 416.63 354.973 388.212" stroke="black" stroke-width="9" stroke-linecap="round"/>
<path d="M460.716 341.722C452.603 237.947 378.363 196.057 341.389 187.831C319.585 191.374 307.781 250.273 280.317 256.728C272.156 256.728 264.654 255.115 260.931 238.439C241.156 149.85 299.345 146.278 324.909 149.231C471.96 66.9712 550.721 240.478 460.716 341.722Z" fill="black"/>
<path d="M276.012 295.872C275.051 298.165 273.705 303.667 276.012 307.335" stroke="black" stroke-width="9" stroke-linecap="round"/>
<path d="M328.23 281.863H274.738" stroke="black" stroke-width="9" stroke-linecap="round"/>
<path d="M282.637 284.353C273.943 278.06 259.196 283.039 264.333 306.832C267.536 321.668 282.179 323.766 284.925 314.475" stroke="black" stroke-width="9" stroke-linecap="round"/>
<path d="M481.484 453.801C477.252 472.488 468.686 507.134 460.684 531.491" stroke="black" stroke-width="9" stroke-linecap="round"/>
<path d="M428.315 399.035C431.247 431.39 433.58 487.593 425.023 547.411" stroke="black" stroke-width="9" stroke-linecap="round"/>
<path d="M325.68 433.423C335.067 468.577 361.42 513.124 411.012 551.466" stroke="black" stroke-width="9" stroke-linecap="round"/>
<path d="M329.5 424.507C339.652 447.551 371.895 486.185 385.539 499.65" stroke="black" stroke-width="9" stroke-linecap="round"/>
<path d="M395.73 498.377C404.292 480.502 422.484 441.378 428.844 424.507" stroke="black" stroke-width="9" stroke-linecap="round"/>
<path d="M396.323 505.382C396.323 509.136 393.523 511.708 390.634 511.708C387.745 511.708 384.945 509.136 384.945 505.382C384.945 501.627 387.745 499.056 390.634 499.056C393.523 499.056 396.323 501.627 396.323 505.382Z" stroke="black" stroke-width="9"/>
<path d="M676.179 406.67C686.326 435.897 718.149 460.207 709.098 509.66C708.984 510.285 708.322 510.661 707.743 510.399C693.318 503.878 664.645 483.681 661.04 459.403C661.021 459.275 661.028 459.145 661.059 459.019L674.131 406.732C674.38 405.736 675.842 405.7 676.179 406.67Z" fill="black"/>
<path d="M514.175 639.111C689.934 646.753 761.186 520.461 676.325 410.078" stroke="black" stroke-width="9" stroke-linecap="round"/>
<path d="M710.141 510.891C690.999 504.085 651.185 474.777 645.06 411.993" stroke="black" stroke-width="9" stroke-linecap="round"/>
<path d="M624.792 468.9C605.333 450.396 596.718 438.911 593.527 429.979C599.142 464.688 586.993 479.886 582.314 492.009C589.333 508.598 613.69 558.099 638.191 552.484C668.817 545.465 648.72 491.654 624.792 468.9Z" fill="black"/>
<path d="M595.051 429.602C597.178 455.549 590.594 479.273 579.768 492.009" stroke="black" stroke-width="9" stroke-linecap="round"/>
<path d="M530.733 457.395C536.688 451.227 544.106 446.795 556.286 457.395C578.913 477.086 609.244 577.348 646.251 547.36C675.856 523.369 621.796 462.456 596.961 435.073" stroke="black" stroke-width="9" stroke-linecap="round"/>
<path d="M619.887 580.769C501.422 608.448 394.207 802.084 226.31 539.256C212.269 515.499 199.791 459.035 262.211 423.234" stroke="black" stroke-width="9" stroke-linecap="round"/>
<path d="M616.703 408.587C678.261 411.134 876.775 410.242 918.549 393.94C970.767 373.562 1264.34 425.78 1297.45 411.771" stroke="black" stroke-width="9" stroke-linecap="round"/>
<path d="M240.348 411.134C212.54 417.715 153.615 410.752 140.369 330.26C123.812 229.645 155.652 171.058 209.144 156.412C251.938 144.695 328.015 132.85 360.704 128.392" stroke="black" stroke-width="9" stroke-linecap="round"/>
<path d="M439.668 125.845C637.715 119.477 1005.66 125.591 1040.81 119.477" stroke="black" stroke-width="9" stroke-linecap="round"/>
<path d="M1116.59 220.09C1109.38 207.991 1090.36 184.556 1072.02 187.613C1051.17 191.088 1042.43 164.537 1048.21 153.475C1049.19 151.589 1051.59 151.417 1053.54 152.271C1063.96 156.84 1079.23 157.558 1067.56 134.758C1053.55 107.377 1026.17 92.0948 1036.99 80.6295C1044.07 73.1314 1057.74 80.7551 1067.79 83.4027C1071.4 84.3552 1072.63 80.7533 1070.08 78.0189C1052.83 59.512 1031.99 26.7623 1054.82 8.0361C1086.66 -18.073 1096.85 132.85 1224.85 130.94C1352.85 129.029 1376.41 130.94 1403.79 134.758" stroke="black" stroke-width="9" stroke-linecap="round"/>
<path d="M1154.8 111.835C1145.97 92.9271 1135.97 51.4127 1164.02 32.1471C1165.71 30.982 1167.97 31.1466 1169.5 32.524C1184.78 46.299 1204.08 78.1184 1175.18 111.835" stroke="black" stroke-width="9" stroke-linecap="round"/>
<path d="M1569.36 146.86C1650.66 151.53 1752.76 150.936 1790.97 146.86C1838.73 141.766 1880.76 144.313 1883.31 214.998" stroke="black" stroke-width="9" stroke-linecap="round"/>
<path d="M1822.18 182.521C1763.59 241.107 1761.3 416.611 1838.73 425.781" stroke="black" stroke-width="9" stroke-linecap="round"/>
<path d="M1819.63 303.514C1820.05 270.612 1832.55 185.27 1867.39 200.351C1910.06 218.818 1905.6 335.354 1867.39 399.034C1861.66 406.464 1846.37 411.898 1831.09 374.2" stroke="black" stroke-width="9" stroke-linecap="round"/>
<path d="M1871.85 398.398C1868.88 408.587 1854.15 429.474 1818.99 431.512C1775.05 434.059 1710.1 429.602 1694.18 431.512" stroke="black" stroke-width="9" stroke-linecap="round"/>
<path d="M1868.03 293.962C1867.18 306.91 1863.57 333.571 1855.93 336.628" stroke="black" stroke-width="9" stroke-linecap="round"/>
<path d="M1860.38 239.833C1863.35 246.414 1868.41 260.593 1864.84 264.669" stroke="black" stroke-width="9" stroke-linecap="round"/>
<circle cx="1824.72" cy="334.081" r="5.09445" fill="black"/>
<path d="M539.647 399.672C499.104 402.856 472.91 407.314 435.211 399.672" stroke="black" stroke-width="9" stroke-linecap="round"/>
<path d="M1497.87 1258.4C1624.98 1214.6 1520.06 934.532 1461.16 804.5C1362.53 830.78 1278.23 794.389 1238.97 768.383C1235.3 788.003 1215.14 846.676 1163.63 924.422C1112.13 1002.17 1045.31 1042.6 1033.5 1076.35C1004.73 1158.48 1067.75 1200.91 1099.25 1210.49C1209.93 1235.68 1303.35 1111.49 1336.23 1046.24C1383.35 1238.96 1463.62 1267.98 1497.87 1258.4Z" fill="black"/>
<path d="M1520.35 1238.35C1519.41 1252.53 1525.86 1300.13 1563.05 1274.04C1572.22 1264.89 1593.9 1249.88 1607.13 1263.06C1620.35 1276.24 1594.26 1300.58 1579.58 1311.11C1564.43 1323.01 1527.24 1343.23 1499.69 1328.96C1472.14 1314.68 1472.58 1277.24 1476.27 1260.31" stroke="black" stroke-width="9" stroke-linecap="round"/>
<path d="M1069.47 1188.46C1059.89 1193.09 1040.73 1205.97 1040.73 1220.42C1051.68 1236.18 1069.2 1274.9 1051.68 1303.81C1034.16 1332.72 1002.41 1266.75 988.727 1230.15C981.885 1209.3 981.064 1163.16 1032.52 1145.37" stroke="black" stroke-width="9" stroke-linecap="round"/>
<path d="M1478.3 1319.86C1472.47 1331.37 1449.56 1348.32 1404.43 1324" stroke="black" stroke-width="9" stroke-linecap="round"/>
<path d="M1449.01 1300.75C1436.03 1311.46 1401.29 1329.09 1357.31 1314.02" stroke="black" stroke-width="9" stroke-linecap="round"/>
<path d="M1386.6 1293.11C1370.03 1311.74 1323.9 1341.8 1271.98 1313.07" stroke="black" stroke-width="9" stroke-linecap="round"/>
<path d="M1314 1282.92C1309.91 1299.59 1254.51 1335.16 1065.65 1344.06" stroke="black" stroke-width="9" stroke-linecap="round"/>
<path d="M532.008 1344.06C519.027 1356.2 484.294 1376.17 440.308 1359.09" stroke="black" stroke-width="9" stroke-linecap="round"/>
<path d="M469.598 1333.87C453.025 1356.22 406.899 1392.3 354.973 1357.81" stroke="black" stroke-width="9" stroke-linecap="round"/>
<path d="M397.004 1322.4C392.91 1342.2 337.508 1384.44 148.649 1395" stroke="black" stroke-width="9" stroke-linecap="round"/>
<path d="M193.299 1194.04C222.091 1166.69 261.06 1148.92 287.761 1116.72L181.821 1087.64C143.983 1117 105.525 1134.21 93.3198 1216.94C81.1149 1299.68 149.81 1361.97 166.28 1354.37C177.625 1346.89 201.576 1327.79 176.503 1296C145.162 1256.25 161.837 1223.93 193.299 1194.04Z" fill="black"/>
<path d="M526.656 1208.92C520.528 1170.82 524.915 1127.2 514.731 1089.05L427.483 1112.49C431.201 1159.84 451.001 1265.93 500.457 1311.45C549.914 1356.98 619.312 1318.75 621.107 1300.28C620.861 1286.62 618.176 1256.44 586.876 1266.65C547.752 1279.42 533.352 1250.55 526.656 1208.92Z" fill="black"/>
<path d="M503.009 750.552C516.061 804.06 536.207 888.969 511.146 1088.9C476.734 1112.29 361.916 1145.04 177.941 1088.9C188.858 996.947 191.951 821.238 255.631 718.075" stroke="black" stroke-width="9" stroke-linecap="round"/>
<path d="M484.883 1011.64C452.796 1030.12 373.45 1055.2 249.265 1026.98" stroke="black" stroke-width="9" stroke-linecap="round"/>
<path d="M491.25 923.579C452.365 933.766 356.66 948.027 284.925 923.579" stroke="black" stroke-width="9" stroke-linecap="round"/>
<path d="M461.32 769.019L434.663 1084.24" stroke="black" stroke-width="9" stroke-linecap="round"/>
<path d="M491.25 830.79C460.877 839.44 382.948 851.549 314.218 830.79" stroke="black" stroke-width="9" stroke-linecap="round"/>
<path d="M272.188 963.245L249.262 1084.24" stroke="black" stroke-width="9" stroke-linecap="round"/>
<path d="M372.805 805.318L329.502 1084.24" stroke="black" stroke-width="9" stroke-linecap="round"/>
<path d="M247.353 577.978C242.258 648.663 238.82 720.622 319.312 748.642C406.517 778.998 451.147 728.989 504.614 751.189" stroke="black" stroke-width="9" stroke-linecap="round"/>
<path d="M510.355 646.753C516.087 667.343 524.11 716.801 510.355 749.915" stroke="black" stroke-width="9" stroke-linecap="round"/>
<path d="M571.999 343.18C569.907 338.863 567.458 335.935 564.696 335.882C556.666 335.732 558.744 347.226 560.788 352.992C565.541 367.162 572.898 393.46 555.972 378.249C539.044 363.038 534.879 373.556 546.06 409.565C534.553 463.989 496.6 551.614 344.785 563.331" stroke="black" stroke-width="9" stroke-linecap="round"/>
<path d="M601.472 361.634C608.629 362.962 620.982 373.787 608.585 404.725C603.894 416.43 602.814 417.985 596.329 427.839" stroke="black" stroke-width="9" stroke-linecap="round"/>
<path d="M579.715 372.655C578.61 364.652 575.92 351.382 571.932 343.155C574.635 338.043 580.172 334.68 585.917 347.959C588.404 353.708 590.93 362.576 593.283 375.774" stroke="black" stroke-width="9" stroke-linecap="round"/>
<path d="M593.349 375.799C590.997 362.602 588.471 353.733 585.983 347.984C589.984 343.88 597.637 342.392 601.471 361.633C602.309 365.84 602.965 371.04 603.359 377.42" stroke="black" stroke-width="9" stroke-linecap="round"/>
<path d="M1663.41 407.167C1664.58 402.513 1664.57 398.696 1662.49 396.885C1656.42 391.622 1650.65 401.775 1648.52 407.511C1643.08 421.433 1631.87 446.332 1628.63 423.807C1625.39 401.282 1615.45 406.683 1600.95 441.487" stroke="black" stroke-width="9" stroke-linecap="round"/>
<path d="M1674.21 440.224C1678.85 445.832 1681.39 462.06 1652.04 477.856C1640.94 483.832 1639.11 484.333 1627.82 487.739" stroke="black" stroke-width="9" stroke-linecap="round"/>
<path d="M1650.44 434.736C1654.73 427.885 1661.17 415.976 1663.38 407.105C1668.73 404.915 1675.14 405.883 1671.03 419.758C1669.26 425.765 1665.51 434.19 1658.86 445.827" stroke="black" stroke-width="9" stroke-linecap="round"/>
<path d="M1658.89 445.89C1665.55 434.253 1669.29 425.828 1671.07 419.821C1676.77 419.235 1683.6 423 1674.21 440.224C1672.15 443.99 1669.32 448.402 1665.53 453.551" stroke="black" stroke-width="9" stroke-linecap="round"/>
<path d="M1472.57 528.307C1472.57 485.641 1456.65 460.805 1436.43 441.434" stroke="black" stroke-width="9" stroke-linecap="round"/>
<path d="M1240.47 787.447C1223.31 687.267 1234.08 622.611 1240.47 574.298C1250.35 499.576 1268.32 469.355 1280.82 449.963C1296.44 425.741 1331.33 403.86 1354.78 412.306" stroke="black" stroke-width="9" stroke-linecap="round"/>
<path d="M1399.37 459.59C1445.38 549.473 1479.15 546.964 1490.28 534.475C1513.42 511.939 1566.93 469.383 1595.88 479.458C1624.84 489.532 1606.66 523.666 1593.94 539.474C1553.69 597.164 1459 701.996 1402.26 659.801C1345.52 617.605 1318.04 548.734 1311.39 519.573" stroke="black" stroke-width="9" stroke-linecap="round"/>
<path d="M1356.06 413.365C1352.35 400.426 1350.18 375.744 1371.16 380.541C1397.39 386.537 1450.06 425.363 1446.14 439.739" stroke="black" stroke-width="9" stroke-linecap="round"/>
<path d="M1461.11 681.777C1451.77 703.036 1434.16 735 1461.11 788.5" stroke="black" stroke-width="9" stroke-linecap="round"/>
<path d="M1587.19 434.696C1559.81 432.361 1473.08 427.818 1454.74 428.328" stroke="black" stroke-width="9" stroke-linecap="round"/>
<path d="M54.4023 309.882C56.3128 337.902 68.1574 399.417 100.252 421.323" stroke="black" stroke-width="9" stroke-linecap="round"/>
<path d="M4.73047 367.195C6.00408 377.596 12.2448 399.927 27.0187 406.04" stroke="black" stroke-width="9" stroke-linecap="round"/>
<path d="M165.844 78.7214C168.391 81.6932 173.995 89.4198 176.033 96.552" stroke="black" stroke-width="9" stroke-linecap="round"/>
<path d="M217.424 49.4285C215.513 54.9475 213.603 67.259 221.244 72.3535" stroke="black" stroke-width="9" stroke-linecap="round"/>
<path d="M276.011 39.8762C275.375 47.3056 275.502 63.3107 281.106 67.8957" stroke="black" stroke-width="9" stroke-linecap="round"/>
<path d="M1939.35 417.502L1955.27 439.154" stroke="black" stroke-width="9" stroke-linecap="round"/>
<path d="M1896.68 444.885C1899.02 453.376 1906.24 470.867 1916.42 472.905" stroke="black" stroke-width="9" stroke-linecap="round"/>
<path d="M1851.47 486.278C1852.74 490.311 1857.45 497.995 1866.12 496.466" stroke="black" stroke-width="9" stroke-linecap="round"/>
<path d="M1801.8 78.0844C1817.29 64.287 1862.17 52.7395 1917.7 116.93" stroke="black" stroke-width="9" stroke-linecap="round"/>
<path d="M1884.58 17.5884C1895.2 15.0412 1918.59 16.3148 1927.25 41.7871" stroke="black" stroke-width="9" stroke-linecap="round"/>
<path d="M682.93 260.848C712.86 251.933 782.908 236.777 823.664 247.475C874.608 260.848 963.124 247.475 980.318 247.475" stroke="black" stroke-width="9" stroke-linecap="round"/>
<path d="M1666.16 209.904C1662.55 221.791 1657.5 250.404 1666.16 269.763C1676.98 293.962 1666.16 318.161 1666.16 328.986" stroke="black" stroke-width="9" stroke-linecap="round"/>
<path d="M1148.43 262.122C1157.99 257.027 1180.66 241.107 1194.92 218.182" stroke="black" stroke-width="9" stroke-linecap="round"/>
</svg>
