<svg width="261" height="273" viewBox="0 0 261 273" fill="none" xmlns="http://www.w3.org/2000/svg">
<path d="M162.206 86.6342C163.647 86.1906 167.46 85.7696 171.184 87.6318" stroke="black" stroke-width="3" stroke-linecap="round"/>
<path d="M148.904 103.926C151.476 103.926 153.56 101.693 153.56 98.9379C153.56 96.1832 151.476 93.95 148.904 93.95C146.333 93.95 144.249 96.1832 144.249 98.9379C144.249 101.693 146.333 103.926 148.904 103.926Z" fill="black"/>
<path d="M186.813 110.577C189.384 110.577 191.469 108.343 191.469 105.589C191.469 102.834 189.384 100.601 186.813 100.601C184.242 100.601 182.158 102.834 182.158 105.589C182.158 108.343 184.242 110.577 186.813 110.577Z" fill="black"/>
<path d="M137.599 90.9571C137.931 88.8509 139.993 84.8385 145.579 85.6366" stroke="black" stroke-width="3" stroke-linecap="round"/>
<path d="M180.163 90.2919C182.823 87.9642 189.474 84.7053 194.794 90.2919" stroke="black" stroke-width="3" stroke-linecap="round"/>
<path d="M165.863 95.9451C168.967 101.044 173.312 111.973 165.863 114.9L162.206 116.23" stroke="black" stroke-width="3" stroke-linecap="round"/>
<path d="M153.228 126.538C154.004 128.644 156.952 132.125 162.538 129.198" stroke="black" stroke-width="3" stroke-linecap="round"/>
<path d="M46.151 77.6557C35.2439 113.569 65.5483 139.618 82.0646 148.153C96.962 139.108 118.2 134.519 127.289 133.189C115.983 123.878 112.547 106.808 111.66 98.9378C105.674 100.933 89.7128 93.2848 97.0286 77.6557C102.881 65.1525 109.221 71.5591 111.66 76.3256L127.954 83.6413C127.954 68.4778 138.373 63.3568 143.583 62.6917C146.775 60.5635 150.234 53.6023 151.564 50.388C153.16 62.8913 169.521 72.0027 177.502 74.9955C187.877 66.7487 196.234 71.5591 199.116 74.9955L206.432 73.9979C220.731 69.1209 246.402 52.4497 234.697 24.783C222.992 -2.88374 198.784 2.17076 188.143 8.15635C151.697 -16.052 115.096 19.3514 101.351 40.0795C87.4955 37.6407 57.0581 41.7422 46.151 77.6557Z" fill="black"/>
<path d="M127.623 83.974L111.661 75.6607" stroke="black" stroke-width="3" stroke-linecap="round"/>
<path d="M161.873 83.3089C161.873 94.778 154.034 103.593 144.914 103.593C135.793 103.593 127.955 94.778 127.955 83.3089C127.955 71.8392 135.793 63.0244 144.914 63.0244C154.034 63.0244 161.873 71.8392 161.873 83.3089Z" stroke="black" stroke-width="3"/>
<path d="M205.767 90.6245C205.767 102.094 197.929 110.909 188.808 110.909C179.688 110.909 171.849 102.094 171.849 90.6245C171.849 79.1547 179.688 70.34 188.808 70.34C197.929 70.34 205.767 79.1547 205.767 90.6245Z" stroke="black" stroke-width="3"/>
<path d="M206.432 154.727C231.97 134.243 217.405 106.621 206.764 95.2036C200.912 122.87 187.367 134.775 181.492 137.435L190.803 142.423L206.432 154.727Z" fill="black"/>
<path d="M113.655 83.3089C113.101 77.2123 106.007 62.6919 98.3586 76.3257C95.0333 82.5328 92.639 95.8122 109.665 99.2705" stroke="black" stroke-width="3" stroke-linecap="round"/>
<path d="M108.003 80.981C106.451 82.3111 104.145 85.7694 107.338 88.9617" stroke="black" stroke-width="3" stroke-linecap="round"/>
<path d="M204.438 98.2728C202.576 108.914 198.452 118.553 194.129 124.543C191.426 128.289 187.047 133.016 181.463 137.138" stroke="black" stroke-width="3" stroke-linecap="round"/>
<path d="M111.328 99.2704C111.106 112.793 116.383 132.856 140.591 143.497C144.315 145.134 147.976 146.073 151.534 146.451" stroke="black" stroke-width="3" stroke-linecap="round"/>
<path d="M179.165 159.791C173.845 158.461 168.746 162.784 166.861 165.112C165.864 167.218 165.398 171.364 171.517 171.098C179.165 170.765 181.493 159.791 190.471 177.416C197.654 191.515 198.12 219.204 197.455 231.286" stroke="black" stroke-width="3" stroke-linecap="round" stroke-linejoin="round"/>
<path d="M161.758 156.134C160.023 159.903 158.614 166.974 166.861 165.112" stroke="black" stroke-width="3" stroke-linecap="round" stroke-linejoin="round"/>
<path d="M164.967 143.165C160.312 145.16 153.56 152.343 156.22 157.131C156.553 157.685 157.55 158.727 158.88 158.461C159.463 158.345 160.413 157.331 161.758 156.133C164.254 153.913 168.111 151.063 173.512 152.143" stroke="black" stroke-width="3" stroke-linecap="round" stroke-linejoin="round"/>
<path d="M258.023 257.35C261.348 241.056 258.108 202.821 217.406 166.11L190.471 142.5L173.512 133.521L170.187 132.856L157.551 135.849L156.22 137.179L151.897 145.16C151.232 146.823 154.093 148.751 158.881 147.155" stroke="black" stroke-width="3" stroke-linecap="round" stroke-linejoin="round"/>
<path d="M126.293 134.519C104.678 137.401 48.5663 149.791 14.5615 200.028C-17.4867 247.374 18.7594 267.326 45.6945 268.324" stroke="black" stroke-width="3" stroke-linecap="round" stroke-linejoin="round"/>
<path d="M60.1952 268.834C60.6063 270.109 60.3037 271.026 58.7022 271.163C53.9623 271.57 48.3331 264.222 46.1118 260.497" stroke="black" stroke-width="3" stroke-linecap="round"/>
<path d="M60.1835 254.403C62.5491 258.183 66.6745 264.007 70.2912 267.311C69.9613 269.85 67.4799 273.71 60.1955 268.834C59.0862 265.393 52.7773 259.344 52.7773 258.974" stroke="black" stroke-width="3" stroke-linecap="round"/>
<path d="M66.6017 250.848C71.1274 255.842 79.3403 266.542 75.9831 269.386C75.3879 269.89 74.629 269.938 73.7611 269.643C72.7276 269.291 71.5398 268.451 70.2908 267.311C66.6741 264.007 62.5487 258.183 60.1831 254.403" stroke="black" stroke-width="3" stroke-linecap="round"/>
<path d="M29.3999 263.864C36.9703 254.383 61.1708 233.834 74.9955 246.277C80.5089 251.779 87.3803 261.724 83.4305 265.787C81.4553 267.311 77.1802 265.279 74.4229 261.216" stroke="black" stroke-width="3" stroke-linecap="round"/>
<path d="M56.37 209.798C51.6035 213.567 44.1328 223.365 52.3796 232.41" stroke="black" stroke-width="3" stroke-linecap="round"/>
</svg>
